
  <svg version="1.0" id="图层_1" xmlns="http://www.w3.org/2000/svg" xmlns:xlink="http://www.w3.org/1999/xlink" x="0px" y="0px" width="100%" height="100%" viewBox="0 0 720 1280" xml:space="preserve"
  style="position: relative;display: block;"
  ><g>
  <g>
    <path opacity="0.6" fill="#FFFFFF" stroke="#009FE8" stroke-width="5.0868" enable-background="new    " d="M716.377,487.865
      c0.464-5.08,0-9.696,0-9.696l-2.768-8.774l-3.696-10.156h-2.771l-3.693-7.9c0,0-3.693-1.333-5.078-0.41
      c-1.385,0.922-1.847,0-1.847,0l-3.235-3.231c0,0-0.923-3.693-2.308-5.079c-1.387-1.386,0-4.618,0-4.618s0-2.771-4.615-5.538
      c-4.616-2.772,0,0-1.847,0c-1.85,0-2.771,2.309-4.159,3.229c-1.379,0.925-2.307,0.464-5.998-5.076
      c-3.7-5.542-2.772-6.465-2.772-6.465l4.157-12.466l2.31-10.617l-5.538-6.002v-5.078c0,0,0.921-7.85,2.05-10.62
      c1.129-2.77-0.668-5.079-0.204-6.925c0.462-1.848,0-6.927,0-8.772c0-1.847-2.313-9.234-2.772-12.468
      c-0.461-3.23,0.462-6.463,0-9.694c-0.461-3.233-3.025-6.002-3.025-6.002v-3.232l-0.202-6.925c0,0,0.458-9.234,0-12.005
      c-0.464-2.771-1.852-7.388-1.852-7.388l1.852-8.773l-6.465-5.079c0,0-4.156,0-6.929,0.461c-2.77,0.459-1.385,2.311-2.77,3.231
      c-1.388,0.924-1.388,2.31-3.231,5.54c-1.852,3.233-1.852,4.619-2.313,6.003c-0.462,1.386-1.849,4.616-3.229,6.001
      c-1.387,1.385-3.69,4.155-5.082,4.617c-1.384,0.464-4.153,4.155-4.153,4.155s-2.311,1.845-7.854,3.233
      c-5.536,1.385-9.229,6.464-9.229,6.464v4.154v12.468l-2.313,11.542c0,0-2.307,6.464-5.999,7.388
      c-3.693,0.923-7.388-3.694-7.388-3.694l-3.694-3.693c0,0-0.924-5.077-2.771-9.233c-1.847-4.155-2.309-5.081-2.309-5.081
      l-3.232-4.153h-5.54l-7.386,3.693l-10.62,5.541v-4.619l-2.483-17.257c0,0,0-5.886-0.17-6.405
      c-0.178-0.521-1.735-11.083-1.735-12.295c0-1.211-0.689-6.059-0.689-7.443c0-1.386-0.52-11.313-0.52-11.313
      s3.811-6.002,4.325-6.524c0.523-0.519,1.731-4.154,1.731-4.154l1.732-3.117c0,0,2.945-7.443,2.945-8.482s0.172-6.407,0.172-6.407
      l1.562-7.098l3.807-10.39l1.729-1.04l5.542-3.463l1.731-3.115l0.862-2.077l-0.809-3.291l-1.788-2.771l-1.905-0.52
      c0,0-4.5,1.038-5.538,1.038s-3.292-0.863-3.292-0.863l-1.901-4.157c0,0-0.521-3.116-0.346-5.714
      c0.172-2.597,4.326-11.081,4.326-11.081l-0.749-7.387l9.692-12.698l1.501-11.66l-1.441,0.579l-2.945,1.559l-14.368,0.174
      l-10.733-1.386l-9.521-2.771l-4.16-2.424l-7.44-3.981l-2.602-1.905l-4.326-3.982l-5.021-5.192l-5.536-7.444l-3.465,0.69
      c0,0-3.982,3.636-4.5,3.636c-0.522,0-6.581,4.501-6.581,4.501l-5.658,0.174l-4.847,1.387l-3.232,1.844
      c0,0-5.308,1.849-6.229,1.617c-0.925-0.231-6.697,0.231-6.697,0.231s-12.465,3.23-15.237,3.924
      c-2.771,0.69-5.998,4.616-6.464,5.466c-0.459,0.85-4.614,10.925-7.386,13.926c-2.771,3.002-5.773,10.621-6.694,12.698
      c-0.923,2.078,0.92,4.152,1.846,4.848c0.923,0.694,6.232,4.386,8.31,5.541c2.078,1.154,1.616,2.538,2.772,4.385
      c1.151,1.848,1.151,3.001,1.151,3.001s0,0-0.229,3.463c-0.229,3.464-1.154,1.85-1.849,2.31c-0.69,0.463-3.462,4.156-4.154,4.851
      c-0.69,0.692-1.385,3-1.612,3.691c-0.234,0.69-2.312,3.232-3.003,5.079c-0.692,1.846-2.773,3.925-3.925,5.772
      c-1.155,1.845-4.615,1.153-4.615,1.153s-4.388-0.924-6.003-1.616c-1.617-0.691-5.083-7.85-6.003-9.699
      c-0.923-1.844-2.773-2.999-2.773-2.999l-0.92,2.077c0,0-3.697,7.85-4.387,8.772c-0.691,0.923-4.156,1.384-4.85,1.384
      c-0.69,0-2.771-1.613-4.619-4.154c-1.846-2.541-2.537-2.078-3.229-2.078s-1.387,0.692-1.387,0.692l-5.311,3.001l-3-1.384
      c0,0-4.389-1.384-5.312-1.384s-4.384,0.459-7.849,1.152c-3.467,0.692-6.233,7.617-6.695,8.312c-0.462,0.69,0,9.233,0,9.233
      s-4.85,6.232-7.391,6.927c-2.543,0.691-11.313-7.158-11.313-7.158s-4.387-12.005-12.004-15.929
      c-7.621-3.926-31.397,9.233-31.397,9.233l5.076,9.926l-2.309,3.463l-2.998,4.849l-2.54,7.387l-7.853,14.544l-4.155,3.003h-3.234
      c0,0,0.233-1.387-1.558-2.542c-1.79-1.153-2.133-5.77-2.133-5.77s2.539-0.232,2.079-5.311c-0.463-5.08-4.158-12.006-4.158-12.006
      v-6.002c0,0-3.694-9.231-5.54-12.927c-1.845-3.694-11.716-10.1-11.716-10.1c-5.196-5.195-2.945-11.775-2.945-11.775
      c-0.347-2.771,3.809-4.849,3.809-4.849l5.771-7.676c3.465-10.156-4.617-8.543-4.617-8.543l-4.847,2.772h-3.462h-2.542
      l-0.462-1.385c0.927-8.774-11.775-19.624-12.233-20.548c-0.461-0.922-3.14-4.153-3.14-4.153l-2.633-4.388l0.231-2.54l2.402-2.771
      l3.14-2.078h6.462l3-3.462l6.235-2.771l4.155,0.229c0,0,5.771,2.077,8.928,1.385c3.153-0.691-9.852-17.544-9.852-17.544
      l-9.466-11.082c0,0-0.921-2.54-1.153-3.464c-0.228-0.923,0.693-3.001,0.693-3.694c0-0.689,2.311-3.464,3-5.309
      c0.693-1.848,3.002-7.619,3.002-7.619l0.923-9.927l-0.689-10.388l3.691-13.158l7.621-14.082l1.613-4.851c0,0,1.386-5.537,0-7.155
      c-1.386-1.616-2.769-0.923-2.769-0.923l-8.773,4.386l-9.233,5.54l-8.082,3.003l-8.08,1.153c-8.312,0.461-26.779,0-26.779,0
      c3.462,3.692-6.002,20.086-6.002,20.086c-6.464,2.076-9.004,19.854-9.004,19.854c-0.922,6.464,2.54,11.082,8.773,13.158
      c6.233,2.076,4.846,12.929,3.462,11.772c-1.382-1.153-4.616,0.925-5.078,3.695c-0.463,2.771-6.465,15.698-5.542,18.929
      c0.924,3.233,5.773,1.155,5.773,1.155c9.233-9.696,10.388-1.385,10.388-1.385c1.847,24.241-18.47,12.697-18.47,12.697
      l-12.924,31.396c-11.313,6.463-17.546,47.789-17.546,47.789l2.076,1.384l1.154,6.464c0,0-1.154,2.31-2.537,3.693
      c-1.387,1.386-5.313,4.157-6.004,6.465c-0.691,2.309-1.383,8.542-2.539,9.926c-1.154,1.385-16.391,16.622-17.314,18.47
      c-0.922,1.846-6.697,17.313-7.158,20.544c-0.461,3.23-6.001,7.851-8.771,2.078c-2.772-5.77-15.236-7.618-16.163-5.541
      c-0.922,2.077-3.925,12.235-11.539,17.777c-7.624,5.541-13.164,15.005-13.164,15.005l9.236,11.082c0,0,1.614,6.926,3.232,8.08
      c1.617,1.155,9.005,1.616,9.005,1.616l0.458,5.541c-0.923,9.002,8.542,25.854,8.542,25.854c3.463,9.235-5.538,3.924-5.538,3.924
      c-0.228-0.244-0.453-0.479-0.681-0.714c-11.928-12.225-21.715-6.444-21.715-6.444c-9.463,4.158-3.291,14.025-3.291,14.025
      l2.252,4.849c0,0-0.011,0.059-0.03,0.162l12.151,14.901l4.157,5.771l2.077,7.155l2.076,9.234l10.623,27.241
      c0,0,5.077,5.54,5.538,6.927c0.463,1.386,2.31,12.929,2.31,15.237c0,2.308,0.462,7.389,0,12.003
      c-0.463,4.62,0.408,10.159,0.205,11.545c-0.205,1.384,2.104,7.851,2.565,9.695c0.462,1.847,2.311,8.771,2.311,8.771
      s1.845-0.927,2.311,5.541c0.459,6.463,15.695,48.48,12.924,79.646c0,0-2.077,28.396,46.402,27.704c0,0,18.701,5.538,25.628,17.313
      c6.925,11.772,13.159,12.467,13.85,32.551c0.694,20.086,4.155,20.776-6.232,34.629c-10.387,13.854-13.16,17.313-19.393,29.092
      c-6.235,11.771-8.309,18.005-13.854,22.854c-5.538,4.849-53.327,49.173-63.023,58.175c-9.696,9.005-9.696,13.854-11.082,16.625
      c-1.385,2.768-5.54,17.314-6.927,20.084c-1.386,2.771-6.231,15.235-10.389,22.161c-4.151,6.927-4.848,12.468-11.081,14.544
      c-6.232,2.079-9.002,2.771-24.934,5.54c-15.928,2.771-53.327-6.23-59.559,14.543c0,0,35.318,24.934,44.323,34.629
      c9.005,9.694,15.005,58.87,36.242,49.636c21.241-9.233,26.78-12.003,26.78-12.003s37.861-7.39,44.325-7.39
      s23.085-8.313,23.085-8.313l32.318-28.627l20.502-21.237l17.36,36.015c0,0,24.008,33.244,36.013,31.396
      c1.601-0.245,2.957-0.563,4.131-0.928c7.664-2.385,7.196-7.073,8.796-11.075c1.849-4.619,11.083-13.854,11.083-13.854l6.463-12.93
      c0,0-0.924-11.078,0-13.851c0.922-2.771,7.389-10.158,10.158-12.929c2.769-2.771,13.852-18.469,13.852-18.469
      s-4.614-11.084,0-13.854c4.616-2.77,9.232-5.538,10.155-11.081c0.926-5.537,0-28.625,0-28.625s2.669-18.472,0.41-26.781
      c-2.255-8.313,0.909-19.393,0.909-19.393s49.475-16.622,56.861-20.313c7.385-3.694,7.385,0,14.771-7.389
      c7.389-7.389,10.157-9.236,17.545-10.159c7.391-0.922,11.087-3.692,20.317-4.616c9.232-0.923,5.537-0.923,20.313-0.923
      c14.774,0,5.539-0.925,14.774,0c9.236,0.923,10.159,3.693,13.851,5.539c3.696,1.849,0.002,1.849,9.236,5.541l15.695,5.541
      l12.933-3.692l17.545-0.926l18.465,1.85l12.008-2.771l8.311-6.463l9.234-12.93c0,0,0.921-1.846,3.694-6.462
      c2.771-4.618,3.696-8.313,5.538-11.082c1.845-2.771,6.465-5.542,6.465-5.542l0.447-0.989c-5.292,0.913-9.991,1.556-11.063,1.913
      c-1.387,0.462-6.001-2.772-7.39-6.003c-1.387-3.229-2.771-4.154-2.771-4.154s-1.385-2.311-4.158-3.692
      c-2.768-1.387-7.85-3.693-12.927-4.617s-4.612-1.847-6.464-2.771c-1.848-0.923-4.154-6.927-5.074-8.771
      c-0.926-1.848-0.465-9.698-0.465-11.083c0-1.384,2.771-12.006,3.234-13.393c0.461-1.381,5.072-11.541,8.77-18.006
      c3.692-6.462,24.012-17.082,24.012-17.082l0.004-15.699l4.614-5.541l3.695-5.542l2.306-2.307l6.003-3.233l2.772-4.153
      l-0.466-2.771l-2.769-2.311v-5.078v-4.616l11.081-12.931l5.08-8.771l1.844-7.85l2.771-2.771h2.77c0,0,1.85-3.231,2.771-5.079
      c0.925-1.847,0.925-1.847,3.229-2.31c2.313-0.459,3.233-3.231,3.233-3.231l-2.311-2.309l-2.308-3.234v-3.691h1.383l2.311-3.692
      c0,0,0.465-3.234,0.465-4.619c0-1.384-0.927-1.846-0.927-1.846l0.462-5.08l6.003-8.311l0.923-6.003l4.618-5.079h6.927h12.005
      l6.925-5.539l2.771-4.617c0,0,3.229-6.003,3.229-8.311c0-2.312-0.924-4.618-1.385-8.313c-0.462-3.694,0.461-2.311,0.461-2.311
      l2.771-3.231c0,0,5.085-1.846,8.058-2.771C719.556,494.789,715.915,492.943,716.377,487.865z"/>
    <g>
      
        <text transform="matrix(1 0 0 1 630.3613 489.1184)" fill="#1D2087" font-family="'AdobeSongStd-Light-GBpc-EUC-H'" font-size="8.7142">连架河水库</text>
    </g>
    <path fill="#009FE8" d="M667.521,424.438c0.188,0.33-13.15,13-13.907,14.149c-4.754,7.198-0.973,14.519-9.723,19.37
      c-1.834,1.392-6.277,3.16-7.094,5.272c-1.274,3.304,2.558,7.161,4.715,9.118c-1.2,2.344-9.471,7.926-12.043,7.926
      c6.725,0,9.966-1.199,14.413-6.198c1.344-1.508-4.303-5.886-0.491-8.521c2.161-1.498,8.143-0.271,10.77-0.271
      c0,0,4.295-1.289,4.321-1.298c1.949-0.729,0.239-12.171,0.187-13.868c-0.257-7.731,4.526-10.48,9.482-15.762
      C671.761,430.506,670.264,428.537,667.521,424.438z"/>
  </g>
  
    <text transform="matrix(1 0 0 1 527.9766 782.0042)" opacity="0" enable-background="new    " font-family="'SimHei'" font-size="20">轮廓</text>
</g>
<g>
  <g>
    <path fill="#FFFFFF" stroke="#E50012" stroke-width="1.8065" d="M205.298,264.143c0,4.563-3.699,8.257-8.263,8.257
      c-4.559,0-8.254-3.694-8.254-8.257s3.695-8.259,8.254-8.259C201.601,255.884,205.298,259.58,205.298,264.143z"/>
    <rect x="208.347" y="249.242" fill="#E50012" width="71.547" height="29.798"/>
    <g enable-background="new    ">
      <path fill="#FFFFFF" d="M226.619,265.973v5.918c1.014-0.451,2-0.931,2.958-1.438c0.112,0.451,0.282,0.93,0.507,1.438
        c-0.564,0.227-1.382,0.619-2.452,1.185c-1.071,0.563-1.775,1.068-2.113,1.521l-1.099-1.606c0.507-0.338,0.761-0.9,0.761-1.689
        v-5.411c0-0.563-0.029-1.184-0.084-1.859h1.691C226.674,264.535,226.619,265.184,226.619,265.973z M229.493,256.589
        c-0.845,0.057-1.804,0.113-2.874,0.169v1.944h2.536c0.731,0,1.634-0.027,2.705-0.085v1.438c-0.959-0.056-1.832-0.084-2.621-0.084
        h-2.621v1.944h12.089v-1.944h-2.875c-0.845,0-1.69,0.028-2.536,0.084v-1.438c0.846,0.058,1.691,0.085,2.536,0.085h2.875v-1.86
        h-2.959c-0.79,0-1.663,0.029-2.621,0.085v-1.438c0.958,0.059,1.803,0.086,2.536,0.086h4.65c-0.057,0.846-0.085,1.662-0.085,2.45
        v2.283c0,0.732,0.028,1.69,0.085,2.874h-15.217c0.056-1.015,0.084-1.915,0.084-2.705v-2.113c0-0.788-0.057-1.69-0.169-2.704
        c0.845,0,1.845-0.057,3.001-0.171c1.155-0.111,2.127-0.309,2.917-0.592c0.225,0.621,0.592,1.156,1.099,1.606
        C231.184,256.504,230.339,256.533,229.493,256.589z M230.846,268.593c-0.395,0.508-0.733,0.959-1.014,1.354
        c-0.79-0.788-1.579-1.438-2.367-1.944c0.394-0.281,0.761-0.676,1.099-1.184C229.126,267.325,229.887,267.917,230.846,268.593z
         M230.761,265.381c-0.507,0.563-0.845,0.93-1.014,1.099c-0.733-0.73-1.325-1.296-1.775-1.689
        c0.507-0.395,0.845-0.731,1.014-1.016C229.718,264.508,230.31,265.043,230.761,265.381z M233.128,265.888v5.918
        c0.563-0.169,1.662-0.592,3.297-1.268c0.112,0.45,0.309,0.9,0.592,1.353c-0.676,0.282-1.494,0.604-2.452,0.972
        c-0.959,0.366-1.69,0.805-2.198,1.312l-1.184-1.606c0.338-0.338,0.507-0.873,0.507-1.605v-5.495
        c-0.057-0.563-0.084-1.069-0.084-1.521h1.69C233.184,264.451,233.128,265.1,233.128,265.888z M237.187,268.678
        c-0.169,0.169-0.537,0.592-1.099,1.269c-0.338-0.45-1.071-1.069-2.198-1.859c0.451-0.45,0.789-0.816,1.015-1.1
        C235.749,267.663,236.51,268.228,237.187,268.678z M237.017,265.381c-0.452,0.451-0.79,0.816-1.014,1.099
        c-0.564-0.507-1.184-1.042-1.86-1.605c0.394-0.338,0.704-0.676,0.93-1.015C235.861,264.535,236.51,265.043,237.017,265.381z
         M239.68,268.636c0.14,1.324,0.38,2.282,0.719,2.874c0.338,0.592,0.619,0.705,0.845,0.338c0.225-0.365,0.423-1,0.592-1.901
        c0.563,0.508,1.127,0.846,1.691,1.015c-0.79,1.859-1.395,2.875-1.818,3.044c-0.422,0.169-0.888,0.084-1.395-0.254
        s-0.902-0.775-1.184-1.312c-0.283-0.535-0.507-1.195-0.676-1.985c-0.169-0.789-0.283-1.648-0.338-2.578
        c-0.057-0.932-0.114-2.185-0.169-3.764c0.45,0.114,1.042,0.17,1.775,0.17C239.553,265.86,239.539,267.312,239.68,268.636z"/>
      <path fill="#FFFFFF" d="M248.261,257.604c0-0.62-0.029-1.408-0.085-2.367h1.775c-0.057,1.016-0.084,1.805-0.084,2.367v3.128
        c0.845,0,1.719-0.027,2.621-0.085v1.521c-1.014-0.057-1.889-0.084-2.621-0.084v6.171c0.62-0.226,1.549-0.619,2.79-1.185
        c0,0.509,0.027,1.016,0.084,1.521c-0.959,0.452-2.114,0.945-3.466,1.479c-1.353,0.537-2.48,1.058-3.381,1.564
        c-0.226-0.508-0.564-1.07-1.015-1.69c1.015-0.281,2.141-0.646,3.382-1.1v-6.763c-1.241,0-2.228,0.027-2.959,0.084v-1.521
        c0.958,0.058,1.944,0.085,2.959,0.085L248.261,257.604L248.261,257.604z M263.225,255.489v1.354
        c-0.79,0.17-1.649,0.677-2.579,1.521c-0.93,0.846-2.185,2.028-3.762,3.552h7.609c-0.057,0.395-0.114,1.297-0.169,2.705
        l-0.338,6.34c-0.057,1.41-0.353,2.283-0.888,2.621c-0.536,0.338-1.479,0.563-2.832,0.676c-0.114-0.676-0.367-1.354-0.761-2.028
        c1.184,0.113,1.944,0.084,2.282-0.085s0.535-0.535,0.592-1.099l0.338-7.693h-1.606c-0.283,1.691-0.621,3.102-1.014,4.229
        c-0.395,1.128-0.86,2.1-1.395,2.916c-0.537,0.816-1.142,1.521-1.818,2.112c-0.676,0.593-1.521,1.197-2.536,1.818
        c-0.283-0.564-0.676-1.044-1.184-1.438c0.958-0.507,1.831-1.099,2.621-1.774c0.789-0.676,1.437-1.465,1.944-2.367
        c0.507-0.9,0.888-1.859,1.141-2.874c0.254-1.015,0.436-1.888,0.549-2.621h-1.69c-0.114,0.846-0.353,1.705-0.719,2.579
        c-0.367,0.874-0.888,1.732-1.564,2.578c-0.676,0.846-1.551,1.663-2.621,2.451c-0.226-0.395-0.648-0.816-1.268-1.269
        c1.353-0.731,2.409-1.719,3.17-2.959c0.761-1.238,1.197-2.367,1.311-3.382c-0.621,0.058-1.043,0.114-1.268,0.169
        c-0.226,0.059-0.592,0.169-1.099,0.339c-0.169-0.677-0.338-1.238-0.507-1.69c0.958-0.112,2.071-0.746,3.339-1.902
        c1.268-1.154,2.41-2.268,3.424-3.339h-3.212c-1.24,0-2.396,0.029-3.466,0.085v-1.606c1.014,0.058,2.141,0.084,3.381,0.084
        L263.225,255.489L263.225,255.489z"/>
    </g>
    <polygon fill="#74C5BE" stroke="#231815" stroke-width="3.6129" points="219.338,240.914 199.264,232.931 199.264,232.552 
      197.359,232.552 197.359,265.106 199.264,265.106 199.264,249.685     "/>
  </g>
  <g>
    <rect x="182.167" y="222.833" fill="none" stroke="#000000" stroke-miterlimit="10" stroke-opacity="0" width="103" height="63"/>
    
      <text transform="matrix(1 0 0 1 237.4453 242.1653)" opacity="0" enable-background="new    " font-family="'ArialMT'" font-size="15">1</text>
  </g>
</g>
<g>
  <g>
    <g>
      <path fill="#FFFFFF" stroke="#E50012" stroke-width="2.0045" d="M277.677,367.977c0,5.063-4.104,9.161-9.17,9.161
        c-5.062,0-9.166-4.097-9.166-9.161c0-5.061,4.104-9.164,9.166-9.164C273.572,358.813,277.677,362.918,277.677,367.977z"/>
      <rect x="185.748" y="323.973" fill="#E50012" width="79.384" height="33.063"/>
      <g enable-background="new    ">
        <path fill="#FFFFFF" d="M199.734,336.248c-0.313,1.688-0.703,3.206-1.172,4.551c-0.469,1.346-1.095,2.674-1.876,3.986
          c-0.783,1.313-2.017,2.814-3.706,4.503c-0.438-0.563-1.095-1-1.97-1.313c1.75-1.25,3.143-2.688,4.175-4.315
          c1.032-1.625,1.797-3.531,2.298-5.723h-2.533c-0.938,0-2.002,0.063-3.189,0.188v-1.97c1.126,0.063,2.158,0.094,3.096,0.094
          L199.734,336.248L199.734,336.248z M203.064,332.778c-0.032,0.75,0.031,1.674,0.188,2.769c0.155,1.095,0.734,2.392,1.735,3.893
          c2.564-2.125,4.096-3.783,4.597-4.972c0.688,0.626,1.313,1.22,1.876,1.782c-0.813,0.563-1.611,1.188-2.392,1.876
          c-0.783,0.688-1.862,1.628-3.237,2.813c0.5,1.064,1.407,2.252,2.721,3.565c1.313,1.313,2.908,2.251,4.784,2.813
          c-1.064,0.502-1.688,1.126-1.876,1.877c-2.377-1.438-4.207-3.033-5.488-4.784c-1.283-1.751-2.268-3.502-2.955-5.254v10.413
          c0.062,0.875-0.267,1.501-0.985,1.876c-0.719,0.375-1.674,0.625-2.861,0.751c-0.063-0.688-0.345-1.438-0.844-2.252
          c1,0.188,1.719,0.219,2.157,0.094c0.437-0.126,0.657-0.529,0.657-1.22v-14.821c0-1.563-0.063-2.813-0.188-3.753h2.158
          C203.111,331.184,203.095,332.027,203.064,332.778z"/>
        <path fill="#FFFFFF" d="M218.027,333.153c0-0.999-0.032-1.907-0.094-2.721h1.876c-0.063,0.813-0.094,1.688-0.094,2.627v3.283
          c1.063,0,2.001-0.03,2.814-0.095v1.688c-0.813-0.063-1.751-0.094-2.814-0.094v7.316c1.126-0.375,2.032-0.718,2.721-1.031
          c0,0.502,0.062,1.063,0.188,1.688c-1.001,0.376-2.174,0.83-3.518,1.36c-1.345,0.531-2.361,1.018-3.049,1.454
          c-0.313-0.75-0.656-1.407-1.032-1.971c0.875-0.188,1.876-0.5,3.002-0.938v-7.88c-0.876,0-1.721,0.031-2.533,0.094v-1.688
          c0.812,0.063,1.656,0.095,2.533,0.095V333.153L218.027,333.153z M225.625,341.408c-0.938,1.001-1.845,1.782-2.721,2.346
          c-0.375-0.438-0.907-0.875-1.595-1.313c1.501-0.75,2.876-1.813,4.128-3.188c1.25-1.375,2.158-2.814,2.72-4.315
          c0.75,0.376,1.407,0.689,1.97,0.938l-0.282,0.469c1,1.501,2.111,2.674,3.331,3.519c1.219,0.844,2.641,1.423,4.268,1.735
          c-0.563,0.563-1.032,1.188-1.407,1.876c-1.252-0.438-2.439-1.094-3.565-1.97v1.406c-1.126-0.062-2.284-0.094-3.471-0.094
          c-1.188,0-2.314,0.032-3.377,0.094L225.625,341.408L225.625,341.408z M224.969,330.151h1.876
          c-0.063,0.563-0.094,1.439-0.094,2.627h4.691c0-1.188-0.033-2.063-0.094-2.627h1.97c-0.063,0.563-0.094,1.439-0.094,2.627
          c1.563,0,2.782-0.031,3.659-0.094v1.595c-0.877-0.062-2.096-0.094-3.659-0.094c0,0.626,0.031,1.407,0.094,2.345h-1.97
          c0.062-0.938,0.094-1.719,0.094-2.345h-4.691c0,0.626,0.031,1.407,0.094,2.345h-1.876c0.062-0.938,0.094-1.719,0.094-2.345
          c-1.251,0-2.284,0.032-3.096,0.094v-1.595c0.812,0.063,1.844,0.094,3.096,0.094C225.063,331.528,225.03,330.653,224.969,330.151
          z M234.443,348.257c0,1.626,0.031,2.876,0.094,3.753h-1.783v-1.501h-7.036v1.405h-1.876c0.062-0.876,0.094-2.063,0.094-3.563
          s-0.032-2.721-0.094-3.658h10.694C234.474,345.381,234.443,346.568,234.443,348.257z M228.815,337.656
          c-1.125,1.564-2.158,2.783-3.096,3.659h6.379C230.91,340.377,229.814,339.156,228.815,337.656z M232.755,349.102V346.1h-7.036
          v3.002H232.755L232.755,349.102z"/>
        <path fill="#FFFFFF" d="M243.825,330.527c-0.063,1.376-0.094,2.438-0.094,3.189v3.002c0.875,0,1.844-0.031,2.908-0.096v1.689
          c-1.064-0.062-2.033-0.094-2.908-0.094v6.848c0.938-0.249,1.938-0.563,3.002-0.938v1.595c-1.251,0.313-2.392,0.657-3.424,1.032
          c-1.032,0.375-2.143,0.845-3.331,1.406c-0.25-0.624-0.563-1.22-0.938-1.781c0.812-0.188,1.844-0.47,3.096-0.846v-7.315
          c-1.064,0-2.002,0.032-2.814,0.094v-1.689c0.75,0.063,1.657,0.096,2.721,0.096v-2.908c0-0.751-0.032-1.845-0.094-3.283
          L243.825,330.527L243.825,330.527z M246.452,347.554c0.563-1.032,0.985-2.205,1.266-3.52c0.282-1.313,0.422-3.096,0.422-5.347
          c0-2.252-0.032-3.94-0.094-5.065h5.065c0-1.626-0.032-2.813-0.094-3.564h1.97c-0.063,0.751-0.094,1.938-0.094,3.564h5.628
          c-0.438,1.751-0.75,3.097-0.938,4.033c-0.689-0.124-1.346-0.218-1.97-0.281c0.25-0.751,0.469-1.501,0.657-2.251h-3.377v4.127
          h4.127c-0.375,1.877-0.783,3.456-1.219,4.737c-0.438,1.283-1.095,2.486-1.97,3.612c0.812,0.75,1.656,1.313,2.533,1.688
          c0.875,0.375,1.844,0.656,2.908,0.845c-0.626,0.563-1.125,1.156-1.501,1.781c-0.813-0.313-1.611-0.672-2.392-1.077
          c-0.783-0.408-1.674-1.079-2.673-2.019c-0.438,0.376-1.079,0.83-1.923,1.36c-0.844,0.53-1.923,1.109-3.236,1.734
          c-0.438-0.563-0.938-1.063-1.501-1.501c1.313-0.375,2.423-0.828,3.33-1.358c0.906-0.531,1.609-1.018,2.111-1.454
          c-1.501-1.688-2.408-3.972-2.721-6.85h-0.844c-0.126,2.814-0.579,5.052-1.36,6.708c-0.783,1.657-1.642,3.05-2.58,4.175
          c-0.438-0.626-1.001-1.031-1.688-1.221C245.169,349.538,245.889,348.585,246.452,347.554z M253.112,339.251v-4.128h-3.096v4.128
          H253.112z M252.643,340.752c0.249,2.378,0.969,4.254,2.158,5.629c0.5-0.751,0.922-1.579,1.266-2.486
          c0.343-0.905,0.578-1.954,0.704-3.143H252.643z"/>
      </g>
      <polygon fill="#009FE8" points="293.432,340.687 271.154,331.836 271.154,331.411 269.044,331.411 269.044,367.541 
        271.154,367.541 271.154,350.422       "/>
    </g>
  </g>
  <g>
    
      <rect x="180.5" y="313.832" fill="none" stroke="#000000" stroke-width="1.1095" stroke-miterlimit="10" stroke-opacity="0" width="116.333" height="68.668"/>
    
      <text transform="matrix(1 0 0 1 227.7783 370.8752)" opacity="0" enable-background="new    " font-family="'ArialMT'" font-size="15">2</text>
  </g>
</g>
<g>
  <g>
    <g>
      <polygon fill="#E50012" stroke="#E62921" stroke-width="1.1715" points="163.331,920.146 166.676,930.409 177.485,930.409 
        168.739,936.756 172.082,947.03 163.331,940.683 154.585,947.03 157.924,936.756 149.175,930.409 159.991,930.409       "/>
    </g>
    <g>
      <g>
        <path fill="#DC4422" d="M286.046,844.835H150.494c-4.632,0-8.379,4.021-8.379,8.979v35.921c0,4.96,3.748,8.979,8.379,8.979
          h11.079l10.581,19.395l9.904-19.395h103.99c4.632,0,8.387-4.021,8.387-8.979v-35.921
          C294.434,848.854,290.678,844.835,286.046,844.835z"/>
        <path fill="#E66E43" d="M284.397,847.043H152.556c-4.503,0-8.154,3.646-8.154,8.141v32.564c0,4.498,3.652,8.145,8.154,8.145
          h10.774l8.775,18.021l9.177-18.021h103.114c4.503,0,8.151-3.646,8.151-8.145v-32.564
          C292.548,850.688,288.899,847.043,284.397,847.043z"/>
      </g>
      <g enable-background="new    ">
        <path fill="#FFFFFF" d="M181.753,878.263h-6.168v5.09c0.047,1.815-0.285,2.937-0.998,3.364c-0.595,0.521-2.258,0.86-4.992,1.015
          c-0.047-0.997-0.476-2.237-1.284-3.72c1.688,0.261,2.775,0.397,3.263,0.409c0.499,0.035,0.731-0.285,0.695-0.961v-5.197h-4.76
          l2.567,1.708h-0.036c0.368,0.262,0.553,0.522,0.553,0.783c0,0.06-0.012,0.125-0.036,0.196c-0.143,0.332-0.523,0.552-1.141,0.658
          c-0.369,0.096-0.749,0.338-1.141,0.729c-1.89,1.756-3.946,3.436-6.168,5.037c-0.855-0.926-2.021-1.815-3.494-2.67
          c3.411-1.163,6.317-3.311,8.718-6.442h-0.481c-0.535,0.012-1.711,0.118-3.53,0.32v-1.976c-0.868,0.594-2.169,1.347-3.904,2.261
          c-0.63-0.866-1.593-1.898-2.888-3.098c2.389-0.332,4.689-1.316,6.899-2.954c-0.131-0.095-0.356-0.255-0.677-0.48
          c-0.547-0.392-0.993-0.7-1.337-0.926l1.872-2.26c0.333,0.355,1.111,0.973,2.335,1.851l0.767-0.766
          c-0.392-0.272-1.1-0.735-2.122-1.388l1.747-2.118c0.071,0.048,0.172,0.113,0.303,0.196c0.868,0.521,1.509,0.919,1.925,1.192
          c0.154-0.19,0.375-0.469,0.66-0.837c0.226-0.309,0.398-0.54,0.517-0.694h-4.6c-1.248,1.495-2.466,2.807-3.655,3.934
          c-1.034-0.747-2.193-1.412-3.477-1.993c3.09-1.744,5.515-4.479,7.274-8.205l2.335,1.317c0.071-0.558,0.107-1.044,0.107-1.46
          h-6.311c-0.178,0-1.349,0.131-3.512,0.392v-3.488c1.807,0.237,2.978,0.356,3.512,0.356h6.311c0-0.7-0.083-1.904-0.25-3.613
          l3.494,0.445c0.393,0.083,0.63,0.309,0.713,0.676c0.047,0.345-0.101,0.677-0.446,0.997c-0.143,0.083-0.208,0.581-0.196,1.495
          h5.598c-0.06-1.211-0.16-2.427-0.303-3.649l3.476,0.481c0.369,0.059,0.6,0.267,0.695,0.622c0.06,0.32-0.065,0.636-0.374,0.943
          c-0.143,0.048-0.226,0.582-0.25,1.603h6.614c0.666,0,1.819-0.119,3.459-0.356v3.453l-1.854-0.214
          c-0.642-0.095-1.177-0.143-1.605-0.143h-6.614c0.036,0.546,0.13,1.395,0.285,2.545h-2.371c0.036,0.214,0.089,0.374,0.16,0.48
          h6.062c1.26-0.047,2.573-0.171,3.94-0.373c-1.307,2.812-2.769,5.547-4.385,8.205c2.507,2.064,5.259,3.388,8.254,3.969
          c-1.724,1.104-2.906,2.136-3.548,3.097c-0.761-0.438-1.67-1.009-2.728-1.709v2.189
          C183.447,878.381,182.288,878.275,181.753,878.263z M167.473,873.333c-0.808,0.759-1.634,1.453-2.478,2.082
          c0.761,0.06,1.379,0.095,1.854,0.106h14.904c0.583-0.012,1.266-0.047,2.05-0.106c-1.141-0.83-2.252-1.756-3.333-2.776v1.495
          c-1.914-0.202-3.066-0.309-3.459-0.32h-6.026c-0.713,0.012-1.884,0.118-3.512,0.32V873.333z M173.802,862.655l2.3-0.481
          c0.131-0.948,0.202-1.613,0.214-1.993h-5.598c0.036,0.38,0.119,1.086,0.25,2.118c0.023,0.166,0.042,0.285,0.053,0.356h-2.781
          c-0.024,0.391-0.327,0.658-0.909,0.801c-0.143,0.012-0.338,0.148-0.588,0.409h4.065c0.879-0.023,2.008-0.113,3.387-0.268
          c-0.047-0.106-0.113-0.267-0.196-0.48C173.915,862.915,173.849,862.761,173.802,862.655z M177.011,871.073
          c0.487-0.012,1.094-0.047,1.819-0.106c-1.665-1.91-3.103-4.136-4.314-6.675c-1.533,2.587-3.126,4.823-4.778,6.71
          c0.535,0.048,0.951,0.071,1.248,0.071H177.011z M176.601,881.128l1.765-2.723c3.637,1.898,6.811,3.672,9.521,5.321l-1.569,2.883
          C183.394,884.736,180.154,882.908,176.601,881.128z M178.793,865.929c0.5,0.914,1.218,1.898,2.157,2.954
          c0.024-0.047,0.06-0.118,0.107-0.213c0.642-1.187,1.105-2.101,1.39-2.741H178.793z"/>
        <path fill="#FFFFFF" d="M229.733,859.379c-0.25,1.59-0.375,2.718-0.375,3.382v0.658c0.012,0.997,0.125,2.089,0.339,3.275h-3.94
          c0.214-1.044,0.321-2.136,0.321-3.275v-0.943h-22.82v1.192c-0.012,1.08,0.095,2.178,0.321,3.293h-3.976
          c0.238-1.092,0.362-2.189,0.375-3.293v-0.801c-0.012-1.127-0.137-2.29-0.375-3.488c1.2,0.226,2.418,0.345,3.655,0.356h11.535
          c-1.39-1.436-2.876-2.735-4.457-3.898l2.46-2.26c2.115,1.625,3.976,3.28,5.58,4.966l-1.319,1.192h8.986
          C227.124,859.699,228.354,859.581,229.733,859.379z M224.581,864.843c-0.226,1.673-0.345,2.776-0.357,3.311v2.599
          c0,1.163,0.131,2.255,0.393,3.274c-1.486-0.261-2.704-0.392-3.655-0.392h-12.124v2.546h13.443c1.129,0,2.371-0.137,3.726-0.41
          c-0.262,1.424-0.387,2.546-0.375,3.364v4.698c0.023,0.926,0.136,2.083,0.339,3.471h-4.012c0.238-0.938,0.357-1.679,0.357-2.225
          h-13.621c0.036,1.068,0.161,2.053,0.375,2.954h-3.904c0.178-1.72,0.273-3.12,0.285-4.2v-14.683
          c-0.047-1.163-0.172-2.599-0.375-4.308c1.45,0.202,2.912,0.32,4.386,0.356h11.5
          C221.841,865.175,223.047,865.057,224.581,864.843z M208.838,867.868v3.098h12.017v-3.098H208.838z M222.281,878.832h-13.443
          v3.613h13.443V878.832z"/>
        <path fill="#FFFFFF" d="M242.11,872.247h1.747v-3.72c-0.463,0.012-1.593,0.118-3.387,0.32v-1.05
          c-0.975-0.808-2.157-1.329-3.548-1.566c3.149-2.67,5.414-6.681,6.792-12.031l3.173,1.495c0.547,0.284,0.812,0.563,0.793,0.836
          c-0.018,0.273-0.318,0.517-0.9,0.729c-0.19,0.096-0.493,0.582-0.909,1.46c-0.095,0.143-0.351,0.629-0.767,1.459h3.387
          c1.034-0.035,2.217-0.136,3.548-0.303v3.293c-1.557-0.178-2.728-0.278-3.512-0.303h-4.707c-0.725,1.211-1.331,2.184-1.818,2.919
          c0.796,0.071,1.426,0.106,1.89,0.106h3.904c1.01-0.047,2.157-0.153,3.441-0.32v3.239c-1.438-0.166-2.585-0.261-3.441-0.284
          h-0.731v3.72h1.426c0.951-0.048,2.11-0.16,3.477-0.338v3.257c-0.095-0.012-0.231-0.023-0.41-0.036
          c-1.83-0.178-2.841-0.267-3.031-0.267h-1.462v6.087c1.141-0.866,2.288-1.839,3.441-2.919c0.202,1.364,0.505,2.485,0.909,3.363
          c-3.458,2.61-5.622,4.408-6.489,5.394l-2.46-3.097c0.654-0.439,1.04-0.796,1.159-1.068c0.166-0.272,0.243-0.795,0.231-1.566
          v-6.193h-1.747c-0.404,0-1.563,0.083-3.477,0.249v-3.168C240.226,872.122,241.385,872.224,242.11,872.247z M252.521,887.624
          c-0.499-1.021-1.402-1.934-2.71-2.74c3.898-1.009,6.65-2.527,8.254-4.557h-2.959c-0.333,0-1.539,0.113-3.619,0.338v-3.292
          c1.188,0.154,2.08,0.243,2.674,0.267v-15.894h5.759v-1.495h-4.154c-0.202,0-0.939,0.06-2.21,0.178
          c-0.595,0.048-1.028,0.084-1.302,0.107v-3.311c1.295,0.166,2.466,0.273,3.512,0.32h4.154l-0.25-3.417l3.281,0.427
          c0.428,0.083,0.707,0.285,0.838,0.605c0.012,0.047,0.018,0.112,0.018,0.195c0,0.249-0.125,0.469-0.375,0.659
          c-0.167,0.142-0.25,0.652-0.25,1.53h4.6c1.034-0.047,2.199-0.154,3.495-0.32v3.311c-0.214-0.023-0.553-0.054-1.016-0.089
          c-1.45-0.131-2.276-0.196-2.479-0.196h-4.6v1.495h5.973v15.894h0.036c0.927-0.035,2.015-0.148,3.263-0.338v3.328
          c-1.854-0.202-2.942-0.303-3.263-0.303h-3.833c2.733,1.364,5.134,2.824,7.203,4.378l-2.015,2.741
          c-2.389-2.029-4.945-3.648-7.666-4.858l1.569-2.261h-5.474l1.908,1.424c0.487,0.38,0.731,0.688,0.731,0.926
          c0,0.035-0.021,0.118-0.063,0.249c-0.042,0.13-0.425,0.237-1.15,0.32c-0.261-0.024-0.82,0.255-1.676,0.836
          C256.812,885.483,254.744,886.663,252.521,887.624z M265.946,865.751v-1.46h-8.576v1.46H265.946z M257.371,869.684h8.576v-1.37
          h-8.576V869.684z M265.946,873.582v-1.335h-8.576v1.335H265.946z M257.371,876.145v1.495h8.576v-1.495H257.371z"/>
      </g>
    </g>
  </g>
  <g opacity="0">
    <text transform="matrix(1 0 0 1 202.4634 923.8596)" font-family="'ArialMT'" font-size="15">0</text>
    <rect x="125.831" y="833.833" fill="none" stroke="#000000" width="189.049" height="118.667"/>
  </g>
</g>
<g>
  <g>
    <g>
      <path fill="#FFFFFF" stroke="#E50012" stroke-width="1.9011" d="M289.604,769.026c0,4.799-3.891,8.695-8.691,8.695
        c-4.798,0-8.689-3.896-8.689-8.695c0-4.797,3.891-8.688,8.689-8.688C285.714,760.338,289.604,764.229,289.604,769.026z"/>
      <rect x="239.591" y="782.004" fill="#FFF000" width="75.289" height="31.354"/>
      <g enable-background="new    ">
        <path fill="#231815" d="M259.952,789.885c1.186,0,2.342-0.029,3.47-0.088v1.779c-1.127-0.059-2.284-0.09-3.47-0.09h-4.271v5.605
          h3.292c0.948,0,1.957-0.029,3.025-0.09v1.869c-1.068-0.059-2.077-0.09-3.025-0.09h-3.292v6.939h5.694
          c1.008,0,2.105-0.029,3.292-0.088v1.779c-1.187-0.061-2.284-0.09-3.292-0.09h-12.812c-1.246,0-2.521,0.029-3.826,0.09v-1.779
          c1.304,0.059,2.58,0.088,3.826,0.088h5.338v-6.939h-2.758c-1.187,0-2.433,0.031-3.736,0.09v-1.869
          c1.304,0.061,2.549,0.09,3.736,0.09h2.758v-5.605h-3.826c-1.305,0-2.669,0.031-4.093,0.09v-1.779
          c1.424,0.059,2.758,0.088,4.004,0.088H259.952z"/>
        <path fill="#231815" d="M272.853,805.901c-1.661,0.889-3.085,1.629-4.271,2.223c-0.476-0.594-0.92-1.127-1.334-1.602
          c2.905-0.947,5.205-1.957,6.895-3.023c1.69-1.068,2.892-1.986,3.603-2.758c-0.237-0.416-0.475-0.771-0.711-1.068
          c-1.839,1.305-3.47,2.344-4.894,3.113c-1.423,0.771-2.551,1.307-3.381,1.602c-0.416-0.592-0.86-1.096-1.334-1.512
          c2.372-0.713,4.255-1.482,5.649-2.314c1.393-0.83,2.387-1.512,2.98-2.045c-0.237-0.297-0.504-0.623-0.8-0.979
          c-0.95,0.533-1.973,1.053-3.07,1.557c-1.098,0.504-2.269,1.023-3.514,1.557c-0.356-0.592-0.771-1.186-1.246-1.779
          c2.432-0.592,4.3-1.215,5.605-1.869c1.304-0.65,2.253-1.303,2.847-1.957h-1.246c-0.831,0-1.81,0.031-2.936,0.09v-1.602
          c1.126,0.059,2.105,0.088,2.936,0.088h6.05c0.77,0,1.72-0.029,2.847-0.088v1.602c-1.127-0.059-2.077-0.09-2.847-0.09h-2.402
          c-0.534,0.477-1.127,1.01-1.78,1.602c0.474,0.416,0.919,0.846,1.335,1.291c0.414,0.443,0.859,1.053,1.334,1.822
          c0.711-0.355,1.512-0.844,2.402-1.467s1.69-1.408,2.402-2.357c0.89,0.83,1.482,1.395,1.779,1.689
          c-0.712,0.299-1.334,0.594-1.868,0.891s-0.979,0.623-1.334,0.979c0.534,1.779,1.215,3.055,2.046,3.826
          c0.83,0.771,1.987,1.512,3.47,2.223c-0.594,0.416-1.127,0.979-1.602,1.691c-1.661-1.068-2.877-2.18-3.648-3.336
          c-0.771-1.158-1.305-2.359-1.602-3.604c-0.475,0.297-0.949,0.564-1.423,0.801c0.296,1.602,0.43,2.936,0.4,4.004
          c-0.031,1.066-0.476,1.881-1.334,2.445c-0.86,0.564-1.884,0.936-3.069,1.113c-0.238-0.771-0.505-1.455-0.801-2.047
          c1.008,0,1.809-0.09,2.402-0.268c0.592-0.178,0.934-0.623,1.023-1.334s0.044-1.631-0.133-2.758
          C276.322,803.795,274.512,805.01,272.853,805.901z M278.813,790.153h8.185c-0.06,0.949-0.089,1.721-0.089,2.313
          c0,0.533,0.029,1.217,0.089,2.047h-1.868v-2.936h-15.481v3.381h-1.868c0.059-0.949,0.089-1.779,0.089-2.492
          c0-0.77-0.03-1.541-0.089-2.313h8.897c-0.238-0.771-0.505-1.453-0.801-2.047c0.77-0.178,1.482-0.385,2.135-0.623
          C278.131,788.076,278.398,788.967,278.813,790.153z"/>
        <path fill="#231815" d="M291.27,805.143c0.414-0.979,0.711-2.074,0.89-3.291c0.178-1.215,0.296-2.92,0.356-5.115
          c0.058-2.193,0.058-4.301,0-6.318h7.829c-0.06-0.711-0.267-1.57-0.623-2.58c0.712-0.057,1.364-0.146,1.958-0.266
          c0.414,1.188,0.712,2.135,0.89,2.846h2.936c1.482,0,2.936-0.027,4.359-0.088v1.779c-1.365-0.059-2.818-0.09-4.359-0.09h-11.121
          c0,3.381-0.06,5.889-0.178,7.52c-0.12,1.631-0.372,3.172-0.756,4.625c-0.387,1.455-0.965,2.922-1.735,4.404
          c-0.712-0.416-1.365-0.742-1.958-0.979C290.349,806.938,290.854,806.121,291.27,805.143z M303.102,796.114v1.334h3.203
          c1.008,0,1.897-0.029,2.669-0.088v1.779c-0.771-0.059-1.661-0.09-2.669-0.09h-3.203v6.406h3.826c1.186,0,2.283-0.029,3.292-0.09
          v1.869c-1.067-0.061-2.135-0.09-3.203-0.09h-9.52c-1.127,0-2.284,0.029-3.47,0.09v-1.869c1.304,0.061,2.46,0.09,3.47,0.09h3.826
          v-6.406h-2.402c-1.068,0-2.077,0.031-3.025,0.09v-1.779c0.948,0.059,1.958,0.088,3.025,0.088h2.402v-1.334
          c0-1.008-0.03-2.016-0.089-3.025h2.046C303.161,794.156,303.102,795.164,303.102,796.114z"/>
      </g>
      <polygon fill="#E50012" points="302.047,742.817 280.919,734.419 280.919,734.024 278.914,734.024 278.914,768.284 
        280.919,768.284 280.919,752.053       "/>
    </g>
  </g>
  <g opacity="0">
    <text transform="matrix(1 0 0 1 316.6123 773.8586)" font-family="'ArialMT'" font-size="15">13</text>
    <rect x="225.843" y="725.508" fill="none" stroke="#000000" stroke-width="0.6871" width="125.802" height="93.653"/>
  </g>
</g>
<g>
  <g>
    <g>
      <path fill="#FFFFFF" stroke="#E50012" stroke-width="1.9539" d="M486.401,708.641c0,4.936-3.996,8.935-8.936,8.935
        c-4.929,0-8.929-3.998-8.929-8.935c0-4.93,3.998-8.935,8.929-8.935C482.404,699.706,486.401,703.71,486.401,708.641z"/>
      <rect x="489.286" y="693.281" fill="#E50012" width="77.383" height="32.227"/>
      <g enable-background="new    ">
        <path fill="#FFFFFF" d="M495.449,700.776c0.914,0.062,1.979,0.092,3.199,0.092h5.213c-0.61,3.901-1.372,6.919-2.286,9.053
          c1.522,2.134,2.651,3.78,3.384,4.938c-0.428,0.306-0.915,0.701-1.464,1.188c-1.28-2.194-2.226-3.688-2.835-4.48
          c-0.73,1.28-1.463,2.348-2.193,3.2c-0.732,0.854-1.646,1.798-2.744,2.835c-0.427-0.549-0.914-0.946-1.463-1.188
          c1.036-0.731,1.98-1.585,2.835-2.561c0.853-0.975,1.676-2.225,2.469-3.749c-1.463-1.768-2.805-3.23-4.023-4.39
          c0.366-0.304,0.792-0.7,1.28-1.188c1.768,1.952,2.956,3.262,3.566,3.932c0.791-2.194,1.311-4.236,1.555-6.126h-3.293
          c-1.22,0-2.285,0.031-3.199,0.091V700.776z M504.227,702.787c1.463,0.062,2.469,0.092,3.018,0.092h3.932v-2.743
          c0-0.792-0.061-1.646-0.182-2.561h2.103c-0.062,0.731-0.091,1.646-0.091,2.743v2.561c0.607,0,1.613-0.03,3.018-0.092v1.646
          c-1.404-0.06-2.41-0.091-3.018-0.091v11.521c0.059,1.157-0.32,1.889-1.144,2.194c-0.823,0.305-1.753,0.518-2.789,0.641
          c-0.183-0.732-0.457-1.403-0.823-2.012c1.34,0,2.18-0.077,2.515-0.229c0.335-0.151,0.472-0.594,0.411-1.325v-10.79h-3.84
          c-0.549,0-1.586,0.062-3.109,0.183V702.787z M508.799,711.474c-0.793,0.306-1.371,0.61-1.737,0.915
          c-0.549-1.646-1.342-3.353-2.378-5.121c0.426-0.183,0.915-0.487,1.463-0.914C507.184,708.182,508.067,709.89,508.799,711.474z"
          />
        <path fill="#FFFFFF" d="M523.338,706.079v-6.035c0-0.549-0.031-1.34-0.092-2.378h2.012c-0.061,1.159-0.092,1.921-0.092,2.286
          v6.127h11.064c0.792,0,1.646-0.03,2.561-0.092v1.829c-1.158-0.061-2.226-0.092-3.2-0.092h-5.304
          c0.426,1.221,1.082,2.409,1.967,3.566c0.883,1.159,1.934,2.119,3.154,2.881c1.219,0.763,2.316,1.296,3.291,1.6
          c-0.793,0.489-1.402,1.098-1.828,1.829c-1.28-0.672-2.469-1.463-3.566-2.378c-1.098-0.914-2.072-2.025-2.926-3.337
          c-0.854-1.311-1.494-2.698-1.92-4.161h-3.293v7.224c1.768-1.097,2.957-1.92,3.566-2.469c0.426,0.672,0.854,1.28,1.281,1.829
          c-1.159,0.549-2.318,1.234-3.476,2.058c-1.159,0.823-2.012,1.509-2.56,2.058c-0.489-0.672-0.946-1.251-1.372-1.737
          c0.487-0.487,0.731-1.128,0.731-1.921v-7.041h-2.104c-0.854,0-1.828,0.031-2.926,0.092v-1.829
          c1.098,0.062,2.012,0.092,2.743,0.092H523.338z M531.888,701.918c-1.312,1.313-2.606,2.576-3.886,3.795
          c-0.549-0.731-1.006-1.219-1.372-1.463c1.036-0.731,2.194-1.768,3.475-3.108s2.255-2.499,2.927-3.476
          c0.486,0.428,1.097,0.915,1.828,1.464C534.188,699.678,533.197,700.609,531.888,701.918z"/>
        <path fill="#FFFFFF" d="M545.329,713.486c-0.457,1.342-0.991,2.895-1.601,4.664c-0.671-0.428-1.433-0.823-2.285-1.189
          c0.608-0.67,1.219-1.751,1.828-3.246c0.609-1.492,1.127-2.94,1.555-4.343c0.487,0.427,1.066,0.822,1.737,1.188
          C546.197,711.17,545.787,712.146,545.329,713.486z M546.381,706.628c-0.61,0.671-1.037,1.22-1.28,1.646
          c-1.403-1.28-2.53-2.194-3.384-2.743c0.366-0.365,0.701-0.823,1.006-1.371C544.004,704.952,545.223,705.775,546.381,706.628z
           M547.844,701.233c-0.609,0.549-1.129,1.037-1.555,1.463c-0.976-1.219-2.012-2.254-3.109-3.108
          c0.366-0.366,0.762-0.792,1.189-1.28C545.588,699.221,546.746,700.197,547.844,701.233z M559.73,711.155
          c-0.548,0.884-1.266,1.769-2.148,2.651c-0.885,0.885-2.043,1.753-3.475,2.606c-1.434,0.853-3.369,1.646-5.807,2.377
          c-0.244-0.549-0.731-1.129-1.463-1.737c2.255-0.306,4.602-1.234,7.041-2.789c2.438-1.555,4.206-3.733,5.304-6.538l2.378,1.006
          C560.889,709.462,560.279,710.271,559.73,711.155z M551.045,705.485c-0.428,1.495-0.885,3.063-1.372,4.709
          c-0.61-0.304-1.22-0.517-1.829-0.64c0.365-0.914,0.731-2.071,1.098-3.475c0.365-1.401,0.67-2.865,0.914-4.39
          c0.791,0.306,1.555,0.519,2.286,0.641C551.836,702.941,551.471,703.991,551.045,705.485z M555.616,700.409v7.225
          c0,1.28,0.03,2.438,0.091,3.475h-1.92c0.061-1.098,0.092-2.255,0.092-3.475v-7.225c0-1.035-0.031-2.041-0.092-3.017h1.92
          C555.646,698.307,555.616,699.313,555.616,700.409z M563.023,704.799c-0.672,0.427-1.221,0.885-1.646,1.371
          c-1.098-1.401-2.53-2.926-4.298-4.571c0.366-0.305,0.792-0.7,1.28-1.189C559.883,701.69,561.438,703.154,563.023,704.799z"/>
      </g>
      <polygon fill="#009FE8" points="500.879,685.174 479.162,676.537 479.162,676.134 477.104,676.134 477.104,711.348 
        479.162,711.348 479.162,694.659       "/>
    </g>
  </g>
  <g opacity="0">
    <text transform="matrix(1 0 0 1 511.9453 754.6604)" font-family="'ArialMT'" font-size="15">12</text>
    <rect x="439.162" y="665.387" fill="none" stroke="#000000" stroke-width="0.714" width="134" height="94.951"/>
  </g>
</g>
<g>
  <g>
    <g>
      <circle fill="#FFFFFF" stroke="#E50012" stroke-width="1.7805" cx="585.652" cy="550.161" r="8.141"/>
      <rect x="554.717" y="560.116" fill="#E50012" width="70.521" height="29.365"/>
      <g enable-background="new    ">
        <path fill="#FFFFFF" d="M563.192,579.842c-0.778,0.167-1.64,0.348-2.583,0.542c-0.945,0.195-1.666,0.375-2.166,0.541l-0.5-1.666
          c0.61-0.055,1.375-0.152,2.291-0.292c0.916-0.138,1.985-0.318,3.208-0.541L563.192,579.842z M563.359,582.467
          c0.333-0.028,0.527-0.263,0.583-0.708l0.5-5.583h-4.999c0.055-0.944,0.096-2.042,0.125-3.291
          c0.027-1.25,0.041-2.459,0.041-3.625h1.584c-0.113,0.667-0.195,1.5-0.25,2.5l-0.084,3.166h2.166l0.417-7.333h-2.499
          c-0.779,0-1.529,0.029-2.25,0.084v-1.417c0.721,0.112,1.471,0.167,2.25,0.167h4.082c-0.111,0.5-0.195,1.195-0.25,2.083
          l-0.416,6.416h1.75c-0.167,0.723-0.279,1.417-0.334,2.083l-0.416,5.416c-0.057,0.889-0.39,1.417-1,1.584
          c-0.612,0.166-1.334,0.304-2.167,0.416c-0.223-0.666-0.473-1.306-0.749-1.916C562.387,582.509,563.025,582.494,563.359,582.467z
           M566.775,567.427v-1.333c0.666,0.056,1.5,0.083,2.5,0.083h6.666c-0.779,2.278-1.834,4.056-3.166,5.333
          c0.443,0.223,1.068,0.486,1.875,0.791c0.804,0.307,1.762,0.542,2.874,0.709c-0.39,0.333-0.723,0.861-1,1.583
          c-1.278-0.389-2.292-0.764-3.041-1.125c-0.75-0.36-1.375-0.708-1.875-1.042c-0.667,0.445-1.375,0.862-2.125,1.25
          c-0.75,0.39-1.737,0.75-2.958,1.083c-0.333-0.555-0.695-1.054-1.083-1.499c1.055-0.167,1.901-0.347,2.542-0.542
          c0.637-0.194,1.429-0.597,2.374-1.208c-1.167-0.944-2.083-2.305-2.749-4.083H566.775z M570.941,576.009
          c0-0.666-0.028-1.305-0.083-1.916h1.583c-0.111,0.666-0.166,1.306-0.166,1.916h1.083c0.833,0,1.638-0.027,2.416-0.083v1.333
          c-0.833-0.055-1.612-0.083-2.333-0.083h-1.166v2.5h1.832c1,0,1.917-0.027,2.75-0.084v1.333
          c-0.833-0.055-1.723-0.083-2.666-0.083h-1.916v1.5c0,0.833,0.027,1.583,0.083,2.25h-1.5c0.055-0.667,0.083-1.417,0.083-2.25
          v-1.5h-1.25c-1.056,0-1.916,0.028-2.582,0.083v-1.333c0.666,0.057,1.526,0.084,2.582,0.084h1.25v-2.5h-1.166
          c-0.779,0-1.5,0.028-2.166,0.083v-1.333c0.666,0.056,1.387,0.083,2.166,0.083H570.941z M571.608,570.676
          c0.833-0.833,1.555-1.916,2.167-3.249h-4.667C569.83,568.927,570.663,570.01,571.608,570.676z"/>
        <path fill="#FFFFFF" d="M590.689,578.259c0.889,0,2.055-0.027,3.5-0.083v1.583c-1.5-0.055-2.666-0.083-3.5-0.083h-7.416
          c-1.111,0-2.111,0.028-3,0.083v-1.583c0.889,0.056,1.889,0.083,3,0.083H590.689z M585.689,571.385
          c-0.166,1.028-0.25,1.986-0.25,2.874h6.834c0.109-1.11,0.221-2.249,0.332-3.416c0.111-1.166,0.223-2.221,0.334-3.166h-8
          c-1.055,0-2.194,0.028-3.416,0.083v-1.666c1.222,0.056,2.361,0.083,3.416,0.083h9.916c-0.223,1.5-0.416,3.014-0.583,4.541
          c-0.167,1.528-0.278,2.708-0.333,3.541h3.833c-0.112,1.223-0.208,2.57-0.292,4.042c-0.083,1.473-0.264,2.694-0.541,3.666
          c-0.279,0.972-0.75,1.569-1.417,1.792c-0.667,0.221-1.945,0.388-3.833,0.499c-0.057-0.611-0.306-1.278-0.75-1.999
          c2.166,0.056,3.388,0.014,3.666-0.125c0.277-0.139,0.514-0.389,0.709-0.75c0.193-0.361,0.346-1.194,0.458-2.5
          c0.11-1.305,0.167-2.375,0.167-3.208h-12.332c0.11-1.11,0.221-2.263,0.333-3.458c0.11-1.194,0.194-2.346,0.25-3.458
          c0.722,0.112,1.417,0.223,2.083,0.333C586.051,569.593,585.857,570.358,585.689,571.385z"/>
        <path fill="#FFFFFF" d="M603.563,577.967c1.138-0.471,2.152-1.151,3.042-2.041h-2.417c-0.89,0-1.722,0.028-2.499,0.083v-1.333
          c0.999,0.056,1.859,0.083,2.582,0.083h3v-1.166h-1.083c-0.89,0-1.833,0.028-2.833,0.083v-1.416c1.055,0.056,2,0.083,2.833,0.083
          h1.083v-1.167h-1.083c-1.112,0-2.028,0.029-2.75,0.084v-1.333c1.333,0.056,2.25,0.083,2.75,0.083h1.083v-1.333h1.416v1.333
          h3.417v-1.333h1.417v1.333h1c1.166,0,2.249-0.027,3.249-0.083v1.333c-1-0.055-1.972-0.084-2.917-0.084h-1.332v1.167h1.25
          c0.166,0,0.402-0.013,0.707-0.042c0.305-0.027,0.93-0.041,1.875-0.041v1.416c-0.945-0.055-1.555-0.083-1.832-0.083h-2v1.166
          h6.082v1.25c-1.056-0.055-1.75-0.083-2.083-0.083h-3.416c0.667,0.778,1.485,1.389,2.458,1.833
          c0.971,0.445,2.152,0.75,3.541,0.917c-0.278,0.5-0.556,1.083-0.833,1.75c-1.556-0.5-2.806-1.055-3.749-1.667v0.833h-4.167v2.75
          c0,1.055-0.25,1.652-0.75,1.791s-1.278,0.264-2.333,0.375c-0.111-0.499-0.25-1.083-0.416-1.749c0.721,0.055,1.25,0.055,1.582,0
          c0.334-0.057,0.5-0.307,0.5-0.75v-2.417h-2.916c-0.723,0-1.361,0.029-1.916,0.084v-1.084c-1.112,0.612-2.223,1.195-3.334,1.75
          c-0.389-0.555-0.777-1.055-1.166-1.5C601.439,578.732,602.424,578.44,603.563,577.967z M612.021,566.844h7.666
          c-0.057,0.666-0.084,1.249-0.084,1.749s0.027,1.029,0.084,1.584h-1.584v-2h-14.832v2.083h-1.582
          c0.055-0.61,0.082-1.194,0.082-1.75c0-0.61-0.027-1.167-0.082-1.666h8.332c-0.112-0.5-0.307-1.084-0.584-1.75l1.834-0.334
          C611.492,565.483,611.742,566.177,612.021,566.844z M606.438,580.342c0.5,0.445,0.944,0.862,1.333,1.25
          c-1.223,0.723-2.778,1.694-4.666,2.916c-0.39-0.445-0.75-0.889-1.084-1.333C603.966,582.287,605.438,581.342,606.438,580.342z
           M609.938,578.509c0-0.555-0.028-1.138-0.083-1.75h1.583c-0.056,0.612-0.083,1.195-0.083,1.75h3.749
          c-1.111-0.777-1.944-1.638-2.499-2.583h-4.083c-0.779,0.945-1.833,1.806-3.166,2.583H609.938z M612.104,572.343v-1.167h-3.417
          v1.167H612.104z M612.104,574.759v-1.166h-3.417v1.166H612.104z M618.271,582.759c-0.333,0.443-0.695,0.943-1.083,1.499
          c-1.445-1.111-2.945-1.999-4.5-2.666c0.222-0.388,0.5-0.805,0.834-1.25C615.408,581.287,616.992,582.092,618.271,582.759z"/>
      </g>
      <polygon fill="#1D2087" points="605.124,529 585.339,521.14 585.339,520.763 583.457,520.763 583.457,552.854 585.339,552.854 
        585.339,537.649       "/>
    </g>
  </g>
  <g opacity="0">
    <text transform="matrix(1 0 0 1 582.8105 609.8777)" font-family="'ArialMT'" font-size="15">9</text>
    <rect x="547.364" y="517.588" fill="none" stroke="#000000" stroke-width="0.6004" width="90.952" height="98.905"/>
  </g>
</g>
<g>
  <g>
    <g>
      <path fill="#FFFFFF" stroke="#E50012" stroke-width="1.7405" d="M638.316,428.729c0,4.396-3.563,7.955-7.957,7.955
        c-4.396,0-7.953-3.563-7.953-7.955s3.56-7.958,7.953-7.958C634.756,420.771,638.316,424.336,638.316,428.729z"/>
      <rect x="551.334" y="407.675" fill="#E50012" width="68.927" height="28.707"/>
      <g enable-background="new    ">
        <path fill="#FFFFFF" d="M567.85,415.203c-0.354,0.651-0.665,1.25-0.937,1.792h1.792c1.141,0,2.145-0.027,3.014-0.082v1.548
          c-0.706-0.054-1.629-0.081-2.77-0.081h-4.234v4.072h5.131c1.086,0,2.063-0.026,2.932-0.081v1.547
          c-0.869-0.053-1.791-0.081-2.77-0.081h-4.968c1.629,2.77,4.344,4.562,8.146,5.376c-0.489,0.542-0.924,1.193-1.304,1.955
          c-3.421-1.141-6.001-3.122-7.737-5.946c-0.924,2.39-3.477,4.452-7.657,6.19c-0.218-0.544-0.624-1.032-1.222-1.467
          c4.181-1.14,6.761-3.176,7.738-6.108h-4.317c-1.249,0-2.28,0.028-3.095,0.081v-1.466c0.597,0.055,1.52,0.081,2.77,0.081h4.805
          v-4.153h-3.828c-1.031,0-1.955,0.027-2.77,0.081v-1.548c0.814,0.055,1.765,0.082,2.852,0.082h5.864
          c0.76-1.737,1.304-3.177,1.629-4.317c0.542,0.326,1.194,0.652,1.955,0.978C568.543,414.036,568.203,414.552,567.85,415.203z
           M562.76,415.855c-0.652,0.326-1.169,0.651-1.548,0.978c-0.651-1.248-1.304-2.28-1.955-3.095
          c0.489-0.326,0.923-0.652,1.304-0.978C561.266,413.629,561.998,414.661,562.76,415.855z"/>
        <path fill="#FFFFFF" d="M592.082,419.113v8.553c0,0.978,0.026,2.036,0.081,3.177h-1.71v-1.711h-10.996v1.711h-1.711
          c0.054-0.924,0.082-1.981,0.082-3.177v-8.553c0-1.303-0.028-2.524-0.082-3.665h14.417
          C592.108,416.588,592.082,417.81,592.082,419.113z M590.453,427.746v-10.914h-10.996v10.914H590.453z"/>
        <path fill="#FFFFFF" d="M598.883,425.181c1.112-0.461,2.104-1.126,2.973-1.995h-2.361c-0.869,0-1.684,0.027-2.443,0.081v-1.303
          c0.977,0.055,1.818,0.081,2.524,0.081h2.933v-1.141h-1.059c-0.869,0-1.793,0.028-2.77,0.082v-1.385
          c1.031,0.055,1.955,0.081,2.77,0.081h1.059v-1.14h-1.059c-1.088,0-1.983,0.027-2.688,0.081v-1.304
          c1.304,0.055,2.199,0.082,2.688,0.082h1.059v-1.304h1.385v1.304h3.34v-1.304h1.384v1.304h0.978c1.141,0,2.199-0.027,3.177-0.082
          v1.304c-0.978-0.054-1.929-0.081-2.851-0.081h-1.304v1.14h1.222c0.163,0,0.394-0.013,0.693-0.04
          c0.297-0.027,0.908-0.041,1.832-0.041v1.385c-0.924-0.054-1.521-0.082-1.792-0.082h-1.955v1.141h5.946v1.222
          c-1.032-0.054-1.711-0.081-2.036-0.081h-3.34c0.651,0.761,1.452,1.357,2.403,1.792c0.949,0.435,2.104,0.732,3.461,0.896
          c-0.271,0.489-0.543,1.059-0.814,1.711c-1.521-0.489-2.742-1.031-3.665-1.629v0.814h-4.073v2.688
          c0,1.031-0.244,1.615-0.732,1.751c-0.488,0.135-1.25,0.257-2.281,0.367c-0.109-0.489-0.244-1.06-0.406-1.711
          c0.705,0.054,1.221,0.054,1.547,0c0.326-0.055,0.489-0.299,0.489-0.733v-2.361h-2.851c-0.707,0-1.332,0.027-1.874,0.081v-1.059
          c-1.087,0.598-2.173,1.168-3.258,1.71c-0.38-0.542-0.761-1.03-1.14-1.466C596.807,425.928,597.77,425.643,598.883,425.181z
           M607.15,414.307h7.494c-0.055,0.652-0.082,1.223-0.082,1.711s0.027,1.005,0.082,1.548h-1.549v-1.955h-14.498v2.036h-1.547
          c0.053-0.597,0.081-1.167,0.081-1.71c0-0.598-0.028-1.141-0.081-1.63h8.145c-0.109-0.488-0.299-1.059-0.57-1.71l1.793-0.326
          C606.634,412.978,606.878,413.656,607.15,414.307z M601.693,427.502c0.488,0.436,0.922,0.843,1.303,1.222
          c-1.195,0.707-2.716,1.656-4.561,2.852c-0.381-0.436-0.733-0.87-1.06-1.304C599.276,429.404,600.716,428.48,601.693,427.502z
           M605.114,425.71c0-0.542-0.028-1.112-0.081-1.71h1.547c-0.055,0.598-0.082,1.168-0.082,1.71h3.666
          c-1.087-0.76-1.901-1.601-2.443-2.524h-3.991c-0.761,0.924-1.792,1.765-3.095,2.524H605.114z M607.232,419.683v-1.14h-3.34v1.14
          H607.232z M607.232,422.045v-1.141h-3.34v1.141H607.232z M613.26,429.865c-0.326,0.434-0.68,0.923-1.06,1.466
          c-1.413-1.087-2.879-1.954-4.398-2.606c0.216-0.379,0.489-0.786,0.814-1.222C610.462,428.426,612.01,429.213,613.26,429.865z"/>
      </g>
      <polygon fill="#74C5BE" stroke="#231815" stroke-width="3.4809" points="649.876,405.342 630.531,397.656 630.531,397.29 
        628.697,397.29 628.697,428.655 630.531,428.655 630.531,413.796      "/>
    </g>
  </g>
  <g opacity="0">
    <text transform="matrix(1 0 0 1 603.1113 456.5447)" font-family="'ArialMT'" font-size="15">8</text>
    <rect x="545.104" y="381.106" fill="none" stroke="#000000" stroke-width="0.6165" width="114.723" height="82.679"/>
  </g>
</g>
<g>
  <g>
    <g>
      <path fill="#FFFFFF" stroke="#E50012" stroke-width="1.8981" d="M467.9,327.089c0,4.794-3.887,8.675-8.68,8.675
        c-4.789,0-8.676-3.881-8.676-8.675c0-4.793,3.887-8.682,8.676-8.682C464.016,318.408,467.9,322.296,467.9,327.089z"/>
      <rect x="469.935" y="318.408" fill="#E50012" width="75.17" height="31.31"/>
      <g enable-background="new    ">
        <path fill="#FFFFFF" d="M478.765,340.533c-0.711,1.243-1.243,2.338-1.599,3.286c-0.711-0.533-1.422-1.036-2.133-1.51
          c0.651-0.592,1.422-1.555,2.311-2.887c0.888-1.333,1.51-2.501,1.865-3.509c0.533,0.533,1.065,0.977,1.599,1.332
          C480.155,338.195,479.475,339.289,478.765,340.533z M480.63,332.627c-0.475,0.475-0.888,1.008-1.243,1.6
          c-1.186-0.829-2.607-1.629-4.264-2.398c0.355-0.474,0.711-0.978,1.065-1.511C477.551,330.91,479.031,331.681,480.63,332.627z
           M481.518,327.298c-0.532,0.415-1.007,0.947-1.42,1.599c-0.949-0.946-2.221-1.895-3.82-2.843
          c0.473-0.413,0.947-0.857,1.422-1.332C478.765,325.433,480.037,326.291,481.518,327.298z M488.092,340.977
          c-0.593,0.476-1.393,1.053-2.398,1.732c-1.008,0.681-1.807,1.229-2.398,1.644c-0.297-0.475-0.711-0.978-1.244-1.51
          c0.474-0.415,0.681-0.918,0.622-1.511v-11.104c0-1.302-0.03-2.516-0.089-3.642h5.063c-0.475-0.888-1.037-1.688-1.688-2.398
          c0.651-0.296,1.185-0.591,1.6-0.888c0.769,0.947,1.361,1.747,1.776,2.398c-0.415,0.237-0.888,0.532-1.421,0.888h5.773
          c-0.06,0.948-0.089,2.487-0.089,4.619c0,2.073,0.029,3.464,0.089,4.175h-5.152c0.355,1.243,0.889,2.34,1.6,3.287
          c1.243-0.829,2.25-1.688,3.02-2.576c0.414,0.415,1.006,0.83,1.777,1.243c-0.475,0.237-0.992,0.549-1.555,0.933
          c-0.564,0.386-1.26,0.903-2.088,1.555c1.422,1.186,3.021,1.925,4.797,2.221c-0.593,0.591-1.008,1.243-1.244,1.954
          c-2.014-0.771-3.701-1.807-5.063-3.108c-1.363-1.303-2.369-3.139-3.021-5.508h-2.397v6.129c1.065-0.65,2.043-1.391,2.931-2.221
          C487.47,340.06,487.736,340.622,488.092,340.977z M491.822,330.318v-2.31h-7.461v2.31H491.822z M491.822,333.96v-2.221h-7.461
          v2.221H491.822z"/>
        <path fill="#FFFFFF" d="M503.236,326.498c-0.326,0.771-0.697,1.599-1.11,2.487h2.754c0.829,0,1.776-0.029,2.843-0.089v1.599
          c-1.066-0.058-1.985-0.089-2.754-0.089h-0.889v10.216c0,1.007,0.029,2.221,0.089,3.642h-1.954c0-1.421,0.029-2.635,0.089-3.642
          v-10.216h-0.888c-0.355,0.652-0.682,1.244-0.978,1.777c-0.297,0.532-0.622,1.096-0.978,1.688
          c-0.414-0.414-1.008-0.77-1.776-1.066c0.533-0.65,1.036-1.361,1.511-2.132c0.473-0.769,0.902-1.583,1.287-2.442
          c0.385-0.857,0.725-1.688,1.021-2.487c0.296-0.8,0.503-1.555,0.622-2.265c0.888,0.414,1.657,0.71,2.31,0.888
          C503.961,325.019,503.561,325.73,503.236,326.498z M507.767,332.184c0.562-0.829,1.065-1.718,1.511-2.665
          c0.443-0.947,0.857-1.91,1.243-2.887c0.384-0.978,0.724-2.028,1.021-3.153c0.591,0.237,1.332,0.475,2.221,0.71
          c-0.415,0.593-0.771,1.244-1.065,1.954c-0.298,0.711-0.711,1.659-1.244,2.843h4.264c0.828,0,1.806-0.029,2.932-0.089v1.599
          c-1.304-0.058-2.221-0.089-2.754-0.089h-0.533v11.192c0,1.302-0.386,2.057-1.154,2.266c-0.771,0.206-1.688,0.369-2.754,0.488
          c-0.119-0.771-0.326-1.541-0.622-2.31c1.243,0.059,2.013,0.029,2.31-0.089c0.296-0.118,0.444-0.563,0.444-1.332v-10.216h-2.843
          c-0.533,0.948-1.008,1.792-1.421,2.532c-0.415,0.741-1.037,1.674-1.866,2.798c-0.297-0.414-0.829-0.829-1.598-1.244
          C506.567,333.782,507.203,333.013,507.767,332.184z"/>
        <path fill="#FFFFFF" d="M524.066,326.676c0-1.065-0.031-1.983-0.089-2.754h1.776c-0.06,0.83-0.088,1.777-0.088,2.843v2.932
          c1.123,0,2.071-0.059,2.842-0.178v1.599c-0.83-0.059-1.776-0.089-2.842-0.089v6.84c1.006-0.296,1.982-0.622,2.931-0.978
          c0,0.475,0.029,0.948,0.089,1.422c-0.948,0.355-2.147,0.785-3.598,1.288c-1.451,0.504-2.531,0.963-3.242,1.376
          c-0.355-0.769-0.682-1.391-0.977-1.865c0.888-0.178,1.953-0.443,3.197-0.799v-7.284c-1.008,0-1.926,0.03-2.754,0.089v-1.51
          c0.828,0.06,1.746,0.089,2.754,0.089V326.676z M535.437,333.028c-0.06,1.807-0.267,3.42-0.622,4.841
          c-0.415,1.363-1.066,2.502-1.954,3.42c-0.888,0.917-2.398,1.938-4.53,3.064c-0.297-0.652-0.711-1.186-1.244-1.599
          c1.895-0.652,3.346-1.466,4.354-2.443c1.006-0.977,1.656-2.087,1.953-3.331c0.297-1.361,0.459-2.753,0.489-4.175
          c0.029-1.421,0.014-2.842-0.044-4.264c0.65,0.237,1.301,0.326,1.953,0.267C535.613,329.816,535.494,331.222,535.437,333.028z
           M539.967,331.74c0,3.435,0.029,5.715,0.088,6.84h-1.598v-11.992h-7.285v11.903h-1.598c0.058-1.302,0.088-3.583,0.088-6.84
          c0-3.256-0.03-5.388-0.088-6.396h10.48C539.996,326.143,539.967,328.306,539.967,331.74z M541.477,342.932
          c-0.593,0.413-1.097,0.888-1.51,1.421c-1.363-1.658-2.902-3.256-4.619-4.797c0.355-0.296,0.711-0.711,1.066-1.243
          C538.841,340.504,540.529,342.043,541.477,342.932z"/>
      </g>
      <polygon fill="#E50012" points="480.638,302.975 459.542,294.592 459.542,294.198 457.539,294.198 457.539,328.402 
        459.542,328.402 459.542,312.195       "/>
    </g>
  </g>
  <g opacity="0">
    <text transform="matrix(1 0 0 1 495.7783 367.5413)" font-family="'ArialMT'" font-size="15">3</text>
    <rect x="443.518" y="285.833" fill="none" stroke="#000000" stroke-width="0.6156" width="111.199" height="85.042"/>
  </g>
</g>
<g>
  <g>
    <g>
      <path fill="#FFFFFF" stroke="#E50012" stroke-width="1.79" d="M432.946,394.223c0,4.516-3.661,8.185-8.181,8.185
        c-4.522,0-8.188-3.668-8.188-8.185c0-4.521,3.663-8.185,8.188-8.185C429.285,386.038,432.946,389.701,432.946,394.223z"/>
      <rect x="314.879" y="357.522" fill="#E50012" width="103.239" height="29.522"/>
      <g enable-background="new    ">
        <path fill="#FFFFFF" d="M333.27,366.028c-0.112,0.894-0.238,1.773-0.377,2.639c-0.14,0.866-0.28,1.62-0.418,2.262
          c-0.14,0.643-0.293,1.243-0.461,1.801c-0.167,0.559-0.335,1.034-0.502,1.424c0.725,0.95,1.186,1.579,1.382,1.885
          c0.195,0.308,0.432,0.685,0.712,1.131l-1.34,1.006c-0.167-0.391-0.364-0.781-0.586-1.173c-0.224-0.391-0.503-0.838-0.838-1.341
          c-0.726,1.118-1.369,2.011-1.927,2.681c-0.559,0.671-1.285,1.48-2.178,2.43c-0.335-0.391-0.754-0.781-1.256-1.173
          c1.06-0.949,1.912-1.814,2.555-2.597c0.642-0.781,1.215-1.646,1.717-2.597c-0.615-0.838-1.118-1.494-1.508-1.969
          c-0.392-0.474-0.894-1.019-1.508-1.634c0.39-0.223,0.754-0.558,1.089-1.005c0.558,0.615,1.033,1.146,1.424,1.592
          c0.39,0.447,0.809,0.921,1.256,1.424c0.223-0.781,0.419-1.563,0.586-2.346c0.167-0.781,0.335-1.814,0.502-3.1h-2.681
          c-0.783,0-1.62,0.029-2.513,0.084v-1.508c0.781,0.057,1.591,0.084,2.429,0.084H333.27z M339.134,378.174
          c0.726,0,1.508-0.027,2.346-0.084v1.592c-0.837-0.056-1.62-0.084-2.346-0.084h-2.764c-1.173,0-2.178,0.028-3.016,0.084v-1.592
          c0.893,0.057,1.898,0.084,3.016,0.084H339.134z M342.568,373.148c-0.502,0.28-1.34,0.476-2.513,0.586
          c-0.113-0.67-0.308-1.283-0.586-1.843c1.173,0.057,1.87,0.015,2.094-0.125c0.222-0.139,0.362-0.516,0.418-1.131l0.084-3.268
          h-5.78v7.204h8.711l-0.418,5.78c-0.167,1.34-0.573,2.149-1.215,2.43c-0.643,0.278-1.606,0.474-2.89,0.586
          c-0.167-0.67-0.418-1.257-0.754-1.759c1.34,0.055,2.22-0.015,2.639-0.21c0.419-0.196,0.656-0.655,0.712-1.382l0.251-4.104
          h-8.628c0.055-0.949,0.083-1.898,0.083-2.849v-4.355c0-0.949-0.029-1.843-0.083-2.681h2.01c0.279-1.116,0.419-1.954,0.419-2.514
          c0.725,0.225,1.34,0.364,1.843,0.419c-0.28,0.56-0.559,1.257-0.837,2.095h5.612l-0.335,5.612
          C343.35,372.366,343.071,372.869,342.568,373.148z M340.223,370.718c-0.615,0.225-1.089,0.448-1.424,0.671
          c-0.28-0.671-0.699-1.508-1.256-2.514c0.446-0.167,0.921-0.39,1.424-0.67C339.245,368.821,339.664,369.658,340.223,370.718z"/>
        <path fill="#FFFFFF" d="M350.108,366.447c0-0.614-0.029-1.396-0.084-2.346h1.759c-0.056,1.005-0.084,1.788-0.084,2.346v3.1
          c0.838,0,1.703-0.028,2.597-0.084v1.508c-1.005-0.056-1.872-0.084-2.597-0.084v6.115c0.614-0.223,1.536-0.614,2.765-1.173
          c0,0.503,0.027,1.005,0.083,1.508c-0.95,0.447-2.094,0.936-3.435,1.466c-1.34,0.531-2.458,1.047-3.351,1.55
          c-0.224-0.503-0.559-1.061-1.005-1.676c1.005-0.278,2.122-0.641,3.351-1.089v-6.701c-1.229,0-2.207,0.028-2.932,0.084v-1.508
          c0.949,0.056,1.927,0.084,2.932,0.084V366.447z M364.935,364.352v1.341c-0.782,0.167-1.634,0.67-2.555,1.508
          s-2.165,2.01-3.728,3.518h7.539c-0.057,0.392-0.113,1.286-0.168,2.681l-0.335,6.283c-0.056,1.396-0.349,2.262-0.88,2.597
          s-1.465,0.558-2.806,0.67c-0.112-0.67-0.364-1.34-0.754-2.011c1.173,0.113,1.927,0.084,2.262-0.083
          c0.335-0.168,0.53-0.53,0.587-1.089l0.334-7.623h-1.591c-0.28,1.675-0.615,3.071-1.005,4.188
          c-0.393,1.117-0.853,2.081-1.383,2.89c-0.531,0.811-1.131,1.508-1.801,2.094c-0.67,0.587-1.508,1.187-2.513,1.802
          c-0.28-0.56-0.67-1.034-1.173-1.425c0.949-0.502,1.814-1.089,2.597-1.759c0.782-0.67,1.424-1.451,1.927-2.346
          c0.503-0.893,0.88-1.843,1.131-2.848c0.251-1.006,0.432-1.87,0.544-2.597h-1.675c-0.112,0.837-0.35,1.689-0.712,2.555
          c-0.364,0.866-0.879,1.717-1.55,2.555c-0.67,0.838-1.537,1.648-2.597,2.43c-0.224-0.391-0.643-0.81-1.256-1.257
          c1.34-0.725,2.387-1.703,3.141-2.932c0.754-1.228,1.186-2.346,1.298-3.351c-0.615,0.056-1.034,0.112-1.256,0.167
          c-0.224,0.057-0.586,0.168-1.089,0.335c-0.167-0.67-0.335-1.228-0.502-1.675c0.949-0.111,2.052-0.74,3.309-1.885
          c1.256-1.145,2.387-2.248,3.393-3.31h-3.183c-1.229,0-2.375,0.029-3.435,0.084v-1.592c1.005,0.057,2.122,0.084,3.351,0.084
          H364.935z"/>
        <path fill="#FFFFFF" d="M377.249,369.713c0.055-1.954,0.069-3.267,0.042-3.938c-0.029-0.67-0.07-1.311-0.126-1.926
          c0.671,0.112,1.425,0.196,2.262,0.251c-0.167,0.559-0.293,1.369-0.377,2.429c-0.083,1.062-0.126,2.123-0.126,3.184h4.272
          c1.508,0,2.903-0.055,4.188-0.167v1.843c-1.117-0.056-2.262-0.084-3.435-0.084h-4.942c0.223,0.95,0.614,1.913,1.173,2.89
          c0.558,0.978,1.131,1.843,1.718,2.597c0.586,0.754,1.395,1.55,2.429,2.388c1.032,0.838,2.163,1.537,3.393,2.095
          c-0.447,0.335-0.894,0.893-1.341,1.675c-1.004-0.559-1.996-1.257-2.973-2.094c-0.979-0.838-1.956-1.94-2.932-3.31
          c-0.979-1.367-1.718-2.639-2.221-3.812c-0.447,1.229-0.922,2.249-1.424,3.058c-0.502,0.811-1.047,1.55-1.633,2.221
          c-0.587,0.67-1.341,1.34-2.263,2.01c-0.921,0.67-1.968,1.341-3.142,2.011c-0.447-0.67-0.949-1.257-1.508-1.759
          c1.174-0.391,2.332-0.949,3.477-1.676c1.145-0.726,2.08-1.55,2.807-2.471c0.725-0.922,1.312-1.886,1.76-2.891
          c0.445-1.005,0.725-1.981,0.837-2.932h-4.607c-1.34,0-2.401,0.028-3.183,0.084v-1.843c0.781,0.056,1.843,0.112,3.183,0.167
          H377.249z"/>
        <path fill="#FFFFFF" d="M392.62,376.708c1.144-0.475,2.163-1.159,3.058-2.053h-2.43c-0.894,0-1.731,0.029-2.513,0.084v-1.341
          c1.005,0.057,1.87,0.084,2.597,0.084h3.016v-1.173h-1.089c-0.894,0-1.843,0.029-2.849,0.084v-1.424
          c1.061,0.056,2.011,0.084,2.849,0.084h1.089v-1.173h-1.089c-1.118,0-2.04,0.028-2.765,0.083v-1.34
          c1.34,0.057,2.262,0.084,2.765,0.084h1.089v-1.341h1.424v1.341h3.435v-1.341h1.425v1.341h1.005c1.173,0,2.262-0.027,3.267-0.084
          v1.34c-1.005-0.055-1.982-0.083-2.932-0.083h-1.34v1.173h1.256c0.168,0,0.404-0.014,0.712-0.042
          c0.307-0.027,0.935-0.042,1.886-0.042v1.424c-0.951-0.055-1.564-0.084-1.844-0.084h-2.01v1.173h6.115v1.257
          c-1.063-0.055-1.76-0.084-2.095-0.084h-3.435c0.67,0.783,1.493,1.396,2.471,1.843c0.977,0.448,2.164,0.754,3.561,0.922
          c-0.28,0.502-0.559,1.089-0.838,1.759c-1.564-0.503-2.82-1.061-3.77-1.675v0.837h-4.188v2.765c0,1.061-0.251,1.661-0.754,1.801
          c-0.503,0.139-1.285,0.265-2.345,0.377c-0.113-0.502-0.252-1.089-0.42-1.759c0.726,0.055,1.257,0.055,1.592,0
          c0.336-0.057,0.503-0.308,0.503-0.754v-2.43h-2.933c-0.726,0-1.368,0.029-1.926,0.084v-1.089
          c-1.118,0.615-2.234,1.201-3.352,1.759c-0.391-0.558-0.782-1.06-1.172-1.508C390.484,377.476,391.475,377.183,392.62,376.708z
           M401.123,365.525h7.706c-0.056,0.67-0.083,1.257-0.083,1.759c0,0.503,0.027,1.034,0.083,1.592h-1.591v-2.01h-14.912v2.094
          h-1.591c0.055-0.614,0.083-1.2,0.083-1.759c0-0.614-0.028-1.173-0.083-1.676h8.376c-0.111-0.503-0.307-1.089-0.586-1.759
          l1.844-0.335C400.592,364.157,400.842,364.855,401.123,365.525z M395.51,379.095c0.503,0.448,0.949,0.867,1.34,1.257
          c-1.229,0.727-2.793,1.703-4.69,2.932c-0.392-0.447-0.754-0.894-1.089-1.34C393.024,381.051,394.505,380.101,395.51,379.095z
           M399.028,377.252c0-0.558-0.028-1.144-0.084-1.759h1.592c-0.056,0.615-0.084,1.201-0.084,1.759h3.77
          c-1.118-0.781-1.955-1.646-2.513-2.597h-4.105c-0.782,0.95-1.842,1.815-3.183,2.597H399.028z M401.206,371.054v-1.173h-3.435
          v1.173H401.206z M401.206,373.483v-1.173h-3.435v1.173H401.206z M407.405,381.525c-0.335,0.446-0.699,0.949-1.089,1.508
          c-1.453-1.118-2.961-2.011-4.523-2.681c0.223-0.39,0.502-0.809,0.838-1.257C404.528,380.045,406.119,380.855,407.405,381.525z"
          />
      </g>
      <polygon fill="#74C5BE" stroke="#231815" stroke-width="3.58" points="445.635,371.793 425.742,363.889 425.742,363.515 
        423.856,363.515 423.856,395.77 425.742,395.77 425.742,380.486       "/>
    </g>
  </g>
  <g opacity="0">
    <text transform="matrix(1 0 0 1 339.832 407.1648)" font-family="'ArialMT'" font-size="15">4</text>
    <rect x="307" y="341.219" fill="none" stroke="#000000" stroke-width="1.0358" width="146" height="74.228"/>
  </g>
</g>
<g>
  <g>
    <g>
      <path fill="#FFFFFF" stroke="#E50012" stroke-width="1.8917" d="M397.844,455.911c0,4.778-3.869,8.646-8.65,8.646
        c-4.772,0-8.646-3.868-8.646-8.646s3.873-8.65,8.646-8.65C393.975,447.261,397.844,451.134,397.844,455.911z"/>
      <rect x="346.596" y="467.054" fill="#FFF000" width="74.92" height="31.201"/>
      <g enable-background="new    ">
        <path fill="#231815" d="M365.412,478.564c0.678,0.591,1.46,1.167,2.346,1.727c0.885,0.562,1.828,1.019,2.832,1.372
          c1.004,0.354,1.978,0.62,2.922,0.797c-0.59,0.591-1.004,1.299-1.239,2.125l-3.187-1.328c-0.061,0.945-0.089,2.302-0.089,4.072
          c0,1.713,0.028,3.188,0.089,4.427h-1.859v-1.682h-8.765v1.947h-1.859c0.058-1.239,0.089-2.714,0.089-4.427
          c0-1.771-0.031-3.127-0.089-4.072c-1.004,0.591-1.859,1.063-2.567,1.417c-0.65-0.943-1.151-1.534-1.505-1.771
          c1.239-0.413,2.375-0.899,3.409-1.461c1.032-0.561,1.961-1.209,2.789-1.948c0.826-0.737,1.549-1.534,2.169-2.39
          c0.619-0.855,1.164-1.785,1.638-2.789c0.708,0.354,1.475,0.65,2.302,0.886c-0.354,0.354-0.708,0.768-1.063,1.239
          C364.186,477.355,364.732,477.975,365.412,478.564z M358.019,474.846c-1.062,1.122-2.125,2.096-3.187,2.922
          c-0.414-0.531-0.945-0.975-1.593-1.328c1.062-0.649,2.05-1.387,2.965-2.214c0.915-0.825,1.727-1.799,2.435-2.921
          c0.531,0.413,1.269,0.768,2.213,1.063C360.025,472.899,359.082,473.726,358.019,474.846z M368.377,483.079
          c-1.182-0.708-2.316-1.578-3.408-2.611c-1.093-1.032-1.785-1.845-2.08-2.435c-0.828,0.944-1.683,1.845-2.568,2.7
          s-1.889,1.638-3.01,2.346H368.377z M367.227,488.568v-3.983h-8.765v3.983H367.227z M370.855,476.971
          c-1.004-0.767-2.921-2.154-5.754-4.161c0.235-0.412,0.648-0.914,1.239-1.505c0.886,0.768,2.833,2.155,5.843,4.161
          C371.594,475.939,371.15,476.44,370.855,476.971z"/>
        <path fill="#231815" d="M380.506,477.59c0.826-1.003,1.533-2.242,2.125-3.718h-3.188c-0.709,0-1.594,0.03-2.656,0.088v-1.593
          c1.004,0.06,1.889,0.088,2.656,0.088h5.4c-0.296,1.005-0.68,2.008-1.15,3.011c-0.474,1.004-1.033,1.918-1.683,2.744h7.259
          c-0.707-0.886-1.313-1.903-1.814-3.055c-0.502-1.15-0.9-2.227-1.195-3.231c0.473-0.058,1.032-0.206,1.683-0.442
          c0.117,0.768,0.323,1.476,0.62,2.125c1.18-0.826,2.094-1.683,2.744-2.567l1.416,1.416c-0.473,0.237-0.988,0.531-1.549,0.886
          c-0.563,0.354-1.255,0.827-2.08,1.416c0.294,0.768,0.707,1.477,1.238,2.125c1.24-0.826,2.332-1.8,3.275-2.922
          c0.413,0.65,0.855,1.182,1.328,1.594c-0.531,0.236-1.105,0.562-1.726,0.974c-0.62,0.414-1.314,0.886-2.081,1.417
          c0.709,0.591,1.506,1.077,2.391,1.461s1.74,0.605,2.567,0.664c-0.474,0.649-0.797,1.299-0.974,1.947
          c-1.182-0.354-2.169-0.781-2.966-1.283c-0.797-0.501-1.461-1.019-1.992-1.55v0.62c-0.473-0.059-1.358-0.089-2.655-0.089h-3.275
          c-1.299,0-2.244,0.03-2.834,0.089v-0.709c-0.708,0.709-1.432,1.344-2.168,1.904c-0.739,0.562-1.609,1.166-2.612,1.814
          c-0.296-0.531-0.739-1.032-1.328-1.505c0.943-0.412,1.683-0.782,2.214-1.106s1.091-0.753,1.682-1.284
          c-0.768-0.943-1.564-1.74-2.391-2.391c0.473-0.354,0.886-0.766,1.24-1.239C379.029,476.234,379.855,477.001,380.506,477.59z
           M391.66,484.142c0,0.944,0.029,1.801,0.089,2.567h-2.833c0.531,0.296,1.15,0.562,1.859,0.797
          c-0.236,0.296-0.458,0.605-0.664,0.93c-0.207,0.324-0.458,0.782-0.752,1.372h2.39c1.356,0,2.508-0.031,3.452-0.089v1.682
          c-1.594-0.059-3.129-0.088-4.604-0.088h-10.535c-1.416,0-2.627,0.029-3.629,0.088v-1.682c1.18,0.058,2.391,0.089,3.629,0.089
          h1.948c-0.237-0.649-0.591-1.357-1.063-2.125c0.649-0.235,1.239-0.501,1.771-0.797c0.472,0.945,0.886,1.89,1.24,2.833h3.629
          c0.235-0.531,0.443-1.063,0.62-1.594s0.323-1.003,0.442-1.416h-8.764c0.057-0.943,0.088-1.859,0.088-2.745
          c0-0.885-0.031-1.739-0.088-2.567h11.862C391.689,482.282,391.66,483.198,391.66,484.142z M389.89,485.292v-2.479h-8.056v2.479
          H389.89z"/>
        <path fill="#231815" d="M401.311,474.404c0-1.063-0.031-1.977-0.089-2.745h1.771c-0.06,0.827-0.088,1.771-0.088,2.833v2.922
          c1.119,0,2.064-0.059,2.832-0.177v1.593c-0.826-0.058-1.771-0.088-2.832-0.088v6.816c1.002-0.294,1.977-0.619,2.921-0.974
          c0,0.473,0.028,0.944,0.089,1.416c-0.945,0.354-2.141,0.783-3.586,1.284c-1.447,0.502-2.523,0.96-3.231,1.372
          c-0.354-0.767-0.679-1.386-0.974-1.859c0.885-0.177,1.947-0.442,3.188-0.797v-7.259c-1.005,0-1.919,0.03-2.744,0.088v-1.505
          c0.825,0.06,1.739,0.089,2.744,0.089V474.404z M412.643,480.734c-0.061,1.801-0.266,3.408-0.62,4.824
          c-0.413,1.358-1.063,2.494-1.948,3.408c-0.885,0.915-2.391,1.933-4.515,3.055c-0.296-0.65-0.708-1.182-1.239-1.594
          c1.889-0.65,3.334-1.461,4.338-2.435c1.003-0.974,1.651-2.08,1.947-3.319c0.295-1.357,0.457-2.745,0.487-4.161
          c0.028-1.417,0.014-2.833-0.044-4.25c0.648,0.237,1.297,0.325,1.947,0.266C412.818,477.532,412.7,478.934,412.643,480.734z
           M417.157,479.449c0,3.424,0.028,5.696,0.089,6.816h-1.594v-11.951h-7.26v11.863h-1.594c0.059-1.298,0.089-3.57,0.089-6.817
          c0-3.245-0.03-5.369-0.089-6.374h10.447C417.186,473.872,417.157,476.028,417.157,479.449z M418.662,490.605
          c-0.591,0.412-1.093,0.885-1.505,1.416c-1.358-1.653-2.893-3.245-4.604-4.78c0.355-0.295,0.709-0.709,1.063-1.24
          C416.035,488.185,417.717,489.719,418.662,490.605z"/>
      </g>
      <polygon fill="#009844" points="411.343,430.996 390.324,422.642 390.324,422.246 388.332,422.246 388.332,456.339 
        390.324,456.339 390.324,440.187       "/>
    </g>
  </g>
  <g opacity="0">
    <text transform="matrix(1 0 0 1 384.3105 518.0588)" font-family="'ArialMT'" font-size="15">6</text>
    <rect x="322.5" y="413.657" fill="none" stroke="#000000" stroke-width="0.9978" width="127.168" height="109.939"/>
  </g>
</g>
<g>
  <g>
    <g>
      <path fill="#FFFFFF" stroke="#E50012" stroke-width="1.8548" d="M514.778,480.637c0,4.684-3.787,8.479-8.476,8.479
        c-4.683,0-8.479-3.798-8.479-8.479c0-4.685,3.799-8.479,8.479-8.479C510.991,472.157,514.778,475.952,514.778,480.637z"/>
      <rect x="470.388" y="493" fill="#FFF000" width="73.46" height="30.597"/>
      <g enable-background="new    ">
        <path fill="#231815" d="M478.271,509.342c0.637-1.446,1.07-2.691,1.303-3.732h-1.043c-0.347,0-0.896,0.029-1.648,0.086v-1.563
          c0.578,0.059,1.07,0.087,1.476,0.087h1.302v-2.431c0-0.694-0.029-1.417-0.086-2.17h1.735c-0.058,0.927-0.087,1.649-0.087,2.17
          v2.431c0.578,0,1.244-0.028,1.996-0.087v1.563c-0.693-0.057-1.359-0.086-1.996-0.086v3.038c0.348-0.174,0.695-0.435,1.042-0.781
          c0.983,1.273,1.619,2.112,1.909,2.517c-0.521,0.348-0.984,0.694-1.389,1.042c-0.29-0.348-0.551-0.767-0.781-1.259
          c-0.232-0.491-0.492-0.882-0.781-1.172v7.726c0,0.925,0.029,1.91,0.087,2.951h-1.735c0.057-0.926,0.086-1.909,0.086-2.951
          v-7.031c-0.231,0.579-0.564,1.346-0.998,2.301s-0.912,1.779-1.432,2.474c-0.232-0.694-0.58-1.302-1.042-1.823
          C476.939,511.889,477.635,510.789,478.271,509.342z M494.764,511.164c0,1.273,0.029,2.287,0.088,3.038h-4.08v1.476h2.864
          c1.042,0,1.967-0.028,2.778-0.086v1.476c-0.753-0.058-1.68-0.087-2.778-0.087h-2.864c0,1.099,0.028,2.024,0.087,2.777h-1.823
          c0.057-0.638,0.087-1.563,0.087-2.777h-2.344c-1.389,0-2.517,0.029-3.386,0.087v-1.476c0.926,0.058,2.054,0.086,3.386,0.086
          h2.344v-1.476h-4.167c0.057-0.81,0.088-1.88,0.088-3.211c0-1.39-0.031-2.401-0.088-3.039h9.896
          C494.793,508.821,494.764,509.893,494.764,511.164z M488.08,503.613c0.115,0.521,0.289,1.129,0.521,1.823h2.518
          c0.115-0.404,0.187-0.767,0.217-1.085c0.028-0.317,0.072-0.68,0.13-1.085h-3.298c-1.447,0-2.635,0.029-3.56,0.086v-1.476
          c0.983,0.059,2.14,0.087,3.472,0.087h4.254c1.215,0,2.314-0.028,3.299-0.087v1.476c-0.927-0.057-2.027-0.086-3.299-0.086h-0.694
          c0.462,0.173,1.012,0.377,1.649,0.607c-0.348,0.464-0.638,0.984-0.869,1.563h1.216c0.983,0,1.852-0.028,2.604-0.087v1.476
          c-0.753-0.057-1.621-0.087-2.604-0.087h-6.944c-0.926,0-1.853,0.03-2.777,0.087v-1.476c0.751,0.059,1.736,0.087,2.951,0.087
          c-0.117-0.521-0.232-0.983-0.348-1.389C486.922,503.931,487.443,503.786,488.08,503.613z M493.201,510.383v-1.128h-6.596v1.128
          H493.201z M493.201,512.901v-1.215h-6.596v1.215H493.201z M490.945,501.182c-0.638,0.117-1.246,0.29-1.823,0.521
          c-0.174-0.637-0.377-1.272-0.607-1.91c0.577-0.174,1.128-0.317,1.649-0.434C490.395,499.939,490.654,500.546,490.945,501.182z"
          />
        <path fill="#231815" d="M501.274,502.05c0-0.81-0.03-1.563-0.087-2.257h1.91c-0.174,0.812-0.261,1.736-0.261,2.777v1.649
          c0.577,0,1.243-0.028,1.997-0.087v1.563c-0.695-0.057-1.361-0.086-1.997-0.086v3.211c0.289-0.347,0.55-0.636,0.781-0.868
          c0.868,1.101,1.649,2.287,2.344,3.56c-0.579,0.231-1.042,0.492-1.389,0.781c-0.579-1.157-1.159-2.17-1.736-3.038v6.944
          c0,1.041,0.028,2.17,0.087,3.385h-1.736c0.057-1.215,0.087-2.344,0.087-3.385v-5.556c-0.347,1.1-0.985,2.431-1.909,3.993
          c-0.232-0.521-0.607-1.042-1.129-1.563c0.752-0.983,1.389-2.214,1.91-3.689c0.521-1.476,0.838-2.734,0.955-3.775
          c-0.754,0-1.535,0.029-2.344,0.086v-1.563c0.867,0.059,1.705,0.087,2.517,0.087V502.05z M510.822,502.571
          c-0.173,1.854-0.404,3.444-0.693,4.774c-0.291,1.332-0.58,2.344-0.869,3.038c0.869,1.332,1.794,2.808,2.778,4.428
          c-0.521,0.29-1.013,0.666-1.476,1.128c-0.405-0.983-1.071-2.227-1.996-3.732c-0.406,0.868-0.883,1.751-1.433,2.647
          c-0.551,0.897-1.202,1.751-1.953,2.561c-0.521-0.462-1.042-0.838-1.563-1.128c0.925-0.752,1.706-1.62,2.344-2.604
          c0.636-0.983,1.157-1.996,1.563-3.038c-0.29-0.694-1.101-1.967-2.431-3.819c0.463-0.174,0.868-0.435,1.215-0.781
          c0.752,0.927,1.389,1.853,1.91,2.777c0.463-1.619,0.752-3.24,0.868-4.86h-1.909c-0.812,0-1.506,0.029-2.084,0.087v-1.563
          c0.521,0.058,1.215,0.086,2.084,0.086H510.822z M514.643,512.293c-0.753,0.347-1.245,0.638-1.477,0.868
          c-0.578-1.62-1.301-3.153-2.17-4.601c0.695-0.404,1.186-0.665,1.477-0.781C513.281,509.458,514.005,510.962,514.643,512.293z
           M514.902,499.793h1.736c-0.059,0.868-0.086,2.374-0.086,4.514c0.577,0,1.215-0.057,1.909-0.174v1.649
          c-0.753-0.057-1.39-0.087-1.909-0.087v12.24c-0.059,0.577-0.291,0.998-0.695,1.258c-0.405,0.261-1.129,0.448-2.17,0.564
          c-0.117-0.638-0.377-1.273-0.781-1.909c0.868,0.057,1.445,0.043,1.736-0.044c0.289-0.087,0.404-0.478,0.348-1.172v-10.938
          c-1.68,0-2.924,0.03-3.733,0.087v-1.563c0.751,0.059,1.997,0.087,3.733,0.087C514.932,502.167,514.902,500.661,514.902,499.793z
          "/>
        <path fill="#231815" d="M523.453,513.031c1.186-0.49,2.242-1.2,3.168-2.126h-2.517c-0.927,0-1.794,0.029-2.604,0.087v-1.39
          c1.042,0.059,1.938,0.087,2.691,0.087h3.125v-1.215h-1.129c-0.926,0-1.91,0.029-2.951,0.087v-1.476
          c1.099,0.058,2.083,0.086,2.951,0.086h1.129v-1.215h-1.129c-1.158,0-2.113,0.03-2.864,0.087v-1.389
          c1.389,0.058,2.343,0.087,2.864,0.087h1.129v-1.39h1.475v1.39h3.56v-1.39h1.476v1.39h1.042c1.216,0,2.344-0.029,3.386-0.087
          v1.389c-1.042-0.057-2.055-0.087-3.039-0.087h-1.389v1.215h1.303c0.174,0,0.418-0.013,0.737-0.043
          c0.317-0.028,0.968-0.043,1.953-0.043v1.476c-0.985-0.058-1.62-0.087-1.909-0.087h-2.084v1.215h6.337v1.303
          c-1.101-0.058-1.823-0.087-2.17-0.087h-3.56c0.695,0.811,1.548,1.447,2.561,1.909c1.012,0.464,2.242,0.781,3.689,0.955
          c-0.29,0.521-0.578,1.128-0.867,1.823c-1.621-0.521-2.924-1.099-3.906-1.736v0.868h-4.341v2.864
          c0,1.099-0.261,1.721-0.781,1.866c-0.521,0.144-1.332,0.274-2.431,0.391c-0.116-0.521-0.26-1.128-0.434-1.823
          c0.752,0.058,1.302,0.058,1.648,0c0.348-0.058,0.521-0.318,0.521-0.781v-2.517h-3.038c-0.753,0-1.419,0.029-1.997,0.087v-1.129
          c-1.158,0.638-2.314,1.245-3.472,1.823c-0.405-0.578-0.812-1.099-1.216-1.563C521.24,513.827,522.267,513.524,523.453,513.031z
           M532.264,501.443h7.986c-0.059,0.694-0.087,1.302-0.087,1.823c0,0.521,0.028,1.071,0.087,1.648h-1.649v-2.083h-15.451v2.17
          H521.5c0.057-0.636,0.087-1.243,0.087-1.822c0-0.637-0.03-1.216-0.087-1.736h8.681c-0.116-0.521-0.319-1.129-0.608-1.823
          l1.91-0.347C531.713,500.026,531.974,500.748,532.264,501.443z M526.447,515.505c0.521,0.464,0.984,0.897,1.39,1.302
          c-1.273,0.753-2.895,1.765-4.861,3.038c-0.405-0.464-0.781-0.927-1.128-1.389C523.873,517.531,525.406,516.546,526.447,515.505z
           M530.094,513.595c0-0.577-0.029-1.186-0.087-1.822h1.649c-0.059,0.637-0.087,1.245-0.087,1.822h3.906
          c-1.158-0.81-2.026-1.706-2.604-2.69h-4.253c-0.812,0.984-1.909,1.881-3.299,2.69H530.094z M532.351,507.171v-1.215h-3.56v1.215
          H532.351z M532.351,509.689v-1.215h-3.56v1.215H532.351z M538.774,518.022c-0.348,0.463-0.725,0.983-1.129,1.563
          c-1.505-1.158-3.067-2.083-4.687-2.777c0.23-0.404,0.52-0.838,0.867-1.302C535.793,516.49,537.442,517.327,538.774,518.022z"/>
      </g>
      <polygon fill="#1D2087" points="526.067,456.839 505.454,448.647 505.454,448.259 503.495,448.259 503.495,481.688 
        505.454,481.688 505.454,465.849       "/>
    </g>
  </g>
  <g opacity="0">
    <text transform="matrix(1 0 0 1 502 544.0012)" font-family="'ArialMT'" font-size="15">7</text>
    <rect x="466.004" y="443.5" fill="none" stroke="#000000" stroke-width="0.8124" width="88.713" height="104.47"/>
  </g>
</g>
<g>
  <g>
    <g>
      <path fill="#FFFFFF" stroke="#E50012" stroke-width="1.8413" d="M474.42,598.625c0,4.649-3.762,8.416-8.418,8.416
        c-4.646,0-8.414-3.766-8.414-8.416c0-4.646,3.767-8.418,8.414-8.418C470.658,590.207,474.42,593.978,474.42,598.625z"/>
      <rect x="376.75" y="575.022" fill="#FFF000" width="72.918" height="30.371"/>
      <polygon fill="#009FE8" points="487.352,577.448 466.891,569.313 466.891,568.929 464.948,568.929 464.948,602.11 
        466.891,602.11 466.891,586.392      "/>
      <g enable-background="new    ">
        <path fill="#231815" d="M399.156,587.435v1.465c-0.46,0.058-1.049,0.345-1.766,0.861c-0.719,0.518-1.652,1.236-2.801,2.154H402
          c-0.517,1.322-0.977,2.558-1.379,3.706c-0.689-0.229-1.322-0.373-1.895-0.432c0.4-0.631,0.717-1.263,0.947-1.896h-5.515v6.118
          c0,0.746-0.23,1.249-0.689,1.508c-0.46,0.259-1.522,0.474-3.188,0.646c-0.058-0.575-0.258-1.236-0.604-1.982
          c1.091,0.057,1.823,0.057,2.197,0c0.373-0.058,0.561-0.286,0.561-0.688v-5.343c-1.034,1.206-2.055,2.212-3.059,3.016
          c-1.006,0.806-1.954,1.522-2.844,2.154c-0.892,0.633-2.025,1.293-3.404,1.982c-0.344-0.575-0.746-1.121-1.206-1.638
          c0.632-0.172,1.407-0.502,2.327-0.991c0.918-0.487,1.908-1.105,2.973-1.853c1.063-0.746,2.111-1.723,3.145-2.93h-4.395
          c-1.322,0-2.412,0.03-3.273,0.086v-1.551c0.918,0.058,2.01,0.086,3.273,0.086h4.567c-0.747-0.631-1.409-1.12-1.981-1.465
          c0.572-0.286,1.062-0.603,1.465-0.947c0.459,0.345,1.32,1.034,2.584,2.067c1.035-0.745,2.211-1.693,3.533-2.843h-7.928
          c-1.092,0-2.125,0.029-3.102,0.086v-1.465c0.977,0.058,2.01,0.086,3.102,0.086H399.156z M389.42,583.471h4.998
          c0-0.517-0.03-1.12-0.087-1.81h1.981c-0.057,0.689-0.086,1.293-0.086,1.81h2.844c0.805,0,1.81-0.028,3.016-0.086v1.551
          c-1.092-0.057-2.067-0.086-2.93-0.086h-2.93c0,0.575,0.029,1.206,0.086,1.896h-1.895v-1.896h-4.998v1.81h-1.896
          c0.057-0.804,0.087-1.407,0.087-1.81h-2.068c-1.149,0-2.24,0.058-3.274,0.172v-1.637c1.034,0.058,2.125,0.086,3.274,0.086h2.068
          c0-0.517-0.03-1.12-0.087-1.81h1.982C389.447,582.351,389.42,582.954,389.42,583.471z"/>
        <path fill="#231815" d="M410.272,587.694h4.567c-0.403-0.459-0.892-1.034-1.465-1.724c0.4-0.229,0.918-0.545,1.551-0.948
          c0.517,0.689,1.004,1.293,1.465,1.81c-0.518,0.288-0.978,0.575-1.379,0.862h4.395c1.207,0,2.383-0.028,3.533-0.086v1.551
          c-1.15-0.114-2.326-0.173-3.533-0.173h-2.93v1.293h1.982c1.148,0,2.297-0.028,3.446-0.086v1.465
          c-1.149-0.057-2.298-0.087-3.446-0.087h-1.982v1.379h1.896c1.091,0,2.241-0.028,3.446-0.086v1.551
          c-1.205-0.114-2.326-0.172-3.359-0.172h-1.982v1.551h3.102c1.379,0,2.758-0.028,4.137-0.086v1.551
          c-1.322-0.114-2.672-0.172-4.051-0.172H409.41v0.775h-1.723c0.057-0.977,0.086-1.982,0.086-3.017v-4.05
          c-0.402,0.403-1.063,1.034-1.982,1.896c-0.287-0.401-0.746-0.862-1.378-1.379c1.206-0.804,2.226-1.694,3.059-2.672
          c0.833-0.976,1.509-1.924,2.025-2.843c0.517,0.402,1.12,0.805,1.81,1.206C410.904,587.235,410.559,587.464,410.272,587.694z
           M410.445,585.798c0.113-0.518,0.172-0.977,0.172-1.379h-2.672c-1.379,0-2.527,0.029-3.446,0.086v-1.465
          c1.493,0.058,2.642,0.086,3.446,0.086h2.672c0-0.517-0.059-1.091-0.172-1.723h1.809c-0.058,0.688-0.086,1.264-0.086,1.723h4.998
          c0-0.459-0.029-1.034-0.086-1.723h1.723c-0.058,0.632-0.086,1.206-0.086,1.723h3.878c0.573,0,1.177-0.028,1.81-0.086v1.465
          c-0.861-0.057-1.465-0.086-1.81-0.086h-3.878c0,0.402,0.028,0.891,0.086,1.465h-1.723c0.057-0.518,0.086-1.005,0.086-1.465
          h-4.998c0,0.402,0.028,0.861,0.086,1.379H410.445z M407.429,599.843c-0.229,0.459-0.575,1.091-1.034,1.896
          c-0.633-0.288-1.149-0.546-1.551-0.775c0.287-0.402,0.561-0.848,0.818-1.335c0.259-0.487,0.561-1.105,0.904-1.853
          c0.402,0.229,0.977,0.488,1.725,0.775C407.945,598.953,407.658,599.384,407.429,599.843z M414.84,590.279v-1.293h-5.43v1.293
          H414.84z M414.84,592.949v-1.379h-5.43v1.379H414.84z M414.84,595.793v-1.551h-5.43v1.551H414.84z M412.6,599.326
          c0.172,0.345,0.4,0.832,0.688,1.465c-0.46,0.229-0.978,0.459-1.551,0.689c-0.173-0.345-0.374-0.763-0.603-1.25
          c-0.23-0.488-0.489-0.933-0.776-1.335c0.517-0.229,1.091-0.46,1.724-0.689C412.254,598.609,412.427,598.982,412.6,599.326z
           M417.727,599.068c0.258,0.401,0.56,0.89,0.904,1.465c-0.633,0.229-1.178,0.459-1.637,0.689
          c-0.173-0.402-0.418-0.833-0.732-1.293c-0.316-0.46-0.619-0.89-0.905-1.292c0.517-0.229,1.034-0.487,1.551-0.775
          C417.194,598.264,417.467,598.666,417.727,599.068z M423.025,598.766c0.345,0.489,0.775,1.02,1.293,1.595
          c-0.575,0.229-1.121,0.545-1.638,0.947c-0.402-0.574-0.763-1.077-1.077-1.508c-0.316-0.431-0.676-0.875-1.077-1.336
          c0.517-0.286,1.005-0.573,1.465-0.861C422.336,597.891,422.681,598.279,423.025,598.766z"/>
        <path fill="#231815" d="M430.436,581.834c-0.058,1.264-0.086,2.24-0.086,2.93v2.757c0.804,0,1.693-0.028,2.672-0.086v1.551
          c-0.979-0.057-1.868-0.086-2.672-0.086v6.29c0.861-0.229,1.779-0.517,2.758-0.861v1.465c-1.15,0.288-2.197,0.604-3.146,0.948
          s-1.969,0.775-3.06,1.292c-0.23-0.573-0.517-1.12-0.861-1.637c0.746-0.173,1.693-0.431,2.844-0.775V588.9
          c-0.978,0-1.84,0.029-2.585,0.086v-1.551c0.688,0.058,1.521,0.086,2.499,0.086v-2.671c0-0.689-0.029-1.693-0.086-3.016H430.436z
           M432.849,597.474c0.517-0.948,0.905-2.025,1.163-3.231c0.258-1.207,0.388-2.844,0.388-4.912c0-2.067-0.029-3.619-0.086-4.652
          h4.653c0-1.493-0.029-2.586-0.086-3.274h1.809c-0.058,0.688-0.086,1.781-0.086,3.274h5.17c-0.402,1.608-0.689,2.843-0.861,3.705
          c-0.633-0.115-1.236-0.201-1.81-0.259c0.229-0.689,0.431-1.379,0.603-2.068h-3.102v3.792h3.791
          c-0.344,1.723-0.719,3.175-1.119,4.352c-0.402,1.178-1.006,2.283-1.811,3.317c0.746,0.689,1.521,1.206,2.327,1.551
          c0.804,0.345,1.694,0.604,2.671,0.775c-0.574,0.518-1.033,1.063-1.379,1.638c-0.746-0.288-1.479-0.618-2.197-0.991
          c-0.719-0.374-1.537-0.991-2.455-1.853c-0.402,0.345-0.991,0.762-1.767,1.249c-0.776,0.487-1.767,1.02-2.974,1.595
          c-0.402-0.518-0.861-0.978-1.378-1.379c1.206-0.345,2.226-0.761,3.06-1.25c0.832-0.487,1.478-0.933,1.938-1.335
          c-1.378-1.551-2.211-3.647-2.498-6.29h-0.775c-0.116,2.585-0.532,4.64-1.25,6.16c-0.719,1.523-1.508,2.801-2.369,3.835
          c-0.402-0.575-0.92-0.948-1.551-1.12C431.67,599.298,432.332,598.421,432.849,597.474z M438.967,589.848v-3.792h-2.844v3.792
          H438.967z M438.535,591.227c0.229,2.184,0.891,3.906,1.982,5.17c0.459-0.689,0.847-1.45,1.163-2.284
          c0.315-0.832,0.53-1.794,0.646-2.886H438.535z"/>
      </g>
    </g>
  </g>
  <g opacity="0">
    <text transform="matrix(1 0 0 1 415.8301 627.2107)" font-family="'ArialMT'" font-size="15">10</text>
    <rect x="367.092" y="554.511" fill="none" stroke="#000000" stroke-width="0.8323" width="127.168" height="76.489"/>
  </g>
</g>
<g>
  <g>
    <g>
      <path fill="#FFFFFF" stroke="#E50012" stroke-width="1.9232" d="M206.957,553.697c0,4.855-3.931,8.791-8.791,8.791
        c-4.853,0-8.792-3.935-8.792-8.791c0-4.854,3.938-8.793,8.792-8.793C203.026,544.904,206.957,548.842,206.957,553.697z"/>
      <rect x="213.638" y="542.364" fill="#FFF000" width="76.168" height="31.719"/>
      <g enable-background="new    ">
        <path fill="#231815" d="M231.121,564.117c0.869-1.26,1.724-2.579,2.565-3.96c0.299,0.54,0.72,0.96,1.26,1.26
          c-0.54,0.72-1.23,1.786-2.07,3.195c-0.841,1.41-1.62,2.745-2.34,4.005c-0.481-0.48-1.141-0.931-1.98-1.35
          C229.396,566.426,230.251,565.377,231.121,564.117z M233.957,556.827c-0.54,0.359-1.021,0.841-1.44,1.439
          c-1.14-1.02-2.4-1.979-3.78-2.88c0.419-0.36,0.81-0.811,1.17-1.351C231.166,554.818,232.516,555.747,233.957,556.827z
           M235.037,551.517c-0.481,0.36-0.931,0.841-1.35,1.44c-1.141-1.08-2.34-2.04-3.6-2.881c0.419-0.419,0.81-0.869,1.17-1.35
          C232.456,549.507,233.716,550.437,235.037,551.517z M247.727,568.617c-0.42-0.78-0.78-1.381-1.08-1.8
          c-1.921,0.119-4.005,0.284-6.255,0.495c-2.25,0.209-3.766,0.435-4.545,0.675c-0.18-0.72-0.421-1.351-0.72-1.89
          c0.779-0.239,1.62-1.021,2.52-2.341c0.9-1.319,1.71-2.97,2.43-4.95h-2.52c-1.08,0-2.101,0.031-3.06,0.09v-1.62
          c0.959,0.061,2.009,0.091,3.15,0.091h3.24v-3.961h-2.07c-1.14,0-2.13,0.031-2.97,0.09v-1.619c0.959,0.06,1.919,0.09,2.88,0.09
          h2.16c0-1.68-0.031-3.061-0.09-4.141h1.98c-0.061,0.9-0.09,2.281-0.09,4.141h2.7c0.9,0,1.83-0.03,2.791-0.09v1.619
          c-0.961-0.059-1.831-0.09-2.61-0.09h-2.88v3.961h3.24c1.08,0,2.16-0.03,3.24-0.091v1.62c-1.08-0.059-2.16-0.09-3.24-0.09h-4.59
          l0.9,0.54c-0.36,0.421-0.931,1.32-1.71,2.7c-0.781,1.381-1.651,2.7-2.61,3.96c2.64-0.119,5.25-0.27,7.831-0.449
          c-0.72-1.08-1.471-2.04-2.25-2.881c0.479-0.359,0.929-0.749,1.35-1.17c1.08,1.32,2.58,3.301,4.5,5.94
          C248.807,567.747,248.267,568.137,247.727,568.617z"/>
        <path fill="#231815" d="M259.607,549.942c-0.36,0.571-0.69,1.066-0.99,1.485h10.53c0.9,0,1.98-0.03,3.24-0.09v1.89
          c-1.141-0.059-2.221-0.09-3.24-0.09h-7.47v3.69h5.67c0.9,0,1.98-0.03,3.24-0.091v1.801c-0.96-0.06-2.041-0.09-3.24-0.09h-5.67
          v3.779h7.29c0.72,0,1.679-0.029,2.88-0.09v1.891c-1.201-0.12-2.16-0.181-2.88-0.181h-7.29v1.44c0,0.9,0.029,2.01,0.09,3.33
          h-2.16c0.059-1.141,0.09-2.25,0.09-3.33v-12.15h-2.16c-1.561,2.16-2.911,3.78-4.05,4.86c-0.36-0.54-0.9-1.05-1.62-1.53
          c3-2.579,5.13-5.64,6.39-9.181c0.959,0.421,1.83,0.78,2.61,1.08C260.387,548.848,259.968,549.372,259.607,549.942z"/>
      </g>
      <polygon fill="#E50012" points="219.228,529.536 197.856,521.041 197.856,520.644 195.832,520.644 195.832,555.304 
        197.856,555.304 197.856,538.877       "/>
    </g>
  </g>
  <g opacity="0">
    <text transform="matrix(1 0 0 1 228.3315 601.3372)" font-family="'ArialMT'" font-size="15">11</text>
    <rect x="169.665" y="514.5" fill="none" stroke="#000000" stroke-width="0.9154" width="127.168" height="92.542"/>
  </g>
</g>
<g>
  <g>
    <g>
      <path fill="#FFFFFF" stroke="#E50012" stroke-width="1.8944" d="M183.812,448.845c0,4.784-3.883,8.656-8.664,8.656
        c-4.784,0-8.66-3.873-8.66-8.656c0-4.786,3.877-8.663,8.66-8.663C179.929,440.182,183.812,444.059,183.812,448.845z"/>
      <rect x="188.329" y="439.876" fill="#E50012" width="75.027" height="31.25"/>
      <g enable-background="new    ">
        <path fill="#FFFFFF" d="M211.772,447.738h4.433c0-0.887-0.03-1.654-0.088-2.305h1.773c-0.06,0.65-0.088,1.418-0.088,2.305h3.103
          c1.122,0,2.217-0.029,3.281-0.089v1.685c-1.064-0.059-2.159-0.089-3.281-0.089h-3.103c0,0.414,0.029,0.917,0.088,1.508h-1.685
          v-1.508h-4.433v1.951h-1.773c0.059-0.71,0.089-1.359,0.089-1.951h-3.458c-1.006,0-2.039,0.03-3.103,0.089v-1.685
          c1.004,0.06,2.039,0.089,3.103,0.089h3.458c0-0.887-0.03-1.625-0.089-2.217h1.951
          C211.831,446.113,211.772,446.851,211.772,447.738z M208.758,453.279c-0.414,0.68-1.005,1.522-1.773,2.526h2.571
          c0.649-0.944,1.122-1.802,1.418-2.57c0.532,0.354,1.21,0.65,2.039,0.886c-0.651,0.415-1.375,1.213-2.172,2.395
          c-0.798,1.183-1.611,2.246-2.438,3.191c0.768-0.118,2.216-0.295,4.344-0.532c-0.177,0.474-0.296,0.946-0.354,1.419
          c-0.769,0.06-1.848,0.192-3.236,0.398c-1.39,0.208-2.409,0.459-3.059,0.754c-0.237-0.532-0.562-1.093-0.975-1.685
          c0.65-0.059,1.255-0.339,1.817-0.842c0.561-0.502,1.197-1.256,1.906-2.261c-0.414,0-1.006,0.044-1.773,0.133
          c-0.769,0.089-1.39,0.252-1.862,0.487c-0.237-0.649-0.532-1.211-0.887-1.685c0.709-0.177,1.403-0.754,2.083-1.729
          c0.679-0.976,1.286-2.084,1.817-3.325c0.532,0.355,1.182,0.651,1.951,0.887C209.645,452.081,209.171,452.6,208.758,453.279z
           M213.102,463.784c-1.596,0.295-3.089,0.605-4.477,0.931c-1.389,0.324-2.409,0.635-3.059,0.931
          c-0.177-0.65-0.503-1.301-0.975-1.95c1.182-0.117,2.526-0.311,4.034-0.576s3.028-0.576,4.566-0.931
          C213.131,462.84,213.102,463.371,213.102,463.784z M217.003,453.323h6.118c-0.06,1.064-0.119,2.217-0.177,3.458l-0.178,6.561
          c-0.06,0.827-0.385,1.388-0.975,1.685c-0.591,0.295-1.626,0.561-3.103,0.798c-0.177-0.651-0.503-1.271-0.975-1.861
          c1.596,0,2.541-0.075,2.837-0.222c0.295-0.147,0.501-0.517,0.621-1.108l0.266-7.713h-5.142
          c-0.709,1.301-1.478,2.481-2.305,3.546c-0.354-0.473-0.917-0.887-1.685-1.241c0.827-0.709,1.61-1.743,2.35-3.104
          c0.738-1.358,1.197-2.423,1.374-3.191c0.59,0.237,1.299,0.443,2.128,0.621C217.682,452.081,217.298,452.673,217.003,453.323z
           M219.042,460.948c-0.532,0.236-1.064,0.532-1.596,0.887c-0.591-1.3-1.271-2.452-2.039-3.458
          c0.532-0.177,1.034-0.473,1.507-0.887C217.682,458.554,218.391,459.706,219.042,460.948z"/>
        <path fill="#FFFFFF" d="M229.016,459.13c1.211-0.502,2.29-1.227,3.236-2.172h-2.571c-0.946,0-1.833,0.03-2.66,0.088v-1.418
          c1.064,0.06,1.979,0.089,2.749,0.089h3.191v-1.241h-1.152c-0.946,0-1.951,0.03-3.015,0.088v-1.507
          c1.122,0.06,2.128,0.089,3.015,0.089h1.152v-1.241h-1.152c-1.183,0-2.158,0.03-2.926,0.089v-1.419
          c1.418,0.06,2.394,0.089,2.926,0.089h1.152v-1.419h1.507v1.419h3.635v-1.419h1.507v1.419h1.064c1.241,0,2.394-0.029,3.458-0.089
          v1.419c-1.064-0.059-2.099-0.089-3.103-0.089h-1.418v1.241h1.33c0.178,0,0.428-0.014,0.754-0.045
          c0.324-0.028,0.989-0.044,1.995-0.044v1.507c-1.006-0.058-1.655-0.088-1.95-0.088h-2.128v1.241h6.472v1.329
          c-1.123-0.058-1.862-0.088-2.216-0.088h-3.635c0.709,0.828,1.581,1.478,2.615,1.95c1.034,0.474,2.29,0.798,3.768,0.975
          c-0.296,0.532-0.592,1.153-0.887,1.862c-1.655-0.532-2.985-1.122-3.989-1.773v0.887h-4.433v2.926
          c0,1.122-0.266,1.758-0.798,1.906c-0.532,0.146-1.36,0.279-2.482,0.398c-0.119-0.531-0.266-1.152-0.443-1.861
          c0.768,0.059,1.33,0.059,1.685,0c0.354-0.06,0.532-0.325,0.532-0.798v-2.571h-3.103c-0.769,0-1.449,0.03-2.039,0.089v-1.152
          c-1.183,0.65-2.364,1.271-3.546,1.861c-0.415-0.59-0.829-1.122-1.241-1.596C226.755,459.943,227.804,459.633,229.016,459.13z
           M238.015,447.294h8.156c-0.06,0.709-0.089,1.33-0.089,1.862c0,0.531,0.029,1.094,0.089,1.684h-1.685v-2.127h-15.781v2.216
          h-1.685c0.058-0.649,0.089-1.271,0.089-1.861c0-0.65-0.031-1.241-0.089-1.773h8.866c-0.119-0.532-0.326-1.152-0.621-1.861
          l1.95-0.355C237.453,445.847,237.718,446.585,238.015,447.294z M232.075,461.656c0.532,0.474,1.004,0.917,1.419,1.33
          c-1.301,0.769-2.957,1.802-4.965,3.103c-0.415-0.474-0.798-0.945-1.153-1.418C229.444,463.726,231.011,462.721,232.075,461.656z
           M235.798,459.706c0-0.59-0.03-1.211-0.088-1.862h1.685c-0.06,0.651-0.089,1.272-0.089,1.862h3.99
          c-1.183-0.827-2.07-1.743-2.66-2.748h-4.344c-0.829,1.005-1.951,1.921-3.369,2.748H235.798z M238.104,453.146v-1.241h-3.635
          v1.241H238.104z M238.104,455.717v-1.241h-3.635v1.241H238.104z M244.664,464.228c-0.354,0.473-0.74,1.004-1.152,1.596
          c-1.538-1.183-3.133-2.128-4.788-2.837c0.235-0.413,0.532-0.856,0.887-1.33C241.62,462.662,243.304,463.519,244.664,464.228z"/>
      </g>
      <polygon fill="#1D2087" points="197.972,422.418 176.915,414.05 176.915,413.657 174.918,413.657 174.918,447.795 
        176.915,447.795 176.915,431.621       "/>
    </g>
  </g>
  <g opacity="0">
    <text transform="matrix(1 0 0 1 228.2803 496.9685)" font-family="'ArialMT'" font-size="15">5</text>
    <rect x="155.644" y="407.675" fill="none" stroke="#000000" stroke-width="0.9077" width="125.594" height="92.118"/>
  </g>
</g></svg>  
