<svg version="1.0" id="图层_1" xmlns="http://www.w3.org/2000/svg" xmlns:xlink="http://www.w3.org/1999/xlink" x="0px" y="0px" 
	width="100%" height="100%" viewBox="0 0 720 1280" xml:space="preserve"
  style="position: relative;display: block;"
  >
  
<g>
	<g>
		<path opacity="0.6" fill="#FFFFFF" stroke="#009FE8" stroke-width="6.3738" d="M513.461,549.912H387.18c0,0-66.371-1.276-69.334,0
			c-2.958,1.304-102.865-20.306-102.865-20.306l-54.738-76.747l-20.344-21.849c-1.207,4.423-3.762,11.73-8.063,14.797
			c-6.37,4.542-40.763,15.372-45.859,13.779c-5.099-1.596-14.015,16.238-14.015,22.608c0,6.37,3.822,38.217,2.549,44.59
			c-1.276,6.365-2.549,19.103-6.37,28.022c-3.821,8.914-3.818,11.463-12.738,21.655c-8.919,10.188-12.74,12.737-20.383,20.382
			c-7.642,7.643-22.928,21.655-22.928,26.753c0,5.09-6.372,25.476-6.372,29.297s0,14.01,0,14.01l11.466,28.025v7.327h19.429
			l11.462-3.665c0,0,17.196,12.264,20.063,12.264s17.198,6.688,17.198,6.688l10.509,12.417l4.775,11.464
			c0,0,21.976,16.243,26.75,14.336c4.778-1.911,17.197,0.156,17.197,0.156l13.376,14.172c0,0,24.841,32.481,29.618,35.349
			c4.775,2.867,16.241,8.6,16.241,10.51c0,1.913,5.734,12.42,5.734,12.42v16.241l10.508,5.734l0.609,0.376l5.283-8.021
			l46.015-11.461h15.288c0,0,21.653-14.016,38.215-17.839c16.559-3.818,16.559,2.549,31.846,5.096
			c15.287,2.549,24.203,7.645,28.022,7.645c3.822,0,33.121,5.099,33.121,5.099h14.014c0,0,12.74-8.92,17.834-14.016
			c5.095-5.098,14.012-17.833,16.561-17.2c2.547,0.636,24.204-23.563,28.022-28.977c3.821-5.414,21.658-3.509,35.672-7.327
			c14.011-3.818,14.011-8.914,24.203-19.108c10.191-10.191,11.466-15.29,15.284-20.75c3.824-5.463,7.645-8.55,11.469-14.915
			c3.817-6.367,7.639-16.562,7.639-20.385c0-3.821,5.098-8.917,12.74-19.108c7.643-10.187,0-20.378,0-24.202
			c0-3.821,7.643-5.093,10.191-8.917c2.547-3.824,8.914-20.38,8.914-20.38h20.383h15.288c0,0,15.287-1.28,19.105-5.238
			c3.821-3.963,11.466,0,11.466,0h12.741l16.718-0.88l-107.61-46.289L513.461,549.912z"/>
		
			<text transform="matrix(1 0 0 1 561.8311 593.1934)" opacity="0" fill="#040000" enable-background="new    " font-family="'SimHei'" font-size="20">轮廓</text>
	</g>
	<g>
		<g>
			<g>
				<path fill="#231815" d="M87.019,522.323c-1.207,0.143-1.935,0.249-2.183,0.32l-0.479-0.958c0.497,0.036,1.508-0.018,3.035-0.16
					v-1.065c-1.101,0-1.917,0.019-2.449,0.053v-0.798c0.532,0.036,1.349,0.053,2.449,0.053v-0.958h-2.29
					c0.035-0.603,0.053-1.384,0.053-2.343c0-0.958-0.019-1.739-0.053-2.342h5.324c-0.036,0.604-0.053,1.384-0.053,2.342
					c0,0.958,0.017,1.74,0.053,2.343H88.19v0.958c0.923,0,1.65-0.018,2.183-0.053v0.798c-0.498-0.035-1.225-0.053-2.183-0.053v1.012
					c1.029-0.071,1.845-0.142,2.449-0.213c-0.036,0.213-0.053,0.461-0.053,0.745C89.415,522.076,88.225,522.182,87.019,522.323z
					 M85.688,524.347c-0.142,0.461-0.284,0.887-0.426,1.278c-0.213-0.142-0.498-0.249-0.852-0.319
					c0.213-0.355,0.373-0.702,0.479-1.039s0.213-0.736,0.319-1.198c0.248,0.106,0.55,0.195,0.905,0.266
					C85.971,523.548,85.829,523.886,85.688,524.347z M87.392,514.87h-1.438v3.194h1.438V514.87z M87.285,517
					c-0.213,0.106-0.426,0.213-0.639,0.319c-0.142-0.426-0.338-0.94-0.585-1.544c0.177-0.106,0.39-0.195,0.639-0.266
					C86.983,516.183,87.178,516.68,87.285,517z M86.646,523.388c0.284-0.035,0.567-0.088,0.852-0.16
					c0.141,0.71,0.266,1.349,0.373,1.917c-0.285,0-0.586,0.035-0.905,0.106C86.93,524.79,86.823,524.169,86.646,523.388z
					 M89.574,518.064v-3.194H88.19v3.194H89.574z M88.243,523.282c0.248-0.035,0.514-0.088,0.799-0.16
					c0.071,0.319,0.248,0.923,0.532,1.81c-0.249,0.035-0.515,0.106-0.798,0.213C88.669,524.542,88.491,523.921,88.243,523.282z
					 M88.296,517.212c0.177-0.461,0.337-1.012,0.479-1.65c0.141,0.071,0.373,0.142,0.692,0.213c-0.178,0.426-0.355,0.977-0.532,1.65
					C88.723,517.319,88.509,517.248,88.296,517.212z M89.787,523.122c0.284-0.071,0.55-0.195,0.799-0.373
					c0.248,0.568,0.497,1.225,0.745,1.97c-0.355,0.071-0.639,0.177-0.852,0.319C90.337,524.4,90.107,523.761,89.787,523.122z
					 M94.526,517.266c-0.426-0.709-0.728-1.455-0.905-2.236c-0.249,0.817-0.506,1.509-0.772,2.077
					c-0.266,0.568-0.701,1.278-1.304,2.129c-0.213-0.248-0.533-0.426-0.958-0.532c0.78-0.816,1.375-1.765,1.784-2.849
					c0.407-1.082,0.647-1.907,0.719-2.476c0.354,0.106,0.78,0.213,1.278,0.319l-0.213,0.479c0.035,0.355,0.293,1.011,0.772,1.97
					c0.479,0.958,1.198,1.722,2.156,2.29c-0.391,0.213-0.692,0.479-0.905,0.798C95.501,518.632,94.952,517.976,94.526,517.266z
					 M91.278,520.62c0.604,0.036,1.278,0.053,2.023,0.053h3.035c-0.391,0.923-0.764,1.837-1.118,2.742
					c-0.355,0.905-0.71,1.73-1.065,2.476c-0.319-0.213-0.639-0.373-0.958-0.479c0.461-0.781,0.816-1.455,1.065-2.023
					c0.248-0.567,0.497-1.225,0.745-1.97h-1.704c-0.817,0-1.491,0.018-2.023,0.053V520.62z M92.822,518.224
					c0.284-0.106,0.55-0.23,0.799-0.373l0.799,1.597c-0.32,0.072-0.639,0.178-0.958,0.32
					C93.354,519.307,93.142,518.792,92.822,518.224z"/>
				<path fill="#231815" d="M104.521,517.558c-0.125,0.196-0.382,0.702-0.772,1.518h4.952c0.852,0,1.544-0.018,2.076-0.053v0.958
					c-0.568-0.035-1.243-0.053-2.023-0.053h-0.533c-0.391,1.03-0.923,1.952-1.597,2.769c1.313,0.498,2.662,1.136,4.046,1.917
					c-0.249,0.284-0.498,0.621-0.745,1.012c-1.314-0.888-2.681-1.615-4.1-2.183c-0.888,0.675-1.899,1.198-3.035,1.571
					c-1.136,0.373-2.076,0.63-2.822,0.772c-0.142-0.426-0.355-0.799-0.639-1.118c1.1-0.071,2.138-0.266,3.115-0.585
					c0.976-0.32,1.73-0.674,2.263-1.065c-1.065-0.39-2.308-0.746-3.727-1.065c0.567-0.78,0.993-1.455,1.278-2.023h-1.331
					c-0.426,0-1.03,0.018-1.81,0.053v-0.958c0.426,0.036,1.012,0.053,1.757,0.053h1.757c0.461-0.852,0.816-1.704,1.065-2.556
					c0.426,0.249,0.833,0.426,1.225,0.533C104.778,517.195,104.645,517.364,104.521,517.558z M104.548,513.166
					c0.39,0.498,0.78,1.047,1.171,1.65c-0.213,0.106-0.444,0.266-0.692,0.479h4.898c-0.036,0.498-0.053,0.905-0.053,1.225
					s0.017,0.746,0.053,1.278h-1.118v-1.65h-7.88v1.544h-1.118c0.035-0.497,0.053-0.922,0.053-1.278
					c0-0.354-0.036-0.727-0.106-1.118h4.898c-0.285-0.603-0.604-1.1-0.958-1.491C104.015,513.592,104.299,513.379,104.548,513.166z
					 M105.612,522.323c0.497-0.46,0.976-1.259,1.438-2.396h-3.621c-0.285,0.426-0.586,0.923-0.905,1.491
					C103.979,521.81,105.009,522.11,105.612,522.323z"/>
				<path fill="#231815" d="M115.262,522.376c-0.355,0.71-0.834,1.74-1.438,3.088c-0.285-0.285-0.657-0.568-1.118-0.852
					c0.32-0.39,0.674-0.949,1.065-1.677c0.39-0.727,0.746-1.624,1.065-2.688c0.354,0.249,0.745,0.515,1.171,0.799
					C115.865,521.224,115.617,521.667,115.262,522.376z M115.901,517.958c-0.355,0.355-0.639,0.728-0.852,1.118
					c-0.285-0.319-1.012-0.833-2.183-1.544c0.248-0.284,0.497-0.603,0.746-0.958C114.641,517.212,115.404,517.674,115.901,517.958z
					 M116.221,514.71c-0.285,0.285-0.551,0.604-0.799,0.958c-0.284-0.32-0.905-0.763-1.863-1.331c0.319-0.32,0.55-0.639,0.692-0.958
					C115.244,514.018,115.901,514.462,116.221,514.71z M125.059,515.083c-0.604-0.035-1.509-0.053-2.715-0.053v1.65h2.29
					c-0.036,1.137-0.053,2.627-0.053,4.473c0,1.846,0.018,3.372,0.053,4.579h-1.012v-0.852h-5.803v0.852h-1.012
					c0.035-1.207,0.053-2.733,0.053-4.579c0-1.881-0.018-3.372-0.053-4.473h2.396v-1.65c-1.065,0-2.023,0.019-2.875,0.053v-1.012
					c0.852,0.036,2.36,0.054,4.525,0.054c2.165,0,3.567-0.018,4.206-0.054V515.083z M123.621,521.738v-1.171h-1.118
					c-0.745,0-1.118-0.39-1.118-1.171v-1.863h-1.225c-0.036,0.923-0.151,1.65-0.346,2.183c-0.195,0.532-0.453,0.994-0.772,1.384
					c-0.249-0.248-0.568-0.426-0.958-0.533c0.319-0.354,0.586-0.772,0.799-1.251c0.213-0.479,0.319-1.073,0.319-1.784h-1.384v4.206
					H123.621z M123.621,523.974v-1.278h-5.803v1.278H123.621z M121.385,516.68v-1.65h-1.225v1.65H121.385z M122.503,519.608
					c0.107,0.072,0.479,0.107,1.118,0.107v-2.183h-1.278v1.331C122.343,519.289,122.396,519.538,122.503,519.608z"/>
				<path fill="#231815" d="M126.881,525.305c0.567-0.817,0.994-1.704,1.278-2.662c0.284-0.958,0.435-1.925,0.453-2.902
					c0.018-0.976,0.008-1.943-0.026-2.902c-0.036-0.958-0.089-1.774-0.16-2.449h8.892c0.852,0,1.491-0.035,1.917-0.106v1.171
					c-0.355-0.035-0.994-0.053-1.917-0.053h-7.667c0.035,1.35,0.053,2.662,0.053,3.94c0,1.243-0.115,2.352-0.346,3.328
					c-0.231,0.977-0.631,2.05-1.198,3.221C127.769,525.712,127.342,525.518,126.881,525.305z"/>
			</g>
		</g>
		<g>
			<g>
				<path fill="#231815" d="M87.236,594.55c-1.096-0.096-2.249-0.535-3.463-1.321c-1.214-0.785-2.047-1.951-2.499-3.499
					c-0.453-1.546-0.678-3.081-0.678-4.605c0-1.523,0-3.142,0-4.855h-5.284c-0.619,0-1.19,0.071-1.713,0.214l-0.643-0.643h7.497
					l0.785-0.785l1,1l-0.643,0.5v3.855l0.571,0.214c1.332-1.38,2.427-2.879,3.284-4.498l1.428,1.143l-0.786,0.286
					c-1.333,1.285-2.523,2.356-3.57,3.213c2.046,0.905,3.201,1.535,3.463,1.892c0.261,0.357,0.393,0.678,0.393,0.964
					c0,0.143-0.036,0.333-0.107,0.571c-0.071,0.239-0.155,0.357-0.25,0.357c-0.143,0-0.405-0.261-0.785-0.785
					c-0.571-0.761-1.785-1.76-3.642-2.999c0,2.666,0.439,4.676,1.321,6.033c0.88,1.356,2.201,2.177,3.963,2.463l0.5-3.784h0.286
					c0,1.381,0.083,2.44,0.25,3.177c0.166,0.738,0.368,1.273,0.607,1.606C88.759,594.55,88.331,594.645,87.236,594.55z"/>
				<path fill="#231815" d="M95.607,585.482c0,5.046,0.023,8.091,0.072,9.139l-1.143,0.5c0.047-2.094,0.071-4.998,0.071-8.71
					c-0.714,1.999-1.761,3.761-3.142,5.283l-0.143-0.214c1.428-2.237,2.499-4.998,3.213-8.282h-1.713l-0.643,0.143l-0.571-0.571
					h2.999c0-1.666-0.024-3.213-0.071-4.641l1.571,0.643l-0.5,0.5v3.499h1l0.785-0.785l1.214,1.214h-2.999v1.928
					c1.143,0.428,1.892,0.762,2.249,1c0.357,0.239,0.536,0.548,0.536,0.928c0,0.239-0.036,0.476-0.107,0.714
					c-0.071,0.239-0.132,0.357-0.179,0.357c-0.143,0-0.357-0.238-0.643-0.714C97.035,586.744,96.416,586.102,95.607,585.482z
					 M100.391,580.556v6.212c0,3.523-1.333,6.211-3.998,8.068l-0.214-0.214c2.142-1.951,3.213-4.569,3.213-7.854v-3.427
					c0-1.285-0.024-2.594-0.071-3.927l1.071,0.714h3.285l0.643-0.714l1.142,1l-0.714,0.428v11.638c0,0.476,0.238,0.714,0.714,0.714
					h0.857c0.238,0,0.404-0.189,0.5-0.571c0.095-0.38,0.166-1.237,0.214-2.57h0.357c0,1.048,0.047,1.75,0.143,2.106
					c0.095,0.357,0.333,0.631,0.714,0.821c-0.286,0.571-0.583,0.893-0.893,0.964c-0.31,0.072-0.607,0.107-0.893,0.107h-1.499
					c-0.81,0-1.214-0.382-1.214-1.143v-12.352H100.391z"/>
				<path fill="#231815" d="M76.598,613.271l2.713-2.427l0.214,0.214c-0.762,0.857-1.393,1.619-1.892,2.285
					c-0.5,0.667-0.94,1.31-1.321,1.928l-1.071-1c0.286-0.286,0.404-0.618,0.357-1v-6.568H74.67c-0.381,0-0.833,0.071-1.356,0.214
					l-0.643-0.643h2.856l0.5-0.714l1.285,0.928l-0.714,0.5V613.271z M74.599,600.705l0.214-0.143
					c0.761,0.477,1.296,0.881,1.606,1.214c0.309,0.333,0.452,0.655,0.428,0.964c-0.024,0.31-0.143,0.56-0.357,0.75
					c-0.214,0.19-0.346,0.285-0.393,0.285c-0.191,0-0.333-0.237-0.428-0.714C75.527,602.395,75.17,601.609,74.599,600.705z
					 M78.954,607.702h6.354l0.571-0.714l1.285,1.143l-0.714,0.357c-0.714,1.904-1.571,3.499-2.57,4.784
					c1.38,1.096,3.117,1.738,5.212,1.928v0.214c-0.953,0.238-1.453,0.595-1.5,1.071c-1.667-0.571-3.118-1.451-4.355-2.642
					c-1.999,1.618-4.355,2.617-7.068,2.999l-0.071-0.214c3.045-0.905,5.188-2.071,6.426-3.499c-1-1.475-1.667-3.142-1.999-4.998
					h-0.357l-0.643,0.143L78.954,607.702z M85.522,604.846c0,0.476,0.261,0.714,0.786,0.714c0.523,0,1.023-0.071,1.5-0.214
					c0.428-0.095,0.714-0.011,0.856,0.25c0.143,0.262,0.214,0.464,0.214,0.607c0,0.096-0.06,0.155-0.179,0.179
					c-0.119,0.024-0.75,0.036-1.892,0.036h-1.142c-0.857,0-1.262-0.38-1.214-1.143v-3.57H81.31c0.047,1.619-0.19,2.916-0.714,3.891
					c-0.524,0.976-1.619,1.892-3.284,2.749l-0.143-0.214c1.523-1.189,2.416-2.225,2.678-3.106c0.261-0.88,0.393-1.653,0.393-2.32
					c0-0.666-0.024-1.332-0.071-1.999l1.142,0.571h3.07l0.5-0.714l1.214,0.928l-0.571,0.429V604.846z M80.882,608.13
					c0.666,2.095,1.428,3.57,2.285,4.427c0.904-1.143,1.642-2.617,2.213-4.427H80.882z"/>
				<path fill="#231815" d="M95.393,614.056l2.784-2.428l0.143,0.214c-1.667,2.142-2.69,3.57-3.07,4.284l-1.071-1.214
					c0.189-0.286,0.286-0.737,0.286-1.356v-6.426h-1.856h0.643c-0.286,0-0.69,0.071-1.214,0.214l-0.643-0.643h2.927l0.786-0.786l1,1
					l-0.714,0.5V614.056z M93.465,600.918l0.071-0.214c1.046,0.476,1.772,0.881,2.178,1.214c0.404,0.333,0.607,0.667,0.607,1
					c0,0.333-0.084,0.571-0.25,0.714c-0.167,0.143-0.274,0.214-0.321,0.214c-0.239,0-0.453-0.286-0.643-0.857
					C94.774,602.275,94.226,601.586,93.465,600.918z M101.676,606.773c0-3.188-0.024-5.259-0.071-6.212l1.714,0.786l-0.571,0.571
					v4.855h3.213l0.928-0.928l1.285,1.356h-5.426v6.498c0,0.953,0.023,1.832,0.071,2.642l-1.214,0.5
					c0.047-1.476,0.071-2.594,0.071-3.355v-6.283h-3.641h1.071c-0.571,0-1.119,0.071-1.642,0.214l-0.643-0.643H101.676z"/>
				<path fill="#231815" d="M117.615,600.419l1.142,1.214c-0.856,0-2.595,0.333-5.212,1v2.856h3.213l0.571-0.643l1.071,0.928
					l-0.571,0.428c0,2.047,0.023,3.499,0.071,4.355l-1.071,0.428v-1.071h-3.355c-0.048,2.618-1,4.951-2.856,6.997l-0.214-0.143
					c0.904-1.381,1.487-2.795,1.75-4.248c0.261-1.452,0.38-3.392,0.357-5.819c-0.024-2.428-0.061-4.141-0.107-5.141l1.142,0.643
					c0.857-0.238,1.642-0.5,2.356-0.786C116.615,601.133,117.186,600.8,117.615,600.419z M113.545,605.917l-0.071,3.57h3.355v-3.57
					H113.545z M124.397,613.842c0,0.619,0.023,1.403,0.071,2.356l-1.142,0.571c0.047-1.428,0.071-2.736,0.071-3.927v-6.069h-2.856
					c0.047,4.237-1.547,7.616-4.784,10.139l-0.214-0.214c1.046-0.953,1.939-2.201,2.678-3.749c0.737-1.546,1.13-2.974,1.178-4.284
					c0.047-1.309,0.072-2.51,0.072-3.606c0-1.285-0.025-2.451-0.072-3.499l1.143,0.643c2.665-0.666,4.307-1.286,4.926-1.856
					l1.357,1.356c-0.667-0.095-2.761,0.191-6.283,0.857v3.784h4.641l0.856-0.856l1.285,1.285h-2.927V613.842z"/>
			</g>
		</g>
		<g>
			<g>
				<path fill="#1D2087" d="M107.637,494.448v-1.232c0-0.623-0.017-1.182-0.049-1.675l1.182,0.493l-0.443,0.394v2.02h0.788
					c0.919-1.149,1.494-1.987,1.724-2.513l0.887,0.837c-0.329,0.066-0.723,0.296-1.182,0.69c-0.46,0.394-0.837,0.723-1.133,0.985
					h2.069l0.739-0.739l1.034,1.035h-4.384c0.426,0.46,1.075,0.871,1.946,1.231c0.87,0.362,1.847,0.559,2.931,0.591v0.197
					c-0.525,0.132-0.837,0.362-0.936,0.689c-0.723-0.197-1.511-0.542-2.364-1.034c-0.854-0.493-1.462-1.051-1.823-1.675h-0.295
					c0,0.689,0.016,1.33,0.049,1.921l-0.788,0.345c0.032-0.689,0.049-1.395,0.049-2.118c-1.15,1.281-2.857,2.283-5.123,3.005
					l-0.099-0.197c1.872-0.755,3.35-1.74,4.433-2.956h-2.167c-0.427,0-0.821,0.049-1.182,0.147l-0.443-0.443H107.637z
					 M108.08,497.501l-0.443,0.197c-0.197,0.295-0.395,0.591-0.591,0.887h4.63l0.739-0.739l1.035,1.034h-2.611
					c-0.427,0.756-0.854,1.379-1.281,1.872c0.919,0.263,1.667,0.509,2.241,0.739c0.574,0.23,0.878,0.525,0.912,0.887
					c0.032,0.361-0.033,0.542-0.197,0.542c-0.165,0-0.394-0.116-0.689-0.345c-0.625-0.492-1.544-0.968-2.759-1.428
					c-1.511,1.182-3.662,1.855-6.453,2.02l-0.098-0.197c2.692-0.361,4.63-1.034,5.813-2.02c-1.051-0.262-2.102-0.459-3.153-0.591
					c0.328-0.427,0.657-0.919,0.985-1.478h-1.625c-0.427,0-0.821,0.049-1.182,0.148l-0.443-0.443h3.399
					c0.328-0.624,0.558-1.182,0.689-1.675L108.08,497.501z M104.287,492.132l0.148-0.148c0.755,0.362,1.256,0.641,1.502,0.837
					c0.246,0.197,0.377,0.411,0.394,0.641c0.016,0.23-0.042,0.418-0.172,0.566c-0.132,0.148-0.214,0.222-0.246,0.222
					c-0.132,0-0.247-0.148-0.345-0.443C105.403,493.381,104.977,492.822,104.287,492.132z M108.77,500.605
					c0.426-0.426,0.82-1.001,1.182-1.724h-3.005c-0.295,0.427-0.591,0.871-0.887,1.33C106.947,500.31,107.85,500.441,108.77,500.605
					z"/>
				<path fill="#1D2087" d="M120.444,496.96c-0.197-0.263-0.394-0.493-0.591-0.69c-0.427,0.362-1.002,0.723-1.724,1.084
					c-0.723,0.362-1.577,0.689-2.562,0.985l-0.049-0.197c1.149-0.426,2.069-0.878,2.758-1.354c0.69-0.476,1.231-0.961,1.625-1.454
					h-2.069l-0.394,0.099l-0.394-0.394h5.96l0.591-0.591l0.837,0.886h-3.596c-0.23,0.197-0.493,0.443-0.788,0.739
					c0.197,0.165,0.459,0.411,0.788,0.739c0.328,0.329,0.591,0.657,0.788,0.985c0.755-0.493,1.281-0.854,1.577-1.084
					c0.295-0.229,0.558-0.493,0.788-0.788l0.788,0.837l-0.542,0.049c-0.46,0.197-0.953,0.411-1.478,0.64
					c0.328,1.084,0.779,1.914,1.354,2.488c0.574,0.575,1.338,0.944,2.291,1.108v0.148c-0.46,0.033-0.788,0.23-0.985,0.591
					c-0.854-0.459-1.495-1.018-1.921-1.675c-0.427-0.656-0.756-1.494-0.985-2.512c-0.23,0.099-0.493,0.23-0.788,0.394
					c0.131,0.362,0.246,0.756,0.345,1.182c0.099,0.427,0.148,0.936,0.148,1.527c0,0.591-0.107,1.083-0.32,1.478
					c-0.214,0.394-0.649,0.706-1.305,0.936c-0.099-0.427-0.608-0.788-1.527-1.083v-0.197c0.821,0.164,1.362,0.238,1.625,0.222
					c0.263-0.017,0.451-0.123,0.567-0.32c0.115-0.197,0.188-0.492,0.222-0.887c0.032-0.394,0-0.968-0.099-1.724
					c-0.362,0.492-1.092,1.083-2.192,1.773c-1.101,0.69-2.438,1.248-4.015,1.675l-0.049-0.197c1.346-0.46,2.503-1.01,3.473-1.65
					c0.968-0.64,1.83-1.42,2.586-2.34c-0.066-0.361-0.197-0.672-0.394-0.936c-0.295,0.362-0.854,0.821-1.675,1.379
					c-0.821,0.559-1.987,1.084-3.498,1.576l-0.049-0.197c1.017-0.394,1.978-0.895,2.881-1.502
					C119.352,498.101,120.017,497.519,120.444,496.96z M124.532,494.743l0.542-1.084h-8.177c0.033,0.526-0.049,0.862-0.246,1.01
					c-0.197,0.147-0.378,0.221-0.542,0.221c-0.098,0-0.197-0.032-0.295-0.098c-0.099-0.065-0.148-0.115-0.148-0.148
					c0-0.099,0.115-0.246,0.345-0.443c0.328-0.262,0.542-0.739,0.64-1.429h0.246v0.591h8.079l0.493-0.542l0.887,0.887
					c-0.46,0-1.018,0.378-1.675,1.133L124.532,494.743z M119.705,491.64l0.099-0.099c0.755,0.197,1.214,0.387,1.379,0.567
					c0.164,0.181,0.247,0.337,0.247,0.468c0,0.132-0.058,0.288-0.172,0.468c-0.116,0.181-0.206,0.271-0.271,0.271
					c-0.099,0-0.181-0.131-0.247-0.394C120.575,492.526,120.23,492.1,119.705,491.64z"/>
				<path fill="#1D2087" d="M129.705,495.334c0-1.773-0.017-2.988-0.049-3.645l1.182,0.443l-0.443,0.345v2.857h0.591l0.542-0.542
					l0.837,0.837h-1.971v3.596l1.773-0.542l0.049,0.197c-2.529,1.019-3.859,1.675-3.99,1.97l-0.591-0.936
					c0.394-0.033,1.083-0.197,2.069-0.493v-3.793h-0.394c-0.427,0-0.821,0.049-1.182,0.147l-0.443-0.443H129.705z M135.025,493.955
					c0-0.919-0.017-1.708-0.049-2.365l1.182,0.542l-0.493,0.345v1.478h1.97l0.443-0.542l0.936,0.936
					c-0.493,0.033-1.101,0.477-1.823,1.33l-0.197-0.099l0.739-1.33h-2.069v2.562h1.034l0.395-0.493l0.837,0.641l-0.443,0.345
					c-0.329,1.215-0.789,2.266-1.379,3.152c0.887,0.887,1.904,1.429,3.054,1.626v0.197c-0.46,0.065-0.756,0.263-0.887,0.591
					c-0.92-0.493-1.773-1.149-2.562-1.971c-1.084,0.985-2.48,1.724-4.187,2.217l-0.099-0.148c1.675-0.689,2.972-1.543,3.892-2.562
					c-0.625-0.985-1.035-2.085-1.231-3.3l-0.542,0.148l-0.345-0.345c-0.033,1.412-0.271,2.611-0.714,3.596
					c-0.443,0.985-1.125,1.855-2.044,2.611l-0.147-0.099c0.985-1.051,1.608-2.109,1.872-3.177c0.263-1.066,0.394-2.438,0.394-4.113
					c0-0.821-0.017-1.577-0.049-2.266l0.69,0.493H135.025z M133.203,494.25v2.562h1.822v-2.562H133.203z M134.286,497.107
					c0.328,1.15,0.788,2.086,1.379,2.808c0.493-0.821,0.854-1.756,1.083-2.808H134.286z"/>
				<path fill="#1D2087" d="M140.493,502.181l-0.099-0.147c1.642-1.642,2.775-3.744,3.399-6.305h-1.527
					c-0.427,0-0.821,0.049-1.182,0.147l-0.443-0.443h3.104l0.443-0.591l0.886,0.788l-0.492,0.246
					C143.76,498.799,142.397,500.9,140.493,502.181z M145.566,491.64l1.281,0.542l-0.493,0.394
					c-0.033,0.756,0.033,1.396,0.197,1.921c0.164,0.526,0.426,1.167,0.788,1.921c1.281-1.051,2.15-1.954,2.611-2.709l0.837,0.887
					c-0.329,0.033-0.739,0.23-1.231,0.591c-0.526,0.362-1.231,0.854-2.118,1.478c1.281,2.463,2.726,3.958,4.335,4.483v0.197
					c-0.625,0.033-1.002,0.23-1.133,0.591c-2.003-1.478-3.432-3.875-4.286-7.192v6.896c0.033,0.82-0.361,1.33-1.182,1.527
					c0.032-0.46-0.477-0.821-1.527-1.083v-0.197c0.755,0.065,1.272,0.099,1.552,0.099c0.278,0,0.418-0.197,0.418-0.591v-7.931
					C145.616,492.839,145.599,492.231,145.566,491.64z"/>
				<path fill="#1D2087" d="M152.906,503.068c0.591-1.15,0.977-2.233,1.157-3.251c0.18-1.018,0.279-2.208,0.296-3.571
					c0.016-1.362-0.009-2.504-0.074-3.424l0.789,0.443h7.389l0.739-0.64l0.936,0.936h-9.063c0.032,3.12-0.124,5.271-0.468,6.453
					c-0.345,1.183-0.862,2.233-1.552,3.153L152.906,503.068z M160.098,500.408c0,1.084,0.016,1.872,0.049,2.365l-0.739,0.345
					c0.033-0.689,0.049-1.592,0.049-2.709h-2.758c-0.394,0-0.772,0.049-1.133,0.148l-0.443-0.443h4.335v-1.675h-2.216l-0.395,0.394
					l-0.542-0.591l0.295-0.197c0.361-0.657,0.706-1.412,1.035-2.266h-0.739c-0.394,0-0.772,0.049-1.133,0.148l-0.443-0.443h2.414
					c0.263-0.755,0.427-1.379,0.493-1.872l0.887,0.492c-0.131,0.066-0.378,0.526-0.739,1.379h3.744l0.689-0.591l0.887,0.887h-5.418
					c-0.295,0.756-0.64,1.544-1.034,2.365h2.216c0-0.821-0.017-1.429-0.049-1.823l1.133,0.493l-0.443,0.345v0.985h1.33l0.689-0.641
					l0.936,0.936h-2.956v1.675h2.364l0.69-0.689l0.985,0.985H160.098z M158.127,491.541c0.624,0.197,1.035,0.378,1.232,0.542
					c0.197,0.165,0.287,0.337,0.271,0.517c-0.017,0.181-0.074,0.329-0.172,0.443c-0.098,0.116-0.181,0.172-0.246,0.172
					c-0.066,0-0.148-0.098-0.247-0.295c-0.131-0.295-0.427-0.706-0.886-1.231L158.127,491.541z"/>
			</g>
		</g>
	</g>
</g>
<g>
	<g>
		<polygon fill="#E50012" stroke="#E62921" stroke-width="1.7125" points="442.605,679.631 447.495,694.641 463.28,694.641 
			450.504,703.926 455.388,718.954 442.605,709.672 429.831,718.954 434.709,703.926 421.933,694.641 437.729,694.641 		"/>
	</g>
	<g>
		<g>
			<path fill="#DC4422" d="M238.93,576.331h221.652c7.574,0,13.707,5.879,13.707,13.132v52.554c0,7.252-6.133,13.14-13.707,13.14
				H442.47l-17.301,28.368l-16.193-28.368H238.93c-7.575,0-13.707-5.888-13.707-13.14v-52.554
				C225.224,582.21,231.355,576.331,238.93,576.331z"/>
			<path fill="#E66E43" d="M241.633,579.555h215.576c7.364,0,13.338,5.333,13.338,11.91v47.644c0,6.579-5.974,11.909-13.338,11.909
				h-17.612l-14.349,26.369l-15.007-26.369H241.633c-7.359,0-13.332-5.33-13.332-11.909v-47.644
				C228.301,584.888,234.273,579.555,241.633,579.555z"/>
		</g>
		<g>
			<path fill="#FFFFFF" d="M251.349,608.076l-4.391,4.413c-1.028-1.014-2.242-1.842-3.641-2.485
				c6.097-4.555,10.031-9.56,11.802-15.015l4.091,2.078c0.6,0.3,0.892,0.622,0.878,0.964c-0.043,0.329-0.379,0.571-1.007,0.729
				c-0.543,0.043-1.057,0.5-1.542,1.371c-0.886,1.4-1.635,2.514-2.249,3.342v12.059c-0.015,0.1,0.071,1.042,0.257,2.827
				c0.043,0.457,0.078,0.814,0.107,1.071h-4.648c0.2-1.685,0.314-2.984,0.343-3.898V608.076z M249.079,621.763h12.766v-0.664
				c-0.015-0.728-0.122-2.235-0.321-4.52l4.434,0.579c0.7,0.085,1.085,0.253,1.157,0.503c0.071,0.25-0.165,0.604-0.707,1.061
				c-0.357,0.286-0.535,1.035-0.535,2.249v0.792h12.637c0.471,0.014,1.885-0.107,4.241-0.364v4.048
				c-0.171-0.014-0.429-0.036-0.771-0.064c-1.971-0.185-3.127-0.271-3.47-0.257h-12.637v4.605c0.042,1.485,0.157,3.17,0.343,5.055
				h-4.734c0.186-1.471,0.307-3.156,0.364-5.055v-4.605h-12.873c-0.286,0-1.079,0.064-2.377,0.193
				c-0.872,0.085-1.507,0.143-1.907,0.171v-4.091C247.129,621.642,248.593,621.763,249.079,621.763z M263.944,605.656v-5.483
				c0-0.471-0.122-2.021-0.364-4.648l4.22,0.514c0.771,0.1,1.181,0.225,1.231,0.375c0.05,0.15,0.075,0.254,0.075,0.311
				c0,0.271-0.257,0.628-0.771,1.071c-0.314,0.2-0.464,1.092-0.45,2.677v3.299c3.713-1.871,6.726-3.891,9.039-6.062l2.763,3.042
				c0.399,0.443,0.6,0.779,0.6,1.007c0,0.086-0.029,0.157-0.085,0.214c-0.186,0.243-0.807,0.386-1.864,0.428
				c-0.485,0.029-1.392,0.443-2.72,1.243c-1.542,0.957-4.12,2.342-7.732,4.155v4.262c-0.043,0.786,0.221,1.278,0.792,1.478
				c0.5,0.243,1.771,0.378,3.813,0.407c2.013,0.058,3.348-0.064,4.005-0.364c0.714-0.286,1.149-0.907,1.307-1.864
				c0.128-0.728,0.2-1.785,0.214-3.17c1.813,0.857,3.456,1.457,4.927,1.799l-0.321,0.964c-0.058,0.171-0.129,0.414-0.214,0.728
				c-0.2,0.7-0.378,1.25-0.536,1.649c-0.828,2.685-3.47,3.984-7.925,3.898c-2.585-0.014-4.534-0.086-5.848-0.214
				c-2.713-0.399-4.099-1.763-4.155-4.091v-4.027c-1.743,0.714-3.47,1.371-5.184,1.97c-0.985-1.228-2.106-2.356-3.363-3.384
				C258.182,607.398,261.031,606.67,263.944,605.656z"/>
			<path fill="#FFFFFF" d="M320.169,600.515h-7.454v6.854h4.777c2.185-0.028,4.148-0.178,5.89-0.45
				c-0.214,1.414-0.329,3.377-0.343,5.891v14.908c0.028,2.713,0.157,4.805,0.386,6.276h-4.734c0.229-1.728,0.343-3.056,0.343-3.984
				v-0.236h-24.075v0.278c0,1.399,0.128,2.756,0.385,4.07h-4.733c0.228-1.485,0.356-3.427,0.385-5.826V612.81
				c-0.014-2.399-0.143-4.362-0.385-5.891c1.842,0.286,3.798,0.436,5.869,0.45h4.391v-6.854h-7.497c-2.113,0-3.927,0.136-5.44,0.407
				v-4.177c1.571,0.243,3.384,0.379,5.44,0.407h26.796c2.084-0.043,3.898-0.178,5.44-0.407v4.22
				C324.053,600.694,322.24,600.544,320.169,600.515z M294.959,626.454h24.075v-15.808h-6.319v6.897
				c0.014,0.657,0.35,0.993,1.007,1.007c1.356-0.014,2.97-0.207,4.841-0.579c-0.486,1.314-0.792,2.735-0.921,4.263
				c-0.257,0.014-0.65,0.036-1.178,0.064c-0.899,0.042-1.521,0.064-1.863,0.064c-2.514,0.015-4.12-0.25-4.82-0.792
				c-0.385-0.271-0.65-0.664-0.792-1.178c-0.143-0.457-0.214-1.185-0.214-2.185v-7.561h-3.941c0.157,4.941-1.307,8.996-4.391,12.166
				c-1.314-0.899-2.985-1.635-5.012-2.206c3.541-1.756,5.354-5.076,5.44-9.96h-5.912V626.454z M304.833,600.515v6.854h3.941v-6.854
				H304.833z"/>
			<path fill="#FFFFFF" d="M340.454,614.652c-1.385,3.441-3.392,6.733-6.019,9.875c-1.042-1.171-2.199-2.078-3.47-2.72
				c2.984-2.556,5.105-6.333,6.362-11.331l4.177,1.628c0.471,0.186,0.692,0.428,0.664,0.728c-0.057,0.3-0.357,0.6-0.9,0.9
				C340.896,613.931,340.625,614.238,340.454,614.652z M332.165,632.73v-1.007c5.555-2.313,9.303-5.326,11.245-9.039
				c2.07-3.57,3.113-9.246,3.127-17.028h-5.869c-1.257,0.014-2.899,0.143-4.926,0.386v-3.984c1.828,0.257,3.47,0.386,4.926,0.386
				h5.869c0-2.713-0.1-5.355-0.3-7.925l4.519,0.664c0.643,0.086,1.007,0.293,1.093,0.621c0.057,0.343-0.193,0.714-0.75,1.114
				c-0.3,0.257-0.45,0.786-0.45,1.585c-0.014,0.814-0.036,2.128-0.064,3.941h7.839c0.571,0.029,2.134-0.1,4.69-0.386
				c-0.313,2.271-0.471,3.97-0.471,5.098v5.205l2.592-1.521c2.77,4.169,4.891,7.675,6.361,10.517l-4.048,2.292
				c-1.257-3.499-2.906-6.647-4.948-9.446c0,3.77-0.058,7.761-0.172,11.973c-0.014,3.185-0.663,5.198-1.949,6.041
				c-1.1,1-3.949,1.706-8.546,2.121c-0.243-1.371-1-3.078-2.271-5.119c2.984,0.428,4.983,0.643,5.998,0.643
				c1.085,0.014,1.799-0.243,2.142-0.771c0.356-0.428,0.564-1.457,0.621-3.084c0.128-2.299,0.214-5.02,0.257-8.161
				c0.028-1.499,0.043-3.191,0.043-5.076c0.014-1.614,0.021-3.984,0.021-7.111h-8.204c-0.086,8.197-1.15,14.166-3.191,17.907
				c-1.928,4.013-5.912,7.975-11.952,11.888C334.399,634.093,333.321,633.187,332.165,632.73z"/>
			<path fill="#FFFFFF" d="M375.281,621.892v-3.92c1.356,0.186,3.106,0.321,5.248,0.407h12.423v-1.842h-9.21
				c-1.842,0.058-3.478,0.158-4.905,0.3v-3.77c1.385,0.171,3.021,0.286,4.905,0.343h9.21v-1.735h-7.282
				c-0.957,0.014-2.592,0.128-4.905,0.342c0.215-2.013,0.328-3.355,0.343-4.027v-0.921c0-0.471-0.114-1.792-0.343-3.962
				c2.228,0.2,3.863,0.321,4.905,0.364h7.282V601.8h-12.895c-1.057,0.029-2.634,0.128-4.733,0.3v-3.855
				c1.699,0.186,3.277,0.3,4.733,0.343h12.895v-0.386c-0.014-0.557-0.128-1.892-0.343-4.005l4.198,0.493
				c0.743,0.086,1.164,0.271,1.265,0.557c0.014,0.042,0.021,0.093,0.021,0.15c0,0.286-0.235,0.621-0.706,1.007
				c-0.372,0.214-0.55,0.842-0.536,1.885v0.3h12.509c0.957-0.028,2.535-0.143,4.734-0.343v3.855c-2.456-0.186-4.034-0.286-4.734-0.3
				h-12.509v1.671h7.283c0.985-0.029,2.627-0.15,4.926-0.364c-0.2,1.657-0.321,3.006-0.364,4.048v0.878
				c0.029,1,0.15,2.342,0.364,4.027c-1.856-0.214-3.498-0.343-4.926-0.385h-7.283v1.735h7.904c1.956-0.057,3.741-0.157,5.354-0.3
				c-0.2,1.728-0.321,3.191-0.364,4.391v0.878h0.536c0.585,0,2.077-0.114,4.477-0.343v3.855c-2.242-0.228-3.734-0.35-4.477-0.364
				h-0.536v2.292c0.057,1.242,0.179,2.763,0.364,4.563h-4.434c0.114-1.028,0.171-1.642,0.171-1.842h-8.996v4.155
				c0.071,1.813-0.406,2.956-1.435,3.427c-0.871,0.557-3.228,0.971-7.068,1.242c-0.229-1.342-0.857-2.913-1.885-4.712
				c0.3,0.028,0.728,0.078,1.285,0.15c1.999,0.243,3.22,0.356,3.662,0.343c1.128,0.071,1.643-0.415,1.542-1.457v-3.149h-9.296
				c-1.656,0.043-3.263,0.143-4.819,0.3v-3.77c1.871,0.186,3.478,0.3,4.819,0.343h9.296v-1.885h-12.423
				C378.802,621.57,377.052,621.692,375.281,621.892z M392.952,606.577h-8.117v1.971h8.117V606.577z M404.969,606.577h-8.118v1.971
				h8.118V606.577z M396.851,616.537v1.842h8.996v-1.842H396.851z M405.847,623.413v-1.885h-8.996v1.885H405.847z"/>
			<path fill="#FFFFFF" d="M457.168,633.779c-1.214,0.028-2.335,0.043-3.362,0.043c-5.627,0-9.96-0.378-13.002-1.135
				c-3.599-0.814-6.64-2.485-9.125-5.012c-0.042-0.043-0.114-0.107-0.214-0.193c-0.1-0.085-0.171-0.15-0.214-0.192
				c-2.128,2.813-5.155,5.469-9.082,7.968c-0.886-1.357-2.171-2.492-3.855-3.406c4.27-1.385,7.732-4.048,10.389-7.989
				c-1.528-2.527-2.771-5.733-3.728-9.617c-0.843,1.585-1.749,3.156-2.72,4.712c-1.4-0.656-2.978-1.071-4.734-1.242
				c5.398-6.283,8.439-13.68,9.125-22.19l4.648,1.092c0.585,0.143,0.899,0.357,0.942,0.643c0.043,0.286-0.2,0.586-0.729,0.9
				c-0.429,0.243-0.729,0.721-0.899,1.435c-0.186,0.728-0.493,1.807-0.921,3.234c-0.043,0.186-0.079,0.321-0.107,0.407h5.27
				c1.056-0.014,2.477-0.114,4.262-0.3c-1.128,9.339-3.02,16.329-5.676,20.97c0.043,0.1,0.143,0.221,0.3,0.364
				c0.028,0.029,0.05,0.05,0.064,0.064c3.127,3.427,8.624,5.212,16.493,5.355c2.655,0,5.604-0.293,8.846-0.878
				C458.168,630.566,457.511,632.223,457.168,633.779z M428.444,606.534c-0.757,2.099-1.777,4.441-3.063,7.025
				c0.971-0.243,2.135-0.742,3.491-1.5c0.214,2.813,0.907,5.434,2.078,7.861c1.799-3.969,2.935-8.432,3.405-13.387H428.444z
				 M446.651,626.711h-4.648c0.186-2.242,0.286-3.877,0.3-4.905v-22.083c-0.028-1.285-0.128-2.963-0.3-5.034l4.648,0.707
				c0.6,0.085,0.917,0.286,0.953,0.6c0.035,0.314-0.211,0.686-0.739,1.114c-0.399,0.271-0.593,1.143-0.578,2.613v6.812
				c3.713,2.142,7.519,4.762,11.417,7.861l-2.292,3.813c-2.956-2.713-5.998-5.098-9.125-7.154v10.753
				C446.301,622.749,446.423,624.384,446.651,626.711z"/>
		</g>
	</g>
</g>
<g opacity="0">
	<text transform="matrix(1 0 0 1 491.8232 600.3477)" fill="#040000" font-family="'ArialMT'" font-size="15">0</text>
	<rect x="222.85" y="565.67" fill="none" stroke="#040000" stroke-width="1.3498" width="288.152" height="157.814"/>
</g>
<g>
	<g opacity="0">
		<text transform="matrix(1 0 0 1 269.8237 711.4492)" fill="#040000" font-family="'ArialMT'" font-size="15">2</text>
		<g>
			<rect x="134.332" y="683.524" fill="none" stroke="#040000" stroke-width="0.7613" width="148.611" height="97.348"/>
		</g>
	</g>
	<g>
		<rect x="168.893" y="741.38" fill="#009FE8" width="84.77" height="35.305"/>
		<g>
			<g>
				<path fill="#0B308E" d="M186.314,761.699c-0.801,2.171-1.502,3.791-2.104,4.858c-0.668-0.534-1.37-0.867-2.104-1.002
					c1.135-2.003,2.036-3.989,2.705-5.96c0.667-1.969,1.102-3.422,1.302-4.357c0.801,0.4,1.568,0.636,2.304,0.701
					C187.816,757.609,187.115,759.53,186.314,761.699z M194.027,752.734v16.127c0,1.268-0.335,2.069-1.002,2.404
					c-0.668,0.333-1.803,0.566-3.406,0.701c-0.135-0.802-0.435-1.57-0.901-2.304c1.468,0,2.387-0.035,2.754-0.101
					c0.366-0.065,0.551-0.467,0.551-1.202v-15.626c0-1.202-0.035-2.471-0.101-3.807h2.204
					C194.06,749.863,194.027,751.131,194.027,752.734z M203.644,764.955c-0.668,0.134-1.337,0.435-2.003,0.901
					c-1.002-2.871-2.539-6.076-4.608-9.616c0.534-0.267,1.135-0.634,1.803-1.103C201.505,759.946,203.108,763.219,203.644,764.955z"
					/>
				<path fill="#0B308E" d="M211.757,749.128c-0.067,1.47-0.1,2.604-0.1,3.405v3.206c0.934,0,1.969-0.033,3.105-0.101v1.804
					c-1.136-0.066-2.171-0.101-3.105-0.101v7.313c1.001-0.267,2.069-0.602,3.205-1.002v1.703c-1.336,0.335-2.554,0.701-3.656,1.102
					c-1.102,0.401-2.289,0.901-3.556,1.503c-0.268-0.667-0.601-1.303-1.002-1.903c0.867-0.2,1.969-0.501,3.306-0.901v-7.813
					c-1.136,0-2.138,0.034-3.005,0.101v-1.804c0.801,0.067,1.769,0.101,2.905,0.101v-3.105c0-0.802-0.034-1.969-0.1-3.506H211.757z
					 M214.562,767.309c0.601-1.102,1.052-2.354,1.353-3.756c0.3-1.402,0.451-3.306,0.451-5.71s-0.035-4.207-0.1-5.409h5.409
					c0-1.736-0.035-3.005-0.101-3.807h2.104c-0.067,0.802-0.101,2.07-0.101,3.807h6.01c-0.468,1.87-0.801,3.306-1.001,4.308
					c-0.736-0.134-1.437-0.233-2.104-0.301c0.266-0.802,0.5-1.603,0.701-2.404h-3.606v4.407h4.408
					c-0.401,2.004-0.836,3.69-1.302,5.059c-0.468,1.37-1.169,2.654-2.104,3.856c0.867,0.802,1.769,1.402,2.705,1.804
					c0.934,0.4,1.969,0.701,3.105,0.901c-0.668,0.601-1.202,1.234-1.603,1.903c-0.869-0.335-1.72-0.719-2.554-1.152
					c-0.836-0.435-1.788-1.151-2.855-2.153c-0.468,0.4-1.152,0.886-2.053,1.452c-0.902,0.566-2.054,1.185-3.456,1.854
					c-0.468-0.602-1.002-1.137-1.603-1.603c1.402-0.401,2.587-0.885,3.556-1.453c0.967-0.566,1.719-1.084,2.254-1.553
					c-1.603-1.803-2.571-4.239-2.905-7.313h-0.901c-0.135,3.006-0.619,5.394-1.453,7.163c-0.836,1.77-1.753,3.255-2.755,4.457
					c-0.468-0.668-1.069-1.102-1.803-1.302C213.192,769.43,213.961,768.41,214.562,767.309z M221.674,758.443v-4.407h-3.306v4.407
					H221.674z M221.173,760.046c0.266,2.539,1.035,4.543,2.304,6.011c0.534-0.802,0.984-1.686,1.353-2.654
					c0.366-0.968,0.617-2.087,0.751-3.356H221.173z"/>
			</g>
		</g>
		<circle fill="#FFFFFF" stroke="#E50012" stroke-width="2.1404" cx="213.634" cy="727.032" r="9.787"/>
		<polygon fill="#E50012" points="237.085,702.061 213.297,692.605 213.297,692.162 211.042,692.162 211.042,730.737 
			213.297,730.737 213.297,712.46 		"/>
	</g>
</g>
<g>
	<g opacity="0">
		<text transform="matrix(1 0 0 1 395.0195 742.0078)" fill="#040000" font-family="'ArialMT'" font-size="15">1</text>
		<g>
			<rect x="291.149" y="717.96" fill="none" stroke="#040000" stroke-width="0.6846" width="122.668" height="95.361"/>
		</g>
	</g>
	<g>
		<rect x="311.77" y="775.057" fill="#FFF000" width="81.427" height="33.916"/>
		<g>
			<g>
				<path fill="#231815" d="M329.137,798.047c-1.25,0.546-2.261,1.044-3.031,1.492c-0.192-0.641-0.546-1.348-1.058-2.117
					c0.77-0.063,1.732-0.32,2.886-0.77v-7.794c-1.091,0-1.989,0.033-2.694,0.097v-1.732c0.77,0.064,1.667,0.097,2.694,0.097v-2.983
					c0-0.897-0.033-1.795-0.096-2.693h2.021c-0.064,0.962-0.096,1.828-0.096,2.598v3.079c1.025,0,1.892-0.032,2.598-0.097v1.732
					c-0.834-0.063-1.701-0.097-2.598-0.097v7.313c0.833-0.32,1.603-0.608,2.31-0.866c-0.065,0.515-0.065,1.059,0,1.636
					C331.365,797.133,330.388,797.503,329.137,798.047z M339.673,795.69v-1.732c-1.219,0-2.309,0.033-3.271,0.097v-1.732
					c0.962,0.064,2.052,0.097,3.271,0.097v-1.348h-4.522c-0.129,3.079-0.385,5.405-0.77,6.976c-0.385,1.573-1.155,3.287-2.309,5.148
					c-0.578-0.515-1.284-0.835-2.117-0.963c1.025-1.091,1.795-2.341,2.31-3.752c0.513-1.41,0.833-2.95,0.962-4.618
					c0.128-1.668,0.192-3.271,0.192-4.812v-5.677h6.062c-0.192-0.705-0.481-1.507-0.866-2.405c0.641-0.128,1.251-0.289,1.828-0.481
					c0.513,1.22,0.866,2.182,1.059,2.887h2.983c0.962,0,1.828-0.031,2.598-0.097v1.732c-0.77-0.063-1.636-0.097-2.598-0.097h-3.079
					v1.636h4.33c-0.064,0.835-0.096,1.828-0.096,2.983c0.448,0,1.09-0.032,1.925-0.097v1.732c-0.834-0.063-1.477-0.097-1.925-0.097
					c0,1.027,0.032,1.989,0.096,2.887h-4.33v1.732h4.619c-0.065,1.026-0.096,2.085-0.096,3.175c0,1.026,0.031,2.276,0.096,3.753
					h-1.54v-1.732h-6.735v1.925h-1.732c0.063-1.22,0.096-2.406,0.096-3.561c0-1.218-0.033-2.405-0.096-3.56H339.673z
					 M339.673,789.532v-1.54c-1.091,0-2.117,0.033-3.079,0.097v-1.636c0.962,0.064,1.988,0.096,3.079,0.096v-1.636h-4.426v4.619
					H339.673z M344.484,799.442v-2.31h-6.735v2.31H344.484z M344.003,789.532v-1.54h-2.598v1.54H344.003z M344.003,792.419v-1.348
					h-2.598v1.348H344.003z"/>
				<path fill="#231815" d="M365.508,783.855c-0.418,0.77-0.786,1.476-1.106,2.116h2.117c1.347,0,2.533-0.031,3.56-0.096v1.828
					c-0.834-0.063-1.924-0.097-3.271-0.097h-5.003v4.812h6.062c1.282,0,2.438-0.032,3.464-0.097v1.828
					c-1.026-0.063-2.117-0.096-3.271-0.096h-5.869c1.924,3.271,5.131,5.388,9.622,6.35c-0.578,0.641-1.092,1.41-1.54,2.31
					c-4.041-1.347-7.089-3.688-9.141-7.023c-1.091,2.823-4.106,5.259-9.044,7.313c-0.257-0.643-0.738-1.22-1.443-1.732
					c4.939-1.347,7.986-3.752,9.141-7.216h-5.1c-1.476,0-2.694,0.032-3.656,0.096v-1.731c0.705,0.064,1.795,0.096,3.271,0.096h5.677
					v-4.907h-4.522c-1.219,0-2.309,0.033-3.271,0.097v-1.828c0.962,0.064,2.083,0.096,3.368,0.096h6.927
					c0.898-2.052,1.54-3.752,1.925-5.1c0.641,0.385,1.41,0.771,2.31,1.155C366.326,782.477,365.925,783.085,365.508,783.855z
					 M359.494,784.625c-0.77,0.385-1.38,0.77-1.828,1.154c-0.77-1.475-1.54-2.694-2.309-3.656c0.577-0.385,1.09-0.77,1.54-1.154
					C357.729,781.995,358.595,783.215,359.494,784.625z"/>
			</g>
		</g>
		<path fill="#FFFFFF" stroke="#E50012" stroke-width="2.056" d="M369.812,759.94c0,5.197-4.209,9.406-9.398,9.406
			c-5.192,0-9.399-4.209-9.399-9.406c0-5.187,4.208-9.396,9.399-9.396C365.603,750.545,369.812,754.754,369.812,759.94z"/>
		<polygon fill="#E50012" points="384.313,732.993 361.462,723.91 361.462,723.484 359.296,723.484 359.296,760.532 
			361.462,760.532 361.462,742.979 		"/>
	</g>
</g>

</svg>