<svg version="1.0" id="图层_1" xmlns="http://www.w3.org/2000/svg" xmlns:xlink="http://www.w3.org/1999/xlink" x="0px" y="0px" 
	width="100%" height="100%" viewBox="0 0 720 1280" xml:space="preserve"
  style="position: relative;display: block;"
  >
<g>
	<path opacity="0.6" fill="#FFFFFF" stroke="#00A0E9" stroke-width="6.4403" d="M405.885,176.022l-24.566-16.417
		c0,0-5.779,0-18.309-7.725c-12.521-7.725-23.121-3.863-26.976-9.653c-3.854-5.796-22.158-13.521-22.158-13.521h-24.093
		c0,0-13.485,19.312-15.415,25.108c-1.927,5.792,1.929,11.585,0,16.416c-1.927,4.826-5.781,11.59-10.597,14.483
		c-4.816,2.9-16.379,12.555-19.269,15.449c-2.892,2.899-18.305,7.725-18.305,7.725h-15.42h-20.233l-3.926-1.77h-14.38l-13.489-7.886
		h-13.489c0,0-8.672,3.055-11.561,3.942c-2.894,0.889-19.269,0-19.269,0l-17.343,3.944c0,0-11.562,7.564-12.527,11.428
		c-0.962,3.865-10.597,31.864-12.523,34.765c-1.93,2.895-2.891,6.938-2.891,13.607c0,6.67-0.67,11.5-7.562,14.395
		c-6.893,2.897-14.6,5.794-19.418,9.655c-4.817,3.863-5.781,9.066-8.67,13.708c-2.889,4.641-8.672,10.434-11.563,20.091
		c-2.891,9.655,2.89,14.481,0,23.174c-2.891,8.691-1.668,28.005-0.833,30.901c0.833,2.896-0.984,13.519-0.984,13.519
		s-4.927,11.588-5.889,14.486c-0.966,2.898,0,0-7.709,10.619l2.892,5.798l12.523,21.244c0,0,17.342,10.62,21.197,13.518
		c3.854,2.897,18.455,9.656,18.455,9.656s8.522,9.655,10.453,12.552c1.926,2.897,15.414,17.382,18.305,19.316
		c2.892,1.932,8.67,6.759,23.124,12.553c14.451,5.793,23.122,0,26.982,0c3.849,0,30.826,6.758,30.826,6.758
		s10.603,2.897,15.344,8.691c4.75,5.795,8.746,11.589,10.673,12.771c1.927,1.186,1.927,20.062,1.927,20.062s0,13.519-0.964,20.28
		c-0.962,6.758-3.853,14.483-4.819,20.277c-0.96,5.793-0.96,6.757,0,16.416c0.966,9.655,0.966,5.794,6.745,19.313
		c5.781,13.518,7.708,4.827,13.489,6.761c5.781,1.928,25.052,12.556,28.906,13.517c3.853,0.966,8.263,0,8.263,0l11.971,5.793
		c0,0,0,5.794,0,12.556c0,6.757,5.779,9.655,5.779,9.655l18.312,6.758c0,0,49.134,7.728,52.025,7.728
		c2.889,0,32.758,7.725,32.758,7.725v5.794v5.792c0,0-8.673,22.213-9.633,26.071c-0.966,3.865-1.928,8.693-4.017,16.422
		c-2.088,7.725-2.729,19.311,0,22.207c2.73,2.895-4.658,25.107-4.658,25.107s0,33.8,0,44.419c0,10.624-4.814,23.177-7.708,26.072
		c-2.891,2.896,0,14.484,0,14.484l13.006,10.621l-4.335,14.489l-8.671,14.483l4.82,15.448l4.493,12.551l3.855,2.257l6.423,2.893
		l8.992,9.341l0.965,5.791c0,0-3.214,4.505-3.858,6.758c-0.639,2.256,3.858,3.864,3.858,3.864l19.591-2.255
		c0,0,0.318,1.931,0.318,2.895c0,0.966,1.609,8.373,2.252,11.591c0.64,3.216,8.352,13.517,8.352,13.517s5.779,2.575,6.743,2.575
		c0.965,0,3.53,0.648,4.494,1.933c0.962,1.286,0.644,2.896-0.964,5.799c-1.605,2.891-13.808,13.194-13.808,13.194
		s-1.285,5.472-1.285,6.438c0,0.962,4.494,2.255,4.494,2.255s4.176-1.934,5.781-4.188c1.606-2.252,4.817-7.083,9.313-10.619
		c4.496-3.543,9.96-1.291,9.96-1.291l9.309,2.574c16.063,2.255,21.522-4.826,23.448-7.721c1.929-2.898,1.929-7.082,2.569-9.337
		c0.643-2.249,4.175,0,5.138,0c0.964,0,6.746,3.543,6.746,3.543s4.816,0.641,6.421,0c1.605-0.647,3.857-4.187,3.857-4.187
		s4.496-1.607,5.46-2.895c0.962-1.293,4.817,0,4.817,0s2.566-1.287,2.889-4.212c0.322-2.923-2.889-2.554-3.533-4.802
		c-0.644-2.255-1.604-4.512-1.604-6.44c0-1.932,6.742-1.606,7.71-1.606c0.965,0,4.171,1.606,7.707,1.606
		c3.529,0,3.529-7.08,4.814-9.656c1.283-2.575,4.178-5.797,7.068-5.797c2.889,0,4.173,2.256,6.102,4.508
		c1.925,2.252-0.322,6.438-0.322,9.014c0,2.573,2.891,8.372,4.498,11.587c1.603,3.222,7.707,0.645,11.881,0
		c4.177-0.639,6.423-2.255,8.672-4.504c2.253-2.251-0.319-5.794-0.645-8.047c-0.32-2.256-0.959-2.256-1.927-3.217
		c-0.958-0.968-1.279-2.255,1.927-10.625c3.211-8.37,24.09-11.586,29.871-18.989c5.78-7.406,12.848-17.703,11.886-22.531
		c-0.967-4.831-11.566-8.049-15.42-7.724c-3.853,0.319-10.599,0.317-11.563,0c-0.96-0.322-2.246-3.221-5.458-6.444
		c-3.212-3.215-4.497-5.789-6.422-9.651c-1.928-3.861-6.745-6.762-7.707-6.762c-0.964,0-12.849-0.324-16.702-2.897
		c-3.852-2.575-2.891-3.539-3.852-4.824c-0.967-1.29-1.607-7.407-1.607-8.374c0-0.962,3.208-7.723,5.138-10.621
		c1.929-2.896,7.386-6.116,8.352-8.688c0.961-2.576,1.284-6.762,0.961-9.658c-0.318-2.895-10.275-5.795-11.242-6.437
		c-0.961-0.644-0.961-2.898-0.317-4.828c0.641-1.931,5.137-9.655,7.708-12.553c2.567-2.896,10.276-12.879,10.599-14.486
		c0.318-1.606,5.777-1.607,7.064-2.646c1.285-1.035,9.957,0,9.957,0s-2.89-4.756-4.174-5.401c-1.29-0.645-5.783-4.828-5.783-4.828
		s-4.82-1.931-7.064-1.931c-2.252,0-2.89,1.931-4.822,2.896c-1.925,0.965-4.168-1.288-4.168-1.288l-4.5-3.217l-2.892-3.541
		l-2.89-3.22c0,0-3.531,0-4.816,0c-1.287,0-3.854,0.967-3.854,0.967s-3.854,0-4.819-0.321c-0.962-0.324-6.422-1.288-8.35-1.288
		c-1.922,0-8.348,0.643-8.348,0.643l-9.636,2.898l-6.745,6.113l-2.568,2.58c0,0-2.571,0.321-3.532,0.321
		c-0.967,0-5.459,0.642-7.387,0.963c-1.929,0.318-3.534,0.961-3.534,0.961s0,0-1.606,1.292c-1.604,1.291-4.816,2.896-10.919,4.829
		c-6.104,1.931-15.737-1.607-18.627-1.933c-2.891-0.324-13.491-11.91-13.491-11.91c-4.813-4.507-11.558-4.182-14.132-4.182
		c-2.57,0,0.322-4.509,0.322-4.509c5.141-22.532,32.76-36.373,36.292-36.373c3.531,0,6.103,1.933,9.315,1.933
		c3.215,0,6.743,0.968,10.274,0c3.534-0.969,7.069-3.862,8.033-4.829c0.962-0.965,6.745-4.828,8.669-6.759
		c1.929-1.933,6.104-4.831,6.104-4.831s0,0,1.283-1.605c1.285-1.608,3.21-6.439,3.854-8.374c0.642-1.929,0.964-6.758,0.964-7.721
		c0-0.969,2.892-3.218,4.176-4.182c1.285-0.971,4.496-2.258,4.496-2.258s0,0,2.887-1.605c2.89-1.609,3.854,0,8.994,1.284
		c5.137,1.285,13.812,0,18.309-1.932c4.496-1.929,6.743-2.575,9.312-4.829c2.569-2.251,0.321-2.574-1.925-2.896
		c-2.252-0.325-4.176-1.607-4.176-4.506c0-2.896-1.286-5.794,0.321-8.688c1.603-2.901,1.284-9.019,2.564-12.236
		c1.287-3.219,21.203-30.258,21.203-30.258s1.282-7.721,0.643-12.872c-0.643-5.152,6.099-13.523,7.383-18.992
		c1.287-5.471,4.817-16.414,12.205-26.073c7.389-9.655,20.555-26.718,20.555-26.718c7.064-8.367,8.029-18.341,7.707-22.849
		c-0.32-4.509,0.964-17.061,0.964-24.142c0-7.083,2.246-12.876,2.89-18.67c0.646-5.794,6.746-23.499,7.065-27.038
		c0.323-3.541-1.925-4.186-3.209-7.405c-1.283-3.217-0.324-9.655-0.324-13.197c0-3.54,4.497-11.583,4.497-11.583
		c4.499-19.958,22.48-41.85,22.48-41.85c10.6-12.875,24.732-7.722,26.015-7.722c1.283,0,7.708-1.933,7.708-1.933
		s2.892-4.185,3.535-5.15c0.646-0.967,2.569-6.438,2.569-6.438l6.421,4.191c0,0,0,0,2.252,0c2.249,0,3.85,2.894,4.815,3.86
		c0.965,0.964,8.674-0.326,8.674-0.326s0,0,2.243,0c2.253,0,6.104-1.287,9.315-4.505c3.215-3.217,2.568-5.475,2.568-9.013
		c0-3.542-3.533-6.115-5.458-7.402c-1.927-1.286-2.569,0.32-6.103,2.896c-3.534,2.577-7.387,4.506-9.638,4.506
		c-2.246,0-3.852-3.216-3.852-3.216s0-1.932,0.32-2.898c0.323-0.963,1.929-4.184,2.25-5.472c0.315-1.29,2.889-5.796,2.889-8.692
		c0-2.897-1.607-3.54-5.139-3.863c-3.53-0.321-4.814-1.287-5.139-2.247c-0.319-0.97-5.778-4.513-5.778-4.513s-2.891,0-3.855,0
		s-2.246-1.286-2.892-2.254c-0.643-0.967-0.963-4.502-2.888-4.502c-1.93,0-6.103-4.506-6.103-5.474c0-0.968-0.964-5.474-0.964-6.436
		c0-0.97-1.929-4.184-4.179-6.438c-2.243-2.254-3.209-1.289-5.137-1.93c-1.929-0.645-4.494-1.292-5.456-1.934
		c-0.965-0.642-3.535-1.291-3.535-1.291s-2.567-2.251-3.534-4.503c-0.961-2.251-1.604-6.112-1.604-6.112s-2.249-3.863-3.854-4.828
		c-1.604-0.967-1.609-1.612-4.177-2.897c-2.567-1.291-1.924-3.222-2.89-4.185c-0.963-0.967-1.286-3.864-1.286-5.474
		c0-1.608,1.608-7.403,2.571-9.333c0.963-1.934,4.172-6.759,4.172-6.759s1.93-4.188,1.93-5.473c0-1.29-0.643-3.22-3.211-6.117
		c-2.57-2.9-6.744-4.506-11.562-3.868c-4.815,0.649-22.323,15.615-25.213,12.879c-2.887-2.735-6.423-4.185-9.955-4.185
		c-3.53,0-6.102,6.116-10.598,13.359c-4.493,7.243-3.049,6.435-6.101,3.057c-3.053-3.379-7.064-8.691-7.064-10.945
		c0-2.251,0.641-13.357-2.889-19.147c-3.536-5.797-12.051,5.791-12.532-0.966c-0.48-6.761-7.704-12.07-7.704-12.07
		c-2.409-4.668-14.614-9.499-26.334-8.532c-11.726,0.966-39.987,24.305-39.987,24.305c6.907,21.725-12.204,23.978-12.204,23.978
		c-4.175,1.609-7.869-1.933-10.919-3.864c-3.048-1.93-1.288-5.953-1.928-8.735c-0.644-2.784-7.389-0.599-7.389-0.599
		c-8.348,2.576-12.847-4.023-12.847-4.023c-2.888-6.118-14.775-11.585-15.737-11.569c-0.964,0.017-5.779-0.339-8.032-0.017
		c-2.249,0.32-5.458-3.542-8.671-5.153c-3.211-1.607-3.532-7.403-3.532-7.403c22.802-1.928,23.127-19.309,26.018-22.531
		c2.858-3.183,7.285-14.859,7.376-15.104l-3.2-5.172L405.885,176.022z"/>
	
		<text transform="matrix(1 0 0 1 511.2871 607.7739)" opacity="0" fill="#040000" enable-background="new    " font-family="'SimHei'" font-size="20">轮廓</text>
</g>
<path fill="none" stroke="#E72922" stroke-width="7.0905" d="M79.667,251.813"/>
<g>
</g>
<g>
	<g>
		<g>
			<polygon fill="#E60012" stroke="#E72922" stroke-width="1.2606" points="399.513,431.229 403.108,442.285 414.732,442.285 
				405.328,449.119 408.919,460.184 399.513,453.35 390.109,460.184 393.699,449.119 384.294,442.285 395.918,442.285 			"/>
		</g>
		<g>
			<g>
				<path fill="#2C566E" d="M532.994,355.41H387.245c-4.978,0-9.011,4.33-9.011,9.667v38.689c0,5.338,4.033,9.668,9.011,9.668
					h11.914l11.373,20.887l10.649-20.887h111.813c4.978,0,9.017-4.33,9.017-9.668v-38.689
					C542.011,359.74,537.972,355.41,532.994,355.41z"/>
				<path fill="#3EA3B4" d="M531.219,357.785H389.466c-4.845,0-8.771,3.924-8.771,8.768v35.074c0,4.841,3.926,8.765,8.771,8.765
					h11.587l9.43,19.411l9.867-19.411h110.869c4.84,0,8.765-3.924,8.765-8.765v-35.074
					C539.983,361.709,536.059,357.785,531.219,357.785z"/>
			</g>
			<g>
				<path fill="#FFFFFF" d="M408.227,364.976l3.488,1.15c0.817,0.243,1.221,0.492,1.208,0.748c0.013,0.243-0.391,0.582-1.208,1.016
					c-0.307,0.192-0.543,0.518-0.709,0.978c-0.115,0.32-0.243,0.69-0.384,1.112c-0.153,0.486-0.3,0.914-0.44,1.284h15.43
					c1.278,0,2.767-0.102,4.467-0.307v3.527c-1.687-0.179-3.176-0.268-4.467-0.268h-16.695c-0.855,1.917-2.172,4.639-3.948,8.166
					h6.747v-1.687c0.013-1.214-0.083-2.734-0.287-4.562l4.179,0.518c0.421,0.064,0.642,0.221,0.661,0.47
					c0.019,0.249-0.163,0.584-0.547,1.006c-0.307,0.269-0.453,0.952-0.44,2.051v2.205h7.303c0.844,0.013,2.204-0.083,4.083-0.288
					v3.546c-0.946-0.127-1.706-0.217-2.281-0.268c-0.55-0.039-1.099-0.058-1.648-0.058h-7.456v12.363
					c0.051,1.316-0.402,2.217-1.361,2.703c-0.907,0.549-2.837,0.984-5.788,1.304c-0.039-1.393-0.518-2.818-1.438-4.274
					c0.191,0.025,0.466,0.057,0.824,0.096c1.853,0.269,2.913,0.396,3.182,0.383c0.741,0.051,1.079-0.333,1.016-1.15v-11.424h-7.533
					c-0.601-0.064-1.598,0.333-2.99,1.188l-1.84-3.738c0.983-0.345,1.808-1.035,2.473-2.07c0.844-1.418,1.891-3.578,3.144-6.479
					h-5.118c-1.073-0.013-2.562,0.089-4.466,0.307v-3.565c1.674,0.205,3.163,0.307,4.466,0.307h6.479
					C407.096,369.423,407.728,367.328,408.227,364.976z M406.578,392.693c-2.096,2.39-4.805,4.798-8.128,7.226
					c-0.626-0.971-1.609-1.885-2.951-2.741c4.434-2.211,7.654-5.22,9.66-9.028l3.527,2.032c0.269,0.167,0.402,0.345,0.402,0.537
					c0,0.064-0.042,0.176-0.125,0.335c-0.083,0.16-0.425,0.329-1.025,0.508C407.594,391.652,407.14,392.029,406.578,392.693z
					 M417.6,391.236l2.473-2.779c3.373,2.275,6.734,4.971,10.082,8.089l-2.741,2.818C424.282,396.169,421.012,393.46,417.6,391.236z
					"/>
				<path fill="#FFFFFF" d="M442.09,371.819c1.941,0.166,3.239,0.256,3.891,0.268h11.003v-2.051
					c-0.052-1.329-0.16-2.818-0.326-4.466l4.159,0.594c0.563,0.077,0.869,0.259,0.92,0.546s-0.159,0.617-0.632,0.987
					c-0.218,0.141-0.352,0.377-0.403,0.709c-0.076,0.345-0.114,0.946-0.114,1.802v1.878h11.309c0.971-0.038,2.236-0.14,3.796-0.307
					v3.68c-2.083-0.217-3.349-0.332-3.796-0.345h-11.309v11.922h7.456v-5.578c-0.038-1.137-0.141-2.601-0.307-4.39l4.313,0.594
					c0.447,0.064,0.696,0.236,0.748,0.518c0.013,0.281-0.186,0.563-0.595,0.843c-0.242,0.167-0.402,0.422-0.479,0.767
					c-0.077,0.345-0.115,0.997-0.115,1.955v4.792c0.013,0.844,0.121,2.147,0.325,3.911c-1.968-0.243-3.501-0.371-4.6-0.383h-6.747
					v4.83c-0.026,1.074,0.096,1.699,0.364,1.878c0.204,0.255,0.894,0.415,2.069,0.479c0.537,0.038,1.259,0.057,2.166,0.057
					c0.972,0.013,1.898,0.006,2.779-0.019c2.274,0.013,3.648-0.364,4.121-1.131c0.588-0.639,0.876-2.434,0.863-5.386
					c1.456,1.482,2.83,2.396,4.121,2.741c-0.69,3.054-1.527,4.945-2.512,5.674c-0.855,0.856-2.754,1.31-5.692,1.361
					c-1.239,0.038-2.274,0.061-3.105,0.067s-1.693-0.003-2.588-0.029c-2.568-0.013-4.242-0.326-5.021-0.939
					c-0.818-0.511-1.208-1.668-1.169-3.47v-6.114h-7.265c-1.049,0.038-2.384,0.166-4.007,0.383c0.192-1.904,0.294-3.233,0.307-3.987
					v-5.002c-0.038-1.137-0.141-2.601-0.307-4.39l4.313,0.594c0.446,0.064,0.696,0.236,0.747,0.518
					c0.013,0.281-0.186,0.563-0.594,0.843c-0.243,0.167-0.403,0.422-0.479,0.767c-0.077,0.345-0.115,0.997-0.115,1.955v5.291h7.399
					v-11.922H445.98c-1.061,0.038-2.357,0.141-3.891,0.307V371.819z"/>
				<path fill="#FFFFFF" d="M491.325,384.93h1.879v-4.006c-0.499,0.013-1.713,0.128-3.643,0.345v-1.131
					c-1.048-0.869-2.319-1.431-3.814-1.687c3.387-2.875,5.82-7.194,7.304-12.958l3.411,1.61c0.588,0.307,0.872,0.607,0.854,0.901
					c-0.02,0.294-0.342,0.556-0.968,0.786c-0.205,0.103-0.531,0.626-0.978,1.572c-0.103,0.153-0.378,0.678-0.824,1.572h3.642
					c1.111-0.038,2.383-0.146,3.814-0.326v3.546c-1.675-0.191-2.933-0.3-3.776-0.326h-5.061c-0.779,1.303-1.431,2.352-1.955,3.144
					c0.856,0.077,1.533,0.115,2.032,0.115h4.197c1.086-0.051,2.319-0.166,3.7-0.345v3.489c-1.547-0.179-2.779-0.281-3.7-0.307
					h-0.785v4.006h1.533c1.022-0.051,2.268-0.172,3.737-0.364v3.508c-0.103-0.013-0.249-0.025-0.44-0.039
					c-1.968-0.191-3.055-0.287-3.259-0.287h-1.571v6.555c1.227-0.933,2.459-1.98,3.699-3.144c0.217,1.47,0.543,2.677,0.978,3.623
					c-3.719,2.811-6.045,4.747-6.978,5.808l-2.645-3.335c0.702-0.473,1.117-0.856,1.245-1.15c0.18-0.293,0.262-0.856,0.25-1.687
					v-6.67h-1.879c-0.435,0-1.681,0.089-3.737,0.268v-3.412C489.3,384.796,490.546,384.905,491.325,384.93z M502.52,401.491
					c-0.537-1.099-1.508-2.083-2.914-2.952c4.191-1.086,7.15-2.722,8.875-4.907h-3.182c-0.358,0-1.655,0.122-3.892,0.364v-3.546
					c1.278,0.166,2.236,0.262,2.876,0.288v-17.117h6.19v-1.61h-4.466c-0.218,0-1.01,0.064-2.377,0.192
					c-0.639,0.051-1.105,0.089-1.399,0.115v-3.565c1.393,0.179,2.652,0.294,3.776,0.345h4.466l-0.268-3.68l3.526,0.46
					c0.46,0.09,0.761,0.307,0.901,0.652c0.013,0.051,0.019,0.122,0.019,0.211c0,0.269-0.134,0.505-0.402,0.709
					c-0.179,0.153-0.269,0.703-0.269,1.648h4.945c1.112-0.051,2.364-0.166,3.758-0.345v3.565c-0.23-0.025-0.595-0.057-1.093-0.096
					c-1.56-0.141-2.447-0.211-2.665-0.211h-4.945v1.61h6.422v17.117h0.038c0.997-0.039,2.166-0.16,3.508-0.364v3.584
					c-1.993-0.217-3.163-0.326-3.508-0.326h-4.121c2.939,1.47,5.521,3.041,7.744,4.715l-2.166,2.952
					c-2.568-2.185-5.316-3.93-8.242-5.233l1.687-2.435h-5.885l2.051,1.534c0.524,0.409,0.786,0.741,0.786,0.997
					c0,0.039-0.022,0.127-0.067,0.269c-0.045,0.14-0.457,0.255-1.236,0.345c-0.281-0.025-0.881,0.275-1.802,0.901
					C507.132,399.185,504.909,400.456,502.52,401.491z M516.953,377.934v-1.572h-9.22v1.572H516.953z M507.733,382.17h9.22v-1.476
					h-9.22V382.17z M516.953,386.368v-1.438h-9.22v1.438H516.953z M507.733,389.128v1.61h9.22v-1.61H507.733z"/>
			</g>
		</g>
	</g>
	<g opacity="0">
		<text transform="matrix(1 0 0 1 446.2773 452.5093)" fill="#040000" font-family="'ArialMT'" font-size="15">0</text>
		
			<rect x="353.834" y="346.609" fill="none" stroke="#040000" stroke-width="1.3576" stroke-miterlimit="10" width="201.585" height="125.645"/>
	</g>
</g>
<g>
	<g>
		<path fill="#FFFFFF" stroke="#E60012" stroke-width="1.8138" d="M302.065,288.062c0,4.581-3.711,8.292-8.292,8.292
			c-4.581,0-8.291-3.711-8.291-8.292c0-4.575,3.71-8.293,8.291-8.293C298.354,279.769,302.065,283.486,302.065,288.062z"/>
		<rect x="304.126" y="271.918" fill="#FFF100" width="71.838" height="29.915"/>
		<g>
			<g>
				<path d="M334.303,277.479c0.849,0,1.753-0.028,2.716-0.085v1.443c-0.624-0.056-1.528-0.085-2.716-0.085h-3.82v3.48h4.838
					c-0.057,0.906-0.085,2.009-0.085,3.311v6.621c0,0.963,0.028,2.065,0.085,3.311h-1.528v-1.698H321.74v1.782h-1.613
					c0.056-1.697,0.085-2.971,0.085-3.82v-6.196c0-1.131-0.029-2.235-0.085-3.311h4.753v-3.48h-3.226
					c-1.019,0-2.122,0.029-3.311,0.085v-1.443c1.188,0.057,2.263,0.085,3.226,0.085H334.303z M333.794,292.504v-8.913h-3.311v3.311
					c-0.057,0.679,0.028,1.076,0.254,1.188c0.226,0.114,1.104,0.085,2.632-0.085c-0.114,0.624-0.199,1.218-0.255,1.783
					c-1.867,0.114-3.028,0.042-3.48-0.212c-0.454-0.254-0.651-0.834-0.594-1.74v-4.245h-2.716c-0.114,1.868-0.425,3.34-0.934,4.414
					c-0.509,1.076-1.104,1.953-1.782,2.631c-0.34-0.395-0.821-0.734-1.443-1.019c0.849-0.679,1.499-1.513,1.953-2.504
					c0.452-0.989,0.707-2.165,0.764-3.523h-3.141v8.913H333.794z M329.041,282.233v-3.48h-2.716v3.48H329.041z"/>
				<path d="M347.885,279.092c0-1.301-0.029-2.32-0.085-3.056h1.952c-0.057,0.679-0.084,1.698-0.084,3.056h7.3
					c0.396,0,1.019-0.028,1.868-0.085v1.698c-0.849-0.056-1.472-0.085-1.868-0.085h-7.3v6.366l4.583-0.17
					c0-2.093-0.029-3.621-0.085-4.583h1.868c-0.114,0.906-0.17,2.207-0.17,3.905s0.056,2.943,0.17,3.735h-1.783v-1.613l-4.583,0.17
					v4.159c0,0.736,0.509,1.074,1.528,1.019h4.499c0.622,0,1.046-0.24,1.273-0.722c0.226-0.48,0.396-1.202,0.509-2.165
					c0.565,0.454,1.216,0.793,1.953,1.019c-0.454,1.528-0.878,2.475-1.273,2.844c-0.396,0.368-1.273,0.552-2.631,0.552h-5.178
					c-1.585,0.056-2.406-0.509-2.461-1.698v-5.008l-6.027,0.339c0.056-0.622,0.085-1.698,0.085-3.226
					c0-1.583-0.029-2.716-0.085-3.396h1.867c-0.057,0.679-0.084,2.349-0.084,5.008l4.244-0.17v-6.366h-5.263
					c-1.019,0-1.982,0.029-2.886,0.085v-1.698c0.904,0.057,1.867,0.085,2.886,0.085H347.885z"/>
			</g>
		</g>
		<polygon fill="#E60012" points="314.709,264.202 294.551,256.187 294.551,255.806 292.639,255.806 292.639,288.5 294.551,288.5 
			294.551,273.012 		"/>
	</g>
	<g opacity="0">
		<text transform="matrix(1 0 0 1 339.6108 265.8423)" fill="#040000" font-family="'ArialMT'" font-size="15">2</text>
		
			<rect x="272.029" y="241.329" fill="none" stroke="#040000" stroke-width="0.7913" stroke-miterlimit="10" width="112.265" height="76.647"/>
	</g>
</g>
<g>
	<g>
		<path fill="#FFFFFF" stroke="#E60012" stroke-width="1.6017" d="M607.771,370.284c0,4.044-3.278,7.327-7.322,7.327
			s-7.323-3.282-7.323-7.327c0-4.04,3.279-7.32,7.323-7.32S607.771,366.244,607.771,370.284z"/>
		<rect x="568.732" y="379.913" fill="#E60012" width="63.434" height="26.418"/>
		<g>
			<g>
				<path fill="#FFFFFF" d="M590.634,384.938c-0.15,1.45-0.326,2.762-0.524,3.936c-0.2,1.175-0.551,2.486-1.05,3.935
					c1.449,1.75,2.398,2.999,2.849,3.748c-0.4,0.25-0.825,0.575-1.274,0.974c-0.7-1.099-1.45-2.148-2.249-3.148
					c-0.5,1.049-1.037,2.012-1.611,2.886c-0.575,0.875-1.362,1.812-2.361,2.811c-0.3-0.401-0.749-0.701-1.349-0.899
					c0.999-0.849,1.836-1.736,2.511-2.661c0.675-0.924,1.236-1.986,1.687-3.186c-0.7-0.949-1.899-2.298-3.598-4.048
					c0.399-0.349,0.749-0.699,1.049-1.049c1.35,1.399,2.398,2.574,3.148,3.523c0.249-0.6,0.475-1.374,0.675-2.324
					c0.199-0.949,0.324-1.998,0.375-3.148h-2.699c-1.1,0-2.023,0.025-2.773,0.075v-1.499c0.799,0.05,1.698,0.075,2.699,0.075
					H590.634z M599.029,384.788c-0.351,2.749-0.775,4.998-1.274,6.746c-0.5,1.75-1.125,3.199-1.874,4.348
					c0.6,0.8,1.312,1.512,2.136,2.136c0.825,0.625,1.687,1.111,2.586,1.462c-0.6,0.249-1.1,0.674-1.499,1.274
					c-0.55-0.35-1.212-0.837-1.986-1.461c-0.775-0.625-1.512-1.387-2.211-2.286c-0.5,0.65-1.162,1.325-1.986,2.023
					c-0.824,0.699-1.812,1.398-2.961,2.099c-0.351-0.5-0.775-0.851-1.274-1.049c1.299-0.65,2.41-1.387,3.336-2.211
					c0.924-0.825,1.586-1.537,1.986-2.136c-0.7-1.749-1.175-3.21-1.424-4.385c-0.251-1.174-0.476-2.911-0.675-5.209h-0.75v-1.424
					c0.949,0.05,1.923,0.075,2.924,0.075H599.029z M593.856,390.635c0.199,1,0.6,2.224,1.199,3.673
					c0.55-1.049,1.024-2.273,1.425-3.673c0.399-1.398,0.675-2.897,0.824-4.497h-3.973
					C593.482,388.137,593.656,389.636,593.856,390.635z"/>
				<path fill="#FFFFFF" d="M606.824,397.793c-0.95,1.075-2.024,2.11-3.224,3.11c-0.5-0.45-0.975-0.85-1.424-1.199
					c1.148-0.75,2.099-1.499,2.849-2.249c0.749-0.75,1.573-1.749,2.473-2.999c0.499,0.401,1.074,0.8,1.725,1.199
					C608.572,396.007,607.772,396.719,606.824,397.793z M615.744,388.686c-0.6,1.349-1.075,2.398-1.425,3.148h1.649
					c1.199,0,2.174-0.024,2.923-0.075v1.499c-0.7-0.049-1.648-0.075-2.848-0.075h-10.645c-1.149,0-2.124,0.025-2.923,0.075v-1.499
					c0.749,0.05,1.698,0.075,2.849,0.075h7.271c0.899-1.449,1.599-2.873,2.099-4.272c0.499-1.398,0.824-2.423,0.975-3.073
					c0.6,0.251,1.248,0.476,1.948,0.675C616.968,386.163,616.344,387.337,615.744,388.686z M605.737,387.112
					c0.524,0.701,1.161,1.574,1.911,2.624c-0.5,0.2-0.95,0.55-1.35,1.049c-0.4-0.699-0.912-1.486-1.536-2.361
					c-0.626-0.874-1.162-1.586-1.611-2.136c0.399-0.3,0.824-0.649,1.273-1.05C604.774,385.789,605.212,386.413,605.737,387.112z
					 M610.946,386.212c0.199,1.1,0.475,2.249,0.825,3.448c-0.551,0-1.101,0.101-1.649,0.3c-0.2-0.849-0.4-1.811-0.6-2.886
					c-0.2-1.074-0.425-2.011-0.675-2.811l1.574-0.525C610.571,384.29,610.746,385.114,610.946,386.212z M615.894,396.931
					c0.999,0.8,1.974,1.6,2.924,2.399c-0.501,0.3-0.975,0.724-1.425,1.274c-0.8-0.85-1.724-1.698-2.773-2.548
					c-1.049-0.849-1.999-1.599-2.848-2.249c0.349-0.45,0.674-0.874,0.974-1.274C613.844,395.333,614.894,396.132,615.894,396.931z"
					/>
			</g>
		</g>
		<polygon fill="#1D2088" points="615.129,357.662 601.688,352.318 601.688,352.066 600.413,352.066 600.413,373.862 
			601.688,373.862 601.688,363.536 		"/>
	</g>
	<g opacity="0">
		<text transform="matrix(1 0 0 1 641.0801 375.5601)" fill="#040000" font-family="'ArialMT'" font-size="15">6</text>
		
			<rect x="563.363" y="346.679" fill="none" stroke="#040000" stroke-width="0.7913" stroke-miterlimit="10" width="112.264" height="76.647"/>
	</g>
</g>
<g>
	<g>
		<path fill="#FFFFFF" stroke="#E60012" stroke-width="1.6354" d="M142.609,304.673c0,4.127-3.349,7.473-7.479,7.473
			c-4.127,0-7.473-3.346-7.473-7.473c0-4.13,3.346-7.481,7.473-7.481C139.26,297.192,142.609,300.543,142.609,304.673z"/>
		<rect x="107.819" y="314.297" fill="#FFF100" width="64.768" height="26.973"/>
		<g>
			<g>
				<path d="M129.455,317.649c0.714,0.817,1.275,1.557,1.684,2.22c-0.562,0.306-0.995,0.536-1.301,0.688h8.495
					c-0.051,0.715-0.077,1.251-0.077,1.607c0,0.357,0.025,0.842,0.077,1.454h-1.607v-1.837h-13.241v1.837h-1.607
					c0.05-0.408,0.077-0.867,0.077-1.377c0-0.51-0.026-1.072-0.077-1.684h7.653c-0.409-0.765-0.868-1.454-1.377-2.066
					C128.46,318.288,128.893,318.007,129.455,317.649z M135.425,325.992c0,0.612,0.025,1.301,0.077,2.066h-9.107v1.837h10.026v2.908
					c0,1.071,0.025,2.091,0.076,3.062h-1.684v-1.148h-8.342v1.148h-1.76c0.05-1.174,0.077-3.215,0.077-6.123
					s-0.026-4.975-0.077-6.199h10.792C135.45,324.512,135.425,325.329,135.425,325.992z M133.894,326.833v-1.99h-7.5v1.99H133.894z
					 M134.813,333.416v-2.296h-8.418v2.296H134.813z"/>
				<path d="M149.813,320.864v3.214h4.362c1.02,0,1.99-0.025,2.908-0.076v1.684c-1.021-0.05-2.042-0.077-3.062-0.077h-4.209v7.73
					h6.046c0.766,0,1.658-0.025,2.679-0.077v1.607c-0.97-0.051-1.863-0.077-2.679-0.077h-12.092c-0.817,0-1.735,0.025-2.755,0.077
					v-1.607c0.969,0.052,1.887,0.077,2.755,0.077h4.439V320.94c0-0.765-0.026-1.607-0.077-2.525h1.76
					C149.838,319.283,149.813,320.099,149.813,320.864z"/>
			</g>
		</g>
		<polygon fill="#009944" points="154.569,284.366 136.391,277.142 136.391,276.801 134.669,276.801 134.669,306.276 
			136.391,306.276 136.391,292.308 		"/>
	</g>
	<g opacity="0">
		<text transform="matrix(1 0 0 1 186.7168 296.3813)" fill="#040000" font-family="'ArialMT'" font-size="15">3</text>
		
			<rect x="98.043" y="269.962" fill="none" stroke="#040000" stroke-width="0.7913" stroke-miterlimit="10" width="112.265" height="76.647"/>
	</g>
</g>
<g>
	<g>
		<circle fill="#FFFFFF" stroke="#E60012" stroke-width="1.619" cx="555.418" cy="316.721" r="7.402"/>
		<rect x="564.41" y="304.496" fill="#FFF100" width="64.12" height="26.702"/>
		<g>
			<g>
				<path d="M585.559,312.673v-1.516c0-0.808-0.025-1.565-0.075-2.273h1.667c-0.051,0.556-0.076,1.288-0.076,2.197v1.591h4.243
					c0.858,0,1.868-0.025,3.03-0.076v1.44c-1.111-0.05-2.097-0.076-2.954-0.076h-3.107c0.707,2.324,1.73,4.155,3.069,5.493
					c1.338,1.339,2.563,2.235,3.675,2.689c-0.455,0.354-0.885,0.833-1.288,1.44c-1.718-1.162-3.12-2.487-4.205-3.978
					c-1.087-1.489-1.907-3.22-2.463-5.19v7.122h0.985c0.808,0,1.641-0.025,2.5-0.076v1.439c-0.859-0.05-1.718-0.076-2.576-0.076
					h-0.909c0,1.163,0.025,2.349,0.076,3.561h-1.667c0.05-1.212,0.075-2.398,0.075-3.561h-0.984c-0.809,0-1.617,0.026-2.425,0.076
					v-1.439c0.808,0.051,1.616,0.076,2.425,0.076h0.984v-6.971c-0.809,2.072-1.704,3.814-2.689,5.228
					c-0.985,1.415-2.311,2.83-3.978,4.243c-0.405-0.555-0.885-0.959-1.44-1.212c1.667-1.01,3.056-2.273,4.168-3.789
					c1.11-1.515,1.995-3.207,2.651-5.076h-3.334c-0.809,0-1.666,0.026-2.575,0.076v-1.44c0.909,0.051,1.742,0.076,2.5,0.076H585.559
					z"/>
				<path d="M601.091,315.931v7.425c0,0.96,0.025,1.944,0.076,2.955h-1.439c0.05-1.011,0.075-1.995,0.075-2.955v-6.137
					c-0.354,1.415-1.011,2.854-1.97,4.319c-0.303-0.455-0.657-0.833-1.061-1.137c0.808-1.161,1.413-2.235,1.818-3.22
					c0.403-0.985,0.682-1.981,0.833-2.993c-0.708,0-1.39,0.051-2.045,0.151v-1.364c0.706,0.051,1.515,0.076,2.424,0.076v-1.894
					c0-0.758-0.025-1.515-0.075-2.273h1.516c-0.103,0.606-0.152,1.364-0.152,2.273v1.894c0.656,0,1.313-0.025,1.971-0.076v1.288
					c-0.657-0.05-1.314-0.076-1.971-0.076v1.288c0.354-0.201,0.632-0.379,0.834-0.53c0.504,0.909,1.01,1.844,1.516,2.803
					c-0.405,0.102-0.809,0.303-1.213,0.606C601.925,317.548,601.546,316.739,601.091,315.931z M609.047,310.627
					c-0.102,0.758-0.228,1.566-0.379,2.424h2.728c0.606,0,1.338-0.025,2.197-0.076v1.288c-0.859-0.05-1.894-0.076-3.106-0.076
					c0.151,0.909,0.568,1.731,1.25,2.462c0.683,0.733,1.705,1.326,3.069,1.781c-0.506,0.303-0.909,0.758-1.213,1.364
					c-0.758-0.404-1.466-0.909-2.121-1.516c-0.102,0.557-0.151,1.212-0.151,1.97v3.485c0,0.708,0.024,1.516,0.075,2.425h-1.439
					c0.05-0.606,0.076-1.415,0.076-2.425v-3.485c0-0.758-0.026-1.439-0.076-2.046h1.439c-1.162-1.11-1.894-2.449-2.197-4.016h-0.833
					c-0.557,1.617-1.213,2.83-1.971,3.637c0.758,0.102,1.313,0.152,1.667,0.152c-0.151,0.556-0.277,1.402-0.379,2.538
					c-0.102,1.137-0.315,2.172-0.644,3.106c-0.329,0.936-0.922,1.806-1.78,2.614c-0.506-0.455-1.062-0.758-1.667-0.909
					c1.363-0.909,2.184-2.197,2.462-3.864c0.277-1.667,0.366-2.829,0.266-3.485c-0.758,0.859-1.542,1.591-2.349,2.197
					c-0.254-0.353-0.708-0.707-1.364-1.061c1.364-0.757,2.36-1.565,2.993-2.424c0.631-0.858,1.099-1.692,1.401-2.5
					c-1.111,0-2.097,0.026-2.955,0.076v-1.288c0.909,0.051,2.02,0.076,3.334,0.076c0.101-0.909,0.177-1.667,0.228-2.273
					c-1.314,0.152-2.324,0.253-3.031,0.303c-0.151-0.455-0.354-0.858-0.605-1.212c0.504,0,1.615-0.087,3.334-0.265
					c1.716-0.176,3.282-0.493,4.697-0.947c0.201,0.506,0.479,1.036,0.833,1.591C612.229,310.198,610.966,310.324,609.047,310.627z"
					/>
			</g>
		</g>
		<polygon fill="#E60012" points="573.358,296.287 555.364,289.136 555.364,288.798 553.655,288.798 553.655,317.976 
			555.364,317.976 555.364,304.153 		"/>
	</g>
	<g opacity="0">
		<text transform="matrix(1 0 0 1 600.4131 293.6074)" fill="#040000" font-family="'ArialMT'" font-size="15">4</text>
		
			<rect x="534.068" y="266.08" fill="none" stroke="#040000" stroke-width="0.7913" stroke-miterlimit="10" width="112.265" height="76.647"/>
	</g>
</g>
<g>
	<g>
		<path fill="#FFFFFF" stroke="#E60012" stroke-width="1.6186" d="M204.101,398.247c0,4.088-3.31,7.396-7.399,7.396
			c-4.088,0-7.398-3.308-7.398-7.396c0-4.084,3.31-7.401,7.398-7.401C200.792,390.846,204.101,394.162,204.101,398.247z"/>
		<rect x="207.03" y="382.733" fill="#FFF100" width="64.103" height="26.698"/>
		<g>
			<g>
				<path d="M222.224,400.673c-0.405,0.53-0.985,1.276-1.742,2.235c-0.354-0.354-0.732-0.656-1.136-0.909
					c1.061-1.161,1.894-2.373,2.5-3.636c0.504,0.405,0.984,0.732,1.439,0.984C222.981,399.701,222.627,400.143,222.224,400.673z
					 M226.466,393.288c0.858,0,1.742-0.025,2.651-0.076v1.515c-0.859-0.049-2.147-0.076-3.863-0.076v1.894
					c1.565,0,2.803-0.025,3.712-0.076v1.515c-0.909-0.05-2.147-0.076-3.712-0.076v4.621c0,0.757-0.24,1.262-0.719,1.515
					c-0.48,0.252-1.099,0.378-1.856,0.378c-0.202-0.606-0.455-1.162-0.757-1.667c0.707,0.05,1.199,0.05,1.477,0
					c0.277-0.051,0.417-0.277,0.417-0.682v-4.166c-1.617,0-2.878,0.026-3.788,0.076v-1.515c0.959,0.051,2.222,0.076,3.788,0.076
					v-1.894c-1.869,0-3.257,0.026-4.166,0.076v-1.515c0.909,0.051,1.767,0.076,2.575,0.076h2.878
					c0.404-1.212,0.707-2.146,0.909-2.803c0.403,0.102,0.958,0.253,1.667,0.455C227.324,391.142,226.92,391.924,226.466,393.288z
					 M225.557,388.743c1.161,0,2.247-0.025,3.257-0.076v1.515c-1.061-0.049-1.92-0.076-2.576-0.076h-3.636
					c-0.859,0-1.692,0.026-2.5,0.076v-1.515c0.858,0.051,1.691,0.076,2.5,0.076h1.363c-0.102-0.555-0.253-1.136-0.455-1.742
					c0.504-0.151,1.035-0.303,1.591-0.455C225.354,387.606,225.506,388.339,225.557,388.743z M223.436,392.682
					c-0.454,0.102-0.884,0.253-1.288,0.455c-0.253-0.758-0.53-1.439-0.833-2.045c0.353-0.201,0.757-0.379,1.212-0.53
					C222.879,391.269,223.183,391.975,223.436,392.682z M228.586,401.089c-0.505,0.253-0.909,0.582-1.212,0.985
					c-0.405-0.909-0.935-1.792-1.591-2.651c0.353-0.303,0.731-0.58,1.136-0.833C227.526,399.398,228.081,400.231,228.586,401.089z
					 M231.617,388.894v3.863h3.938c0.555,0,1.136-0.025,1.742-0.076v1.439c-0.708-0.049-1.313-0.076-1.818-0.076v7.802
					c0,0.858,0.025,1.767,0.076,2.727h-1.59c0.049-0.96,0.076-1.844,0.076-2.651v-7.878h-2.424c0,1.263-0.051,2.475-0.152,3.636
					c-0.102,1.162-0.316,2.31-0.644,3.446c-0.329,1.136-0.822,2.311-1.477,3.522c-0.505-0.303-1.011-0.557-1.515-0.758
					c0.807-1.162,1.375-2.386,1.704-3.674c0.328-1.288,0.518-2.411,0.568-3.371c0.05-0.958,0.076-2.398,0.076-4.317
					c0-1.97-0.026-3.534-0.076-4.697c2.272-0.101,4.317-0.454,6.136-1.06c0.403,0.808,0.731,1.363,0.984,1.666
					C236.464,388.439,234.596,388.591,231.617,388.894z"/>
				<path d="M241.35,398.552c1.035-0.429,1.957-1.048,2.765-1.856h-2.197c-0.809,0-1.566,0.026-2.272,0.076v-1.212
					c0.909,0.051,1.691,0.076,2.348,0.076h2.727v-1.061h-0.985c-0.809,0-1.667,0.026-2.576,0.076v-1.288
					c0.959,0.051,1.818,0.076,2.576,0.076h0.985v-1.061h-0.985c-1.011,0-1.844,0.026-2.5,0.076v-1.212
					c1.212,0.051,2.045,0.076,2.5,0.076h0.985v-1.212h1.288v1.212h3.105v-1.212h1.288v1.212h0.909c1.061,0,2.045-0.024,2.954-0.076
					v1.212c-0.909-0.049-1.793-0.076-2.651-0.076h-1.212v1.061h1.136c0.152,0,0.366-0.012,0.644-0.038
					c0.277-0.025,0.845-0.038,1.705-0.038v1.288c-0.859-0.05-1.415-0.076-1.667-0.076h-1.818v1.061h5.529v1.136
					c-0.96-0.05-1.591-0.076-1.894-0.076h-3.106c0.606,0.708,1.351,1.263,2.235,1.667c0.883,0.405,1.957,0.682,3.219,0.833
					c-0.253,0.455-0.505,0.985-0.757,1.591c-1.415-0.455-2.551-0.958-3.409-1.515v0.758h-3.788v2.5c0,0.958-0.227,1.502-0.682,1.628
					c-0.455,0.125-1.162,0.239-2.121,0.341c-0.102-0.454-0.227-0.984-0.378-1.59c0.655,0.049,1.136,0.049,1.439,0
					c0.303-0.051,0.455-0.278,0.455-0.682v-2.196h-2.651c-0.657,0-1.238,0.026-1.742,0.076v-0.985
					c-1.011,0.556-2.02,1.086-3.03,1.591c-0.354-0.504-0.708-0.959-1.061-1.364C239.418,399.247,240.314,398.981,241.35,398.552z
					 M249.039,388.439h6.969c-0.051,0.606-0.076,1.136-0.076,1.591s0.025,0.935,0.076,1.439h-1.439v-1.818h-13.483v1.894h-1.439
					c0.05-0.555,0.076-1.085,0.076-1.591c0-0.555-0.026-1.061-0.076-1.515h7.575c-0.102-0.454-0.278-0.984-0.53-1.59l1.667-0.303
					C248.558,387.203,248.785,387.833,249.039,388.439z M243.963,400.711c0.455,0.405,0.858,0.783,1.212,1.136
					c-1.111,0.657-2.525,1.54-4.242,2.651c-0.354-0.405-0.682-0.808-0.985-1.212C241.716,402.479,243.055,401.62,243.963,400.711z
					 M247.145,399.044c0-0.504-0.026-1.035-0.076-1.591h1.439c-0.051,0.556-0.076,1.086-0.076,1.591h3.409
					c-1.011-0.707-1.768-1.489-2.272-2.348h-3.711c-0.708,0.859-1.667,1.642-2.878,2.348H247.145z M249.114,393.439v-1.061h-3.105
					v1.061H249.114z M249.114,395.636v-1.061h-3.105v1.061H249.114z M254.72,402.908c-0.303,0.403-0.632,0.858-0.985,1.363
					c-1.313-1.011-2.677-1.818-4.09-2.424c0.201-0.353,0.455-0.731,0.758-1.136C252.118,401.57,253.558,402.302,254.72,402.908z"/>
			</g>
		</g>
		<polygon fill="#00A0E9" points="215.845,377.611 197.855,370.461 197.855,370.124 196.15,370.124 196.15,399.292 197.855,399.292 
			197.855,385.471 		"/>
	</g>
	<g opacity="0">
		<text transform="matrix(1 0 0 1 271.7612 380.2183)" fill="#040000" font-family="'ArialMT'" font-size="15">5</text>
		
			<rect x="179.5" y="344.108" fill="none" stroke="#040000" stroke-width="0.7913" stroke-miterlimit="10" width="112.265" height="76.647"/>
	</g>
</g>
<g>
	<g>
		<path fill="#FFFFFF" stroke="#E60012" stroke-width="1.7232" d="M145.888,434.282c0,4.351-3.528,7.879-7.882,7.879
			c-4.348,0-7.874-3.528-7.874-7.879c0-4.348,3.526-7.879,7.874-7.879C142.36,426.403,145.888,429.934,145.888,434.282z"/>
		<g>
			<rect x="147.599" y="431.242" fill="#E60012" width="68.246" height="28.428"/>
			<g>
				<g>
					<path fill="#FFFFFF" d="M176.126,437.268c1.129,0,2.23-0.027,3.306-0.081v1.532c-1.076-0.053-2.177-0.081-3.306-0.081h-3.71
						v5.403h2.903c0.914,0,1.855-0.026,2.823-0.081v1.693c-0.968-0.053-1.909-0.081-2.823-0.081h-2.903v6.532h5.323
						c0.859,0,1.827-0.026,2.903-0.081v1.613c-1.076-0.054-2.044-0.081-2.903-0.081h-11.774c-1.184,0-2.367,0.026-3.548,0.081
						v-1.613c1.182,0.054,2.365,0.081,3.548,0.081h4.758v-6.532h-2.581c-1.129,0-2.286,0.028-3.468,0.081v-1.693
						c1.182,0.054,2.339,0.081,3.468,0.081h2.581v-5.403h-3.629c-1.129,0-2.339,0.028-3.629,0.081v-1.532
						c1.29,0.054,2.5,0.081,3.629,0.081H176.126z M177.9,451.219c-0.699-0.698-2.043-1.72-4.032-3.064
						c0.269-0.322,0.591-0.752,0.968-1.29c2.097,1.506,3.494,2.528,4.194,3.064C178.491,450.467,178.114,450.896,177.9,451.219z"/>
					<path fill="#FFFFFF" d="M198.223,436.945c0.645,0,1.532-0.026,2.661-0.081v1.532c-1.022-0.053-1.909-0.081-2.661-0.081h-6.21
						c-0.431,1.721-1.103,3.387-2.016,5h9.597c-0.054,2.258-0.081,4.328-0.081,6.209c0,1.883,0.026,3.414,0.081,4.597H197.9v-2.016
						h-8.306v2.178H187.9c0.053-1.238,0.081-3.952,0.081-8.146c-1.398,1.56-2.796,2.823-4.193,3.791
						c-0.431-0.537-0.887-0.94-1.371-1.21c2.311-1.397,4.14-3.145,5.484-5.242c1.343-2.097,2.124-3.817,2.339-5.161h-1.855
						c-1.936,0-3.36,0.028-4.274,0.081v-1.532c0.914,0.054,2.365,0.081,4.354,0.081H198.223z M197.9,450.735v-6.048h-8.306v6.048
						H197.9z"/>
				</g>
			</g>
		</g>
		<polygon fill="#1D2088" points="158.095,415.771 138.943,408.158 138.943,407.797 137.126,407.797 137.126,438.854 
			138.943,438.854 138.943,424.141 		"/>
	</g>
	<g opacity="0">
		<text transform="matrix(1 0 0 1 224.1826 447.6743)" fill="#040000" font-family="'ArialMT'" font-size="15">7</text>
		
			<rect x="124.304" y="406.75" fill="none" stroke="#040000" stroke-width="0.7245" stroke-miterlimit="10" width="112.265" height="64.25"/>
	</g>
</g>
<g>
	<g>
		<path fill="#FFFFFF" stroke="#E60012" stroke-width="1.669" d="M319.361,600.142c0,4.216-3.419,7.632-7.634,7.632
			c-4.211,0-7.626-3.416-7.626-7.632c0-4.21,3.415-7.626,7.626-7.626C315.942,592.515,319.361,595.931,319.361,600.142z"/>
		<rect x="322.426" y="587.098" fill="#E60012" width="66.1" height="27.527"/>
		<g>
			<g>
				<path fill="#FFFFFF" d="M338.1,593.008c0-0.781-0.027-1.457-0.078-2.031h1.562c-0.052,0.625-0.078,1.38-0.078,2.265v1.406
					c0.364,0,1.119-0.025,2.265-0.078v1.484c-1.146-0.051-1.901-0.078-2.265-0.078v2.499c0.208-0.104,0.651-0.312,1.328-0.625
					c0.156,0.365,0.352,0.755,0.585,1.171c0.234,0.417,0.456,0.912,0.664,1.484c-0.625,0.156-1.146,0.391-1.562,0.703
					c-0.156-0.416-0.339-0.807-0.547-1.171l-0.469-1.016v6.483c0,0.886,0.026,1.9,0.078,3.046h-1.64
					c0.104-0.937,0.156-1.953,0.156-3.046v-5.233c-0.105,0.365-0.248,0.82-0.43,1.367c-0.183,0.546-0.534,1.263-1.054,2.148
					c-0.261-0.313-0.703-0.703-1.328-1.172c0.363-0.469,0.664-0.898,0.898-1.289s0.469-0.898,0.703-1.523
					c0.234-0.625,0.442-1.25,0.625-1.875c0.182-0.625,0.299-1.275,0.352-1.953h-0.546c-0.209,0-0.73,0.027-1.563,0.078v-1.484
					c0.833,0.053,1.328,0.078,1.484,0.078h0.859V593.008z M343.099,597.382c-0.312-0.416-0.729-0.833-1.25-1.25
					c0.729-0.676,1.367-1.549,1.914-2.617c0.547-1.066,0.977-2.095,1.289-3.085l1.797,0.781c-0.313,0.261-0.652,0.73-1.016,1.406
					h4.999c0.885,0,1.641-0.026,2.265-0.078v1.484c-0.625-0.104-1.406-0.156-2.343-0.156h-5.389
					c-0.313,0.574-0.625,1.171-0.937,1.796h7.576c0,0.73-0.027,1.498-0.078,2.304c-0.053,0.808-0.078,1.472-0.078,1.992h0.625
					c0.312,0,0.676-0.026,1.093-0.078v1.328c-0.521-0.051-0.912-0.078-1.171-0.078h-0.625c-0.053,1.562-0.105,2.604-0.156,3.124
					c0.364,0,0.885-0.025,1.562-0.078v1.406c-0.677-0.051-1.198-0.078-1.562-0.078c-0.105,1.406-0.352,2.265-0.742,2.577
					c-0.39,0.313-1.132,0.52-2.226,0.625c0-0.574-0.209-1.224-0.625-1.953c1.041,0.104,1.627,0.09,1.757-0.039
					c0.129-0.129,0.221-0.533,0.273-1.21h-7.029c0.207-1.041,0.468-2.5,0.781-4.374h-0.391c-0.417,0-0.833,0.027-1.25,0.078v-1.328
					c0.364,0.052,0.781,0.078,1.25,0.078h0.469c0.156-0.989,0.247-1.718,0.273-2.187c0.025-0.469,0.09-1.145,0.195-2.031
					C344.036,596.263,343.619,596.81,343.099,597.382z M345.286,601.131c-0.105,0.625-0.287,1.667-0.546,3.124h5.467
					c0-0.572,0.051-1.613,0.156-3.124H345.286z M345.676,596.835l-0.313,3.125h4.999c0.051-0.938,0.104-1.979,0.156-3.125H345.676z
					 M348.878,603.396c-0.521,0.208-0.99,0.469-1.406,0.781c-0.261-0.832-0.677-1.587-1.25-2.265
					c0.469-0.208,0.91-0.442,1.328-0.703C348.071,601.939,348.514,602.668,348.878,603.396z M349.035,599.257
					c-0.521,0.156-0.99,0.365-1.406,0.625c-0.365-0.833-0.781-1.536-1.25-2.109c0.416-0.156,0.859-0.391,1.328-0.703
					C348.176,597.8,348.618,598.528,349.035,599.257z"/>
				<path fill="#FFFFFF" d="M359.188,598.242h3.124c-0.053,0.937-0.092,2.46-0.117,4.569c-0.027,2.109-0.065,3.333-0.117,3.671
					c-0.053,0.339-0.3,0.625-0.742,0.859c-0.443,0.234-0.951,0.403-1.523,0.507c-0.052-0.521-0.313-1.066-0.781-1.64
					c1.145,0.053,1.744-0.221,1.796-0.82c0.051-0.598,0.104-2.617,0.156-6.053h-1.796c-0.053,1.979-0.313,3.71-0.781,5.194
					s-1.093,2.773-1.875,3.866c-0.313-0.365-0.755-0.651-1.328-0.859c0.729-0.938,1.275-1.887,1.64-2.851
					c0.364-0.963,0.637-1.965,0.82-3.007c0.182-1.041,0.273-3.176,0.273-6.405c-0.469,0-1.146,0.027-2.031,0.078v-1.25
					c0.885,0.052,2.031,0.078,3.437,0.078c1.406,0,2.473-0.026,3.203-0.078v1.328c-0.834-0.051-1.953-0.078-3.358-0.078V598.242z
					 M358.173,591.212c0.469-0.208,0.859-0.441,1.171-0.703c0.625,0.781,1.119,1.589,1.484,2.421
					c-0.469,0.156-0.938,0.391-1.406,0.703C359.11,592.801,358.693,591.993,358.173,591.212z M364.343,592.228
					c0.469-0.938,0.729-1.588,0.781-1.953c0.416,0.261,0.963,0.469,1.641,0.625c-0.313,0.261-0.6,0.652-0.859,1.172h4.608
					c1.041,0,1.874-0.051,2.499-0.156v1.328c-0.677-0.051-1.536-0.078-2.577-0.078h-5.077c-0.417,0.833-0.886,1.64-1.405,2.421
					c-0.365-0.364-0.781-0.598-1.25-0.703C363.328,594.051,363.875,593.165,364.343,592.228z M366.14,607.302
					c-0.521,0.469-1.172,1.015-1.953,1.64c-0.312-0.365-0.677-0.677-1.093-0.938c1.301-0.833,2.343-1.718,3.124-2.655
					c0.416,0.417,0.832,0.755,1.25,1.015C367.103,606.521,366.659,606.833,366.14,607.302z M365.202,595.977
					c0-0.417-0.026-0.911-0.078-1.484h1.484c-0.053,0.625-0.078,1.12-0.078,1.484h3.358c0-0.417-0.027-0.938-0.078-1.562h1.484
					c-0.053,0.677-0.078,1.198-0.078,1.562c0.416,0,1.015-0.026,1.796-0.078v1.25c-0.781-0.051-1.38-0.078-1.796-0.078v6.639
					c0.572,0,1.327-0.026,2.265-0.078v1.328c-0.886-0.051-1.641-0.078-2.265-0.078h-5.702c-0.677,0-1.406,0.027-2.187,0.078v-1.328
					c0.729,0.052,1.354,0.078,1.874,0.078v-6.639c-0.364,0-0.859,0.027-1.483,0.078v-1.25
					C364.343,595.951,364.838,595.977,365.202,595.977z M369.889,598.476v-1.406h-3.358v1.406H369.889z M369.889,601.131v-1.562
					h-3.358v1.562H369.889z M369.889,603.709v-1.484h-3.358v1.484H369.889z M369.342,606.286c0.416-0.26,0.754-0.625,1.016-1.093
					c1.405,0.937,2.524,1.796,3.358,2.578c-0.365,0.312-0.729,0.676-1.094,1.093C371.633,607.874,370.539,607.015,369.342,606.286z"
					/>
			</g>
		</g>
		<polygon fill="#00A0E9" points="332.04,579.948 313.488,572.575 313.488,572.227 311.731,572.227 311.731,602.306 
			313.488,602.306 313.488,588.052 		"/>
	</g>
	<g opacity="0">
		<text transform="matrix(1 0 0 1 348.5811 571.5601)" fill="#040000" font-family="'ArialMT'" font-size="15">9</text>
		
			<rect x="292.927" y="551.02" fill="none" stroke="#040000" stroke-width="0.7913" stroke-miterlimit="10" width="112.265" height="76.647"/>
	</g>
</g>
<g>
	<g>
		<path fill="#FFFFFF" stroke="#E60012" stroke-width="1.6039" d="M253.517,614.683c0,4.047-3.28,7.329-7.332,7.329
			c-4.049,0-7.331-3.282-7.331-7.329c0-4.051,3.281-7.333,7.331-7.333C250.237,607.349,253.517,610.631,253.517,614.683z"/>
		<rect x="215.825" y="625.105" fill="#E60012" width="63.523" height="26.455"/>
		<g>
			<g>
				<path fill="#FFFFFF" d="M232.281,636.708c-0.5,2.353-1.088,4.192-1.764,5.517c-0.676,1.326-1.665,2.715-2.965,4.166
					c-0.201-0.301-0.702-0.676-1.501-1.126c1.851-1.451,3.202-3.465,4.053-6.042c0.851-2.577,1.301-5.266,1.351-8.069
					c0.55,0.251,1.151,0.426,1.802,0.525C233.156,631.879,232.831,633.555,232.281,636.708z M239.224,638.247
					c0.725,2.877,2.188,5.292,4.391,7.243c-0.551,0.101-1.125,0.451-1.726,1.052c-1.102-1.352-2.027-2.752-2.777-4.204
					c-0.701-1.501-1.238-3.177-1.614-5.029c-0.375-1.851-0.739-4.203-1.088-7.056c0.601,0.05,1.175,0.05,1.727,0
					C238.136,632.705,238.498,635.37,239.224,638.247z"/>
				<path fill="#FFFFFF" d="M247.743,634.756h0.525h1.501v-2.927c-1.302,0.201-2.327,0.375-3.078,0.525
					c-0.15-0.55-0.326-1-0.525-1.351c1.201-0.049,2.414-0.199,3.64-0.45c1.226-0.25,2.264-0.525,3.115-0.826
					c0.15,0.501,0.45,1.001,0.901,1.501c-0.751-0.049-1.702,0.051-2.853,0.3v3.228h0.601c0.65,0,1.426-0.049,2.327-0.15v1.351
					c-0.9-0.049-1.702-0.075-2.402-0.075h-0.525v2.327l0.075,0.675h-1.351l0.075-1.201v-1.126c-0.601,1.051-1.351,1.952-2.252,2.702
					h5.93c-0.951-0.95-1.651-1.601-2.102-1.952c0.199-0.25,0.45-0.575,0.75-0.976c0.4,0.3,1.201,1.001,2.402,2.102
					c-0.401,0.351-0.726,0.701-0.976,1.051c-0.05,0.75-0.075,1.876-0.075,3.377c0,1.502,0.025,2.802,0.075,3.903h-1.201v-0.825
					h-4.128v0.976h-1.276c0.049-1.152,0.075-2.076,0.075-2.777v-4.354c-0.251,0.201-0.576,0.476-0.976,0.826
					c-0.2-0.45-0.5-0.851-0.9-1.201c0.75-0.45,1.389-0.9,1.914-1.351c0.525-0.45,1.088-1.175,1.689-2.177
					c-1.002,0-1.902,0.026-2.703,0.075v-1.351c0.55,0.101,1.076,0.15,1.577,0.15c-0.201-0.7-0.451-1.351-0.751-1.951
					c0.35-0.1,0.725-0.25,1.126-0.451c0.3,0.651,0.575,1.302,0.826,1.952C248.443,634.407,248.093,634.557,247.743,634.756z
					 M249.77,641.812v-1.426h-1.577v1.426H249.77z M249.77,644.739v-1.727h-1.577v1.727H249.77z M252.322,641.812v-1.426h-1.351
					v1.426H252.322z M252.322,644.739v-1.727h-1.351v1.727H252.322z M253.523,632.579c-0.351,0.601-0.676,1.276-0.976,2.027
					c-0.351-0.199-0.726-0.35-1.125-0.45c0.4-0.751,0.7-1.451,0.9-2.102C252.671,632.254,253.072,632.429,253.523,632.579z
					 M256.976,632.129c-0.852,0-1.727,0.026-2.627,0.075v-1.351c0.9,0.05,1.775,0.075,2.627,0.075h1.276
					c-0.05,1.051-0.075,2.127-0.075,3.228v10.958c0,0.9-0.188,1.427-0.563,1.576c-0.375,0.15-1.064,0.301-2.064,0.45
					c-0.05-0.551-0.2-1.126-0.45-1.726c0.7,0.049,1.188,0.062,1.464,0.037c0.274-0.025,0.413-0.287,0.413-0.788v-3.303
					c-0.401,0.301-0.764,0.589-1.088,0.863c-0.326,0.275-0.638,0.563-0.938,0.863c-0.251-0.55-0.576-1.051-0.976-1.501
					c0.95-0.35,1.952-0.926,3.002-1.727V632.129z M256.525,637.758c-0.451,0.15-0.876,0.326-1.276,0.525
					c-0.2-1.15-0.576-2.477-1.125-3.978c0.4-0.15,0.826-0.274,1.276-0.375C255.549,634.381,255.925,635.657,256.525,637.758z
					 M262.455,630.778c-0.05,1.102-0.075,2.127-0.075,3.078v11.56c0,0.75-0.213,1.212-0.638,1.389
					c-0.426,0.174-1.088,0.312-1.989,0.412c0-0.501-0.15-1.051-0.451-1.651c0.751,0,1.25-0.013,1.501-0.037
					c0.25-0.026,0.375-0.289,0.375-0.788v-4.053c-1.051,0.701-1.777,1.251-2.177,1.651c-0.201-0.601-0.451-1.126-0.751-1.576
					c0.55-0.25,1.526-0.725,2.928-1.426v-7.356c-0.801,0-1.577,0.026-2.327,0.075v-1.351c0.75,0.051,1.451,0.075,2.102,0.075
					H262.455z M259.978,633.705c0.35,2.002,0.625,3.353,0.826,4.053c-0.551,0.051-1.026,0.15-1.426,0.3
					c-0.101-0.7-0.213-1.389-0.338-2.064c-0.125-0.676-0.288-1.338-0.488-1.989C258.901,633.906,259.377,633.806,259.978,633.705z"
					/>
			</g>
		</g>
		<polygon fill="#00A0E9" points="262.895,596.212 245.069,589.126 245.069,588.792 243.379,588.792 243.379,617.7 245.069,617.7 
			245.069,604.002 		"/>
	</g>
	<g opacity="0">
		<text transform="matrix(1 0 0 1 207.2231 612.333)" fill="#040000" font-family="'ArialMT'" font-size="15">8</text>
		
			<rect x="175.289" y="585.686" fill="none" stroke="#040000" stroke-width="0.7913" stroke-miterlimit="10" width="112.265" height="76.647"/>
	</g>
</g>
<g>
	<g>
		<path fill="#FFFFFF" stroke="#E60012" stroke-width="1.617" d="M454.498,704.164c0,4.085-3.309,7.397-7.393,7.397
			c-4.083,0-7.391-3.313-7.391-7.397c0-4.079,3.308-7.389,7.391-7.389C451.189,696.775,454.498,700.085,454.498,704.164z"/>
		<rect x="419.762" y="712.774" fill="#E60012" width="64.043" height="26.668"/>
		<g>
			<g>
				<path fill="#FFFFFF" d="M445.491,719.893c1.211,0,2.522-0.025,3.936-0.076v1.514c-1.413-0.05-2.725-0.076-3.936-0.076h-3.935
					v2.573h5.826c-0.051,0.908-0.075,1.843-0.075,2.8v3.708c0,0.858-0.291,1.438-0.87,1.741c-0.581,0.303-1.4,0.505-2.46,0.604
					c-0.102-0.604-0.328-1.21-0.681-1.815c1.06,0,1.728-0.025,2.005-0.076c0.277-0.05,0.417-0.303,0.417-0.757v-4.843h-4.162v5.979
					c0,1.262,0.024,2.346,0.075,3.254h-1.74c0.05-0.908,0.075-1.992,0.075-3.254v-5.979h-4.237v7.416h-1.665
					c0.05-0.807,0.076-1.766,0.076-2.876v-2.8c0-1.16-0.026-2.194-0.076-3.103h5.902v-2.573h-3.935
					c-1.313,0-2.624,0.026-3.936,0.076v-1.514c1.312,0.051,2.623,0.076,3.936,0.076H445.491z M441.935,719.06
					c-0.556,0.253-1.01,0.505-1.362,0.757c-0.454-0.807-1.034-1.589-1.74-2.346c0.403-0.303,0.807-0.579,1.211-0.833
					C440.648,717.243,441.278,718.051,441.935,719.06z"/>
				<path fill="#FFFFFF" d="M453.892,719.211c0-0.757-0.026-1.412-0.075-1.968h1.513c-0.051,0.605-0.075,1.338-0.075,2.195v1.361
					c0.353,0,1.084-0.024,2.194-0.075v1.438c-1.11-0.05-1.842-0.075-2.194-0.075v2.422c0.201-0.101,0.63-0.303,1.286-0.605
					c0.151,0.354,0.341,0.731,0.567,1.135c0.228,0.404,0.441,0.883,0.644,1.438c-0.605,0.151-1.11,0.379-1.514,0.682
					c-0.151-0.403-0.328-0.782-0.529-1.136l-0.454-0.983v6.281c0,0.858,0.024,1.841,0.075,2.951h-1.589
					c0.101-0.908,0.151-1.892,0.151-2.951v-5.07c-0.102,0.354-0.24,0.794-0.416,1.324c-0.178,0.529-0.518,1.224-1.021,2.081
					c-0.253-0.303-0.682-0.682-1.287-1.135c0.353-0.454,0.644-0.871,0.871-1.249c0.227-0.379,0.453-0.87,0.681-1.476
					c0.227-0.605,0.428-1.211,0.605-1.816c0.176-0.605,0.29-1.235,0.341-1.892h-0.53c-0.202,0-0.707,0.025-1.514,0.075v-1.438
					c0.807,0.051,1.287,0.075,1.438,0.075h0.832V719.211z M458.734,723.449c-0.302-0.403-0.707-0.807-1.21-1.211
					c0.705-0.655,1.324-1.501,1.854-2.535c0.53-1.033,0.946-2.03,1.249-2.989l1.74,0.757c-0.303,0.253-0.632,0.707-0.983,1.362
					h4.843c0.857,0,1.589-0.025,2.194-0.076v1.438c-0.605-0.101-1.362-0.151-2.27-0.151h-5.222c-0.303,0.556-0.605,1.135-0.908,1.74
					h7.34c0,0.707-0.025,1.45-0.075,2.232c-0.051,0.782-0.076,1.426-0.076,1.93h0.605c0.303,0,0.655-0.025,1.06-0.076v1.287
					c-0.505-0.05-0.883-0.076-1.135-0.076h-0.605c-0.051,1.514-0.102,2.523-0.151,3.027c0.353,0,0.857-0.025,1.514-0.076v1.362
					c-0.656-0.05-1.161-0.075-1.514-0.075c-0.102,1.361-0.341,2.194-0.719,2.497c-0.379,0.303-1.098,0.504-2.157,0.605
					c0-0.556-0.202-1.187-0.605-1.892c1.009,0.1,1.576,0.087,1.703-0.038c0.125-0.126,0.214-0.517,0.265-1.173h-6.811
					c0.201-1.009,0.454-2.422,0.757-4.238h-0.379c-0.404,0-0.808,0.026-1.21,0.076v-1.287c0.352,0.051,0.756,0.076,1.21,0.076h0.454
					c0.151-0.958,0.239-1.665,0.266-2.119c0.024-0.454,0.087-1.109,0.188-1.968C459.643,722.364,459.238,722.895,458.734,723.449z
					 M460.854,727.081c-0.102,0.605-0.277,1.615-0.529,3.027h5.297c0-0.555,0.05-1.563,0.151-3.027H460.854z M461.232,722.919
					l-0.303,3.027h4.843c0.05-0.908,0.101-1.917,0.151-3.027H461.232z M464.335,729.275c-0.505,0.202-0.959,0.454-1.362,0.757
					c-0.253-0.806-0.656-1.538-1.211-2.194c0.454-0.201,0.882-0.428,1.286-0.681C463.552,727.864,463.981,728.57,464.335,729.275z
					 M464.486,725.265c-0.505,0.151-0.959,0.354-1.362,0.605c-0.354-0.806-0.757-1.487-1.211-2.043
					c0.403-0.151,0.832-0.378,1.286-0.681C463.653,723.854,464.082,724.56,464.486,725.265z"/>
			</g>
		</g>
		<polygon fill="#74C6BE" stroke="#000000" stroke-width="3.234" points="465.952,683.1 447.982,675.957 447.982,675.618 
			446.277,675.618 446.277,704.758 447.982,704.758 447.982,690.953 		"/>
	</g>
	<g opacity="0">
		<text transform="matrix(1 0 0 1 487.8457 683)" fill="#040000" font-family="'ArialMT'" font-size="15">10</text>
		
			<rect x="406.735" y="665.291" fill="none" stroke="#040000" stroke-width="0.7913" stroke-miterlimit="10" width="112.265" height="76.647"/>
	</g>
</g>
<g>
	<g>
		<path fill="#FFFFFF" stroke="#E60012" stroke-width="1.5563" d="M474.351,915.13c0,3.932-3.182,7.116-7.116,7.116
			c-3.929,0-7.112-3.185-7.112-7.116s3.184-7.116,7.112-7.116C471.169,908.014,474.351,911.198,474.351,915.13z"/>
		<rect x="480.469" y="895.104" fill="#E60012" width="61.637" height="25.67"/>
		<g>
			<path fill="#FFFFFF" d="M499.571,913.997c-0.34,0.194-0.681,0.462-1.02,0.801h2.258v-4.224h-2.477
				c-0.681,0-1.627,0.024-2.84,0.072v-1.384c1.213,0.049,2.136,0.073,2.768,0.073h2.549v-2.258c-1.603,0-2.865,0.024-3.787,0.072
				v-1.165c-0.777,0.583-1.725,1.19-2.841,1.82c-0.291-0.437-0.655-0.849-1.093-1.237c0.922-0.34,1.869-0.85,2.841-1.53
				c0.971-0.679,1.918-1.517,2.841-2.513c0.922-0.994,1.675-2.05,2.258-3.168c0.097,0.098,0.606,0.364,1.529,0.802l-0.438,0.437
				c0.534,0.583,1.189,1.238,1.967,1.967c0.776,0.729,1.699,1.372,2.768,1.93c1.067,0.559,2.185,1.009,3.351,1.348
				c-0.39,0.389-0.705,0.85-0.947,1.384c-0.972-0.339-1.967-0.776-2.986-1.312v1.238c-0.972-0.048-1.748-0.072-2.33-0.072h-1.748
				v2.258h2.549c0.825,0,1.845-0.024,3.06-0.073v1.384c-1.166-0.048-2.186-0.072-3.06-0.072h-2.549v4.224h1.384
				c1.116-1.941,1.723-3.252,1.82-3.933c0.438,0.291,0.971,0.582,1.603,0.874c-0.34,0.437-0.995,1.456-1.967,3.059
				c1.505,0,2.962-0.024,4.37-0.072v1.384c-1.408-0.05-2.549-0.073-3.423-0.073h-8.667c-1.02,0-2.016,0.023-2.986,0.073v-1.384
				c1.02,0.048,2.015,0.072,2.986,0.072h0.874c-0.34-0.776-0.947-1.748-1.821-2.913c0.438-0.291,0.825-0.583,1.166-0.874
				C498.308,912.079,498.988,913.075,499.571,913.997z M499.28,905.84h4.369c0.729-0.048,1.505-0.073,2.331-0.073
				c-0.826-0.582-1.664-1.274-2.513-2.075c-0.85-0.802-1.542-1.541-2.076-2.222c-0.534,0.729-1.178,1.469-1.93,2.222
				c-0.753,0.753-1.493,1.445-2.222,2.075C497.969,905.815,498.648,905.84,499.28,905.84z"/>
			<path fill="#FFFFFF" d="M514.429,906.714v6.7h5.098v-10.925c0-0.874-0.024-1.748-0.072-2.622h1.603
				c-0.049,0.681-0.073,1.555-0.073,2.622v10.925h5.099v-6.846c0-1.067-0.025-1.967-0.073-2.695h1.675
				c-0.049,0.583-0.072,1.481-0.072,2.695v5.899c0,1.165,0.023,2.403,0.072,3.714h-1.602v-1.529h-13.256
				c0.048-1.067,0.073-2.112,0.073-3.132v-4.734c0-1.116-0.025-2.111-0.073-2.985h1.675
				C514.452,904.966,514.429,905.938,514.429,906.714z"/>
		</g>
		<polygon fill="#74C6BE" stroke="#000000" stroke-width="3.1126" points="485.17,896.034 467.875,889.163 467.875,888.838 
			466.235,888.838 466.235,916.881 467.875,916.881 467.875,903.595 		"/>
	</g>
	<g opacity="0">
		<text transform="matrix(1 0 0 1 470.5293 871.666)" fill="#040000" font-family="'ArialMT'" font-size="15">11</text>
		
			<rect x="446.731" y="851.869" fill="none" stroke="#040000" stroke-width="0.7913" stroke-miterlimit="10" width="112.265" height="76.647"/>
	</g>
</g>
<g>
	<g>
		<circle fill="#FFFFFF" stroke="#E60012" stroke-width="1.6891" cx="195.754" cy="233.608" r="7.722"/>
		<rect x="115.016" y="220.044" fill="#E60012" width="66.893" height="27.862"/>
		<g>
			<g>
				<path fill="#FFFFFF" d="M133.159,232.283v-5.217c0-0.474-0.027-1.159-0.079-2.055h1.739c-0.053,1.001-0.079,1.66-0.079,1.976
					v5.296h9.565c0.685,0,1.423-0.026,2.213-0.079v1.581c-1.001-0.052-1.924-0.079-2.767-0.079h-4.585
					c0.368,1.055,0.935,2.083,1.7,3.083c0.763,1.001,1.672,1.832,2.727,2.49c1.054,0.659,2.002,1.12,2.846,1.383
					c-0.685,0.422-1.213,0.948-1.581,1.581c-1.107-0.58-2.135-1.265-3.083-2.055c-0.949-0.791-1.792-1.751-2.53-2.885
					c-0.738-1.132-1.292-2.332-1.66-3.597h-2.846v6.245c1.528-0.949,2.556-1.66,3.083-2.134c0.368,0.58,0.737,1.106,1.107,1.581
					c-1.002,0.475-2.003,1.067-3.004,1.779c-1.002,0.711-1.739,1.304-2.213,1.779c-0.422-0.581-0.818-1.081-1.186-1.502
					c0.421-0.421,0.632-0.975,0.632-1.66v-6.087h-1.818c-0.739,0-1.581,0.027-2.53,0.079v-1.581
					c0.949,0.053,1.739,0.079,2.372,0.079H133.159z M140.55,228.687c-1.134,1.134-2.253,2.227-3.359,3.28
					c-0.474-0.632-0.87-1.053-1.186-1.265c0.896-0.632,1.897-1.528,3.004-2.688c1.106-1.159,1.949-2.16,2.529-3.004
					c0.421,0.369,0.949,0.791,1.581,1.265C142.539,226.75,141.683,227.554,140.55,228.687z"/>
				<path fill="#FFFFFF" d="M151.301,236.987c1.08-0.447,2.042-1.093,2.885-1.937h-2.292c-0.844,0-1.634,0.027-2.372,0.079v-1.265
					c0.948,0.053,1.765,0.079,2.45,0.079h2.846v-1.107h-1.028c-0.844,0-1.739,0.027-2.688,0.079v-1.344
					c1,0.053,1.897,0.079,2.688,0.079h1.028v-1.107h-1.028c-1.055,0-1.924,0.027-2.609,0.079v-1.265
					c1.265,0.053,2.135,0.079,2.609,0.079h1.028v-1.265h1.344v1.265h3.241v-1.265h1.344v1.265h0.949
					c1.107,0,2.134-0.026,3.083-0.079v1.265c-0.949-0.052-1.871-0.079-2.767-0.079h-1.265v1.107h1.186
					c0.158,0,0.382-0.012,0.672-0.04c0.289-0.026,0.882-0.04,1.779-0.04v1.344c-0.897-0.052-1.476-0.079-1.739-0.079h-1.897v1.107
					h5.771v1.186c-1.002-0.052-1.66-0.079-1.977-0.079h-3.241c0.632,0.739,1.409,1.318,2.332,1.739
					c0.921,0.422,2.042,0.711,3.359,0.87c-0.264,0.474-0.527,1.027-0.791,1.66c-1.476-0.474-2.662-1-3.557-1.581v0.791h-3.953v2.608
					c0,1-0.237,1.567-0.711,1.7c-0.474,0.131-1.213,0.25-2.213,0.355c-0.106-0.474-0.237-1.027-0.395-1.66
					c0.684,0.052,1.186,0.052,1.502,0c0.316-0.053,0.474-0.29,0.474-0.711v-2.292h-2.767c-0.686,0-1.292,0.027-1.818,0.079v-1.027
					c-1.055,0.581-2.108,1.134-3.162,1.66c-0.37-0.526-0.739-1-1.107-1.423C149.285,237.711,150.22,237.435,151.301,236.987z
					 M159.324,226.434h7.273c-0.053,0.632-0.079,1.186-0.079,1.66c0,0.474,0.026,0.976,0.079,1.502h-1.502v-1.897h-14.071v1.977
					h-1.502c0.052-0.58,0.079-1.133,0.079-1.66c0-0.58-0.027-1.107-0.079-1.581h7.905c-0.106-0.474-0.29-1.028-0.553-1.66
					l1.739-0.316C158.823,225.143,159.06,225.801,159.324,226.434z M154.028,239.24c0.474,0.422,0.896,0.817,1.265,1.186
					c-1.16,0.686-2.636,1.607-4.427,2.767c-0.369-0.422-0.711-0.843-1.028-1.265C151.683,241.085,153.08,240.188,154.028,239.24z
					 M157.348,237.5c0-0.526-0.027-1.08-0.079-1.66h1.502c-0.053,0.581-0.079,1.134-0.079,1.66h3.557
					c-1.055-0.737-1.845-1.554-2.371-2.451h-3.874c-0.739,0.897-1.739,1.713-3.004,2.451H157.348z M159.403,231.651v-1.107h-3.241
					v1.107H159.403z M159.403,233.943v-1.107h-3.241v1.107H159.403z M165.253,241.532c-0.316,0.421-0.659,0.896-1.027,1.423
					c-1.371-1.055-2.794-1.897-4.269-2.53c0.21-0.368,0.474-0.763,0.79-1.186C162.538,240.136,164.04,240.899,165.253,241.532z"/>
			</g>
		</g>
		<polygon fill="#1D2088" points="214.659,212.333 195.888,204.874 195.888,204.522 194.106,204.522 194.106,234.962 
			195.888,234.962 195.888,220.539 		"/>
	</g>
	<g opacity="0">
		<text transform="matrix(1 0 0 1 157.1431 208.0303)" fill="#040000" font-family="'ArialMT'" font-size="15">1</text>
		
			<rect x="106.399" y="184.374" fill="none" stroke="#040000" stroke-width="0.7913" stroke-miterlimit="10" width="112.265" height="76.647"/>
	</g>
</g>
</svg>