<svg version="1.0" id="图层_1" xmlns="http://www.w3.org/2000/svg" xmlns:xlink="http://www.w3.org/1999/xlink" x="0px" y="0px" 
	width="100%" height="100%" viewBox="0 0 720 1280" xml:space="preserve"
  style="position: relative;display: block;"
  >
<g>
	<g>
		<path opacity="0.6" fill="#FFFFFF" stroke="#00A0E9" stroke-width="4.9825" d="M698.459,589.864l5.999-10.017l2.997-10.018
			l-8.996-7.345c0,0-1.999-8.015,0-10.018c1.998-2.006,5.328-10.689,5.328-18.035c0-7.346,0-30.724,0-30.724
			s5.111-15.36,3.223-17.364c-1.888-2.002-1.443-10.017,0-15.361c1.445-5.344,2.111-8.682,2.776-11.356
			c0.668-2.671,6.663-18.033,6.663-18.033v-4.006v-4.005c0,0-20.659-5.344-22.656-5.344c-2,0-35.984-5.343-35.984-5.343
			l-12.663-4.672c0,0-3.995-2.006-3.995-6.68c0-4.675,0-8.684,0-8.684l-8.279-4.004c0,0-3.053,0.667-5.716,0
			c-2.667-0.672-15.996-8.017-19.991-9.353c-4.002-1.335-5.336,4.676-9.33-4.674c-4.001-9.35-4.001-6.678-4.666-13.358
			c-0.667-6.677-0.667-7.346,0-11.354c0.665-4.009,2.667-9.352,3.331-14.028c0.668-4.672,0.668-14.024,0.668-14.024
			s0-13.057-1.332-13.874c-1.334-0.819-4.098-4.827-7.382-8.833c-3.278-4.008-10.61-6.011-10.61-6.011s-18.662-4.674-21.325-4.674
			c-2.666,0-8.662,4.008-18.66,0c-9.993-4.009-13.994-7.347-15.991-8.682c-2.004-1.336-11.329-11.356-12.662-13.359
			c-1.333-2.004-7.229-8.682-7.229-8.682s-10.097-4.674-12.766-6.68c-2.663-2.004-14.656-9.349-14.656-9.349l-8.664-14.692
			l-2.001-4.01c-5.331,7.347-3.996,8.015-7.993,10.688c-4,2.671-11.774,4.676-14.552,8.014c-2.776,3.34-11.44,8.684-13.44,10.02
			c-1.999,1.335-10.661,4.004-15.992,6.009c-5.332,2.004-13.997,5.346-17.329,5.346s-4.666,0-15.327,0
			c-10.66,0-7.327,2.669-14.658,0c-7.332-2.676-8.663-4.678-18.66-8.018c-9.996-3.337-11.996-3.337-14.663-5.343
			c-2.664-2.004-7.997-6.678-7.997-6.678s-5.33-9.35-12.657-9.35c-7.333,0-7.333,0-7.333,0l-25.321,3.34c0,0-7.331-0.669-9.33-2.004
			c-1.999-1.336,3.997-1.336-7.999-4.677c-11.994-3.337-7.33-2.003-11.994-3.337c-4.664-1.338-17.325,5.343-18.661,7.345
			c-1.33,2.004-11.328,9.352-15.994,15.361c-4.663,6.01-17.989,18.034-20.656,21.375c-2.663,3.337-9.994,10.683-12.663,14.025
			c-2.661,3.339-13.327,11.351-15.326,13.354c-2,2.004-6.665,6.681-12.66,8.684c-5.998,2.004,0.667-2.003-10.662,0
			c-11.33,2.004-12.663-0.848-14.663,0.579c-1.999,1.425-20.659-3.918-20.659-3.918l-15.325-2.003l-18.658-3.342
			c0,0-7.331-4.674-13.329-4.674c-5.996,0-8.665-1.333-10.662-2.001c-1.998-0.67-6.663-1.337-6.663-1.337l-3.332-2.002
			c0,0,0,0-6.05,5.117c-6.048,5.12,0,3.564,0,3.564s-5.724,2.67-13.721,9.797c-7.996,7.124,0,0-3.553,1.041
			c-3.556,1.044-5.331,9.642-7.107,13.206c-1.78,3.562,0,8.905,0,8.905l2.665,8.907c0,0,4.443,8.013,7.106,9.792
			c2.667,1.781,5.333,8.015,7.998,9.795c2.667,1.78,6.221,8.016,6.221,8.016s0.889,9.795,0,16.027
			c-0.891,6.234-2.667,9.799-4.443,12.471c-1.775,2.669-2.667,6.232-7.109,10.686c-4.441,4.453-4.441,5.342-9.472,8.904
			c-0.166,0.115-0.293,0.22-0.438,0.327l16.129,5.018l16.389,5.344l4.935,8.345c0,0,7.11-3.004,10.665-3.894
			c3.553-0.889,15.105-2.67,15.105-2.67s7.105,2.447,9.773,6.564c2.665,4.123,4.442,13.918,11.549,13.918s13.33,4.452,13.33,4.452
			h7.106l6.22,3.564l9.773,5.34l11.552-5.345l15.993-6.235c0,0,18.659,0.893,21.324,0.893c2.667,0,7.109,10.688,7.109,10.688h9.773
			l10.664-3.565l7.775-1.78l9.107,12.467l18.882,18.701v8.015v8.015c0,0,7.997-2.675,9.996,0c2,2.669,8.663,8.682,8.663,8.682
			s-2,1.333,0,3.34c2,2.002-2,4.004,0,10.018c2,6.009,1.821,6.677,0.574,10.686c-1.24,4.008-7.903,12.022-7.903,12.022l-3.999,7.347
			l1.333,8.015l1.333,6.009l-24.437,29.164c0,0-3.552,14.248-5.327,16.923c-1.778,2.668-5.78,9.791-8.222,15.135
			c-2.442,5.343-5.105,8.011-11.329,14.25c-6.218,6.235-13.329,13.355-16.881,17.806c-3.556,4.455-16.883,11.58-16.883,11.58
			l-6.219,11.575h4.441c0,0,7.999,10.687,10.664,10.687c2.666,0,8.884-3.559,8.884-3.559l7.111,3.559l4.885,7.125
			c0,0-1.778,10.24-4.887,6.678c-3.109-3.562-10.218-1.782-8.442,0c1.78,1.783,5.333,1.335,3.114,4.456
			c-2.222,3.117-7.111,4.896-5.335,7.125c1.78,2.224,5.777,5.341,2.669,7.12c-3.11,1.782-6.666,1.339-8.443,2.229
			c-1.775,0.888-3.109,4.896-3.109,6.231c0,1.337,1.334,4.896,2.221,8.906c0.889,4.009,1.333,5.79,1.333,8.906
			c0,3.114-3.109,12.02-3.109,12.02l1.336,4.454c0,0,0.887,1.781,3.552,0c2.665-1.78,5.773-7.57,7.107-8.907
			c1.336-1.337,3.112-3.116,5.775-5.342c2.667-2.225,3.109-3.119,5.779-5.344c2.661-2.226,4.885-2.226,5.329-5.343
			c0.446-3.116,0.446-3.116,0.446-3.116s8.886,2.225,12.883,2.225c3.996,0,10.219,4.457,9.328,1.337
			c-0.888-3.117-2.22-8.459-2.22-8.459s3.552-2.229,4.89-3.562c1.331-1.338,2.663-7.57,2.663-10.242s-0.888-3.56,1.774-5.79
			c2.668-2.223,5.78-3.115,5.78-3.115s3.554-2.226,4.886-3.561c1.332-1.337,1.332,0.888,3.999-2.229
			c2.665-3.115,6.661-5.339,9.772-7.568c3.112-2.225-0.98-0.443,4.397-3.559c0.547-0.317,1.052-0.607,1.542-0.887
			c-0.61-0.791-1.05-1.345-1.05-1.345v-6.679c0,0,0-5.343,0-8.013c0-2.671,0-12.692,0-14.695c0-1.999,0-14.024,0-16.028
			c0-2.001,5.998-10.687,5.998-10.687l8.662-12.691c0,0,6.664-6.009,11.328-10.016c4.666-4.006,5.998-6.011,7.997-9.348
			c2-3.342,11.998-6.015,11.998-6.015s12.657-6.009,14.658-6.676c1.999-0.67,13.994,1.333,17.995,1.333
			c3.995,0,11.996,0,17.991,1.336c5.998,1.336,8.072-4.678,8.072-4.678l0.593-6.008c0,0-1.334-8.686,0-13.358
			c1.331-4.675,9.994-12.69,19.987-14.693c9.997-2.004,6-3.339,6-3.339s7.332-13.358,15.326-13.847
			c7.995-0.491,17.327,9.84,23.325,9.84c4.397,0,5.207,0,5.334,0c0,0,4.661-4.01,4.661-9.84c0-2.727,0-3.374,0-3.502
			c0-0.027,0-0.039,0-0.036c0-0.056,0-0.221,0-0.65c0-2.003,0-5.341,0-5.341l4.666-12.021c0,0,3.998-4.675,7.995-8.683
			c4-4.009,6.665-8.683,6.665-8.683s6.664-6.009,6.664-8.681c0-2.674,11.328-18.702,13.329-20.037
			c1.999-1.336,10.661-9.35,9.328-14.694c-1.331-5.343,8.663-13.359,8.663-13.359l10.662-2.003l10.823-4.675l11.169,4.009
			l3.331,5.34c0,0,5.329,8.686,6.661,10.688c1.334,2.001,0.671,5.344,0.671,5.344l1.998,5.341l1.333,10.02
			c0,0,0,10.019,0.666,13.357c0.664,3.341,4.665,6.009,4.665,8.015c0,2.002-1.333,10.685-1.333,10.685s-1.332,3.342-5.331,3.342
			c-4.001,0-7.328,6.009-7.328,6.009l-5.333,7.346c0,0,3.999,4.008,6.662,4.676c2.666,0.669,3.33,7.344,3.33,7.344l-0.664,6.014
			v6.01c0,0-1.998,5.342-3.995,6.011c-2.002,0.666-2.002,9.35-2.002,9.35l-1.998,13.359l-5.998,12.021c0,0-1.333,3.339-4.962,5.343
			c-3.629,2.002,0.295,4.677,0.295,4.677s-0.665,6.008,0,8.682c0.665,2.67,5.331,4.674,5.331,4.674v4.007l7.332,4.007l3.999,6.682
			l7.33,12.021l2.665,0.355l6.668-0.164c0,0,4.661,0.475,7.992-0.191c3.333-0.669,9.999,0.666,11.999,0
			c1.995-0.669,15.322,0,15.322,0h13.331c0,0,6.666-4.01,13.991-7.347c7.332-3.341,7.997,0,7.997,0l9.998,7.347h11.078l0,0
			l0.471-2.45l0.888-9.35l4.665-1.561c0,0,2.445-0.89,4.889-2.003c2.445-1.112,3.111-1.78,3.111-1.78l0.888-2.225l1.108-4.233h1.557
			c0,0,2.223-0.443,3.776-0.443c1.553,0,3.109,0,3.109,0l0.668-2.004l-1.111-2.228c0,0-0.223-1.108,0.665-4.007
			c0.887-2.895,10.885-3.56,10.885-3.56l1.334-1.114c0,0,1.332-2.894,1.998-3.783c0.668-0.895,0.89-2.451,2.444-3.339
			c1.553-0.892,13.324-1.336,13.324-1.336l-3.108-8.684L698.459,589.864z"/>
	</g>
	
		<text transform="matrix(1 0 0 1 612.3809 626.0244)" opacity="0" fill="#040000" enable-background="new    " font-family="'SimHei'" font-size="20">轮廓</text>
</g>
<g>
	<g>
		<path fill="#FFFFFF" stroke="#E60012" stroke-width="1.7634" d="M293.484,319.352c0,4.447-3.609,8.056-8.062,8.056
			c-4.454,0-8.06-3.609-8.06-8.056c0-4.455,3.606-8.064,8.06-8.064C289.875,311.287,293.484,314.896,293.484,319.352z"/>
		<rect x="203.465" y="308.046" fill="#00A0E9" width="69.842" height="29.083"/>
		<g>
			<g>
				<path fill="#0B318F" d="M220.532,320.027c0.384-0.384,0.688-0.825,0.908-1.32c0.99,0.606,2.311,1.485,3.961,2.641
					c-0.441,0.495-0.798,0.963-1.073,1.403C222.842,321.541,221.576,320.633,220.532,320.027z M224.246,327.62
					c-0.496,1.21-1.156,2.558-1.981,4.043c-0.22-0.33-0.743-0.633-1.568-0.908c0.66-0.935,1.292-2.022,1.898-3.26
					c0.605-1.238,1.127-2.406,1.568-3.507c0.384,0.441,0.825,0.798,1.32,1.073C225.153,325.556,224.741,326.41,224.246,327.62z
					 M226.391,315.901c-0.386,0.495-0.743,0.963-1.073,1.403c-1.267-1.044-2.531-1.925-3.796-2.641
					c0.384-0.439,0.688-0.852,0.908-1.238C223.474,314.031,224.795,314.856,226.391,315.901z M238.852,328.032v1.485
					c-0.441-0.054-0.99-0.083-1.65-0.083c-0.111,1.265-0.371,2.035-0.784,2.311c-0.413,0.275-1.087,0.467-2.022,0.578
					c-0.165-0.495-0.386-1.045-0.66-1.65c0.825,0.054,1.361,0.013,1.609-0.124c0.248-0.138,0.398-0.508,0.454-1.114h-7.922
					c0.165-1.705,0.302-3.383,0.413-5.034c-0.606,0-1.238,0.028-1.898,0.083v-1.485c0.549,0.056,1.209,0.083,1.98,0.083
					c0.11-2.035,0.192-3.52,0.248-4.456c-0.276,0.385-0.771,1.045-1.485,1.98c-0.386-0.384-0.798-0.714-1.238-0.99
					c0.935-0.935,1.719-2.035,2.352-3.301c0.632-1.265,1.085-2.447,1.361-3.548c0.66,0.385,1.238,0.633,1.733,0.743
					c-0.22,0.276-0.523,0.825-0.908,1.65h5.942c1.044,0,1.98-0.027,2.806-0.083v1.485c-0.825-0.054-1.788-0.083-2.888-0.083h-6.437
					c-0.385,0.66-0.771,1.293-1.155,1.898h8.995c-0.055,1.32-0.111,2.888-0.165,4.704c0.605,0,1.265-0.027,1.98-0.083v1.485
					c-0.715-0.054-1.403-0.083-2.063-0.083c-0.055,0.716-0.111,1.954-0.165,3.714C237.668,328.115,238.192,328.087,238.852,328.032z
					 M236.129,324.401h-6.52c-0.111,1.485-0.193,2.724-0.248,3.714h6.602L236.129,324.401z M229.857,319.697
					c0,0.715-0.055,1.844-0.165,3.383h6.52c0-1.209,0.027-2.338,0.083-3.383H229.857z M233.983,327.125
					c-0.441,0.22-0.825,0.468-1.155,0.743c-0.441-0.879-0.908-1.678-1.403-2.394c0.384-0.274,0.743-0.522,1.073-0.743
					C233.103,325.612,233.598,326.41,233.983,327.125z M234.066,322.173c-0.441,0.221-0.825,0.468-1.155,0.743
					c-0.33-0.714-0.743-1.485-1.238-2.311l0.991-0.743C233.268,320.743,233.736,321.513,234.066,322.173z"/>
				<path fill="#0B318F" d="M250.076,329.889c0.33-0.136,0.495-0.481,0.495-1.031v-6.024h-5.859c-0.771,0-1.679,0.028-2.723,0.083
					v-1.485c1.044,0.055,1.952,0.083,2.723,0.083h5.859c0-0.879-0.028-1.87-0.083-2.971c0.77-0.33,1.554-0.743,2.352-1.238
					c0.797-0.495,1.719-1.073,2.765-1.733h-8.417c-1.155,0-2.174,0.028-3.054,0.083v-1.485c1.156,0.056,2.118,0.083,2.889,0.083
					h11.636v1.485c-0.825,0.33-1.733,0.771-2.723,1.32c-0.99,0.551-2.228,1.321-3.714,2.311v2.146h5.529
					c0.935,0,1.98-0.054,3.136-0.165v1.485c-1.155-0.054-2.201-0.054-3.136,0h-5.529v6.602c0,1.1-0.317,1.76-0.949,1.98
					c-0.633,0.219-1.582,0.384-2.847,0.495c-0.111-0.606-0.358-1.238-0.743-1.898C248.947,330.068,249.746,330.027,250.076,329.889z
					"/>
			</g>
		</g>
		<polygon fill="#1D2088" points="306.954,298.122 287.355,290.331 287.355,289.964 285.502,289.964 285.502,321.745 
			287.355,321.745 287.355,306.684 		"/>
	</g>
	<g opacity="0">
		<text transform="matrix(1 0 0 1 285.5024 348.2749)" fill="#040000" font-family="'ArialMT'" font-size="15">1</text>
		<rect x="189.104" y="266.692" fill="none" stroke="#040000" stroke-width="0.714" width="134" height="94.951"/>
	</g>
</g>
<g>
	<g>
		<circle fill="#FFFFFF" stroke="#E60012" stroke-width="1.7271" cx="520.595" cy="337.12" r="7.896"/>
		<rect x="530.4" y="325.563" fill="#00A0E9" width="68.398" height="28.488"/>
		<g>
			<g>
				<path fill="#0B318F" d="M553.062,330.978c-0.161,1.563-0.351,2.978-0.565,4.244c-0.216,1.267-0.594,2.681-1.132,4.243
					c1.563,1.887,2.587,3.233,3.071,4.042c-0.432,0.27-0.889,0.62-1.374,1.051c-0.755-1.185-1.563-2.316-2.425-3.395
					c-0.539,1.132-1.119,2.17-1.737,3.112c-0.62,0.944-1.469,1.954-2.546,3.031c-0.324-0.432-0.809-0.755-1.455-0.97
					c1.077-0.916,1.98-1.872,2.707-2.87c0.728-0.997,1.334-2.142,1.819-3.435c-0.756-1.023-2.049-2.478-3.88-4.365
					c0.431-0.376,0.809-0.754,1.132-1.131c1.454,1.509,2.586,2.776,3.395,3.799c0.269-0.647,0.512-1.481,0.728-2.506
					c0.215-1.023,0.35-2.154,0.404-3.395h-2.91c-1.186,0-2.183,0.028-2.99,0.081v-1.616c0.861,0.054,1.831,0.081,2.909,0.081
					H553.062z M562.114,330.816c-0.378,2.964-0.836,5.389-1.374,7.274c-0.539,1.887-1.212,3.449-2.021,4.688
					c0.646,0.863,1.414,1.63,2.304,2.304c0.889,0.674,1.818,1.198,2.788,1.576c-0.646,0.269-1.186,0.727-1.616,1.374
					c-0.594-0.378-1.308-0.903-2.142-1.576c-0.837-0.673-1.631-1.496-2.385-2.465c-0.539,0.701-1.253,1.428-2.142,2.182
					c-0.89,0.754-1.954,1.508-3.193,2.263c-0.377-0.539-0.836-0.917-1.374-1.131c1.4-0.701,2.6-1.495,3.597-2.384
					s1.71-1.657,2.143-2.304c-0.756-1.886-1.267-3.462-1.536-4.729c-0.271-1.265-0.513-3.138-0.728-5.617h-0.808v-1.536
					c1.022,0.055,2.073,0.081,3.151,0.081H562.114z M556.537,337.121c0.215,1.078,0.646,2.398,1.293,3.96
					c0.593-1.132,1.104-2.452,1.536-3.96c0.431-1.508,0.728-3.125,0.889-4.85h-4.283
					C556.133,334.427,556.321,336.043,556.537,337.121z"/>
				<path fill="#0B318F" d="M575.612,331.14h4.445c0.97,0,1.859-0.026,2.667-0.081v1.455c-0.808-0.053-1.671-0.081-2.586-0.081
					h-4.526v1.212h3.88c0.699,0,1.454-0.027,2.263-0.081v1.455c-0.809-0.053-1.563-0.081-2.263-0.081h-3.88v1.132h5.415
					c1.023,0,1.967-0.027,2.829-0.081v1.455c-0.809-0.053-1.752-0.081-2.829-0.081h-12.608c-0.863,0-1.726,0.028-2.587,0.081v-1.455
					c0.916,0.054,1.778,0.081,2.587,0.081h5.577v-1.132h-3.719c-0.862,0-1.671,0.028-2.425,0.081v-1.455
					c0.754,0.054,1.563,0.081,2.425,0.081h3.719v-1.212h-4.607c-0.917,0-1.752,0.028-2.506,0.081v-1.455
					c0.861,0.054,1.697,0.081,2.506,0.081h4.607c0-0.646-0.028-1.212-0.081-1.697h1.778
					C575.639,329.981,575.612,330.547,575.612,331.14z M579.653,346.375c0.215-0.134,0.296-0.525,0.243-1.172h-9.861v2.991h-1.536
					c0.054-0.863,0.081-1.966,0.081-3.314v-3.152c0-1.185-0.027-2.263-0.081-3.233h13.014c-0.108,1.024-0.162,2.129-0.162,3.314
					v4.607c0,0.646-0.216,1.077-0.646,1.293c-0.432,0.214-1.159,0.404-2.183,0.565c-0.108-0.539-0.403-1.105-0.889-1.697
					C578.765,346.578,579.438,346.509,579.653,346.375z M579.896,341.243v-1.455h-9.861v1.455H579.896z M579.896,343.911v-1.375
					h-9.861v1.375H579.896z"/>
			</g>
		</g>
		<polygon fill="#E60012" points="540.502,316.875 521.307,309.244 521.307,308.883 519.481,308.883 519.481,340.011 
			521.307,340.011 521.307,325.263 		"/>
	</g>
	<g opacity="0">
		<text transform="matrix(1 0 0 1 576.9551 313.6313)" fill="#040000" font-family="'ArialMT'" font-size="15">2</text>
		<rect x="486.604" y="273.41" fill="none" stroke="#040000" stroke-width="0.714" width="134" height="94.951"/>
	</g>
</g>
<g>
	<g>
		<g>
			<polygon fill="#E60012" stroke="#E72922" stroke-width="1.1815" points="449.805,430.2 453.174,440.562 464.074,440.562 
				455.255,446.963 458.622,457.337 449.805,450.928 440.987,457.337 444.355,446.963 435.537,440.562 446.44,440.562 			"/>
		</g>
		<path fill="#DD4422" d="M555.514,355.37H418.911c-4.666,0-8.448,4.058-8.448,9.061v36.261c0,5.003,3.782,9.066,8.448,9.066h11.165
			l10.66,19.572l9.981-19.572h104.796c4.666,0,8.452-4.063,8.452-9.066v-36.261C563.966,359.428,560.18,355.37,555.514,355.37z"/>
		<path fill="#E76E43" d="M553.849,357.596H420.991c-4.541,0-8.219,3.677-8.219,8.219v32.872c0,4.537,3.678,8.215,8.219,8.215h10.86
			l8.838,18.194l9.249-18.194h103.91c4.537,0,8.216-3.678,8.216-8.215v-32.872C562.064,361.273,558.386,357.596,553.849,357.596z"/>
		<g>
			<path fill="#FFFFFF" d="M436.163,387.153c-1.809,3.198-4.467,6.449-7.977,9.755c-0.671-0.875-1.76-1.635-3.27-2.282
				c3.354-2.06,6.354-5.545,9.001-10.456c-1.929-2.791-3.959-5.216-6.091-7.276l2.821-2.138c0.071,0.072,0.173,0.186,0.305,0.341
				c2.156,2.407,3.659,4.228,4.51,5.461c0.91-2.575,1.467-5.587,1.671-9.037h-6.001c-1.641-0.012-2.964,0.12-3.97,0.395v-3.557
				c1.317,0.251,2.641,0.384,3.97,0.396h5.839c1.545-0.012,2.91-0.144,4.097-0.396c-0.072,0.407-0.198,1.383-0.378,2.929
				c-0.096,0.802-0.168,1.419-0.215,1.85c-0.611,4.467-1.491,8.037-2.642,10.708c1.713,2.084,3.216,4.168,4.51,6.252l-2.785,2.497
				C438.361,390.393,437.229,388.578,436.163,387.153z M449.045,390.063c-2.42,2.886-5.45,5.437-9.091,7.653
				c-0.958-0.982-2.144-1.827-3.557-2.533c4.239-1.593,7.82-4.33,10.743-8.21c-2.084-4.348-3.569-9.426-4.456-15.235l-1.329,0.18
				v-3.557c1.521,0.264,2.652,0.396,3.396,0.396h8.084c1.797-0.024,3.342-0.12,4.636-0.288c-0.372,1.39-0.785,3.156-1.24,5.3
				c-1.042,4.599-2.725,9.048-5.048,13.348c2.071,3.174,5.186,5.982,9.342,8.426c-1.365,0.635-2.516,1.491-3.449,2.569
				C453.613,395.369,450.937,392.686,449.045,390.063z M453.051,371.523h-6.791c0.455,3.797,1.485,7.719,3.09,11.767
				C451.051,379.829,452.284,375.906,453.051,371.523z"/>
			<path fill="#FFFFFF" d="M474.368,376.445c-0.694,0.898-1.604,1.94-2.73,3.126c-0.874-0.982-1.904-1.695-3.09-2.138
				c3.893-3.15,6.605-7.414,8.139-12.792l3.557,1.275c0.432,0.168,0.641,0.384,0.629,0.647c-0.036,0.264-0.281,0.479-0.736,0.647
				c-0.3,0.107-0.569,0.437-0.809,0.988c-0.646,1.498-1.233,2.761-1.761,3.791v11.372c0.012,1.066,0.096,2.18,0.252,3.342h-3.755
				c0.203-1.366,0.305-2.479,0.305-3.342V376.445z M474.764,394.321h10.223v-3.126h-7.097c-1.066,0-2.239,0.125-3.521,0.377v-3.432
				c1.126,0.216,2.3,0.33,3.521,0.341h7.097v-0.27c0-0.527-0.097-1.557-0.288-3.09l3.684,0.449c0.096-0.755,0.144-1.539,0.144-2.354
				v-2.731c-2.024,2.048-4.809,4.084-8.354,6.108c-0.945-1.258-1.754-2.138-2.425-2.641c2.635-0.766,5.491-2.521,8.569-5.264h-4.042
				c-1.126,0-2.306,0.126-3.539,0.377v-3.432c1.329,0.251,2.509,0.377,3.539,0.377h6.252v-1.707h-3.611
				c-0.419,0-1.641,0.125-3.665,0.377c-0.144,0.012-0.245,0.024-0.305,0.036c0.215-1.557,0.341-2.785,0.377-3.683v-1.796
				c0.012-1.162-0.09-2.329-0.306-3.503c2.024,0.299,3.323,0.449,3.898,0.449h10.313c0.622-0.012,1.922-0.162,3.898-0.449
				c-0.168,1.365-0.264,2.467-0.288,3.305v2.318c0.012,0.707,0.096,1.826,0.252,3.359c-1.354-0.216-2.533-0.353-3.539-0.413h-3.862
				v1.707h6.88c0.994,0,2.162-0.126,3.504-0.377v3.432c-1.474-0.251-2.642-0.377-3.504-0.377h-4.922
				c2.407,2.288,5.706,3.88,9.898,4.779c-1.293,0.767-2.377,1.796-3.252,3.09c-3.509-1.772-6.377-3.743-8.604-5.91v2.569
				c0.023,1.21,0.137,2.348,0.341,3.414h-2.91l-0.216,0.233c-0.335,0.228-0.497,0.767-0.485,1.617h6.881
				c1.03,0,2.192-0.114,3.485-0.341v3.359c-1.342-0.203-2.503-0.305-3.485-0.305h-6.916v3.126h10.258
				c1.126,0,2.293-0.132,3.503-0.396v3.45c-1.126-0.252-2.293-0.384-3.503-0.396h-23.876c-1.102,0-2.275,0.12-3.521,0.359v-3.414
				C472.452,394.177,473.626,394.309,474.764,394.321z M484.519,371.703h11.067v-2.875h-11.067V371.703z"/>
			<path fill="#FFFFFF" d="M516.455,383.039h1.761v-3.755c-0.467,0.012-1.605,0.12-3.413,0.324v-1.06
				c-0.982-0.814-2.174-1.341-3.575-1.581c3.174-2.695,5.455-6.743,6.845-12.145l3.197,1.509c0.551,0.287,0.817,0.569,0.8,0.844
				c-0.018,0.276-0.32,0.521-0.907,0.736c-0.191,0.096-0.497,0.587-0.916,1.473c-0.097,0.144-0.354,0.635-0.772,1.473h3.413
				c1.042-0.036,2.233-0.137,3.575-0.305v3.324c-1.569-0.18-2.749-0.281-3.539-0.306h-4.743c-0.73,1.222-1.342,2.204-1.832,2.946
				c0.802,0.072,1.437,0.108,1.904,0.108h3.935c1.018-0.048,2.174-0.156,3.467-0.323v3.27c-1.449-0.167-2.604-0.263-3.467-0.288
				h-0.737v3.755h1.438c0.958-0.048,2.126-0.162,3.503-0.341v3.288c-0.096-0.012-0.233-0.024-0.413-0.036
				c-1.845-0.18-2.862-0.27-3.054-0.27h-1.474v6.145c1.15-0.875,2.306-1.856,3.468-2.946c0.203,1.377,0.509,2.509,0.916,3.395
				c-3.485,2.635-5.665,4.449-6.539,5.444l-2.479-3.126c0.658-0.443,1.048-0.803,1.168-1.078c0.167-0.275,0.245-0.802,0.233-1.581
				v-6.252h-1.761c-0.407,0-1.575,0.084-3.503,0.252v-3.198C514.557,382.913,515.725,383.015,516.455,383.039z M526.947,398.561
				c-0.503-1.03-1.414-1.952-2.731-2.767c3.929-1.018,6.701-2.551,8.318-4.599h-2.982c-0.335,0-1.551,0.114-3.646,0.341v-3.324
				c1.197,0.156,2.096,0.246,2.694,0.27v-16.043h5.803v-1.509h-4.186c-0.204,0-0.946,0.06-2.228,0.18
				c-0.6,0.048-1.036,0.083-1.312,0.107v-3.341c1.305,0.168,2.484,0.275,3.539,0.323h4.186l-0.251-3.449l3.305,0.431
				c0.432,0.084,0.713,0.288,0.845,0.611c0.012,0.048,0.019,0.114,0.019,0.198c0,0.251-0.126,0.473-0.378,0.665
				c-0.168,0.144-0.251,0.659-0.251,1.545h4.635c1.042-0.048,2.216-0.155,3.521-0.323v3.341c-0.216-0.024-0.558-0.054-1.024-0.09
				c-1.461-0.131-2.294-0.197-2.497-0.197h-4.635v1.509h6.018v16.043h0.036c0.935-0.036,2.03-0.149,3.288-0.341v3.359
				c-1.868-0.203-2.965-0.305-3.288-0.305h-3.862c2.755,1.377,5.174,2.85,7.258,4.419l-2.03,2.767
				c-2.407-2.048-4.982-3.683-7.725-4.904l1.581-2.282h-5.516l1.923,1.437c0.49,0.384,0.736,0.695,0.736,0.935
				c0,0.036-0.021,0.119-0.063,0.251c-0.042,0.131-0.428,0.239-1.158,0.323c-0.264-0.024-0.826,0.257-1.688,0.844
				C531.271,396.398,529.187,397.59,526.947,398.561z M540.475,376.481v-1.473h-8.642v1.473H540.475z M531.833,380.452h8.642v-1.383
				h-8.642V380.452z M540.475,384.386v-1.347h-8.642v1.347H540.475z M531.833,386.973v1.509h8.642v-1.509H531.833z"/>
		</g>
	</g>
	<g opacity="0">
		<text transform="matrix(1 0 0 1 487.418 432.5)" fill="#040000" font-family="'ArialMT'" font-size="15">0</text>
		<rect x="396.4" y="345.433" fill="none" stroke="#040000" stroke-width="0.9329" width="175.1" height="124.056"/>
	</g>
</g>
<g>
	<g>
		<path fill="#FFFFFF" stroke="#E60012" stroke-width="1.6394" d="M132.51,405.18c0,4.138-3.352,7.491-7.495,7.491
			c-4.137,0-7.493-3.354-7.493-7.491c0-4.141,3.356-7.499,7.493-7.499C129.158,397.681,132.51,401.039,132.51,405.18z"/>
		<rect x="136.827" y="391.658" fill="#E60012" width="64.93" height="27.041"/>
		<g>
			<path fill="#FFFFFF" d="M149.418,400.98l5.678-0.307l-0.614,10.204c-0.103,0.87,0.179,1.304,0.844,1.304h1.304
				c0.409,0,0.678-0.154,0.806-0.46c0.127-0.307,0.242-1.176,0.345-2.608c0.614,0.358,1.228,0.588,1.841,0.69
				c-0.256,1.739-0.525,2.826-0.805,3.261c-0.282,0.434-0.832,0.652-1.65,0.652h-2.608c-1.177,0-1.765-0.717-1.765-2.148
				l0.537-9.437l-3.99,0.23c-0.256,2.507-0.832,4.719-1.726,6.637c-0.896,1.918-2.263,3.669-4.105,5.255
				c-0.358-0.512-0.844-0.972-1.458-1.381c1.125-0.614,2.25-1.765,3.376-3.453c1.125-1.688,1.866-4.015,2.225-6.982
				c-1.841,0.104-3.325,0.23-4.45,0.384l-0.23-1.534c1.074,0,2.659-0.077,4.757-0.23c0.102-2.403,0.102-3.99,0-4.757
				c0.869,0.103,1.56,0.153,2.071,0.153C149.648,397.067,149.52,398.577,149.418,400.98z"/>
			<path fill="#FFFFFF" d="M169.865,398.41c-0.026,0.69-0.09,1.599-0.192,2.724h6.215c0.92,0,1.841-0.05,2.762-0.153v1.535
				c-0.92-0.051-1.841-0.077-2.762-0.077h-3.76v6.982c0.614-0.716,1.228-1.521,1.842-2.417c0.614-0.895,1.099-1.803,1.458-2.724
				c0.664,0.307,1.304,0.563,1.918,0.767c-0.717,0.717-1.433,1.638-2.148,2.762c-0.717,1.126-1.714,2.251-2.992,3.376
				c-0.052,0.87,0.012,1.33,0.191,1.381c0.179,0.051,0.473,0.102,0.882,0.154h2.456c0.614-0.052,1.047-0.103,1.304-0.154
				c0.255-0.051,0.485-0.715,0.69-1.995c0.511,0.512,1.099,0.819,1.765,0.921c-0.512,1.125-0.896,1.815-1.151,2.071
				c-0.257,0.255-0.69,0.384-1.304,0.384h-4.527c-0.819,0-1.331-0.115-1.534-0.345c-0.205-0.23-0.307-0.704-0.307-1.419
				c-0.307,0.255-0.78,0.562-1.419,0.92c-0.64,0.357-1.189,0.664-1.649,0.921c-0.153-0.307-0.537-0.717-1.151-1.228
				c0.716-0.257,1.483-0.614,2.302-1.074c0.817-0.46,1.458-0.895,1.918-1.304v-7.979h-1.074c-0.256,1.484-0.537,2.686-0.844,3.606
				c-0.307,0.921-0.69,1.803-1.151,2.647c-0.46,0.844-1.049,1.688-1.765,2.532c-0.717,0.844-1.714,1.803-2.992,2.877
				c0-0.307-0.487-0.742-1.458-1.304c0.869-0.46,1.674-1.061,2.417-1.803c0.741-0.741,1.406-1.546,1.995-2.417
				c0.587-0.869,1.061-1.815,1.419-2.839c0.357-1.022,0.614-2.122,0.768-3.299h-2.992c-0.921,0-1.868,0.026-2.839,0.077v-1.458
				c1.022,0.052,1.968,0.077,2.839,0.077h3.222c0.05-0.614,0.089-1.354,0.115-2.225c0.025-0.869-0.013-1.765-0.115-2.686
				c1.074,0.256,1.765,0.41,2.071,0.46C170.03,397.145,169.89,397.72,169.865,398.41z M174.737,400.597
				c-0.512-0.767-1.203-1.611-2.072-2.532c0.357-0.255,0.741-0.587,1.151-0.998c0.664,0.614,1.381,1.433,2.148,2.456
				C175.708,399.728,175.299,400.086,174.737,400.597z"/>
			<path fill="#FFFFFF" d="M183.79,403.973v7.059h5.371v-11.508c0-0.921-0.026-1.841-0.077-2.762h1.688
				c-0.052,0.717-0.077,1.638-0.077,2.762v11.508h5.371v-7.212c0-1.125-0.026-2.072-0.077-2.839h1.764
				c-0.051,0.614-0.077,1.561-0.077,2.839v6.214c0,1.228,0.025,2.532,0.077,3.913h-1.688v-1.611h-13.964
				c0.05-1.125,0.077-2.225,0.077-3.299v-4.987c0-1.176-0.026-2.225-0.077-3.146h1.765
				C183.815,402.131,183.79,403.155,183.79,403.973z"/>
		</g>
		<polygon fill="#00A0E9" points="145.345,387.063 127.12,379.823 127.12,379.479 125.395,379.479 125.395,409.025 127.12,409.025 
			127.12,395.024 		"/>
	</g>
	<g opacity="0">
		<text transform="matrix(1 0 0 1 139.2061 443.0229)" fill="#040000" font-family="'ArialMT'" font-size="15">3</text>
		<rect x="82" y="364.75" fill="none" stroke="#040000" stroke-width="0.714" width="129.5" height="83.946"/>
	</g>
</g>
<g>
	<g>
		<path fill="#FFFFFF" stroke="#E60012" stroke-width="1.7602" d="M644.889,522.279c0,4.447-3.597,8.047-8.046,8.047
			c-4.44,0-8.041-3.6-8.041-8.047c0-4.444,3.601-8.044,8.041-8.044C641.292,514.235,644.889,517.835,644.889,522.279z"/>
		<rect x="581.831" y="530.981" fill="#FFF100" width="69.714" height="29.031"/>
		<g>
			<g>
				<path d="M600.967,539.541v2.883h4.448c-0.055,1.264-0.082,2.527-0.082,3.79c0,1.208,0.027,2.197,0.082,2.965h-4.53
					c-0.056,0.988-0.247,1.977-0.577,2.965c-0.329,0.988-0.77,2.031-1.317,3.13c-0.44-0.44-0.935-0.714-1.482-0.824
					c0.877-1.318,1.413-2.772,1.605-4.366c0.192-1.592,0.289-3.377,0.289-5.354s-0.028-4.063-0.083-6.26
					c2.966-0.33,4.914-0.742,5.849-1.236c0.219,0.494,0.521,1.044,0.906,1.647C605.47,538.937,603.768,539.157,600.967,539.541z
					 M603.933,547.778v-4.037h-2.966v4.037H603.933z M612.911,539.252c-1.044,0.138-2.361,0.261-3.954,0.371v3.954h4.695
					c0.769,0,1.593-0.027,2.472-0.083v1.483c-0.879-0.054-1.73-0.083-2.554-0.083v7.332c0,1.099,0.027,2.086,0.082,2.965h-1.729
					c0.054-0.988,0.082-1.977,0.082-2.965v-7.332h-3.048c-0.11,2.197-0.329,3.913-0.658,5.148c-0.33,1.236-0.715,2.265-1.153,3.089
					c-0.44,0.824-1.018,1.648-1.73,2.472c-0.385-0.44-0.852-0.77-1.4-0.989c0.934-0.879,1.675-1.907,2.225-3.089
					c0.548-1.18,0.892-2.499,1.029-3.954c0.137-1.455,0.206-2.896,0.206-4.325c0-1.482-0.028-3.102-0.082-4.86
					c0.823,0,2.03-0.095,3.624-0.289c1.592-0.191,2.854-0.48,3.789-0.865c0.274,0.605,0.549,1.182,0.824,1.73
					C614.86,539.02,613.954,539.116,612.911,539.252z"/>
				<path d="M621.561,539.294c0-0.989-0.028-1.839-0.082-2.554h1.647c-0.056,0.77-0.082,1.647-0.082,2.636v2.718
					c1.042,0,1.921-0.054,2.636-0.165v1.483c-0.77-0.054-1.647-0.083-2.636-0.083v6.343c0.933-0.274,1.839-0.577,2.718-0.906
					c0,0.44,0.027,0.879,0.082,1.318c-0.879,0.329-1.99,0.728-3.336,1.194c-1.346,0.467-2.348,0.893-3.007,1.277
					c-0.329-0.713-0.632-1.29-0.905-1.73c0.823-0.165,1.812-0.412,2.965-0.741v-6.755c-0.935,0-1.785,0.028-2.554,0.083v-1.4
					c0.769,0.055,1.619,0.082,2.554,0.082V539.294z M632.104,545.184c-0.056,1.676-0.247,3.171-0.576,4.489
					c-0.385,1.264-0.989,2.321-1.813,3.171c-0.824,0.851-2.225,1.798-4.201,2.842c-0.275-0.605-0.659-1.099-1.153-1.482
					c1.757-0.605,3.102-1.359,4.036-2.266c0.934-0.906,1.537-1.936,1.813-3.089c0.274-1.263,0.425-2.554,0.453-3.872
					c0.027-1.318,0.013-2.636-0.041-3.954c0.604,0.22,1.207,0.303,1.813,0.247C632.27,542.205,632.158,543.509,632.104,545.184z
					 M636.306,543.989c0,3.186,0.027,5.3,0.082,6.343h-1.482v-11.121h-6.755v11.038h-1.482c0.054-1.208,0.082-3.322,0.082-6.343
					c0-3.02-0.028-4.997-0.082-5.931h9.72C636.333,538.799,636.306,540.805,636.306,543.989z M637.706,554.368
					c-0.55,0.384-1.017,0.824-1.4,1.318c-1.264-1.538-2.691-3.02-4.283-4.448c0.329-0.274,0.659-0.659,0.988-1.153
					C635.262,552.117,636.827,553.544,637.706,554.368z"/>
			</g>
		</g>
		<polygon fill="#E60012" points="657.632,499.693 638.071,491.92 638.071,491.549 636.211,491.549 636.211,523.27 638.071,523.27 
			638.071,508.24 		"/>
	</g>
	<g opacity="0">
		<text transform="matrix(1 0 0 1 587.4629 511.0405)" fill="#040000" font-family="'ArialMT'" font-size="15">6</text>
		<rect x="555" y="484.747" fill="none" stroke="#040000" stroke-width="0.714" width="129.5" height="83.946"/>
	</g>
</g>
<g>
	<g>
		<path fill="#FFFFFF" stroke="#E60012" stroke-width="1.7678" d="M348.964,456.78c0,4.461-3.62,8.083-8.08,8.083
			c-4.468,0-8.083-3.622-8.083-8.083c0-4.466,3.615-8.084,8.083-8.084C345.344,448.696,348.964,452.314,348.964,456.78z"/>
		<rect x="306.748" y="469.489" fill="#E60012" width="70.015" height="29.161"/>
		<g>
			<g>
				<path fill="#FFFFFF" d="M330.424,476.784c0.55,0.442,1.212,0.8,1.985,1.075c-0.387,0.221-0.91,0.828-1.572,1.82h3.723
					c1.378,0,2.73-0.054,4.054-0.166v1.737c-1.324-0.11-2.703-0.166-4.136-0.166h-4.468c-0.496,0.552-0.951,1.09-1.365,1.613
					c-0.414,0.525-0.924,1.063-1.531,1.613h4.468c0-0.882-0.056-1.599-0.166-2.151h1.985c-0.056,0.496-0.083,1.214-0.083,2.151
					h1.985c1.324,0,2.509-0.027,3.558-0.083v1.655c-1.048-0.054-2.234-0.083-3.558-0.083h-1.985v2.316h5.377
					c0.881,0,1.764-0.027,2.647-0.083v1.572c-0.828-0.055-1.683-0.083-2.565-0.083h-5.46v1.655c0,0.937,0.027,1.764,0.083,2.482
					h-2.068c0.166-0.718,0.249-1.545,0.249-2.482v-1.655h-5.792c-1.213,0-2.179,0.028-2.896,0.083v-1.572
					c0.938,0.056,1.903,0.083,2.896,0.083h5.792v-2.316h-3.475c-0.828,0-1.71,0.083-2.647,0.248
					c-0.277-0.772-0.525-1.378-0.745-1.82c0.771-0.331,1.847-1.378,3.227-3.144c-0.993,0-1.82,0.056-2.482,0.166v-1.655
					c0.827,0.056,1.957,0.083,3.392,0.083C329.679,478.577,330.203,477.611,330.424,476.784z M340.682,477.032
					c0,0.552,0.027,1.187,0.083,1.903h-1.82v-2.399h-13.733v2.73h-1.82c0.054-0.662,0.083-1.324,0.083-1.986
					c0-0.662-0.028-1.378-0.083-2.151h17.374C340.709,475.791,340.682,476.426,340.682,477.032z"/>
				<path fill="#FFFFFF" d="M354.664,487.374c0.881,0,2.04-0.027,3.475-0.083v1.572c-1.489-0.055-2.647-0.083-3.475-0.083H347.3
					c-1.104,0-2.097,0.028-2.978,0.083v-1.572c0.881,0.056,1.874,0.083,2.978,0.083H354.664z M349.7,480.548
					c-0.166,1.021-0.249,1.973-0.249,2.854h6.784c0.11-1.103,0.22-2.233,0.331-3.392c0.11-1.158,0.22-2.205,0.331-3.144h-7.942
					c-1.048,0-2.18,0.028-3.392,0.083v-1.654c1.212,0.056,2.344,0.083,3.392,0.083h9.845c-0.221,1.489-0.414,2.993-0.579,4.509
					c-0.166,1.518-0.276,2.689-0.331,3.516h3.806c-0.111,1.214-0.207,2.552-0.289,4.013c-0.083,1.462-0.263,2.676-0.538,3.64
					c-0.277,0.964-0.745,1.558-1.406,1.778c-0.662,0.22-1.932,0.385-3.806,0.497c-0.056-0.607-0.304-1.27-0.745-1.985
					c2.151,0.055,3.363,0.014,3.64-0.125c0.275-0.137,0.509-0.385,0.703-0.744c0.192-0.358,0.344-1.186,0.455-2.482
					c0.11-1.295,0.166-2.358,0.166-3.186h-12.244c0.11-1.103,0.22-2.247,0.331-3.433c0.11-1.186,0.192-2.329,0.248-3.433
					c0.716,0.111,1.406,0.221,2.068,0.331C350.058,478.77,349.865,479.528,349.7,480.548z"/>
			</g>
		</g>
		<polygon fill="#009944" points="362.074,435.65 342.426,427.841 342.426,427.472 340.561,427.472 340.561,459.333 
			342.426,459.333 342.426,444.235 		"/>
	</g>
	<g opacity="0">
		<text transform="matrix(1 0 0 1 376.7617 456.7798)" fill="#040000" font-family="'ArialMT'" font-size="15">5</text>
		<rect x="289.5" y="425.096" fill="none" stroke="#040000" stroke-width="0.6903" width="114" height="89.139"/>
	</g>
</g>
<g>
	<g>
		<path fill="#FFFFFF" stroke="#E60012" stroke-width="1.7288" d="M271.143,429.048c0,4.368-3.539,7.905-7.904,7.905
			c-4.366,0-7.904-3.537-7.904-7.905c0-4.362,3.538-7.903,7.904-7.903C267.604,421.146,271.143,424.687,271.143,429.048z"/>
		<rect x="202.81" y="440.384" fill="#FFF100" width="68.467" height="28.517"/>
		<g>
			<g>
				<path d="M224.956,451.041c0.053-1.887,0.067-3.155,0.041-3.802c-0.028-0.647-0.068-1.267-0.122-1.861
					c0.647,0.108,1.375,0.189,2.185,0.243c-0.162,0.54-0.283,1.322-0.364,2.346c-0.081,1.025-0.121,2.05-0.121,3.074h4.126
					c1.457,0,2.804-0.053,4.045-0.162v1.78c-1.08-0.053-2.185-0.081-3.317-0.081h-4.773c0.215,0.918,0.593,1.848,1.132,2.792
					c0.539,0.944,1.092,1.78,1.659,2.508s1.348,1.497,2.346,2.306c0.998,0.809,2.089,1.484,3.276,2.022
					c-0.432,0.324-0.863,0.862-1.294,1.618c-0.971-0.54-1.929-1.213-2.872-2.022c-0.944-0.809-1.888-1.874-2.832-3.196
					c-0.944-1.321-1.658-2.548-2.144-3.681c-0.432,1.187-0.89,2.172-1.375,2.953c-0.485,0.782-1.011,1.497-1.578,2.144
					c-0.566,0.647-1.294,1.294-2.185,1.941c-0.89,0.647-1.901,1.294-3.034,1.942c-0.433-0.647-0.918-1.213-1.457-1.699
					c1.133-0.376,2.251-0.917,3.357-1.618c1.105-0.701,2.009-1.497,2.71-2.387c0.7-0.89,1.267-1.82,1.699-2.792
					c0.431-0.971,0.7-1.914,0.809-2.832h-4.45c-1.294,0-2.319,0.028-3.074,0.081v-1.78c0.755,0.054,1.78,0.108,3.074,0.162H224.956z
					"/>
				<path d="M240.247,448.048c0-0.971-0.028-1.807-0.081-2.508h1.618c-0.054,0.756-0.081,1.618-0.081,2.589v2.67
					c1.024,0,1.888-0.053,2.589-0.162v1.456c-0.756-0.053-1.618-0.081-2.589-0.081v6.23c0.917-0.27,1.807-0.566,2.67-0.89
					c0,0.432,0.026,0.863,0.081,1.294c-0.863,0.324-1.956,0.715-3.277,1.173c-1.322,0.458-2.306,0.877-2.953,1.254
					c-0.324-0.701-0.621-1.267-0.89-1.699c0.809-0.162,1.78-0.404,2.913-0.728v-6.634c-0.918,0-1.753,0.028-2.508,0.081v-1.375
					c0.755,0.055,1.59,0.081,2.508,0.081V448.048z M250.602,453.832c-0.054,1.646-0.243,3.115-0.566,4.41
					c-0.378,1.241-0.971,2.279-1.78,3.115c-0.809,0.835-2.184,1.766-4.126,2.791c-0.271-0.594-0.647-1.08-1.133-1.456
					c1.726-0.594,3.047-1.335,3.964-2.225c0.917-0.89,1.509-1.901,1.78-3.034c0.27-1.24,0.417-2.508,0.445-3.803
					c0.026-1.294,0.013-2.589-0.041-3.883c0.593,0.216,1.186,0.297,1.78,0.243C250.764,450.907,250.655,452.188,250.602,453.832z
					 M254.728,452.659c0,3.128,0.027,5.206,0.081,6.229h-1.456v-10.922h-6.634v10.841h-1.456c0.053-1.186,0.081-3.263,0.081-6.229
					c0-2.965-0.028-4.907-0.081-5.825h9.546C254.755,447.562,254.728,449.532,254.728,452.659z M256.104,462.853
					c-0.54,0.376-0.999,0.809-1.375,1.294c-1.241-1.511-2.643-2.966-4.207-4.369c0.323-0.27,0.647-0.647,0.971-1.133
					C253.703,460.642,255.24,462.044,256.104,462.853z"/>
			</g>
		</g>
		<polygon fill="#E60012" points="281.987,406.357 262.776,398.725 262.776,398.364 260.957,398.364 260.957,429.521 
			262.776,429.521 262.776,414.755 		"/>
	</g>
	<g opacity="0">
		<text transform="matrix(1 0 0 1 277.3628 459.3325)" fill="#040000" font-family="'ArialMT'" font-size="15">4</text>
		<rect x="174.988" y="391.658" fill="none" stroke="#040000" stroke-width="0.714" width="129.5" height="83.946"/>
	</g>
</g>
</svg>