<svg version="1.0" id="图层_1" xmlns="http://www.w3.org/2000/svg" xmlns:xlink="http://www.w3.org/1999/xlink" x="0px" y="0px" 
	width="100%" height="100%" viewBox="0 0 720 1280" xml:space="preserve"
  style="position: relative;display: block;"
  >
  
<g>
	<path opacity="0.6" fill="#FFFFFF" stroke="#00A0E9" stroke-width="7.1747" d="M650.886,935.506c3.222-5.378,0,0,2.146-12.905
		c2.15-12.912-1.072-10.761-1.072-10.761l-6.444-9.681c0,0-1.069-22.59,0-26.896c1.079-4.303,6.444-12.905,7.517-17.211
		c1.076-4.303,5.368-7.531,5.368-7.531h6.441c0,0,0,0,10.733-2.154c10.729-2.149,0-3.22,0-3.22s11.804-17.216,11.804-26.893
		c0-9.688-5.364-13.984-5.364-13.984l5.364-19.367c28.981-26.896,19.324-74.227,18.248-77.458
		c-1.074-3.226-5.367-12.907-5.367-12.907s5.367-8.604,8.586-11.831c3.222-3.229,5.368-11.834,5.368-30.122
		c0-18.288-4.294-8.604-7.511-10.759c-3.221-2.147-7.515-10.757-7.515-10.757s-4.292-16.136-5.366-19.363
		c-1.075-3.229-6.443-20.439-6.443-23.67c0-3.224,5.368-8.602,5.368-8.602s10.735-18.289,10.735-24.746
		c0-6.452-2.148-8.6-4.294-11.833c-1.274-1.916-3.303-4.584-4.747-6.442c-0.792,0.457-1.602,0.919-2.485,1.428
		c-8.659,5.024-2.068,2.154-7.081,5.737c-5.011,3.585-11.447,7.173-15.741,12.191c-4.292,5.021-4.292,1.435-6.438,3.591
		c-2.147,2.147-7.871,5.732-7.871,5.732s-5.009,1.437-9.309,5.018c-4.286,3.59-2.858,5.026-2.858,9.327s-2.146,14.344-4.289,16.496
		c-2.151,2.153-7.875,5.736-7.875,5.736s2.148,8.605,3.576,13.626c1.437,5.022-8.586-2.152-15.026-2.152
		c-6.438,0-20.753-3.584-20.753-3.584s0,0-0.716,5.017c-0.713,5.02-4.293,5.023-8.582,8.605c-4.297,3.59-5.012,5.023-9.308,8.61
		c-4.289,3.582-7.151,6.454-9.3,8.606c-2.148,2.149-7.155,11.475-11.449,14.34c-4.294,2.869-5.724,0-5.724,0l-2.149-7.17
		c0,0,5.013-14.342,5.013-19.363c0-5.019-0.718-7.886-2.148-14.344c-1.43-6.452-3.577-12.191-3.577-14.342
		c0-2.157,2.147-8.608,5.008-10.043c2.861-1.433,8.589-0.715,13.598-3.584c5.005-2.864-1.433-7.891-4.297-11.473
		c-2.86-3.586,5.014-6.457,8.591-11.476c3.575-5.023-2.147-4.305-5.013-7.173c-2.86-2.87,8.588-5.737,13.596,0
		c5.009,5.736,7.873-10.757,7.873-10.757l-7.87-11.479l-11.45-5.737c0,0-10.016,5.737-14.309,5.737
		c-4.295,0-17.178-17.211-17.178-17.211h-7.154l10.02-18.646c0,0,21.466-11.475,27.193-18.649
		c5.723-7.171,17.172-18.642,27.187-28.686c10.022-10.041,14.313-14.339,18.25-22.948c3.932-8.605,10.377-20.08,13.237-24.381
		c2.862-4.305,8.586-27.255,8.586-27.255l39.358-46.977l-2.147-9.679l-2.149-12.909l6.444-11.833c0,0,10.733-12.91,12.731-19.361
		c2.006-6.457,2.293-7.528-0.927-17.216c-3.224-9.68,3.22-12.906,0-16.134c-3.224-3.227,0-5.377,0-5.377
		s-10.733-9.683-13.952-13.987c-3.222-4.301-16.104,0-16.104,0v-12.907v-12.912l-30.414-30.123l-14.664-20.077l-12.524,2.866
		l-17.176,5.743H568.95c0,0-7.153-17.217-11.45-17.217c-4.294,0-34.349-1.435-34.349-1.435l-25.759,10.043l-18.605,8.608
		l-15.74-8.608l-10.02-5.737h-11.446c0,0-10.021-7.17-21.468-7.17c-11.45,0-14.313-15.783-18.605-22.417
		c-4.296-6.634-15.743-10.574-15.743-10.574s-18.604,2.873-24.328,4.301c-5.723,1.434-17.178,6.272-17.178,6.272l-7.947-13.441
		l-26.396-8.609l-25.98-8.08c-6.862,5.196,0.234,5.351,0.679,9.509c0.455,4.305-4.749,7.175-9.044,20.621
		c-4.295,13.451-5.725,12.367-5.725,16.675c0,4.3,0,18.648,0,18.648l14.312,12.907c0,0,2.862,17.211-5.726,24.385
		c-8.586,7.174-27.91,0-27.91,0v25.819l-32.201,25.813c0,0-5.723,4.305-17.171,11.478c-11.451,7.172,0,0-14.312,12.908
		c-14.311,12.909-7.156,5.734-11.455,8.609c-4.288,2.866-4.288,5.739-10.011,8.608c-5.725,2.866-18.608,15.775-27.192,24.379
		c-8.589,8.607,0,0-5.725,12.91c-5.726,12.909-17.175,21.515-25.761,28.686c-8.589,7.171-8.589,11.476-12.882,12.909
		c-4.293,1.437-12.881,12.906-27.19,21.516c-14.311,8.606-9.125,5.739-9.125,5.739l-8.046,15.776l-12.88,15.061l-7.159,13.625
		L5.8,439.586c0,0-1.076,5.38,16.1,10.755c17.174,5.381,7.513,33.354,27.907,33.354c20.394,0,40.788-3.233,41.861,0
		c1.073,3.225,7.514,8.602,15.028,15.054c7.512,6.455,15.027,9.682,19.317,7.652c4.297-2.034,10.736,0.96,10.736,0.96
		s19.32-2.157,22.541,0c3.219,2.151,17.176,0,17.176,0s0,0,7.512,3.224c7.517,3.228,5.362,7.531,7.517,10.756
		c2.144,3.228,13.949,10.759,13.949,10.759l22.539,8.603l13.954-8.603h12.883h6.441h6.441c0,0,9.658,7.53,12.882,7.53
		c3.215,0,14.284,7.531,14.284,7.531s8.249,11.833,6.103,20.438c-2.142,8.608-46.151,34.426-46.151,34.426
		c-49.375,25.817-41.863,55.934-41.863,55.934c-9.661,30.127,57.963,35.505,57.963,35.505s49.376-21.516,60.11-20.44
		c10.733,1.074,16.099,0,16.099,0l12.336,13.986v14.356l-12.345,35.865c0,0-7.153,20.075-5.725,24.377c1.429,4.303,0,7.17,0,7.17
		l5.725,10.041l12.884,11.476l17.718,15.58l1.068,11.839h6.978c0,0,6.978-4.309,12.882-4.309c5.902,0,4.29,0,9.658,1.618
		c5.366,1.616-3.222,14.52-3.222,16.136c0,1.61,0.539,10.755,0.539,10.755s11.808,6.994,14.493,8.075
		c2.679,1.068,4.83,4.836,4.83,4.836s1.606,17.749,1.066,19.365c-0.532,1.612,0.54,11.291,1.078,12.908
		c0.534,1.611,2.146,8.066,5.366,13.445c3.22,5.38,1.074,29.044,1.074,29.044l6.977,5.376l1.073,5.384l-0.533,9.68
		c0,0-6.445,6.457-8.053,8.067c-1.611,1.614-1.078,8.073-1.078,8.073s4.297,4.299,16.641,8.063
		c12.343,3.769,10.731,4.304,10.731,4.304s0.538,6.992,0.538,9.682c0,2.69,1.608,9.688,1.608,9.688l15.024,1.605l1.079,8.611
		l8.048,3.766c0,0,3.225,6.992,4.294,8.604c1.074,1.614,5.904,0.537,9.665-1.612c3.753-2.151,8.58-13.984,8.58-13.984l11.81,1.609
		c12.344,0,65.477-45.718,65.477-45.718l6.978,1.616c0,0,6.438,0,8.046-0.539c1.608-0.537,5.902-5.378,5.902-5.378
		s6.98,1.61,9.662,3.225c2.683,1.616,10.201,2.692,10.201,2.692s1.069,9.141,2.681,12.367l10.197-13.443
		C639.08,961.326,647.664,940.887,650.886,935.506z"/>
	
		<text transform="matrix(1 0 0 1 631.4863 787.999)" opacity="0" fill="#040000" enable-background="new    " font-family="'SimHei'" font-size="20">轮廓</text>
</g>
<g>
	<g>
		<g>
			<polygon fill="#E60012" stroke="#E72922" stroke-width="1.3553" points="400.469,763.277 404.338,775.168 416.842,775.168 
				406.723,782.524 410.595,794.415 400.469,787.063 390.357,794.415 394.221,782.524 384.112,775.168 396.608,775.168 			"/>
		</g>
		<g>
			<g>
				<path fill="#F39800" d="M549.836,671.093h-168.85c-5.768,0-10.444,5.178-10.444,11.563v46.256
					c0,6.384,4.677,11.563,10.444,11.563h13.803l13.176,24.975l12.338-24.975h129.533c5.771,0,10.448-5.18,10.448-11.563v-46.256
					C560.284,676.271,555.607,671.093,549.836,671.093z"/>
				<path fill="#D2D0C1" d="M547.78,673.934H383.556c-5.614,0-10.161,4.693-10.161,10.48v41.939c0,5.785,4.547,10.479,10.161,10.479
					h13.417l10.933,23.209l11.433-23.209H547.78c5.604,0,10.154-4.694,10.154-10.479v-41.939
					C557.935,678.627,553.385,673.934,547.78,673.934z"/>
			</g>
			<g>
				<path fill="#EA5514" d="M402.245,693.041c-1.3,1.985-3.049,4.055-5.247,6.208c-0.498-0.561-1.228-1.152-2.189-1.775
					c1.852-1.023,3.823-3.227,5.914-6.608c-1.558-2.278-2.888-4.067-3.991-5.367l1.962-1.415c0.419,0.525,1.068,1.389,1.949,2.59
					c0.481,0.65,0.859,1.162,1.135,1.535c0.508-1.637,0.854-3.586,1.042-5.848h-4.232c-0.489-0.009-1.309,0.063-2.456,0.214v-2.536
					c0.712,0.115,1.21,0.187,1.495,0.213c0.312,0.036,0.604,0.054,0.881,0.054h4.339c0.437,0.009,1.375-0.071,2.817-0.24
					c-0.579,4.815-1.269,8.349-2.069,10.601c0.792,1.166,1.526,2.296,2.202,3.391l-2.069,1.803
					C403.282,694.853,402.788,693.914,402.245,693.041z M405.89,696.525v-2.55c0.08,0.009,0.195,0.027,0.348,0.054
					c1.067,0.151,1.699,0.218,1.896,0.2h5.38c0.294,0,0.935-0.058,1.923-0.174c0.169-0.026,0.303-0.044,0.4-0.053v2.522
					c-1.104-0.178-1.878-0.262-2.323-0.253h-5.3C407.893,696.254,407.118,696.339,405.89,696.525z M410.282,675.846l2.55,0.908
					c0.4,0.151,0.601,0.343,0.601,0.574c-0.018,0.231-0.227,0.396-0.627,0.493c-0.24,0.063-0.468,0.271-0.682,0.628
					c-0.115,0.169-0.262,0.414-0.44,0.734h3.578c0.489,0.018,1.384-0.054,2.684-0.214c-0.134,0.997-0.209,1.807-0.227,2.43
					l-0.054,3.312c0.009,1.459-0.379,2.43-1.161,2.91c-0.757,0.534-2.248,0.827-4.473,0.881c-0.151-0.89-0.512-1.798-1.082-2.724
					c1.665,0.223,2.648,0.33,2.951,0.32c0.498,0,0.841-0.102,1.027-0.307c0.179-0.178,0.271-0.548,0.28-1.108l0.054-3.551h-5.607
					v8.718h7.383c0.445,0.018,1.322-0.066,2.631-0.254c-0.294,1.852-0.445,3.636-0.454,5.354c-0.019,0.525-0.031,0.939-0.04,1.242
					c-0.054,2.011-0.574,3.359-1.563,4.045c-0.961,0.766-2.799,1.184-5.514,1.255c-0.071-0.819-0.477-1.775-1.215-2.87
					c1.397,0.204,2.475,0.307,3.23,0.307c1.015,0.009,1.7-0.249,2.057-0.774c0.374-0.489,0.574-1.499,0.601-3.03l0.106-3.23h-6.942
					c-0.587-0.009-1.562,0.066-2.924,0.227c0.089-0.623,0.151-1.11,0.188-1.462c0.035-0.352,0.054-0.688,0.054-1.008v-8.171
					c0.018-0.267-0.063-1.112-0.241-2.536c1.077,0.169,1.803,0.249,2.177,0.24C409.677,678.24,410.042,677.127,410.282,675.846z
					 M412.578,685.886c-0.774-1.068-1.638-2.025-2.59-2.871l1.589-1.535c1.175,1.131,2.092,2.061,2.75,2.79L412.578,685.886z"/>
				<path fill="#EA5514" d="M425.822,683.482h0.867v-3.805c0-0.722-0.071-1.758-0.213-3.111l2.563,0.4
					c0.562,0.099,0.859,0.245,0.895,0.441c0.054,0.195-0.151,0.476-0.613,0.841c-0.116,0.053-0.174,0.529-0.174,1.429v3.805h0.935
					c0.729,0,1.589-0.094,2.576-0.28v2.576c-0.987-0.169-1.847-0.254-2.576-0.254h-0.935v6.676c0.943-0.347,2.122-0.858,3.538-1.535
					c-0.16,1.148-0.236,2.042-0.228,2.684c-3.934,1.397-6.822,2.581-8.664,3.551l-1.589-2.79c1.281-0.125,2.776-0.472,4.485-1.041
					v-7.544h-0.867c-0.65,0-1.491,0.085-2.523,0.254v-2.55C424.491,683.415,425.332,683.5,425.822,683.482z M438.945,688.315
					c-1.406,3.898-3.97,7.063-7.689,9.492c-0.677-0.721-1.514-1.304-2.51-1.749c3.444-1.353,5.932-3.934,7.463-7.743h-0.334
					c-0.668-0.009-1.54,0.183-2.617,0.574l-1.268-2.297c2.625-1.246,5.326-3.404,8.104-6.475h-4.819
					c-0.623-0.009-1.615,0.071-2.978,0.24v-2.537c1.291,0.17,2.283,0.25,2.978,0.24h6.462c0.81,0,2.047-0.098,3.711-0.293
					c-3.062,3.453-5.888,6.288-8.478,8.504h7.276c0.676-0.009,1.589-0.094,2.736-0.254c-0.205,1.042-0.315,1.928-0.334,2.657
					c-0.24,7.04-0.623,10.511-1.147,10.413c-0.499,1.06-2.283,1.643-5.354,1.749c-0.214-0.926-0.597-1.954-1.148-3.084
					c1.229,0.214,2.158,0.32,2.79,0.32c0.801,0,1.309-0.183,1.522-0.547c0.382,0.169,0.676-2.901,0.881-9.212h-1.481
					c-0.891,5.945-4.041,10.284-9.453,13.017c-0.587-0.614-1.41-1.251-2.47-1.909c5.332-1.674,8.46-5.376,9.386-11.107H438.945z"/>
				<path fill="#EA5514" d="M455.834,690.091c-1.175,1.246-2.43,2.403-3.765,3.471c-0.525-0.641-1.366-1.276-2.523-1.909
					c3.8-2.064,6.644-5.063,8.531-8.998h-4.78c-0.552,0.009-1.481,0.085-2.79,0.228v-2.497c1.469,0.151,2.39,0.228,2.764,0.228
					h5.661c0.712-1.852,1.076-3.373,1.095-4.566l3.03,0.734c0.347,0.098,0.507,0.258,0.48,0.48
					c-0.045,0.223-0.276,0.437-0.694,0.641c-0.275,0.09-0.516,0.454-0.721,1.095c-0.16,0.525-0.343,1.064-0.548,1.616h9.906
					c0.73-0.036,1.634-0.111,2.711-0.228v2.523c-1.167-0.143-2.069-0.227-2.711-0.254h-10.667c-0.729,1.522-1.46,2.862-2.189,4.019
					h3.778v-0.294c-0.035-1.067-0.111-2.118-0.227-3.15l2.937,0.36c0.4,0.063,0.623,0.196,0.668,0.4
					c0.026,0.214-0.134,0.454-0.48,0.722c-0.303,0.169-0.45,0.725-0.44,1.668v0.294h4.512c0.722-0.026,1.643-0.098,2.764-0.214
					c-0.115,0.979-0.187,1.843-0.214,2.591v5.446c0.063,1.647-0.222,2.631-0.854,2.951c-0.473,0.427-2.065,0.729-4.78,0.907
					c0.054-0.943-0.258-1.927-0.935-2.95c1.656,0.151,2.684,0.223,3.084,0.214c0.428,0,0.703-0.063,0.828-0.188
					c0.134-0.098,0.195-0.338,0.187-0.721v-5.98h-4.592v10.065c0.035,0.819,0.11,1.709,0.227,2.671h-2.91
					c0.124-0.971,0.2-1.852,0.227-2.644v-10.093h-4.099v7.275c0.035,0.739,0.106,1.584,0.214,2.537h-2.897
					c0.116-1.023,0.188-1.869,0.214-2.537V690.091z"/>
				<path fill="#EA5514" d="M500.705,699.85c-4.939-3.657-7.73-8.53-8.371-14.618c-0.187,0.445-0.405,0.943-0.654,1.495v9.879
					c1.14-0.979,2.163-1.993,3.071-3.044c0.213,0.935,0.529,1.839,0.947,2.711c-1.896,1.513-3.773,3.199-5.634,5.06
					c-0.445-0.881-1.046-1.526-1.802-1.936c0.364-0.374,0.613-0.706,0.747-0.995s0.196-0.652,0.188-1.088v-6.475
					c-1.202,1.655-2.462,3.11-3.778,4.365c-0.525-0.552-1.108-1.06-1.749-1.522v5.193c0,0.57,0.075,1.451,0.227,2.644h-2.91
					c0.143-1.041,0.218-1.931,0.227-2.67v-12.096c-0.463,0.757-1.321,1.825-2.576,3.204c-0.65-0.578-1.425-1.135-2.323-1.669
					c2.99-2.554,5.26-6.59,6.809-12.108l2.71,1.015c0.33,0.125,0.49,0.287,0.481,0.487c-0.01,0.2-0.188,0.38-0.534,0.54
					c-0.259,0.152-0.45,0.401-0.574,0.748c-0.48,1.272-0.992,2.492-1.535,3.658v10.307c3.115-2.555,5.295-5.723,6.542-9.506h-2.764
					c-0.854,0.009-1.82,0.089-2.897,0.24v-2.604c1.041,0.16,2.007,0.245,2.897,0.254h5.74c-1.229-1.255-2.376-2.265-3.444-3.03
					l1.723-1.976c1.913,1.539,3.306,2.75,4.179,3.631l-1.362,1.375h4.673c0.935-0.009,1.936-0.094,3.004-0.254v2.604
					c-1.104-0.151-2.105-0.231-3.004-0.24h-5.928c-0.106,0.259-0.249,0.632-0.427,1.122c-0.08,0.204-0.139,0.355-0.174,0.453
					c0.783,0,1.575-0.106,2.376-0.32c-0.044,1.434,0.236,2.982,0.842,4.646c1.246-1.469,2.22-2.92,2.924-4.353l2.35,1.615
					c0.275,0.196,0.413,0.374,0.413,0.534c0,0.036-0.013,0.104-0.04,0.207c-0.026,0.103-0.231,0.176-0.613,0.22
					c-0.321,0.027-0.61,0.21-0.868,0.548c-0.872,1.095-1.923,2.252-3.15,3.471c1.727,2.902,3.894,4.944,6.501,6.128
					C502.111,698.323,501.292,699.04,500.705,699.85z"/>
				<path fill="#EA5514" d="M518.556,676.126l2.55,1.015c0.516,0.205,0.774,0.405,0.774,0.601c0,0.196-0.259,0.388-0.774,0.574
					c-0.178-0.018-0.534,0.472-1.068,1.469l-0.413,0.734h6.915c0.632,0.009,1.491-0.063,2.577-0.214v2.55
					c-0.614-0.106-1.098-0.18-1.449-0.22s-0.728-0.061-1.128-0.061h-7.89c-0.508,0.917-1.34,2.168-2.497,3.752
					c-0.819-0.579-1.758-1.002-2.816-1.269c0.418-0.347,0.81-0.748,1.175-1.201c-0.73-0.089-1.265-0.134-1.603-0.134h-2.764v3.15
					h2.43c0.365,0.009,1.122-0.075,2.27-0.253c-0.044,0.783-0.106,2.101-0.187,3.951c-0.143,3.133-0.254,5.327-0.334,6.582
					c0.027,2.003-1.633,3.084-4.979,3.244c-0.026-0.837-0.392-1.794-1.095-2.87c1.139,0.231,1.913,0.352,2.323,0.36
					c0.89,0.018,1.348-0.374,1.375-1.175c0.195-2.519,0.312-5.118,0.347-7.797h-2.203c-0.178,4.833-1.499,8.852-3.965,12.056
					c-0.658-0.57-1.518-0.971-2.576-1.202c2.679-2.571,4.054-6.853,4.125-12.843v-3.204h-0.214c-0.472,0-1.281,0.071-2.43,0.214
					v-2.537c0.997,0.179,1.815,0.268,2.457,0.268h3.471c-1.13-1.496-2.207-2.671-3.23-3.525l1.896-1.642
					c1.095,0.997,2.341,2.318,3.738,3.965L512,681.667h0.988c0.508,0.009,1.255-0.089,2.243-0.294v1.562
					C516.673,680.825,517.781,678.556,518.556,676.126z M517.901,691.186h2.95c0.125-0.792,0.191-1.958,0.2-3.498h-1.481
					c-0.392,0.774-1.063,1.785-2.016,3.03c-0.597-0.48-1.474-0.881-2.631-1.201c1.887-1.727,3.155-3.938,3.806-6.635l2.643,0.947
					c0.339,0.134,0.499,0.316,0.481,0.548c-0.036,0.214-0.24,0.369-0.614,0.467c-0.151,0.045-0.299,0.174-0.44,0.388
					c-0.116,0.195-0.196,0.352-0.24,0.467h5.086c0.578,0.019,1.424-0.075,2.537-0.28v2.51c-1.166-0.169-2.012-0.249-2.537-0.24
					h-2.029c-0.026,1.095-0.089,2.261-0.187,3.498h3.524c0.766,0.009,1.615-0.089,2.55-0.294v2.51
					c-1.246-0.151-2.104-0.222-2.576-0.213h-2.951c1.211,2.607,3.333,4.694,6.368,6.261c-1.086,0.409-1.896,1.055-2.43,1.937
					c-2.296-1.763-4.139-3.832-5.527-6.208c-0.827,2.26-3.013,4.44-6.555,6.541c-0.463-0.81-1.22-1.593-2.27-2.35
					c3.516-0.952,5.803-3.013,6.862-6.181h-2.443c-0.569-0.009-1.424,0.071-2.563,0.24v-2.483
					C516.593,691.114,517.421,691.194,517.901,691.186z"/>
				<path fill="#EA5514" d="M425.582,713.089c1.281,0.195,2.323,0.298,3.124,0.307h3.991v-1.241c-0.018-0.899-0.102-1.9-0.253-3.004
					l2.937,0.414c0.365,0.053,0.561,0.133,0.588,0.24c0.026,0.106,0.04,0.178,0.04,0.213c0,0.179-0.129,0.365-0.388,0.562
					c-0.284,0.169-0.423,0.694-0.413,1.575v1.241h5.366v-1.147c-0.018-0.899-0.103-1.905-0.253-3.018l2.923,0.414
					c0.374,0.053,0.574,0.133,0.602,0.24c0.026,0.106,0.04,0.178,0.04,0.213c0,0.179-0.13,0.365-0.388,0.562
					c-0.285,0.151-0.423,0.681-0.414,1.589v1.147h3.886c0.854-0.018,1.931-0.12,3.23-0.307v2.764
					c-1.309-0.188-2.386-0.289-3.23-0.308h-3.886v0.668c0,0.587,0.085,1.424,0.254,2.51h-3.017c0.16-1.077,0.244-1.913,0.253-2.51
					v-0.668h-5.366v0.694c0,0.65,0.084,1.504,0.253,2.563h-3.017c0.16-1.095,0.244-1.949,0.253-2.563v-0.694h-3.991
					c-0.766,0.009-1.807,0.111-3.124,0.308V713.089z M428.626,719.35c1.067,0.214,2.122,0.316,3.164,0.308h12.75
					c1.005-0.026,2.078-0.129,3.217-0.308c-0.187,1.122-0.285,2.208-0.293,3.258v8.225c0,0.961,0.08,1.976,0.24,3.044h-3.031
					c0.169-0.873,0.249-1.487,0.24-1.843h-13.497c-0.018,0.587,0.063,1.326,0.24,2.216h-2.978c0.143-0.872,0.223-1.882,0.241-3.03
					v-8.584C428.92,721.976,428.821,720.881,428.626,719.35z M431.416,721.753v3.071h5.434v-3.071H431.416z M436.85,729.964v-3.098
					h-5.434v3.098H436.85z M439.319,724.824h5.594v-3.071h-5.594V724.824z M439.319,726.866v3.098h5.594v-3.098H439.319z"/>
				<path fill="#EA5514" d="M466.595,708.937l2.55,1.015c0.516,0.205,0.774,0.405,0.774,0.601c0,0.196-0.259,0.388-0.774,0.574
					c-0.178-0.018-0.534,0.472-1.068,1.469l-0.413,0.734h6.915c0.632,0.009,1.491-0.063,2.577-0.214v2.55
					c-0.614-0.106-1.098-0.18-1.449-0.22s-0.728-0.061-1.128-0.061h-7.89c-0.508,0.917-1.34,2.168-2.497,3.752
					c-0.819-0.579-1.758-1.002-2.816-1.269c0.418-0.347,0.81-0.748,1.175-1.201c-0.73-0.089-1.265-0.134-1.603-0.134h-2.764v3.15
					h2.43c0.365,0.009,1.122-0.075,2.27-0.253c-0.044,0.783-0.106,2.101-0.187,3.951c-0.143,3.133-0.254,5.327-0.334,6.582
					c0.027,2.003-1.633,3.084-4.979,3.244c-0.026-0.837-0.392-1.794-1.095-2.87c1.139,0.231,1.913,0.352,2.323,0.36
					c0.89,0.018,1.348-0.374,1.375-1.175c0.195-2.519,0.312-5.118,0.347-7.797h-2.203c-0.178,4.833-1.499,8.852-3.965,12.056
					c-0.658-0.57-1.518-0.971-2.576-1.202c2.679-2.571,4.054-6.853,4.125-12.843v-3.204H455.5c-0.472,0-1.281,0.071-2.43,0.214
					v-2.537c0.997,0.179,1.815,0.268,2.457,0.268h3.471c-1.13-1.496-2.207-2.671-3.23-3.525l1.896-1.642
					c1.095,0.997,2.341,2.318,3.738,3.965l-1.362,1.202h0.988c0.508,0.009,1.255-0.089,2.243-0.294v1.562
					C464.712,713.636,465.82,711.366,466.595,708.937z M465.94,723.996h2.95c0.125-0.792,0.191-1.958,0.2-3.498h-1.481
					c-0.392,0.774-1.063,1.785-2.016,3.03c-0.597-0.48-1.474-0.881-2.631-1.201c1.887-1.727,3.155-3.938,3.806-6.635l2.643,0.947
					c0.339,0.134,0.499,0.316,0.481,0.548c-0.036,0.214-0.24,0.369-0.614,0.467c-0.151,0.045-0.299,0.174-0.44,0.388
					c-0.116,0.195-0.196,0.352-0.24,0.467h5.086c0.578,0.019,1.424-0.075,2.537-0.28v2.51c-1.166-0.169-2.012-0.249-2.537-0.24
					h-2.029c-0.026,1.095-0.089,2.261-0.187,3.498h3.524c0.766,0.009,1.615-0.089,2.55-0.294v2.51
					c-1.246-0.151-2.104-0.222-2.576-0.213h-2.951c1.211,2.607,3.333,4.694,6.368,6.261c-1.086,0.409-1.896,1.055-2.43,1.937
					c-2.296-1.763-4.139-3.832-5.527-6.208c-0.827,2.26-3.013,4.44-6.555,6.541c-0.463-0.81-1.22-1.593-2.27-2.35
					c3.516-0.952,5.803-3.013,6.862-6.181h-2.443c-0.569-0.009-1.424,0.071-2.563,0.24v-2.483
					C464.632,723.925,465.46,724.005,465.94,723.996z"/>
				<path fill="#EA5514" d="M481.881,731.793c6.942-0.517,11.957-2.732,15.046-6.648c-6.177,0.258-10.209,0.649-12.096,1.175
					l-0.947-2.403c1.236-0.24,2.265-0.632,3.084-1.175c1.708-1.184,3.288-2.426,4.739-3.725c-3.106,0.124-5.398,0.307-6.876,0.547
					l-1.001-2.296c0.926-0.285,1.824-0.819,2.696-1.603c2.412-2.181,4.308-4.432,5.688-6.755l2.243,1.441
					c0.329,0.214,0.489,0.419,0.48,0.614c-0.026,0.196-0.214,0.329-0.561,0.4c-0.383,0.054-0.774,0.299-1.175,0.734
					c-1.629,1.807-3.333,3.493-5.113,5.06c2.003-0.062,3.916-0.106,5.74-0.133c1.309-1.3,2.483-2.71,3.525-4.232l2.442,1.603
					c0.223,0.16,0.334,0.315,0.334,0.467c0,0.054-0.031,0.141-0.094,0.261c-0.062,0.12-0.324,0.225-0.787,0.313
					c-0.339,0.045-0.73,0.312-1.175,0.801c-1.976,2.038-4.602,4.388-7.877,7.049c3.293-0.187,5.928-0.307,7.903-0.36
					c0.712-1.638,1.166-3.013,1.362-4.125l2.844,1.148c0.329,0.143,0.482,0.309,0.46,0.5s-0.22,0.381-0.594,0.567
					c-0.294,0.116-0.579,0.517-0.854,1.202c-2.056,6.426-7.832,10.511-17.329,12.256
					C483.616,733.648,482.913,732.754,481.881,731.793z"/>
			</g>
		</g>
	</g>
	<g opacity="0">
		<g>
			<text transform="matrix(1 0 0 1 459.2471 765.4492)" fill="#040000" font-family="'ArialMT'" font-size="15">0</text>
		</g>
		<rect x="319" y="653.5" fill="none" stroke="#000000" width="245" height="153.008"/>
	</g>
</g>
<g>
	<g>
		<path fill="#FFFFFF" stroke="#E60012" stroke-width="2.2968" d="M436.624,333.254c0,5.801-4.695,10.503-10.494,10.503
			c-5.801,0-10.503-4.702-10.503-10.503c0-5.799,4.702-10.502,10.503-10.502C431.929,322.752,436.624,327.455,436.624,333.254z"/>
		<rect x="442.763" y="318.873" fill="#E60012" width="90.965" height="37.88"/>
		<g>
			<path fill="#FFFFFF" d="M469.944,337.631c-0.789,0.79-1.596,1.505-2.419,2.15c-0.824,0.645-1.773,1.29-2.848,1.935l-1.29-1.29
				c0.931-0.358,1.951-0.895,3.063-1.612c1.11-0.715,2.023-1.647,2.74-2.795l2.043,0.43l-0.322,0.322
				c2.005,0.79,3.51,1.47,4.514,2.042c-0.502,0.359-0.859,0.752-1.074,1.182C473.276,339.28,471.807,338.491,469.944,337.631z
				 M477.254,325.7c1.72,1.004,3.026,1.649,3.923,1.935c0.896,0.287,1.951,0.537,3.171,0.752c1.218,0.215,2.65,0.43,4.3,0.645
				c-0.43,0.717-0.718,1.397-0.86,2.042c-1.219-0.286-2.329-0.554-3.332-0.806c-1.004-0.25-2.061-0.554-3.171-0.914
				c-1.111-0.358-2.921-1.29-5.428-2.795c-0.79,0.502-1.631,0.986-2.526,1.451c-0.896,0.467-1.881,0.914-2.956,1.344
				c-1.074,0.43-2.938,1.04-5.589,1.827c-0.359-0.645-0.753-1.253-1.183-1.827c2.364-0.358,4.335-0.823,5.912-1.397
				c1.575-0.573,2.794-1.146,3.654-1.72c0.86-0.573,1.575-1.218,2.149-1.935c0.431,0.145,1.29,0.395,2.58,0.752L477.254,325.7z
				 M469.515,346.875v-3.117c-1.435,0-2.725,0.037-3.87,0.107v-1.29c1.146,0.072,2.436,0.107,3.87,0.107v-1.505h-2.258v-1.075h6.342
				v1.075h-2.364v1.505c0.572,0,1.433-0.035,2.579-0.107v1.29c-1.146-0.07-2.007-0.107-2.579-0.107v2.902l1.074-0.107
				c0.144-0.645,0.323-1.397,0.538-2.257c0.5,0.145,1.038,0.322,1.612,0.538c-0.359,0.502-0.646,1.075-0.86,1.72
				c0.431-0.143,0.788-0.215,1.075-0.215c-0.072,0.5-0.072,0.968,0,1.397c-1.864,0.071-3.547,0.215-5.052,0.43
				s-3.154,0.465-4.944,0.752c-0.145-0.645-0.323-1.183-0.538-1.612c0.716,0,1.575-0.037,2.58-0.107
				c-0.287-0.86-0.574-1.576-0.86-2.15c0.358-0.215,0.823-0.393,1.397-0.538c0.286,0.717,0.573,1.542,0.86,2.472L469.515,346.875z
				 M475.104,331.504v-1.183h-3.977v-1.182h9.244v1.182h-3.548v1.183h4.085c0.716,0,1.862-0.036,3.439-0.108v1.397
				c-1.29-0.07-2.437-0.107-3.439-0.107l1.29,0.43c-0.359,0.502-0.646,1.004-0.86,1.505c1.36,0,2.795-0.036,4.3-0.108v1.397
				c-1.505-0.07-2.725-0.107-3.654-0.107h-12.792c-1.074,0-2.042,0.037-2.901,0.107v-1.397c0.93,0.072,1.827,0.108,2.687,0.108
				h2.258c-0.287-0.5-0.538-0.968-0.753-1.397c0.358-0.215,0.716-0.393,1.075-0.538h-2.042c-0.718,0-1.327,0.037-1.828,0.107v-1.397
				c0.788,0.072,1.721,0.108,2.795,0.108H475.104z M475.104,334.622v-1.935h-3.225c0.215,0.574,0.501,1.219,0.86,1.935H475.104z
				 M484.133,339.888c-1.075-0.573-2.007-1.182-2.795-1.827c-0.574,0.43-1.219,0.951-1.935,1.559
				c-0.717,0.609-1.864,1.308-3.439,2.096c-0.502-0.573-0.968-1.003-1.397-1.29c0.787-0.286,1.773-0.715,2.956-1.29
				c1.182-0.573,2.131-1.505,2.849-2.794l2.149,0.43l-0.322,0.323c0.715,0.574,1.594,1.112,2.633,1.612
				c1.038,0.502,2.382,0.86,4.031,1.075c-0.43,0.574-0.717,1.147-0.86,1.72C486.497,341,485.208,340.463,484.133,339.888z
				 M478.543,348.702c-1.004,0-2.149,0.036-3.439,0.108v-1.397c1.146,0.07,1.971,0.107,2.473,0.107
				c-0.215-0.574-0.467-1.183-0.753-1.827c0.431-0.143,0.896-0.323,1.397-0.538l0.86,2.365h1.505v-3.01h-1.075
				c-1.004,0-2.042,0.037-3.117,0.107v-1.29c1.075,0.072,2.042,0.107,2.902,0.107h1.29v-1.612h-2.473v-1.183h6.879v1.183h-2.687
				v1.612h2.149c0.573,0,1.468-0.035,2.688-0.107v1.29c-1.22-0.07-2.33-0.107-3.332-0.107h-1.505v3.01h1.827l0.645-2.365
				c0.573,0.145,1.218,0.359,1.936,0.645c-0.503,0.43-0.897,1.002-1.183,1.72c0.572,0,1.433-0.072,2.579-0.215v1.505
				c-0.859-0.072-1.684-0.108-2.472-0.108H478.543z M476.823,332.687v1.935h3.117c0.143-0.716,0.358-1.361,0.646-1.935H476.823z"/>
			<path fill="#FFFFFF" d="M496.601,328.172v9.244c0,1.147,0.035,2.294,0.107,3.439h-1.935c0.07-1.145,0.107-2.292,0.107-3.439
				v-6.02c-0.859,1.22-1.72,2.402-2.579,3.547c-0.503-0.43-1.04-0.823-1.612-1.183c1.074-1.002,2.112-2.4,3.117-4.192
				c1.002-1.791,1.827-3.583,2.472-5.375c0.646,0.502,1.36,0.825,2.15,0.968C497.926,325.665,497.316,326.667,496.601,328.172z
				 M502.513,342.683c0-0.573-0.037-1.253-0.107-2.042h2.149c-0.072,0.575-0.107,1.255-0.107,2.042h4.622
				c1.36,0,2.543-0.035,3.548-0.107v1.827c-1.075-0.07-2.258-0.107-3.548-0.107h-4.622v3.01h7.739c1.29,0,2.473-0.037,3.548-0.107
				v1.827c-1.075-0.072-2.223-0.107-3.44-0.107h-17.413c-1.29,0-2.472,0.035-3.547,0.107v-1.827c1.075,0.07,2.257,0.107,3.547,0.107
				h7.632v-3.01h-4.3c-1.505,0-2.794,0.037-3.869,0.107v-1.827c1.075,0.072,2.364,0.107,3.869,0.107H502.513z M512.617,328.387
				c0,1.075,0.035,2.079,0.107,3.009h-5.482v2.15h3.978c1.289,0,2.507-0.035,3.654-0.107v1.72c-1.147-0.07-2.329-0.107-3.547-0.107
				h-1.612c0.572,0.932,1.414,1.827,2.525,2.688c1.11,0.86,2.239,1.434,3.386,1.72c-0.717,0.574-1.219,1.219-1.504,1.935
				c-1.505-0.86-2.813-1.881-3.924-3.063c-1.111-1.182-1.918-2.274-2.419-3.278h-0.537c0,2.15,0.035,4.084,0.107,5.804h-1.935
				c0.07-1.647,0.107-3.475,0.107-5.481c-0.859,1.219-1.827,2.294-2.902,3.225c-1.074,0.932-2.257,1.792-3.547,2.58
				c-0.359-0.645-0.86-1.218-1.505-1.72c1.36-0.43,2.562-1.057,3.601-1.881c1.038-0.823,1.845-1.666,2.419-2.526
				c-2.222,0-3.87,0.037-4.944,0.107v-1.72c0.93,0.072,2.149,0.107,3.654,0.107h3.225v-2.15h-5.052
				c0.07-1.217,0.107-2.292,0.107-3.225c0-0.93-0.037-1.897-0.107-2.902h12.254C512.652,326.202,512.617,327.242,512.617,328.387z
				 M510.789,329.784v-3.009h-8.491v3.009H510.789z"/>
		</g>
		<polygon fill="#E60012" points="452.174,303.814 426.646,293.666 426.646,293.19 424.226,293.19 424.226,334.583 426.646,334.583 
			426.646,314.97 		"/>
	</g>
	<g>
		<g opacity="0">
			<text transform="matrix(1 0 0 1 467.9551 299.7822)" fill="#040000" font-family="'ArialMT'" font-size="15">2</text>
		</g>
		<rect x="384.112" y="231" opacity="0" fill="none" stroke="#000000" stroke-width="0.8569" width="179.888" height="153.008"/>
	</g>
</g>
<g>
	<g>
		<circle fill="#FFFFFF" stroke="#E60012" stroke-width="2.1694" cx="266.511" cy="344.312" r="9.919"/>
		<rect x="166.778" y="322.115" fill="#E60012" width="85.916" height="35.78"/>
		<g>
			<path fill="#FFFFFF" d="M201.81,330.223c0.813,0,1.929-0.033,3.351-0.102v1.929c-1.287-0.066-2.403-0.102-3.351-0.102h-7.817
				c-0.542,2.167-1.388,4.264-2.538,6.295h12.082c-0.068,2.843-0.102,5.449-0.102,7.817c0,2.37,0.033,4.297,0.102,5.787h-2.132
				v-2.538h-10.457v2.741h-2.132c0.067-1.558,0.102-4.975,0.102-10.254c-1.761,1.964-3.52,3.553-5.279,4.771
				c-0.542-0.676-1.117-1.183-1.726-1.522c2.91-1.759,5.211-3.959,6.904-6.599c1.691-2.64,2.673-4.805,2.944-6.498h-2.335
				c-2.437,0-4.231,0.035-5.381,0.102v-1.929c1.15,0.068,2.978,0.102,5.482,0.102H201.81z M201.404,347.584v-7.615h-10.457v7.615
				H201.404z"/>
			<path fill="#FFFFFF" d="M215.109,333.979c0-2.3-0.035-3.959-0.102-4.975h2.335c-0.068,0.812-0.102,2.471-0.102,4.975h5.584
				c0-2.233-0.035-3.925-0.102-5.076h2.437c-0.068,1.083-0.102,2.776-0.102,5.076h2.234c1.285,0,2.47-0.033,3.553-0.102v2.03
				c-1.083-0.066-2.269-0.101-3.553-0.101h-2.234v5.279h2.843c1.354,0,2.707-0.034,4.061-0.102v2.132
				c-1.354-0.066-2.708-0.102-4.061-0.102h-2.843v5.076c0,1.287,0.034,2.64,0.102,4.061h-2.437c0.067-1.421,0.102-2.774,0.102-4.061
				v-5.076h-5.686c-0.271,3.723-2.268,6.802-5.99,9.239c-0.609-0.609-1.32-1.117-2.132-1.523c3.586-1.827,5.583-4.399,5.99-7.716
				h-2.944c-1.287,0-2.64,0.035-4.061,0.102v-2.132c1.421,0.068,2.808,0.102,4.163,0.102h2.944v-5.279h-2.031
				c-1.151,0-2.335,0.035-3.553,0.101v-2.03c1.218,0.068,2.402,0.102,3.553,0.102H215.109z M222.825,341.086v-5.279h-5.584v5.279
				H222.825z"/>
		</g>
		<polygon fill="#74C6BE" stroke="#000000" stroke-width="4.3388" points="291.429,316.598 267.319,307.014 267.319,306.559 
			265.033,306.559 265.033,345.655 267.319,345.655 267.319,327.133 		"/>
	</g>
	<g opacity="0">
		<g>
			<text transform="matrix(1 0 0 1 224.9175 384.7822)" fill="#040000" font-family="'ArialMT'" font-size="15">1</text>
		</g>
		<rect x="137" y="259" fill="none" stroke="#000000" stroke-width="0.8426" width="173.962" height="153.008"/>
	</g>
</g>
<g>
	<g>
		<path fill="#FFFFFF" stroke="#E60012" stroke-width="2.1668" d="M467.262,609.058c0,5.477-4.438,9.907-9.905,9.907
			c-5.469,0-9.904-4.431-9.904-9.907c0-5.468,4.436-9.903,9.904-9.903C462.823,599.154,467.262,603.589,467.262,609.058z"/>
		<rect x="472.377" y="591.927" fill="#E60012" width="85.817" height="35.739"/>
		<g>
			<path fill="#FFFFFF" d="M498.588,599.085c0.812,0,1.688-0.033,2.637-0.101v1.724c-0.745-0.066-1.42-0.102-2.028-0.102v13.487
				c0.743-0.203,1.42-0.371,2.028-0.507c-0.137,0.879-0.17,1.454-0.102,1.724c-0.812,0.136-1.455,0.271-1.927,0.406v2.332
				c0,1.014,0.033,2.163,0.102,3.448h-2.13c0.135-1.285,0.203-2.434,0.203-3.448v-1.927c-0.745,0.137-1.674,0.373-2.789,0.71
				c-1.115,0.339-2.316,0.745-3.6,1.217c-0.068-0.472-0.304-1.25-0.71-2.332c0.406,0,1.115-0.102,2.13-0.304v-14.805
				c-0.677,0-1.318,0.068-1.927,0.203v-1.825c0.812,0.068,1.655,0.101,2.535,0.101H498.588z M497.371,604.156v-3.549h-3.144v3.549
				H497.371z M497.371,609.733v-3.955h-3.144v3.955H497.371z M497.371,611.355h-3.144v3.752c0.743-0.135,1.79-0.337,3.144-0.608
				V611.355z M510.097,600.556c-0.237,0.507-0.659,1.302-1.268,2.383c1.42,0,2.738-0.033,3.955-0.102v1.825
				c-1.217-0.134-2.266-0.203-3.144-0.203h-2.028c-0.067,2.502-0.136,4.259-0.202,5.273h2.94c0.812,0,1.79-0.033,2.94-0.102v1.826
				c-1.15-0.067-2.129-0.102-2.94-0.102h-2.637c0.405,1.825,1.217,3.448,2.434,4.867c1.217,1.42,2.568,2.299,4.057,2.637
				c-0.474,0.405-0.829,0.793-1.065,1.166c-0.237,0.371-0.39,0.794-0.456,1.268c-1.42-1.014-2.604-2.129-3.549-3.346
				c-0.947-1.217-1.724-2.738-2.332-4.563c-0.475,1.556-1.083,2.976-1.825,4.259c-0.745,1.283-1.691,2.568-2.84,3.853
				c-0.203-0.271-0.507-0.575-0.912-0.913c-0.406-0.339-0.71-0.507-0.913-0.507c0.946-0.608,1.841-1.572,2.688-2.89
				c0.844-1.318,1.402-2.399,1.673-3.245c0.27-0.845,0.472-1.707,0.608-2.586h-1.217c-1.082,0-2.23,0.035-3.447,0.102v-1.826
				c1.217,0.068,2.365,0.102,3.447,0.102h1.42c0.135-1.96,0.202-3.717,0.202-5.273h-1.014c-0.947,0-2.063,0.068-3.347,0.203v-1.825
				c1.284,0.068,2.399,0.102,3.347,0.102h2.535c0.812-1.892,1.42-3.684,1.825-5.375c0.405,0.271,1.148,0.644,2.23,1.116
				C510.722,599.425,510.333,600.049,510.097,600.556z M505.686,601.52c-0.811,0.339-1.353,0.676-1.622,1.014
				c-0.339-0.811-1.049-2.094-2.13-3.853c0.203-0.067,0.676-0.371,1.42-0.913C504.57,599.661,505.347,600.911,505.686,601.52z"/>
			<path fill="#FFFFFF" d="M522.722,616.983c-1.285,1.455-2.738,2.855-4.36,4.208c-0.677-0.608-1.318-1.15-1.927-1.623
				c1.554-1.014,2.839-2.028,3.854-3.042c1.014-1.014,2.129-2.365,3.346-4.056c0.675,0.542,1.453,1.083,2.333,1.623
				C525.087,614.567,524.005,615.53,522.722,616.983z M534.788,604.663c-0.811,1.826-1.454,3.245-1.927,4.259h2.231
				c1.622,0,2.94-0.033,3.954-0.102v2.028c-0.947-0.066-2.23-0.101-3.853-0.101h-14.399c-1.556,0-2.874,0.035-3.955,0.101v-2.028
				c1.015,0.068,2.298,0.102,3.854,0.102h9.836c1.217-1.96,2.163-3.887,2.84-5.78c0.675-1.892,1.115-3.278,1.317-4.157
				c0.812,0.339,1.689,0.643,2.637,0.913C536.444,601.25,535.6,602.837,534.788,604.663z M521.251,602.533
				c0.71,0.948,1.572,2.129,2.586,3.549c-0.677,0.271-1.285,0.745-1.825,1.419c-0.542-0.946-1.234-2.011-2.079-3.194
				c-0.846-1.182-1.571-2.146-2.18-2.89c0.54-0.406,1.115-0.878,1.724-1.42C519.948,600.743,520.541,601.587,521.251,602.533z
				 M528.299,601.316c0.27,1.488,0.642,3.042,1.115,4.665c-0.745,0-1.488,0.136-2.23,0.406c-0.271-1.149-0.542-2.45-0.812-3.904
				c-0.271-1.453-0.575-2.72-0.913-3.802l2.13-0.71C527.792,598.715,528.027,599.83,528.299,601.316z M534.991,615.817
				c1.352,1.083,2.67,2.165,3.955,3.245c-0.677,0.406-1.318,0.979-1.927,1.724c-1.082-1.15-2.333-2.297-3.752-3.447
				c-1.42-1.149-2.705-2.163-3.854-3.042c0.472-0.608,0.912-1.182,1.318-1.724C532.219,613.654,533.638,614.736,534.991,615.817z"/>
		</g>
		<polygon fill="#00A0E9" points="483.678,583.821 459.599,574.254 459.599,573.799 457.312,573.799 457.312,612.85 459.599,612.85 
			459.599,594.346 		"/>
	</g>
	<g opacity="0">
		<g>
			<text transform="matrix(1 0 0 1 482.5723 562.7822)" fill="#040000" font-family="'ArialMT'" font-size="15">3</text>
		</g>
		<rect x="426.125" y="521" fill="none" stroke="#000000" stroke-width="0.6926" width="151.875" height="118.417"/>
	</g>
</g>
<g>
	<g>
		<path fill="#FFFFFF" stroke="#E60012" stroke-width="2.1534" d="M542.37,806.504c0,5.44-4.406,9.848-9.84,9.848
			c-5.441,0-9.849-4.407-9.849-9.848c0-5.432,4.407-9.84,9.849-9.84C537.964,796.664,542.37,801.072,542.37,806.504z"/>
		<rect x="448.755" y="819.654" fill="#E60012" width="85.291" height="35.518"/>
		<g>
			<g>
				<path fill="#FFFFFF" d="M470.149,843.334c-0.538,0.705-1.31,1.697-2.317,2.973c-0.471-0.471-0.975-0.872-1.512-1.209
					c1.411-1.545,2.52-3.157,3.325-4.838c0.671,0.539,1.311,0.975,1.915,1.311C471.157,842.041,470.687,842.628,470.149,843.334z
					 M475.793,833.508c1.142,0,2.318-0.033,3.527-0.101v2.016c-1.143-0.066-2.856-0.102-5.14-0.102v2.52
					c2.082,0,3.729-0.032,4.938-0.101v2.016c-1.21-0.066-2.856-0.101-4.938-0.101v6.147c0,1.008-0.319,1.679-0.957,2.016
					c-0.64,0.335-1.462,0.504-2.47,0.504c-0.269-0.807-0.604-1.547-1.008-2.217c0.94,0.065,1.596,0.065,1.966,0
					c0.368-0.068,0.554-0.369,0.554-0.907v-5.543c-2.15,0-3.829,0.034-5.038,0.101v-2.016c1.275,0.068,2.955,0.101,5.038,0.101
					v-2.52c-2.486,0-4.333,0.035-5.542,0.102v-2.016c1.209,0.067,2.351,0.101,3.426,0.101h3.83c0.537-1.612,0.939-2.854,1.209-3.729
					c0.537,0.135,1.275,0.337,2.217,0.604C476.935,830.653,476.397,831.693,475.793,833.508z M474.584,827.461
					c1.545,0,2.988-0.033,4.333-0.101v2.016c-1.41-0.066-2.554-0.101-3.426-0.101h-4.838c-1.143,0-2.252,0.034-3.325,0.101v-2.016
					c1.142,0.067,2.25,0.101,3.325,0.101h1.814c-0.136-0.738-0.337-1.512-0.604-2.317c0.671-0.202,1.376-0.403,2.116-0.605
					C474.314,825.949,474.517,826.924,474.584,827.461z M471.762,832.701c-0.604,0.136-1.176,0.337-1.713,0.605
					c-0.337-1.008-0.705-1.915-1.108-2.722c0.469-0.268,1.008-0.504,1.612-0.705C471.022,830.821,471.425,831.762,471.762,832.701z
					 M478.615,843.888c-0.673,0.337-1.21,0.773-1.612,1.311c-0.539-1.21-1.244-2.384-2.116-3.527
					c0.469-0.403,0.973-0.771,1.511-1.108C477.204,841.638,477.942,842.746,478.615,843.888z M482.646,827.663v5.14h5.24
					c0.738,0,1.512-0.033,2.317-0.102v1.915c-0.941-0.066-1.747-0.101-2.418-0.101v10.38c0,1.142,0.033,2.352,0.101,3.628h-2.116
					c0.066-1.276,0.101-2.453,0.101-3.527v-10.48h-3.225c0,1.68-0.068,3.293-0.202,4.837c-0.135,1.547-0.42,3.074-0.856,4.586
					c-0.438,1.512-1.093,3.073-1.965,4.687c-0.673-0.403-1.345-0.74-2.016-1.008c1.074-1.547,1.83-3.175,2.268-4.889
					c0.436-1.713,0.688-3.207,0.756-4.484c0.065-1.275,0.101-3.19,0.101-5.744c0-2.62-0.035-4.702-0.101-6.248
					c3.023-0.134,5.744-0.604,8.163-1.411c0.537,1.075,0.973,1.814,1.31,2.217C489.096,827.058,486.609,827.26,482.646,827.663z"/>
				<path fill="#FFFFFF" d="M504.817,826.453c1.947,2.353,3.527,3.965,4.736,4.838c1.209,0.874,2.317,1.546,3.325,2.016
					c1.008,0.471,1.981,0.841,2.923,1.108c-0.672,0.74-1.108,1.445-1.31,2.116c-1.345-0.604-2.555-1.242-3.629-1.915
					c-1.075-0.671-2.166-1.527-3.274-2.569c-1.109-1.041-2.369-2.47-3.779-4.283c-1.277,1.813-2.537,3.31-3.779,4.484
					c-1.244,1.176-2.303,2.101-3.175,2.771c-0.874,0.672-1.849,1.345-2.923,2.016c-0.135-0.268-0.672-0.807-1.612-1.612
					c1.411-0.671,2.754-1.478,4.031-2.419c1.275-0.94,2.553-2.132,3.83-3.578c1.275-1.443,2.317-3.006,3.124-4.686
					c0.738,0.471,1.41,0.841,2.016,1.108L504.817,826.453z M511.469,843.183c0,2.419,0.032,3.996,0.101,4.736h-2.116v-1.915h-11.187
					v2.218h-2.016c0.066-0.807,0.101-2.353,0.101-4.636c0-2.352-0.034-4.031-0.101-5.039h15.318
					C511.501,839.219,511.469,840.764,511.469,843.183z M507.034,834.415c1.074,0,2.016-0.033,2.821-0.101v1.914
					c-0.873-0.065-1.78-0.101-2.721-0.101h-5.644c-1.411,0-2.554,0.035-3.427,0.101v-1.914c1.275,0.067,2.419,0.101,3.427,0.101
					H507.034z M509.453,844.392v-4.232h-11.187v4.232H509.453z"/>
			</g>
		</g>
		<polygon fill="#1D2088" points="558.139,785.166 534.209,775.653 534.209,775.205 531.935,775.205 531.935,814.018 
			534.209,814.018 534.209,795.626 		"/>
	</g>
	<g opacity="0">
		<g>
			<text transform="matrix(1 0 0 1 551.2471 847.7822)" fill="#040000" font-family="'ArialMT'" font-size="15">4</text>
		</g>
		<rect x="430.341" y="764.763" fill="none" stroke="#000000" stroke-width="0.9166" width="163.659" height="119.551"/>
	</g>
</g>

</svg>