<svg version="1.0" id="图层_1" xmlns="http://www.w3.org/2000/svg" xmlns:xlink="http://www.w3.org/1999/xlink" x="0px" y="0px" 
	width="100%" height="100%" viewBox="0 0 720 1280" xml:space="preserve"
  style="position: relative;display: block;"
  >
  
<g>
	<g>
		<path opacity="0.6" fill="#FFFFFF" stroke="#00A0E9" stroke-width="7.1438" d="M68.73,421.424
			c1.436,1.846,3.458,4.504,4.727,6.416c2.136,3.212,4.276,5.354,4.276,11.782c0,6.43-10.688,24.633-10.688,24.633
			s-5.345,5.358-5.345,8.57c0,3.217,5.345,20.354,6.414,23.567c1.07,3.213,5.343,19.282,5.343,19.282s4.276,8.569,7.479,10.71
			c3.207,2.142,7.482-7.5,7.482,10.71c0,18.208-2.139,26.777-5.346,29.991c-3.204,3.21-8.55,11.789-8.55,11.789
			s4.276,9.635,5.346,12.845c1.068,3.212,10.686,50.343-18.169,77.123l-5.343,19.279c0,0,5.343,4.282,5.343,13.922
			c0,9.643-11.756,26.779-11.756,26.779s10.686,1.069,0,3.213c-10.686,2.146-10.686,2.146-10.686,2.146h-6.417
			c0,0-4.272,3.21-5.342,7.495c-1.066,4.287-6.41,12.854-7.482,17.138c-1.065,4.286,0,26.781,0,26.781l6.416,9.642
			c0,0,3.209-2.146,1.066,10.705c-2.136,12.854,1.07,7.5-2.136,12.854s-11.755,25.708-11.755,25.708l-10.156,13.39
			c1.604,3.214,2.14,6.426,3.745,10.175c1.599,3.752-1.071,13.389-1.071,14.995c0,1.608,1.604,17.675,1.604,17.675l6.942-2.678
			l13.363-1.07l29.39-1.073l12.289-0.536l9.083-1.069c0,0,13.895,1.069,15.498,1.605c1.603,0.534,20.304,2.144,27.79,2.677
			c7.479,0.537,13.357,4.287,13.357,4.287s3.204,4.816,3.204,6.423c0,1.61,1.07,4.821,1.07,4.821s1.604,10.175,5.877,11.245
			c4.276,1.074,14.431-6.961,14.431-6.961c14.425-3.749,13.355,19.815,13.355,19.815l1.604,9.642c0,0,1.603,8.031,1.069,9.64
			c-0.534,1.604-4.81,7.499-4.81,7.499l4.81,4.814l-0.534,4.826l7.48,3.746l1.602,16.071h6.413c0,0,6.412-2.678,9.619,1.069
			c3.208,3.748-5.343,3.748-5.343,3.748l-1.067,13.927l-10.689,2.138c0,0,8.549,36.952,8.549,40.169
			c0,3.211-6.947,20.886-6.947,20.886s-4.275,8.573-6.411,11.245c-2.138,2.678-7.482,5.356-6.945,9.644
			c0.533,4.281,10.685,3.209,10.685,3.209l0.536,7.504c0,0,2.136,4.818,6.946,6.963c4.811,2.139,7.481,17.672,7.481,17.672
			s3.74,10.709,4.274,16.064c0.538,5.359-0.534,6.962-2.138,9.638c-1.603,2.68-4.807,5.896-8.549,9.107
			c-3.741,3.214-4.808,10.71-4.808,10.71s0,0,4.808,1.606c4.808,1.609,13.893,5.355,13.893,5.355
			c8.551,1.072,19.24-20.352,19.24-20.352c11.219,0,12.821-2.674,12.821-2.674c-0.531-4.287,6.416-15.536,6.416-15.536
			c5.34-10.708,5.34-8.028,11.219-8.028c5.878,0,10.691-1.071,10.691-7.499c0-6.429,4.273-11.784,4.273-11.784l11.756-1.069
			l1.064-5.892l5.348-2.14c0,0,3.205,2.14,9.616,5.887c6.414,3.749-2.137,14.998,4.808,18.21c6.952,3.216,14.964-5.354,16.572-9.105
			c1.601-3.746,2.672-9.104-5.881-10.171c-8.551-1.075-14.429-11.786-19.236-14.997c-4.81-3.217,4.807-8.036,4.807-8.036
			s11.758-6.958,18.702-11.245c6.947-4.286,2.674-18.211,2.674-18.211c-2.674-16.601,7.482-26.781,7.482-26.781
			c12.825-5.888,21.373,7.499,21.373,7.499l10.155,10.177c27.25,9.643,37.937-18.205,37.937-18.205s-2.673-5.358-4.274-10.175
			c-1.601-4.825-2.137-24.639-2.137-24.639c0.536-10.177,15.495-12.317,20.307-17.138c4.809-4.821-5.879-10.177-5.879-10.177
			c-3.742-6.426,4.812-5.058,4.812-5.058c30.456-0.237,20.837-8.868,20.837-8.868c-14.961,2.679-16.03-1.604-16.03-1.604
			c0-13.927,39.544-5.888,39.544-5.888c11.755,0.531,30.991-17.675,30.991-17.675s4.811,0.531,7.482,0.531
			c2.674,0,6.945,4.82,6.945,4.82l4.276,8.571l7.48,16.067c8.015,11.779,19.235-3.748,28.859-26.246
			c9.615-22.491-3.209-24.097-3.209-24.097s0,0-9.084,1.069c-9.085,1.075-12.824-9.639-13.359-14.461
			c-0.537-4.818,7.48-21.421,7.48-21.421h10.686c0,0,3.207,0,4.813,0c1.604,0,9.086-1.606,15.494-4.817
			c6.414-3.216,5.343-6.428,6.414-9.642c1.068-3.212-0.535-9.104-1.604-12.316c-1.068-3.216-10.689-7.499-10.689-7.499l-5.343-2.678
			c0,0,0,0,4.279-3.749c4.272-3.751,2.134-20.887,2.668-25.17c0.536-4.289-0.534-6.428-3.741-8.038c-3.206-1.603-9.616,0-9.616,0
			s-1.068-6.423,0.532-6.959c1.605-0.533,8.549-2.674,3.209-4.82c-5.346-2.141-8.554,0-8.554,0s0.179-7.495,0.891-13.209
			c0.712-5.715,2.495-10.002,2.495-10.002c2.139-7.495-5.703-9.637-5.703-9.637c-4.986-2.86-21.017-3.217-21.017-3.217l-1.067-1.782
			c-6.411-13.927,1.067-36.773,1.067-36.773c15.677-30.349,32.064-39.634,32.064-39.634l3.204,1.427c0,0,3.567,2.861,7.126,5.355
			c3.566,2.503,4.63,2.503,7.835,3.214c3.209,0.714,4.277,3.215,5.351,7.141c1.064,3.931,7.121,10.361,8.547,15
			c1.422,4.642,3.919,8.923,6.768,8.923c2.847,0,1.425-0.709,6.055-4.281c4.629-3.572,8.906,1.069,10.334,1.069
			c1.424,0,22.088,3.212,29.927,3.212c7.838,0,10.329-21.417,8.548-22.133c-1.78-0.717-4.273,1.428-4.273,1.428
			c-7.837,4.641-17.098,2.499-16.031,0c1.069-2.5,1.064-13.214,1.064-13.214s-3.917,0-5.702,0c-1.778,0-8.187,0-9.971,0
			c-1.781,0-6.057-2.853-6.057-2.853s-1.424-3.212-1.424-4.288c0-1.068,0.353-3.568,2.491-6.783
			c2.139-3.211-0.355-3.926-3.919-7.501c-3.564-3.567,3.919-6.421,3.919-6.421s5.346-1.069,9.976-2.146
			c4.635-1.068,0.714-6.07-1.067-6.07c-1.778,0-4.275-2.857-4.275-2.857c-3.921-7.852,13.536-3.718,13.536-3.718
			s-6.77-2.706,1.429-0.561c8.194,2.137,18.169-2.501,18.169-2.501c13.178-3.573,5.694-19.635,5.694-19.635
			c6.413-5,9.265-15.713,9.265-15.713l5.344-7.854c0,0,8.902-0.712,12.112-1.781c3.206-1.075,4.984-6.431,6.053-8.929
			c1.07-2.5-3.913-2.145-4.986-2.5c-1.066-0.356-6.768-2.858-8.188-2.858c-1.425,0-5.522-11.426-5.7-12.139
			c-0.177-0.712,2.674-12.673,5.7-13.563c3.027-0.894,15.314-27.14,15.314-27.14h12.829c0,0,1.778,8.571-0.36-2.145
			c-2.139-10.711,10.688-27.132,10.688-27.132s6.411-8.214,5.696-11.784c-0.714-3.567-6.766-5.71-8.904-5.71
			c-2.138,0-3.562-4.641-1.425-11.07c2.137-6.427,19.949-10.349,21.733-16.781c1.782-6.42-7.485-23.919-7.485-23.919
			c21.022-11.068,14.251-46.413,12.827-49.27c-1.427-2.858-3.56-3.929-3.56-3.929l2.49-3.214c1.78-11.063-6.057-21.419-6.057-21.419
			l-3.561-6.787l-5.698-5.711h-2.496l-3.31,2.322c-0.423,0.59-0.975,1.346-1.68,2.317c-5.701,7.856-7.481,1.072-7.481,1.072
			l-1.064-3.922l1.024-5.358l0,0h-17.77l-16.031-11.782c0,0-1.068-5.354-12.826,0c-11.751,5.355-22.439,11.782-22.439,11.782
			h-21.377c0,0-21.374-1.072-24.577,0c-3.208,1.069-13.896-1.072-19.24,0c-5.341,1.069-12.823,0.307-12.823,0.307l-10.688,0.265
			l-4.275-0.572l-11.758-19.279l-6.412-10.712l-11.755-6.427v-6.427c0,0-7.481-3.213-8.551-7.497c-1.067-4.285,0-13.922,0-13.922
			s-6.296-4.29-0.475-7.5c5.818-3.213,7.957-8.569,7.957-8.569l9.62-19.278l3.203-21.425c0,0,0-13.928,3.208-14.995
			c3.204-1.072,6.413-9.642,6.413-9.642v-9.637l1.064-9.646c0,0-1.064-10.705-5.342-11.777c-4.272-1.072-10.687-7.501-10.687-7.501
			l8.551-11.781c0,0,5.341-9.637,11.757-9.637c6.413,0,8.548-5.358,8.548-5.358s2.139-13.926,2.139-17.137
			c0-3.217-6.415-7.496-7.481-12.854c-1.069-5.354-1.069-21.424-1.069-21.424l-2.136-16.067l-3.207-8.565
			c0,0,1.068-5.361-1.072-8.57c-2.137-3.212-10.686-17.141-10.686-17.141l-5.343-8.566L481.97,7.963l-17.359,7.496l-17.101,3.214
			c0,0-16.028,12.854-13.894,21.424c2.139,8.57-11.754,21.42-14.961,23.564c-3.206,2.139-21.379,27.847-21.379,32.134
			c0,4.286-10.683,13.923-10.683,13.923s-4.276,7.498-10.689,13.923c-6.412,6.431-12.823,13.927-12.823,13.927l-7.482,19.28
			c0,0,0,5.356,0,8.566c0,0.688,0,0.952,0,1.045c0-0.006,0,0.012,0,0.055c0,0.206,0,1.244,0,5.616
			c0,9.352-7.475,15.781-7.475,15.781c0.014,0,0.03,0,0.03,0s-0.016,0-0.03,0c-0.204,0-1.503,0-8.554,0
			c-9.619,0-24.582-16.568-37.41-15.781c-12.821,0.782-24.577,22.206-24.577,22.206s6.409,2.141-9.62,5.355
			c-16.03,3.211-29.924,16.067-32.059,23.563c-2.14,7.496,0,21.423,0,21.423l-0.952,9.637c0,0-3.326,9.644-12.943,7.5
			c-9.617-2.141-22.445-2.141-28.856-2.141c-6.416,0-25.65-3.213-28.856-2.141c-3.208,1.072-23.51,10.709-23.51,10.709
			s-16.033,4.285-19.239,9.644c-3.21,5.351-5.346,8.567-12.825,14.992c-7.483,6.427-18.169,16.064-18.169,16.064l-13.894,20.354
			c0,0-9.616,13.924-9.616,17.137c0,3.213,0,22.498,0,25.704c0,3.214,0,19.282,0,23.567c0,4.283,0,12.852,0,12.852v10.711
			C67.045,419.269,67.751,420.158,68.73,421.424"/>
		
			<text transform="matrix(1 0 0 1 663.0654 408.0933)" opacity="0" fill="#040000" enable-background="new    " font-family="'SimHei'" font-size="20">轮廓</text>
	</g>
	<g>
		<g>
			<g>
				<path d="M276.215,499.722l-0.278,7.062l-0.79,0.411c0.081-1.139,0.138-2.094,0.169-2.867l0.148-3.751
					c-0.579,0.641-1.304,1.294-2.178,1.959l-0.103-0.17c0.652-0.673,1.213-1.324,1.679-1.951c0.467-0.625,0.868-1.218,1.203-1.776
					c0.335-0.557,0.584-1.054,0.75-1.49l1.016,0.869c-0.301,0.136-0.577,0.365-0.828,0.686
					C276.748,499.024,276.486,499.365,276.215,499.722z M276.483,494.318l1.073,0.816c-0.3,0.135-0.604,0.382-0.913,0.737
					c-0.311,0.394-0.733,0.865-1.271,1.414c-0.539,0.55-1.109,1.015-1.713,1.397l-0.105-0.17c0.768-0.78,1.396-1.538,1.886-2.274
					C275.93,495.503,276.276,494.862,276.483,494.318z M278.855,502.81l1.021,0.758c-0.377,0.206-0.892,0.665-1.547,1.375
					c-0.654,0.712-1.301,1.237-1.94,1.582l-0.106-0.115c0.535-0.496,1.026-1.056,1.476-1.683
					C278.205,504.102,278.571,503.462,278.855,502.81z M281.172,494.503l1.075,0.761l-0.569,0.419c1.473,1.9,3.03,3.029,4.674,3.389
					l-0.009,0.221c-0.516-0.021-0.892,0.185-1.13,0.619c-1.437-0.941-2.672-2.297-3.708-4.069c-1.33,1.974-2.899,3.459-4.706,4.455
					l-0.104-0.169c0.644-0.49,1.293-1.082,1.948-1.774c0.653-0.693,1.187-1.38,1.601-2.064
					C280.659,495.607,280.968,495.011,281.172,494.503z M278.955,505.908c0.693,0.137,1.169,0.202,1.428,0.194
					c0.257-0.009,0.394-0.196,0.408-0.564l0.14-3.53l-1.875-0.074c-0.479-0.019-0.921,0.019-1.331,0.113l-0.478-0.516l3.696,0.146
					l0.076-1.931l-0.661-0.026c-0.479-0.019-0.922,0.019-1.331,0.113l-0.478-0.516l4.138,0.164l0.689-0.636l0.953,1.032
					l-2.593-0.102l-0.076,1.931l2.317,0.091l0.745-0.688l1.008,1.089l-4.083-0.161l-0.152,3.862c0.01,0.664-0.376,1.126-1.16,1.391
					c-0.02-0.407-0.485-0.793-1.39-1.161L278.955,505.908z M282.705,503.293c1.289,0.936,2.047,1.537,2.277,1.803
					c0.229,0.268,0.338,0.53,0.328,0.787c-0.003,0.074-0.036,0.211-0.099,0.411c-0.063,0.199-0.17,0.333-0.32,0.402
					c-0.15,0.067-0.324-0.179-0.522-0.739c-0.236-0.562-0.83-1.396-1.78-2.501L282.705,503.293z"/>
				<path d="M293.458,501.01c-0.208-0.302-0.419-0.569-0.631-0.798c-0.494,0.386-1.154,0.765-1.979,1.138
					c-0.825,0.373-1.796,0.702-2.913,0.99l-0.046-0.223c1.306-0.427,2.355-0.892,3.149-1.395c0.793-0.502,1.421-1.022,1.884-1.556
					l-2.316-0.091l-0.446,0.093l-0.425-0.459l6.676,0.264l0.688-0.636l0.899,1.03l-4.028-0.159c-0.267,0.21-0.57,0.474-0.915,0.792
					c0.213,0.193,0.496,0.48,0.849,0.863c0.354,0.382,0.634,0.762,0.839,1.138c0.869-0.518,1.472-0.899,1.813-1.144
					c0.341-0.245,0.647-0.527,0.918-0.848l0.846,0.973l-0.61,0.031c-0.524,0.2-1.084,0.418-1.684,0.651
					c0.32,1.229,0.79,2.178,1.408,2.846c0.618,0.669,1.457,1.117,2.517,1.342l-0.006,0.166c-0.516,0.017-0.893,0.223-1.13,0.619
					c-0.936-0.552-1.629-1.206-2.077-1.961c-0.45-0.754-0.781-1.707-0.992-2.857c-0.262,0.1-0.563,0.236-0.901,0.407
					c0.131,0.411,0.243,0.857,0.334,1.339c0.092,0.483,0.124,1.055,0.098,1.717c-0.026,0.662-0.167,1.209-0.423,1.641
					c-0.258,0.432-0.758,0.762-1.503,0.991c-0.091-0.483-0.646-0.909-1.662-1.281l0.009-0.22c0.912,0.219,1.515,0.327,1.811,0.32
					c0.294-0.007,0.511-0.118,0.649-0.333c0.138-0.216,0.232-0.543,0.287-0.983c0.054-0.44,0.043-1.085-0.034-1.936
					c-0.427,0.536-1.271,1.166-2.533,1.889c-1.264,0.724-2.786,1.29-4.571,1.698l-0.047-0.222c1.528-0.456,2.849-1.021,3.962-1.695
					c1.112-0.675,2.113-1.51,3-2.506c-0.059-0.408-0.191-0.762-0.4-1.066c-0.347,0.392-0.993,0.882-1.936,1.471
					c-0.946,0.589-2.274,1.125-3.987,1.61l-0.047-0.222c1.157-0.397,2.254-0.915,3.294-1.556
					C292.185,502.24,292.955,501.617,293.458,501.01z M298.135,498.708l0.653-1.19l-9.156-0.361c0.013,0.59-0.094,0.964-0.321,1.12
					c-0.227,0.157-0.434,0.232-0.617,0.225c-0.11-0.004-0.219-0.045-0.326-0.124c-0.107-0.078-0.161-0.135-0.16-0.172
					c0.004-0.11,0.14-0.271,0.406-0.481c0.378-0.279,0.64-0.803,0.781-1.571l0.276,0.011l-0.026,0.662l9.046,0.357l0.577-0.585
					l0.953,1.032c-0.515-0.021-1.156,0.378-1.925,1.195L298.135,498.708z M292.865,495.019l0.115-0.106
					c0.837,0.254,1.343,0.486,1.52,0.696c0.175,0.21,0.261,0.388,0.255,0.535c-0.005,0.147-0.077,0.32-0.214,0.517
					c-0.137,0.197-0.242,0.294-0.315,0.292c-0.11-0.004-0.197-0.154-0.259-0.452C293.8,496.051,293.434,495.558,292.865,495.019z"/>
				<path d="M304.012,499.603c0.081-2.059,0.115-3.421,0.105-4.084l1.246,0.657l-0.46,0.424l-0.12,3.034l0.773,0.03l0.687-0.636
					l0.955,1.032l-2.429-0.096l-0.167,4.248l2.573-0.783l0.047,0.223c-3.031,1.207-4.777,2.041-5.237,2.501l-0.62-1.129
					c0.481-0.054,1.3-0.261,2.456-0.621l0.176-4.469l-1.49-0.059l-0.5,0.091l-0.425-0.458L304.012,499.603z M305.717,498.399
					l6.896,0.272l0.746-0.689l1.007,1.09l-2.151-0.085c-0.502,2.448-1.24,4.298-2.208,5.549c1.268,1.486,2.684,2.463,4.25,2.93
					l-0.008,0.221c-0.664,0.01-1.078,0.215-1.24,0.614c-1.294-0.825-2.449-1.883-3.465-3.176c-1.687,1.665-3.83,2.722-6.424,3.172
					l-0.047-0.223c2.645-0.78,4.664-1.989,6.055-3.629c-0.894-1.619-1.391-3.499-1.49-5.639l-0.993-0.039l-0.501,0.091
					L305.717,498.399z M307.966,498.82c0.077,0.85,0.253,1.732,0.53,2.645c0.277,0.914,0.642,1.71,1.095,2.392
					c0.469-0.718,0.863-1.604,1.182-2.661c0.317-1.055,0.503-1.803,0.557-2.243L307.966,498.82z M308.807,495.704l0.115-0.106
					c0.825,0.549,1.334,0.956,1.526,1.221c0.192,0.266,0.285,0.49,0.278,0.674c-0.007,0.185-0.089,0.375-0.244,0.571
					c-0.156,0.197-0.27,0.293-0.343,0.291c-0.11-0.004-0.212-0.211-0.306-0.62C309.706,497.175,309.364,496.499,308.807,495.704z"/>
				<path d="M321.624,499.966c0.077-1.949,0.109-3.255,0.099-3.919l1.3,0.659l-0.459,0.424l-0.113,2.869l4.082,0.161l0.917-0.848
					l1.167,1.262l-6.18-0.244l-0.018,0.441c0.313,1.375,0.932,2.771,1.852,4.189c0.919,1.417,2.254,2.4,4,2.948l-0.009,0.22
					c-0.553,0.014-0.969,0.238-1.242,0.669c-1.186-0.785-2.194-1.835-3.025-3.158c-0.832-1.322-1.405-2.688-1.716-4.102
					c-0.42,2.231-1.186,3.868-2.294,4.91c-1.109,1.043-2.577,1.823-4.402,2.34l-0.046-0.223c1.309-0.5,2.421-1.156,3.337-1.968
					c0.915-0.811,1.57-1.761,1.963-2.851c0.392-1.09,0.65-2.24,0.772-3.451l-4.358-0.172l-0.777,0.08l-0.423-0.459L321.624,499.966z
					"/>
				<path d="M332.147,500.712c0.078-1.986,0.112-3.347,0.105-4.084l1.305,0.548l-0.513,0.367l-0.126,3.2l0.663,0.026l0.63-0.583
					l0.9,0.975l-2.207-0.087l-0.159,4.027l2.01-0.529l0.046,0.224c-2.877,1.028-4.395,1.705-4.555,2.03l-0.621-1.075
					c0.443-0.019,1.222-0.173,2.339-0.46l0.167-4.248l-0.441-0.017c-0.479-0.019-0.922,0.019-1.331,0.113l-0.478-0.516
					L332.147,500.712z M338.167,499.403c0.041-1.03,0.056-1.913,0.049-2.651l1.3,0.659l-0.567,0.365l-0.065,1.655l2.207,0.087
					l0.52-0.587l1.006,1.089c-0.552,0.015-1.253,0.485-2.1,1.409l-0.216-0.119l0.887-1.457l-2.317-0.092l-0.113,2.869l1.158,0.046
					l0.463-0.534l0.909,0.753l-0.511,0.367c-0.422,1.347-0.983,2.503-1.684,3.469c0.954,1.033,2.069,1.685,3.349,1.956l-0.008,0.221
					c-0.519,0.053-0.858,0.26-1.02,0.623c-1.008-0.592-1.935-1.365-2.782-2.32c-1.257,1.056-2.852,1.821-4.786,2.297l-0.104-0.169
					c1.907-0.698,3.396-1.598,4.472-2.697c-0.657-1.13-1.066-2.38-1.234-3.75l-0.613,0.142l-0.371-0.401
					c-0.099,1.581-0.419,2.912-0.959,3.996c-0.54,1.083-1.342,2.028-2.404,2.833l-0.162-0.116c1.15-1.135,1.895-2.292,2.237-3.476
					c0.341-1.183,0.549-2.713,0.623-4.589c0.037-0.919,0.05-1.767,0.044-2.54l0.752,0.583L338.167,499.403z M336.112,499.653
					l-0.113,2.869l2.041,0.081l0.113-2.869L336.112,499.653z M337.2,502.901c0.315,1.302,0.79,2.371,1.42,3.206
					c0.588-0.897,1.033-1.929,1.337-3.097L337.2,502.901z"/>
			</g>
		</g>
		<polygon points="292.53,532.71 315.419,533.099 303.923,504.922 		"/>
	</g>
</g>
<g>
</g>
<g>
</g>
<g>
	<g>
		<path fill="#FFFFFF" stroke="#E60012" stroke-width="2.0175" d="M441.289,189.77c0,5.089-4.128,9.22-9.224,9.22
			c-5.094,0-9.222-4.131-9.222-9.22c0-5.094,4.128-9.226,9.222-9.226C437.161,180.544,441.289,184.676,441.289,189.77z"/>
		<rect x="409.185" y="200.617" fill="#E60012" width="79.9" height="33.277"/>
		<g>
			<path fill="#FFFFFF" d="M441.955,208.196c0.944,0,2.108-0.031,3.493-0.094v1.794c-1.321-0.062-2.486-0.095-3.493-0.095h-3.965
				v8.97h5.759c1.384,0,2.675-0.031,3.871-0.095v1.794c-1.196-0.062-2.487-0.094-3.871-0.094h-5.759v4.343
				c0,1.385,0.03,2.706,0.094,3.966h-2.171c0.062-1.26,0.094-2.581,0.094-3.966v-4.343h-6.892c-0.883,0-1.827,0.032-2.833,0.094
				v-1.794c1.006,0.063,2.014,0.095,3.021,0.095h6.703v-8.97h-4.438c-0.943,0-2.077,0.033-3.398,0.095v-1.794
				c1.321,0.063,2.422,0.094,3.305,0.094H441.955z M428.832,212.35c0.503-0.377,1.006-0.786,1.511-1.228
				c1.572,1.889,2.832,3.557,3.776,5.004c-0.756,0.566-1.354,1.039-1.794,1.416C431.381,215.655,430.216,213.924,428.832,212.35z
				 M443.371,210.839c0.629,0.441,1.259,0.819,1.889,1.133c-1.574,2.455-2.896,4.375-3.965,5.759
				c-0.505-0.44-1.039-0.817-1.605-1.133C441.137,214.837,442.364,212.917,443.371,210.839z"/>
			<path fill="#FFFFFF" d="M470.279,213.294v10.102c0,1.322,0.031,2.927,0.095,4.815h-1.794v-1.605h-14.823v2.077h-1.982
				c0.062-1.827,0.094-3.524,0.094-5.099v-10.291c0-1.322-0.032-2.895-0.094-4.721h18.6
				C470.311,210.4,470.279,211.973,470.279,213.294z M460.083,216.504v-6.231h-6.326v6.231H460.083z M460.083,224.907v-6.704h-6.326
				v6.704H460.083z M468.485,216.504v-6.231h-6.608v6.231H468.485z M468.485,224.907v-6.704h-6.608v6.704H468.485z"/>
		</g>
		<polygon fill="#E60012" points="457.065,166.381 434.645,157.466 434.645,157.045 432.517,157.045 432.517,193.406 
			434.645,193.406 434.645,176.175 		"/>
	</g>
	<g opacity="0">
		<text transform="matrix(1 0 0 1 396.2891 185.9375)" fill="#040000" font-family="'ArialMT'" font-size="15">1</text>
		<rect x="372.5" y="151.514" fill="none" stroke="#040000" stroke-width="0.714" width="134" height="94.952"/>
	</g>
</g>
<g>
	<g>
		<circle fill="#FFFFFF" stroke="#E60012" stroke-width="2.3058" cx="558.5" cy="483.248" r="10.539"/>
		<rect x="535.42" y="495.214" fill="#E60012" width="91.324" height="38.034"/>
		<g>
			<path fill="#FFFFFF" d="M563.822,505.842c0-1.654-0.037-2.949-0.108-3.885h2.482c-0.072,0.863-0.108,2.158-0.108,3.885h9.28
				c0.503,0,1.295-0.035,2.374-0.108v2.158c-1.079-0.071-1.871-0.108-2.374-0.108h-9.28v8.093l5.827-0.216
				c0-2.661-0.037-4.603-0.107-5.827h2.374c-0.146,1.152-0.216,2.806-0.216,4.964s0.07,3.742,0.216,4.748h-2.267v-2.05l-5.827,0.216
				V523c0,0.936,0.647,1.366,1.942,1.295h5.72c0.791,0,1.33-0.305,1.618-0.917c0.287-0.611,0.503-1.528,0.647-2.752
				c0.719,0.577,1.547,1.008,2.482,1.295c-0.577,1.942-1.116,3.146-1.619,3.615c-0.504,0.467-1.618,0.702-3.345,0.702h-6.583
				c-2.015,0.071-3.059-0.647-3.129-2.158v-6.367l-7.662,0.432c0.071-0.791,0.108-2.158,0.108-4.101
				c0-2.013-0.037-3.453-0.108-4.316h2.374c-0.072,0.863-0.107,2.986-0.107,6.367l5.396-0.216v-8.093h-6.69
				c-1.295,0-2.519,0.037-3.669,0.108v-2.158c1.15,0.073,2.374,0.108,3.669,0.108H563.822z"/>
			<path fill="#FFFFFF" d="M584.271,518.63c1.474-0.61,2.787-1.492,3.938-2.644h-3.13c-1.151,0-2.23,0.037-3.237,0.108v-1.727
				c1.295,0.073,2.41,0.108,3.346,0.108h3.885v-1.511h-1.403c-1.151,0-2.374,0.037-3.669,0.108v-1.834
				c1.366,0.073,2.59,0.108,3.669,0.108h1.403v-1.511h-1.403c-1.439,0-2.627,0.037-3.561,0.108v-1.727
				c1.727,0.073,2.913,0.108,3.561,0.108h1.403v-1.727h1.834v1.727h4.425v-1.727h1.834v1.727h1.295c1.511,0,2.914-0.035,4.209-0.108
				v1.727c-1.295-0.071-2.555-0.108-3.777-0.108h-1.727v1.511h1.619c0.216,0,0.521-0.017,0.917-0.054
				c0.395-0.036,1.204-0.054,2.428-0.054v1.834c-1.224-0.071-2.015-0.108-2.374-0.108h-2.59v1.511h7.878v1.619
				c-1.367-0.071-2.267-0.108-2.698-0.108h-4.424c0.863,1.008,1.924,1.799,3.184,2.374c1.258,0.577,2.787,0.971,4.586,1.187
				c-0.361,0.647-0.72,1.403-1.079,2.266c-2.015-0.647-3.634-1.366-4.856-2.158v1.079h-5.396v3.561c0,1.366-0.323,2.14-0.971,2.32
				c-0.647,0.179-1.656,0.341-3.021,0.486c-0.146-0.647-0.324-1.403-0.54-2.266c0.935,0.071,1.619,0.071,2.051,0
				c0.432-0.072,0.647-0.396,0.647-0.971v-3.129h-3.777c-0.936,0-1.764,0.037-2.481,0.108v-1.403
				c-1.44,0.792-2.878,1.548-4.316,2.266c-0.504-0.718-1.008-1.366-1.511-1.942C581.52,519.62,582.796,519.242,584.271,518.63z
				 M595.224,504.224h9.928c-0.072,0.863-0.107,1.619-0.107,2.266s0.035,1.332,0.107,2.05h-2.05v-2.59h-19.208v2.698h-2.051
				c0.071-0.791,0.108-1.546,0.108-2.266c0-0.791-0.037-1.511-0.108-2.158h10.791c-0.145-0.647-0.396-1.403-0.755-2.266l2.374-0.432
				C594.539,502.462,594.863,503.36,595.224,504.224z M587.994,521.705c0.647,0.577,1.223,1.116,1.727,1.619
				c-1.583,0.936-3.599,2.194-6.043,3.777c-0.504-0.577-0.972-1.151-1.403-1.727C584.792,524.224,586.699,523,587.994,521.705z
				 M592.526,519.331c0-0.718-0.037-1.474-0.108-2.266h2.051c-0.072,0.792-0.108,1.548-0.108,2.266h4.856
				c-1.44-1.006-2.52-2.121-3.237-3.345h-5.288c-1.008,1.224-2.374,2.339-4.101,3.345H592.526z M595.332,511.346v-1.511h-4.425
				v1.511H595.332z M595.332,514.475v-1.511h-4.425v1.511H595.332z M603.317,524.834c-0.432,0.575-0.9,1.223-1.403,1.942
				c-1.871-1.44-3.813-2.59-5.827-3.453c0.287-0.502,0.647-1.042,1.079-1.619C599.611,522.929,601.661,523.971,603.317,524.834z"/>
		</g>
		<polygon fill="#74C6BE" stroke="#000000" stroke-width="4.6117" points="584.254,453.112 558.627,442.929 558.627,442.448 
			556.193,442.448 556.193,483.999 558.627,483.999 558.627,464.314 		"/>
	</g>
	<g opacity="0">
		<text transform="matrix(1 0 0 1 623.5762 471.3027)" fill="#040000" font-family="'ArialMT'" font-size="15">5</text>
		<rect x="514.5" y="432.149" fill="none" stroke="#040000" stroke-width="0.7565" width="134" height="106.597"/>
	</g>
</g>
<g>
	<g>
		<path fill="#FFFFFF" stroke="#E60012" stroke-width="2.3112" d="M474.568,490.167c0,5.837-4.732,10.57-10.568,10.57
			c-5.834,0-10.562-4.733-10.562-10.57c0-5.831,4.728-10.563,10.562-10.563C469.836,479.605,474.568,484.336,474.568,490.167z"/>
		<rect x="357.176" y="481.048" fill="#E60012" width="91.536" height="38.124"/>
		<g>
			<g>
				<path fill="#FFFFFF" d="M382.47,490.951c0.433,1.298,0.793,2.866,1.082,4.705c0.287,1.838,0.449,3.786,0.486,5.841
					c0.036,2.055-0.162,3.931-0.595,5.624c-0.433,1.694-1.136,2.848-2.109,3.461c-0.973,0.612-1.965,0.99-2.974,1.136
					c-0.146-0.938-0.471-1.803-0.974-2.596c1.514,0,2.559-0.325,3.137-0.974c0.576-0.649,0.99-1.55,1.243-2.704
					c0.252-1.153,0.379-2.342,0.379-3.569v-2.488c-1.73,2.379-3.282,4.218-4.651,5.516c-0.433-0.936-0.902-1.658-1.405-2.163
					c0.936-0.503,1.964-1.406,3.082-2.704c1.117-1.298,1.929-2.488,2.434-3.569c-0.216-1.658-0.47-2.956-0.757-3.894
					c-1.298,1.443-2.452,2.525-3.461,3.245c-0.362-0.649-0.795-1.261-1.298-1.839c1.081-0.576,2.45-1.658,4.109-3.245
					c-1.01-1.226-1.946-2.091-2.812-2.596c0.433-0.503,0.828-1.044,1.189-1.623c1.009,0.794,1.947,1.695,2.813,2.704
					c0.792-0.72,1.55-1.766,2.271-3.137c0.648,0.433,1.298,0.903,1.946,1.406C384.813,488.139,383.768,489.293,382.47,490.951z
					 M386.039,508.582v-5.408c0-1.009-0.037-2.018-0.107-3.028h13.953c-0.073,1.082-0.108,1.984-0.108,2.704v5.732
					c0.792,0,1.441-0.036,1.946-0.108v1.839c-0.865-0.073-1.73-0.108-2.596-0.108h-12.006c-1.443,0.071-2.525,0.144-3.245,0.216
					v-1.947c0.504,0.073,1.045,0.108,1.623,0.108H386.039z M399.235,487.165v1.515c-1.011,0.505-1.857,0.919-2.542,1.244
					c-0.686,0.325-1.568,0.849-2.649,1.568v1.298h4.109c1.01,0,2.056-0.035,3.137-0.108v2.055c-1.081-0.071-2.127-0.108-3.137-0.108
					h-4.109v2.488c0,0.938-0.397,1.568-1.19,1.893c-0.794,0.324-1.622,0.559-2.487,0.703c-0.146-0.72-0.506-1.515-1.082-2.38
					c1.226,0.073,2.001-0.036,2.325-0.324c0.325-0.288,0.45-1.082,0.379-2.38h-4.11c-1.154,0-2.163,0.037-3.028,0.108v-2.055
					c0.865,0.073,1.874,0.108,3.028,0.108h4.11c0-0.503-0.108-1.298-0.324-2.379c0.72-0.216,1.982-0.757,3.785-1.623h-5.3
					c-1.227,0-2.271,0.073-3.137,0.216v-1.947c0.865,0.073,1.874,0.108,3.028,0.108H399.235z M390.041,508.582v-6.706h-2.055v6.706
					H390.041z M393.936,508.582v-6.706h-2.056v6.706H393.936z M397.829,508.582v-6.706h-2.163v6.706H397.829z"/>
				<path fill="#FFFFFF" d="M404.535,501.659c1.152-0.433,2.198-0.99,3.137-1.677c0.937-0.684,1.658-1.46,2.163-2.325h-1.298
					c-1.371,0-2.596,0.037-3.678,0.108v-1.73c0.937,0.073,2.163,0.108,3.678,0.108h1.839c0.287-0.865,0.433-1.55,0.433-2.055
					c-1.66,0-3.174,0.037-4.543,0.108v-1.73c1.226,0.073,2.775,0.108,4.651,0.108v-1.947h-1.839c-1.082,0-2.2,0.037-3.354,0.108
					v-1.731c1.153,0.073,2.488,0.108,4.002,0.108h1.19c0-0.793-0.037-1.766-0.108-2.92c1.009,0.216,1.802,0.324,2.38,0.324
					c-0.217,0.362-0.325,1.227-0.325,2.596h0.649c1.226,0,2.667-0.036,4.326-0.108v1.731c-1.298-0.071-2.561-0.108-3.785-0.108
					h-1.19v1.947c1.802,0,3.28-0.071,4.435-0.216v1.839c-1.37-0.071-2.849-0.108-4.435-0.108c-0.072,0.578-0.181,1.262-0.324,2.055
					h1.947c1.369,0,2.559-0.035,3.569-0.108v1.73c-1.298-0.071-2.525-0.108-3.678-0.108h-2.271
					c-0.865,1.587-1.876,2.776-3.028,3.569c-0.073,0.073-0.146,0.145-0.217,0.216H416c0-0.649-0.037-1.261-0.107-1.839h2.163
					c-0.073,0.578-0.108,1.19-0.108,1.839h8.437c-0.072,1.082-0.108,2.2-0.108,3.353v2.163c0,1.011-0.415,1.695-1.243,2.055
					c-0.83,0.36-1.894,0.612-3.191,0.757c-0.216-1.082-0.505-1.802-0.865-2.164c1.082,0.073,1.91,0.019,2.488-0.162
					c0.576-0.179,0.865-0.63,0.865-1.352v-2.92h-6.382v4.002c0,1.298,0.035,2.813,0.108,4.543h-2.163
					c0.07-1.803,0.107-3.353,0.107-4.651v-3.894h-5.732v6.382h-2.055c0.07-1.082,0.107-2.271,0.107-3.569v-4.11
					c-0.865,0.505-1.694,0.938-2.487,1.298C405.472,502.454,405.039,501.948,404.535,501.659z M425.627,492.898
					c2.163,1.514,3.1,3.012,2.813,4.489c-0.289,1.479-1.769,2.398-4.435,2.758c-0.146-0.937-0.471-1.623-0.974-2.055
					c2.45,0.145,3.623-0.306,3.515-1.352c-0.107-1.044-1.136-2.217-3.082-3.516c0.648-1.082,1.369-2.379,2.163-3.894h-4.11v11.465
					h-2.055c0.07-1.731,0.107-3.172,0.107-4.327v-5.408c0-1.152-0.037-2.271-0.107-3.353h9.193
					C428.294,488.5,427.285,490.231,425.627,492.898z"/>
			</g>
		</g>
		<polygon fill="#E60012" points="489.711,461.164 464.025,450.953 464.025,450.475 461.592,450.475 461.592,492.13 464.025,492.13 
			464.025,472.391 		"/>
	</g>
	<g>
		
			<text transform="matrix(1 0 0 1 424.3398 460.8989)" opacity="0" fill="#040000" enable-background="new    " font-family="'ArialMT'" font-size="15">4</text>
		
			<rect x="354.334" y="437.383" opacity="0" fill="none" stroke="#040000" stroke-width="0.7733" width="140.012" height="106.597"/>
	</g>
</g>
<g>
	<g>
		<g>
			<polygon fill="#E60012" stroke="#E72922" stroke-width="1.7699" points="372.157,669.775 377.211,685.304 393.53,685.304 
				380.329,694.896 385.369,710.42 372.157,700.827 358.958,710.42 364,694.896 350.791,685.304 367.117,685.304 			"/>
		</g>
		<path fill="#F39800" d="M571.218,554.837H355.234c-7.381,0-13.353,6.618-13.353,14.785v59.17c0,8.167,5.971,14.79,13.353,14.79
			h17.649l16.86,31.941l15.776-31.941h165.697c7.377,0,13.353-6.623,13.353-14.79v-59.17
			C584.57,561.456,578.595,554.837,571.218,554.837z"/>
		<path fill="#D2D0C1" d="M568.581,558.464H358.518c-7.175,0-12.989,6.009-12.989,13.412v53.644c0,7.404,5.814,13.406,12.989,13.406
			h17.173l13.974,29.683l14.625-29.683h164.292c7.175,0,12.992-6.002,12.992-13.406v-53.644
			C581.573,564.473,575.756,558.464,568.581,558.464z"/>
		<g>
			<path fill="#EA5514" d="M379.359,572.147h-2.271c-1.07,0-2.192,0.125-3.364,0.375v-3.279c1.104,0.228,2.226,0.342,3.364,0.342
				h2.731v-4.337c-0.034-0.934-0.153-2.169-0.358-3.706l3.74,0.461c0.58,0.068,0.888,0.176,0.922,0.324
				c0.034,0.148,0.051,0.239,0.051,0.273c0,0.239-0.216,0.495-0.648,0.769c-0.228,0.136-0.382,0.336-0.461,0.598
				c-0.068,0.239-0.103,0.666-0.103,1.281v4.337h1.042c1.093-0.011,2.214-0.125,3.363-0.342v3.245
				c-1.298-0.228-2.407-0.341-3.329-0.341h-1.076v1.435c1.742,1.4,3.302,2.994,4.679,4.781l-2.373,2.869
				c-0.809-1.502-1.577-2.658-2.306-3.466v12.313c-0.012,1.241,0.091,2.396,0.308,3.466h-3.774c0.228-1.07,0.336-2.214,0.324-3.432
				v-11.544c-1.184,2.095-2.351,4.007-3.5,5.738c-0.968-0.809-2.289-1.343-3.962-1.605
				C375.375,580.389,377.709,576.872,379.359,572.147z M391.706,576.997c-0.479-0.022-1.378,0.233-2.698,0.769
				c-0.284-1.435-0.666-2.493-1.144-3.176c1.035-0.205,1.793-0.472,2.271-0.803c2.197-1.708,4.554-4.064,7.07-7.07h-6.336
				c-1.173,0.023-2.441,0.143-3.808,0.359v-3.467c1.639,0.273,2.92,0.416,3.842,0.427h8.675c0.968-0.011,2.38-0.199,4.235-0.564
				c-3.268,4.053-6.478,7.69-9.631,10.912h7.274c1.218-0.011,2.527-0.131,3.928-0.358c-0.205,1.548-0.358,3.051-0.461,4.508
				c-0.297,4.6-0.587,7.969-0.871,10.109c0.137,2.481-2.664,3.916-8.402,4.303c0.012-0.114,0.018-0.228,0.018-0.341
				c0-1.116-0.541-2.351-1.622-3.706c-1.571,1.73-3.239,3.176-5.004,4.338c-0.819-1.014-1.958-1.788-3.415-2.323
				c5.521-2.266,9.449-6.904,11.783-13.917h-1.435c-1.856,4.372-5.038,7.918-9.546,10.639c-0.649-1.093-1.674-1.861-3.074-2.305
				c3.973-1.491,7.059-4.269,9.256-8.333H391.706z M400.757,576.997c-1.525,4.645-3.729,8.59-6.608,11.834
				c1.673,0.307,2.993,0.466,3.961,0.478c1.696,0,2.642-0.604,2.835-1.81c0.387-2.96,0.678-6.461,0.871-10.502H400.757z"/>
			<path fill="#EA5514" d="M410.388,592.844l-1.656-3.637c0.057,0,0.147-0.006,0.272-0.017c1.515-0.125,2.67-0.233,3.467-0.325
				v-8.077c-0.022-1.082-0.113-2.481-0.273-4.201l3.706,0.444c0.535,0.08,0.822,0.253,0.862,0.521s-0.18,0.549-0.657,0.845
				c-0.194,0.125-0.319,0.353-0.376,0.683c-0.068,0.307-0.103,0.877-0.103,1.708v7.685c0.296-0.045,0.752-0.114,1.366-0.205
				c0.535-0.068,0.939-0.125,1.213-0.17v-10.178c0.011-1.389-0.068-2.732-0.239-4.03l3.739,0.529
				c0.444,0.068,0.706,0.233,0.786,0.495c0.057,0.273-0.097,0.53-0.461,0.769c-0.456,0.228-0.666,0.974-0.632,2.237v1.4h1.912
				c0.66,0,1.736-0.119,3.228-0.358v3.33c-1.389-0.239-2.465-0.359-3.228-0.359h-1.912v5.602c2.379-0.479,4.707-1.053,6.984-1.725
				l-0.769,3.604C419.819,590.379,414.076,591.523,410.388,592.844z M429.855,574.418c0.876,7.662,3.13,12.7,6.762,15.113
				c0.489-0.102,0.791-1.69,0.905-4.764c0.979,1.389,2.049,2.425,3.21,3.108c-0.705,3.541-1.872,5.311-3.5,5.311
				c-0.114,0-0.217-0.006-0.308-0.017c-5.771-1.674-9.21-7.924-10.314-18.75c-0.012-0.08-0.022-0.193-0.034-0.341
				c-0.012-0.137-0.022-0.245-0.034-0.325h-13.814c-1.082,0.023-2.392,0.137-3.928,0.342v-3.381
				c1.309,0.205,2.618,0.319,3.928,0.341h13.712c-0.012-0.33-0.022-0.842-0.034-1.537c-0.011-0.672-0.022-1.184-0.034-1.537
				c-0.068-1.468-0.119-3.546-0.153-6.233l3.672,0.461c0.558,0.068,0.876,0.228,0.956,0.479c0.045,0.262-0.165,0.546-0.632,0.854
				c-0.354,0.125-0.529,0.695-0.529,1.708c-0.023,0.74-0.034,1.087-0.034,1.042c0,0.194,0,0.416,0,0.666c0,0.216,0,0.546,0,0.99
				c0,0.797,0,1.4,0,1.811c0.011,0.478,0.022,0.911,0.034,1.297h6.267c0.968-0.022,2.271-0.136,3.911-0.341v3.381
				c-1.561-0.193-2.863-0.308-3.911-0.342h-6.164c0.011,0.08,0.022,0.188,0.034,0.325
				C429.832,574.225,429.844,574.338,429.855,574.418z M411.634,568.578v-3.295c1.491,0.205,2.59,0.313,3.296,0.324h6.438
				c0.842-0.011,1.98-0.12,3.415-0.324v3.295c-1.31-0.228-2.448-0.347-3.415-0.358h-6.438
				C414.247,568.23,413.148,568.35,411.634,568.578z M430.18,565.453l2.441-2.083c1.753,1.583,3.501,3.375,5.243,5.379l-2.511,2.101
				C434.067,569.142,432.343,567.343,430.18,565.453z"/>
			<path fill="#EA5514" d="M450.979,579.131c-1.503,1.594-3.108,3.074-4.815,4.44c-0.672-0.82-1.748-1.634-3.228-2.442
				c4.86-2.641,8.498-6.478,10.912-11.51h-6.114c-0.705,0.011-1.896,0.108-3.568,0.29v-3.193c1.878,0.194,3.057,0.291,3.535,0.291
				h7.24c0.91-2.368,1.377-4.314,1.4-5.84l3.876,0.939c0.444,0.125,0.649,0.33,0.615,0.615c-0.058,0.285-0.354,0.558-0.889,0.819
				c-0.353,0.114-0.66,0.581-0.922,1.4c-0.205,0.672-0.438,1.36-0.7,2.066h12.671c0.934-0.045,2.089-0.142,3.467-0.291v3.228
				c-1.491-0.182-2.646-0.29-3.467-0.324h-13.645c-0.934,1.947-1.867,3.66-2.8,5.14h4.832v-0.376
				c-0.045-1.366-0.143-2.709-0.29-4.03l3.757,0.461c0.513,0.08,0.797,0.25,0.854,0.512c0.034,0.273-0.17,0.581-0.614,0.922
				c-0.388,0.216-0.575,0.928-0.563,2.134v0.376h5.771c0.923-0.034,2.101-0.125,3.535-0.273c-0.148,1.252-0.239,2.356-0.273,3.313
				v6.967c0.08,2.106-0.284,3.364-1.093,3.774c-0.604,0.546-2.642,0.933-6.113,1.161c0.068-1.207-0.33-2.464-1.195-3.774
				c2.117,0.194,3.433,0.285,3.944,0.273c0.547,0,0.899-0.08,1.059-0.239c0.171-0.125,0.251-0.433,0.239-0.922v-7.65h-5.874v12.875
				c0.045,1.047,0.142,2.186,0.29,3.416h-3.723c0.159-1.241,0.256-2.368,0.29-3.381v-12.91h-5.242v9.307
				c0.045,0.945,0.137,2.026,0.273,3.245h-3.706c0.148-1.31,0.239-2.391,0.273-3.245V579.131z"/>
			<path fill="#EA5514" d="M508.374,591.614c-6.318-4.679-9.888-10.912-10.707-18.699c-0.239,0.569-0.519,1.207-0.837,1.913v12.637
				c1.457-1.252,2.767-2.55,3.928-3.894c0.273,1.195,0.677,2.351,1.212,3.466c-2.425,1.936-4.827,4.093-7.206,6.472
				c-0.569-1.127-1.338-1.953-2.306-2.476c0.467-0.478,0.786-0.902,0.957-1.272c0.17-0.37,0.25-0.834,0.238-1.392v-8.282
				c-1.536,2.118-3.147,3.979-4.832,5.584c-0.672-0.706-1.418-1.354-2.237-1.946v6.643c0,0.729,0.097,1.855,0.29,3.381h-3.723
				c0.182-1.332,0.279-2.471,0.29-3.416v-15.471c-0.592,0.967-1.69,2.333-3.295,4.098c-0.832-0.74-1.822-1.452-2.972-2.135
				c3.825-3.267,6.729-8.43,8.709-15.488l3.467,1.298c0.421,0.16,0.626,0.367,0.614,0.623c-0.011,0.256-0.239,0.487-0.683,0.692
				c-0.33,0.193-0.575,0.512-0.734,0.956c-0.615,1.628-1.27,3.188-1.964,4.679v13.183c3.984-3.267,6.773-7.32,8.367-12.159h-3.534
				c-1.094,0.012-2.329,0.114-3.706,0.308v-3.33c1.332,0.205,2.567,0.313,3.706,0.324h7.343c-1.571-1.605-3.04-2.897-4.406-3.876
				l2.203-2.527c2.447,1.969,4.229,3.518,5.345,4.645l-1.741,1.759h5.977c1.195-0.011,2.477-0.119,3.843-0.324v3.33
				c-1.412-0.193-2.693-0.296-3.843-0.308h-7.582c-0.137,0.331-0.318,0.809-0.547,1.435c-0.102,0.262-0.176,0.456-0.222,0.581
				c1.002,0,2.016-0.137,3.04-0.41c-0.058,1.833,0.301,3.814,1.075,5.942c1.594-1.878,2.841-3.734,3.74-5.567l3.006,2.066
				c0.353,0.25,0.529,0.478,0.529,0.683c0,0.045-0.018,0.134-0.052,0.265s-0.296,0.225-0.785,0.282c-0.41,0.034-0.78,0.268-1.11,0.7
				c-1.115,1.4-2.459,2.88-4.03,4.44c2.209,3.711,4.98,6.324,8.316,7.838C510.173,589.662,509.125,590.578,508.374,591.614z"/>
			<path fill="#EA5514" d="M531.206,561.269l3.262,1.298c0.66,0.262,0.99,0.518,0.99,0.769s-0.33,0.495-0.99,0.734
				c-0.229-0.022-0.684,0.604-1.366,1.879l-0.529,0.939h8.846c0.808,0.012,1.906-0.08,3.296-0.273v3.262
				c-0.786-0.136-1.403-0.23-1.854-0.282c-0.449-0.051-0.931-0.077-1.442-0.077h-10.093c-0.648,1.173-1.713,2.772-3.193,4.798
				c-1.047-0.74-2.248-1.281-3.603-1.622c0.534-0.444,1.035-0.957,1.502-1.537c-0.934-0.113-1.616-0.17-2.049-0.17h-3.535v4.03
				h3.108c0.467,0.012,1.435-0.097,2.903-0.324c-0.058,1.002-0.137,2.687-0.239,5.055c-0.183,4.007-0.324,6.813-0.427,8.419
				c0.034,2.562-2.09,3.944-6.37,4.149c-0.034-1.07-0.501-2.294-1.4-3.671c1.457,0.296,2.448,0.45,2.972,0.461
				c1.138,0.023,1.725-0.478,1.759-1.503c0.25-3.221,0.398-6.546,0.444-9.973h-2.818c-0.228,6.182-1.918,11.322-5.071,15.42
				c-0.843-0.729-1.941-1.241-3.296-1.537c3.427-3.29,5.186-8.766,5.276-16.428v-4.098h-0.272c-0.604,0-1.64,0.091-3.108,0.273
				v-3.245c1.274,0.228,2.322,0.342,3.142,0.342h4.44c-1.446-1.913-2.823-3.416-4.133-4.508l2.425-2.101
				c1.4,1.275,2.994,2.966,4.782,5.072l-1.742,1.537h1.264c0.648,0.011,1.605-0.114,2.869-0.376v1.998
				C528.798,567.28,530.216,564.377,531.206,561.269z M530.369,580.532h3.774c0.159-1.013,0.244-2.504,0.256-4.474h-1.896
				c-0.501,0.99-1.36,2.283-2.579,3.876c-0.763-0.615-1.884-1.127-3.364-1.537c2.414-2.208,4.036-5.038,4.867-8.487l3.382,1.212
				c0.432,0.171,0.637,0.404,0.614,0.7c-0.046,0.273-0.308,0.473-0.785,0.598c-0.194,0.057-0.382,0.222-0.563,0.496
				c-0.148,0.25-0.251,0.45-0.308,0.598h6.506c0.74,0.023,1.821-0.097,3.245-0.359v3.21c-1.492-0.216-2.573-0.318-3.245-0.307
				h-2.596c-0.034,1.4-0.113,2.892-0.239,4.474h4.509c0.979,0.011,2.066-0.114,3.262-0.376v3.21
				c-1.594-0.193-2.692-0.284-3.296-0.273h-3.774c1.549,3.335,4.264,6.005,8.146,8.009c-1.389,0.523-2.425,1.349-3.107,2.476
				c-2.938-2.254-5.294-4.901-7.07-7.94c-1.059,2.891-3.854,5.681-8.384,8.367c-0.593-1.036-1.561-2.038-2.903-3.005
				c4.497-1.218,7.423-3.854,8.777-7.906h-3.125c-0.729-0.011-1.821,0.091-3.278,0.307v-3.176
				C528.695,580.44,529.754,580.543,530.369,580.532z"/>
			<path fill="#EA5514" d="M412.284,608.548c1.639,0.25,2.971,0.381,3.995,0.393h5.106v-1.588c-0.023-1.149-0.131-2.43-0.324-3.842
				l3.757,0.53c0.467,0.068,0.717,0.17,0.751,0.307s0.052,0.228,0.052,0.273c0,0.228-0.166,0.467-0.496,0.717
				c-0.364,0.216-0.54,0.888-0.529,2.015v1.588h6.865v-1.469c-0.022-1.149-0.131-2.436-0.324-3.859l3.739,0.529
				c0.479,0.068,0.734,0.171,0.769,0.308s0.052,0.228,0.052,0.273c0,0.228-0.165,0.467-0.495,0.717
				c-0.365,0.194-0.541,0.871-0.53,2.032v1.469h4.97c1.093-0.023,2.471-0.154,4.133-0.393v3.535
				c-1.674-0.239-3.052-0.37-4.133-0.393h-4.97v0.854c0,0.751,0.108,1.822,0.325,3.21h-3.859c0.205-1.377,0.313-2.447,0.324-3.21
				v-0.854h-6.865v0.888c0,0.831,0.108,1.924,0.325,3.279h-3.859c0.205-1.4,0.313-2.493,0.324-3.279v-0.888h-5.106
				c-0.979,0.011-2.311,0.142-3.995,0.393V608.548z M416.178,616.557c1.365,0.273,2.715,0.404,4.047,0.393h16.309
				c1.286-0.034,2.657-0.165,4.115-0.393c-0.239,1.435-0.364,2.824-0.376,4.167v10.52c0,1.229,0.103,2.527,0.308,3.894h-3.877
				c0.217-1.116,0.319-1.901,0.308-2.357h-17.265c-0.022,0.751,0.08,1.696,0.308,2.835h-3.809c0.183-1.116,0.285-2.408,0.308-3.876
				v-10.98C416.553,619.915,416.428,618.515,416.178,616.557z M419.746,619.63v3.928h6.95v-3.928H419.746z M426.696,630.133v-3.962
				h-6.95v3.962H426.696z M429.855,623.558h7.155v-3.928h-7.155V623.558z M429.855,626.171v3.962h7.155v-3.962H429.855z"/>
			<path fill="#EA5514" d="M464.743,603.237l3.262,1.298c0.66,0.262,0.99,0.518,0.99,0.769s-0.33,0.495-0.99,0.734
				c-0.229-0.022-0.684,0.604-1.366,1.879l-0.529,0.939h8.846c0.808,0.012,1.906-0.08,3.296-0.273v3.262
				c-0.786-0.136-1.403-0.23-1.854-0.282c-0.449-0.051-0.931-0.077-1.442-0.077h-10.093c-0.648,1.173-1.713,2.772-3.193,4.798
				c-1.047-0.74-2.248-1.281-3.603-1.622c0.534-0.444,1.035-0.957,1.502-1.537c-0.934-0.113-1.616-0.17-2.049-0.17h-3.535v4.03
				h3.108c0.467,0.012,1.435-0.097,2.903-0.324c-0.058,1.002-0.137,2.687-0.239,5.055c-0.183,4.007-0.324,6.813-0.427,8.419
				c0.034,2.562-2.09,3.944-6.37,4.149c-0.034-1.07-0.501-2.294-1.4-3.671c1.457,0.296,2.448,0.45,2.972,0.461
				c1.138,0.023,1.725-0.478,1.759-1.503c0.25-3.221,0.398-6.546,0.444-9.973h-2.818c-0.228,6.182-1.918,11.322-5.071,15.42
				c-0.843-0.729-1.941-1.241-3.296-1.537c3.427-3.29,5.186-8.766,5.276-16.428v-4.098h-0.272c-0.604,0-1.64,0.091-3.108,0.273
				v-3.245c1.274,0.228,2.322,0.342,3.142,0.342h4.44c-1.446-1.913-2.823-3.416-4.133-4.508l2.425-2.101
				c1.4,1.275,2.994,2.966,4.782,5.072l-1.742,1.537h1.264c0.648,0.011,1.605-0.114,2.869-0.376v1.998
				C462.335,609.248,463.753,606.345,464.743,603.237z M463.906,622.5h3.774c0.159-1.013,0.244-2.504,0.256-4.474h-1.896
				c-0.501,0.99-1.36,2.283-2.579,3.876c-0.763-0.615-1.884-1.127-3.364-1.537c2.414-2.208,4.036-5.038,4.867-8.487l3.382,1.212
				c0.432,0.171,0.637,0.404,0.614,0.7c-0.046,0.273-0.308,0.473-0.785,0.598c-0.194,0.057-0.382,0.222-0.563,0.496
				c-0.148,0.25-0.251,0.45-0.308,0.598h6.506c0.74,0.023,1.821-0.097,3.245-0.359v3.21c-1.492-0.216-2.573-0.318-3.245-0.307
				h-2.596c-0.034,1.4-0.113,2.892-0.239,4.474h4.509c0.979,0.011,2.066-0.114,3.262-0.376v3.21
				c-1.594-0.193-2.692-0.284-3.296-0.273h-3.774c1.549,3.335,4.264,6.005,8.146,8.009c-1.389,0.523-2.425,1.349-3.107,2.476
				c-2.938-2.254-5.294-4.901-7.07-7.94c-1.059,2.891-3.854,5.681-8.384,8.367c-0.593-1.036-1.561-2.038-2.903-3.005
				c4.497-1.218,7.423-3.854,8.777-7.906h-3.125c-0.729-0.011-1.821,0.091-3.278,0.307v-3.176
				C462.232,622.408,463.291,622.511,463.906,622.5z"/>
			<path fill="#EA5514" d="M484.296,632.472c8.88-0.661,15.295-3.495,19.246-8.504c-7.901,0.331-13.059,0.831-15.472,1.503
				l-1.213-3.074c1.583-0.308,2.897-0.808,3.945-1.503c2.186-1.514,4.206-3.102,6.063-4.764c-3.974,0.159-6.905,0.393-8.795,0.7
				l-1.28-2.938c1.184-0.364,2.333-1.047,3.449-2.049c3.085-2.789,5.51-5.669,7.274-8.641l2.869,1.844
				c0.421,0.273,0.626,0.535,0.614,0.786c-0.034,0.25-0.272,0.421-0.717,0.512c-0.489,0.068-0.99,0.381-1.503,0.939
				c-2.083,2.311-4.264,4.468-6.54,6.472c2.562-0.08,5.009-0.136,7.343-0.17c1.674-1.662,3.176-3.467,4.508-5.414l3.125,2.049
				c0.285,0.205,0.428,0.404,0.428,0.598c0,0.068-0.04,0.179-0.12,0.333c-0.079,0.154-0.415,0.288-1.008,0.401
				c-0.433,0.057-0.934,0.398-1.502,1.024c-2.527,2.607-5.886,5.613-10.075,9.017c4.212-0.239,7.582-0.393,10.109-0.461
				c0.91-2.095,1.491-3.854,1.741-5.277l3.638,1.469c0.421,0.182,0.617,0.396,0.589,0.64c-0.028,0.245-0.281,0.487-0.76,0.726
				c-0.376,0.148-0.74,0.66-1.093,1.537c-2.63,8.22-10.019,13.445-22.166,15.676C486.517,634.846,485.617,633.702,484.296,632.472z"
				/>
		</g>
	</g>
	<g opacity="0">
		<text transform="matrix(1 0 0 1 408.7305 700.6143)" fill="#040000" font-family="'ArialMT'" font-size="15">0</text>
		<rect x="326.547" y="551" fill="none" stroke="#040000" stroke-width="1.3559" width="272.452" height="168.427"/>
	</g>
</g>
<g>
	<g>
		<path fill="#FFFFFF" stroke="#E60012" stroke-width="2.3726" d="M207.468,577.258c0,5.994-4.857,10.851-10.848,10.851
			c-5.994,0-10.845-4.856-10.845-10.851c0-5.987,4.852-10.847,10.845-10.847C202.611,566.411,207.468,571.271,207.468,577.258z"/>
		<rect x="211.925" y="569.959" fill="#E60012" width="93.967" height="39.141"/>
		<g>
			<path fill="#FFFFFF" d="M236.997,587.955v-7.329c0-0.666-0.038-1.627-0.111-2.887h2.443c-0.075,1.407-0.111,2.332-0.111,2.776
				v7.439h13.436c0.961,0,1.999-0.037,3.109-0.111v2.221c-1.407-0.073-2.703-0.111-3.886-0.111h-6.44
				c0.517,1.482,1.313,2.925,2.387,4.331c1.072,1.407,2.349,2.573,3.831,3.498c1.48,0.926,2.813,1.574,3.998,1.943
				c-0.963,0.593-1.704,1.332-2.221,2.221c-1.555-0.815-2.998-1.777-4.331-2.887s-2.518-2.46-3.553-4.053
				c-1.038-1.591-1.814-3.275-2.332-5.052h-3.998v8.772c2.146-1.333,3.59-2.332,4.331-2.998c0.517,0.815,1.036,1.555,1.555,2.221
				c-1.407,0.667-2.814,1.499-4.22,2.499c-1.407,0.999-2.443,1.832-3.109,2.498c-0.593-0.815-1.148-1.518-1.666-2.109
				c0.592-0.592,0.888-1.369,0.888-2.332v-8.55h-2.554c-1.038,0-2.221,0.038-3.553,0.111v-2.221
				c1.333,0.075,2.443,0.111,3.331,0.111H236.997z M247.378,582.902c-1.592,1.593-3.165,3.128-4.719,4.608
				c-0.667-0.888-1.222-1.48-1.666-1.776c1.258-0.888,2.665-2.146,4.219-3.775c1.555-1.627,2.738-3.034,3.553-4.219
				c0.592,0.519,1.333,1.11,2.221,1.776C250.172,580.182,248.97,581.312,247.378,582.902z"/>
			<path fill="#FFFFFF" d="M280.301,578.96c0.888,0,2.11-0.036,3.665-0.111v2.109c-1.407-0.073-2.629-0.111-3.665-0.111h-8.55
				c-0.593,2.37-1.518,4.664-2.776,6.884h13.213c-0.075,3.109-0.111,5.959-0.111,8.55c0,2.592,0.036,4.7,0.111,6.329h-2.332v-2.776
				H268.42v2.998h-2.332c0.073-1.704,0.111-5.441,0.111-11.215c-1.926,2.148-3.85,3.886-5.774,5.219
				c-0.593-0.739-1.221-1.294-1.888-1.666c3.182-1.924,5.699-4.331,7.551-7.217c1.849-2.887,2.923-5.255,3.22-7.106h-2.554
				c-2.665,0-4.627,0.038-5.885,0.111v-2.109c1.258,0.075,3.256,0.111,5.996,0.111H280.301z M279.857,597.948v-8.328H268.42v8.328
				H279.857z"/>
		</g>
		<polygon fill="#1D2088" points="225.842,549.722 199.476,539.24 199.476,538.746 196.976,538.746 196.976,581.508 
			199.476,581.508 199.476,561.247 		"/>
	</g>
	<g opacity="0">
		<text transform="matrix(1 0 0 1 202.4727 628.228)" fill="#040000" font-family="'ArialMT'" font-size="15">6</text>
		<rect x="172.025" y="533.403" fill="none" stroke="#040000" stroke-width="0.7733" width="140.012" height="106.597"/>
	</g>
</g>
<g>
	<g>
		<path fill="#FFFFFF" stroke="#E60012" stroke-width="2.337" d="M215.081,730.107c0,5.904-4.78,10.688-10.68,10.688
			c-5.904,0-10.686-4.784-10.686-10.688c0-5.898,4.782-10.681,10.686-10.681C210.301,719.427,215.081,724.209,215.081,730.107z"/>
		<rect x="99.572" y="728.149" fill="#E60012" width="92.555" height="38.55"/>
		<g>
			<path fill="#FFFFFF" d="M124.604,733.98h2.625c-0.147,0.875-0.219,2.772-0.219,5.688c1.676,0,3.172-0.036,4.484-0.109v1.969
				c-1.241-0.072-2.734-0.109-4.484-0.109v3.938c0.583-0.291,1.129-0.692,1.641-1.203c1.094,1.167,2.15,2.479,3.171,3.937
				c-0.875,0.438-1.604,0.913-2.187,1.422c-0.803-1.603-1.678-2.879-2.625-3.827v7.874c0,1.531,0.036,3.353,0.109,5.469h-2.516
				c0.072-2.116,0.109-3.938,0.109-5.469v-7.546c-0.366,1.167-0.858,2.351-1.477,3.554c-0.62,1.203-1.331,2.352-2.132,3.445
				c-0.584-0.728-1.241-1.238-1.969-1.531c0.656-0.582,1.477-1.695,2.461-3.336c0.984-1.64,1.876-3.882,2.679-6.726
				c-1.896,0-3.39,0.037-4.484,0.109v-1.969c1.094,0.073,2.734,0.109,4.921,0.109C124.714,736.972,124.676,735.074,124.604,733.98z
				 M143.197,752.3c-0.584,0.694-1.422,1.44-2.516,2.242c-1.093,0.804-2.406,1.604-3.937,2.406s-3.319,1.493-5.359,2.078
				c-0.219-0.804-0.694-1.569-1.422-2.297c1.968-0.219,4.282-1.075,6.945-2.57c2.661-1.493,4.539-3.188,5.632-5.086
				c0.802,0.656,1.677,1.241,2.625,1.75C144.437,751.116,143.78,751.608,143.197,752.3z M139.862,738.957
				c-1.641,1.568-3.41,3.045-5.305,4.43c-0.511-0.583-1.167-1.13-1.969-1.641c1.969-1.094,3.736-2.406,5.305-3.938
				c1.567-1.531,2.497-2.661,2.789-3.391c0.802,0.656,1.641,1.203,2.516,1.641C142.613,736.425,141.502,737.39,139.862,738.957z
				 M141.994,745.082c-0.875,0.839-2.061,1.842-3.554,3.007c-1.496,1.168-2.862,2.078-4.102,2.734
				c-0.366-0.656-0.948-1.274-1.75-1.859c2.333-0.875,4.356-2.113,6.07-3.718c1.712-1.604,2.751-2.771,3.117-3.5
				c0.728,0.656,1.567,1.24,2.516,1.75C143.635,743.715,142.869,744.244,141.994,745.082z"/>
			<path fill="#FFFFFF" d="M171.961,741.637c-2.261-0.146-4.339-0.219-6.234-0.219h-3.063c0.509,1.386,1.075,2.662,1.695,3.828
				c0.619,1.167,1.384,2.297,2.297,3.39c0.911,1.094,1.895,2.043,2.953,2.844c1.056,0.804,2.278,1.531,3.664,2.188
				c-1.094,0.804-1.788,1.531-2.078,2.188c-1.459-1.021-2.679-1.985-3.664-2.898c-0.984-0.911-1.842-1.805-2.57-2.68
				c-0.73-0.875-1.386-1.895-1.969-3.062c-0.584-1.166-1.131-2.442-1.641-3.828v11.702c0,1.022,0.036,2.297,0.109,3.828h-2.296
				c0.072-1.531,0.109-2.806,0.109-3.828v-12.687c-1.459,3.428-2.625,5.761-3.5,6.999c-0.875,1.241-1.788,2.39-2.734,3.445
				c-0.948,1.058-2.042,2.171-3.281,3.336c-0.511-0.728-1.277-1.313-2.297-1.75c1.094-0.728,2.133-1.548,3.117-2.461
				c0.984-0.91,2.095-2.242,3.335-3.992c1.239-1.749,2.369-3.937,3.391-6.562h-2.844c-1.386,0-3.464,0.073-6.234,0.219v-2.188
				c2.696,0.146,4.739,0.219,6.125,0.219h4.922v-2.297c0-1.603-0.038-2.844-0.109-3.719h2.406c-0.147,1.022-0.219,2.261-0.219,3.719
				v2.297h4.703c1.895,0,3.864-0.072,5.906-0.219V741.637z"/>
		</g>
		<polygon fill="#1D2088" points="230.907,699.658 204.941,689.335 204.941,688.849 202.473,688.849 202.473,730.969 
			204.941,730.969 204.941,711.009 		"/>
	</g>
	<g opacity="0">
		<text transform="matrix(1 0 0 1 132.1509 710.4199)" fill="#040000" font-family="'ArialMT'" font-size="15">8</text>
		<rect x="77.012" y="680.334" fill="none" stroke="#040000" stroke-width="0.7948" width="161.988" height="97.333"/>
	</g>
</g>
<g>
	<g>
		<path fill="#FFFFFF" stroke="#E60012" stroke-width="2.1802" d="M295.949,954.963c0,5.502-4.458,9.968-9.965,9.968
			c-5.501,0-9.962-4.466-9.962-9.968c0-5.505,4.461-9.969,9.962-9.969C291.49,944.994,295.949,949.458,295.949,954.963z"/>
		<rect x="225.831" y="967.198" fill="#E60012" width="86.347" height="35.959"/>
		<g>
			<path fill="#FFFFFF" d="M251.758,981.403c0.033,1.497-0.035,3.198-0.204,5.102c-0.171,1.905-0.612,3.606-1.327,5.102
				c-0.714,1.497-1.786,3.128-3.214,4.897c-0.612-0.681-1.259-1.122-1.938-1.326c1.564-1.428,2.72-2.924,3.469-4.489
				c0.748-1.563,1.156-3.571,1.225-6.02c0.067-2.449,0.033-4.728-0.102-6.836c1.02,0.272,1.836,0.408,2.449,0.408
				C251.843,978.853,251.723,979.908,251.758,981.403z M255.074,981.302c0,3.13,0.033,5.646,0.102,7.55h-1.837v-12.957h-5.203
				v13.264h-1.837c0.067-1.972,0.102-4.557,0.102-7.755c0-3.265-0.035-5.645-0.102-7.142h8.877
				C255.107,975.759,255.074,978.105,255.074,981.302z M255.687,994.464c-0.681,0.475-1.293,0.951-1.837,1.429
				c-0.749-1.293-1.803-2.72-3.163-4.286c0.748-0.543,1.258-1.02,1.531-1.428C253.034,991.199,254.189,992.627,255.687,994.464z
				 M268.338,982.22v1.734c-0.885,0.204-1.887,1.038-3.01,2.5c-1.122,1.464-2.637,3.283-4.541,5.459
				c0.748,1.089,2.006,1.616,3.775,1.581c1.768-0.033,3.469-0.084,5.102-0.152c-0.75,0.747-1.089,1.495-1.021,2.244
				c-1.905-0.068-3.606-0.188-5.102-0.357c-1.497-0.17-2.535-0.561-3.112-1.173c-0.579-0.612-1.071-0.85-1.479-0.714
				c-0.408,0.137-1.122,0.679-2.143,1.632c-0.341-0.681-0.816-1.359-1.428-2.04c0.883-0.544,1.564-0.919,2.041-1.123
				c0.475-0.204,0.985-0.441,1.53-0.714c0.204-0.204,0.781-0.816,1.735-1.837c0.952-1.02,2.312-2.755,4.081-5.203h-8.061v-1.938
				c1.021,0.068,2.312,0.102,3.877,0.102H268.338z M264.614,975.945c-1.734,0.306-4.234,0.765-7.499,1.377
				c-0.204-0.747-0.477-1.462-0.816-2.143c2.176-0.136,4.166-0.408,5.969-0.816c1.802-0.408,3.383-0.85,4.745-1.326
				c0.204,0.681,0.51,1.464,0.918,2.347C267.453,975.452,266.349,975.639,264.614,975.945z M264.257,980.792
				c-0.816,0.341-1.53,0.681-2.143,1.02c-0.612-1.495-1.293-2.755-2.041-3.774c0.679-0.408,1.36-0.748,2.041-1.021
				C262.931,978.445,263.645,979.704,264.257,980.792z"/>
			<path fill="#FFFFFF" d="M289.561,975.078c1.36,0,2.687-0.034,3.979-0.103v2.041c-1.293-0.067-2.62-0.103-3.979-0.103h-4.897
				v6.429h3.775c1.087,0,2.245-0.034,3.469-0.103v2.143c-1.225-0.066-2.382-0.102-3.469-0.102h-3.775v7.958h6.53
				c1.156,0,2.414-0.033,3.775-0.102v2.04c-1.361-0.068-2.619-0.102-3.775-0.102h-14.692c-1.429,0-2.892,0.033-4.388,0.102v-2.04
				c1.496,0.068,2.959,0.102,4.388,0.102h6.122v-7.958h-3.163c-1.361,0-2.79,0.035-4.285,0.102v-2.143
				c1.496,0.068,2.924,0.103,4.285,0.103h3.163v-6.429h-4.387c-1.497,0-3.061,0.035-4.693,0.103v-2.041
				c1.632,0.068,3.163,0.103,4.591,0.103H289.561z"/>
		</g>
		<polygon fill="#74C6BE" stroke="#000000" stroke-width="4.3604" points="310.806,925.465 286.578,915.833 286.578,915.379 
			284.279,915.379 284.279,954.667 286.578,954.667 286.578,936.056 		"/>
	</g>
	<g opacity="0">
		<text transform="matrix(1 0 0 1 239 928.7598)" fill="#040000" font-family="'ArialMT'" font-size="15">10</text>
		<rect x="203.678" y="900.491" fill="none" stroke="#040000" stroke-width="0.834" width="161.988" height="107.176"/>
	</g>
</g>
<g>
	<g>
		<path fill="#FFFFFF" stroke="#E60012" stroke-width="2.1332" d="M379.984,831.268c0,5.391-4.367,9.756-9.753,9.756
			s-9.75-4.365-9.75-9.756c0-5.381,4.365-9.752,9.75-9.752S379.984,825.887,379.984,831.268z"/>
		<rect x="391.166" y="807.548" fill="#E60012" width="84.485" height="35.187"/>
		<g>
			<g>
				<path fill="#FFFFFF" d="M427.232,813.836c0.799,0,1.896-0.032,3.295-0.1v1.896c-1.266-0.065-2.363-0.1-3.295-0.1h-7.687
					c-0.534,2.131-1.365,4.193-2.496,6.189h11.88c-0.067,2.796-0.1,5.358-0.1,7.688c0,2.33,0.032,4.226,0.1,5.69h-2.097v-2.496
					h-10.282v2.695h-2.097c0.065-1.532,0.1-4.892,0.1-10.083c-1.731,1.932-3.461,3.494-5.19,4.692
					c-0.534-0.665-1.099-1.164-1.697-1.498c2.86-1.729,5.124-3.893,6.788-6.488c1.663-2.596,2.629-4.725,2.896-6.39h-2.296
					c-2.396,0-4.16,0.034-5.291,0.1v-1.896c1.131,0.067,2.928,0.1,5.391,0.1H427.232z M426.833,830.907v-7.487h-10.282v7.487
					H426.833z"/>
				<path fill="#FFFFFF" d="M450.493,813.836c0.998,0,2.229-0.032,3.693-0.1v1.896c-1.397-0.065-2.63-0.1-3.693-0.1H446.3v9.484
					h6.09c1.463,0,2.828-0.033,4.093-0.101v1.897c-1.265-0.065-2.63-0.1-4.093-0.1h-6.09v4.592c0,1.465,0.033,2.86,0.101,4.192
					h-2.297c0.066-1.332,0.101-2.728,0.101-4.192v-4.592h-7.288c-0.933,0-1.931,0.034-2.995,0.1v-1.897
					c1.064,0.067,2.13,0.101,3.195,0.101h7.088v-9.484h-4.692c-0.998,0-2.196,0.034-3.594,0.1v-1.896
					c1.397,0.067,2.562,0.1,3.494,0.1H450.493z M436.616,818.229c0.532-0.399,1.064-0.831,1.598-1.298
					c1.663,1.997,2.995,3.761,3.993,5.291c-0.799,0.6-1.432,1.099-1.896,1.498C439.313,821.723,438.08,819.894,436.616,818.229z
					 M451.99,816.632c0.665,0.466,1.331,0.865,1.997,1.197c-1.664,2.596-3.063,4.627-4.193,6.09
					c-0.533-0.465-1.098-0.864-1.697-1.197C449.627,820.858,450.925,818.828,451.99,816.632z"/>
			</g>
		</g>
		<polygon fill="#1D2088" points="394.999,803.85 371.292,794.425 371.292,793.983 369.045,793.983 369.045,832.428 
			371.292,832.428 371.292,814.211 		"/>
	</g>
	<g opacity="0">
		<text transform="matrix(1 0 0 1 329.6274 813.2051)" fill="#040000" font-family="'ArialMT'" font-size="15">9</text>
		<rect x="322.308" y="777.667" fill="none" stroke="#040000" stroke-width="0.7557" width="161.988" height="87.999"/>
	</g>
</g>
<g>
	<g>
		<path fill="#FFFFFF" stroke="#E60012" stroke-width="2.2187" d="M430.497,745.433c0,5.597-4.539,10.139-10.144,10.139
			c-5.6,0-10.141-4.542-10.141-10.139c0-5.604,4.541-10.145,10.141-10.145C425.958,735.288,430.497,739.828,430.497,745.433z"/>
		<rect x="435.228" y="723.764" fill="#E60012" width="87.87" height="36.593"/>
		<g>
			<g>
				<path fill="#FFFFFF" d="M461.012,751.846c-1.939,1.038-3.601,1.902-4.984,2.596c-0.555-0.693-1.074-1.316-1.558-1.869
					c3.391-1.106,6.074-2.284,8.047-3.53c1.974-1.246,3.375-2.318,4.206-3.219c-0.277-0.483-0.556-0.899-0.831-1.246
					c-2.146,1.523-4.05,2.735-5.711,3.634c-1.661,0.9-2.977,1.523-3.945,1.869c-0.485-0.691-1.005-1.28-1.558-1.765
					c2.768-0.831,4.966-1.729,6.594-2.7c1.625-0.969,2.785-1.765,3.478-2.388c-0.277-0.346-0.589-0.728-0.935-1.143
					c-1.107,0.623-2.302,1.229-3.582,1.817c-1.281,0.589-2.647,1.194-4.102,1.817c-0.415-0.691-0.9-1.385-1.453-2.077
					c2.838-0.691,5.018-1.418,6.541-2.181c1.522-0.761,2.63-1.521,3.323-2.284h-1.454c-0.97,0-2.112,0.036-3.427,0.104v-1.868
					c1.314,0.069,2.457,0.104,3.427,0.104h7.061c0.899,0,2.007-0.034,3.323-0.104v1.868c-1.316-0.067-2.424-0.104-3.323-0.104
					h-2.803c-0.623,0.555-1.316,1.178-2.077,1.869c0.554,0.485,1.072,0.986,1.558,1.506c0.483,0.519,1.003,1.229,1.558,2.128
					c0.83-0.415,1.765-0.986,2.804-1.713c1.038-0.727,1.973-1.644,2.803-2.752c1.039,0.971,1.729,1.628,2.077,1.973
					c-0.831,0.348-1.558,0.693-2.181,1.039c-0.623,0.347-1.143,0.727-1.558,1.142c0.623,2.077,1.418,3.566,2.389,4.465
					c0.968,0.9,2.318,1.766,4.049,2.596c-0.692,0.485-1.315,1.143-1.869,1.974c-1.938-1.246-3.357-2.544-4.257-3.895
					c-0.9-1.35-1.523-2.751-1.869-4.205c-0.555,0.348-1.107,0.659-1.661,0.935c0.346,1.869,0.501,3.427,0.468,4.673
					c-0.036,1.246-0.556,2.196-1.558,2.855c-1.005,0.657-2.198,1.09-3.583,1.298c-0.277-0.9-0.589-1.697-0.934-2.389
					c1.176,0,2.11-0.104,2.803-0.312c0.691-0.207,1.091-0.727,1.194-1.558c0.104-0.83,0.052-1.902-0.155-3.219
					C465.061,749.389,462.948,750.807,461.012,751.846z M467.968,733.467h9.553c-0.069,1.108-0.104,2.009-0.104,2.7
					c0,0.623,0.034,1.419,0.104,2.388h-2.18v-3.427h-18.067v3.946h-2.181c0.068-1.106,0.104-2.077,0.104-2.907
					c0-0.899-0.036-1.8-0.104-2.7h10.384c-0.277-0.898-0.589-1.695-0.935-2.388c0.898-0.208,1.729-0.45,2.492-0.728
					C467.172,731.045,467.483,732.083,467.968,733.467z"/>
				<path fill="#FFFFFF" d="M493.719,732.325c2.007,2.424,3.634,4.085,4.88,4.983c1.246,0.9,2.389,1.594,3.427,2.077
					c1.038,0.484,2.041,0.866,3.011,1.142c-0.692,0.763-1.142,1.489-1.35,2.181c-1.386-0.623-2.632-1.28-3.738-1.973
					c-1.107-0.691-2.232-1.574-3.374-2.647c-1.143-1.073-2.44-2.544-3.894-4.413c-1.316,1.869-2.614,3.41-3.895,4.62
					c-1.281,1.212-2.371,2.164-3.271,2.855c-0.9,0.693-1.904,1.386-3.011,2.077c-0.14-0.276-0.693-0.831-1.661-1.661
					c1.453-0.691,2.837-1.522,4.153-2.492c1.313-0.969,2.63-2.197,3.945-3.687c1.314-1.487,2.388-3.097,3.219-4.828
					c0.761,0.485,1.454,0.866,2.077,1.143L493.719,732.325z M500.571,749.562c0,2.491,0.034,4.117,0.104,4.88h-2.181v-1.973H486.97
					v2.284h-2.077c0.068-0.831,0.104-2.424,0.104-4.776c0-2.423-0.036-4.153-0.104-5.191h15.783
					C500.605,745.478,500.571,747.069,500.571,749.562z M496.003,740.527c1.106,0,2.077-0.034,2.907-0.104v1.973
					c-0.9-0.068-1.835-0.104-2.804-0.104h-5.814c-1.453,0-2.632,0.035-3.53,0.104v-1.973c1.314,0.069,2.492,0.104,3.53,0.104
					H496.003z M498.495,750.807v-4.36H486.97v4.36H498.495z"/>
			</g>
		</g>
		<polygon fill="#00A0E9" points="446.19,714.303 421.535,704.504 421.535,704.041 419.195,704.041 419.195,744.024 
			421.535,744.024 421.535,725.079 		"/>
	</g>
	<g opacity="0">
		<text transform="matrix(1 0 0 1 497.6563 719.4268)" fill="#040000" font-family="'ArialMT'" font-size="15">7</text>
		<rect x="405.385" y="700.614" fill="none" stroke="#040000" stroke-width="0.693" width="148.078" height="80.947"/>
	</g>
</g>
<g>
	<g>
		<path fill="#FFFFFF" stroke="#E60012" stroke-width="2.2276" d="M254.782,407.088c0,5.622-4.558,10.18-10.182,10.18
			c-5.625,0-10.188-4.558-10.188-10.18c0-5.626,4.563-10.187,10.188-10.187C250.224,396.902,254.782,401.462,254.782,407.088z"/>
		<rect x="259.957" y="389.722" fill="#E60012" width="88.226" height="36.743"/>
		<g>
			<g>
				<path fill="#FFFFFF" d="M283.035,405.387c0.417,0.557,0.972,1.183,1.668,1.876c-0.557,0.14-1.095,0.401-1.616,0.782
					c-0.521,0.383-1.06,0.818-1.616,1.303c0.764,0.557,1.702,1.321,2.815,2.293c-0.557,0.487-1.079,1.078-1.564,1.772
					c-0.766-0.902-1.425-1.632-1.98-2.189c-0.557-0.556-1.147-1.077-1.772-1.564v6.255c0,1.113,0.034,2.466,0.104,4.066h-2.085
					c0.068-1.876,0.104-3.44,0.104-4.691v-6.15c-0.904,1.112-2.225,2.434-3.961,3.961c-0.417-0.694-0.904-1.319-1.459-1.876
					c1.528-1.042,2.971-2.293,4.326-3.753c1.355-1.459,2.31-2.849,2.867-4.17h-2.085c-1.321,0-2.606,0.036-3.857,0.104v-1.98
					c1.319,0.07,2.57,0.104,3.753,0.104h5.317c-0.417,0.904-0.852,1.756-1.303,2.554c-0.453,0.8-1.026,1.72-1.72,2.763v0.729
					c0.417,0.349,0.834,0.662,1.251,0.938C281.679,407.055,282.618,406.013,283.035,405.387z M280.428,399.236
					c-0.625,0.279-1.251,0.625-1.876,1.042c-0.695-1.528-1.355-2.745-1.98-3.648c0.694-0.347,1.285-0.694,1.772-1.042
					C278.969,396.492,279.663,397.708,280.428,399.236z M288.768,399.445v16.263c0,0.834,0.034,2.258,0.104,4.274h-2.293
					c0.068-2.017,0.104-3.649,0.104-4.9v-15.637c0-1.111-0.07-2.223-0.208-3.336h2.502
					C288.836,397.292,288.768,398.402,288.768,399.445z M293.876,405.908c1.042,1.459,1.876,2.747,2.502,3.857
					c-0.696,0.349-1.425,0.8-2.189,1.355c-0.695-1.528-1.512-3.023-2.45-4.482c-0.938-1.459-1.652-2.466-2.137-3.023l1.668-1.251
					C291.964,403.268,292.834,404.449,293.876,405.908z"/>
				<path fill="#FFFFFF" d="M316.081,402.572c-1.391,0.07-2.814,0.174-4.274,0.313v1.251h6.88c1.598,0,2.987-0.034,4.17-0.104v1.668
					c-1.183-0.068-2.572-0.104-4.17-0.104h-6.88v1.251h7.714c-0.07,1.042-0.104,2.121-0.104,3.231c0,1.113,0.034,2.293,0.104,3.544
					h-7.714v1.355h5.004c1.319,0,2.502-0.034,3.544-0.104v1.564c-1.042-0.068-2.189-0.104-3.44-0.104h-5.108v1.46h6.776
					c1.459,0,2.71-0.036,3.753-0.104v1.668c-1.251-0.07-2.468-0.104-3.648-0.104h-15.429c-1.391,0-2.606,0.034-3.649,0.104v-1.668
					c1.111,0.068,2.362,0.104,3.753,0.104h6.672v-1.46h-4.587c-1.391,0-2.642,0.036-3.753,0.104v-1.564
					c1.042,0.07,2.258,0.104,3.649,0.104h4.691v-1.355h-7.506c0.068-1.181,0.104-2.328,0.104-3.44c0-1.181-0.036-2.293-0.104-3.336
					h7.506v-1.251h-6.984c-1.459,0-2.71,0.036-3.753,0.104v-1.668c1.042,0.07,2.293,0.104,3.753,0.104h6.984v-1.147
					c-1.042,0-2.137,0.018-3.284,0.052c-1.147,0.036-2.624,0.088-4.431,0.156c-0.14-0.694-0.313-1.215-0.521-1.563
					c2.432,0.07,5.004,0.036,7.714-0.104c2.71-0.138,5.664-0.485,8.861-1.042c0.208,0.557,0.625,1.183,1.251,1.876
					C318.651,402.434,317.471,402.504,316.081,402.572z M313.371,400.592v-1.564h-5.212v1.668h-1.98
					c0.068-0.694,0.104-1.251,0.104-1.668h-2.814c-1.808,0-2.989,0.036-3.544,0.104v-1.772c0.555,0.07,1.736,0.104,3.544,0.104
					h2.814c0-0.485-0.036-1.111-0.104-1.876h2.085c-0.07,0.625-0.104,1.251-0.104,1.876h5.212c0-0.625-0.036-1.251-0.104-1.876
					h2.085c-0.07,0.625-0.104,1.251-0.104,1.876h3.232c0.834,0,1.84-0.034,3.023-0.104v1.772c-1.183-0.068-2.189-0.104-3.023-0.104
					h-3.232c0,0.417,0.034,0.938,0.104,1.564H313.371z M310.035,409.661v-1.459h-5.525v1.459H310.035z M310.035,412.268v-1.355
					h-5.525v1.355H310.035z M317.645,409.661v-1.459h-5.838v1.459H317.645z M317.645,412.268v-1.355h-5.838v1.355H317.645z"/>
			</g>
		</g>
		<polygon fill="#E60012" points="270.139,380.039 245.381,370.203 245.381,369.736 243.034,369.736 243.034,409.885 
			245.381,409.885 245.381,390.861 		"/>
	</g>
	<g opacity="0">
		<text transform="matrix(1 0 0 1 307.8657 354.2715)" fill="#040000" font-family="'ArialMT'" font-size="15">2</text>
		<rect x="226.866" y="337.382" fill="none" stroke="#040000" stroke-width="0.714" width="134" height="94.952"/>
	</g>
</g>
<g>
	<g>
		<path fill="#FFFFFF" stroke="#E60012" stroke-width="2.1972" d="M169.011,374.954c0,5.542-4.491,10.044-10.043,10.044
			c-5.545,0-10.042-4.502-10.042-10.044c0-5.546,4.498-10.049,10.042-10.049C164.52,364.905,169.011,369.408,169.011,374.954z"/>
		<rect x="56.865" y="354.271" fill="#E60012" width="87.019" height="36.238"/>
		<g>
			<g>
				<path fill="#FFFFFF" d="M77.886,366.295c0,1.578,0.016,3.342,0.052,5.295c0.034,1.954-0.069,3.977-0.309,6.066
					c-0.241,2.092-0.807,4.198-1.697,6.324c-0.549-0.411-1.131-0.72-1.748-0.925c1.165-3.084,1.8-6.306,1.902-9.666
					c0.103-3.358,0.085-7.265-0.051-11.722c0.823,0.206,1.507,0.309,2.057,0.309C77.954,363.279,77.886,364.719,77.886,366.295z
					 M81.28,366.809v9.666c0,1.167,0.034,2.468,0.103,3.907h-2.056c0.067-1.439,0.103-2.741,0.103-3.907v-9.563
					c0-1.234-0.035-2.227-0.103-2.982h2.056C81.313,364.685,81.28,365.644,81.28,366.809z M84.673,365.267v13.264
					c0,1.167,0.034,2.434,0.103,3.805h-2.057c0.067-1.439,0.103-2.707,0.103-3.805v-13.264c0-0.959-0.036-2.021-0.103-3.188h2.057
					C84.707,363.176,84.673,364.238,84.673,365.267z M92.488,374.932c-0.206,2.125-0.686,3.907-1.44,5.347
					c-0.755,1.44-2.022,2.844-3.804,4.216c-0.412-0.48-1.098-0.96-2.057-1.439c1.371-0.755,2.501-1.679,3.393-2.776
					c0.89-1.096,1.491-2.586,1.8-4.473c0.308-1.885,0.427-3.959,0.36-6.221c0.684,0.206,1.404,0.309,2.159,0.309
					C92.83,371.127,92.693,372.808,92.488,374.932z M94.75,361.565c0.959,0,1.987-0.034,3.084-0.103v1.851
					c-1.097-0.068-1.989-0.103-2.673-0.103h-2.468c-0.206,0.892-0.447,1.954-0.72,3.188h4.936c-0.069,1.028-0.103,2.057-0.103,3.085
					v5.141c0,0.892,0.034,2.092,0.103,3.599h-1.954V367.94h-6.684v10.077h-1.954c0.068-1.439,0.103-2.673,0.103-3.702v-4.421
					c0-1.234-0.035-2.398-0.103-3.496h3.805c0.273-1.028,0.479-2.09,0.617-3.188h-1.234c-1.372,0-2.606,0.035-3.702,0.103v-1.851
					c1.439,0.069,2.673,0.103,3.702,0.103H94.75z M98.349,382.644c-0.755,0.617-1.303,1.131-1.645,1.542
					c-0.823-1.234-2.125-2.776-3.908-4.627c0.479-0.411,0.926-0.856,1.337-1.336C95.846,379.8,97.251,381.273,98.349,382.644z"/>
				<path fill="#FFFFFF" d="M106.472,370.099c-0.617,0.686-1.097,1.337-1.439,1.954c-1.303-1.096-2.776-2.09-4.421-2.982
					c0.411-0.548,0.787-1.165,1.131-1.851C103.455,368.249,105.032,369.209,106.472,370.099z M105.238,379.354
					c-0.822,1.851-1.475,3.358-1.954,4.524c-0.617-0.549-1.439-1.063-2.468-1.542c0.617-0.686,1.388-1.918,2.313-3.702
					c0.926-1.782,1.662-3.461,2.211-5.039c0.753,0.55,1.473,0.995,2.159,1.337C106.814,376.029,106.061,377.503,105.238,379.354z
					 M107.191,364.238c-0.755,0.617-1.372,1.167-1.851,1.645c-1.028-1.234-2.262-2.432-3.702-3.599
					c0.479-0.412,0.959-0.89,1.439-1.439C104.449,361.873,105.819,363.004,107.191,364.238z M122.101,362.387
					c0.89,0,1.851-0.034,2.879-0.103v2.056c-1.303-0.067-2.332-0.103-3.085-0.103v17.377c0,1.028-0.344,1.697-1.028,2.005
					c-0.686,0.309-1.748,0.566-3.188,0.771c-0.069-0.686-0.446-1.475-1.131-2.365c1.507,0.068,2.468,0.052,2.879-0.051
					c0.412-0.103,0.617-0.497,0.617-1.183v-16.555h-8.021c-1.097,0-2.331,0.035-3.702,0.103v-2.056
					c1.371,0.069,2.604,0.103,3.702,0.103H122.101z M116.96,373.39c0,2.673,0.034,4.388,0.103,5.141h-2.057v-1.645h-3.702v2.982
					h-2.057c0.137-0.823,0.206-2.81,0.206-5.964c0-3.221-0.035-5.381-0.103-6.478h7.712
					C116.994,368.729,116.96,370.716,116.96,373.39z M115.006,375.035v-5.758h-3.702v5.758H115.006z"/>
			</g>
		</g>
		<polygon fill="#74C6BE" stroke="#000000" stroke-width="4.3944" points="184.575,347.124 160.16,337.417 160.16,336.957 
			157.841,336.957 157.841,376.553 160.16,376.553 160.16,357.797 		"/>
	</g>
	<g>
		
			<text transform="matrix(1 0 0 1 184.5752 374.9521)" opacity="0" fill="#040000" enable-background="new    " font-family="'ArialMT'" font-size="15">3</text>
		<rect x="47.667" y="321.001" opacity="0" fill="none" stroke="#040000" stroke-width="0.7476" width="146.91" height="94.952"/>
	</g>
</g>

</svg>