<svg version="1.0" id="图层_1" xmlns="http://www.w3.org/2000/svg" xmlns:xlink="http://www.w3.org/1999/xlink" x="0px" y="0px" 
	width="100%" height="100%" viewBox="0 0 720 1280" xml:space="preserve"
  style="position: relative;display: block;"
  >
 
<g>
	<path opacity="0.6" fill="#FFFFFF" stroke="#00A0E9" stroke-width="6.6691" d="M608.354,76.589H591.3l-28.992-11.938
		l-30.696-12.793L512.85,62.948l-18.761,10.228c0,0-8.526,1.707-13.643,0c-5.113-1.699-18.004-5.116-18.004-5.116
		s-12.693-23.879-38.273,28.995c0,0,10.234,18.756-54.573,8.521l-15.354,10.235l-10.23,10.234l-17.054,23.88
		c0,0-17.055,11.933-22.169,15.343c-5.12,3.413,25.577,10.231-23.883,3.413c-49.451-6.823-39.22-6.823-49.451-6.823
		c-10.232,0-25.582,8.526-22.17,13.642c3.405,5.115-19.728,25.594-0.486,44.344c19.243,18.761,20.945,35.819,20.945,35.819
		s-3.409,15.343-5.114,25.581c-1.703,10.232-5.113,23.875-10.232,35.814c-5.116,11.937-6.202,13.642-13.333,28.987
		c-7.134,15.354-2.007,32.404-11.395,37.524c-9.38,5.111-9.38,6.822-17.91,17.054c-8.525,10.227-18.759,30.693-18.759,29.838
		c0-0.848-8.525,2.559-11.938,12.789c-3.411,10.239-42.636,15.354-42.636,15.354l-44.34,13.645c0,0-8.528,5.116-8.528,15.351
		c0,10.231,0,37.521,0,37.521s-15.349,11.933-20.469,28.99c-5.112,17.056-10.231,25.58-10.231,30.694
		c0,5.121-18.759,28.996-8.526,34.116c10.232,5.115,39.226,18.758,39.226,18.758s15.345,0,28.989,0s-6.818-11.94,13.644,0
		c20.467,11.936,30.701,25.579,30.701,25.579l5.117,22.173l11.937,22.17c0,0,6.82-1.711,6.82,15.347
		c0,17.059-1.704,27.289-10.231,34.11c-8.525,6.824-28.992,25.582-28.992,25.582l-18.761,5.118l-25.582-10.233l-10.231,6.819
		l5.118,13.645l-1.708,23.877c0,0-8.525,8.527-10.232,13.64c-1.702,5.122-5.114,8.532-6.822,17.059
		c-1.707,8.523,8.528,23.869,8.528,23.869s1.705,0,1.705,15.355c0,15.346-3.412,20.464-3.412,25.583c0,5.112,0,47.749,0,47.749
		l3.409,15.349c0,0,5.12,15.347,6.823,20.461c1.708,5.123,10.235,20.468,10.235,20.468l10.231,15.351l18.76,17.053l13.644,15.352
		c0,0,8.527-1.71,8.527,8.524s-1.707,17.055,1.705,22.173c3.412,5.115,6.818,13.649,11.937,15.352
		c5.117,1.698,8.525,8.522,15.349,11.935c6.822,3.409,17.053,8.527,22.172,8.527c5.119,0,5.119-3.407,18.76,0
		c13.645,3.414,25.585,0,25.585,0l25.583-10.231h37.52c0,0,5.111-5.123,13.64-6.826c8.528-1.706,0,0.006,8.528-1.706
		c8.525-1.698,23.876-31.55,23.876-31.55s13.645-19.609,8.525-21.317c-5.116-1.707-20.463-8.524-25.579-10.231
		c-5.115-1.701-8.525,6.824-13.644,0c-5.114-6.816-1.707-10.23-11.941-10.23c-10.232,0-27.281,0-27.281,0h-18.764l6.826-23.877
		c0,0,11.938-6.816,17.053-11.937c5.117-5.117,13.084-13.641,15.069-15.351s8.808-22.169,8.808-22.169s1.706-10.236,5.117-20.468
		c3.407-10.23-15.353,3.41,3.407-10.23c18.76-13.642,32.996-13.642,42.079-17.056c9.085-3.411,14.2-5.112,22.73-10.231
		c8.528-5.118,0-27.287,0-27.287s-6.066,6.823,3.787-10.234c9.856-17.055,8.15-0.003,9.856-17.055c1.703-17.049,0-27.283,0-27.283
		l-17.053-10.235c0,0-23.879-10.237-23.879-15.348c0-5.12,0-17.059,1.706-27.288c1.705-10.235,1.705-8.528,11.938-18.763
		c10.236-10.229,28.049-22.17,28.049-22.17s4.355-6.819,7.769-11.936c3.405-5.12,10.231-13.643,10.231-13.643
		s8.526-17.06,10.233-27.293c1.703-10.229-3.411,0,1.703-10.229c5.121-10.231,18.761-35.813,18.761-35.813s-10.229,0,0-11.938
		c10.231-11.942,8.521-15.354,11.936-20.471c3.412-5.115,18.765-22.169,23.879-25.578c5.115-3.405,5.115-1.706,11.941-11.087
		c6.818-9.382,6.818-9.382,6.818-9.382s10.231-27.282,11.938-32.401c1.705-5.117-3.408-13.645,0-18.76
		c3.41-5.113,7.54-3.413,0.36-17.056c-7.182-13.642-19.116-23.869-19.116-23.869s-3.307-28.996,23.075-36.673
		c26.381-7.668,24.673-12.794,36.611-21.317c11.938-8.526,23.876-17.059,28.994-20.467c5.117-3.41,20.464-8.525,20.464-8.525
		s1.707-5.114,11.937,10.232c10.235,15.35,15.352,22.177,18.76,32.409c3.409,10.227,28.996,39.222,28.996,39.222
		s13.64,10.234,17.053,17.053c3.414,6.823,13.642,20.462,18.761,22.169c5.115,1.709,18.76,5.118,25.581-1.708
		c6.817-6.813,15.348-15.346,20.463-22.168c5.12-6.822-5.115-10.228,0-20.466c5.12-10.232-2.159-1.705,1.479-13.645
		c1.172-3.839,1.627-7.318,1.711-10.282v-1.438c0.184-6.25-1.292-8.734-1.292-8.734l1.313-5.12v-6.826l-25.384-17.053
		l-15.347-14.463v-19.644c0,0,3.412-8.527,0-18.756c-3.414-10.234-3.414-10.234-3.414-10.234l-15.346-25.584l-18.763-13.647
		c0,0,0-5.113,0-10.23c0-5.114,3.411-15.348,0-20.462c-3.41-5.112-8.526-18.757-8.526-18.757l-3.409-15.35l-20.467-18.764
		l10.231-25.578l5.115-13.642l13.646-18.76l15.351-18.763l-17.056-28.992l-6.82-15.348l-10.235-10.234H608.354"/>
	
		<text transform="matrix(1 0 0 1 641.1006 445.9946)" opacity="0" fill="#040000" enable-background="new    " font-family="'SimHei'" font-size="24.0803">轮廓</text>
</g>
<g>
	<g>
		<path fill="#FFFFFF" stroke="#E60012" stroke-width="2.3317" d="M393.26,237.673c0,5.884-4.768,10.656-10.658,10.656
			c-5.885,0-10.655-4.772-10.655-10.656c0-5.894,4.771-10.665,10.655-10.665C388.492,227.008,393.26,231.779,393.26,237.673z"/>
		<rect x="393.818" y="209.76" fill="#E60012" width="92.348" height="38.465"/>
		<g>
			<g>
				<path fill="#FFFFFF" d="M429.031,221.658c-0.475,0.873-0.892,1.674-1.255,2.4h2.4c1.527,0,2.873-0.036,4.037-0.109v2.073
					c-0.946-0.072-2.182-0.109-3.71-0.109h-5.674v5.456h6.874c1.455,0,2.765-0.036,3.929-0.109v2.073
					c-1.164-0.071-2.4-0.109-3.71-0.109h-6.656c2.183,3.71,5.819,6.111,10.912,7.202c-0.655,0.726-1.238,1.599-1.746,2.619
					c-4.583-1.528-8.039-4.183-10.366-7.966c-1.238,3.202-4.657,5.964-10.258,8.293c-0.292-0.728-0.837-1.383-1.637-1.964
					c5.601-1.528,9.057-4.256,10.366-8.184h-5.783c-1.675,0-3.056,0.038-4.146,0.109v-1.964c0.8,0.073,2.035,0.109,3.71,0.109h6.438
					v-5.565h-5.129c-1.383,0-2.619,0.037-3.71,0.109v-2.073c1.091,0.073,2.363,0.109,3.819,0.109h7.856
					c1.018-2.327,1.746-4.255,2.183-5.783c0.727,0.437,1.599,0.873,2.619,1.31C429.959,220.095,429.503,220.785,429.031,221.658z
					 M422.211,222.531c-0.873,0.437-1.565,0.873-2.073,1.309c-0.873-1.672-1.746-3.055-2.619-4.146
					c0.655-0.437,1.236-0.873,1.746-1.31C420.209,219.549,421.191,220.932,422.211,222.531z"/>
				<path fill="#FFFFFF" d="M443.163,228.86v10.039h7.638v-16.368c0-1.31-0.037-2.619-0.108-3.929h2.4
					c-0.073,1.02-0.109,2.329-0.109,3.929v16.368h7.639v-10.257c0-1.6-0.037-2.946-0.109-4.038h2.51
					c-0.073,0.873-0.108,2.22-0.108,4.038v8.839c0,1.746,0.035,3.601,0.108,5.565h-2.4v-2.292h-19.86
					c0.072-1.599,0.109-3.165,0.109-4.692v-7.093c0-1.673-0.037-3.165-0.109-4.474h2.51
					C443.198,226.241,443.163,227.697,443.163,228.86z"/>
			</g>
		</g>
		<polygon fill="#1D2088" points="410.251,209.092 384.337,198.789 384.337,198.302 381.877,198.302 381.877,240.329 
			384.337,240.329 384.337,220.417 		"/>
	</g>
	<g opacity="0">
		<text transform="matrix(1 0 0 1 420.1826 273.4814)" fill="#040000" font-family="'ArialMT'" font-size="15">1</text>
		<rect x="357.176" y="181.517" fill="none" stroke="#040000" stroke-width="0.714" width="134" height="94.951"/>
	</g>
</g>
<g>
	<g>
		<rect x="296.83" y="339.547" fill="#E60012" width="88.297" height="36.778"/>
		<path fill="#FFFFFF" stroke="#E60012" stroke-width="2.2295" d="M287.711,359.448c0,5.631-4.563,10.194-10.189,10.194
			c-5.63,0-10.195-4.563-10.195-10.194c0-5.624,4.565-10.195,10.195-10.195C283.147,349.252,287.711,353.824,287.711,359.448z"/>
		<g>
			<path fill="#FFFFFF" d="M322.307,358.55c0.277,0.592,0.626,1.236,1.043,1.931c-0.766,0.349-1.461,0.696-2.087,1.043
				c-0.349-0.903-0.662-1.633-0.939-2.191c-0.279-0.556-0.558-1.078-0.835-1.565v8.243c0,1.392,0.035,2.852,0.104,4.382h-2.087
				c0.069-1.601,0.104-3.06,0.104-4.382v-7.304c-0.766,2.018-1.81,4.035-3.13,6.052c-0.349-0.835-0.8-1.6-1.356-2.295
				c0.348-0.277,0.851-0.939,1.513-1.982c0.66-1.043,1.2-2.139,1.617-3.287c0.417-1.147,0.765-2.312,1.043-3.495
				c-1.113,0-2.261,0.036-3.443,0.104v-1.878c1.182,0.07,2.434,0.104,3.756,0.104v-2.608c0-1.043-0.036-2.051-0.104-3.026h2.087
				c-0.07,0.834-0.104,1.844-0.104,3.026v2.608c0.903,0,1.878-0.034,2.922-0.104v1.878c-1.043-0.069-2.019-0.104-2.922-0.104v3.86
				c0.556-0.277,1.148-0.59,1.774-0.939C321.681,357.316,322.028,357.96,322.307,358.55z M323.768,355.889
				c0.834,0.07,1.669,0.104,2.504,0.104h2.504v-4.278h-3.026c-0.767,0-1.531,0.036-2.295,0.104v-1.878
				c0.694,0.07,1.46,0.104,2.295,0.104h3.026c0-0.973-0.036-2.155-0.104-3.548h2.191c-0.07,0.696-0.104,1.878-0.104,3.548h3.756
				c0.765,0,1.565-0.034,2.4-0.104v1.878c-0.626-0.068-1.356-0.104-2.191-0.104h-3.965v4.278h5.008
				c-0.279,0.975-0.558,1.878-0.835,2.713c-0.279,0.834-0.626,1.653-1.043,2.452c-0.417,0.801-0.834,1.531-1.252,2.191
				c-0.417,0.662-0.871,1.27-1.356,1.826c0.835,0.696,1.878,1.27,3.13,1.722c1.252,0.453,2.434,0.749,3.547,0.887
				c-0.626,0.694-1.009,1.391-1.148,2.086c-1.739-0.558-3.114-1.095-4.121-1.617c-1.009-0.521-1.93-1.095-2.765-1.722
				c-1.043,0.975-2.087,1.756-3.13,2.348c-1.043,0.59-2.227,1.164-3.548,1.722c-0.279-0.696-0.766-1.288-1.46-1.774
				c1.669-0.349,3.06-0.903,4.173-1.669c1.112-0.765,1.947-1.425,2.504-1.983c-1.74-2.017-2.958-4.486-3.652-7.408h-1.043V355.889z
				 M329.924,363.715c1.461-1.738,2.539-3.756,3.234-6.052h-6.469C327.384,360.308,328.463,362.324,329.924,363.715z"/>
			<path fill="#FFFFFF" d="M344.636,349.733c0-0.974-0.036-1.947-0.104-2.921h2.296c-0.141,0.834-0.209,1.81-0.209,2.921v2.4
				c1.112,0,2.33-0.035,3.652-0.104v1.878c-1.322-0.068-2.54-0.104-3.652-0.104v3.652c0.347-0.348,0.799-0.73,1.356-1.148
				c0.556,0.626,1.078,1.218,1.565,1.774c0.486,0.558,0.903,1.043,1.252,1.46c-0.696,0.488-1.252,0.939-1.669,1.356
				c-0.488-0.765-0.939-1.409-1.356-1.93c-0.417-0.521-0.801-0.956-1.148-1.304v8.452c0,1.322,0.034,2.608,0.104,3.86h-2.191
				c0.069-1.252,0.104-2.539,0.104-3.86v-8.243c-0.417,1.184-0.834,2.295-1.252,3.339s-1.009,2.191-1.774,3.443
				c-0.626-0.626-1.218-1.182-1.774-1.669c0.626-0.694,1.321-1.738,2.087-3.13c0.765-1.391,1.495-3.373,2.191-5.947
				c-1.114,0-2.191,0.036-3.235,0.104v-1.878c1.112,0.07,2.364,0.104,3.756,0.104V349.733z M362.582,347.751v1.669
				c-1.043,0.208-2.104,0.8-3.182,1.773c-1.079,0.975-2.626,2.332-4.643,4.069h9.391c-0.07,0.417-0.175,1.497-0.313,3.234
				l-0.521,8.765c-0.07,1.043-0.436,1.738-1.096,2.087c-0.662,0.347-1.826,0.626-3.495,0.834c-0.209-0.834-0.522-1.601-0.939-2.295
				c1.599,0,2.572-0.052,2.921-0.156c0.348-0.104,0.59-0.504,0.73-1.2l0.626-9.599h-2.087c-0.208,1.81-0.54,3.375-0.991,4.695
				c-0.453,1.322-0.991,2.47-1.617,3.443c-0.626,0.975-1.375,1.862-2.243,2.661c-0.871,0.799-2,1.617-3.391,2.452
				c-0.487-0.626-1.043-1.147-1.669-1.565c1.46-0.626,2.677-1.373,3.652-2.243c0.973-0.869,1.756-1.808,2.348-2.817
				c0.59-1.007,1.025-2.069,1.304-3.182c0.277-1.112,0.486-2.26,0.626-3.443h-1.774c-0.208,0.975-0.469,1.878-0.782,2.713
				c-0.313,0.835-0.749,1.635-1.304,2.4c-0.558,0.766-1.166,1.497-1.826,2.191c-0.662,0.696-1.549,1.427-2.661,2.191
				c-0.487-0.556-1.043-1.043-1.669-1.461c2.155-1.182,3.704-2.504,4.643-3.965s1.513-2.817,1.722-4.069
				c-0.487,0-1.497,0.104-3.026,0.313c-0.07-0.626-0.174-1.286-0.313-1.982c1.182,0,3.652-1.946,7.408-5.843h-3.548
				c-1.322,0-2.644,0.036-3.965,0.104v-1.878c1.252,0.07,2.539,0.104,3.861,0.104H362.582z"/>
		</g>
		<polygon fill="#E60012" points="303.379,330.408 278.597,320.563 278.597,320.096 276.249,320.096 276.249,360.275 
			278.597,360.275 278.597,341.242 		"/>
	</g>
	<g opacity="0">
		<text transform="matrix(1 0 0 1 335.0527 326.9683)" fill="#040000" font-family="'ArialMT'" font-size="15">2</text>
		<rect x="241.572" y="289" fill="none" stroke="#000000" width="156.928" height="102.925"/>
	</g>
</g>
<g>
	<g>
		<path fill="#FFFFFF" stroke="#E60012" stroke-width="2.2125" d="M544.881,391.922c0,5.587-4.525,10.12-10.112,10.12
			c-5.586,0-10.116-4.533-10.116-10.12c0-5.585,4.53-10.114,10.116-10.114C540.355,381.808,544.881,386.337,544.881,391.922z"/>
		<rect x="433.172" y="376.324" fill="#E60012" width="87.635" height="36.494"/>
		<g>
			<g>
				<path fill="#FFFFFF" d="M465.104,398.438c-3.452,0.484-5.558,0.812-6.316,0.983c-0.76,0.173-1.484,0.363-2.174,0.57
					c-0.277-0.759-0.554-1.38-0.828-1.864c0.828-0.345,1.639-0.984,2.433-1.916c0.793-0.932,1.673-2.123,2.641-3.572
					c-0.69,0.069-1.485,0.139-2.382,0.207c-0.897,0.069-1.796,0.243-2.691,0.518c-0.277-0.689-0.554-1.346-0.829-1.967
					c0.621-0.068,1.484-1.018,2.589-2.848c1.104-1.828,1.968-3.709,2.589-5.643c0.828,0.484,1.553,0.829,2.174,1.036
					c-0.553,0.691-1.139,1.605-1.76,2.744c-0.621,1.139-1.589,2.676-2.899,4.608c1.657-0.068,3.07-0.138,4.245-0.207
					c0.896-1.587,1.483-2.76,1.761-3.521c0.481,0.414,1.139,0.864,1.967,1.346c-0.414,0.483-1.019,1.33-1.812,2.537
					c-0.795,1.208-2.33,3.262-4.608,6.161c2.002-0.275,4.039-0.585,6.109-0.932C465.172,397.369,465.104,397.956,465.104,398.438z
					 M465.621,402.787c-3.728,0.968-6.023,1.605-6.886,1.916c-0.863,0.311-1.641,0.604-2.329,0.88
					c-0.277-0.898-0.588-1.657-0.933-2.278c1.174-0.208,2.468-0.466,3.884-0.777c1.413-0.311,3.469-0.844,6.16-1.605
					C465.518,401.476,465.552,402.098,465.621,402.787z M474.423,385.909c1.173,0,2.381-0.034,3.624-0.104v1.864
					c-1.243-0.068-2.451-0.104-3.624-0.104h-1.554v15.739h2.175c1.173,0,2.415-0.034,3.728-0.104v1.967
					c-1.313-0.07-2.555-0.104-3.728-0.104h-6.316c-1.035,0-2.21,0.034-3.521,0.104v-1.967c1.311,0.069,2.52,0.104,3.624,0.104h2.071
					v-15.739h-1.14c-1.312,0-2.554,0.036-3.728,0.104v-1.864c1.243,0.069,2.416,0.104,3.521,0.104H474.423z"/>
				<path fill="#FFFFFF" d="M487.262,392.225v10.147c0,1.312,0.034,2.657,0.104,4.038h-1.968c0.068-1.381,0.104-2.726,0.104-4.038
					v-8.387c-0.483,1.934-1.381,3.901-2.691,5.902c-0.414-0.622-0.898-1.139-1.45-1.553c1.104-1.587,1.932-3.055,2.485-4.401
					c0.552-1.346,0.932-2.708,1.139-4.09c-0.967,0-1.899,0.07-2.795,0.207v-1.864c0.966,0.07,2.07,0.104,3.313,0.104v-2.588
					c0-1.036-0.035-2.071-0.104-3.106h2.071c-0.139,0.829-0.207,1.864-0.207,3.106v2.588c0.896,0,1.794-0.034,2.692-0.104v1.76
					c-0.898-0.068-1.796-0.104-2.692-0.104v1.76c0.482-0.275,0.862-0.518,1.139-0.725c0.689,1.242,1.38,2.521,2.071,3.831
					c-0.554,0.139-1.105,0.414-1.657,0.828C488.4,394.436,487.883,393.33,487.262,392.225z M498.134,384.977
					c-0.14,1.036-0.311,2.141-0.518,3.313h3.728c0.828,0,1.828-0.034,3.003-0.104v1.76c-1.175-0.068-2.589-0.104-4.245-0.104
					c0.207,1.243,0.776,2.365,1.708,3.365c0.932,1.001,2.33,1.812,4.193,2.433c-0.69,0.415-1.242,1.036-1.656,1.864
					c-1.036-0.552-2.003-1.242-2.899-2.071c-0.14,0.761-0.207,1.657-0.207,2.692v4.763c0,0.968,0.034,2.071,0.104,3.313h-1.968
					c0.068-0.828,0.104-1.933,0.104-3.313v-4.763c0-1.036-0.035-1.967-0.104-2.796h1.968c-1.589-1.518-2.589-3.347-3.003-5.488
					h-1.139c-0.761,2.21-1.657,3.867-2.692,4.97c1.035,0.139,1.794,0.207,2.278,0.207c-0.207,0.76-0.381,1.916-0.519,3.469
					c-0.139,1.553-0.432,2.969-0.88,4.245c-0.449,1.278-1.26,2.467-2.433,3.572c-0.691-0.621-1.45-1.035-2.278-1.242
					c1.863-1.243,2.984-3.003,3.365-5.281c0.378-2.278,0.5-3.865,0.362-4.763c-1.035,1.175-2.106,2.174-3.21,3.003
					c-0.347-0.482-0.968-0.966-1.863-1.45c1.863-1.036,3.226-2.139,4.09-3.313c0.862-1.173,1.501-2.312,1.915-3.417
					c-1.519,0-2.865,0.036-4.038,0.104v-1.76c1.242,0.07,2.76,0.104,4.556,0.104c0.138-1.242,0.241-2.278,0.311-3.106
					c-1.796,0.207-3.176,0.346-4.142,0.414c-0.207-0.622-0.483-1.173-0.828-1.657c0.689,0,2.208-0.12,4.556-0.362
					c2.347-0.241,4.486-0.673,6.42-1.294c0.275,0.691,0.655,1.416,1.139,2.174C502.482,384.392,500.756,384.563,498.134,384.977z"/>
			</g>
		</g>
		<polygon fill="#74C6BE" stroke="#000000" stroke-width="4.4251" points="560.938,362.985 536.351,353.215 536.351,352.752 
			534.018,352.752 534.018,392.622 536.351,392.622 536.351,373.733 		"/>
	</g>
	<g opacity="0">
		<text transform="matrix(1 0 0 1 486.6426 353.1143)" fill="#040000" font-family="'ArialMT'" font-size="15">3</text>
		<rect x="419.572" y="323.818" fill="none" stroke="#000000" width="156.928" height="102.925"/>
	</g>
</g>
<g>
	<g>
		<path fill="#FFFFFF" stroke="#E60012" stroke-width="2.2454" d="M171.419,555.438c0,5.675-4.595,10.266-10.262,10.266
			c-5.672,0-10.267-4.59-10.267-10.266c0-5.671,4.595-10.266,10.267-10.266C166.825,545.172,171.419,549.767,171.419,555.438z"/>
		<rect x="174.515" y="535.22" fill="#E60012" width="88.93" height="37.041"/>
		<g>
			<g>
				<path fill="#FFFFFF" d="M196.598,551.408v-6.935c0-0.631-0.036-1.54-0.105-2.732h2.312c-0.071,1.332-0.105,2.207-0.105,2.627
					v7.041h12.715c0.91,0,1.892-0.034,2.942-0.105v2.102c-1.332-0.069-2.558-0.105-3.678-0.105h-6.095
					c0.489,1.402,1.243,2.768,2.259,4.098c1.015,1.332,2.223,2.435,3.625,3.31c1.401,0.876,2.662,1.489,3.783,1.839
					c-0.912,0.562-1.612,1.261-2.102,2.102c-1.471-0.772-2.837-1.681-4.098-2.732c-1.261-1.051-2.383-2.329-3.363-3.835
					c-0.982-1.506-1.717-3.1-2.207-4.781H198.7v8.301c2.031-1.261,3.397-2.207,4.098-2.837c0.489,0.772,0.98,1.471,1.471,2.102
					c-1.332,0.63-2.663,1.418-3.993,2.364c-1.332,0.945-2.312,1.733-2.942,2.364c-0.562-0.772-1.087-1.437-1.576-1.997
					c0.56-0.56,0.84-1.295,0.84-2.207V553.3h-2.417c-0.982,0-2.102,0.036-3.363,0.105v-2.102c1.261,0.071,2.312,0.105,3.152,0.105
					H196.598z M206.423,546.627c-1.507,1.507-2.995,2.96-4.466,4.361c-0.631-0.84-1.156-1.4-1.576-1.681
					c1.19-0.841,2.522-2.031,3.993-3.573c1.471-1.54,2.591-2.872,3.363-3.993c0.56,0.491,1.261,1.051,2.102,1.682
					C209.067,544.053,207.929,545.122,206.423,546.627z"/>
				<path fill="#FFFFFF" d="M220.767,544.368c0-0.98-0.036-1.891-0.105-2.732h2.312c-0.21,0.982-0.315,2.102-0.315,3.363v1.997
					c0.699,0,1.505-0.035,2.417-0.105v1.892c-0.84-0.069-1.646-0.105-2.417-0.105v3.888c0.35-0.42,0.665-0.77,0.945-1.051
					c1.051,1.332,1.997,2.769,2.837,4.309c-0.701,0.281-1.261,0.596-1.681,0.946c-0.701-1.401-1.402-2.627-2.102-3.678v8.407
					c0,1.261,0.034,2.627,0.105,4.098h-2.102c0.069-1.471,0.105-2.837,0.105-4.098v-6.725c-0.42,1.332-1.192,2.942-2.312,4.833
					c-0.281-0.63-0.735-1.261-1.366-1.892c0.91-1.19,1.681-2.679,2.312-4.466c0.631-1.786,1.015-3.31,1.156-4.571
					c-0.912,0-1.857,0.036-2.837,0.105v-1.892c1.051,0.071,2.065,0.105,3.047,0.105V544.368z M232.325,544.999
					c-0.21,2.243-0.491,4.168-0.84,5.779c-0.352,1.612-0.701,2.837-1.051,3.678c1.051,1.612,2.17,3.399,3.362,5.359
					c-0.63,0.352-1.227,0.806-1.786,1.366c-0.491-1.19-1.297-2.696-2.417-4.519c-0.491,1.051-1.069,2.12-1.734,3.205
					c-0.667,1.087-1.455,2.12-2.364,3.1c-0.63-0.56-1.261-1.015-1.892-1.366c1.12-0.91,2.066-1.96,2.837-3.152
					c0.77-1.19,1.4-2.417,1.892-3.678c-0.352-0.841-1.332-2.381-2.942-4.624c0.56-0.21,1.051-0.525,1.471-0.946
					c0.91,1.121,1.681,2.243,2.312,3.362c0.56-1.96,0.91-3.922,1.051-5.884h-2.312c-0.982,0-1.823,0.036-2.522,0.105v-1.892
					c0.63,0.071,1.471,0.105,2.522,0.105H232.325z M236.949,556.768c-0.911,0.42-1.507,0.771-1.786,1.051
					c-0.701-1.96-1.576-3.817-2.627-5.569c0.84-0.489,1.435-0.805,1.786-0.946C235.302,553.336,236.177,555.157,236.949,556.768z
					 M237.264,541.636h2.102c-0.07,1.051-0.105,2.874-0.105,5.464c0.699,0,1.471-0.069,2.312-0.21v1.997
					c-0.911-0.069-1.681-0.105-2.312-0.105v14.816c-0.071,0.699-0.352,1.208-0.841,1.523c-0.491,0.315-1.366,0.542-2.627,0.683
					c-0.141-0.771-0.457-1.542-0.946-2.312c1.051,0.069,1.75,0.052,2.102-0.053c0.35-0.105,0.489-0.578,0.42-1.418v-13.24
					c-2.033,0-3.538,0.036-4.519,0.105v-1.891c0.91,0.07,2.417,0.105,4.519,0.105C237.299,544.509,237.264,542.687,237.264,541.636z
					"/>
			</g>
		</g>
		<polygon fill="#00A0E9" points="187.925,526.827 162.973,516.907 162.973,516.438 160.609,516.438 160.609,556.908 
			162.973,556.908 162.973,537.729 		"/>
	</g>
	<g opacity="0">
		<text transform="matrix(1 0 0 1 207.272 515.4111)" fill="#040000" font-family="'ArialMT'" font-size="15">4</text>
		<rect x="128" y="485.479" fill="none" stroke="#000000" stroke-width="0.9423" width="139.343" height="102.925"/>
	</g>
</g>
<g>
	<g>
		<rect x="206.288" y="767.813" fill="#E60012" width="89.374" height="37.223"/>
		<path fill="#FFFFFF" stroke="#E60012" stroke-width="2.2566" d="M257.462,754.484c0,5.701-4.614,10.315-10.314,10.315
			c-5.698,0-10.317-4.614-10.317-10.315c0-5.697,4.619-10.314,10.317-10.314C252.848,744.17,257.462,748.787,257.462,754.484z"/>
		<g>
			<path fill="#FFFFFF" d="M230.886,778.975c-0.634,1.304-1.409,2.692-2.324,4.171h3.485c0.774-1.548,1.302-2.851,1.584-3.907
				c0.634,0.705,1.336,1.268,2.112,1.689c-0.493,0.354-1.074,1.109-1.742,2.271c-0.67,1.162-2.025,3.327-4.066,6.495
				c1.336-0.141,2.992-0.386,4.963-0.739c-0.071,0.775-0.142,1.409-0.211,1.901c-1.198,0.142-2.36,0.282-3.485,0.422
				c-1.127,0.142-2.359,0.354-3.696,0.634c-0.142-0.634-0.353-1.268-0.634-1.901c0.703-0.28,1.408-0.914,2.112-1.9
				c0.703-0.985,1.442-2.112,2.217-3.38c-0.986,0.071-1.795,0.143-2.429,0.212c-0.634,0.07-1.267,0.211-1.901,0.422
				c-0.211-0.702-0.458-1.372-0.739-2.006c0.774-0.563,1.548-1.706,2.323-3.433c0.774-1.725,1.373-3.467,1.795-5.228
				c0.774,0.564,1.548,1.021,2.323,1.373C232.083,776.704,231.52,777.673,230.886,778.975z M234.582,795.079
				c-0.845,0.211-1.954,0.512-3.326,0.897c-1.373,0.388-2.659,0.827-3.855,1.32c-0.211-0.704-0.493-1.407-0.845-2.112
				c1.548-0.211,2.886-0.457,4.013-0.739c1.125-0.28,2.429-0.633,3.907-1.056C234.477,794.094,234.511,794.657,234.582,795.079z
				 M240.813,781.562c-1.267,0-2.465,0.036-3.591,0.105v-1.9c1.056,0.142,2.218,0.211,3.485,0.211h5.597l0.211-2.534h-6.653
				c-1.267,0-2.429,0.036-3.485,0.105v-1.795c1.056,0.07,2.218,0.105,3.485,0.105h8.766c-0.282,2.323-0.528,5.068-0.739,8.237
				c0.774,0,1.689-0.035,2.746-0.105v1.9c-1.127-0.069-2.254-0.105-3.379-0.105h-3.591v1.9c0.492,1.057,0.985,1.866,1.479,2.43
				c0.422-0.281,0.898-0.669,1.426-1.162c0.528-0.491,1.144-1.056,1.848-1.689c0.422,0.564,0.914,1.198,1.479,1.9
				c-0.353,0.071-0.881,0.301-1.584,0.687c-0.705,0.388-1.479,0.897-2.323,1.531c0.563,0.775,1.214,1.515,1.954,2.218
				c0.739,0.705,1.742,1.232,3.01,1.584c-0.705,0.916-1.162,1.725-1.373,2.43c-1.689-1.128-2.888-2.165-3.59-3.116
				c-0.705-0.95-1.479-2.164-2.324-3.643v5.913c0,1.126-0.37,1.813-1.108,2.06c-0.739,0.246-1.497,0.439-2.271,0.581
				c-0.211-0.845-0.494-1.62-0.845-2.323c1.196,0,1.883-0.124,2.06-0.37c0.175-0.247,0.264-0.649,0.264-1.214v-3.485
				c-0.845,0.845-1.726,1.673-2.64,2.481c-0.916,0.811-1.937,1.603-3.063,2.377c-0.493-0.915-0.95-1.619-1.373-2.112
				c1.267-0.492,2.445-1.162,3.538-2.007c1.091-0.845,2.271-1.83,3.538-2.957v-4.013h-3.063c-1.127,0-2.359,0.036-3.696,0.105v-1.9
				c1.407,0.07,2.64,0.105,3.696,0.105h7.287l0.211-2.535H240.813z M239.862,790.327c-0.633,0.353-1.198,0.739-1.689,1.161
				c-0.494-0.984-1.162-2.006-2.006-3.063c0.563-0.422,1.125-0.809,1.689-1.161C238.137,787.687,238.807,788.708,239.862,790.327z"
				/>
			<path fill="#FFFFFF" d="M257.657,794.868c1.302-0.985,2.271-2.146,2.904-3.485h-3.485c-0.986,0-2.006,0.036-3.063,0.105v-1.795
				c1.056,0.071,2.076,0.105,3.063,0.105h6.442c-0.282,0.916-0.792,1.972-1.531,3.168c-0.739,1.198-1.673,2.271-2.798,3.222
				c-1.127,0.95-2.289,1.812-3.485,2.587c-0.282-0.775-0.951-1.373-2.007-1.795C255.034,796.558,256.354,795.854,257.657,794.868z
				 M266.475,787.159c0.634,1.549,1.548,2.922,2.746,4.118c1.901-1.056,3.414-2.182,4.541-3.379
				c0.422,0.634,1.056,1.304,1.901,2.006c-0.564,0.071-1.391,0.406-2.482,1.004c-1.092,0.599-2.024,1.145-2.798,1.637
				c0.845,1.056,1.812,1.919,2.904,2.587c1.091,0.67,2.551,1.146,4.383,1.426c-0.916,0.563-1.444,1.231-1.584,2.007
				c-1.761-0.564-3.416-1.444-4.963-2.641c-1.55-1.196-3.063-2.991-4.541-5.386v6.548c0,0.845-0.3,1.39-0.898,1.637
				c-0.599,0.246-1.531,0.476-2.798,0.687c-0.071-0.845-0.422-1.62-1.056-2.323c1.196,0,1.988-0.019,2.376-0.053
				c0.386-0.036,0.581-0.335,0.581-0.897v-8.977h-7.815c0.069-1.408,0.105-3.098,0.105-5.069c0-1.97-0.036-3.591-0.105-4.857h5.703
				c0.492-1.057,0.809-2.076,0.951-3.063c0.774,0.281,1.619,0.493,2.534,0.633c-0.564,0.705-1.056,1.515-1.478,2.43h9.821
				c-0.071,1.338-0.106,3.027-0.106,5.068c0,1.972,0.035,3.591,0.106,4.858H266.475z M272.6,781.351v-2.534h-13.517v2.534H272.6z
				 M272.6,785.575v-2.641h-13.517v2.641H272.6z"/>
		</g>
		<polygon fill="#1D2088" points="272.584,729.138 247.506,719.174 247.506,718.703 245.13,718.703 245.13,759.37 247.506,759.37 
			247.506,740.103 		"/>
	</g>
	<g>
		
			<text transform="matrix(1 0 0 1 282.8433 744.1699)" opacity="0" fill="#040000" enable-background="new    " font-family="'ArialMT'" font-size="15">5</text>
		<rect x="166.795" y="711.575" opacity="0" fill="none" stroke="#000000" width="156.928" height="102.925"/>
	</g>
</g>
<g>
	<g>
		<g>
			<polygon fill="#E60012" stroke="#E72922" stroke-width="1.3514" points="315.909,544.622 319.759,556.474 332.227,556.474 
				322.14,563.8 325.992,575.661 315.909,568.336 305.822,575.661 309.675,563.8 299.588,556.474 312.059,556.474 			"/>
		</g>
		<g>
			<path fill="#F39800" d="M458.009,442.926H275.518c-6.231,0-11.285,5.596-11.285,12.498v49.99c0,6.906,5.054,12.501,11.285,12.501
				h14.918l14.243,26.989l13.332-26.989h139.998c6.237,0,11.292-5.596,11.292-12.501v-49.99
				C469.301,448.521,464.246,442.926,458.009,442.926z"/>
			<path fill="#D2D0C1" d="M455.786,445.995h-177.49c-6.065,0-10.98,5.077-10.98,11.333v45.321c0,6.26,4.916,11.332,10.98,11.332
				h14.503l11.815,25.08l12.356-25.08h138.816c6.059,0,10.975-5.072,10.975-11.332v-45.321
				C466.761,451.071,461.845,445.995,455.786,445.995z"/>
		</g>
		<g>
			<path fill="#EA5514" d="M291.027,471.711c1.625-1.568,2.818-3.419,3.578-5.555l2.222,1.183c0.289,0.154,0.426,0.317,0.411,0.491
				c-0.014,0.173-0.176,0.342-0.483,0.505c-0.26,0.135-0.524,0.423-0.793,0.866c-0.058,0.106-0.149,0.265-0.274,0.476
				c-0.837,1.472-1.553,2.622-2.15,3.449C292.768,472.558,291.931,472.086,291.027,471.711z M292.094,454.656v-2.684
				c1.52,0.144,2.497,0.221,2.929,0.231h3.247c-0.683-0.741-1.539-1.549-2.568-2.424l1.861-1.746c0.51,0.423,1.51,1.313,3.001,2.669
				c0.212,0.192,0.371,0.336,0.477,0.433l-1.024,1.068h2.655c0.529-0.01,1.457-0.087,2.785-0.231v2.684
				c-1.366-0.144-2.294-0.221-2.785-0.23h-1.241l2.309,1.14c0.327,0.164,0.493,0.325,0.498,0.483s-0.151,0.334-0.469,0.527
				c-0.433,0.144-1.054,0.885-1.861,2.222h1.183c0.51-0.019,1.423-0.101,2.741-0.245v2.698c-1.212-0.145-2.135-0.226-2.77-0.245
				h-2.54v2.481h1.919c0.779-0.038,1.693-0.125,2.742-0.26v2.684c-1.059-0.106-1.991-0.173-2.799-0.202h-1.861v6.205
				c0.058,1.443-0.164,2.304-0.664,2.583c-0.414,0.395-1.673,0.668-3.78,0.823c-0.086-1.02-0.461-1.996-1.125-2.929
				c0.895,0.096,1.534,0.144,1.919,0.144c0.029,0,0.053,0,0.072,0c0.645,0.029,0.938-0.274,0.88-0.909v-5.916h-2.597
				c-0.991,0.039-1.958,0.106-2.9,0.202v-2.655c1.356,0.145,2.323,0.222,2.9,0.231h2.597v-2.481h-3.362
				c-0.847,0.019-1.785,0.091-2.814,0.216v-2.669c1.318,0.145,2.256,0.226,2.814,0.245h1.803c-0.779-0.961-1.606-1.861-2.481-2.698
				l2.005-1.645c0.067,0.077,0.173,0.192,0.317,0.346c1.087,1.145,1.977,2.102,2.669,2.871l-1.371,1.125h1.775
				c0.058-0.105,0.144-0.254,0.26-0.447c0.952-1.606,1.567-2.915,1.847-3.924h-6.262
				C294.677,454.426,293.701,454.502,292.094,454.656z M300.579,467.513l2.121-1.356c1.01,1.395,1.828,2.665,2.453,3.809
				l-2.309,1.414C302.276,470.042,301.521,468.753,300.579,467.513z M315.167,448.683l1.948,2.107
				c0.192,0.211,0.289,0.385,0.289,0.52c0,0.048-0.021,0.118-0.065,0.209c-0.043,0.092-0.252,0.123-0.628,0.094
				c-0.125-0.009-0.279-0.014-0.461-0.014c-0.616,0-1.222,0.091-1.818,0.274c-1.453,0.462-3.184,0.938-5.195,1.429v5.05h6.061
				c0.519-0.009,1.452-0.086,2.799-0.23v2.684c-1.26-0.135-2.193-0.211-2.799-0.231h-0.592v11.226
				c0.048,1.645,0.115,2.876,0.202,3.694h-3.074c0.106-1.453,0.173-2.703,0.202-3.751v-11.168h-2.799
				c0.039,4.06-0.207,6.917-0.736,8.571c-0.481,1.837-1.674,4.021-3.578,6.551c-0.635-0.712-1.496-1.333-2.583-1.861
				c1.731-1.529,2.857-3.198,3.376-5.007c0.567-1.741,0.842-4.641,0.822-8.701v-5.642c0.01-1.068-0.067-2.145-0.23-3.232
				c0.336,0.02,0.601,0.029,0.793,0.029c0.817,0,1.548-0.087,2.193-0.26C311.833,450.318,313.791,449.539,315.167,448.683z"/>
			<path fill="#EA5514" d="M323.982,456.316h0.938v-4.112c0-0.779-0.077-1.9-0.231-3.362l2.771,0.433
				c0.606,0.106,0.928,0.265,0.967,0.476c0.058,0.212-0.164,0.515-0.664,0.909c-0.125,0.058-0.188,0.572-0.188,1.544v4.112h1.01
				c0.789,0,1.717-0.101,2.785-0.303v2.785c-1.067-0.183-1.996-0.274-2.785-0.274h-1.01v7.214c1.019-0.375,2.294-0.928,3.823-1.659
				c-0.173,1.241-0.255,2.208-0.245,2.9c-4.252,1.51-7.373,2.79-9.364,3.838l-1.717-3.016c1.385-0.135,3.001-0.51,4.848-1.125
				v-8.152h-0.938c-0.702,0-1.611,0.091-2.727,0.274v-2.756C322.544,456.244,323.453,456.335,323.982,456.316z M338.166,461.539
				c-1.52,4.213-4.291,7.633-8.311,10.259c-0.731-0.779-1.636-1.409-2.713-1.89c3.723-1.462,6.411-4.251,8.066-8.369h-0.361
				c-0.722-0.009-1.664,0.197-2.828,0.621l-1.371-2.482c2.837-1.347,5.757-3.679,8.758-6.998h-5.209
				c-0.673-0.009-1.746,0.077-3.218,0.26v-2.742c1.395,0.183,2.468,0.27,3.218,0.26h6.984c0.875,0,2.212-0.105,4.011-0.317
				c-3.309,3.732-6.363,6.796-9.163,9.191h7.864c0.731-0.01,1.717-0.101,2.958-0.274c-0.221,1.125-0.341,2.083-0.361,2.872
				c-0.26,7.609-0.673,11.36-1.241,11.254c-0.539,1.145-2.467,1.775-5.786,1.89c-0.231-1-0.645-2.111-1.241-3.333
				c1.327,0.231,2.333,0.346,3.016,0.346c0.866,0,1.414-0.197,1.645-0.591c0.413,0.183,0.731-3.136,0.952-9.956h-1.602
				c-0.962,6.426-4.367,11.115-10.216,14.068c-0.635-0.664-1.525-1.352-2.669-2.063c5.762-1.809,9.143-5.81,10.144-12.005H338.166z"
				/>
			<path fill="#EA5514" d="M356.419,463.458c-1.27,1.347-2.626,2.597-4.069,3.751c-0.567-0.692-1.477-1.38-2.727-2.063
				c4.107-2.232,7.181-5.474,9.22-9.725h-5.166c-0.597,0.009-1.602,0.091-3.016,0.245v-2.698c1.587,0.164,2.583,0.245,2.987,0.245
				h6.118c0.77-2,1.164-3.646,1.183-4.935l3.275,0.793c0.375,0.106,0.549,0.279,0.52,0.52c-0.048,0.241-0.298,0.472-0.75,0.693
				c-0.299,0.096-0.559,0.49-0.779,1.183c-0.173,0.567-0.37,1.149-0.592,1.746h10.706c0.789-0.038,1.766-0.12,2.93-0.245v2.727
				c-1.261-0.154-2.236-0.245-2.93-0.274h-11.528c-0.789,1.645-1.578,3.093-2.366,4.343h4.083v-0.317
				c-0.038-1.154-0.12-2.289-0.245-3.405l3.175,0.39c0.433,0.067,0.673,0.212,0.721,0.433c0.029,0.23-0.144,0.49-0.52,0.779
				c-0.327,0.183-0.485,0.784-0.476,1.804v0.317h4.877c0.779-0.029,1.774-0.105,2.986-0.231c-0.125,1.059-0.201,1.991-0.23,2.799
				v5.887c0.067,1.78-0.24,2.842-0.924,3.189c-0.51,0.461-2.231,0.789-5.165,0.981c0.058-1.02-0.279-2.083-1.01-3.189
				c1.789,0.164,2.899,0.241,3.333,0.231c0.461,0,0.76-0.067,0.895-0.202c0.144-0.105,0.211-0.365,0.202-0.779v-6.464h-4.964v10.879
				c0.038,0.885,0.12,1.847,0.245,2.886h-3.146c0.135-1.048,0.217-2.001,0.245-2.857v-10.908h-4.43v7.864
				c0.039,0.799,0.116,1.712,0.231,2.742h-3.131c0.125-1.106,0.202-2.02,0.231-2.742V463.458z"/>
			<path fill="#EA5514" d="M404.915,474.006c-5.339-3.954-8.354-9.22-9.047-15.8c-0.202,0.481-0.438,1.02-0.707,1.616V470.5
				c1.23-1.058,2.337-2.155,3.318-3.29c0.23,1.01,0.572,1.987,1.024,2.929c-2.049,1.635-4.079,3.458-6.089,5.469
				c-0.481-0.953-1.131-1.65-1.948-2.092c0.395-0.404,0.664-0.763,0.809-1.075c0.144-0.313,0.211-0.705,0.201-1.176v-6.998
				c-1.298,1.789-2.659,3.362-4.083,4.718c-0.567-0.596-1.197-1.145-1.891-1.645v5.613c0,0.616,0.082,1.568,0.246,2.857h-3.146
				c0.153-1.125,0.235-2.087,0.245-2.886v-13.072c-0.5,0.817-1.429,1.972-2.785,3.463c-0.702-0.625-1.539-1.227-2.511-1.804
				c3.232-2.761,5.686-7.123,7.359-13.087l2.929,1.096c0.355,0.135,0.529,0.311,0.52,0.527s-0.202,0.411-0.577,0.584
				c-0.279,0.164-0.486,0.433-0.62,0.808c-0.52,1.375-1.073,2.693-1.66,3.953v11.139c3.367-2.76,5.724-6.185,7.07-10.273h-2.986
				c-0.924,0.01-1.968,0.097-3.131,0.26v-2.813c1.125,0.173,2.169,0.265,3.131,0.274h6.204c-1.327-1.356-2.568-2.448-3.723-3.275
				l1.861-2.136c2.068,1.665,3.573,2.972,4.517,3.925l-1.472,1.486h5.05c1.01-0.01,2.093-0.101,3.247-0.274v2.813
				c-1.193-0.163-2.275-0.25-3.247-0.26h-6.406c-0.115,0.279-0.27,0.684-0.462,1.212c-0.087,0.221-0.149,0.385-0.188,0.49
				c0.847,0,1.703-0.115,2.568-0.346c-0.048,1.549,0.255,3.223,0.909,5.021c1.347-1.587,2.399-3.155,3.16-4.704l2.539,1.746
				c0.298,0.212,0.447,0.404,0.447,0.577c0,0.039-0.015,0.113-0.043,0.224c-0.029,0.111-0.25,0.19-0.664,0.238
				c-0.346,0.029-0.659,0.226-0.938,0.591c-0.943,1.183-2.078,2.434-3.405,3.751c1.866,3.136,4.208,5.344,7.026,6.623
				C406.435,472.356,405.55,473.13,404.915,474.006z"/>
			<path fill="#EA5514" d="M424.205,448.365l2.757,1.097c0.558,0.222,0.837,0.438,0.837,0.649c0,0.212-0.279,0.418-0.837,0.621
				c-0.193-0.02-0.577,0.51-1.154,1.587l-0.447,0.793h7.474c0.683,0.01,1.611-0.067,2.785-0.23v2.756
				c-0.664-0.116-1.186-0.195-1.565-0.238c-0.381-0.043-0.787-0.065-1.22-0.065h-8.527c-0.549,0.991-1.448,2.343-2.698,4.055
				c-0.885-0.625-1.9-1.082-3.045-1.371c0.452-0.375,0.876-0.808,1.271-1.299c-0.789-0.096-1.366-0.144-1.731-0.144h-2.987v3.405
				h2.626c0.395,0.009,1.212-0.082,2.453-0.274c-0.048,0.847-0.115,2.271-0.202,4.271c-0.154,3.386-0.274,5.757-0.36,7.113
				c0.028,2.165-1.766,3.333-5.382,3.506c-0.029-0.904-0.424-1.938-1.184-3.102c1.231,0.25,2.068,0.38,2.511,0.39
				c0.962,0.019,1.457-0.404,1.486-1.27c0.211-2.722,0.336-5.531,0.375-8.426h-2.381c-0.192,5.223-1.621,9.566-4.285,13.029
				c-0.712-0.616-1.641-1.049-2.785-1.299c2.896-2.78,4.382-7.407,4.459-13.88v-3.463h-0.231c-0.51,0-1.385,0.077-2.626,0.23v-2.741
				c1.077,0.192,1.963,0.289,2.655,0.289h3.751c-1.222-1.616-2.386-2.886-3.491-3.81l2.049-1.774
				c1.183,1.077,2.529,2.506,4.04,4.285l-1.472,1.299h1.067c0.549,0.01,1.356-0.096,2.424-0.317v1.688
				C422.171,453.444,423.369,450.992,424.205,448.365z M423.499,464.641h3.188c0.135-0.856,0.207-2.116,0.216-3.78h-1.602
				c-0.423,0.837-1.149,1.929-2.179,3.275c-0.645-0.52-1.592-0.952-2.842-1.298c2.039-1.866,3.409-4.257,4.112-7.171l2.856,1.024
				c0.365,0.145,0.539,0.342,0.52,0.592c-0.038,0.23-0.26,0.399-0.664,0.505c-0.163,0.048-0.322,0.188-0.476,0.418
				c-0.125,0.211-0.212,0.38-0.26,0.505h5.497c0.625,0.02,1.539-0.082,2.741-0.303v2.712c-1.26-0.183-2.174-0.269-2.741-0.26h-2.193
				c-0.028,1.183-0.096,2.443-0.202,3.78h3.81c0.827,0.01,1.746-0.096,2.756-0.317v2.713c-1.347-0.164-2.274-0.24-2.784-0.231
				h-3.189c1.309,2.818,3.603,5.074,6.883,6.767c-1.174,0.442-2.049,1.14-2.626,2.092c-2.481-1.905-4.473-4.141-5.974-6.709
				c-0.895,2.443-3.256,4.8-7.085,7.07c-0.5-0.875-1.317-1.722-2.452-2.54c3.799-1.029,6.271-3.256,7.416-6.681h-2.641
				c-0.615-0.009-1.539,0.077-2.771,0.26v-2.684C422.085,464.564,422.979,464.651,423.499,464.641z"/>
			<path fill="#EA5514" d="M323.723,488.313c1.385,0.211,2.511,0.322,3.376,0.332h4.314v-1.342c-0.02-0.972-0.111-2.054-0.274-3.247
				l3.174,0.447c0.395,0.058,0.606,0.145,0.635,0.26c0.029,0.116,0.043,0.192,0.043,0.231c0,0.192-0.14,0.395-0.418,0.606
				c-0.308,0.183-0.457,0.75-0.447,1.703v1.342h5.801v-1.241c-0.02-0.972-0.111-2.059-0.274-3.261l3.16,0.448
				c0.404,0.058,0.62,0.144,0.649,0.259c0.029,0.116,0.043,0.193,0.043,0.231c0,0.193-0.14,0.395-0.418,0.606
				c-0.308,0.164-0.457,0.736-0.447,1.717v1.241h4.199c0.923-0.019,2.087-0.13,3.492-0.332v2.987
				c-1.414-0.202-2.578-0.313-3.492-0.332h-4.199v0.721c0,0.635,0.091,1.54,0.274,2.713h-3.261c0.173-1.164,0.265-2.068,0.274-2.713
				v-0.721h-5.801v0.75c0,0.703,0.091,1.626,0.274,2.771h-3.261c0.173-1.183,0.265-2.106,0.274-2.771v-0.75h-4.314
				c-0.827,0.01-1.953,0.12-3.376,0.332V488.313z M327.013,495.081c1.154,0.231,2.294,0.341,3.419,0.332h13.78
				c1.087-0.029,2.246-0.139,3.478-0.332c-0.202,1.212-0.308,2.386-0.317,3.521v8.888c0,1.039,0.086,2.136,0.259,3.29h-3.275
				c0.183-0.943,0.269-1.607,0.259-1.991h-14.587c-0.02,0.635,0.067,1.433,0.26,2.395h-3.218c0.154-0.943,0.24-2.034,0.26-3.275
				v-9.278C327.33,497.918,327.224,496.735,327.013,495.081z M330.028,497.678v3.318h5.873v-3.318H330.028z M335.901,506.551v-3.347
				h-5.873v3.347H335.901z M338.57,500.996h6.045v-3.318h-6.045V500.996z M338.57,503.204v3.347h6.045v-3.347H338.57z"/>
			<path fill="#EA5514" d="M368.049,483.826l2.756,1.097c0.558,0.222,0.837,0.438,0.837,0.649c0,0.212-0.279,0.418-0.837,0.621
				c-0.193-0.02-0.577,0.51-1.154,1.587l-0.447,0.793h7.474c0.683,0.01,1.611-0.067,2.785-0.23v2.756
				c-0.664-0.116-1.186-0.195-1.565-0.238c-0.381-0.043-0.787-0.065-1.22-0.065h-8.527c-0.549,0.991-1.448,2.343-2.698,4.055
				c-0.885-0.625-1.9-1.082-3.045-1.371c0.452-0.375,0.876-0.808,1.271-1.299c-0.789-0.096-1.366-0.144-1.731-0.144h-2.987v3.405
				h2.626c0.395,0.009,1.212-0.082,2.453-0.274c-0.048,0.847-0.115,2.271-0.202,4.271c-0.154,3.386-0.274,5.757-0.36,7.113
				c0.028,2.165-1.766,3.333-5.382,3.506c-0.029-0.904-0.423-1.938-1.183-3.102c1.231,0.25,2.068,0.38,2.511,0.39
				c0.962,0.019,1.457-0.404,1.486-1.27c0.211-2.722,0.336-5.531,0.375-8.426H358.9c-0.192,5.223-1.621,9.566-4.286,13.029
				c-0.712-0.616-1.64-1.049-2.785-1.299c2.896-2.78,4.381-7.407,4.458-13.88v-3.463h-0.23c-0.51,0-1.385,0.077-2.626,0.23v-2.741
				c1.077,0.192,1.962,0.289,2.655,0.289h3.751c-1.222-1.616-2.386-2.886-3.492-3.81l2.049-1.774c1.183,1.077,2.53,2.506,4.04,4.285
				l-1.472,1.299h1.067c0.549,0.01,1.356-0.096,2.424-0.317v1.688C366.014,488.905,367.212,486.452,368.049,483.826z
				 M367.342,500.102h3.188c0.135-0.856,0.207-2.116,0.216-3.78h-1.602c-0.423,0.837-1.149,1.929-2.179,3.275
				c-0.645-0.52-1.592-0.952-2.842-1.298c2.039-1.866,3.409-4.257,4.112-7.171l2.856,1.024c0.365,0.145,0.539,0.342,0.52,0.592
				c-0.038,0.23-0.26,0.399-0.664,0.505c-0.163,0.048-0.322,0.188-0.476,0.418c-0.125,0.211-0.212,0.38-0.26,0.505h5.497
				c0.625,0.02,1.539-0.082,2.741-0.303v2.712c-1.26-0.183-2.174-0.269-2.741-0.26h-2.193c-0.028,1.183-0.096,2.443-0.202,3.78h3.81
				c0.827,0.01,1.746-0.096,2.756-0.317v2.713c-1.347-0.164-2.274-0.24-2.784-0.231h-3.189c1.309,2.818,3.603,5.074,6.883,6.767
				c-1.174,0.442-2.049,1.14-2.626,2.092c-2.481-1.905-4.473-4.141-5.974-6.709c-0.895,2.443-3.256,4.8-7.085,7.07
				c-0.5-0.875-1.317-1.722-2.452-2.54c3.799-1.029,6.271-3.256,7.416-6.681h-2.641c-0.615-0.009-1.539,0.077-2.771,0.26v-2.684
				C365.928,500.025,366.822,500.111,367.342,500.102z"/>
			<path fill="#EA5514" d="M384.569,508.528c7.504-0.558,12.924-2.953,16.262-7.186c-6.676,0.279-11.033,0.702-13.072,1.27
				l-1.024-2.597c1.337-0.26,2.447-0.683,3.333-1.27c1.847-1.279,3.554-2.621,5.122-4.026c-3.357,0.135-5.834,0.332-7.431,0.592
				l-1.082-2.482c1-0.308,1.972-0.885,2.914-1.731c2.606-2.357,4.656-4.791,6.146-7.301l2.425,1.559
				c0.355,0.231,0.528,0.452,0.52,0.664c-0.029,0.212-0.231,0.356-0.606,0.433c-0.414,0.058-0.837,0.322-1.27,0.793
				c-1.761,1.953-3.603,3.775-5.526,5.468c2.164-0.067,4.232-0.115,6.204-0.144c1.414-1.404,2.684-2.929,3.81-4.574l2.641,1.732
				c0.24,0.173,0.36,0.341,0.36,0.505c0,0.058-0.033,0.151-0.101,0.281s-0.352,0.243-0.852,0.339
				c-0.365,0.048-0.789,0.337-1.27,0.866c-2.136,2.203-4.974,4.743-8.514,7.619c3.56-0.202,6.407-0.332,8.542-0.39
				c0.77-1.77,1.261-3.256,1.472-4.458l3.074,1.241c0.355,0.154,0.521,0.334,0.497,0.541c-0.023,0.207-0.237,0.411-0.642,0.613
				c-0.317,0.125-0.626,0.558-0.924,1.298c-2.222,6.945-8.465,11.36-18.729,13.246C386.445,510.534,385.686,509.567,384.569,508.528
				z"/>
		</g>
	</g>
	<g opacity="0">
		<text transform="matrix(1 0 0 1 364.1475 555.4375)" fill="#040000" font-family="'ArialMT'" font-size="15">0</text>
		<rect x="256.102" y="426.743" fill="none" stroke="#000000" stroke-width="1.4853" width="220.417" height="161.661"/>
	</g>
</g>
<g>
	<g>
		<rect x="110.038" y="958.829" fill="#E60012" width="88.657" height="36.918"/>
		<path fill="#FFFFFF" stroke="#E60012" stroke-width="2.2386" d="M161.999,945.037c0,5.655-4.583,10.236-10.236,10.236
			s-10.23-4.581-10.23-10.236c0-5.651,4.577-10.234,10.23-10.234S161.999,939.386,161.999,945.037z"/>
		<g>
			<g>
				<path fill="#FFFFFF" d="M142.441,982.165h9.848c-0.141,1.188-0.246,2.132-0.314,2.829c-0.07,0.698-0.209,1.397-0.419,2.095
					s-0.838,1.152-1.886,1.362c-1.047,0.209-2.341,0.383-3.876,0.523c-0.209-0.629-0.49-1.362-0.838-2.2
					c1.326,0.14,2.392,0.157,3.195,0.053c0.802-0.104,1.292-0.367,1.467-0.786c0.173-0.419,0.296-1.257,0.367-2.514h-7.962
					c-0.56,0.979-1.17,1.746-1.833,2.305c-0.665,0.56-1.45,1.063-2.357,1.519c-0.909,0.454-1.974,0.803-3.195,1.048
					c-1.223,0.244-2.567,0.506-4.034,0.786c-0.28-0.699-0.733-1.328-1.362-1.886c1.467-0.07,2.706-0.21,3.719-0.419
					c1.012-0.21,1.955-0.454,2.829-0.733c0.873-0.278,1.624-0.629,2.252-1.048c0.628-0.419,1.116-0.943,1.466-1.571h-4.19
					c-1.676,0-3.213,0.036-4.609,0.104v-1.571c1.535,0.07,3.072,0.104,4.609,0.104h4.714c0.069-0.487,0.105-1.082,0.105-1.781
					c1.187,0.142,2.164,0.246,2.933,0.314C142.719,981.188,142.51,981.678,142.441,982.165z M141.393,969.803
					c2.654-1.116,4.435-1.92,5.343-2.409h-11.524c-1.257,0-2.48,0.036-3.667,0.104v-1.78c1.187,0.07,2.269,0.104,3.248,0.104h16.552
					v1.467c-1.257,0.351-2.55,0.804-3.876,1.361c-1.328,0.561-2.585,1.152-3.771,1.781h7.962c-0.141,0.838-0.209,2.515-0.209,5.028
					c0,2.446,0.068,4.19,0.209,5.238h-2.41v-2.619h-6.705v1.781h-2.2v-1.781h-6.495v2.724h-2.305
					c0.069-1.047,0.105-2.828,0.105-5.343c0-2.514-0.036-4.19-0.105-5.028h7.857c-0.56-0.419-1.118-0.907-1.676-1.467
					c0.419-0.349,0.873-0.663,1.362-0.942C140.066,968.721,140.833,969.315,141.393,969.803z M140.346,973.574v-1.886h-6.495v1.886
					H140.346z M140.346,976.718v-1.781h-6.495v1.781H140.346z M149.355,973.574v-1.886h-6.809v1.886H149.355z M149.355,976.718
					v-1.781h-6.809v1.781H149.355z"/>
				<path fill="#FFFFFF" d="M161.613,974.937c-0.56,0.56-0.979,1.293-1.257,2.2c-1.467-1.048-3.038-1.92-4.714-2.619
					c0.419-0.697,0.768-1.362,1.048-1.99C158.434,973.226,160.076,974.029,161.613,974.937z M161.089,984.155
					c-0.838,2.026-1.503,3.735-1.991,5.134c-0.838-0.489-1.817-0.943-2.933-1.362c0.768-0.769,1.658-2.182,2.671-4.242
					c1.012-2.06,1.692-3.684,2.043-4.872c0.838,0.561,1.676,0.979,2.514,1.258C162.694,980.769,161.927,982.131,161.089,984.155z
					 M163.289,968.441c-0.56,0.629-1.047,1.293-1.466,1.99c-1.467-1.257-2.865-2.269-4.19-3.038
					c0.349-0.419,0.733-1.012,1.152-1.781C160.39,966.521,161.891,967.464,163.289,968.441z M173.975,967.498
					c1.535,0,3.107-0.068,4.714-0.209v2.305c-1.607-0.069-3.108-0.104-4.505-0.104h-1.781v16.133h2.409
					c1.606,0,3.353-0.034,5.238-0.104v2.2c-1.886-0.07-3.632-0.105-5.238-0.105h-6.6c-1.607,0-3.422,0.035-5.447,0.105v-2.2
					c2.025,0.07,3.84,0.104,5.447,0.104h1.991v-16.133h-1.152c-1.537,0-3.143,0.035-4.819,0.104v-2.2
					c1.745,0.07,3.353,0.104,4.819,0.104H173.975z"/>
			</g>
		</g>
		<polygon fill="#00A0E9" points="176.833,916.173 151.954,906.283 151.954,905.815 149.594,905.815 149.594,946.158 
			151.954,946.158 151.954,927.042 		"/>
	</g>
	<g opacity="0">
		<text transform="matrix(1 0 0 1 215.0674 917.3525)" fill="#040000" font-family="'ArialMT'" font-size="15">6</text>
		<rect x="78.929" y="900.575" fill="none" stroke="#000000" width="156.928" height="102.925"/>
	</g>
</g>
 
</svg>