<svg version="1.0" id="图层_1" xmlns="http://www.w3.org/2000/svg" xmlns:xlink="http://www.w3.org/1999/xlink" x="0px" y="0px" 
	width="100%" height="100%" viewBox="0 0 720 1280" xml:space="preserve"
  style="position: relative;display: block;"
  >
  
<g>
	<path opacity="0.6" fill="#FFFFFF" stroke="#00A0E9" stroke-width="5.0423" d="M695.677,466.867l-4.024-7.056
		c0,0,1.006-2.015,0-5.04c-1.004-3.023,4.024-17.133,4.024-17.133l8.676-25.205v-10.088l-8.671-9.83c0,0-3.771,0.753-11.314,0
		c-7.543-0.758-42.243,14.366-42.243,14.366s-47.525-3.78-40.736-24.953c0,0-5.278-21.166,29.422-39.31
		c0,0,30.928-18.144,32.433-24.194c1.511-6.047-4.288-14.363-4.288-14.363s-7.778-5.292-10.039-5.292
		c-2.264,0-9.053-5.292-9.053-5.292h-4.527h-4.525h-9.053l-9.807,6.047l-15.841-6.047c0,0-8.297-5.292-9.805-7.561
		c-1.513-2.266,0-5.291-5.281-7.559c-5.279-2.266-5.279-2.266-5.279-2.266s-9.809,1.51-12.069,0c-2.265-1.516-15.843,0-15.843,0
		s-4.523-2.104-7.545-0.674c-3.014,1.426-8.298-0.841-13.578-5.378c-5.279-4.534-9.804-8.314-10.56-10.58
		c-0.754-2.272-15.088,0-29.42,0c-14.33,0-7.542-19.659-19.611-23.441c-12.071-3.778-11.314-7.56-11.314-7.56h-5.281l-8.298-6.803
		l-7.544-6.049l-3.769-5.292l-6.794,6.805c0,0-3.894,8.332-7.541,10.583c-1.104,0.679-2.364,1.436-3.651,2.239
		c-0.049,1.75-0.318,3.807-1.01,6.077c-2.147,7.059,2.147,2.017-0.87,8.065c-3.019,6.05,3.018,8.062,0,12.095
		c-3.019,4.036-8.046,9.073-12.072,13.105c-4.02,4.034-12.066,2.016-15.085,1.01c-3.016-1.01-9.055-9.076-11.062-13.107
		c-2.012-4.027-10.06-10.076-10.06-10.076s-15.086-17.141-17.097-23.188c-2.014-6.049-5.03-10.08-11.064-19.152
		c-6.035-9.07-7.043-6.047-7.043-6.047s-9.049,3.024-12.066,5.039c-3.018,2.012-10.058,7.057-17.1,12.095
		c-7.041,5.04-6.033,8.065-21.591,12.601c-15.558,4.537-13.611,21.675-13.611,21.675s7.041,6.045,11.276,14.11
		c4.235,8.064,1.8,7.056-0.211,10.082c-2.012,3.022,1.006,8.063,0,11.089c-1.006,3.023-7.042,19.151-7.042,19.151s0,0-4.023,5.545
		c-4.022,5.547-4.022,4.536-7.04,6.553c-3.018,2.013-12.068,12.096-14.082,15.121c-2.011,3.021-1.005,5.038-7.039,12.096
		c-6.035,7.057,0,7.057,0,7.057s-8.047,15.119-11.065,21.167c-3.015,6.047,0,0-1.004,6.047c-1.007,6.049-6.038,16.131-6.038,16.131
		s-4.024,5.04-6.034,8.065c-2.01,3.024-4.582,7.053-4.582,7.053s-10.501,7.055-16.539,13.106c-6.033,6.047-6.033,5.038-7.041,11.087
		c-1.005,6.046-1.005,13.104-1.005,16.127c0,3.025,14.083,9.073,14.083,9.073l10.056,6.047c0,0,1.004,6.051,0,16.129
		c-1.006,10.08,0,0-5.813,10.082c-5.811,10.081-2.234,6.047-2.234,6.047s5.029,13.109,0,16.129
		c-5.031,3.025-8.046,4.031-13.404,6.048c-5.358,2.015-13.752,2.013-24.817,10.083c-11.062,8.06,0,0-2.009,6.045
		c-2.014,6.047-3.019,12.095-3.019,12.095s-4.023,12.098-5.192,13.105c-1.17,1.009-5.871,6.046-8.889,9.071
		c-3.016,3.025-10.058,7.057-10.058,7.057l-4.024,14.112h11.066c0,0,10.056,0,16.092,0c6.032,0,4.023,2.014,7.039,6.049
		c3.019,4.03,5.028-1.007,8.048,0c3.017,1.008,12.068,5.039,15.085,6.05c3.016,1.006-5.03,12.598-5.03,12.598
		s-9.052,17.642-14.079,18.652c-5.031,1.007,0,0-5.031,1.005c-5.029,1.004-8.046,4.034-8.046,4.034h-22.125l-15.087,6.045
		c0,0-7.044,2.018-15.09,0c-8.047-2.014-8.046,0-11.064,0c-3.017,0-9.053-3.021-13.075-5.039c-4.025-2.02-6.036-6.047-9.052-7.055
		c-3.016-1.007-5.029-6.048-7.041-9.073c-2.01-3.025-1.005-7.055-1.005-13.103c0-6.05-5.029-5.043-5.029-5.043l-8.046-9.07
		l-11.063-10.08l-6.037-9.07l-8.047,16.123c0,0-6.271,0.093-9.049,5.797c-0.503,4.791-8.045,11.343-8.045,11.343
		s1.005,2.771,3.508,3.275c2.506,0.504,0.014,12.6,0.014,12.6c-0.505,12.35,15.965,16.632,15.965,16.632
		c15.842,0,14.71,7.056,14.71,7.056c-0.377,7.559-20.998,18.65-20.998,18.65c-3.268,6.425-0.061,15.878,0.883,15.309
		c0.943-0.566,8.11-3.781,12.634-2.078c4.525,1.701,9.43,3.59,9.43,3.59c0.021,0.19,0.05,0.372,0.087,0.555
		c1.202,6.008,10.096,5.118,10.096,5.118c10.937,0,28.663-16.446,28.663-16.446s1.699,0.189,3.018,1.893
		c1.32,1.697,0.377,12.283,0.377,12.283C78.634,712.88,64.3,716.66,62.979,717.038c-1.318,0.376-5.091,0.563-6.977,2.077
		s5.283,4.16,5.283,4.16c6.411,4.913-4.149,6.802-4.149,6.802v6.805l5.278,1.515l3.774,1.888l5.28,1.893
		c9.052,0.754,10.183-7.183,10.183-7.183s0-11.342,0-12.476s2.641-6.048,2.641-6.048c6.41-6.049,18.859-1.134,18.859-1.134
		c14.332,1.514,19.234-3.024,19.234-3.024c32.061-32.509,68.645-47.63,68.645-47.63v-13.23c3.394-13.231,9.054-7.938,9.054-7.938
		s3.77,4.536,6.787,5.291c3.019,0.757,3.396-1.511,3.396-1.511l3.394-4.157c0,0,0,0,8.298,0c8.298,0,13.954-1.135,15.838-1.135
		c1.888,0,3.021,4.537,3.021,4.537l4.149,2.646c10.183,1.134,5.657,3.782,5.657,3.782v9.07l5.279-0.38
		c15.087,0,21.875-4.535,21.875-4.535s1.89,1.89,3.398,6.424c1.506,4.538,6.786,1.511,6.786,1.511s2.265-1.131,4.526-4.534
		c2.264-3.4,4.902-2.646,8.297-2.646c3.397,0,7.543,0.38,12.447,0.38c4.904,0,13.579-9.072,15.086-10.964
		c1.51-1.89,1.132-8.316,3.396-8.693c2.264-0.381,3.393-1.514,8.297-4.16c4.904-2.646,7.922-11.341,10.939-12.478
		c3.015-1.13,10.183-0.752,10.183-0.752c8.676-7.939,23.763-14.743,26.401-13.989c2.641,0.759,5.28,0.38,18.859-0.754
		c13.578-1.135,13.578-4.159,13.578-4.159s2.265-0.378,3.394,6.049c1.133,6.425,7.547,15.875,17.349,16.634
		c9.809,0.754,9.809-7.185,9.809-7.185l6.035,0.379c0,0,5.028,1.135,6.787,0.88c1.76-0.25,2.765,0.507,2.765,3.531
		c0,3.025-6.534,11.843-7.038,14.363c-0.503,2.518,1.258,5.545,3.271,8.313c2.013,2.774,8.046,8.065,14.834,9.582
		c6.787,1.512,11.065,4.031,13.325,5.037c2.264,1.008,1.006,5.797,1.006,5.797c10.561,7.812,20.62,4.287,20.62,4.287
		c14.08-3.528,18.354-33.517,18.354-33.517s-0.253-5.043-0.754-13.61c-0.504-8.569,6.288-12.601,19.363-21.926
		c13.073-9.323,13.828-16.379,13.578-17.135c-0.254-0.757-1.763-4.033-5.533-5.795c-3.771-1.764-5.031-9.579-5.031-9.579
		c2.768-12.853,12.07-10.585,16.096-8.818c4.021,1.762,6.784,0.503,10.309,0.25c3.52-0.251,5.782-5.544,4.777-10.078
		c-1.005-4.54,32.689-26.965,32.689-26.965s4.273,0.752,9.806-1.008c5.531-1.763,9.554-20.666,9.554-20.666
		c7.292,1.515,20.368-7.307,20.368-7.307l5.783-4.536c0,0,4.022-0.253,4.777-0.253s5.28-0.505,5.28-0.505s3.27-1.509,4.022-1.509
		c0.755,0,5.28,0.505,6.033,0.505c0.756,0,3.776-2.522,4.276-3.279c0.503-0.757,5.03-3.782,5.03-3.782l4.775-1.762
		c0,0,3.018,1.762,4.274,3.024c1.258,1.261,2.767,4.03,7.041,3.027c4.275-1.013,10.187,1.131,10.187,1.131l-12.451-10.951
		L695.677,466.867z"/>
	
		<text transform="matrix(1 0 0 1 644.2402 438.0933)" opacity="0" fill="#040000" enable-background="new    " font-family="'SimHei'" font-size="20">轮廓</text>
</g>
<circle fill="#FFFFFF" stroke="#E60012" stroke-width="1.1103" cx="266.77" cy="357.291" r="5.075"/>
<g>
	<g>
		<rect x="277.701" y="342.583" fill="#E60012" width="59.072" height="24.6"/>
		<g>
			<path fill="#FFFFFF" d="M292.758,347.142h1.466c-0.047,0.745-0.07,2.071-0.07,3.979c0.698,0,1.396-0.023,2.094-0.07v1.257
				c-0.698-0.046-1.396-0.07-2.094-0.07v2.513c0.14-0.186,0.395-0.442,0.768-0.768c0.512,0.652,1.21,1.675,2.094,3.071
				c-0.279,0.233-0.628,0.488-1.047,0.768c-0.466-0.883-1.071-1.815-1.815-2.792v5.235c0,0.931,0.023,1.93,0.07,3.001h-1.466
				c0.046-1.117,0.07-2.117,0.07-3.001v-4.677c-0.513,1.35-1.234,2.722-2.164,4.118c-0.326-0.464-0.698-0.791-1.117-0.977
				c0.883-1.117,1.593-2.374,2.129-3.77c0.534-1.396,0.826-2.304,0.873-2.722c-0.792,0-1.605,0.024-2.443,0.07v-1.257
				c0.838,0.047,1.745,0.07,2.723,0.07C292.828,349.213,292.804,347.887,292.758,347.142z M299.389,349.794
				c-0.187,0.698-0.501,1.652-0.942,2.862c-0.443,1.211-0.896,2.118-1.361,2.723c-0.373-0.232-0.792-0.419-1.256-0.559
				c0.559-0.744,1.07-1.756,1.536-3.037c0.465-1.279,0.791-2.57,0.977-3.874c0.465,0.233,0.978,0.396,1.536,0.489
				C299.738,348.632,299.575,349.097,299.389,349.794z M299.982,357.194c-0.536,1.396-1.059,2.652-1.571,3.769l4.886-0.488
				c-0.233-0.604-0.675-1.536-1.326-2.792c0.325-0.093,0.744-0.279,1.256-0.558c0.419,0.698,0.873,1.56,1.361,2.583
				c0.489,1.024,0.873,1.885,1.152,2.583c-0.466,0.232-0.908,0.464-1.326,0.698c-0.233-0.559-0.443-1.047-0.628-1.466
				c-2.281,0.232-3.828,0.43-4.642,0.593c-0.814,0.163-1.408,0.36-1.78,0.593c-0.233-0.558-0.536-1.071-0.907-1.536
				c0.372-0.185,0.733-0.593,1.082-1.222c0.349-0.628,0.756-1.616,1.222-2.966c0.465-1.349,0.721-2.419,0.768-3.211
				c0.698,0.279,1.326,0.513,1.885,0.698C300.995,354.89,300.517,355.797,299.982,357.194z M303.333,350.841
				c0.674,1.49,1.686,2.607,3.037,3.351c-0.698,0.233-1.164,0.605-1.396,1.117c-0.698-0.559-1.303-1.222-1.815-1.99
				c-0.512-0.768-0.954-1.581-1.326-2.443c-0.373-0.86-0.675-1.965-0.907-3.316c0.464-0.092,0.907-0.185,1.326-0.279
				C302.297,348.166,302.658,349.353,303.333,350.841z"/>
			<path fill="#FFFFFF" d="M310.418,349.166c0-0.698-0.024-1.372-0.07-2.024h1.605c-0.047,0.558-0.07,1.233-0.07,2.024v1.745
				c0.698,0,1.466-0.022,2.304-0.07v1.257c-0.838-0.046-1.605-0.07-2.304-0.07v2.373c0.325-0.232,0.698-0.441,1.117-0.628
				c0.279,0.418,0.744,1.21,1.396,2.373c-0.373,0.187-0.814,0.443-1.326,0.768c-0.233-0.604-0.628-1.372-1.187-2.304v5.445
				c0,0.977,0.023,1.955,0.07,2.932h-1.605c0.046-1.024,0.07-2,0.07-2.932v-4.747c-0.419,1.256-1.024,2.537-1.815,3.839
				c-0.14-0.232-0.466-0.744-0.977-1.536c0.464-0.558,0.918-1.244,1.361-2.059c0.442-0.813,0.873-1.989,1.292-3.525
				c-0.792,0-1.56,0.024-2.304,0.07v-1.257c0.931,0.047,1.745,0.07,2.443,0.07V349.166z M315.095,350.841
				c0.512,0.047,1.047,0.07,1.605,0.07h1.256v-2.094c0-0.651-0.047-1.232-0.14-1.745h1.605c-0.047,0.279-0.069,0.884-0.069,1.815
				v2.024h2.094c0.698,0,1.372-0.045,2.024-0.139v1.326c-0.605-0.046-1.233-0.07-1.885-0.07h-2.024
				c0.325,1.071,0.698,1.955,1.117,2.652c0.418,0.698,0.849,1.303,1.291,1.815c0.442,0.513,0.873,0.908,1.292,1.187
				c0.419,0.279,0.744,0.489,0.978,0.628c-0.233,0.279-0.443,0.523-0.628,0.733c-0.187,0.209-0.373,0.454-0.559,0.733
				c-1.21-1.117-2.094-2.14-2.652-3.071c-0.559-0.883-0.908-1.605-1.047-2.164v6.143c0,0.698,0.022,1.466,0.069,2.303h-1.536
				c0.046-1.024,0.07-1.791,0.07-2.303v-6.143c-0.652,1.536-1.256,2.77-1.815,3.7c-0.558,0.932-1.047,1.605-1.466,2.024
				c-0.418-0.325-0.884-0.651-1.396-0.978c0.604-0.558,1.152-1.187,1.641-1.884c0.488-0.698,0.942-1.431,1.361-2.199
				c0.419-0.768,0.861-1.826,1.327-3.176h-0.838c-0.559,0-1.117,0.024-1.675,0.07V350.841z"/>
		</g>
		<polygon fill="#1D2088" points="284.209,336.953 267.633,330.365 267.633,330.051 266.063,330.051 266.063,356.934 
			267.633,356.934 267.633,344.202 		"/>
	</g>
	<g opacity="0">
		<text transform="matrix(1 0 0 1 297.9043 333.7729)" fill="#040000" font-family="'ArialMT'" font-size="15">1</text>
		<rect x="251.891" y="307.543" fill="none" stroke="#040000" stroke-width="0.5849" width="107.991" height="79.059"/>
	</g>
</g>
<g>
	<g>
		<path fill="#FFFFFF" stroke="#E60012" stroke-width="1.4662" d="M552.605,321.053c0,3.701-2.999,6.701-6.704,6.701
			c-3.7,0-6.7-3-6.7-6.701s3-6.704,6.7-6.704C549.606,314.349,552.605,317.352,552.605,321.053z"/>
		<rect x="505.551" y="333.088" fill="#E60012" width="78.31" height="24.189"/>
		<g>
			<g>
				<path fill="#FFFFFF" d="M512.93,338.512c0-0.731-0.023-1.372-0.068-1.921h1.304c-0.046,0.412-0.068,0.938-0.068,1.578v1.99
					c0.687,0,1.28-0.022,1.784-0.069v1.167c-0.596-0.045-1.19-0.068-1.784-0.068v2.95c0.365-0.137,0.914-0.388,1.646-0.755
					c0,0.412,0.068,0.778,0.206,1.098c-0.504,0.229-1.121,0.504-1.853,0.823v4.94c0,0.777-0.195,1.28-0.583,1.51
					c-0.39,0.229-1.041,0.434-1.956,0.618c-0.137-0.687-0.32-1.19-0.549-1.51c0.594,0.045,1.063,0.022,1.407-0.068
					c0.343-0.092,0.514-0.366,0.514-0.824v-4.186c-0.641,0.275-1.234,0.549-1.783,0.824c-0.184-0.412-0.39-0.824-0.618-1.235
					c0.595-0.137,1.396-0.412,2.401-0.823v-3.362c-1.053,0-1.807,0.023-2.264,0.068v-1.167c0.503,0.046,1.258,0.069,2.264,0.069
					V338.512z M525.692,340.159c0,0.96,0.022,1.739,0.068,2.333h-4.048v1.441h1.853c0.594,0,1.188-0.022,1.784-0.068v1.098
					c-0.687-0.045-1.281-0.068-1.784-0.068h-1.853v1.715h2.538c0.869,0,1.647-0.022,2.333-0.069v1.098
					c-0.641-0.045-1.44-0.069-2.401-0.069h-3.911c0.274,0.229,0.549,0.435,0.823,0.618c-0.503,0.274-0.938,0.595-1.303,0.96
					l-1.647,1.51c1.784-0.138,3.75-0.297,5.901-0.48c-0.367-0.549-0.801-1.121-1.304-1.715c0.365-0.182,0.73-0.412,1.098-0.686
					c1.143,1.509,2.013,2.744,2.607,3.705c-0.458,0.182-0.869,0.412-1.235,0.686c-0.229-0.412-0.436-0.755-0.617-1.029
					c-2.745,0.229-4.587,0.388-5.523,0.48c-0.938,0.091-1.796,0.228-2.573,0.412c-0.184-0.595-0.366-1.053-0.549-1.372
					c0.549-0.091,1.166-0.457,1.853-1.098c0.687-0.64,1.258-1.304,1.716-1.99h-1.304c-0.961,0-1.83,0.023-2.607,0.069v-1.098
					c0.823,0.046,1.691,0.069,2.607,0.069h2.264v-1.715h-1.578c-0.732,0-1.396,0.023-1.989,0.068v-1.098
					c0.64,0.046,1.304,0.068,1.989,0.068h1.578v-1.441h-3.842c0.045-0.549,0.068-1.326,0.068-2.333c0-1.006-0.023-1.807-0.068-2.402
					h9.125C525.715,338.353,525.692,339.153,525.692,340.159z M519.242,341.6v-2.813h-1.44v2.813H519.242z M521.919,341.6v-2.813
					h-1.578v2.813H521.919z M524.526,341.6v-2.813h-1.51v2.813H524.526z"/>
				<path fill="#FFFFFF" d="M536.945,349.971c0,0.687,0.022,1.417,0.068,2.196h-1.578c0.045-0.778,0.069-1.509,0.069-2.196v-3.362
					c-0.367,0.686-0.904,1.361-1.613,2.024c-0.709,0.664-1.418,1.225-2.127,1.681s-1.567,0.937-2.572,1.441
					c-0.229-0.458-0.573-0.938-1.029-1.441c0.686-0.137,1.646-0.525,2.882-1.167c1.234-0.64,2.332-1.646,3.293-3.019h-3.705
					c-0.732,0-1.51,0.023-2.333,0.069v-1.235c0.731,0.046,1.51,0.069,2.333,0.069h4.872c0-0.777-0.024-1.486-0.069-2.127h1.647
					c-0.093,0.549-0.138,1.258-0.138,2.127h5.077c0.687,0,1.464-0.022,2.333-0.069v1.235c-0.869-0.045-1.646-0.069-2.333-0.069
					h-3.773c0.274,0.458,0.64,0.916,1.098,1.373c0.457,0.458,0.902,0.835,1.338,1.132c0.435,0.298,0.949,0.573,1.544,0.823
					c0.594,0.252,1.326,0.47,2.195,0.652c-0.641,0.594-1.006,1.121-1.098,1.578c-0.778-0.32-1.499-0.675-2.161-1.063
					c-0.664-0.388-1.235-0.8-1.716-1.235c-0.479-0.434-0.938-0.915-1.372-1.441c-0.435-0.525-0.813-1.086-1.132-1.681V349.971z
					 M531.765,341.703c0.571-0.388,0.915-0.777,1.029-1.166c0.114-0.388,0.183-0.926,0.206-1.613
					c0.022-0.686,0.011-1.395-0.034-2.127h6.724c-0.046,0.823-0.068,1.51-0.068,2.059v1.99c-0.046,0.732,0.4,1.075,1.338,1.029
					c0.938-0.045,1.863-0.114,2.779-0.206c-0.138,0.504-0.206,1.007-0.206,1.51h-1.853c-0.595,0-1.315-0.011-2.161-0.035
					c-0.848-0.022-1.27-0.583-1.27-1.681v-3.5h-3.843c0,1.007-0.046,1.83-0.137,2.47c-0.093,0.641-0.309,1.178-0.652,1.612
					c-0.343,0.436-0.778,0.801-1.304,1.098c-0.526,0.298-1.293,0.583-2.298,0.858c-0.274-0.594-0.596-1.098-0.961-1.51
					C530.29,342.354,531.192,342.092,531.765,341.703z"/>
				<path fill="#FFFFFF" d="M553.446,338.135c-0.023,0.618-0.08,1.43-0.172,2.436h5.558c0.824,0,1.647-0.045,2.471-0.137v1.372
					c-0.823-0.045-1.646-0.068-2.471-0.068h-3.361v6.244c0.549-0.64,1.098-1.36,1.646-2.161c0.549-0.8,0.983-1.612,1.304-2.436
					c0.594,0.274,1.166,0.504,1.715,0.686c-0.641,0.641-1.281,1.465-1.921,2.47c-0.641,1.007-1.533,2.014-2.676,3.019
					c-0.046,0.778,0.011,1.189,0.172,1.235c0.159,0.045,0.422,0.091,0.789,0.137h2.195c0.549-0.046,0.937-0.092,1.166-0.137
					c0.229-0.046,0.435-0.64,0.618-1.784c0.456,0.458,0.982,0.732,1.578,0.823c-0.458,1.006-0.801,1.623-1.029,1.853
					c-0.229,0.229-0.618,0.343-1.167,0.343h-4.048c-0.732,0-1.19-0.103-1.372-0.309c-0.184-0.206-0.274-0.629-0.274-1.27
					c-0.274,0.229-0.698,0.503-1.27,0.823c-0.572,0.32-1.063,0.594-1.476,0.823c-0.137-0.274-0.48-0.641-1.029-1.098
					c0.641-0.229,1.326-0.549,2.059-0.96c0.731-0.412,1.304-0.8,1.716-1.167v-7.136h-0.961c-0.229,1.327-0.48,2.401-0.755,3.225
					s-0.617,1.612-1.029,2.367c-0.411,0.755-0.938,1.51-1.578,2.264c-0.641,0.755-1.533,1.613-2.676,2.573
					c0-0.274-0.436-0.664-1.304-1.167c0.777-0.412,1.498-0.949,2.161-1.612c0.663-0.663,1.258-1.383,1.784-2.162
					c0.525-0.777,0.949-1.623,1.27-2.539c0.319-0.915,0.549-1.897,0.687-2.95h-2.677c-0.823,0-1.67,0.023-2.538,0.068v-1.304
					c0.914,0.046,1.76,0.069,2.538,0.069h2.882c0.045-0.549,0.08-1.211,0.104-1.99c0.022-0.777-0.012-1.578-0.104-2.402
					c0.961,0.229,1.578,0.367,1.853,0.412C553.594,337.003,553.469,337.518,553.446,338.135z M557.803,340.09
					c-0.457-0.686-1.075-1.441-1.853-2.264c0.32-0.229,0.663-0.525,1.029-0.892c0.595,0.549,1.235,1.281,1.922,2.196
					C558.672,339.313,558.306,339.634,557.803,340.09z"/>
				<path fill="#FFFFFF" d="M566.792,343.178c-0.367,0.367-0.664,0.754-0.892,1.167c-0.642-0.594-1.51-1.258-2.607-1.99
					c0.365-0.365,0.686-0.731,0.96-1.098C565.214,341.898,566.06,342.538,566.792,343.178z M566.312,348.77
					c-0.458,1.075-0.892,2.115-1.304,3.122c-0.366-0.367-0.847-0.686-1.44-0.96c0.456-0.457,0.937-1.235,1.44-2.333
					c0.503-1.098,0.983-2.218,1.441-3.362c0.319,0.367,0.662,0.687,1.029,0.961C567.157,346.838,566.769,347.696,566.312,348.77z
					 M567.135,338.512c-0.411,0.367-0.732,0.755-0.96,1.167c-0.596-0.64-1.351-1.349-2.265-2.127
					c0.319-0.366,0.617-0.731,0.892-1.098C565.763,337.277,566.54,337.963,567.135,338.512z M576.741,336.591
					c1.005,0,1.875-0.022,2.607-0.069v1.167c-0.732-0.045-1.578-0.069-2.539-0.069h-1.372v1.51h3.225
					c-0.046,0.504-0.068,1.098-0.068,1.784c0,0.641,0.022,1.235,0.068,1.784H567.89c0.045-0.594,0.068-1.189,0.068-1.784
					c0-0.64-0.023-1.235-0.068-1.784h3.362v-1.51h-1.372c-0.823,0-1.671,0.024-2.539,0.069v-1.167
					c0.868,0.046,1.691,0.069,2.47,0.069H576.741z M578.045,345.991c0,0.96,0.022,1.715,0.068,2.264h-4.048v1.167h2.47
					c0.961,0,1.897-0.022,2.813-0.068v1.098c-0.87-0.045-1.784-0.069-2.745-0.069h-2.538c0,0.687,0.022,1.373,0.068,2.059h-1.235
					c0.045-0.686,0.068-1.372,0.068-2.059h-1.783c-1.373,0-2.563,0.024-3.568,0.069v-1.098c1.006,0.046,2.195,0.068,3.568,0.068
					h1.783v-1.167h-4.254c0.045-0.686,0.068-1.463,0.068-2.333c0-0.869-0.023-1.647-0.068-2.333h9.4
					C578.067,344.185,578.045,344.986,578.045,345.991z M571.252,341.737v-1.647h-2.059v1.647H571.252z M576.878,345.442v-0.96
					h-6.998v0.96H576.878z M576.878,347.363v-0.96h-6.998v0.96H576.878z M574.202,339.13v-1.51h-1.784v1.51H574.202z
					 M574.202,341.737v-1.647h-1.784v1.647H574.202z M577.496,341.737v-1.647h-2.059v1.647H577.496z"/>
			</g>
		</g>
		<polygon fill="#74C6BE" stroke="#000000" stroke-width="2.9323" points="561.757,302.497 545.463,296.022 545.463,295.717 
			543.916,295.717 543.916,322.136 545.463,322.136 545.463,309.62 		"/>
	</g>
	<g opacity="0">
		<text transform="matrix(1 0 0 1 539.7949 376.5615)" fill="#040000" font-family="'ArialMT'" font-size="15">2</text>
		<rect x="488.674" y="289" fill="none" stroke="#040000" stroke-width="0.6362" width="110.993" height="91"/>
	</g>
</g>
<g>
	<g>
		<g>
			<polygon fill="#E60012" stroke="#E72922" stroke-width="1.1214" points="289.167,541.415 292.368,551.254 302.714,551.254 
				294.34,557.34 297.549,567.179 289.167,561.101 280.804,567.179 284.001,557.34 275.638,551.254 285.973,551.254 			"/>
		</g>
		<g>
			<g>
				<path fill="#DD4422" d="M408.696,460.981h-139.71c-4.772,0-8.643,4.282-8.643,9.564v38.276c0,5.283,3.871,9.567,8.643,9.567
					h11.419l10.904,20.664l10.206-20.664h107.182c4.776,0,8.646-4.284,8.646-9.567v-38.276
					C417.342,465.263,413.473,460.981,408.696,460.981z"/>
				<path fill="#E76E43" d="M406.996,463.332H271.109c-4.641,0-8.405,3.883-8.405,8.672v34.7c0,4.788,3.764,8.671,8.405,8.671
					h11.104l9.047,19.202l9.458-19.202h106.278c4.638,0,8.4-3.883,8.4-8.671v-34.7C415.396,467.214,411.634,463.332,406.996,463.332
					z"/>
			</g>
			<g>
				<path fill="#FFFFFF" d="M301.49,475.141c-0.936-0.125-1.797-0.191-2.585-0.199h-9.39c-0.302,0.53-0.645,1.123-1.027,1.778
					c-0.147,0.25-0.262,0.45-0.342,0.597h7.909c0.648-0.007,1.487-0.077,2.519-0.21c-0.14,0.781-0.21,1.55-0.21,2.309v4.43
					c0,0.648,0.07,1.374,0.21,2.176h-2.563c0.133-0.574,0.21-1.156,0.232-1.745h-8.351c0.029,0.604,0.088,1.186,0.177,1.745h-2.574
					c0.125-0.803,0.191-1.517,0.199-2.143v-3.711c-1.016,0.884-2.154,1.72-3.413,2.507c-0.597-0.648-1.337-1.208-2.221-1.679
					c2.917-0.714,5.262-2.732,7.037-6.054h-3.568c-0.766,0-1.62,0.066-2.563,0.199v-2.132c0.862,0.155,1.701,0.232,2.519,0.232
					h15.421c1.031,0,1.893-0.084,2.585-0.254V475.141z M285.517,468.381v1.259h4.551v-2.121c-0.007-1.001-0.092-1.848-0.254-2.541
					l2.529,0.364c0.354,0.044,0.543,0.138,0.569,0.282c0.025,0.144-0.109,0.33-0.403,0.558c-0.265,0.125-0.387,0.571-0.365,1.336
					v2.121h4.64v-1.282c-0.015-0.618-0.092-1.329-0.232-2.132l2.563,0.365c0.324,0.044,0.5,0.144,0.53,0.298
					c0.015,0.154-0.125,0.328-0.419,0.519c-0.272,0.14-0.401,0.457-0.387,0.95v1.061c0,0.663,0.077,1.385,0.232,2.166
					c-0.913-0.162-1.768-0.243-2.563-0.243h-10.671c-0.744-0.007-1.598,0.066-2.563,0.221c0.066-0.419,0.114-0.813,0.144-1.182
					c0.029-0.339,0.044-0.722,0.044-1.149v-0.851c-0.015-0.508-0.084-1.249-0.21-2.221l2.419,0.365
					c0.309,0.044,0.475,0.138,0.497,0.282s-0.103,0.326-0.375,0.547C285.594,467.471,285.502,467.814,285.517,468.381z
					 M287.825,482.653h8.417v-3.689h-8.417V482.653z"/>
				<path fill="#FFFFFF" d="M306.87,478.29c-0.125,2.526-0.839,4.989-2.143,7.39c-0.634-0.368-1.374-0.637-2.221-0.807
					c0.92-1.134,1.539-2.438,1.856-3.91c0.354-1.495,0.526-3.679,0.519-6.551v-5.634c-0.022-0.619-0.081-1.326-0.177-2.121
					c0.788,0.104,1.543,0.17,2.265,0.199h2.143c0.707-0.029,1.484-0.096,2.331-0.199c-0.096,1.171-0.147,1.904-0.155,2.199v14.184
					c0.037,1.164-0.14,1.856-0.53,2.077c-0.302,0.302-1.296,0.497-2.982,0.585c-0.052-0.641-0.347-1.455-0.884-2.441
					c0.125,0.022,0.298,0.052,0.519,0.088c0.898,0.162,1.399,0.239,1.502,0.232c0.265,0.044,0.383-0.221,0.354-0.795v-4.496H306.87z
					 M306.87,468.513v3.436h2.397v-3.436H306.87z M306.87,473.606v3.026h2.397v-3.026H306.87z M313.752,472.402h0.795v-2.397h-0.431
					c-0.39,0.015-1.093,0.082-2.11,0.199v-2.055c0.825,0.11,1.528,0.18,2.11,0.209h0.431v-0.453
					c-0.015-0.398-0.078-1.215-0.188-2.452l2.198,0.298c0.375,0.059,0.58,0.183,0.613,0.37c0.033,0.188-0.12,0.396-0.458,0.624
					c-0.125,0.022-0.184,0.453-0.177,1.292v0.32h2.165v-0.641c-0.022-0.633-0.081-1.439-0.177-2.419l2.198,0.298
					c0.42,0.051,0.637,0.147,0.652,0.287c0.029,0.14-0.129,0.375-0.475,0.707c-0.14,0.081-0.206,0.512-0.199,1.292v0.475h0.475
					c0.663-0.037,1.37-0.106,2.121-0.209v2.055c-0.987-0.118-1.687-0.184-2.099-0.199H320.7v2.397h1.359
					c0.722-0.029,1.428-0.096,2.121-0.199v2.055c-1.09-0.118-1.797-0.184-2.121-0.199h-8.307c-0.346,0.007-1.064,0.074-2.154,0.199
					v-2.055C312.43,472.313,313.148,472.379,313.752,472.402z M313.122,475.097c1.024,0.118,1.823,0.184,2.397,0.199h4.606
					c0.692-0.029,1.476-0.096,2.353-0.199c-0.096,0.898-0.154,1.62-0.177,2.165v6.252c0.022,0.574,0.081,1.322,0.177,2.242h-2.419
					c0.096-0.464,0.166-0.917,0.21-1.358h-4.938c0.015,0.316,0.077,0.828,0.188,1.535h-2.397c0.103-0.92,0.162-1.683,0.177-2.287
					v-6.33C313.299,477.097,313.24,476.356,313.122,475.097z M320.27,478.941v-1.989h-4.938v1.989H320.27z M315.332,480.598v2.165
					h4.938v-2.165H315.332z M316.536,470.004v2.397h2.165v-2.397H316.536z"/>
				<path fill="#FFFFFF" d="M330.918,476.699c-0.972,1.031-2.011,1.988-3.115,2.872c-0.435-0.53-1.13-1.057-2.088-1.58
					c3.145-1.708,5.498-4.19,7.059-7.445h-3.955c-0.457,0.007-1.226,0.07-2.309,0.188v-2.066c1.215,0.125,1.978,0.188,2.287,0.188
					h4.684c0.589-1.532,0.891-2.791,0.906-3.778l2.507,0.608c0.287,0.081,0.42,0.213,0.398,0.397
					c-0.037,0.184-0.229,0.361-0.575,0.53c-0.228,0.074-0.427,0.375-0.596,0.906c-0.133,0.435-0.284,0.88-0.453,1.337h8.196
					c0.604-0.03,1.352-0.092,2.243-0.188v2.088c-0.965-0.118-1.712-0.188-2.243-0.21h-8.826c-0.604,1.259-1.208,2.368-1.812,3.325
					h3.126v-0.243c-0.03-0.884-0.092-1.752-0.188-2.607l2.43,0.298c0.332,0.051,0.516,0.162,0.552,0.331
					c0.022,0.177-0.11,0.375-0.397,0.597c-0.25,0.14-0.372,0.6-0.365,1.381v0.243h3.734c0.597-0.022,1.359-0.081,2.287-0.177
					c-0.096,0.81-0.155,1.524-0.177,2.143v4.507c0.051,1.362-0.184,2.176-0.707,2.441c-0.39,0.354-1.708,0.604-3.955,0.751
					c0.044-0.78-0.214-1.594-0.773-2.441c1.37,0.125,2.221,0.184,2.552,0.177c0.354,0,0.582-0.051,0.685-0.155
					c0.11-0.081,0.162-0.28,0.155-0.596v-4.949h-3.8v8.329c0.029,0.677,0.092,1.414,0.188,2.209h-2.408
					c0.103-0.803,0.166-1.532,0.188-2.187v-8.351h-3.392v6.02c0.029,0.611,0.088,1.311,0.177,2.099h-2.397
					c0.096-0.847,0.155-1.547,0.177-2.099V476.699z"/>
				<path fill="#FFFFFF" d="M368.046,484.774c-4.088-3.027-6.396-7.059-6.927-12.096c-0.154,0.369-0.335,0.781-0.541,1.237v8.174
					c0.942-0.81,1.789-1.649,2.541-2.519c0.177,0.773,0.438,1.521,0.784,2.243c-1.568,1.252-3.123,2.647-4.662,4.187
					c-0.369-0.729-0.866-1.263-1.492-1.602c0.302-0.31,0.508-0.584,0.619-0.823c0.111-0.239,0.162-0.54,0.155-0.9v-5.357
					c-0.994,1.37-2.036,2.574-3.126,3.612c-0.435-0.457-0.917-0.876-1.447-1.259v4.297c0,0.471,0.063,1.2,0.188,2.188h-2.408
					c0.118-0.862,0.18-1.598,0.188-2.209v-10.008c-0.383,0.626-1.093,1.51-2.132,2.651c-0.538-0.479-1.178-0.939-1.922-1.381
					c2.475-2.114,4.353-5.453,5.634-10.019l2.243,0.839c0.272,0.103,0.405,0.237,0.397,0.403c-0.007,0.166-0.154,0.314-0.442,0.447
					c-0.213,0.125-0.372,0.332-0.475,0.619c-0.398,1.053-0.821,2.062-1.271,3.027v8.528c2.578-2.114,4.382-4.735,5.413-7.865h-2.287
					c-0.707,0.007-1.506,0.074-2.397,0.199v-2.154c0.862,0.132,1.661,0.203,2.397,0.21h4.75c-1.016-1.039-1.966-1.875-2.85-2.508
					l1.425-1.635c1.583,1.274,2.735,2.275,3.458,3.004l-1.127,1.138h3.866c0.773-0.007,1.602-0.078,2.485-0.21v2.154
					c-0.913-0.125-1.742-0.191-2.485-0.199h-4.905c-0.088,0.214-0.206,0.523-0.353,0.928c-0.066,0.17-0.115,0.295-0.145,0.376
					c0.648,0,1.304-0.088,1.967-0.265c-0.037,1.186,0.195,2.467,0.696,3.844c1.03-1.215,1.837-2.416,2.419-3.602l1.944,1.337
					c0.228,0.162,0.342,0.309,0.342,0.442c0,0.029-0.011,0.086-0.033,0.171c-0.021,0.085-0.191,0.146-0.508,0.183
					c-0.265,0.022-0.505,0.173-0.718,0.453c-0.722,0.906-1.591,1.863-2.607,2.872c1.429,2.401,3.222,4.091,5.38,5.07
					C369.209,483.511,368.531,484.104,368.046,484.774z"/>
				<path fill="#FFFFFF" d="M382.815,465.144l2.109,0.839c0.427,0.17,0.641,0.335,0.641,0.498c0,0.162-0.214,0.32-0.641,0.475
					c-0.147-0.015-0.441,0.391-0.884,1.215l-0.342,0.607h5.722c0.522,0.007,1.233-0.051,2.132-0.177v2.11
					c-0.508-0.088-0.907-0.149-1.198-0.182s-0.603-0.05-0.934-0.05h-6.528c-0.42,0.759-1.108,1.793-2.066,3.104
					c-0.677-0.479-1.454-0.828-2.33-1.049c0.346-0.287,0.67-0.619,0.972-0.994c-0.604-0.074-1.046-0.11-1.325-0.11h-2.287v2.607
					h2.011c0.302,0.007,0.928-0.063,1.878-0.21c-0.037,0.648-0.089,1.738-0.154,3.27c-0.118,2.592-0.21,4.407-0.276,5.446
					c0.021,1.657-1.352,2.552-4.12,2.684c-0.022-0.692-0.324-1.484-0.906-2.375c0.942,0.191,1.583,0.291,1.922,0.298
					c0.736,0.015,1.116-0.309,1.138-0.972c0.162-2.084,0.258-4.234,0.287-6.451h-1.822c-0.147,3.999-1.241,7.324-3.281,9.975
					c-0.545-0.471-1.255-0.803-2.132-0.994c2.217-2.128,3.354-5.67,3.414-10.627v-2.651h-0.177c-0.391,0-1.061,0.059-2.011,0.177
					v-2.099c0.824,0.147,1.502,0.221,2.032,0.221h2.872c-0.936-1.237-1.826-2.209-2.673-2.917l1.568-1.358
					c0.906,0.825,1.937,1.918,3.093,3.281l-1.126,0.994h0.817c0.419,0.007,1.038-0.074,1.855-0.243v1.292
					C381.258,469.033,382.175,467.155,382.815,465.144z M382.273,477.604h2.441c0.104-0.655,0.158-1.62,0.166-2.894h-1.227
					c-0.324,0.641-0.88,1.477-1.668,2.507c-0.493-0.397-1.219-0.729-2.176-0.994c1.561-1.429,2.61-3.259,3.148-5.49l2.187,0.784
					c0.28,0.11,0.413,0.261,0.398,0.453c-0.03,0.177-0.199,0.306-0.509,0.387c-0.125,0.037-0.247,0.144-0.364,0.32
					c-0.096,0.162-0.162,0.291-0.199,0.387h4.209c0.479,0.015,1.179-0.063,2.099-0.232v2.077c-0.965-0.14-1.664-0.206-2.099-0.199
					h-1.679c-0.022,0.906-0.074,1.871-0.155,2.894h2.917c0.633,0.007,1.336-0.073,2.109-0.243v2.077
					c-1.031-0.125-1.741-0.184-2.132-0.177H387.3c1.002,2.158,2.758,3.884,5.27,5.181c-0.898,0.339-1.568,0.873-2.011,1.602
					c-1.9-1.458-3.425-3.17-4.573-5.137c-0.685,1.87-2.493,3.674-5.424,5.413c-0.383-0.67-1.009-1.318-1.878-1.944
					c2.909-0.788,4.802-2.493,5.678-5.114h-2.021c-0.472-0.007-1.178,0.059-2.121,0.199v-2.055
					C381.191,477.546,381.876,477.612,382.273,477.604z"/>
				<path fill="#FFFFFF" d="M305.887,495.728c1.061,0.162,1.922,0.247,2.585,0.254h3.303v-1.027
					c-0.015-0.744-0.084-1.572-0.21-2.485l2.43,0.342c0.302,0.044,0.464,0.111,0.486,0.199s0.033,0.147,0.033,0.177
					c0,0.147-0.107,0.302-0.32,0.464c-0.236,0.14-0.35,0.574-0.343,1.303v1.027h4.441v-0.95c-0.015-0.744-0.085-1.576-0.21-2.497
					l2.419,0.342c0.309,0.044,0.475,0.11,0.497,0.199c0.022,0.088,0.033,0.147,0.033,0.177c0,0.147-0.106,0.302-0.32,0.464
					c-0.235,0.125-0.35,0.563-0.342,1.314v0.95h3.214c0.707-0.015,1.598-0.099,2.673-0.254v2.287
					c-1.083-0.155-1.974-0.239-2.673-0.254h-3.214v0.552c0,0.486,0.07,1.178,0.21,2.077h-2.497c0.133-0.891,0.203-1.583,0.21-2.077
					v-0.552h-4.441v0.574c0,0.538,0.07,1.245,0.21,2.121h-2.497c0.133-0.906,0.203-1.613,0.21-2.121v-0.574h-3.303
					c-0.634,0.007-1.495,0.092-2.585,0.254V495.728z M308.405,500.908c0.884,0.177,1.756,0.262,2.618,0.254h10.549
					c0.832-0.022,1.719-0.107,2.662-0.254c-0.154,0.928-0.236,1.827-0.243,2.695v6.805c0,0.795,0.066,1.635,0.199,2.519h-2.508
					c0.14-0.722,0.206-1.23,0.199-1.524h-11.168c-0.015,0.486,0.052,1.097,0.199,1.833h-2.463c0.118-0.722,0.184-1.558,0.199-2.507
					v-7.103C308.648,503.081,308.567,502.175,308.405,500.908z M310.714,502.897v2.541h4.496v-2.541H310.714z M315.21,509.69v-2.563
					h-4.496v2.563H315.21z M317.253,505.438h4.628v-2.541h-4.628V505.438z M317.253,507.127v2.563h4.628v-2.563H317.253z"/>
				<path fill="#FFFFFF" d="M339.821,492.292l2.11,0.839c0.427,0.17,0.641,0.335,0.641,0.498c0,0.162-0.213,0.32-0.641,0.475
					c-0.147-0.015-0.442,0.391-0.884,1.215l-0.342,0.607h5.722c0.523,0.007,1.233-0.051,2.132-0.177v2.11
					c-0.508-0.088-0.908-0.149-1.198-0.182c-0.291-0.033-0.602-0.05-0.934-0.05h-6.528c-0.42,0.759-1.109,1.793-2.066,3.104
					c-0.678-0.479-1.455-0.828-2.331-1.049c0.346-0.287,0.67-0.619,0.972-0.994c-0.604-0.074-1.046-0.11-1.326-0.11h-2.287v2.607
					h2.011c0.302,0.007,0.928-0.063,1.878-0.21c-0.037,0.648-0.088,1.738-0.155,3.27c-0.118,2.592-0.21,4.407-0.276,5.446
					c0.022,1.657-1.352,2.552-4.121,2.684c-0.022-0.692-0.324-1.484-0.906-2.375c0.942,0.191,1.583,0.291,1.922,0.298
					c0.736,0.015,1.116-0.309,1.138-0.972c0.162-2.084,0.257-4.234,0.287-6.451h-1.823c-0.147,3.999-1.241,7.324-3.281,9.975
					c-0.545-0.471-1.256-0.803-2.132-0.994c2.217-2.128,3.354-5.67,3.414-10.627v-2.651h-0.177c-0.39,0-1.061,0.059-2.01,0.177
					v-2.099c0.825,0.147,1.502,0.221,2.032,0.221h2.872c-0.935-1.237-1.826-2.209-2.673-2.917l1.568-1.358
					c0.906,0.825,1.937,1.918,3.093,3.281l-1.127,0.994h0.817c0.42,0.007,1.039-0.074,1.856-0.243v1.292
					C338.264,496.181,339.181,494.303,339.821,492.292z M339.28,504.752h2.441c0.103-0.655,0.159-1.62,0.166-2.894h-1.226
					c-0.324,0.641-0.88,1.477-1.668,2.507c-0.493-0.397-1.219-0.729-2.176-0.994c1.561-1.429,2.61-3.259,3.148-5.49l2.188,0.784
					c0.28,0.11,0.412,0.261,0.397,0.453c-0.029,0.177-0.199,0.306-0.508,0.387c-0.125,0.037-0.247,0.144-0.364,0.32
					c-0.096,0.162-0.162,0.291-0.199,0.387h4.208c0.479,0.015,1.178-0.063,2.099-0.232v2.077c-0.965-0.14-1.665-0.206-2.099-0.199
					h-1.679c-0.022,0.906-0.074,1.871-0.154,2.894h2.916c0.633,0.007,1.337-0.073,2.11-0.243v2.077
					c-1.031-0.125-1.742-0.184-2.132-0.177h-2.441c1.001,2.158,2.758,3.884,5.27,5.181c-0.899,0.339-1.569,0.873-2.011,1.602
					c-1.9-1.458-3.424-3.17-4.573-5.137c-0.685,1.87-2.493,3.674-5.424,5.413c-0.383-0.67-1.009-1.318-1.878-1.944
					c2.909-0.788,4.801-2.493,5.678-5.114h-2.021c-0.471-0.007-1.178,0.059-2.121,0.199v-2.055
					C338.198,504.694,338.882,504.76,339.28,504.752z"/>
				<path fill="#FFFFFF" d="M352.47,511.204c5.744-0.427,9.895-2.261,12.449-5.501c-5.11,0.213-8.447,0.538-10.008,0.972
					l-0.784-1.988c1.023-0.199,1.874-0.523,2.552-0.972c1.414-0.979,2.721-2.007,3.921-3.082c-2.57,0.103-4.467,0.254-5.689,0.453
					l-0.829-1.9c0.766-0.235,1.51-0.677,2.231-1.326c1.996-1.804,3.564-3.667,4.706-5.589l1.856,1.193
					c0.272,0.177,0.404,0.346,0.397,0.508c-0.022,0.162-0.177,0.272-0.464,0.332c-0.316,0.044-0.641,0.247-0.973,0.607
					c-1.347,1.495-2.758,2.891-4.23,4.187c1.657-0.051,3.24-0.088,4.75-0.11c1.083-1.075,2.055-2.243,2.916-3.502l2.021,1.326
					c0.185,0.133,0.276,0.262,0.276,0.387c0,0.044-0.025,0.116-0.077,0.215s-0.269,0.186-0.651,0.26
					c-0.28,0.037-0.604,0.258-0.973,0.663c-1.635,1.687-3.808,3.631-6.517,5.833c2.724-0.155,4.905-0.254,6.54-0.298
					c0.589-1.355,0.965-2.493,1.127-3.413l2.353,0.95c0.272,0.118,0.399,0.256,0.381,0.415s-0.182,0.315-0.491,0.469
					c-0.243,0.096-0.479,0.427-0.707,0.994c-1.701,5.317-6.48,8.697-14.338,10.141C353.906,512.739,353.324,511.999,352.47,511.204z
					"/>
			</g>
		</g>
	</g>
	<g opacity="0">
		<text transform="matrix(1 0 0 1 338.4902 562.8247)" fill="#040000" font-family="'ArialMT'" font-size="15">0</text>
		<rect x="248" y="441.049" fill="none" stroke="#040000" stroke-width="0.966" width="179.667" height="129.618"/>
	</g>
</g>
<g>
	<g>
		<path fill="#FFFFFF" stroke="#E60012" stroke-width="1.7054" d="M235.436,610.547c0,4.307-3.487,7.795-7.794,7.795
			c-4.303,0-7.797-3.488-7.797-7.795c0-4.308,3.494-7.794,7.797-7.794C231.949,602.753,235.436,606.239,235.436,610.547z"/>
		<rect x="198.523" y="620.667" fill="#E60012" width="67.54" height="28.129"/>
		<g>
			<g>
				<path fill="#FFFFFF" d="M221.221,626.874c0.745,0,1.623-0.026,2.634-0.08v1.357c-1.065-0.052-2.049-0.08-2.953-0.08
					c0.319,0.692,0.585,1.304,0.798,1.835c-0.746,0.054-1.305,0.133-1.676,0.239c-0.16-0.584-0.373-1.277-0.638-2.075h-1.197
					c-0.373,0.319-0.718,0.666-1.038,1.037c-0.319,0.373-0.639,0.772-0.958,1.197c-0.479-0.266-0.958-0.505-1.437-0.718
					c0.584-0.531,1.157-1.157,1.716-1.875s1.05-1.529,1.477-2.434c0.584,0.213,1.197,0.399,1.835,0.559
					c-0.373,0.319-0.666,0.666-0.878,1.038H221.221z M225.052,630.705h3.911c0.958,0,1.916-0.026,2.873-0.08v1.277
					c-0.905-0.052-1.756-0.08-2.554-0.08h-4.23v1.117h3.352c0.85,0,1.648-0.026,2.394-0.08v1.197
					c-0.692-0.052-1.464-0.08-2.314-0.08h-3.432v1.038h5.826c1.01,0,1.941-0.026,2.793-0.08v1.197
					c-0.852-0.052-1.783-0.08-2.793-0.08h-13.329c-0.319,0-1.25,0.027-2.793,0.08v-1.197c1.437,0.054,2.314,0.08,2.633,0.08h6.066
					v-1.038h-3.033c-0.213,0-1.091,0.027-2.634,0.08v-1.197c1.542,0.054,2.394,0.08,2.554,0.08h3.113v-1.117h-3.512
					c-0.373,0-1.411,0.027-3.113,0.08v-1.277c1.649,0.054,2.66,0.08,3.033,0.08h3.592c0-0.16-0.028-0.505-0.08-1.038h1.756
					C225.078,630.146,225.052,630.492,225.052,630.705z M229.282,642.596v-0.878h-9.737v2.475h-1.596
					c0.052-1.225,0.08-1.916,0.08-2.075v-3.113c0-0.531-0.027-1.25-0.08-2.155h12.849c-0.054,0.852-0.08,1.57-0.08,2.155v3.432
					c0,0.639-0.187,1.09-0.559,1.356c-0.373,0.266-1.197,0.451-2.474,0.559c-0.054-0.586-0.24-1.091-0.559-1.516
					C228.456,642.836,229.174,642.756,229.282,642.596z M229.282,638.845v-0.878h-9.737v0.878H229.282z M229.282,640.681v-0.798
					h-9.737v0.798H229.282z M230.08,626.714c0.479,0,1.33-0.026,2.554-0.08v1.356c-1.277-0.052-2.289-0.08-3.033-0.08
					c0.212,0.426,0.559,1.038,1.038,1.835c-0.586,0.054-1.117,0.16-1.596,0.319c-0.267-0.639-0.586-1.357-0.958-2.155h-1.596
					c-0.427,0.532-0.826,1.065-1.197,1.596c-0.586-0.212-1.091-0.372-1.517-0.479c0.531-0.531,1.01-1.117,1.437-1.756
					c0.425-0.638,0.798-1.303,1.117-1.995c0.479,0.213,1.01,0.373,1.596,0.479c-0.319,0.319-0.586,0.638-0.798,0.958H230.08z"/>
				<path fill="#FFFFFF" d="M251.628,631.981v8.38c0,0.958,0.026,1.995,0.08,3.112h-1.676v-1.676h-10.774v1.676h-1.676
					c0.052-0.905,0.08-1.941,0.08-3.112v-8.38c0-1.277-0.027-2.474-0.08-3.592h14.126
					C251.654,629.507,251.628,630.705,251.628,631.981z M250.032,640.441v-10.695h-10.774v10.695H250.032z"/>
			</g>
		</g>
		<polygon fill="#74C6BE" stroke="#000000" stroke-width="3.4108" points="246.917,587.129 227.963,579.598 227.963,579.24 
			226.166,579.24 226.166,609.972 227.963,609.972 227.963,595.413 		"/>
	</g>
	<g opacity="0">
		<text transform="matrix(1 0 0 1 260.3433 599.7964)" fill="#040000" font-family="'ArialMT'" font-size="15">7</text>
		<rect x="193" y="573.661" fill="none" stroke="#040000" stroke-width="0.5253" width="82.638" height="83.339"/>
	</g>
</g>
<g>
	<g>
		<circle fill="#FFFFFF" stroke="#E60012" stroke-width="1.5194" cx="514.684" cy="579.957" r="6.946"/>
		<rect x="485.728" y="589.763" fill="#E60012" width="60.176" height="25.061"/>
		<g>
			<g>
				<path fill="#FFFFFF" d="M497.267,599.545c0.047-1.659,0.06-2.773,0.036-3.342c-0.024-0.569-0.061-1.113-0.106-1.635
					c0.568,0.095,1.208,0.167,1.92,0.213c-0.143,0.475-0.249,1.163-0.32,2.063c-0.071,0.901-0.106,1.802-0.106,2.702h3.626
					c1.28,0,2.465-0.047,3.556-0.143v1.564c-0.949-0.046-1.92-0.071-2.915-0.071h-4.195c0.188,0.807,0.521,1.625,0.995,2.454
					c0.474,0.83,0.96,1.564,1.458,2.204c0.497,0.64,1.184,1.315,2.062,2.027c0.877,0.711,1.837,1.304,2.88,1.777
					c-0.38,0.285-0.759,0.758-1.138,1.422c-0.854-0.475-1.695-1.067-2.524-1.778c-0.83-0.711-1.659-1.646-2.488-2.809
					c-0.83-1.161-1.458-2.24-1.885-3.235c-0.38,1.043-0.782,1.909-1.209,2.595c-0.426,0.688-0.889,1.315-1.386,1.884
					c-0.498,0.569-1.139,1.138-1.92,1.707c-0.782,0.569-1.672,1.138-2.667,1.707c-0.38-0.569-0.807-1.066-1.28-1.493
					c0.996-0.331,1.979-0.805,2.951-1.422c0.971-0.616,1.766-1.315,2.382-2.098s1.113-1.6,1.494-2.454
					c0.378-0.853,0.615-1.682,0.711-2.489h-3.911c-1.138,0-2.039,0.025-2.702,0.071v-1.564c0.663,0.048,1.564,0.096,2.702,0.143
					H497.267z"/>
				<path fill="#FFFFFF" d="M513.443,608.789c-1.73,0.238-3.473,0.544-5.227,0.924c-0.142-0.615-0.284-1.09-0.426-1.422l1.208-0.071
					v-3.271c0-0.758-0.024-1.351-0.07-1.777h8.177c-0.048,0.426-0.071,1.02-0.071,1.777v2.347l0.712-0.142l-0.071,1.066
					C516.583,608.362,515.174,608.552,513.443,608.789z M516.821,595.349v1.067c-0.949,0.427-1.944,0.924-2.986,1.493v0.996h1.066
					c0.854,0,1.636-0.023,2.347-0.071v1.138c-0.996-0.046-1.92-0.071-2.773-0.071h-0.64v1.564c0,0.617-0.214,1.008-0.641,1.173
					c-0.426,0.167-0.995,0.297-1.706,0.391c-0.048-0.473-0.214-0.948-0.498-1.422c0.569,0,0.972-0.011,1.209-0.036
					c0.236-0.023,0.355-0.249,0.355-0.676V599.9h-2.133c-0.617,0-1.257,0.024-1.92,0.071v-1.138
					c0.663,0.048,1.469,0.071,2.417,0.071h1.564c0-0.379-0.024-0.9-0.071-1.564c0.616-0.189,1.304-0.521,2.063-0.996h-2.845
					c-0.664,0-1.375,0.024-2.133,0.071v-1.138c0.758,0.048,1.422,0.071,1.991,0.071H516.821z M511.346,607.936v-3.769h-1.138v3.911
					L511.346,607.936z M513.479,607.722v-3.556h-0.925v3.626L513.479,607.722z M515.826,607.438v-3.271h-1.138v3.414
					L515.826,607.438z M519.808,597.34c0-0.569-0.048-1.517-0.142-2.844c0.568,0.048,1.09,0.096,1.563,0.142
					c-0.095,0.759-0.142,1.447-0.142,2.062v1.92h3.271c-0.096,0.807-0.166,1.849-0.213,3.129l-0.284,6.897
					c-0.048,0.569-0.238,0.948-0.569,1.138c-0.332,0.189-1.043,0.379-2.133,0.569c-0.096-0.427-0.285-0.949-0.569-1.564
					c0.711,0.048,1.232,0.012,1.564-0.106c0.331-0.118,0.498-0.533,0.498-1.245l0.355-7.822h-1.92c0,2.086-0.119,3.758-0.355,5.013
					c-0.238,1.256-0.569,2.264-0.996,3.022c-0.427,0.759-0.853,1.387-1.279,1.884c-0.427,0.498-0.854,0.936-1.28,1.315
					c-0.332-0.332-0.759-0.64-1.28-0.924c0.9-0.522,1.611-1.161,2.134-1.92c0.521-0.758,0.912-1.635,1.173-2.631
					c0.26-0.996,0.427-1.991,0.498-2.986c0.071-0.996,0.106-1.92,0.106-2.773c-0.711,0-1.375,0.024-1.991,0.071v-1.138
					c0.569,0.048,1.232,0.071,1.991,0.071V597.34z"/>
				<path fill="#FFFFFF" d="M529.301,607.011c-0.355,1.043-0.771,2.251-1.244,3.626c-0.522-0.333-1.114-0.64-1.777-0.925
					c0.473-0.521,0.947-1.362,1.422-2.524c0.474-1.161,0.877-2.287,1.209-3.378c0.379,0.333,0.829,0.64,1.351,0.924
					C529.977,605.21,529.656,605.969,529.301,607.011z M530.119,601.678c-0.475,0.522-0.807,0.949-0.996,1.28
					c-1.091-0.996-1.968-1.707-2.631-2.133c0.284-0.285,0.545-0.64,0.782-1.067C528.271,600.375,529.218,601.015,530.119,601.678z
					 M531.257,597.482c-0.475,0.427-0.878,0.807-1.209,1.138c-0.759-0.948-1.564-1.753-2.418-2.417
					c0.285-0.285,0.593-0.616,0.925-0.996C529.502,595.918,530.403,596.677,531.257,597.482z M540.501,605.198
					c-0.427,0.688-0.984,1.375-1.672,2.062c-0.688,0.688-1.588,1.363-2.701,2.027c-1.115,0.663-2.62,1.28-4.516,1.849
					c-0.19-0.427-0.569-0.878-1.138-1.351c1.753-0.238,3.578-0.96,5.476-2.169c1.895-1.208,3.271-2.903,4.124-5.084l1.849,0.782
					C541.4,603.882,540.928,604.511,540.501,605.198z M533.745,600.789c-0.332,1.162-0.688,2.382-1.066,3.662
					c-0.475-0.237-0.949-0.402-1.422-0.498c0.284-0.711,0.568-1.611,0.854-2.702c0.284-1.09,0.521-2.228,0.711-3.414
					c0.615,0.238,1.209,0.403,1.777,0.498C534.361,598.81,534.076,599.628,533.745,600.789z M537.301,596.843v5.617
					c0,0.996,0.023,1.896,0.071,2.702h-1.493c0.046-0.853,0.071-1.753,0.071-2.702v-5.617c0-0.806-0.025-1.588-0.071-2.347h1.493
					C537.324,595.207,537.301,595.989,537.301,596.843z M543.061,600.256c-0.522,0.332-0.949,0.688-1.28,1.066
					c-0.853-1.09-1.968-2.275-3.342-3.555c0.284-0.237,0.615-0.544,0.995-0.924C540.618,597.838,541.827,598.976,543.061,600.256z"
					/>
			</g>
		</g>
		<polygon fill="#74C6BE" stroke="#000000" stroke-width="3.0389" points="531.462,560.939 514.576,554.225 514.576,553.907 
			512.975,553.907 512.975,581.291 514.576,581.291 514.576,568.317 		"/>
	</g>
	<g opacity="0">
		<text transform="matrix(1 0 0 1 475.75 582.8052)" fill="#040000" font-family="'ArialMT'" font-size="15">6</text>
		<rect x="458.027" y="547.582" fill="none" stroke="#040000" stroke-width="0.5297" width="99.42" height="70.448"/>
	</g>
</g>
<g>
	<g>
		<circle fill="#FFFFFF" stroke="#E60012" stroke-width="1.548" cx="452.72" cy="527.533" r="7.075"/>
		<rect x="465.607" y="507" fill="#E60012" width="61.307" height="25.532"/>
		<g>
			<g>
				<path fill="#FFFFFF" d="M479.718,512.879h3.984c0.869,0,1.666-0.023,2.391-0.072v1.304c-0.725-0.047-1.498-0.072-2.318-0.072
					h-4.057v1.086h3.478c0.627,0,1.304-0.023,2.028-0.072v1.304c-0.725-0.048-1.401-0.073-2.028-0.073h-3.478v1.014h4.854
					c0.917,0,1.763-0.023,2.536-0.072v1.304c-0.725-0.047-1.57-0.072-2.536-0.072h-11.301c-0.773,0-1.546,0.025-2.318,0.072v-1.304
					c0.82,0.049,1.594,0.072,2.318,0.072h4.998v-1.014h-3.332c-0.773,0-1.497,0.025-2.173,0.073v-1.304
					c0.676,0.049,1.399,0.072,2.173,0.072h3.332v-1.086h-4.129c-0.821,0-1.57,0.025-2.246,0.072v-1.304
					c0.772,0.049,1.521,0.072,2.246,0.072h4.129c0-0.58-0.024-1.086-0.072-1.521h1.594
					C479.741,511.841,479.718,512.349,479.718,512.879z M483.34,526.535c0.192-0.12,0.265-0.471,0.218-1.051h-8.838v2.681h-1.377
					c0.048-0.773,0.072-1.763,0.072-2.97v-2.825c0-1.062-0.024-2.028-0.072-2.898h11.663c-0.097,0.918-0.145,1.909-0.145,2.97v4.129
					c0,0.58-0.193,0.965-0.58,1.159c-0.387,0.192-1.039,0.362-1.955,0.507c-0.098-0.483-0.362-0.99-0.797-1.521
					C482.543,526.716,483.146,526.655,483.34,526.535z M483.558,521.935v-1.304h-8.838v1.304H483.558z M483.558,524.325v-1.231
					h-8.838v1.231H483.558z"/>
				<path fill="#FFFFFF" d="M492.919,515.136h1.168l0.594-0.853l1.001,0.964c0.074,0.056,0.111,0.111,0.111,0.167
					c0,0.055-0.074,0.092-0.186,0.092h-2.688v1.854c2.206,0.872,2.28,1.724,2.28,1.984c0,0.371-0.371,0.742-0.519,0.742
					c-0.148,0-0.278-0.148-0.315-0.353c-0.093-0.519-0.687-1.483-1.446-2.039v5.877c0,1.409,0,2.799,0.037,3.634v0.111
					c0,0.278-0.074,0.333-0.445,0.519c-0.185,0.092-0.314,0.148-0.389,0.148c-0.111,0-0.148-0.111-0.148-0.333v-0.13
					c0.056-1.279,0.093-2.762,0.093-3.263v-6.433c-0.779,2.021-1.873,4.004-3.152,5.691l-0.24-0.148
					c1.52-2.577,2.706-5.506,3.17-7.861h-1.094c-0.39,0-0.927,0.074-1.242,0.204l-0.52-0.649c0.464,0.037,0.928,0.074,1.354,0.074
					h1.725v-1.668c0-0.76-0.037-2.021-0.074-2.707l1.316,0.667c0.093,0.037,0.13,0.093,0.13,0.13c0,0.074-0.056,0.111-0.52,0.389
					V515.136z M496.831,512.614v10.827c0,1.391,0.019,2.744,0.056,3.56v0.148c0,0.241-0.056,0.315-0.445,0.482
					c-0.167,0.074-0.278,0.111-0.371,0.111c-0.129,0-0.166-0.093-0.166-0.315v-0.093c0.037-1.075,0.056-2.354,0.056-3.745v-9.455
					c0-0.742-0.037-1.984-0.074-2.651l1.224,0.723h6.47l0.557-0.834l1.112,0.853c0.13,0.093,0.186,0.148,0.186,0.223
					c0,0.074-0.056,0.092-0.594,0.389v13.274c0,0.704-0.315,1.094-1.465,1.65c-0.074,0.037-0.13,0.056-0.167,0.056
					c-0.074,0-0.093-0.056-0.11-0.186c-0.056-0.742-0.575-1.094-2.151-1.52l0.056-0.26c1.131,0.223,1.836,0.333,2.28,0.333
					c0.575,0,0.687-0.185,0.687-0.445v-13.126H496.831z M503.098,514.895c0.073,0.056,0.11,0.111,0.11,0.148
					s-0.037,0.074-0.129,0.093c-0.408,0.111-0.445,0.148-0.724,0.76c-0.5,1.057-0.945,1.965-1.391,2.762
					c0.705,0.945,1.187,1.761,1.502,2.521c0.148,0.371,0.223,0.705,0.223,0.945c0,0.519-0.26,0.797-0.557,0.797
					c-0.204,0-0.352-0.204-0.444-0.723c-0.13-0.705-0.52-1.65-1.168-2.781c-0.909,1.539-1.836,2.688-3.022,3.912l-0.167-0.167
					c1.057-1.427,1.966-2.911,2.744-4.468c-0.667-1.038-1.335-1.965-2.559-3.448l0.204-0.186c1.112,1.094,2.002,2.058,2.707,2.911
					c0.574-1.224,1.094-2.54,1.538-3.912L503.098,514.895z"/>
				<path fill="#FFFFFF" d="M511.158,513.676c0-0.724-0.025-1.424-0.072-2.101h1.594c-0.098,0.58-0.146,1.28-0.146,2.101v1.739
					c0.531,0,1.231-0.024,2.102-0.072v1.376c-0.87-0.047-1.57-0.072-2.102-0.072v2.391c0.387-0.192,0.772-0.435,1.159-0.725
					c0.386,0.58,0.966,1.521,1.739,2.826c-0.483,0.242-0.967,0.532-1.449,0.869c-0.242-0.627-0.725-1.473-1.449-2.536v5.578
					c0,0.967,0.048,1.907,0.146,2.825h-1.594c0.047-0.966,0.072-1.907,0.072-2.825v-5.288c-0.29,0.677-0.592,1.329-0.905,1.956
					c-0.315,0.628-0.858,1.498-1.63,2.608l-1.232-1.304c1.063-1.159,1.871-2.318,2.428-3.477c0.554-1.159,0.929-2.125,1.122-2.898
					c-0.918,0-1.859,0.025-2.825,0.072v-1.376c1.015,0.048,2.028,0.072,3.043,0.072V513.676z M520.721,515.56v-1.956
					c0-0.725-0.049-1.376-0.146-1.956h1.667c-0.098,0.483-0.146,1.184-0.146,2.101v1.811c0.435,0,1.207-0.024,2.318-0.073v1.449
					c-1.063-0.097-1.836-0.145-2.318-0.145v8.766c0,1.014-0.289,1.617-0.869,1.811c-0.579,0.192-1.28,0.362-2.101,0.507
					c-0.193-0.677-0.411-1.231-0.652-1.666c1.062,0,1.702-0.072,1.92-0.217s0.326-0.531,0.326-1.159v-8.041h-3.694
					c-0.58,0-1.112,0.048-1.594,0.145v-1.449c0.53,0.049,1.062,0.073,1.594,0.073H520.721z M518.402,520.377
					c0.241,0.507,0.458,1.003,0.652,1.485c-0.483,0.194-0.991,0.435-1.521,0.725c-0.146-0.531-0.339-1.087-0.58-1.667
					c-0.242-0.579-0.483-1.062-0.724-1.449c0.386-0.241,0.82-0.458,1.304-0.652C517.87,519.352,518.16,519.87,518.402,520.377z"/>
			</g>
		</g>
		<polygon fill="#00A0E9" points="469.022,507.9 451.818,501.062 451.818,500.739 450.188,500.739 450.188,528.638 451.818,528.638 
			451.818,515.417 		"/>
	</g>
	<g opacity="0">
		<text transform="matrix(1 0 0 1 540.502 532.5322)" fill="#040000" font-family="'ArialMT'" font-size="15">5</text>
		<rect x="438.667" y="495.333" fill="none" stroke="#040000" stroke-width="0.4738" width="121.587" height="46.081"/>
	</g>
</g>
<g>
	<g>
		<path fill="#FFFFFF" stroke="#E60012" stroke-width="1.5221" d="M546.752,473.084c0,3.842-3.115,6.956-6.959,6.956
			c-3.843,0-6.955-3.113-6.955-6.956c0-3.845,3.112-6.96,6.955-6.96C543.637,466.124,546.752,469.24,546.752,473.084z"/>
		<rect x="470.741" y="465.652" fill="#E60012" width="60.279" height="25.106"/>
		<g>
			<g>
				<path fill="#FFFFFF" d="M490.948,485.39c-0.855-0.048-1.615-0.071-2.28-0.071h-11.111c-0.761,0-1.639,0.023-2.636,0.071v-1.567
					c0.901,0.048,1.781,0.071,2.636,0.071h11.111c0.713,0,1.472-0.047,2.28-0.143V485.39z M476.417,471.713
					c0.949,0.048,1.827,0.071,2.636,0.071h7.906c0.901,0,1.732-0.023,2.493-0.071v1.496c-0.713-0.047-1.544-0.071-2.493-0.071
					h-7.978c-0.809,0-1.663,0.024-2.564,0.071V471.713z M479.765,478.836c-0.712,0-1.473,0.024-2.279,0.071v-1.567
					c0.759,0.048,1.52,0.071,2.279,0.071h6.126c0.712,0,1.496-0.023,2.351-0.071v1.567c-0.95-0.047-1.734-0.071-2.351-0.071H479.765
					z"/>
				<path fill="#FFFFFF" d="M498.071,484.677c0.332-0.046,0.499-0.427,0.499-1.14v-3.348h-2.707
					c-0.143,1.378-0.333,2.505-0.57,3.383c-0.238,0.879-0.594,1.792-1.068,2.742c-0.381-0.38-0.879-0.641-1.496-0.783
					c0.617-0.759,1.057-1.721,1.318-2.885c0.261-1.163,0.402-2.481,0.427-3.954c0.023-1.471,0.036-2.967,0.036-4.487
					c0-1.519-0.024-2.636-0.071-3.348h5.484c-0.048,0.95-0.071,1.9-0.071,2.849v10.471c0,0.901-0.202,1.448-0.605,1.638
					c-0.403,0.189-1.128,0.38-2.172,0.57c-0.096-0.618-0.262-1.188-0.499-1.709C497.24,484.725,497.738,484.725,498.071,484.677z
					 M498.57,474.919v-2.92h-2.636v2.92H498.57z M498.57,478.979v-2.92h-2.636v2.92H498.57z M506.975,485.604
					c-0.522-0.238-1.259-0.76-2.208-1.567c-0.475,0.476-1.021,0.938-1.638,1.389c-0.618,0.451-1.354,0.914-2.208,1.389
					c-0.333-0.618-0.689-1.069-1.069-1.354c0.998-0.333,1.781-0.677,2.351-1.033c0.57-0.356,1.092-0.795,1.567-1.318
					c-0.523-0.665-0.974-1.4-1.354-2.208c-0.381-0.712-0.665-1.448-0.854-2.208c-0.19,0-0.381,0-0.57,0v-1.282
					c0.808,0.048,1.591,0.071,2.351,0.071h5.058c-0.143,0.712-0.475,1.639-0.997,2.778c-0.523,1.14-1.093,2.09-1.71,2.849
					c0.475,0.333,1.057,0.677,1.746,1.033c0.688,0.356,1.46,0.63,2.314,0.819c-0.476,0.379-0.808,0.901-0.997,1.567L506.975,485.604
					z M507.26,474.135c-0.048,0.618,0.214,0.926,0.783,0.926l1.567-0.071c-0.19,0.427-0.31,0.854-0.356,1.282h-1.78
					c-1.093,0-1.639-0.427-1.639-1.282v-2.992h-2.351c0,1.14-0.131,2.078-0.392,2.813c-0.262,0.737-0.819,1.46-1.674,2.172
					c-0.238-0.379-0.594-0.735-1.068-1.068c0.997-0.617,1.543-1.4,1.639-2.351c0.094-0.949,0.117-1.852,0.071-2.707h5.271
					c-0.048,0.427-0.071,0.926-0.071,1.496V474.135z M502.915,478.623c0.189,0.808,0.427,1.473,0.712,1.995
					c0.332,0.57,0.713,1.093,1.14,1.567c0.901-1.186,1.472-2.374,1.71-3.562h-3.135H502.915z"/>
				<path fill="#FFFFFF" d="M517.588,474.634c-0.238,1.282-0.534,2.434-0.891,3.455c-0.356,1.022-0.831,2.03-1.425,3.027
					c-0.594,0.998-1.531,2.137-2.813,3.419c-0.333-0.427-0.831-0.759-1.496-0.997c1.329-0.949,2.387-2.041,3.17-3.276
					c0.784-1.234,1.365-2.683,1.745-4.345h-1.923c-0.712,0-1.521,0.048-2.422,0.143v-1.496c0.854,0.048,1.639,0.071,2.351,0.071
					H517.588z M520.116,471.999c-0.024,0.57,0.023,1.271,0.143,2.101c0.118,0.832,0.558,1.816,1.317,2.956
					c1.947-1.614,3.11-2.873,3.491-3.775c0.521,0.475,0.997,0.926,1.424,1.353c-0.617,0.428-1.223,0.903-1.816,1.425
					c-0.594,0.523-1.413,1.235-2.457,2.137c0.38,0.808,1.068,1.709,2.065,2.707c0.997,0.997,2.208,1.709,3.633,2.137
					c-0.808,0.381-1.282,0.855-1.425,1.425c-1.805-1.092-3.194-2.303-4.167-3.633c-0.974-1.329-1.722-2.659-2.243-3.989v7.906
					c0.047,0.665-0.203,1.14-0.748,1.425c-0.547,0.285-1.271,0.474-2.173,0.57c-0.048-0.523-0.262-1.093-0.641-1.709
					c0.759,0.142,1.306,0.166,1.638,0.071c0.332-0.096,0.499-0.403,0.499-0.926v-11.254c0-1.187-0.048-2.137-0.143-2.849h1.639
					C520.152,470.788,520.14,471.429,520.116,471.999z"/>
			</g>
		</g>
		<polygon fill="#1D2088" points="557.565,454.737 540.648,448.015 540.648,447.699 539.042,447.699 539.042,475.127 
			540.648,475.127 540.648,462.13 		"/>
	</g>
	<g opacity="0">
		<text transform="matrix(1 0 0 1 554.8223 481.9023)" fill="#040000" font-family="'ArialMT'" font-size="15">4</text>
		<rect x="462" y="431.769" fill="none" stroke="#040000" stroke-width="0.5639" width="112.667" height="70.448"/>
	</g>
</g>
<g>
	<g>
		<circle fill="#FFFFFF" stroke="#E60012" stroke-width="1.5145" cx="442.024" cy="420.625" r="6.925"/>
		<rect x="418.956" y="431.671" fill="#E60012" width="59.983" height="24.983"/>
		<g>
			<g>
				<path fill="#FFFFFF" d="M442.132,447.528c0.755,0,1.748-0.023,2.977-0.071v1.347c-1.275-0.046-2.268-0.071-2.977-0.071h-6.309
					c-0.945,0-1.796,0.024-2.551,0.071v-1.347c0.755,0.048,1.605,0.071,2.551,0.071H442.132z M437.879,441.681
					c-0.142,0.875-0.212,1.69-0.212,2.445h5.812c0.094-0.945,0.188-1.914,0.283-2.906s0.188-1.889,0.284-2.693h-6.805
					c-0.898,0-1.867,0.024-2.906,0.071v-1.417c1.039,0.048,2.008,0.071,2.906,0.071h8.435c-0.189,1.276-0.354,2.564-0.496,3.863
					c-0.142,1.3-0.237,2.304-0.283,3.013h3.26c-0.095,1.04-0.177,2.186-0.248,3.438c-0.07,1.252-0.225,2.292-0.461,3.119
					s-0.638,1.334-1.204,1.524c-0.567,0.188-1.655,0.33-3.261,0.425c-0.048-0.521-0.261-1.088-0.638-1.701
					c1.843,0.047,2.882,0.012,3.118-0.106c0.236-0.117,0.437-0.33,0.603-0.638c0.165-0.307,0.295-1.016,0.39-2.126
					c0.095-1.11,0.143-2.02,0.143-2.729h-10.49c0.094-0.944,0.188-1.925,0.283-2.941c0.094-1.016,0.165-1.996,0.213-2.941
					c0.613,0.095,1.205,0.189,1.771,0.284C438.186,440.157,438.021,440.807,437.879,441.681z"/>
				<path fill="#FFFFFF" d="M456.236,440.192c-0.425,1.111-0.757,1.997-0.992,2.658c0.661,0.898,1.145,1.654,1.453,2.268
					c0.307,0.615,0.437,1.217,0.39,1.807c-0.048,0.592-0.308,1.088-0.779,1.489c-0.474,0.402-1.182,0.721-2.127,0.957
					c-0.189-0.567-0.425-1.039-0.709-1.417c0.945-0.046,1.583-0.2,1.914-0.46c0.33-0.259,0.426-0.697,0.283-1.312
					c-0.142-0.613-0.366-1.157-0.673-1.63c-0.308-0.472-0.674-0.968-1.099-1.489c0.851-2.126,1.44-3.709,1.771-4.749h-2.764v11.128
					c0,1.04,0.023,2.079,0.07,3.118h-1.417c0.046-1.182,0.07-2.291,0.07-3.331v-8.86c0-1.228-0.024-2.292-0.07-3.189h5.883
					C457.063,438.078,456.661,439.083,456.236,440.192z M459.354,436.188c0.567,0.047,1.087,0.071,1.56,0.071
					c-0.095,0.379-0.166,1.701-0.213,3.969h3.687l2.835-0.142v1.347c-0.946-0.047-1.867-0.071-2.765-0.071h-1.843v5.458
					c0.567-0.709,1.252-1.96,2.056-3.757c0.567,0.473,1.016,0.78,1.347,0.921c-0.189,0.189-0.603,0.804-1.24,1.843
					c-0.638,1.04-1.359,2.032-2.162,2.977v1.914c0,0.472,0.307,0.709,0.922,0.709h0.851c0.472,0,0.79-0.142,0.956-0.425
					c0.165-0.284,0.295-0.755,0.391-1.417c0.52,0.379,0.992,0.615,1.417,0.708c-0.379,1.181-0.756,1.843-1.134,1.985
					c-0.379,0.142-0.779,0.212-1.205,0.212h-1.56c-1.275,0-1.913-0.543-1.913-1.63v-0.993c-0.805,0.709-1.488,1.276-2.056,1.701
					c-0.237-0.378-0.567-0.708-0.992-0.992c0.378-0.236,0.838-0.555,1.382-0.957c0.543-0.401,1.099-0.886,1.666-1.453v-6.805h-0.709
					c-0.189,1.796-0.426,3.25-0.709,4.359c-0.283,1.111-0.614,2.067-0.992,2.871c-0.379,0.804-0.827,1.536-1.347,2.197
					c-0.521,0.661-1.11,1.322-1.771,1.984c-0.096-0.142-0.521-0.45-1.276-0.921c0.992-0.804,1.748-1.56,2.269-2.268
					c0.519-0.709,0.944-1.489,1.275-2.339c0.33-0.851,0.591-1.76,0.779-2.729c0.188-0.968,0.33-2.02,0.426-3.154
					c-0.851,0-1.726,0.024-2.623,0.071v-1.276c0.804,0.047,1.701,0.071,2.693,0.071
					C459.401,439.235,459.401,437.889,459.354,436.188z M465.592,438.81c-0.331,0.283-0.686,0.614-1.063,0.992
					c-0.426-0.567-1.158-1.322-2.197-2.268c0.378-0.33,0.685-0.638,0.921-0.921C464.15,437.417,464.93,438.149,465.592,438.81z"/>
			</g>
		</g>
		<polygon fill="#1D2088" points="459.832,400.168 443.001,393.48 443.001,393.165 441.406,393.165 441.406,420.458 
			443.001,420.458 443.001,407.526 		"/>
	</g>
	<g opacity="0">
		<text transform="matrix(1 0 0 1 460.0176 425.0195)" fill="#040000" font-family="'ArialMT'" font-size="15">3</text>
		<rect x="415.396" y="380" fill="none" stroke="#040000" stroke-width="0.4979" width="77.332" height="80"/>
	</g>
</g>

</svg>