
  <svg version="1.0" id="图层_1" xmlns="http://www.w3.org/2000/svg" xmlns:xlink="http://www.w3.org/1999/xlink" x="0px" y="0px" width="100%" height="100%" viewBox="0 0 720 1280" xml:space="preserve"
  style="position: relative;display: block;"
  >
<g>
  <path opacity="0.6" fill="#FFFFFF" stroke="#00A0E9" stroke-width="4.6658" d="M717.585,551.956
    c-0.64-1.27-1.709-1.483-1.979-2.961c-0.275-1.481-0.798-1.692-0.18-3.808c0.617-2.113-0.618-2.326-0.188-4.651
    c0.426-2.327,0-6.556,0-6.556l-1.71-1.902l-4.057,4.864l-3.637,4.016v1.904l-7.133-2.113l-6.537-2.963c0,0-2.995-2.536-4.702-2.942
    c-1.707-0.403-2.136-2.976-2.136-2.976s1.708-3.384,2.136-5.921c0.425-2.538,3.847-2.115,3.847-2.115s5.126-2.537,7.267-5.92
    c2.132-3.385,0,0,0.85-2.962c0.859-2.96,1.712-2.96,0-5.496c-1.707-2.539,0,0-2.564-0.847c-2.563-0.846-2.99-1.269-2.99-1.269
    s-3.415-1.691-4.701-2.96c-1.282-1.269,0-4.228,0-4.228v-5.075l-3.414-0.424l-4.699,2.539v7.188l-3.421,4.653
    c-1.283,1.691-2.135,1.691-2.135,1.691l-3.419,2.537l-5.983,3.806l-2.135,3.383v3.808c0,0,2.135,2.537,2.135,5.921
    c0,3.383-7.266,4.229-10.682,4.651c-3.422,0.423-0.857-6.766-0.857-6.766l2.563-2.96v-6.342l-2.563-4.653l-2.135-1.268
    l-2.138,0.421l-2.136,1.691l-3.417,2.538l-8.975-0.424h-4.699l-4.272,1.694l-2.136,2.537h-3.847h-3.844l-0.43-2.117l-2.991-4.229
    l-8.976-0.845l-9.399,0.845c0,0-2.992,1.692-5.765,1.903c-2.78,0.211-12.607-4.863-15.387-6.343
    c-2.777-1.48-6.195-5.568-6.195-5.568l-0.571-1.46c0,0,6.838,1.601,8.548-0.091c1.707-1.693,3.417-2.82,6.837-3.384
    c3.417-0.565,7.976-3.383,9.687-8.457c1.707-5.075,0-4.512,0-4.512l-1.711-5.638l-3.419-2.819l-2.848,2.819l-2.847,3.948
    l-7.409,9.584h-6.267l-0.571-3.382l1.14-3.383c0,0,2.28-3.946,3.423-5.64c1.139-1.69,0-2.819,0-4.51
    c0-1.692,1.707-4.457,1.707-4.457s1.708-5.13,2.278-6.82c0.57-1.693,3.987-5.075,5.127-6.768c1.138-1.691,0.572-5.073,0.572-8.457
    c0-3.383-1.143-2.254-2.85-3.947c-1.707-1.691-2.85-1.129-2.85-1.129s-7.408,1.129-9.113,1.693
    c-1.712,0.564-7.979,0.564-7.979,0.564l-1.707-5.076c0,0,0,0,0-2.256c0-2.255-1.71-2.255-1.71-2.255l-3.42-3.947
    c0,0-3.418-0.564-10.258,1.126c-6.835,1.691-3.983,0.564-8.543,2.82c-4.559,2.254-1.708,5.639-1.708,5.639
    s-1.137,5.075-1.137,6.766c0,1.691-0.575,7.331-0.575,7.331s-1.137,3.944-3.986,4.51c-2.849,0.563-6.837-5.076-6.837-5.076
    l-6.267-2.255l-2.42-6.202c0,0-0.857-3.384-1.713-5.921c-0.852-2.537-2.989-3.806-2.989-3.806l-6.408-5.498
    c0,0-5.557-0.846-8.544-0.423c-2.992,0.423-5.982,3.384-8.118,5.076c-2.138,1.691-7.693,0.845-7.693,0.845l-2.991-20.299
    l1.282-3.384l18.802-19.452l5.554-2.962c0,0,3.846-1.69,5.13-2.536c1.278-0.846,3.417-4.229,3.417-4.229l7.693-2.96l8.114-1.268
    c0,0,5.13,1.691,10.685,0.422c5.553-1.269,2.563-2.961,4.701-5.075c2.135-2.114-3.848-4.651-3.848-4.651s-2.988,2.115-4.273,2.115
    c-1.28,0-2.993,0-2.993,0s-2.56-3.383-3.841-7.189c-1.283-3.805-1.283-2.539-2.565-2.96c-1.282-0.423-5.979-2.115-5.979-4.652
    c0-2.538-3.421-5.498-3.421-5.498s-0.428-2.538-1.281-3.806c-0.854-1.27-0.432-5.921-1.283-7.613
    c-0.856-1.691-2.563-7.19-3.417-9.728c-0.855-2.537-2.565-6.764-2.565-8.034c0-1.269,0-7.611,0-9.726s1.284-6.343,1.284-6.343
    l5.55-3.807h3.423l4.699,1.691c0,0,3.844,1.69,8.548,5.498c4.701,3.806,2.135,0.845,4.701,0.845c2.562,0,2.99-0.422,4.271-1.691
    c1.28-1.268,1.28-3.383,1.28-3.383l6.836-2.113c0,0,2.137,1.69,3.42,2.113c1.281,0.422,1.281,4.652,3.42,8.036
    c2.135,3.383,0.426,7.189,0.426,11.842c0,4.651,2.989,6.342,3.845,7.61c0.856,1.27,5.13,8.036,5.13,8.036s8.122,5.497,10.254,8.458
    c2.137,2.961,6.839,0,9.826,0c2.994,0,8.974,2.537,8.974,2.537l11.111,5.499c0,0,1.281-3.384,2.989-7.19
    c1.709-3.807,0-6.767-0.425-8.881c-0.426-2.114-2.995-8.034-2.995-8.034s0,0,5.984-2.539c5.98-2.536,2.99-3.805,2.99-3.805
    l2.138-8.88l-2.563-8.037l-2.992-11.841c0,0-5.981-6.344-6.832-7.613c-0.859-1.269-1.284-4.228-1.714-7.188
    c-0.425-2.96,1.714-5.076,2.564-6.767c0.855-1.692,2.137-3.806,2.564-6.345c0.43-2.536,1.71-5.92,1.28-7.188
    c-0.425-1.269-0.425-6.767-0.851-8.034c-0.43-1.27,0-5.499,2.136-9.728c2.134-4.229,2.563-10.15,2.563-10.15l5.979-14.378
    l4.703-17.76c0,0,5.98-16.071,5.98-18.608c0-2.537,4.701-17.338,4.701-17.338h-3.848l-3.417,2.114c0,0-4.273,2.114-5.982,3.382
    c-1.708,1.27-4.273,2.115-6.411,2.538c-2.136,0.424-2.564,0-5.125,0c-2.563,0-3.85,0-5.125,0c-1.284,0-3.426,0.846-3.426,0.846
    l-5.979,4.651v2.537c0,0-8.548,0.423-10.253,1.27c-1.708,0.846-5.984,0.422-5.984,0.422s-8.117,0-9.4,0
    c-1.282,0-5.126-0.844-6.407-0.844c-1.282,0-7.691-0.847-8.977-1.27c-1.279-0.423-5.124-1.691-6.835-2.538
    c-1.71-0.845-5.554-1.691-5.554-1.691l-4.271,0.846l-2.566,2.96l-7.263,6.344l-11.965,4.651v-2.537c0,0-3.846-7.613-4.275-8.88
    c-0.426-1.27-1.278-2.538-2.988-4.229c-1.711-1.691-2.564-2.113-3.847-3.383c-1.282-1.269-5.127-2.96-7.691-4.229
    c-2.563-1.271-5.129-2.538-6.411-2.115c-1.282,0.422-6.834-0.423-8.117-3.383c-1.279-2.959,0,0,0-1.692s0-4.229,0-6.344
    c0-2.113-2.564-2.959-2.564-2.959s-1.71-4.229-5.126-4.229c-3.419,0-7.265,0.422-7.265,0.422v-3.805l-2.989-0.847l-6.84-5.075
    l-6.836-10.994h-4.272l-5.127,1.268c0,0-7.264,0-12.39,0.422c-5.13,0.423-8.977,2.539-8.977,2.539l-4.699,3.805l-2.14,6.767
    l-3.843,6.343l-5.124,2.961l-8.55-1.693l-6.835-2.959c0,0-4.702-5.498-5.984-8.881c-1.28-3.384-5.983-1.692-5.983-1.692
    l-9.825,5.075l-8.975-6.767l-24.781-10.573l-4.699,0.424l-4.701,6.343l-2.565,5.497l2.136,13.532c0,0,2.561,15.225,2.561,16.494
    c0,1.27,0,6.343-0.426,7.613c-0.425,1.268-2.135,5.497-3.843,8.88c-1.71,3.383-0.856,7.189-0.856,7.189l6.409,3.383
    c2.138-1.269,8.117-6.766,12.82-4.651c4.696,2.115,1.708,5.498,1.708,5.498l2.564,43.558l8.971,32.14l-6.834,7.19l-10.255,3.805
    h-6.836l-13.247,5.076l-6.409,8.458c0,0-2.138,5.075,2.136,8.88c4.273,3.806,38.028-11.418,38.028-11.418l5.129-1.269
    c0,0,0.143,4.229,0,4.652c-0.143,0.424-3.847,3.383-5.698,4.37c-1.85,0.988-3.845,2.397-6.409,3.948
    c-2.563,1.549-4.558,3.242-5.981,4.37c-1.423,1.127,0,4.37,0,5.921c0,1.549-0.285,5.215-1.143,7.47
    c-0.852,2.255-5.411,9.166-5.693,9.587c-0.285,0.423-0.429,0.565-1.282,1.833c-0.856,1.268-2.565,1.974-3.989,2.96
    c-1.426,0.987-4.557,4.511-5.697,6.344c-1.14,1.833-4.129,3.664-5.271,5.638c-1.136,1.973-2.421,5.074-2.421,5.074l-1.708,10.009
    c0,0-2.565,17.057-2.565,18.749c0,1.69-1.708,6.765-4.559,16.916c-2.847,10.149-15.95,12.968-15.95,12.968
    c-25.069,1.69-30.195-9.021-33.042-9.021c-2.848,0-14.245,15.224-14.245,15.224l-6.266,3.946l-2.85-1.126c0,0-2.848,0-5.697,0.563
    c-2.849,0.565-3.422,1.129-10.252,2.82c-6.839,1.69-6.27,3.945-9.691,7.329c-3.417,3.384-6.834,3.948-11.392,4.511
    c-4.558,0.564-5.125,1.128-8.546,1.128c-3.418,0-6.269,0-6.269,0s-7.403,3.383-9.685,4.509c-2.278,1.129-6.836,5.641-7.405,7.332
    c-0.571,1.692-5.697,5.637-8.546,7.895c-2.847,2.256-7.975,6.2-16.521,7.893c-1.911,0.378-3.843,0.725-5.721,1.047l-0.551,1.208
    c0,0-5.699,3.385-7.975,6.768c-2.281,3.382-3.419,7.896-6.836,13.533c-3.42,5.639-4.56,7.893-4.56,7.893L91.525,516.36
    l-10.255,7.894l-14.814,3.384l-22.786-2.256l-21.653,1.128l-15.95,4.511l4.56,6.764c0,0,20.509,12.688,23.073,13.535
    c2.566,0.845,20.511,12.687,23.928,15.225c3.418,2.536,11.108,16.07,11.108,18.607c0,2.538,3.42,29.603,3.42,37.215
    s-8.547,17.763-10.255,21.989c-1.709,4.231,0,16.917,0,19.456c0,2.535,21.363,21.988,21.363,21.988l14.53,10.996
    c0,0,14.527,11.843,22.219,18.608c7.689,6.768,16.236,8.458,18.229,13.531c1.991,5.074,20.227,10.151,23.646,11.842
    c3.418,1.692,20.512,8.458,20.512,8.458h15.381c0,0,17.947-8.458,20.511-10.996c2.562-2.536,7.691-2.536,7.691-2.536
    s26.49,1.692,29.054,2.536c2.564,0.848,24.788,0,24.788,0l17.088-2.536l7.693-6.768h14.528l8.542,6.768l6.556,9.023l16.52,16.916
    l11.396,11.274c0,0,17.09,24.247,17.09,29.035l59.735,91.824l5.785,6.577c0,0,4.557,0,7.975-1.133
    c3.418-1.127,10.826-2.253,21.651-3.381c10.821-1.129,6.832-1.129,21.079-4.472c14.241-3.346,11.965-3.985,24.5-3.985
    c12.533,0,12.529,9.021,12.529,10.714c0,1.69,3.422,9.02,5.702,15.225c2.274,6.201,14.239,4.508,17.09,3.944
    c2.847-0.563,14.813,0.563,19.939,0c5.127-0.563,10.255-4.51,11.964-6.201c1.709-1.69,5.13-7.896,5.697-10.711
    c0.567-2.82,5.983-15.788,5.983-15.788v-19.737c0,0-6.551,3.947-8.83,3.666c-2.277-0.284-3.419-3.387-4.843-10.713
    c-1.423-7.332,9.398-25.091,9.398-25.091s0,0,1.425-2.258c1.428-2.255,0-7.613,0-7.613s-5.129,0.565-7.69,1.129
    c-2.563,0.562-4.271,0-4.271,0s-2.564-0.563-5.414-2.257c-2.85-1.691-7.408-1.691-7.122-3.382c0.28-1.691-0.286-3.948-0.286-3.948
    s1.712-3.662,4.845-5.355c3.131-1.693,1.709-4.792,1.993-6.203c0.287-1.41,1.708-2.255,2.564-2.537
    c0.855-0.281,3.42-2.255,5.981-5.074c2.565-2.821-0.286-1.693-1.141-2.256c-0.853-0.565-3.131-1.692-3.985-1.975
    c-0.855-0.281-3.133-1.973-4.557-4.226c-1.428-2.257-2.568-4.516-4.276-7.615c-1.71-3.102-3.417-5.639-5.125-7.046
    c-1.712-1.413-8.264-18.047-8.834-19.454c-0.57-1.411-0.855-5.924-0.855-8.176c0-2.256,0-4.231,0-5.919
    c0-1.695-0.852-4.796-0.852-6.771c0-1.971-1.428-5.356-1.71-6.767c-0.285-1.407-1.709-3.1-2.28-5.355
    c-0.57-2.257-2.563-3.946-3.706-5.076c-1.138-1.125-4.269-3.945-6.546-4.789c-2.28-0.847-6.838-8.178-8.548-9.307
    c-1.712-1.128-6.265-5.074-6.265-5.074l-13.106,9.587v3.665c0,0-0.286,4.51-1.995,7.33c-1.708,2.816-4.84,0-4.84,0l-1.429-2.537
    l-2.56-3.947l-1.712-4.792l-1.138-4.231c0,0-0.426-1.549,1.923-5.145c2.349-3.594,2.138-3.386,4.057-5.498
    c1.926-2.113,2.994-5.71,3.421-7.401c0.428-1.69,1.708-4.229,1.922-7.189c0.214-2.957,0.214-5.921,0.857-9.092
    c0.639-3.171,0.428-4.229,0.639-6.131c0.214-1.903,1.925-2.328,2.991-3.597c1.069-1.269,1.498-3.171,1.498-3.171
    s1.706-8.458,1.706-10.148c0-1.692,1.495-3.595,2.352-4.018c0.855-0.424,3.204-1.269,4.487-2.538
    c1.28-1.27,0.213-1.693,0.423-3.385c0.218-1.69,2.783-2.959,4.491-4.44c1.706-1.479,4.697-4.227,7.049-5.919
    c2.352-1.691,4.062-0.634,4.062-0.634s2.351,2.326,3.629,3.806c1.283,1.479,4.059,0.634,5.553,0
    c1.499-0.636,1.499-2.115,1.927-3.172c0.424-1.057,2.351-3.171,2.351-3.171s5.766-2.749,7.264-3.384
    c1.493-0.634,6.192-0.421,6.192-0.421s4.061,0.421,4.277,1.269c0.213,0.844,1.705,6.976,1.705,9.514
    c0,2.536,2.352,4.863,4.277,8.035c1.921,3.172,4.482,5.71,5.768,6.767c1.278,1.057,5.337,3.172,7.902,4.229
    c2.563,1.057,6.841,2.325,9.615,2.325c2.777,0,3.844-0.845,5.981-1.057c2.14-0.212,4.7,1.057,4.7,1.057s1.709,1.482,3.421,4.021
    c1.71,2.535,4.056,5.919,5.126,7.61c1.069,1.691,6.409,2.537,9.187,2.537c2.776,0,10.042-1.269,12.178-2.537
    s0.855-2.748,0.855-2.748s0.214-1.27,0.855-2.963c0.64-1.688,0.853-5.497,1.064-6.977c0.219-1.481,0.646-3.171,1.072-4.44
    c0.428-1.269,3.843-1.48,6.406-2.537c2.565-1.057,5.771-3.383,6.626-4.228c0.852-0.849,5.77-3.594,6.408-4.654
    c0.643-1.057,2.565-5.496,2.565-5.496s1.493-2.116,2.352-3.172c0.852-1.058,4.271-4.44,5.553-5.921
    c1.283-1.481,3.207-2.113,5.98-2.96c2.78-0.845,5.128-1.902,8.549-3.595c3.417-1.692,2.137-2.747,2.137-2.747
    s1.92-4.864,1.92-5.499c0-0.635-1.92-5.289-2.988-6.555c-1.068-1.269-3.848-8.458-3.848-8.458s-2.777-3.595-6.62-8.246
    c-3.847-4.653-2.995-5.498-2.995-6.767c0-1.27,2.995-3.595,3.846-4.739c0.854-1.145,5.128-3.507,6.196-4.776
    c1.07-1.268,3.634-3.382,3.634-3.382s1.492,2.537,2.775,4.439c1.283,1.904,3.634,3.172,5.77,3.384c2.137,0.21,6.411,0.634,8.333,0
    c1.919-0.635,5.339-3.172,5.98-5.499c0.644-2.325,0.854-3.171,1.067-4.229C717.801,555.759,718.228,553.223,717.585,551.956z"/>
  <text transform="matrix(1 0 0 1 514.2041 807)" opacity="0" font-family="'SimHei'" font-size="20">轮廓</text>
</g>
<g>
  <g>
    <path fill="#FFFFFF" stroke="#E60012" stroke-width="1.7926" d="M581.705,327.852c0,4.527-3.671,8.196-8.199,8.196
      c-4.523,0-8.192-3.669-8.192-8.196c0-4.526,3.669-8.195,8.192-8.195C578.034,319.657,581.705,323.326,581.705,327.852z"/>
    <rect x="538.008" y="337.417" fill="#E60012" width="70.998" height="29.568"/>
    <g>
      <g>
        <path fill="#FFFFFF" d="M557.024,351.304c-0.504,0.56-0.896,1.09-1.175,1.594c-1.063-0.894-2.265-1.706-3.607-2.433
          c0.336-0.447,0.643-0.95,0.923-1.51C554.563,349.793,555.85,350.577,557.024,351.304z M556.018,358.854
          c-0.672,1.51-1.203,2.74-1.594,3.691c-0.504-0.448-1.175-0.868-2.014-1.258c0.503-0.56,1.133-1.565,1.888-3.02
          c0.755-1.454,1.355-2.824,1.804-4.111c0.614,0.448,1.201,0.812,1.762,1.09C557.303,356.142,556.688,357.344,556.018,358.854z
           M557.611,346.521c-0.616,0.503-1.119,0.952-1.51,1.342c-0.839-1.006-1.846-1.984-3.021-2.936
          c0.391-0.335,0.782-0.726,1.175-1.174C555.374,344.592,556.492,345.515,557.611,346.521z M569.775,345.012
          c0.727,0,1.51-0.027,2.349-0.084v1.678c-1.063-0.055-1.901-0.084-2.517-0.084v14.178c0,0.839-0.28,1.384-0.839,1.636
          c-0.56,0.252-1.426,0.461-2.601,0.629c-0.057-0.56-0.364-1.204-0.923-1.93c1.229,0.055,2.014,0.042,2.349-0.042
          c0.336-0.083,0.504-0.405,0.504-0.964v-13.507h-6.544c-0.895,0-1.901,0.029-3.02,0.084v-1.678
          c1.118,0.057,2.125,0.084,3.02,0.084H569.775z M565.581,353.988c0,2.181,0.027,3.58,0.084,4.195h-1.678v-1.342h-3.021v2.433
          h-1.678c0.111-0.671,0.168-2.292,0.168-4.866c0-2.628-0.029-4.39-0.084-5.285h6.292
          C565.608,350.186,565.581,351.807,565.581,353.988z M563.987,355.33v-4.698h-3.021v4.698H563.987z"/>
        <path fill="#FFFFFF" d="M578.5,351.136v8.221c0,1.063,0.027,2.152,0.083,3.272h-1.594c0.056-1.12,0.084-2.209,0.084-3.272
          v-6.795c-0.392,1.566-1.119,3.16-2.181,4.782c-0.336-0.503-0.728-0.923-1.175-1.258c0.894-1.286,1.565-2.475,2.014-3.565
          c0.446-1.091,0.755-2.194,0.923-3.314c-0.784,0-1.539,0.057-2.266,0.168v-1.51c0.783,0.057,1.678,0.084,2.685,0.084v-2.097
          c0-0.839-0.028-1.678-0.084-2.517h1.678c-0.112,0.671-0.167,1.51-0.167,2.517v2.097c0.726,0,1.453-0.027,2.181-0.084v1.426
          c-0.728-0.055-1.455-0.084-2.181-0.084v1.426c0.391-0.223,0.698-0.419,0.923-0.587c0.558,1.007,1.117,2.042,1.678,3.104
          c-0.448,0.113-0.896,0.336-1.343,0.671C579.423,352.926,579.003,352.031,578.5,351.136z M587.308,345.263
          c-0.112,0.839-0.251,1.734-0.419,2.685h3.021c0.671,0,1.48-0.027,2.433-0.084v1.426c-0.952-0.055-2.098-0.084-3.439-0.084
          c0.167,1.007,0.629,1.917,1.384,2.727c0.755,0.812,1.888,1.468,3.397,1.972c-0.56,0.335-1.007,0.839-1.342,1.51
          c-0.839-0.447-1.623-1.007-2.35-1.678c-0.112,0.616-0.167,1.342-0.167,2.181v3.859c0,0.784,0.027,1.678,0.084,2.685h-1.595
          c0.056-0.671,0.084-1.566,0.084-2.685v-3.859c0-0.839-0.028-1.594-0.084-2.265h1.595c-1.288-1.229-2.098-2.712-2.434-4.446
          h-0.923c-0.616,1.791-1.342,3.133-2.181,4.027c0.839,0.113,1.453,0.168,1.846,0.168c-0.168,0.616-0.309,1.552-0.42,2.81
          c-0.112,1.258-0.35,2.405-0.713,3.439c-0.364,1.036-1.021,1.999-1.972,2.895c-0.56-0.503-1.174-0.839-1.846-1.007
          c1.511-1.007,2.419-2.433,2.727-4.278c0.307-1.846,0.405-3.131,0.294-3.859c-0.839,0.952-1.707,1.762-2.601,2.433
          c-0.28-0.391-0.784-0.783-1.51-1.174c1.51-0.839,2.613-1.733,3.313-2.685c0.698-0.95,1.216-1.873,1.552-2.769
          c-1.23,0-2.321,0.029-3.271,0.084v-1.426c1.007,0.057,2.236,0.084,3.691,0.084c0.111-1.007,0.195-1.846,0.251-2.517
          c-1.455,0.168-2.573,0.28-3.355,0.335c-0.168-0.503-0.392-0.95-0.671-1.342c0.559,0,1.789-0.097,3.691-0.293
          c1.9-0.195,3.635-0.545,5.201-1.049c0.223,0.56,0.53,1.147,0.923,1.762C590.831,344.789,589.433,344.928,587.308,345.263z"/>
      </g>
    </g>
    <polygon fill="#E60012" points="594.729,304.226 574.81,296.309 574.81,295.935 572.918,295.935 572.918,328.24 574.81,328.24 
      574.81,312.933    "/>
  </g>
  <g opacity="0">
    <g>
      <text transform="matrix(1 0 0 1 589.5 325.0938)" fill="#040000" font-family="'ArialMT'" font-size="15">1</text>
    </g>
    <rect x="515.063" y="283.74" fill="none" stroke="#000000" stroke-width="0.8469" width="100.5" height="89"/>
  </g>
</g>
<g>
  <g>
    <g>
      <polygon fill="#E60012" stroke="#E72922" stroke-width="0.9913" points="378.123,572.486 380.951,581.18 390.092,581.18 
        382.694,586.553 385.521,595.254 378.123,589.878 370.727,595.254 373.55,586.553 366.154,581.18 375.299,581.18      "/>
    </g>
    <g>
      <g>
        <path fill="#DD4422" d="M495.968,510.732H367.664c-4.385,0-7.936,3.404-7.936,7.604v30.42c0,4.201,3.551,7.606,7.936,7.606
          h10.488l10.011,16.424l9.375-16.424h98.43c4.385,0,7.938-3.405,7.938-7.606v-30.42
          C503.905,514.136,500.353,510.732,495.968,510.732z"/>
        <path fill="#E76E43" d="M494.406,512.599H369.613c-4.265,0-7.719,3.087-7.719,6.894v27.58c0,3.809,3.454,6.896,7.719,6.896
          h10.202l8.303,15.261l8.687-15.261h97.602c4.263,0,7.719-3.086,7.719-6.896v-27.58
          C502.125,515.687,498.669,512.599,494.406,512.599z"/>
      </g>
      <g>
        <path fill="#FFFFFF" d="M371.082,545.202c6.833-3.537,10.752-8.606,11.757-15.208h-7.055c-0.864,0.04-2.02,0.13-3.467,0.271
          v-2.833c1.246,0.131,2.402,0.211,3.467,0.241h7.22v-5.275c0-0.733-0.075-1.833-0.226-3.301l3.271,0.392
          c0.412,0.051,0.643,0.171,0.693,0.362c0.05,0.191-0.085,0.432-0.407,0.724c-0.371,0.261-0.548,0.939-0.527,2.035v5.064h8.004
          c0.653-0.01,1.823-0.09,3.512-0.241v2.804c-1.447-0.141-2.618-0.221-3.512-0.241h-7.566c2.542,6.994,7.009,11.807,13.399,14.439
          c-1.206,0.583-2.256,1.447-3.15,2.592c-5.948-4.24-9.837-8.531-11.666-12.872c-1.186,4.301-4.769,8.651-10.747,13.053
          C373.187,546.483,372.188,545.815,371.082,545.202z"/>
        <path fill="#FFFFFF" d="M425.222,522.79h-5.245v4.823h3.361c1.537-0.02,2.919-0.126,4.146-0.317
          c-0.151,0.995-0.231,2.376-0.241,4.145v10.491c0.02,1.909,0.11,3.381,0.271,4.416h-3.331c0.161-1.216,0.241-2.15,0.241-2.803
          v-0.166h-16.941v0.196c0,0.985,0.091,1.939,0.271,2.864h-3.331c0.161-1.045,0.251-2.412,0.271-4.1v-10.897
          c-0.01-1.688-0.101-3.069-0.271-4.145c1.296,0.201,2.673,0.307,4.13,0.317h3.09v-4.823h-5.275c-1.487,0-2.764,0.095-3.828,0.286
          v-2.939c1.105,0.171,2.381,0.266,3.828,0.286h18.855c1.468-0.03,2.743-0.125,3.829-0.286v2.969
          C427.955,522.915,426.679,522.81,425.222,522.79z M407.481,541.042h16.941v-11.124h-4.446v4.854
          c0.01,0.462,0.246,0.699,0.709,0.708c0.954-0.01,2.09-0.146,3.406-0.407c-0.342,0.924-0.558,1.924-0.648,2.999
          c-0.181,0.01-0.457,0.025-0.829,0.045c-0.633,0.03-1.07,0.045-1.311,0.045c-1.77,0.01-2.899-0.176-3.392-0.558
          c-0.271-0.19-0.458-0.467-0.558-0.829c-0.101-0.322-0.151-0.834-0.151-1.538v-5.321h-2.773c0.111,3.477-0.919,6.331-3.09,8.562
          c-0.924-0.633-2.1-1.15-3.526-1.553c2.492-1.236,3.768-3.572,3.828-7.009h-4.16V541.042z M414.43,522.79v4.823h2.773v-4.823
          H414.43z"/>
        <path fill="#FFFFFF" d="M453.846,533.626l2.351,0.316c-1.708-1.417-3.09-3.301-4.145-5.652h-0.211
          c-0.764,1.969-1.979,3.833-3.647,5.592l2.155,0.332c0.543,0.09,0.829,0.201,0.859,0.332c0.03,0.131,0.045,0.211,0.045,0.241
          c0,0.221-0.206,0.452-0.618,0.693c-0.141,0.03-0.221,0.392-0.241,1.085c0.171,4.542-1.477,8.184-4.943,10.927
          c-0.593-0.804-1.553-1.527-2.879-2.17c3.437-1.578,5.135-4.291,5.095-8.139c0-0.452-0.051-1.241-0.151-2.366
          c-0.01-0.11-0.02-0.196-0.03-0.256c-0.884,0.854-1.964,1.729-3.24,2.623c-0.492-0.844-1.337-1.628-2.532-2.351
          c0.04-0.01,0.091-0.03,0.15-0.061c0.081-0.03,0.146-0.05,0.196-0.06c-0.091-0.091-0.216-0.231-0.377-0.422
          c-0.804-0.894-1.392-1.517-1.764-1.869v11.365c-0.01,0.703,0.065,1.733,0.227,3.09h-3.24c0.15-1.397,0.221-2.427,0.211-3.09
          v-9.602c-0.664,1.356-1.498,2.789-2.502,4.296c-0.765-0.774-1.794-1.301-3.091-1.583c2.271-2.05,4.01-4.979,5.216-8.788h-1.04
          c-0.503-0.01-1.492,0.081-2.97,0.271v-2.864c1.478,0.191,2.467,0.281,2.97,0.271h1.417v-4.506
          c0.01-0.392-0.076-1.306-0.257-2.743l2.97,0.361c0.553,0.071,0.844,0.161,0.874,0.271c0.03,0.111,0.045,0.181,0.045,0.211
          c0,0.191-0.19,0.432-0.572,0.724c-0.171,0.131-0.257,0.533-0.257,1.206v4.477h0.618c0.673,0.021,1.673-0.07,3-0.271v2.864
          c-1.417-0.201-2.396-0.292-2.939-0.271h-0.679v0.919c1.598,1.246,2.904,2.347,3.919,3.301l-1.598,2.291
          c2.965-1.286,5.135-3.396,6.512-6.33h-1.417c-1.085,0-2.064,0.06-2.939,0.181v-2.773c1.417,0.181,2.396,0.271,2.939,0.271h2.186
          c0.271-0.955,0.457-2.085,0.558-3.392c-0.743,0.071-1.959,0.161-3.647,0.271c-0.583,0.03-1.015,0.055-1.296,0.075
          c-0.131-0.914-0.553-1.894-1.267-2.939c1.286,0.181,2.337,0.271,3.15,0.271c4.411-0.141,7.757-0.839,10.038-2.095l1.885,2.321
          c0.2,0.251,0.301,0.467,0.301,0.648c0,0.09-0.021,0.166-0.061,0.226c-0.08,0.101-0.226,0.151-0.437,0.151
          c-0.161,0-0.332-0.025-0.513-0.076c-0.15-0.05-0.312-0.075-0.482-0.075c-0.241,0-0.542,0.045-0.904,0.136
          c-1.195,0.271-2.441,0.487-3.738,0.648c-0.101,0.985-0.316,2.261-0.647,3.829h5.064c0.312-0.01,1.296-0.09,2.954-0.241v2.743
          c-1.236-0.11-2.211-0.171-2.924-0.181h-2.382c1.387,2.703,3.702,4.512,6.948,5.426c-0.895,0.583-1.638,1.513-2.23,2.789
          c-0.693-0.392-1.492-0.909-2.396-1.552c-0.061,0.03-0.136,0.095-0.227,0.196c-0.03,0.03-0.05,0.05-0.06,0.06
          c-0.201,0.211-0.302,0.664-0.302,1.357v7.099c-0.01,0.643,0.061,1.643,0.211,3h-3.24c0.15-1.367,0.221-2.367,0.211-3v-7.22
          C454.097,536.144,454.017,535.204,453.846,533.626z"/>
        <path fill="#FFFFFF" d="M466.688,533.943h1.478v-3.15c-0.392,0.01-1.347,0.101-2.864,0.271v-0.889
          c-0.824-0.683-1.823-1.125-2.999-1.326c2.662-2.261,4.577-5.657,5.742-10.189l2.684,1.266c0.462,0.241,0.686,0.477,0.67,0.708
          c-0.015,0.231-0.269,0.438-0.761,0.618c-0.161,0.081-0.417,0.493-0.769,1.236c-0.081,0.121-0.297,0.533-0.648,1.236h2.864
          c0.874-0.03,1.874-0.115,2.999-0.256v2.788c-1.316-0.15-2.306-0.236-2.969-0.256h-3.979c-0.613,1.025-1.126,1.849-1.537,2.472
          c0.673,0.061,1.205,0.09,1.598,0.09h3.301c0.854-0.04,1.823-0.13,2.909-0.271v2.743c-1.216-0.141-2.186-0.221-2.909-0.241
          h-0.618v3.15h1.206c0.804-0.04,1.783-0.135,2.938-0.286v2.758c-0.08-0.01-0.195-0.02-0.347-0.03
          c-1.547-0.151-2.401-0.226-2.562-0.226h-1.236v5.155c0.965-0.733,1.935-1.557,2.909-2.472c0.171,1.155,0.427,2.105,0.769,2.849
          c-2.924,2.21-4.753,3.733-5.486,4.567l-2.08-2.623c0.553-0.372,0.879-0.673,0.979-0.904c0.141-0.231,0.206-0.673,0.196-1.327
          v-5.245h-1.478c-0.342,0-1.321,0.07-2.938,0.211v-2.683C465.095,533.837,466.075,533.923,466.688,533.943z M475.49,546.966
          c-0.422-0.864-1.186-1.638-2.291-2.321c3.296-0.854,5.622-2.14,6.979-3.858h-2.502c-0.281,0-1.302,0.096-3.06,0.286v-2.788
          c1.005,0.13,1.758,0.206,2.261,0.226v-13.46h4.868v-1.266h-3.512c-0.171,0-0.794,0.05-1.869,0.151
          c-0.503,0.04-0.869,0.07-1.101,0.09v-2.804c1.096,0.141,2.085,0.231,2.97,0.271h3.512l-0.211-2.894l2.773,0.362
          c0.361,0.07,0.598,0.241,0.708,0.512c0.011,0.041,0.016,0.096,0.016,0.166c0,0.211-0.105,0.397-0.316,0.558
          c-0.141,0.121-0.211,0.553-0.211,1.296h3.889c0.874-0.04,1.858-0.13,2.954-0.271v2.804c-0.181-0.02-0.468-0.045-0.859-0.076
          c-1.226-0.11-1.924-0.166-2.095-0.166h-3.889v1.266h5.049v13.46h0.03c0.784-0.03,1.703-0.125,2.758-0.287v2.819
          c-1.567-0.171-2.486-0.256-2.758-0.256h-3.24c2.311,1.156,4.341,2.391,6.089,3.708l-1.703,2.321
          c-2.02-1.718-4.181-3.09-6.481-4.115l1.326-1.914h-4.627l1.613,1.206c0.411,0.322,0.617,0.583,0.617,0.784
          c0,0.03-0.018,0.101-0.053,0.211c-0.035,0.11-0.359,0.201-0.972,0.271c-0.222-0.02-0.693,0.216-1.417,0.708
          C479.117,545.152,477.369,546.152,475.49,546.966z M486.84,528.441v-1.236h-7.25v1.236H486.84z M479.59,531.772h7.25v-1.161
          h-7.25V531.772z M486.84,535.074v-1.131h-7.25v1.131H486.84z M479.59,537.244v1.266h7.25v-1.266H479.59z"/>
      </g>
    </g>
  </g>
  <g opacity="0">
    <g>
      <text transform="matrix(1 0 0 1 405.5 588.5)" fill="#040000" font-family="'ArialMT'" font-size="15">0</text>
    </g>
    <rect x="352" y="498" fill="none" stroke="#000000" stroke-width="1.1452" width="156.506" height="104.5"/>
  </g>
</g>
<g>
  <g>
    <path fill="#FFFFFF" stroke="#E60012" stroke-width="1.6886" d="M600.041,584.278c0,4.264-3.453,7.719-7.723,7.719
      c-4.263,0-7.716-3.455-7.716-7.719c0-4.263,3.453-7.721,7.716-7.721C596.588,576.557,600.041,580.015,600.041,584.278z"/>
    <rect x="514.204" y="570.352" fill="#00A0E9" width="66.879" height="27.852"/>
    <g>
      <g>
        <path fill="#0B318F" d="M538.685,577.709c0-1.422-0.027-2.423-0.079-3.003h1.738c-0.053,0.58-0.079,1.581-0.079,3.003h5.216
          c0.896,0,1.844-0.026,2.845-0.079v1.422c-0.948-0.052-1.896-0.079-2.845-0.079h-5.216v2.924h3.636
          c1.211,0,2.213-0.026,3.003-0.079v1.422c-0.79-0.052-1.792-0.079-3.003-0.079h-8.298c-1.317,0-2.529,0.027-3.636,0.079v-1.422
          c1.106,0.053,2.318,0.079,3.636,0.079h3.082v-2.924h-4.741c-1.106,0-2.24,0.027-3.398,0.079v-1.422
          c1.158,0.053,2.265,0.079,3.319,0.079H538.685z M545.639,587.587v2.45c0,0.896,0.026,1.765,0.079,2.608h-1.58v-1.265h-9.483
          v1.501h-1.581c0.052-0.843,0.079-1.687,0.079-2.529v-2.766c0-0.842-0.027-1.66-0.079-2.45h12.645
          C545.665,585.928,545.639,586.745,545.639,587.587z M544.138,590.116v-3.714h-9.483v3.714H544.138z"/>
        <path fill="#0B318F" d="M567.607,588.219c0,1.897,0.026,3.424,0.079,4.583h-1.659v-1.264h-12.486v1.186h-1.659
          c0.052-1.001,0.079-2.476,0.079-4.426c0-1.948-0.027-3.424-0.079-4.425h15.726V588.219z M566.027,587.113v-1.976h-12.486v1.976
          H566.027z M566.027,590.195v-1.818h-12.486v1.818H566.027z M566.186,578.578c0,1.371,0.025,2.582,0.079,3.635H553.62
          c0.052-1.053,0.079-2.265,0.079-3.635c0-1.369-0.027-2.555-0.079-3.556h12.645C566.211,576.023,566.186,577.209,566.186,578.578
          z M564.763,578.104v-1.738H555.2v1.738H564.763z M564.763,580.87v-1.501H555.2v1.501H564.763z"/>
      </g>
    </g>
    <polygon fill="#E60012" points="613.261,563.032 594.496,555.575 594.496,555.219 592.715,555.219 592.715,585.654 
      594.496,585.654 594.496,571.235     "/>
  </g>
  <g>
    <g opacity="0">
      <text transform="matrix(1 0 0 1 610.5 587.4639)" fill="#040000" font-family="'ArialMT'" font-size="15">3</text>
    </g>
    <rect x="508.506" y="548.5" opacity="0" fill="none" stroke="#000000" stroke-width="0.7566" width="120.994" height="59"/>
  </g>
</g>
<g>
  <g>
    <path fill="#FFFFFF" stroke="#E60012" stroke-width="1.8163" d="M315.066,477.608c0,4.585-3.715,8.303-8.304,8.303
      c-4.584,0-8.3-3.718-8.3-8.303c0-4.585,3.716-8.305,8.3-8.305C311.351,469.304,315.066,473.023,315.066,477.608z"/>
    <rect x="265.784" y="489.079" fill="#FFF100" width="71.93" height="29.957"/>
    <g>
      <g>
        <path d="M278.961,502.003c-0.199,0.312-0.609,1.12-1.232,2.422h7.905c1.36,0,2.465-0.028,3.315-0.085v1.53
          c-0.907-0.056-1.984-0.085-3.23-0.085h-0.85c-0.625,1.644-1.475,3.117-2.55,4.419c2.096,0.794,4.25,1.814,6.46,3.06
          c-0.397,0.453-0.794,0.991-1.19,1.615c-2.097-1.417-4.279-2.578-6.545-3.485c-1.417,1.077-3.032,1.912-4.845,2.507
          c-1.814,0.595-3.315,1.005-4.505,1.232c-0.227-0.68-0.567-1.275-1.02-1.785c1.756-0.114,3.413-0.425,4.972-0.935
          c1.558-0.51,2.763-1.076,3.613-1.7c-1.7-0.623-3.685-1.19-5.95-1.7c0.906-1.246,1.586-2.323,2.04-3.229h-2.125
          c-0.68,0-1.644,0.029-2.89,0.085v-1.53c0.68,0.057,1.615,0.085,2.805,0.085h2.805c0.735-1.36,1.303-2.72,1.7-4.08
          c0.68,0.397,1.331,0.68,1.955,0.85C279.372,501.423,279.16,501.693,278.961,502.003z M279.004,494.991
          c0.623,0.794,1.246,1.672,1.87,2.635c-0.34,0.17-0.709,0.425-1.105,0.765h7.82c-0.057,0.794-0.085,1.445-0.085,1.955
          c0,0.51,0.028,1.19,0.085,2.04h-1.785v-2.635h-12.58v2.465h-1.785c0.056-0.792,0.085-1.473,0.085-2.04
          c0-0.565-0.057-1.161-0.17-1.785h7.82c-0.454-0.963-0.964-1.756-1.53-2.38C278.154,495.671,278.607,495.331,279.004,494.991z
           M280.704,509.611c0.793-0.736,1.558-2.011,2.295-3.825h-5.78c-0.455,0.68-0.935,1.474-1.445,2.38
          C278.097,508.79,279.74,509.271,280.704,509.611z"/>
        <path d="M292.689,511.948c0.396-0.935,0.68-1.983,0.85-3.145c0.17-1.161,0.283-2.79,0.34-4.887c0.056-2.096,0.056-4.108,0-6.035
          h7.48c-0.057-0.68-0.255-1.5-0.595-2.465c0.68-0.056,1.303-0.141,1.87-0.255c0.396,1.134,0.68,2.04,0.85,2.72h2.805
          c1.416,0,2.805-0.028,4.165-0.085v1.7c-1.304-0.056-2.692-0.085-4.165-0.085h-10.625c0,3.23-0.057,5.625-0.17,7.182
          c-0.114,1.559-0.355,3.032-0.723,4.42c-0.369,1.389-0.922,2.791-1.658,4.208c-0.68-0.397-1.304-0.709-1.87-0.935
          C291.81,513.662,292.292,512.883,292.689,511.948z M303.994,503.321v1.275h3.06c0.963,0,1.813-0.028,2.55-0.085v1.7
          c-0.737-0.056-1.587-0.085-2.55-0.085h-3.06v6.12h3.655c1.133,0,2.181-0.028,3.145-0.085v1.785
          c-1.02-0.057-2.04-0.085-3.06-0.085h-9.095c-1.077,0-2.182,0.028-3.315,0.085v-1.785c1.246,0.057,2.351,0.085,3.315,0.085h3.655
          v-6.12h-2.295c-1.02,0-1.984,0.029-2.89,0.085v-1.7c0.906,0.057,1.87,0.085,2.89,0.085h2.295v-1.275
          c0-0.963-0.029-1.926-0.085-2.89h1.955C304.049,501.451,303.994,502.415,303.994,503.321z"/>
        <path d="M321.503,498.476c0-1.303-0.029-2.323-0.085-3.06h1.955c-0.057,0.68-0.085,1.7-0.085,3.06h7.31
          c0.396,0,1.02-0.028,1.87-0.085v1.7c-0.85-0.056-1.474-0.085-1.87-0.085h-7.31v6.375l4.59-0.17c0-2.096-0.029-3.626-0.085-4.59
          h1.87c-0.114,0.907-0.17,2.21-0.17,3.91c0,1.7,0.056,2.947,0.17,3.74h-1.785v-1.615l-4.59,0.17v4.165
          c0,0.737,0.51,1.076,1.53,1.02h4.505c0.623,0,1.048-0.24,1.275-0.723c0.226-0.48,0.396-1.203,0.51-2.167
          c0.566,0.455,1.218,0.794,1.955,1.02c-0.454,1.53-0.879,2.479-1.275,2.848c-0.397,0.368-1.275,0.552-2.635,0.552h-5.185
          c-1.587,0.056-2.409-0.51-2.465-1.7v-5.015l-6.035,0.34c0.056-0.623,0.085-1.7,0.085-3.23c0-1.586-0.029-2.72-0.085-3.4h1.87
          c-0.057,0.68-0.085,2.352-0.085,5.015l4.25-0.17v-6.375h-5.27c-1.02,0-1.984,0.029-2.89,0.085v-1.7
          c0.906,0.057,1.87,0.085,2.89,0.085H321.503z"/>
      </g>
    </g>
    <polygon fill="#E60012" points="328.242,455.167 308.06,447.146 308.06,446.766 306.142,446.766 306.142,479.497 308.06,479.497 
      308.06,463.99     "/>
  </g>
  <g opacity="0">
    <g>
      <text transform="matrix(1 0 0 1 263.5 474.2676)" fill="#040000" font-family="'ArialMT'" font-size="15">2</text>
    </g>
    <rect x="245.5" y="432.762" fill="none" stroke="#000000" stroke-width="0.8469" width="100.5" height="89"/>
  </g>
</g></svg>  
