  <svg version="1.0" id="图层_1" xmlns="http://www.w3.org/2000/svg" xmlns:xlink="http://www.w3.org/1999/xlink" x="0px" y="0px" width="100%" height="100%" viewBox="0 0 720 1280" xml:space="preserve"
  style="position: relative;display: block;"
  ><g>
	<g>
		<path opacity="0.6" fill="#FFFFFF" stroke="#00A0E9" stroke-width="4.8692" d="M131.762,807.217
			c4.668,6.225,25.674,15.561,45.121,21.781c19.446,6.225,21.78,3.892,49.786,0.778c28.004-3.111,30.336,17.895,44.341,26.45
			c14.002,8.559,33.449,73.124,33.449,73.124s0,0,14.781-0.778c14.779-0.775,105.018,13.227,107.35,14.002
			c2.335,0.779,46.676-27.226,46.676-27.226c49.01-20.225,41.231-56.788,41.231-56.788l9.331-7.78c0,0,9.337-7.778,14.783-12.445
			c5.444-4.667,14.261-24.117,14.261-24.117v-18.151c-23.857,10.373-30.597-44.859-40.712-55.748
			c-10.113-10.891-49.786-38.898-49.786-38.898c7.002-23.336,49.013-13.222,66.901-16.334c17.894-3.111,21.003-3.889,28.004-6.224
			c7.001-2.336,7.781-8.56,12.45-16.336c4.665-7.781,10.111-21.784,11.667-24.891c1.557-3.115,6.221-19.451,7.778-22.562
			c1.555-3.11,1.555-8.559,12.448-18.669c10.889-10.116,64.564-59.901,70.791-65.347c6.222-5.444,8.553-12.446,15.555-25.67
			s10.114-17.115,21.785-32.673c11.665-15.558,7.778-16.335,7-38.895c-0.776-22.56-7.78-23.337-15.56-36.562
			c-7.778-13.224-28.78-19.449-28.78-19.449c-54.456,0.779-52.122-31.115-52.122-31.115c3.111-35.006-14.003-82.199-14.52-89.46
			c-0.52-7.262-2.595-6.223-2.595-6.223s-2.073-7.778-2.595-9.853c-0.515-2.074-3.109-9.335-2.88-10.891
			c0.229-1.556-0.749-7.779-0.229-12.965c0.519-5.187,0-10.891,0-13.483c0-2.594-2.074-15.557-2.593-17.115
			c-0.518-1.556-6.222-7.778-6.222-7.778l-11.929-30.6l-2.336-10.372l-2.334-8.038l-4.664-6.483l-13.651-16.741
			c-0.165,0.82-0.89,4.244-1.907,6.628c-1.169,2.721-7.004,3.501-11.865-0.973c-4.865-4.473-11.085,0.583-11.085,0.583
			s-2.139,3.11-6.223,0.779c-4.085-2.334-18.671-2.334-21.394-1.751c-2.725,0.584-4.474,8.751-4.474,12.251
			c0,3.502-3.306,8.947-14.586,15.753c-0.229,0.141-0.456,0.286-0.673,0.437c-10.467,7.222-7.106,27.373-7.106,27.373l-2.138,0.196
			l-5.643,0.39c-9.138,0.194-10.694,8.945-10.694,8.945c-6.807-0.388-8.362,1.945-8.362,1.945
			c-1.946,4.861-12.837,14.196-12.837,14.196c-8.944,8.168-22.363,2.14-22.363,2.14c-7.974-7.001-13.227-3.501-13.227-3.501
			c-4.666,2.334-2.723,9.334-3.307,10.502c-0.582,1.167-10.306,13.613-10.306,13.613c-10.696,12.448-5.644,22.754-3.112,26.45
			c2.529,3.695,4.472,10.308,7.975,15.363c3.499,5.056,2.918,10.501,2.721,15.753c-0.195,5.251-2.33,10.307-6.416,14.975
			c-4.085,4.667-15.946,10.308-16.92,12.836c-0.971,2.528-0.582,6.224,2.529,8.168c3.109,1.945,7.778,19.06,7.973,19.642
			c0.193,0.583,4.472,7.584,4.08,13.614c-0.385,6.029-8.166-3.307-8.166-3.307c-8.168-8.167-11.277-1.557-11.277-0.584
			c0,0.974-0.39,7.195-0.39,9.142c0,1.944-4.082-0.974-4.082-0.974c-1.56-2.917-5.642-2.333-5.642-2.333
			c-6.029-0.196-5.833,4.472-5.833,4.472s-3.697-2.14-6.029-3.695c-2.335-1.555-5.834-2.917-8.752-3.305
			c-2.917-0.389-5.834,1.75-5.834,1.75c-3.109,14.197-8.75,5.639-10.502,1.75c-1.748-3.889-3.305-5.833-5.055-7.197
			c-1.75-1.36-10.309-0.778-11.28-0.778c-0.973,0-0.779-1.359-3.11-4.084c-2.337-2.723-0.777-6.418-1.363-13.029
			c-0.584-6.613-11.083-4.862-11.083-4.862c-5.643,2.141-6.809,9.918-6.809,9.918c-5.641,17.698,5.057,28.004,5.057,28.004
			l5.444,2.917l2.333,4.474l1.168,6.223c4.666,24.115-17.504,16.531-17.504,16.531c-9.333-9.142-15.559-4.474-15.559-4.474
			c-6.221,4.668,4.474,12.446,4.474,12.446c9.336,6.224,5.64,21.394,5.64,21.394c-0.197,15.947-20.615,15.753-20.615,15.753
			c-36.173,2.527-47.26,23.335-47.26,23.335c-8.555,19.45-15.362,14.199-24.113,14.394c-0.286,0.004-0.562,0.016-0.829,0.031
			c-7.998,0.45-9.09,4.637-9.09,4.637c-7.778,12.836-21.199,7-23.533,7.195c-2.332,0.195-10.112-0.195-12.251,1.75
			c-2.141,1.944-4.862,4.861-7.196,6.223c-2.335,1.361-10.307,7.196-12.254,7.973c-1.944,0.778-0.516-0.196-8.036-6.936
			c-0.335-0.299-0.668-0.579-0.999-0.836c-7.106-5.589-13.263-2.274-13.263-2.274c-9.076,0.517-7.52,12.186-7.52,12.186
			s4.147,2.855,3.369,8.038c-0.778,5.188-5.186,1.815-8.298,2.333c-3.112,0.52-15.296-2.592-18.67-1.294
			c-3.371,1.295-7,1.814-10.112,3.629c-3.112,1.817-4.928,3.37-8.557,5.966c-3.631,2.592-3.629,3.629-4.926,5.442
			c-1.298,1.816-3.37,5.968-3.37,5.968s-1.04,1.296-2.594,3.629c-1.557,2.334-2.595,4.148-3.371,4.925
			c-0.779,0.779-2.334,0.779-8.041,1.556c-5.703,0.779-5.185,1.038-7.779,2.855c-2.59,1.814-2.072,4.666-3.11,8.296
			c-1.037,3.629-2.334,9.076-3.372,12.447c-1.038,3.37-1.037,8.038-1.037,10.89s2.333,8.558,4.149,11.669
			c1.814,3.111,6.483,7.78,9.335,9.336c2.852,1.553,5.187,0.258,9.854-0.52c4.667-0.777,4.406-1.036,4.406-1.036
			s1.297-0.259,4.408-1.297c3.113-1.036,5.188-2.072,5.188-2.072h2.333l3.113,3.11c0,0,0,0,1.295,0.777
			c1.298,0.778,4.149,1.816,4.927,2.334c0.779,0.518,3.111,2.074,3.111,3.37c0,1.297,10.891,3.629,10.891,3.629
			c15.04,1.558,9.595,8.817,10.112,10.894c0.521,2.073-1.553,7.257-3.112,9.854c-1.553,2.592-2.332,3.372-5.703,7.518
			c-3.372,4.149,2.333,5.963,2.333,5.963c3.371-4.665,29.819-8.296,34.487-6.74c4.668,1.555,1.296,2.332,0.52,6.74
			c-0.779,4.411,1.814,9.855,4.148,12.449c2.333,2.592,4.408,5.963,5.964,8.815c1.555,2.852-1.298,4.148-2.852,5.445
			c-1.557,1.297-2.595,6.224-2.595,6.224s1.038,7.779,3.891,10.891c2.852,3.112,3.887,7.782,3.887,7.782s0,0-0.516,2.849
			c-0.521,2.854-2.594,3.89-4.15,6.484c-1.555,2.592-2.595,5.187-2.074,5.963c0.52,0.778,2.332,7.004,2.332,9.596
			c0,2.591-1.554,7.517-2.332,8.556c-0.78,1.039-2.852,5.446-2.852,5.446s5.704,2.854,7.52,4.145
			c1.814,1.299,4.925,3.376,8.039,5.19c3.111,1.816,4.927-2.336,4.927-2.336l3.11-2.854c0,0,3.112,1.559,3.631,2.337
			c0.519,0.779,2.85,6.743,2.85,6.743v4.664l-8.295,0.781c0,0-2.075,0.26-3.632,0.521c-1.554,0.259-6.481,1.553-9.592,3.108
			c-3.11,1.555-2.852,2.592-3.889,4.151c-1.037,1.554-1.815,4.146-1.815,6.999c0,2.854,1.557,8.816,1.815,11.67
			c0.26,2.852,0.259,4.146-2.595,4.146c-2.059,0-6.137,0-8.248,0C112.477,789.101,128.556,802.941,131.762,807.217z"/>
		
			<text transform="matrix(1 0 0 1 661.8008 459.1665)" opacity="0" fill="#040000" enable-background="new    " font-family="'SimHei'" font-size="20">轮廓</text>
	</g>
	<g>
		<g>
			<g>
				<g>
					<path d="M257.541,663.145c0,0.42,0.015,1.288,0.045,2.605l-0.719,0.27c0.03-2.006,0.045-3.923,0.045-5.749
						c-0.479,1.138-1.048,2.126-1.707,2.964l-0.135-0.09c0.898-1.676,1.497-3.293,1.796-4.851h-0.09
						c-0.509,0-0.928,0.045-1.257,0.135l-0.404-0.404h1.796c0-0.898-0.015-1.751-0.045-2.56l1.033,0.449l-0.359,0.314v1.796h0.27
						l0.449-0.449l0.718,0.719h-1.437v1.078c0.539,0.3,0.921,0.547,1.146,0.741c0.224,0.195,0.336,0.397,0.336,0.606
						c0,0.12-0.03,0.255-0.09,0.404s-0.105,0.225-0.135,0.225c-0.089,0-0.209-0.165-0.359-0.494c-0.21-0.449-0.51-0.868-0.898-1.258
						V663.145z M260.281,661.888l0.854,0.673l-0.449,0.18c-1.078,1.288-1.931,2.141-2.56,2.561l-0.09-0.135
						C258.963,664.208,259.711,663.115,260.281,661.888z M258.933,660.899h5.3l0.539-0.539l0.809,0.809h-3.099v3.772
						c-0.03,0.479-0.345,0.823-0.943,1.033c0.03-0.33-0.404-0.645-1.302-0.943v-0.18c0.658,0.09,1.093,0.127,1.302,0.112
						c0.209-0.016,0.314-0.187,0.314-0.517v-3.278h-1.437c-0.39,0-0.749,0.045-1.078,0.135L258.933,660.899z M264.009,658.474
						l0.404-1.033h-4.536c0.09,0.51,0.037,0.847-0.157,1.011c-0.195,0.165-0.367,0.225-0.517,0.18
						c-0.15-0.045-0.225-0.097-0.225-0.157c0-0.119,0.075-0.27,0.225-0.449c0.239-0.299,0.389-0.748,0.449-1.348h0.18l0.045,0.494
						h4.536l0.314-0.449l0.764,0.719c-0.359,0-0.809,0.359-1.347,1.078L264.009,658.474z M259.652,659.058h3.638l0.494-0.494
						l0.763,0.764h-3.413c-0.449,0-0.809,0.045-1.078,0.135L259.652,659.058z M261.269,655.51l0.09-0.09
						c0.509,0.239,0.838,0.441,0.988,0.606c0.149,0.164,0.225,0.307,0.225,0.427c0,0.149-0.06,0.299-0.18,0.448
						c-0.12,0.15-0.21,0.225-0.27,0.225c-0.09,0-0.15-0.119-0.18-0.359C261.853,656.408,261.628,655.989,261.269,655.51z
						 M263.021,662.201l0.09-0.134c0.988,0.688,1.617,1.183,1.886,1.481c0.27,0.3,0.404,0.555,0.404,0.764
						c0,0.15-0.053,0.33-0.157,0.539c-0.105,0.209-0.188,0.314-0.247,0.314c-0.09,0-0.165-0.105-0.225-0.314
						c-0.15-0.389-0.359-0.801-0.628-1.235C263.874,663.183,263.499,662.711,263.021,662.201z"/>
					<path d="M269.129,660.001c0,3.144,0.015,5.06,0.045,5.749l-0.719,0.27c0.03-1.377,0.045-3.1,0.045-5.165
						c-0.509,1.107-1.093,2.021-1.751,2.739l-0.135-0.09c0.868-1.317,1.497-2.934,1.886-4.851h-1.123l-0.404,0.09l-0.359-0.359
						h1.886c0-0.778-0.015-1.751-0.045-2.919l1.078,0.539l-0.404,0.27v2.11h0.449l0.494-0.494l0.763,0.764h-1.707v1.123
						c0.629,0.27,1.033,0.494,1.212,0.674c0.18,0.18,0.27,0.359,0.27,0.539c0,0.12-0.038,0.255-0.112,0.404
						s-0.127,0.225-0.157,0.225c-0.089,0-0.179-0.104-0.269-0.314C269.922,660.975,269.607,660.54,269.129,660.001z
						 M270.117,657.261h2.47l0.359-0.404l0.718,0.584l-0.404,0.27c-0.24,1.108-0.569,2.201-0.988,3.279
						c0.329,0.509,0.539,0.898,0.629,1.167c0.09,0.27,0.134,0.51,0.134,0.719c0,0.21-0.044,0.39-0.134,0.539
						c-0.09,0.15-0.15,0.225-0.18,0.225c-0.09,0-0.18-0.194-0.27-0.584c-0.15-0.568-0.314-1.093-0.494-1.571
						c-0.689,1.228-1.482,2.186-2.38,2.874l-0.09-0.135c0.838-0.868,1.557-1.961,2.156-3.278c-0.33-0.719-0.659-1.393-0.988-2.021
						l0.135-0.09c0.239,0.33,0.599,0.869,1.078,1.617c0.27-0.688,0.523-1.662,0.764-2.92h-1.662l-0.494,0.09L270.117,657.261z
						 M274.923,655.51l1.123,0.539l-0.449,0.27v1.976h0.359l0.494-0.494l0.764,0.764h-1.617v6.423
						c-0.061,0.419-0.42,0.733-1.078,0.943c0-0.39-0.509-0.749-1.527-1.078v-0.18c0.658,0.12,1.16,0.18,1.504,0.18
						c0.344,0,0.501-0.18,0.472-0.539v-5.749h-0.988l-0.404,0.09l-0.359-0.359h1.752
						C274.968,657.396,274.952,656.468,274.923,655.51z M273.216,659.866c0.479,0.42,0.793,0.771,0.943,1.056
						c0.149,0.284,0.225,0.517,0.225,0.696s-0.061,0.344-0.18,0.494c-0.12,0.149-0.195,0.224-0.225,0.224
						c-0.12,0-0.21-0.194-0.27-0.583c-0.09-0.569-0.299-1.168-0.629-1.797L273.216,659.866z"/>
					<path d="M278.336,665.121l-0.09-0.135c1.497-1.497,2.53-3.413,3.099-5.749h-1.393c-0.39,0-0.749,0.045-1.078,0.135
						l-0.404-0.404h2.83l0.404-0.539l0.808,0.719l-0.449,0.225C281.315,662.037,280.072,663.953,278.336,665.121z M282.962,655.51
						l1.168,0.494l-0.449,0.359c-0.03,0.688,0.029,1.272,0.18,1.751c0.149,0.479,0.389,1.063,0.718,1.752
						c1.168-0.958,1.961-1.781,2.381-2.471l0.763,0.809c-0.299,0.03-0.673,0.21-1.123,0.539c-0.479,0.33-1.123,0.779-1.932,1.348
						c1.168,2.245,2.485,3.608,3.953,4.087v0.18c-0.569,0.03-0.914,0.21-1.033,0.539c-1.827-1.348-3.129-3.533-3.907-6.558v6.288
						c0.029,0.748-0.33,1.213-1.078,1.393c0.03-0.42-0.434-0.749-1.392-0.988v-0.18c0.688,0.06,1.16,0.09,1.415,0.09
						c0.254,0,0.382-0.18,0.382-0.539v-7.231C283.007,656.603,282.992,656.049,282.962,655.51z"/>
					<path d="M289.654,665.93c0.539-1.049,0.891-2.036,1.055-2.965c0.165-0.928,0.254-2.013,0.27-3.256
						c0.015-1.242-0.007-2.283-0.067-3.121l0.719,0.403h6.737l0.673-0.583l0.854,0.853h-8.264c0.029,2.846-0.112,4.807-0.427,5.884
						c-0.314,1.078-0.786,2.036-1.415,2.875L289.654,665.93z M296.211,663.504c0,0.988,0.015,1.707,0.045,2.156l-0.673,0.314
						c0.029-0.629,0.045-1.452,0.045-2.471h-2.515c-0.359,0-0.704,0.045-1.033,0.135l-0.404-0.404h3.953v-1.526h-2.021l-0.359,0.359
						l-0.494-0.539l0.27-0.18c0.329-0.599,0.644-1.287,0.943-2.066h-0.674c-0.359,0-0.704,0.045-1.033,0.135l-0.404-0.404h2.201
						c0.239-0.688,0.389-1.258,0.449-1.707l0.809,0.449c-0.12,0.061-0.345,0.479-0.674,1.258h3.414l0.629-0.539l0.808,0.809h-4.94
						c-0.27,0.689-0.584,1.408-0.943,2.156h2.021c0-0.748-0.016-1.303-0.045-1.662l1.033,0.449l-0.404,0.314v0.898h1.213
						l0.629-0.584l0.853,0.854h-2.695v1.526h2.156l0.628-0.629l0.898,0.898H296.211z M294.415,655.42
						c0.568,0.18,0.943,0.345,1.123,0.494s0.262,0.307,0.247,0.472c-0.016,0.164-0.067,0.299-0.157,0.403
						c-0.09,0.105-0.165,0.157-0.225,0.157c-0.061,0-0.135-0.09-0.225-0.27c-0.12-0.269-0.39-0.643-0.809-1.122L294.415,655.42z"/>
				</g>
			</g>
			<g>
				<g>
					<g>
						<g>
							<path fill="#1D2088" d="M174.881,605.387c0.958,0.39,1.459,0.674,1.504,0.854s0.067,0.33,0.067,0.449
								c0,0.21-0.053,0.375-0.157,0.494c-0.105,0.12-0.172,0.18-0.202,0.18c-0.12,0-0.225-0.135-0.314-0.404
								c-0.15-0.389-0.479-0.883-0.988-1.482L174.881,605.387z M178.385,604.579c-0.898,3.114-1.386,4.858-1.46,5.232
								c-0.075,0.375-0.12,0.824-0.135,1.347c-0.016,0.523-0.008,0.891,0.022,1.101c0,0.119-0.061,0.18-0.18,0.18
								c-0.12,0-0.277-0.038-0.472-0.112c-0.195-0.075-0.292-0.232-0.292-0.472c0-0.21,0.03-0.419,0.09-0.629
								c0.09-0.299,0.135-0.539,0.135-0.719s-0.06-0.329-0.18-0.449s-0.404-0.24-0.853-0.359v-0.18
								c0.539,0.06,0.875,0.075,1.01,0.045c0.135-0.03,0.284-0.187,0.449-0.472c0.165-0.284,0.726-1.804,1.685-4.559
								L178.385,604.579z M175.914,602.737c0.809,0.39,1.258,0.682,1.348,0.876c0.09,0.195,0.135,0.322,0.135,0.382
								c0,0.15-0.061,0.307-0.18,0.472c-0.12,0.165-0.195,0.247-0.225,0.247c-0.09,0-0.18-0.134-0.27-0.404
								c-0.15-0.389-0.449-0.868-0.898-1.438L175.914,602.737z M182.786,602.198l0.943,0.674c-0.27,0.09-0.539,0.33-0.809,0.719
								c-0.27,0.39-0.555,0.824-0.854,1.302h1.393l0.673-0.628l0.809,0.898h-3.279v1.662h1.438l0.629-0.584l0.763,0.854h-2.83v2.021
								h2.066l0.718-0.629l0.764,0.898h-3.548c0,1.557,0.015,2.544,0.045,2.964l-0.718,0.314c0.029-0.539,0.045-1.632,0.045-3.279
								h-1.752c-0.389,0-0.749,0.045-1.078,0.135l-0.404-0.404h3.234v-1.976h-0.898c-0.39,0-0.749,0.045-1.078,0.135l-0.404-0.404
								h2.381v-1.707h-1.123c-0.39,0-0.749,0.045-1.078,0.135l-0.404-0.404h3.369C182.307,603.695,182.636,602.797,182.786,602.198z
								 M179.058,602.512l0.09-0.135c0.658,0.359,1.085,0.645,1.28,0.854c0.194,0.21,0.292,0.404,0.292,0.584
								c0,0.15-0.053,0.314-0.157,0.494c-0.105,0.18-0.188,0.27-0.247,0.27c-0.12,0-0.225-0.15-0.314-0.449
								C179.851,603.651,179.537,603.112,179.058,602.512z"/>
							<path fill="#1D2088" d="M188.086,605.342c0-1.527-0.015-2.56-0.045-3.099l1.078,0.494l-0.404,0.359v2.246h0.629l0.539-0.539
								l0.808,0.809h-1.976v3.773l1.841-0.629l0.09,0.18c-2.396,1.048-3.653,1.722-3.772,2.021l-0.539-0.853
								c0.599-0.18,1.183-0.359,1.751-0.539v-3.953h-0.359c-0.389,0-0.749,0.045-1.078,0.135l-0.404-0.404H188.086z
								 M192.892,612.708c0.03-0.779,0.045-1.407,0.045-1.887v-2.785h-1.662c-0.39,0-0.749,0.045-1.078,0.135l-0.404-0.404h3.144
								v-4.401h-1.078c-0.39,0-0.749,0.045-1.078,0.135l-0.404-0.404h4.626l0.583-0.584l0.854,0.854h-2.875v4.401h1.752l0.628-0.628
								l0.898,0.898h-3.279v2.605c0,0.479,0.015,1.078,0.045,1.797L192.892,612.708z M190.736,604.624l0.135-0.09
								c0.719,0.689,1.13,1.161,1.235,1.415c0.104,0.255,0.157,0.427,0.157,0.517c0,0.24-0.075,0.442-0.225,0.606
								c-0.15,0.165-0.24,0.247-0.27,0.247c-0.15,0-0.255-0.225-0.314-0.674C191.365,606.046,191.125,605.372,190.736,604.624z
								 M195.317,604.309l0.943,0.718c-0.24,0.03-0.524,0.3-0.854,0.809c-0.359,0.539-0.749,1.033-1.167,1.482l-0.135-0.09
								C194.673,606.271,195.077,605.297,195.317,604.309z"/>
							<path fill="#1D2088" d="M197.967,611.81l-0.09-0.135c1.497-1.497,2.53-3.414,3.099-5.749h-1.393
								c-0.39,0-0.749,0.045-1.078,0.135l-0.404-0.404h2.83l0.404-0.539l0.808,0.719l-0.449,0.225
								C200.946,608.726,199.703,610.642,197.967,611.81z M202.593,602.198l1.168,0.494l-0.449,0.359
								c-0.03,0.689,0.029,1.273,0.18,1.751c0.149,0.479,0.389,1.063,0.718,1.752c1.168-0.958,1.961-1.781,2.381-2.47l0.763,0.808
								c-0.299,0.03-0.673,0.21-1.123,0.539c-0.479,0.33-1.123,0.779-1.932,1.348c1.168,2.246,2.485,3.608,3.953,4.087v0.18
								c-0.569,0.03-0.914,0.21-1.033,0.539c-1.827-1.348-3.129-3.533-3.907-6.558v6.288c0.029,0.748-0.33,1.213-1.078,1.393
								c0.03-0.42-0.434-0.749-1.392-0.988v-0.18c0.688,0.06,1.16,0.09,1.415,0.09c0.254,0,0.382-0.18,0.382-0.539v-7.231
								C202.638,603.292,202.623,602.737,202.593,602.198z"/>
							<path fill="#1D2088" d="M209.285,612.618c0.539-1.049,0.891-2.036,1.055-2.964c0.165-0.928,0.254-2.014,0.27-3.256
								c0.015-1.242-0.007-2.283-0.067-3.122l0.719,0.404h6.737l0.673-0.584l0.854,0.854h-8.264
								c0.029,2.845-0.112,4.806-0.427,5.884c-0.314,1.078-0.786,2.036-1.415,2.875L209.285,612.618z M215.842,610.192
								c0,0.988,0.015,1.707,0.045,2.156l-0.673,0.314c0.029-0.629,0.045-1.452,0.045-2.471h-2.515
								c-0.359,0-0.704,0.045-1.033,0.135l-0.404-0.404h3.953v-1.527h-2.021l-0.359,0.359l-0.494-0.539l0.27-0.18
								c0.329-0.599,0.644-1.287,0.943-2.066h-0.674c-0.359,0-0.704,0.045-1.033,0.135l-0.404-0.404h2.201
								c0.239-0.688,0.389-1.257,0.449-1.707l0.809,0.449c-0.12,0.06-0.345,0.479-0.674,1.257h3.414l0.629-0.539l0.808,0.809h-4.94
								c-0.27,0.689-0.584,1.408-0.943,2.156h2.021c0-0.748-0.016-1.302-0.045-1.662l1.033,0.449l-0.404,0.314v0.898h1.213
								l0.629-0.584l0.853,0.854h-2.695v1.527h2.156l0.628-0.629l0.898,0.898H215.842z M214.046,602.108
								c0.568,0.18,0.943,0.345,1.123,0.494c0.18,0.15,0.262,0.308,0.247,0.472c-0.016,0.165-0.067,0.3-0.157,0.404
								c-0.09,0.105-0.165,0.157-0.225,0.157c-0.061,0-0.135-0.09-0.225-0.27c-0.12-0.27-0.39-0.644-0.809-1.123L214.046,602.108z"
								/>
						</g>
					</g>
					<path fill="#00A0E9" d="M223.771,600.331c0,0,4.78,10.543,1.533,12.284c-3.246,1.741-11.698,2.251-11.698,2.251v11.432
						l2.311,11.599l2.004,7.635l1.534,2.751l2.604,4.984l3.246,2.479l1.132,7.072v4.776h-2.665l-7.855,4.774h-3.455l9.597,10.462
						l6.632,3.575l4.633-5.617l0.764-3.576l4.313-0.51c0,0,1.428,2.552,3.577,5.108c2.148,2.556,2.148,4.595,2.148,4.595
						l3.983,4.882h2.558l3.577,3.066l5.622,3.807l8.547,5.112v2.647l4.739,3.803h3.583l5.85,5.85h3.981h8.047l8.172,5.848
						l7.866,3.368l9.403-4.896l4.709-6.401l5.088-2.797h11.074l5.848-4.774v-2.135l5.146-2.641l9.893,4.921l-9.189-5.852h-3.174
						l-4.774,2.926h-4.776v4.988H329.85h-12.863l3.065,7.444l-5.569,4.32h-5.852h-5.848l-8.427-7.98h-7.792l-3.981-5.992
						l-11.699-4.775h-2.474l-7.016-6.392l-3.065-0.399l-4.6-7.895l-6.132-6.816v-6.198v-5.851c0,0-3.473-3.943-3.473-5.853
						c0-1.907,0-6.174,0-6.174l-10.038-2.302l-0.764-3.55h-8.02l-3.246-6.75v-10.817v-7.486l11.265-1.422l5.077-5.851v-5.851v-7.175
						l1.533-5.852l4.192-2.912l4.241-1.471l0.767-7.569l-5.007-4.801l-10.038-5.089l-5.54,5.535l-4.776,7.384v8.922"/>
				</g>
				<g>
					<g>
						<g>
							<path d="M391.1,775.931c-0.261,0.282-0.694,0.423-1.301,0.423h-5.071c-1.17,0.043-1.777-0.542-1.82-1.755v-2.275h-3.771
								v1.235h-1.495c0.043-0.434,0.064-1.929,0.064-4.486c0-2.557-0.021-4.226-0.064-5.006h5.266c0-1.17-0.022-2.081-0.064-2.73
								h1.43c-0.043,0.563-0.064,1.474-0.064,2.73h5.266c-0.043,0.65-0.064,1.994-0.064,4.03c0,1.994,0.021,3.403,0.064,4.227
								h-5.266v1.755c0,0.78,0.411,1.17,1.235,1.17h3.445c0.693,0,1.105-0.152,1.235-0.455s0.237-0.779,0.325-1.43
								c0.433,0.304,0.932,0.52,1.495,0.65C391.641,775.01,391.359,775.648,391.1,775.931z M382.907,767.577v-2.405h-3.771v2.405
								H382.907z M382.907,771.218v-2.601h-3.771v2.601H382.907z M388.108,767.577v-2.405h-3.9v2.405H388.108z M388.108,771.218
								v-2.601h-3.9v2.601H388.108z"/>
							<path d="M395.848,764.717c-0.13,0.434-0.314,0.965-0.553,1.593s-0.596,1.332-1.072,2.112v5.201
								c0,0.78,0.021,1.733,0.064,2.86h-1.3c0.043-1.214,0.065-2.188,0.065-2.925v-3.576c-0.435,0.607-1.041,1.258-1.821,1.95
								c-0.26-0.433-0.52-0.78-0.779-1.04c0.91-0.692,1.689-1.517,2.34-2.471c0.65-0.952,1.127-1.842,1.431-2.665h-1.625
								c-0.65,0-1.235,0.022-1.756,0.064v-1.17c0.65,0.044,1.235,0.065,1.756,0.065H395.848z M394.873,763.416
								c-0.304,0.218-0.694,0.478-1.171,0.78c-0.347-0.78-0.78-1.517-1.3-2.211c0.39-0.216,0.736-0.455,1.04-0.715
								C394.005,762.095,394.482,762.81,394.873,763.416z M396.563,770.503c-0.347,0.173-0.693,0.434-1.04,0.779
								c-0.39-0.779-0.802-1.517-1.235-2.21c0.303-0.217,0.606-0.455,0.91-0.715C395.718,769.095,396.173,769.81,396.563,770.503z
								 M401.309,766.569c-0.043,0.889-0.174,2.135-0.39,3.738h1.17c-0.044,0.434-0.064,1.019-0.064,1.755v1.756
								c0,0.65,0.151,0.986,0.455,1.008c0.303,0.022,0.649,0.032,1.04,0.032c0.433,0,0.704-0.086,0.813-0.26
								c0.107-0.173,0.205-0.716,0.293-1.626c0.476,0.304,0.931,0.499,1.365,0.586c-0.304,1.603-0.803,2.405-1.496,2.405h-2.601
								c-0.693-0.044-1.04-0.499-1.04-1.365v-3.901c-0.52,1.388-1.104,2.493-1.755,3.316s-1.539,1.668-2.666,2.535
								c-0.347-0.391-0.737-0.673-1.17-0.846c1.213-0.737,2.167-1.56,2.86-2.47s1.181-1.863,1.463-2.861
								c0.281-0.996,0.444-1.992,0.487-2.99c0.043-0.996,0.021-1.95-0.064-2.86c0.52,0.087,1.062,0.174,1.625,0.26
								C401.46,765.085,401.352,765.682,401.309,766.569z M404.234,764.651v3.576c0,0.779,0.021,1.582,0.065,2.405h-1.235v-7.412
								h-4.616v7.477h-1.235c0.043-0.736,0.065-1.538,0.065-2.405v-3.575c0-0.91-0.022-1.756-0.065-2.536h7.087
								C404.256,762.875,404.234,763.698,404.234,764.651z"/>
							<path d="M410.868,763.676c-0.649,0.78-1.582,1.8-2.795,3.056c1.17-0.042,2.361-0.098,3.575-0.162
								c1.213-0.065,2.708-0.163,4.486-0.293c-0.348-0.52-1.063-1.256-2.146-2.21c0.347-0.217,0.692-0.542,1.04-0.976
								c1.646,1.69,3.099,3.251,4.355,4.682c-0.477,0.26-0.889,0.585-1.234,0.975c-0.391-0.606-0.759-1.062-1.105-1.365
								c-2.168,0.13-4.302,0.271-6.404,0.423c-2.103,0.152-3.565,0.38-4.388,0.683c-0.174-0.823-0.391-1.387-0.65-1.69
								c0.606-0.173,1.419-0.78,2.438-1.82s1.939-2.318,2.764-3.836c0.606,0.478,1.126,0.803,1.561,0.976
								C412.017,762.376,411.519,762.896,410.868,763.676z M417.63,772.973c0,1.431,0.021,2.536,0.065,3.316h-1.431v-0.91h-7.997
								v0.975h-1.43c0.042-0.65,0.064-1.646,0.064-2.99c0-1.387-0.022-2.644-0.064-3.771h10.857
								C417.651,770.372,417.63,771.5,417.63,772.973z M416.265,774.144v-3.316h-7.997v3.316H416.265z"/>
						</g>
					</g>
					<rect x="407.869" y="742.119" width="11.75" height="10.428"/>
					<rect x="413.045" y="722.783" width="1.632" height="21.856"/>
				</g>
				<g>
					<g>
						<g>
							<path fill="#1D2088" d="M334.267,884.537h5.735l0.642-0.562l0.722,0.803h-5.856c-0.294,0-0.588,0.04-0.882,0.12
								L334.267,884.537z M337.194,880.085l-0.401,2.607h3.088l0.562-3.771h-4.051c-0.348,0-0.668,0.04-0.962,0.121l-0.361-0.361
								h5.334l0.321-0.361l0.562,0.521l-0.321,0.201l-0.521,3.649h1.404l0.361-0.441l0.642,0.521l-0.361,0.321
								c-0.188,1.738-0.355,2.821-0.501,3.249c-0.147,0.427-0.321,0.708-0.521,0.842c-0.2,0.134-0.542,0.254-1.022,0.361
								c0.053-0.375-0.375-0.749-1.284-1.123l0.04-0.161c0.588,0.161,1.036,0.269,1.344,0.321c0.307,0.054,0.528,0.026,0.662-0.08
								s0.254-0.395,0.361-0.862c0.106-0.468,0.227-1.37,0.361-2.707h-5.134l-0.321,0.32l-0.562-0.521l0.321-0.24
								c0.267-1.765,0.401-2.821,0.401-3.169l0.962,0.441L337.194,880.085z"/>
							<path fill="#1D2088" d="M348.104,882.492c0,0.722,0.013,1.203,0.04,1.443l-0.521,0.241v-0.361H346.7v1.243h1.043l0.441-0.44
								l0.642,0.682H346.7c0,0.937,0.013,1.604,0.04,2.005l-0.562,0.281c0.026-0.856,0.041-1.617,0.041-2.286h-0.762
								c-0.348,0-0.669,0.04-0.963,0.12l-0.361-0.361h2.086v-1.243h-1.003v0.241l-0.562,0.24c0.026-0.401,0.04-0.802,0.04-1.203
								s-0.014-0.803-0.04-1.203l0.642,0.28h0.923v-1.163h-0.441v0.2l-0.521,0.161c0.026-0.508,0.04-1.029,0.04-1.564
								c-0.16,0-0.388,0.04-0.682,0.12l-0.361-0.36h1.042c0-0.455-0.014-0.896-0.04-1.324l0.802,0.401l-0.281,0.2v0.723h1.364
								c0-0.455-0.014-0.896-0.04-1.324l0.802,0.441l-0.281,0.16v0.723h0.16l0.361-0.361l0.562,0.602h-1.083
								c0,0.481,0.013,0.909,0.04,1.283l-0.521,0.201v-0.281H346.7v1.163h0.882l0.321-0.32l0.481,0.48L348.104,882.492z
								 M345.216,882.412v1.163h1.003v-1.163H345.216z M345.778,879.805v0.963h1.364v-0.963H345.778z M346.7,882.412v1.163h0.923
								v-1.163H346.7z M349.027,884.818c0.374-0.828,0.642-1.484,0.802-1.966h-0.16c-0.348,0-0.669,0.04-0.963,0.121l-0.361-0.361
								h1.524c0.267-0.909,0.414-1.551,0.441-1.925l0.802,0.44l-0.281,0.201l-0.441,1.283h2.046l0.441-0.441l0.642,0.682h-1.123
								c-0.321,1.178-0.629,2.033-0.923,2.567c0.642,0.321,1.116,0.608,1.424,0.862c0.307,0.255,0.435,0.481,0.381,0.682
								c-0.054,0.201-0.121,0.301-0.201,0.301c-0.107,0-0.268-0.134-0.481-0.4c-0.348-0.428-0.776-0.803-1.283-1.123
								c-0.348,0.428-0.829,0.796-1.444,1.103c-0.616,0.307-1.364,0.527-2.246,0.662v-0.12c0.909-0.241,1.61-0.521,2.105-0.843
								c0.495-0.321,0.889-0.655,1.183-1.003C350.564,885.326,349.936,885.086,349.027,884.818z M352.355,881.008l0.321-0.963
								h-3.329c0.026,0.401-0.02,0.676-0.141,0.822c-0.12,0.147-0.261,0.221-0.421,0.221c-0.054,0-0.127-0.013-0.221-0.04
								c-0.094-0.026-0.141-0.066-0.141-0.12s0.081-0.16,0.241-0.321c0.241-0.24,0.401-0.642,0.481-1.203h0.161l0.04,0.401h3.208
								l0.401-0.401l0.642,0.642c-0.241,0.055-0.435,0.154-0.582,0.301c-0.147,0.147-0.328,0.382-0.542,0.702L352.355,881.008z
								 M350.35,882.853c-0.268,0.669-0.535,1.298-0.802,1.886c0.455,0.134,0.963,0.308,1.524,0.521
								c0.267-0.562,0.535-1.364,0.802-2.407H350.35z M350.31,878.16c0.508,0.24,0.822,0.435,0.943,0.582
								c0.12,0.146,0.18,0.261,0.18,0.341c0,0.134-0.04,0.261-0.12,0.381c-0.081,0.12-0.134,0.181-0.161,0.181
								c-0.08,0-0.147-0.106-0.201-0.321c-0.107-0.294-0.348-0.655-0.722-1.083L350.31,878.16z"/>
							<path fill="#1D2088" d="M362.103,886.102c0-2.486,0-3.863,0-4.131s-0.014-0.668-0.04-1.203l0.962,0.44l-0.36,0.361
								c0,2.487,0,3.885,0,4.191c0,0.308,0.013,0.676,0.04,1.104l-0.602,0.28v-0.802h-5.776l-0.361,0.4l-0.562-0.562l0.32-0.28
								c0-2.38,0-3.703,0-3.971s-0.014-0.655-0.04-1.163l0.923,0.4l-0.321,0.281v4.652h2.527c0-3.851,0-5.942,0-6.276
								c0-0.335-0.014-0.809-0.04-1.425l0.963,0.441l-0.361,0.281v6.979H362.103z"/>
							<path fill="#1D2088" d="M364.95,886.783l-0.08-0.12c1.337-1.337,2.259-3.048,2.768-5.134h-1.243
								c-0.349,0-0.669,0.04-0.963,0.12l-0.361-0.36h2.527l0.36-0.481l0.723,0.642l-0.401,0.2
								C367.61,884.03,366.501,885.741,364.95,886.783z M369.081,878.2l1.043,0.441l-0.4,0.32c-0.027,0.616,0.026,1.138,0.16,1.564
								c0.134,0.429,0.347,0.95,0.642,1.564c1.043-0.855,1.751-1.591,2.126-2.206l0.682,0.722c-0.268,0.027-0.602,0.188-1.003,0.481
								c-0.428,0.295-1.003,0.696-1.725,1.203c1.043,2.006,2.22,3.223,3.529,3.65v0.16c-0.508,0.027-0.815,0.188-0.922,0.481
								c-1.632-1.203-2.795-3.154-3.489-5.855v5.615c0.026,0.668-0.295,1.083-0.963,1.243c0.026-0.375-0.388-0.669-1.243-0.883
								v-0.16c0.614,0.054,1.035,0.08,1.263,0.08s0.342-0.16,0.342-0.481v-6.457C369.122,879.177,369.107,878.682,369.081,878.2z"/>
							<path fill="#1D2088" d="M375.058,887.506c0.481-0.937,0.795-1.818,0.942-2.647c0.146-0.828,0.227-1.798,0.24-2.908
								c0.014-1.109-0.007-2.038-0.06-2.787l0.642,0.36h6.017l0.602-0.521l0.762,0.762h-7.38c0.026,2.541-0.101,4.292-0.381,5.254
								c-0.281,0.963-0.702,1.818-1.264,2.567L375.058,887.506z M380.913,885.34c0,0.882,0.014,1.524,0.04,1.925l-0.602,0.281
								c0.026-0.562,0.04-1.297,0.04-2.206h-2.246c-0.32,0-0.628,0.04-0.922,0.12l-0.361-0.361h3.529v-1.363h-1.805l-0.32,0.321
								l-0.441-0.481l0.24-0.161c0.294-0.534,0.575-1.149,0.843-1.845h-0.602c-0.321,0-0.629,0.04-0.923,0.12l-0.361-0.36h1.966
								c0.214-0.615,0.347-1.123,0.401-1.524l0.722,0.401c-0.107,0.054-0.308,0.428-0.602,1.123h3.048l0.562-0.481l0.722,0.722
								h-4.411c-0.241,0.615-0.521,1.257-0.843,1.926h1.805c0-0.669-0.014-1.164-0.04-1.484l0.923,0.401l-0.361,0.28v0.803h1.083
								l0.562-0.521l0.763,0.762h-2.407v1.363h1.926l0.562-0.562l0.802,0.803H380.913z M379.309,878.12
								c0.508,0.16,0.843,0.308,1.003,0.441s0.234,0.274,0.221,0.421c-0.014,0.147-0.061,0.268-0.141,0.361s-0.147,0.14-0.2,0.14
								c-0.054,0-0.12-0.08-0.2-0.24c-0.107-0.24-0.349-0.575-0.723-1.003L379.309,878.12z"/>
						</g>
					</g>
					<polygon fill="#00A0E9" points="304.459,858.848 313.209,858.848 316.146,864.072 320.411,866.813 327.969,874.286 
						331.484,877.517 320.411,877.517 311.881,874.286 306.72,866.813 					"/>
					<circle fill="#1D2088" cx="448.127" cy="877.517" r="6.476"/>
					<path fill="#1D2088" d="M452.124,872.427h3.942l7.06-1.389l6.401-2.855l2.732-2.53c0,0-7.99,6.911-18.023,9.729
						C444.2,878.203,452.124,872.427,452.124,872.427z"/>
				</g>
			</g>
		</g>
		<g>
			<g>
				<g>
					<g>
						<g>
							<path fill="#1D2088" d="M504.417,325.92c0-0.535-0.015-1.056-0.041-1.564l0.923,0.441l-0.32,0.321v0.802h0.962l0.562-0.562
								l0.803,0.802h-2.326v4.533h1.203l0.682-0.682l0.923,0.922h-8.063c-0.348,0-0.669,0.041-0.963,0.121l-0.36-0.361h2.728v-4.533
								h-0.883c-0.348,0-0.669,0.041-0.963,0.121l-0.36-0.361h2.206c0-0.428-0.014-0.936-0.04-1.524l0.922,0.401l-0.32,0.24v0.883
								H504.417z M501.689,331.054l0.802,0.682c-0.214,0.027-0.669,0.295-1.363,0.802c-0.723,0.508-1.524,0.909-2.407,1.203
								l-0.08-0.12c0.535-0.294,1.123-0.696,1.765-1.203C501.048,331.91,501.475,331.455,501.689,331.054z M501.689,326.16v1.284
								h2.728v-1.284H501.689z M501.689,327.685v1.324h2.728v-1.324H501.689z M501.689,329.249v1.444h2.728v-1.444H501.689z
								 M503.976,331.334l0.12-0.121c1.551,0.722,2.399,1.184,2.547,1.384c0.146,0.201,0.221,0.395,0.221,0.582
								c0,0.107-0.027,0.227-0.08,0.361c-0.054,0.133-0.107,0.2-0.161,0.2c-0.106,0-0.254-0.12-0.44-0.361
								C505.887,332.979,505.151,332.297,503.976,331.334z"/>
							<path fill="#1D2088" d="M511.396,328.326c0,2.995,0.013,4.719,0.04,5.174l-0.642,0.321c0.026-1.284,0.04-2.928,0.04-4.934
								c-0.509,1.017-1.203,1.965-2.086,2.848l-0.08-0.12c1.069-1.39,1.791-2.914,2.166-4.572h-1.324l-0.32,0.08l-0.321-0.321h1.966
								c0-0.882-0.014-1.698-0.04-2.447l0.962,0.481l-0.36,0.281v1.685h0.36l0.441-0.441l0.682,0.682h-1.483v1.083
								c0.588,0.295,0.962,0.535,1.123,0.722c0.16,0.188,0.24,0.348,0.24,0.481c0,0.107-0.04,0.241-0.12,0.401
								c-0.08,0.161-0.147,0.241-0.2,0.241c-0.081,0-0.161-0.133-0.241-0.401C512.063,329.195,511.796,328.781,511.396,328.326z
								 M514.604,333.781c0.026-1.337,0.04-3.195,0.04-5.575c-0.695,1.524-1.618,2.754-2.767,3.69l-0.081-0.121
								c1.257-1.31,2.14-2.901,2.647-4.773h-0.842l-0.361,0.081l-0.321-0.321h1.725c0-0.963-0.014-1.765-0.04-2.407l0.963,0.441
								l-0.361,0.24v1.725h1.204l0.521-0.521l0.762,0.762h-2.366c0.642,2.246,1.563,3.624,2.768,4.131v0.161
								c-0.481,0-0.763,0.134-0.843,0.401c-1.017-1.123-1.698-2.633-2.046-4.532c0,3.744,0.014,5.842,0.041,6.297L514.604,333.781z"
								/>
							<path fill="#1D2088" d="M519.097,333.019l-0.08-0.121c1.337-1.336,2.259-3.048,2.768-5.134h-1.243
								c-0.349,0-0.669,0.04-0.963,0.121l-0.361-0.361h2.527l0.36-0.481l0.723,0.642l-0.401,0.201
								C521.757,330.265,520.647,331.976,519.097,333.019z M523.228,324.436l1.043,0.441l-0.4,0.321
								c-0.027,0.615,0.026,1.137,0.16,1.564s0.347,0.949,0.642,1.564c1.043-0.855,1.751-1.59,2.126-2.206l0.682,0.722
								c-0.268,0.027-0.602,0.188-1.003,0.481c-0.428,0.294-1.003,0.695-1.725,1.203c1.043,2.005,2.22,3.223,3.529,3.65v0.16
								c-0.508,0.027-0.815,0.188-0.922,0.481c-1.632-1.203-2.795-3.155-3.489-5.856v5.615c0.026,0.668-0.295,1.083-0.963,1.244
								c0.026-0.375-0.388-0.669-1.243-0.882v-0.161c0.614,0.053,1.035,0.08,1.263,0.08s0.342-0.16,0.342-0.481v-6.458
								C523.269,325.412,523.254,324.917,523.228,324.436z"/>
							<path fill="#1D2088" d="M529.204,333.741c0.481-0.936,0.795-1.818,0.942-2.647c0.146-0.829,0.227-1.798,0.24-2.908
								c0.014-1.109-0.007-2.039-0.06-2.788l0.642,0.361h6.017l0.602-0.521l0.762,0.762h-7.38c0.026,2.541-0.101,4.292-0.381,5.254
								c-0.281,0.962-0.702,1.818-1.264,2.567L529.204,333.741z M535.06,331.575c0,0.882,0.014,1.524,0.04,1.925l-0.602,0.281
								c0.026-0.562,0.04-1.297,0.04-2.206h-2.246c-0.32,0-0.628,0.04-0.922,0.12l-0.361-0.361h3.529v-1.364h-1.805l-0.32,0.321
								l-0.441-0.481l0.24-0.16c0.294-0.535,0.575-1.149,0.843-1.845h-0.602c-0.321,0-0.629,0.04-0.923,0.121l-0.361-0.361h1.966
								c0.214-0.615,0.347-1.123,0.401-1.524l0.722,0.401c-0.107,0.054-0.308,0.428-0.602,1.123h3.048l0.562-0.481l0.722,0.722
								h-4.411c-0.241,0.616-0.521,1.257-0.843,1.925h1.805c0-0.668-0.014-1.163-0.04-1.484l0.923,0.401l-0.361,0.281v0.802h1.083
								l0.562-0.521l0.763,0.762h-2.407v1.364h1.926l0.562-0.562l0.802,0.802H535.06z M533.455,324.355
								c0.508,0.161,0.843,0.308,1.003,0.441s0.234,0.274,0.221,0.421c-0.014,0.147-0.061,0.268-0.141,0.361
								c-0.08,0.094-0.147,0.141-0.2,0.141c-0.054,0-0.12-0.08-0.2-0.241c-0.107-0.241-0.349-0.575-0.723-1.003L533.455,324.355z"/>
						</g>
					</g>
					<path fill="#1D2088" d="M522.235,348.073c0.913-3.345-3.203-10.648,0-10.191c3.202,0.458,6.255,3.325,6.096,5.085
						c-0.161,1.761,0.767,14.996-3.666,13.178c-4.434-1.82-11.303,8.662-11.303,8.662s-8.472-3.207-6.873-6.844l13.742-3.638"/>
				</g>
				<g>
					<g>
						<g>
							<path d="M581.862,448.208c-0.027,0.696-0.067,1.417-0.121,2.166h3.049l0.602-0.602l0.842,0.842h-3.971
								c0.241,0.695,0.668,1.363,1.284,2.005c0.614,0.642,1.51,1.123,2.687,1.444v0.12c-0.428,0.026-0.722,0.201-0.882,0.521
								c-0.722-0.375-1.384-0.876-1.985-1.504s-1.05-1.49-1.344-2.587h-0.321c-0.24,0.989-0.756,1.838-1.544,2.547
								c-0.789,0.708-1.825,1.263-3.108,1.665l-0.04-0.161c1.363-0.588,2.34-1.236,2.928-1.945c0.588-0.708,0.976-1.41,1.163-2.105
								h-2.768c-0.348,0-0.668,0.04-0.962,0.12l-0.361-0.361h4.131c0.054-0.588,0.081-1.31,0.081-2.166h-2.367
								c-0.348,0-0.668,0.04-0.962,0.12l-0.361-0.361h4.532c0.214-0.374,0.414-0.809,0.602-1.304
								c0.187-0.494,0.321-0.902,0.401-1.223l0.963,0.642l-0.481,0.201c-0.455,0.696-0.856,1.257-1.203,1.685h2.085l0.562-0.562
								l0.803,0.802H581.862z M579.255,445.641l0.08-0.121c0.535,0.295,0.936,0.562,1.203,0.802s0.401,0.468,0.401,0.682
								c0,0.134-0.047,0.281-0.141,0.441c-0.094,0.161-0.154,0.241-0.181,0.241c-0.106,0-0.228-0.187-0.36-0.562
								C580.043,446.59,579.709,446.096,579.255,445.641z"/>
							<path d="M587.196,451.457c0.454,0.107,0.742,0.16,0.862,0.16s0.254-0.12,0.401-0.361c0.146-0.241,0.755-1.631,1.824-4.171
								l0.201,0.08c-1.123,2.942-1.698,4.552-1.725,4.833c-0.027,0.281-0.04,0.488-0.04,0.622c0,0.321,0.026,0.668,0.08,1.042
								c0.053,0.562-0.014,0.842-0.201,0.842s-0.348-0.06-0.48-0.18c-0.135-0.121-0.201-0.274-0.201-0.461
								c0-0.08,0.026-0.214,0.08-0.401c0.08-0.375,0.121-0.708,0.121-1.003c0-0.294-0.321-0.562-0.963-0.802L587.196,451.457z
								 M587.477,446.082c1.043,0.535,1.585,0.896,1.625,1.083c0.04,0.188,0.06,0.321,0.06,0.401c0,0.214-0.047,0.361-0.14,0.441
								c-0.095,0.081-0.154,0.121-0.181,0.121c-0.135,0-0.268-0.187-0.401-0.562c-0.188-0.455-0.535-0.909-1.043-1.364
								L587.477,446.082z M590.565,451.657c0.026-0.722,0.04-1.43,0.04-2.125s-0.014-1.39-0.04-2.086l0.602,0.321h1.805
								c0-0.855-0.014-1.63-0.04-2.326l0.843,0.361l-0.241,0.281v1.685h1.765l0.361-0.441l0.642,0.521l-0.361,0.281
								c0,1.658,0.014,2.647,0.041,2.968l-0.603,0.241v-0.562h-1.845c0,2.166,0.014,3.436,0.04,3.811l-0.642,0.2
								c0.026-1.149,0.04-2.486,0.04-4.011h-1.805v0.642L590.565,451.657z M591.167,448.007v2.527h1.805v-2.527H591.167z
								 M593.533,448.007v2.527h1.845v-2.527H593.533z"/>
							<path d="M597.585,454.063l-0.08-0.121c1.337-1.336,2.259-3.048,2.768-5.134h-1.243c-0.349,0-0.669,0.04-0.963,0.121
								l-0.361-0.361h2.527l0.36-0.481l0.723,0.642l-0.401,0.201C600.245,451.31,599.136,453.021,597.585,454.063z M601.716,445.48
								l1.043,0.441l-0.4,0.321c-0.027,0.615,0.026,1.137,0.16,1.564s0.347,0.949,0.642,1.564c1.043-0.855,1.751-1.59,2.126-2.206
								l0.682,0.722c-0.268,0.027-0.602,0.188-1.003,0.481c-0.428,0.294-1.003,0.695-1.725,1.203c1.043,2.005,2.22,3.223,3.529,3.65
								v0.16c-0.508,0.027-0.815,0.188-0.922,0.481c-1.632-1.203-2.795-3.155-3.489-5.856v5.615
								c0.026,0.668-0.295,1.083-0.963,1.244c0.026-0.375-0.388-0.669-1.243-0.882v-0.161c0.614,0.053,1.035,0.08,1.263,0.08
								s0.342-0.16,0.342-0.481v-6.458C601.757,446.457,601.742,445.961,601.716,445.48z"/>
							<path d="M607.692,454.785c0.481-0.936,0.795-1.818,0.942-2.647c0.146-0.829,0.227-1.798,0.24-2.908
								c0.014-1.109-0.007-2.039-0.06-2.788l0.642,0.361h6.017l0.602-0.521l0.762,0.762h-7.38c0.026,2.541-0.101,4.292-0.381,5.254
								c-0.281,0.962-0.702,1.818-1.264,2.567L607.692,454.785z M613.548,452.62c0,0.882,0.014,1.524,0.04,1.925l-0.602,0.281
								c0.026-0.562,0.04-1.297,0.04-2.206h-2.246c-0.32,0-0.628,0.04-0.922,0.12l-0.361-0.361h3.529v-1.364h-1.805l-0.32,0.321
								l-0.441-0.481l0.24-0.16c0.294-0.535,0.575-1.149,0.843-1.845h-0.602c-0.321,0-0.629,0.04-0.923,0.121l-0.361-0.361h1.966
								c0.214-0.615,0.347-1.123,0.401-1.524l0.722,0.401c-0.107,0.054-0.308,0.428-0.602,1.123h3.048l0.562-0.481l0.722,0.722
								h-4.411c-0.241,0.616-0.521,1.257-0.843,1.925h1.805c0-0.668-0.014-1.163-0.04-1.484l0.923,0.401l-0.361,0.281v0.802h1.083
								l0.562-0.521l0.763,0.762h-2.407v1.364h1.926l0.562-0.562l0.802,0.802H613.548z M611.943,445.4
								c0.508,0.161,0.843,0.308,1.003,0.441s0.234,0.274,0.221,0.421c-0.014,0.147-0.061,0.268-0.141,0.361
								c-0.08,0.094-0.147,0.141-0.2,0.141c-0.054,0-0.12-0.08-0.2-0.241c-0.107-0.241-0.349-0.575-0.723-1.003L611.943,445.4z"/>
						</g>
					</g>
					<polygon fill="#1D2088" points="554.727,456 573.944,459.167 567.761,434.021 					"/>
				</g>
			</g>
			<g>
				<g>
					<g>
						<path d="M119.695,497.822c-0.822,0.822-1.864,1.611-3.127,2.369v-1.8c1.579-1.073,2.874-2.336,3.885-3.79h1.137v16.298h-1.895
							V497.822z"/>
						<path d="M125.525,505.355c0.062-0.915,0.237-1.689,0.521-2.322c0.284-0.63,0.71-1.421,1.279-2.369l3.885-6.064h2.18
							l-3.98,6.254c1.706-0.441,3.063-0.379,4.075,0.189c1.01,0.568,1.689,1.217,2.037,1.942c0.347,0.727,0.536,1.516,0.569,2.369
							c0.031,0.853-0.095,1.691-0.379,2.511c-0.284,0.821-0.791,1.563-1.516,2.227c-0.727,0.664-1.738,1.027-3.032,1.09
							c-1.295,0.063-2.401-0.173-3.316-0.711c-0.917-0.536-1.549-1.294-1.895-2.274C125.603,507.22,125.461,506.272,125.525,505.355
							z M128.462,508.482c0.568,0.601,1.326,0.933,2.274,0.995c0.948,0.063,1.737-0.252,2.369-0.948
							c0.63-0.694,0.947-1.706,0.947-3.032s-0.395-2.242-1.184-2.748c-0.791-0.505-1.675-0.694-2.653-0.568
							c-0.98,0.127-1.691,0.601-2.132,1.421c-0.442,0.822-0.632,1.691-0.568,2.605C127.577,507.125,127.894,507.883,128.462,508.482
							z"/>
						<path d="M135.428,506.256c0-0.758,0.19-1.5,0.569-2.227c0.379-0.726,1.01-1.31,1.895-1.753
							c-0.758-0.441-1.264-0.931-1.516-1.469c-0.253-0.536-0.396-1.152-0.426-1.848c-0.033-0.694,0.062-1.294,0.284-1.801
							c0.221-0.505,0.552-0.979,0.995-1.421c0.441-0.441,0.931-0.742,1.469-0.9c0.536-0.157,1.121-0.237,1.753-0.237
							c0.631,0,1.199,0.063,1.706,0.189c0.505,0.127,1.042,0.395,1.611,0.805c0.568,0.412,0.979,0.995,1.232,1.753
							c0.251,0.758,0.237,1.643-0.047,2.653c-0.284,1.011-1.028,1.801-2.227,2.369c1.074,0.317,1.832,0.805,2.274,1.469
							c0.441,0.663,0.663,1.469,0.663,2.417c0,0.947-0.142,1.706-0.426,2.274s-0.601,1.042-0.948,1.421
							c-0.348,0.379-0.822,0.68-1.421,0.9c-0.601,0.222-1.359,0.332-2.274,0.332c-0.917,0-1.706-0.11-2.369-0.332
							c-0.663-0.221-1.217-0.552-1.658-0.995c-0.442-0.441-0.743-0.962-0.9-1.563C135.507,507.693,135.428,507.014,135.428,506.256z
							 M137.371,506.161c-0.033,0.758,0.095,1.421,0.379,1.99c0.284,0.568,0.806,0.933,1.563,1.09
							c0.758,0.158,1.547,0.142,2.369-0.048c0.82-0.189,1.389-0.63,1.706-1.326c0.315-0.695,0.426-1.389,0.332-2.085
							c-0.095-0.694-0.49-1.279-1.185-1.753c-0.696-0.474-1.454-0.678-2.274-0.616c-0.822,0.063-1.501,0.348-2.038,0.853
							C137.687,504.772,137.402,505.403,137.371,506.161z M137.703,498.77c0,0.632,0.221,1.231,0.663,1.8
							c0.441,0.568,1.137,0.853,2.085,0.853c0.947,0,1.658-0.284,2.132-0.853c0.474-0.569,0.694-1.247,0.664-2.038
							c-0.033-0.789-0.317-1.374-0.853-1.753c-0.538-0.379-1.264-0.536-2.179-0.474c-0.917,0.063-1.563,0.332-1.943,0.805
							C137.892,497.585,137.703,498.139,137.703,498.77z"/>
						<path d="M146.091,510.52c0.062-0.947,0.505-1.8,1.327-2.558c0.82-0.758,1.862-1.943,3.127-3.554
							c1.263-1.611,2.084-2.857,2.463-3.743c0.379-0.884,0.521-1.642,0.427-2.274c-0.095-0.63-0.396-1.152-0.9-1.563
							c-0.506-0.41-1.09-0.583-1.753-0.521c-0.664,0.063-1.295,0.317-1.895,0.758c-0.601,0.443-1.059,1.106-1.374,1.99l-1.8-0.284
							c0.504-1.453,1.152-2.511,1.942-3.175c0.789-0.663,1.72-1.026,2.795-1.089c0.63-0.063,1.199-0.047,1.706,0.047
							c0.505,0.095,1.026,0.317,1.563,0.663c0.536,0.348,0.979,0.869,1.327,1.563c0.346,0.696,0.474,1.533,0.379,2.511
							c-0.095,0.98-0.585,2.148-1.469,3.506c-0.885,1.359-2.591,3.491-5.117,6.396h6.822v1.706h-9.57V510.52z"/>
					</g>
				</g>
				<polygon points="100.979,510.295 107.278,489.826 116.542,511.467 				"/>
			</g>
		</g>
	</g>
</g>
<path fill="#FFFFFF" stroke="#E60012" stroke-width="1.3668" d="M178.187,793.3c-0.167,3.445-3.095,6.104-6.543,5.939
	c-3.446-0.166-6.105-3.098-5.938-6.54c0.168-3.451,3.094-6.113,6.543-5.945C175.696,786.921,178.352,789.851,178.187,793.3z"/>
<g>
	<g>
		<path fill="#FFFFFF" stroke="#E60012" stroke-width="1.993" d="M530.229,408.565c0,5.032-4.082,9.111-9.111,9.111
			c-5.031,0-9.114-4.08-9.114-9.111c0-5.033,4.083-9.112,9.114-9.112C526.147,399.453,530.229,403.532,530.229,408.565z"/>
		<rect x="536.297" y="392.006" fill="#E60012" width="78.938" height="32.872"/>
		<g>
			<g>
				<path fill="#FFFFFF" d="M563.734,406.086c-0.187,1.555-0.622,3.11-1.306,4.664c-0.685,1.555-1.555,2.861-2.611,3.917
					c-1.059,1.058-2.115,1.927-3.172,2.611c-0.373-0.622-0.965-1.182-1.771-1.679c1.616-0.746,2.984-1.756,4.104-3.031
					c1.119-1.274,1.959-2.969,2.519-5.083h-3.357c-0.747,0-1.648,0.032-2.705,0.093v-1.585c1.057,0.063,1.958,0.093,2.705,0.093
					H563.734z M572.596,406.926c-0.933,0.685-1.866,1.431-2.799,2.238c0.621,0.996,1.477,2.005,2.565,3.032
					c1.087,1.026,2.472,1.881,4.15,2.565c-0.871,0.56-1.431,1.18-1.679,1.865c-1.741-1.18-3.218-2.409-4.431-3.684
					c-1.212-1.274-2.348-3.031-3.404-5.27v8.208c0,0.808-0.326,1.383-0.979,1.726c-0.652,0.341-1.726,0.574-3.218,0.7
					c0-0.747-0.219-1.524-0.653-2.332c1.307,0.124,2.13,0.124,2.473,0c0.341-0.124,0.513-0.434,0.513-0.933v-12.499h-3.638
					c-0.746,0-1.648,0.032-2.705,0.093v-1.679c1.057,0.063,1.959,0.093,2.705,0.093h5.689c-0.125,0.995-0.109,2.068,0.047,3.218
					c0.154,1.151,0.699,2.285,1.632,3.404c0.746-0.497,1.507-1.119,2.285-1.865c0.777-0.746,1.477-1.586,2.099-2.519
					c0.621,0.623,1.306,1.245,2.052,1.866C574.429,405.652,573.528,406.242,572.596,406.926z M569.331,398.998
					c-0.499,0.56-0.902,1.182-1.213,1.866c-1.182-0.933-3.078-1.927-5.689-2.985c0.373-0.56,0.684-1.15,0.933-1.772
					C564.978,396.853,566.967,397.817,569.331,398.998z"/>
				<path fill="#FFFFFF" d="M578.845,404.967c0-0.933-0.032-1.959-0.093-3.078h1.771c-0.063,1.492-0.093,2.518-0.093,3.078v8.674
					l1.586-0.373V400.49c0-1.12-0.032-2.146-0.094-3.078h1.772c-0.063,1.492-0.094,2.518-0.094,3.078v12.591l1.399-0.28v-8.115
					c0-1.056-0.032-1.989-0.094-2.798h1.866c-0.063,1.368-0.094,2.301-0.094,2.798v7.742c0,0.56,0.03,1.742,0.094,3.544h-1.772
					v-1.679l-6.249,1.212c0.061-1.119,0.093-2.207,0.093-3.265V404.967z M592.556,398.718h5.97
					c-0.436,0.746-0.933,1.555-1.492,2.425c-0.56,0.872-1.151,1.585-1.772,2.145c1.679,0.809,3.419,1.245,5.224,1.306
					c-0.499,0.747-0.81,1.431-0.933,2.052c-1.307-0.311-2.332-0.653-3.078-1.026s-1.586-0.808-2.519-1.306
					c-0.686,0.436-1.492,0.872-2.425,1.306c-0.934,0.436-2.053,0.902-3.358,1.399c-0.312-0.56-0.685-1.119-1.119-1.679
					c1.057-0.187,2.02-0.435,2.892-0.747c0.87-0.31,1.772-0.746,2.705-1.306c-0.623-0.621-1.213-1.367-1.772-2.238
					c-0.746,1.058-1.399,1.865-1.959,2.425c-0.373-0.373-0.809-0.746-1.306-1.119c0.87-0.808,1.633-1.709,2.285-2.705
					c0.653-0.994,1.228-2.113,1.726-3.357c0.621,0.312,1.306,0.622,2.052,0.933C593.302,397.661,592.929,398.158,592.556,398.718z
					 M596.193,407.579c0.497,0,1.306-0.031,2.425-0.093v1.585c-1.119-0.061-1.897-0.093-2.331-0.093h-1.68v1.772h1.026
					c0.497,0,1.337-0.031,2.519-0.093v1.585c-0.746-0.061-1.524-0.093-2.332-0.093h-1.213v1.772h1.959
					c0.87,0,1.74-0.031,2.611-0.093v1.585c-0.685-0.061-1.524-0.093-2.518-0.093h-2.053c0,0.933,0.031,1.927,0.094,2.985h-1.772
					c0.062-1.12,0.094-2.115,0.094-2.985h-2.052c-0.437,0-1.275,0.032-2.519,0.093v-1.585c0.87,0.063,1.709,0.093,2.519,0.093h1.958
					v-1.772h-1.212c-0.872,0-1.772,0.032-2.705,0.093v-1.585c0.933,0.063,1.833,0.093,2.705,0.093h1.212v-1.772h-1.119
					c-0.995,0-1.99,0.032-2.984,0.093v-1.585c0.994,0.063,1.989,0.093,2.984,0.093h1.119c0-0.621-0.032-1.274-0.093-1.958h1.865
					c-0.063,0.685-0.094,1.338-0.094,1.958H596.193z M595.82,400.117h-3.824c0.746,1.12,1.399,1.866,1.959,2.239
					C594.576,401.921,595.198,401.175,595.82,400.117z"/>
			</g>
		</g>
		<polygon fill="#00A0E9" points="543.383,383.658 521.23,374.853 521.23,374.439 519.131,374.439 519.131,410.355 521.23,410.355 
			521.23,393.338 		"/>
	</g>
	<g opacity="0">
		<text transform="matrix(1 0 0 1 602.1367 368.0254)" fill="#040000" font-family="'ArialMT'" font-size="15">2</text>
		<rect x="494.334" y="344.239" fill="none" stroke="#040000" stroke-width="0.714" width="134" height="94.952"/>
	</g>
</g>
<g>
	<g>
		<circle fill="#FFFFFF" stroke="#E60012" stroke-width="2.0525" cx="349.96" cy="426.313" r="9.383"/>
		<rect x="252.158" y="411.33" fill="#00A0E9" width="81.288" height="33.855"/>
		<g>
			<g>
				<path fill="#0B318F" d="M261.634,422.728c-0.064,1.153-0.096,2.401-0.096,3.746v7.108c0.832-0.769,1.761-1.76,2.786-2.978
					c0.384,0.769,0.8,1.409,1.249,1.921c-0.897,0.706-1.777,1.458-2.641,2.257c-0.865,0.802-1.618,1.552-2.257,2.257
					c-0.577-0.641-1.121-1.153-1.633-1.537c0.447-0.512,0.673-1.185,0.673-2.018v-9.125c-1.602,0-2.754,0.033-3.458,0.096v-1.825
					c0.704,0.064,1.568,0.096,2.593,0.096H261.634z M262.114,419.558c-0.513,0.257-1.089,0.577-1.729,0.96
					c-0.514-1.408-1.217-2.752-2.113-4.034c0.447-0.255,0.992-0.576,1.633-0.96C260.673,416.549,261.409,417.894,262.114,419.558z
					 M273.16,421.191c0-2.113-0.033-3.97-0.096-5.571h2.113c-0.064,1.537-0.096,3.395-0.096,5.571c1.088,0,2.209-0.031,3.362-0.096
					v1.825c-1.025-0.063-2.146-0.096-3.362-0.096v12.775c0,0.896-0.353,1.489-1.057,1.777c-0.706,0.288-1.698,0.495-2.978,0.624
					c-0.064-0.768-0.417-1.57-1.057-2.401c1.473,0.064,2.369,0.033,2.69-0.096c0.319-0.128,0.48-0.512,0.48-1.153v-11.526h-5.667
					c-0.833,0-2.017,0.033-3.554,0.096v-1.825c1.472,0.064,2.594,0.096,3.362,0.096H273.16z M269.99,429.836
					c-0.641,0.384-1.217,0.737-1.729,1.057c-0.706-1.537-1.729-3.105-3.074-4.707c0.447-0.255,0.96-0.608,1.537-1.057
					C268.005,426.666,269.093,428.236,269.99,429.836z"/>
				<path fill="#0B318F" d="M295.252,429.164v5.571c0.063,0.96,0.64,1.408,1.729,1.345h2.306c0.768,0,1.249-0.161,1.44-0.48
					c0.192-0.319,0.352-0.992,0.48-2.017c0.639,0.449,1.376,0.706,2.209,0.769c-0.257,0.96-0.562,1.744-0.913,2.354
					c-0.353,0.607-1.073,0.944-2.161,1.008h-4.707c-1.537,0-2.305-0.737-2.305-2.209v-6.34h-3.17
					c-0.192,4.611-2.722,7.651-7.588,9.125c-0.257-0.576-0.641-1.186-1.153-1.825c4.418-0.832,6.691-3.266,6.82-7.3h-4.227
					c0.063-1.023,0.096-2.368,0.096-4.034c0-1.665-0.033-3.041-0.096-4.13h9.125c1.408-2.433,2.305-4.258,2.689-5.475
					c0.576,0.449,1.28,0.864,2.113,1.249c-0.514,0.449-1.505,1.858-2.978,4.227h4.611c-0.064,1.025-0.096,2.401-0.096,4.13
					c0,1.666,0.032,3.011,0.096,4.034H295.252z M286.896,415.62c1.408,1.474,2.498,2.722,3.266,3.746
					c-0.513,0.321-1.025,0.737-1.537,1.249c-0.769-1.216-1.762-2.498-2.978-3.842C286.159,416.388,286.575,416.004,286.896,415.62z
					 M297.558,427.531v-4.803h-11.527v4.803H297.558z"/>
				<path fill="#0B318F" d="M308.46,430.652c1.312-0.543,2.481-1.328,3.506-2.353h-2.786c-1.025,0-1.986,0.033-2.882,0.096v-1.537
					c1.153,0.064,2.145,0.096,2.978,0.096h3.458v-1.345h-1.249c-1.025,0-2.113,0.033-3.266,0.096v-1.633
					c1.216,0.064,2.306,0.096,3.266,0.096h1.249v-1.345h-1.249c-1.282,0-2.338,0.033-3.17,0.096v-1.537
					c1.537,0.064,2.594,0.096,3.17,0.096h1.249v-1.537h1.633v1.537h3.938v-1.537h1.633v1.537h1.153c1.345,0,2.593-0.032,3.746-0.096
					v1.537c-1.153-0.063-2.274-0.096-3.362-0.096h-1.537v1.345h1.441c0.192,0,0.464-0.015,0.816-0.048
					c0.351-0.031,1.072-0.048,2.161-0.048v1.633c-1.089-0.063-1.793-0.096-2.113-0.096h-2.305v1.345h7.012v1.44
					c-1.217-0.063-2.017-0.096-2.401-0.096h-3.938c0.769,0.897,1.712,1.601,2.833,2.113c1.12,0.514,2.481,0.865,4.083,1.057
					c-0.321,0.577-0.641,1.249-0.96,2.017c-1.793-0.576-3.234-1.215-4.323-1.921v0.96h-4.802v3.17c0,1.216-0.289,1.905-0.865,2.065
					c-0.576,0.159-1.474,0.303-2.689,0.433c-0.129-0.577-0.288-1.249-0.48-2.017c0.832,0.063,1.441,0.063,1.825,0
					c0.384-0.065,0.576-0.353,0.576-0.865v-2.786h-3.362c-0.833,0-1.57,0.033-2.209,0.096v-1.249
					c-1.282,0.705-2.562,1.377-3.842,2.017c-0.449-0.64-0.897-1.216-1.345-1.729C306.011,431.534,307.147,431.197,308.46,430.652z
					 M318.209,417.829h8.837c-0.064,0.769-0.096,1.441-0.096,2.017c0,0.577,0.031,1.186,0.096,1.825h-1.825v-2.305h-17.098v2.401
					h-1.825c0.063-0.704,0.096-1.376,0.096-2.017c0-0.704-0.033-1.345-0.096-1.921h9.605c-0.129-0.576-0.353-1.249-0.672-2.017
					l2.113-0.384C317.6,416.261,317.888,417.061,318.209,417.829z M311.774,433.39c0.576,0.513,1.088,0.994,1.537,1.441
					c-1.41,0.833-3.203,1.952-5.379,3.362c-0.449-0.514-0.864-1.025-1.249-1.537C308.924,435.632,310.621,434.542,311.774,433.39z
					 M315.808,431.277c0-0.639-0.033-1.312-0.096-2.017h1.825c-0.064,0.705-0.096,1.378-0.096,2.017h4.322
					c-1.282-0.896-2.242-1.888-2.882-2.978h-4.707c-0.897,1.089-2.113,2.082-3.65,2.978H315.808z M318.306,424.169v-1.345h-3.938
					v1.345H318.306z M318.306,426.955v-1.345h-3.938v1.345H318.306z M325.414,436.176c-0.384,0.512-0.801,1.088-1.249,1.729
					c-1.666-1.282-3.395-2.306-5.187-3.074c0.255-0.447,0.576-0.928,0.96-1.441C322.115,434.479,323.94,435.407,325.414,436.176z"/>
			</g>
		</g>
		<polygon fill="#1D2088" points="373.697,402.188 350.887,393.122 350.887,392.693 348.724,392.693 348.724,429.682 
			350.887,429.682 350.887,412.158 		"/>
	</g>
	<g>
		
			<text transform="matrix(1 0 0 1 322.269 402.4219)" opacity="0" fill="#040000" enable-background="new    " font-family="'ArialMT'" font-size="15">3</text>
		<rect x="247" y="383.908" opacity="0" fill="none" stroke="#040000" stroke-width="0.6172" width="134" height="70.958"/>
	</g>
</g>
<g>
	<g>
		<circle fill="#FFFFFF" stroke="#E60012" stroke-width="1.4003" cx="113.679" cy="570.661" r="6.401"/>
		<rect x="122.261" y="544.143" fill="#FFF100" width="55.457" height="23.097"/>
		<g>
			<g>
				<path d="M144.548,550.198c-0.787,0.065-1.727,0.164-2.818,0.295v1.704h4.128c0.655,0,1.419-0.021,2.293-0.065v1.18
					c-0.83-0.043-1.595-0.065-2.293-0.065h-2.949c0.394,0.437,0.928,0.907,1.606,1.409c0.677,0.503,1.343,0.885,1.999,1.147
					s1.332,0.481,2.032,0.655c-0.438,0.393-0.765,0.831-0.983,1.311c-0.744-0.262-1.639-0.698-2.687-1.311
					c-1.049-0.611-2.097-1.681-3.146-3.211v3.604h2.883c-0.131,0.394-0.306,1.202-0.524,2.425h3.015
					c-0.131,0.7-0.229,1.322-0.295,1.868c-0.065,0.547-0.153,1.049-0.262,1.507c-0.109,0.459-0.458,0.764-1.048,0.917
					c-0.59,0.153-1.212,0.272-1.868,0.361c-0.131-0.481-0.35-0.962-0.655-1.442c1.267,0.043,1.999-0.033,2.195-0.229
					c0.196-0.197,0.338-0.862,0.426-1.999h-3.08c0.218-1.223,0.371-2.032,0.459-2.425h-2.818c-0.088,0.875-0.252,1.617-0.491,2.228
					c-0.241,0.612-0.547,1.147-0.917,1.605c-0.372,0.459-0.896,0.885-1.573,1.278c-0.678,0.394-1.388,0.743-2.13,1.049
					c-0.394-0.524-0.765-0.94-1.114-1.245c2.053-0.481,3.375-1.157,3.965-2.032c0.59-0.874,0.906-1.835,0.95-2.883
					c-0.568,0-1.289,0.022-2.163,0.065v-0.983c-0.175,0.088-0.458,0.219-0.852,0.393c-0.393,0.175-0.83,0.35-1.311,0.524
					c-0.175-0.437-0.503-0.874-0.983-1.311c0.698-0.043,1.452-0.25,2.261-0.623c0.808-0.371,1.463-0.796,1.966-1.278
					c0.501-0.48,0.884-0.939,1.146-1.376h-2.49c-0.743,0-1.573,0.022-2.49,0.065v-1.18c0.96,0.044,1.791,0.065,2.49,0.065h4.063
					v-1.638c-0.35,0.044-0.917,0.088-1.704,0.131c-0.787,0.044-1.813,0.131-3.08,0.262c-0.088-0.349-0.262-0.721-0.524-1.114
					c0.567,0,1.255-0.021,2.064-0.066c0.808-0.043,1.714-0.108,2.72-0.196c1.004-0.087,1.987-0.197,2.949-0.328
					c0.96-0.131,1.835-0.305,2.622-0.524c0.087,0.35,0.393,0.809,0.917,1.376C145.967,550.1,145.334,550.133,144.548,550.198z
					 M139.043,556.85h1.441v-3.604h-0.196c-0.524,0.83-1.027,1.486-1.507,1.966c-0.481,0.481-1.137,1.005-1.966,1.573
					C137.601,556.828,138.343,556.85,139.043,556.85z"/>
				<path d="M156.147,552.852c-0.219,1.18-0.492,2.24-0.819,3.179c-0.328,0.94-0.765,1.868-1.311,2.785
					c-0.547,0.917-1.409,1.966-2.589,3.146c-0.306-0.393-0.765-0.698-1.376-0.917c1.223-0.874,2.195-1.878,2.916-3.015
					c0.721-1.135,1.255-2.468,1.606-3.998h-1.77c-0.655,0-1.399,0.044-2.228,0.131v-1.376c0.786,0.044,1.507,0.065,2.163,0.065
					H156.147z M158.474,550.428c-0.022,0.524,0.021,1.169,0.131,1.933c0.108,0.765,0.513,1.671,1.212,2.72
					c1.791-1.485,2.861-2.643,3.211-3.474c0.48,0.438,0.917,0.852,1.311,1.245c-0.568,0.394-1.125,0.831-1.671,1.311
					c-0.547,0.481-1.3,1.136-2.261,1.966c0.349,0.744,0.983,1.573,1.9,2.49s2.032,1.573,3.342,1.966
					c-0.744,0.35-1.18,0.786-1.311,1.311c-1.661-1.004-2.939-2.119-3.834-3.342c-0.896-1.223-1.584-2.446-2.064-3.67v7.274
					c0.043,0.611-0.186,1.048-0.688,1.311c-0.503,0.262-1.169,0.436-1.999,0.524c-0.044-0.481-0.241-1.006-0.59-1.573
					c0.698,0.131,1.201,0.152,1.507,0.065c0.305-0.088,0.458-0.371,0.458-0.852v-10.354c0-1.091-0.044-1.966-0.131-2.621h1.507
					C158.507,549.313,158.495,549.903,158.474,550.428z"/>
			</g>
		</g>
		<polygon fill="#E60012" points="130.443,553.858 114.88,547.673 114.88,547.381 113.403,547.381 113.403,572.619 114.88,572.619 
			114.88,560.66 		"/>
	</g>
	<g opacity="0">
		<text transform="matrix(1 0 0 1 126.771 589.9399)" fill="#040000" font-family="'ArialMT'" font-size="15">5</text>
		<rect x="93.663" y="526.706" fill="none" stroke="#040000" stroke-width="0.5269" width="97.66" height="70.958"/>
	</g>
</g>
<g>
	<g>
		<path fill="#FFFFFF" stroke="#E60012" stroke-width="1.7945" d="M209.817,513.978c0,4.533-3.67,8.205-8.203,8.205
			c-4.531,0-8.203-3.672-8.203-8.205c0-4.528,3.672-8.201,8.203-8.201C206.147,505.777,209.817,509.45,209.817,513.978z"/>
		<rect x="198.234" y="524.782" fill="#00A0E9" width="71.071" height="29.599"/>
		<g>
			<g>
				<path fill="#0B318F" d="M227.884,529.776c0.672,0,1.595-0.027,2.771-0.084v1.596c-1.064-0.055-1.988-0.084-2.771-0.084h-6.466
					c-0.449,1.792-1.148,3.527-2.1,5.207h9.994c-0.057,2.352-0.084,4.507-0.084,6.466c0,1.96,0.027,3.555,0.084,4.787h-1.764v-2.1
					h-8.65v2.268h-1.764c0.055-1.289,0.084-4.115,0.084-8.482c-1.457,1.625-2.912,2.939-4.367,3.947
					c-0.449-0.559-0.924-0.979-1.428-1.259c2.406-1.456,4.311-3.275,5.71-5.459c1.399-2.183,2.211-3.975,2.436-5.375h-1.932
					c-2.016,0-3.5,0.029-4.451,0.084v-1.596c0.951,0.057,2.463,0.084,4.535,0.084H227.884z M227.548,544.137v-6.298h-8.65v6.298
					H227.548z"/>
				<path fill="#0B318F" d="M240.9,533.388c-1.064-0.055-1.988-0.084-2.771-0.084h-1.68c-0.503,0.785-0.98,1.511-1.427,2.183
					c0.84,0.113,1.65,0.168,2.435,0.168c0.84,0,1.903-0.027,3.191-0.084v1.512c-1.176-0.055-2.016-0.084-2.52-0.084v2.771
					c0.672,0,1.428-0.028,2.268-0.084v1.428c-0.84-0.055-1.596-0.084-2.268-0.084v3.527c0.84-0.84,1.399-1.428,1.68-1.764
					c0.279,0.393,0.672,0.785,1.176,1.176c-0.617,0.449-1.274,0.98-1.974,1.596c-0.701,0.615-1.302,1.203-1.806,1.764
					c-0.392-0.449-0.812-0.896-1.259-1.344c0.335-0.279,0.559-0.643,0.671-1.092v-3.863c-0.785,0-1.624,0.029-2.519,0.084v-1.428
					c0.895,0.056,1.734,0.084,2.519,0.084v-2.771c-0.449,0-0.98,0.057-1.595,0.168v-1.596c-0.281,0.336-0.561,0.701-0.84,1.092
					c-0.393-0.447-0.813-0.811-1.26-1.092c1.176-1.511,2.071-2.868,2.688-4.073c0.615-1.203,1.035-2.169,1.259-2.897
					c0.672,0.393,1.26,0.672,1.764,0.84c-0.449,0.561-0.953,1.4-1.512,2.52c1.567,0,2.827-0.028,3.779-0.084V533.388z
					 M246.275,530.784h4.955c-0.056,1.008-0.084,1.932-0.084,2.771v1.763c0,0.785,0.028,1.596,0.084,2.436h-3.947v1.764h4.619
					c-0.056,0.953-0.084,1.848-0.084,2.688v2.435c-0.113,0.729-0.392,1.205-0.84,1.428c-0.449,0.223-1.091,0.391-1.931,0.504
					c-0.168-0.615-0.365-1.203-0.588-1.764c0.783,0,1.287-0.055,1.512-0.168c0.223-0.111,0.363-0.363,0.42-0.756v-3.107h-3.107
					v4.703c0,0.727,0.027,1.596,0.084,2.604h-1.596c0.055-1.008,0.084-1.876,0.084-2.604v-4.703h-2.603v5.71h-1.512
					c0.055-1.008,0.084-1.848,0.084-2.52v-1.68c0-0.839-0.029-1.763-0.084-2.771h4.115v-1.764h-3.695
					c0.055-0.84,0.084-1.651,0.084-2.436v-1.763c0-0.84-0.029-1.764-0.084-2.771h2.603c0.112-0.504,0.223-1.315,0.336-2.436
					c0.616,0.168,1.26,0.336,1.932,0.504C246.75,529.188,246.498,529.833,246.275,530.784z M249.718,533.556v-1.512h-6.047v1.512
					H249.718z M249.718,536.495v-1.68h-6.047v1.68H249.718z"/>
			</g>
		</g>
		<polygon fill="#00A0E9" points="223.139,493.249 203.194,485.324 203.194,484.947 201.301,484.947 201.301,517.288 
			203.194,517.288 203.194,501.968 		"/>
	</g>
	<g opacity="0">
		<text transform="matrix(1 0 0 1 274.271 536.5718)" fill="#040000" font-family="'ArialMT'" font-size="15">4</text>
		<rect x="185.774" y="479.664" fill="none" stroke="#040000" stroke-width="0.5607" width="97.66" height="80.336"/>
	</g>
</g>
<g>
	<g>
		
			<rect x="185.134" y="791.421" transform="matrix(1 -0.0032 0.0032 1 -2.591 0.6894)" fill="#E60012" width="54.132" height="22.546"/>
		<g>
			<g>
				<path fill="#FFFFFF" d="M199.739,796.104c-0.001-0.341-0.025-0.853-0.069-1.536l1.152-0.003
					c-0.042,0.556-0.061,1.066-0.059,1.536l0.004,1.215l2.559-0.008c-0.039,1.279-0.057,2.453-0.053,3.518
					c0.003,1.066,0.028,2.09,0.075,3.07l-1.088,0.004l-0.002-0.64l-1.471,0.004l0.011,3.39c0.511-0.086,0.958-0.172,1.341-0.26
					c-0.13-0.553-0.281-1.021-0.452-1.405c0.297-0.085,0.66-0.215,1.085-0.387c0.388,1.15,0.753,2.386,1.1,3.707
					c-0.342,0.128-0.725,0.278-1.15,0.45c-0.173-0.853-0.282-1.342-0.324-1.47c-1.578,0.302-2.781,0.553-3.612,0.747
					c-0.831,0.194-1.417,0.378-1.757,0.55c-0.129-0.47-0.281-0.896-0.451-1.278c1.022-0.173,2.087-0.348,3.196-0.521l-0.011-3.519
					l-1.407,0.005l0.005,1.471l-1.152,0.004c0.039-0.938,0.057-2.089,0.052-3.454c-0.004-1.364-0.031-2.686-0.077-3.966l2.559-0.009
					L199.739,796.104z M199.76,802.309l-0.013-4.029l-1.407,0.005l0.013,4.029L199.76,802.309z M202.254,802.302l-0.013-4.03
					l-1.471,0.004l0.013,4.03L202.254,802.302z M208.885,796.012c0.682-0.002,1.407-0.026,2.174-0.071l0.004,1.15
					c-0.768-0.039-1.493-0.059-2.175-0.057l-0.768,0.002l0.033,10.106l1.152-0.003c0.639-0.002,1.385-0.026,2.239-0.072l0.004,1.152
					c-0.854-0.04-1.6-0.059-2.239-0.057l-3.518,0.011c-0.256,0.002-0.853,0.024-1.791,0.07l-0.004-1.152
					c0.938,0.041,1.535,0.061,1.791,0.059l1.214-0.004l-0.032-10.105l-0.768,0.002c-0.768,0.003-1.47,0.026-2.109,0.071
					l-0.004-1.152c0.768,0.041,1.471,0.06,2.11,0.058L208.885,796.012z"/>
				<path fill="#FFFFFF" d="M220.176,795.878c-0.021,0.576-0.071,1.334-0.153,2.271l5.182-0.017
					c0.768-0.002,1.535-0.047,2.302-0.135l0.004,1.279c-0.768-0.039-1.535-0.06-2.303-0.057l-3.135,0.01l0.019,5.821
					c0.511-0.599,1.02-1.272,1.529-2.021s0.912-1.506,1.208-2.274c0.554,0.255,1.089,0.466,1.601,0.635
					c-0.595,0.599-1.19,1.369-1.784,2.308c-0.594,0.941-1.422,1.883-2.485,2.823c-0.041,0.726,0.014,1.108,0.163,1.15
					c0.15,0.042,0.396,0.084,0.737,0.126l2.047-0.007c0.511-0.045,0.873-0.089,1.085-0.131c0.213-0.044,0.404-0.599,0.572-1.665
					c0.427,0.426,0.918,0.679,1.473,0.763c-0.424,0.939-0.741,1.515-0.954,1.73c-0.213,0.213-0.575,0.32-1.087,0.322l-3.773,0.013
					c-0.683,0.002-1.11-0.092-1.281-0.284c-0.171-0.19-0.257-0.586-0.259-1.183c-0.255,0.214-0.65,0.472-1.182,0.772
					c-0.532,0.299-0.99,0.557-1.372,0.771c-0.128-0.255-0.451-0.597-0.963-1.021c0.596-0.216,1.234-0.515,1.917-0.901
					c0.68-0.387,1.213-0.75,1.596-1.093l-0.021-6.652l-0.896,0.003c-0.21,1.238-0.441,2.24-0.694,3.009
					c-0.254,0.769-0.571,1.505-0.952,2.21c-0.382,0.704-0.87,1.41-1.465,2.115c-0.596,0.705-1.424,1.508-2.487,2.406
					c-0.001-0.256-0.408-0.617-1.219-1.083c0.723-0.387,1.394-0.889,2.01-1.51c0.616-0.62,1.168-1.293,1.657-2.02
					c0.487-0.727,0.879-1.517,1.175-2.371c0.295-0.854,0.507-1.771,0.63-2.752l-2.494,0.007c-0.767,0.004-1.557,0.028-2.366,0.072
					l-0.004-1.215c0.853,0.04,1.642,0.059,2.367,0.056l2.687-0.009c0.041-0.511,0.07-1.13,0.09-1.855
					c0.018-0.725-0.016-1.471-0.104-2.238c0.896,0.212,1.472,0.337,1.728,0.378C220.309,794.823,220.193,795.303,220.176,795.878z
					 M224.243,797.688c-0.43-0.639-1.007-1.341-1.734-2.105c0.296-0.214,0.615-0.491,0.957-0.835
					c0.555,0.511,1.154,1.191,1.797,2.041C225.05,796.961,224.71,797.261,224.243,797.688z"/>
			</g>
		</g>
		<polygon fill="#E60012" points="187.307,776.901 172.421,770.141 172.435,769.854 170.998,769.784 169.81,794.39 171.247,794.457 
			171.809,782.801 		"/>
	</g>
	<g opacity="0">
		<text transform="matrix(1 0 0 1 219.5254 768.748)" fill="#040000" font-family="'ArialMT'" font-size="15">7</text>
		<rect x="150.747" y="749.848" fill="none" stroke="#040000" stroke-width="0.5607" width="97.66" height="80.337"/>
	</g>
</g>
<g>
	<g>
		<g>
			<polygon fill="#E60012" stroke="#E72922" stroke-width="1.0714" points="346.85,591.068 349.904,600.465 359.784,600.465 
				351.791,606.273 354.842,615.676 346.85,609.868 338.857,615.676 341.909,606.273 333.916,600.465 343.798,600.465 			"/>
		</g>
		<g>
			<path fill="#DD4422" d="M475.66,525.24H336.991c-4.736,0-8.575,3.681-8.575,8.219v32.878c0,4.54,3.839,8.22,8.575,8.22h11.336
				l10.821,17.751l10.134-17.751H475.66c4.739,0,8.581-3.68,8.581-8.22v-32.878C484.241,528.92,480.399,525.24,475.66,525.24z"/>
			<path fill="#E76E43" d="M473.973,527.262H339.098c-4.604,0-8.336,3.335-8.336,7.449v29.808c0,4.117,3.733,7.453,8.336,7.453
				h11.027l8.976,16.493l9.385-16.493h105.487c4.608,0,8.342-3.336,8.342-7.453v-29.808
				C482.314,530.597,478.581,527.262,473.973,527.262z"/>
		</g>
		<g>
			<path fill="#FFFFFF" d="M345.653,533.812l3.046,1.059c0.608,0.217,0.929,0.435,0.961,0.652c0.054,0.217-0.179,0.483-0.701,0.798
				c-0.271,0.142-0.472,0.473-0.603,0.994c-0.043,0.163-0.087,0.375-0.13,0.636c-0.098,0.51-0.234,0.988-0.407,1.433h2.281
				c0.651,0.022,1.694-0.092,3.127-0.342v3.046c-1.575-0.196-2.617-0.288-3.127-0.277h-3.079l-0.358,1.336l2.998,0.407
				c0.717,0.098,1.097,0.207,1.14,0.326c0.043,0.12,0.065,0.207,0.065,0.261c0,0.217-0.234,0.5-0.701,0.847
				c-0.207,0.174-0.31,0.586-0.31,1.238v1.727h0.375c0.728,0.011,1.77-0.087,3.128-0.293v2.802c2.813-1.455,4.518-3.323,5.115-5.604
				h-2.639c-1,0-2.031,0.13-3.096,0.391v-3.193c0.945,0.239,1.977,0.358,3.096,0.358h3.209c0.163-0.847,0.282-1.922,0.358-3.226
				c-1,0.163-2.52,0.348-4.562,0.554c-0.358-1.205-0.929-2.313-1.71-3.323c1.521,0.152,2.688,0.229,3.502,0.229
				c3.54-0.022,7.135-0.831,10.785-2.427l1.499,2.101c0.314,0.446,0.472,0.782,0.472,1.01c0,0.087-0.038,0.179-0.113,0.277
				c-0.076,0.098-0.218,0.146-0.424,0.146c-0.218,0-0.543-0.038-0.978-0.114c-0.087-0.022-0.18-0.033-0.277-0.033
				c-0.314,0-0.755,0.082-1.319,0.244c-1.629,0.358-2.905,0.603-3.828,0.733c-0.108,1.607-0.244,2.883-0.407,3.828h5.034
				c0.944,0,1.992-0.108,3.144-0.326v3.16c-1.228-0.261-2.275-0.391-3.144-0.391h-2.965c1.324,2.357,3.969,4.301,7.933,5.832
				c-1.053,0.597-1.943,1.477-2.671,2.639c-0.978-0.554-1.743-1.032-2.297-1.434c-0.022,0.032-0.065,0.082-0.131,0.146
				c-0.076,0.076-0.13,0.136-0.163,0.179c-0.261,0.25-0.396,0.728-0.407,1.434v7.542c-0.021,0.956,0.082,2.014,0.31,3.176H363.1
				c0.163-1.347,0.256-2.405,0.277-3.176v-7.233c0.011-1.238-0.093-2.438-0.31-3.6l2.477,0.326
				c-1.641-1.401-3.009-3.122-4.105-5.164c-0.554,1.89-1.576,3.611-3.063,5.164l0.961,0.13c0.717,0.141,1.124,0.32,1.222,0.538
				c0.021,0.043,0.032,0.082,0.032,0.114c0,0.185-0.195,0.435-0.586,0.75c-0.195,0.174-0.32,0.63-0.375,1.368
				c0.195,4.942-1.536,8.748-5.196,11.42c-0.728-1.065-1.672-1.819-2.834-2.265c3.454-1.684,5.142-4.664,5.066-8.943
				c0-0.25-0.016-0.673-0.049-1.271c-0.011-0.12-0.016-0.212-0.016-0.277c-0.631,0.5-1.331,0.983-2.102,1.45l-0.358-0.375
				c-0.304,0.945-0.451,1.803-0.439,2.574c-0.055,0.022-0.142,0.043-0.261,0.065c-1.314,0.391-2.509,0.711-3.584,0.961v4.61
				c0.011,0.967,0.114,2.031,0.31,3.193h-3.567c0.173-1.292,0.26-2.356,0.26-3.193v-3.91c-1.955,0.511-3.855,1.124-5.701,1.841
				c-0.261-0.879-0.706-2.003-1.336-3.372c2.758-0.282,5.104-0.695,7.037-1.238v-4.464h-2.101c-0.782-0.01-1.58,0.234-2.395,0.733
				l-1.775-2.297c0.901-0.511,1.537-1.26,1.906-2.248c0.75-1.825,1.292-3.416,1.629-4.773h-0.701
				c-0.489-0.01-1.521,0.082-3.095,0.277v-3.079c0.608,0.141,1.146,0.245,1.613,0.31c0.228,0.022,0.456,0.038,0.684,0.049
				c0.196,0.011,0.461,0.016,0.798,0.016h1.271C345.104,538.025,345.425,536.168,345.653,533.812z M346.858,546.73
				c0-0.858-0.076-1.982-0.228-3.372c-0.076,0.239-0.19,0.603-0.342,1.091c-0.413,1.379-0.809,2.547-1.189,3.502h1.759V546.73z
				 M351.729,551.128c0.271-0.076,0.662-0.228,1.173-0.456c0.043-0.022,0.076-0.038,0.098-0.049c-1.14-0.163-2.063-0.238-2.77-0.228
				h-0.375v3.698c1.129-0.293,2.4-0.706,3.812-1.238c-0.195-0.173-0.505-0.451-0.929-0.831
				C352.293,551.633,351.957,551.334,351.729,551.128z"/>
			<path fill="#FFFFFF" d="M374.649,549.695v-3.242c1.086,0.185,2.645,0.299,4.676,0.342h8.341v-1.01
				c0-0.586-0.082-1.244-0.245-1.971c2.835-1.911,5.208-3.855,7.119-5.832h-12.218c-1.792,0.022-3.28,0.109-4.464,0.261v-3.16
				c1.054,0.174,2.542,0.282,4.464,0.326H397c1.075-0.011,2.645-0.119,4.708-0.326c-2.856,3.399-6.495,6.744-10.915,10.035v1.678
				h8.275c1.998-0.043,3.557-0.157,4.676-0.342v3.242c-1.107-0.185-2.666-0.299-4.676-0.342h-8.275v10.654
				c0.044,1.694-0.363,2.786-1.222,3.274c-0.76,0.564-2.596,0.929-5.506,1.091c-0.163-1.053-0.7-2.264-1.612-3.632
				c2.226,0.228,3.485,0.336,3.779,0.326c0.597,0,0.987-0.114,1.173-0.342c0.185-0.195,0.271-0.657,0.261-1.385v-9.986h-8.341
				C377.315,549.385,375.758,549.499,374.649,549.695z"/>
			<path fill="#FFFFFF" d="M410.276,541.012l3.616,0.505c0.467,0.065,0.733,0.217,0.799,0.456c0.043,0.228-0.137,0.489-0.538,0.782
				c-0.239,0.152-0.391,0.386-0.456,0.701c-0.076,0.293-0.114,0.836-0.114,1.629v13.749l7.2-0.228v-19.662
				c-0.011-1.01-0.098-2.455-0.261-4.333l3.698,0.505c0.499,0.065,0.776,0.218,0.831,0.457c0.032,0.239-0.163,0.51-0.587,0.814
				c-0.25,0.163-0.413,0.41-0.488,0.741c-0.076,0.331-0.114,0.937-0.114,1.816v19.548l7.331-0.326v-12.983
				c0-0.76-0.076-2.204-0.229-4.333l3.698,0.505c0.499,0.076,0.766,0.239,0.798,0.489c0.011,0.25-0.218,0.521-0.685,0.814
				c-0.38,0.109-0.559,0.951-0.537,2.525v14.482c0,0.869,0.076,2.058,0.229,3.567h-3.503c0.021-0.185,0.049-0.451,0.081-0.798
				c0.087-0.847,0.136-1.423,0.147-1.727l-17.072,0.668c-1.021,0.021-2.313,0.141-3.877,0.358c0.195-1.358,0.298-2.58,0.31-3.666
				v-12.983C410.531,543.977,410.439,542.62,410.276,541.012z"/>
			<path fill="#FFFFFF" d="M444.014,550.33h1.596v-3.405c-0.423,0.011-1.455,0.109-3.095,0.293v-0.961
				c-0.891-0.738-1.972-1.216-3.242-1.434c2.878-2.443,4.947-6.114,6.207-11.012l2.899,1.369c0.5,0.261,0.741,0.516,0.725,0.766
				c-0.016,0.25-0.29,0.472-0.822,0.668c-0.174,0.087-0.451,0.532-0.831,1.336c-0.087,0.13-0.32,0.576-0.7,1.335h3.095
				c0.945-0.032,2.025-0.125,3.242-0.277v3.014c-1.423-0.163-2.492-0.255-3.209-0.277h-4.301c-0.662,1.108-1.217,1.999-1.661,2.671
				c0.727,0.065,1.303,0.098,1.727,0.098h3.567c0.923-0.043,1.971-0.141,3.144-0.293v2.965c-1.313-0.152-2.361-0.239-3.144-0.261
				h-0.668v3.405h1.303c0.869-0.043,1.928-0.146,3.177-0.31v2.981c-0.087-0.01-0.212-0.021-0.374-0.032
				c-1.673-0.163-2.596-0.245-2.77-0.245h-1.336v5.571c1.043-0.792,2.091-1.683,3.144-2.671c0.185,1.249,0.462,2.275,0.831,3.079
				c-3.16,2.389-5.137,4.035-5.93,4.936l-2.248-2.834c0.598-0.402,0.95-0.728,1.059-0.978c0.152-0.25,0.223-0.728,0.212-1.434
				v-5.669h-1.596c-0.37,0-1.429,0.076-3.177,0.228v-2.899C442.292,550.216,443.351,550.309,444.014,550.33z M453.526,564.405
				c-0.456-0.934-1.281-1.77-2.476-2.509c3.562-0.923,6.076-2.313,7.542-4.17h-2.704c-0.304,0-1.406,0.103-3.307,0.309v-3.014
				c1.086,0.142,1.9,0.223,2.443,0.245v-14.547h5.262v-1.368h-3.796c-0.185,0-0.857,0.054-2.02,0.163
				c-0.543,0.043-0.939,0.076-1.189,0.098v-3.03c1.184,0.152,2.254,0.25,3.209,0.293h3.796l-0.228-3.128l2.997,0.391
				c0.391,0.076,0.646,0.261,0.766,0.554c0.011,0.043,0.017,0.104,0.017,0.179c0,0.228-0.114,0.429-0.343,0.603
				c-0.152,0.13-0.228,0.598-0.228,1.401h4.203c0.944-0.043,2.009-0.141,3.192-0.293v3.03c-0.195-0.022-0.505-0.049-0.929-0.082
				c-1.325-0.12-2.079-0.179-2.264-0.179h-4.203v1.368h5.457v14.547h0.032c0.848-0.033,1.841-0.136,2.981-0.31v3.046
				c-1.694-0.185-2.688-0.277-2.981-0.277h-3.502c2.498,1.249,4.691,2.584,6.581,4.007l-1.841,2.508
				c-2.183-1.857-4.518-3.339-7.005-4.447l1.434-2.069h-5.001l1.743,1.303c0.445,0.348,0.668,0.63,0.668,0.847
				c0,0.033-0.02,0.108-0.058,0.228s-0.388,0.217-1.05,0.293c-0.239-0.022-0.75,0.233-1.532,0.766
				C457.447,562.444,455.558,563.525,453.526,564.405z M465.793,544.384v-1.336h-7.835v1.336H465.793z M457.958,547.984h7.835
				v-1.254h-7.835V547.984z M465.793,551.552v-1.222h-7.835v1.222H465.793z M457.958,553.897v1.369h7.835v-1.369H457.958z"/>
		</g>
	</g>
	<g opacity="0">
		<text transform="matrix(1 0 0 1 471.8369 607.4082)" fill="#040000" font-family="'ArialMT'" font-size="15">0</text>
		<rect x="308.998" y="511.467" fill="none" stroke="#040000" stroke-width="0.9117" width="189.403" height="109.53"/>
	</g>
</g>
<g>
	<g>
		<circle fill="#FFFFFF" stroke="#E60012" stroke-width="1.6381" cx="195.623" cy="727.172" r="7.488"/>
		<rect x="110.926" y="717.138" fill="#00A0E9" width="64.877" height="27.02"/>
		<g>
			<g>
				<path fill="#0B318F" d="M132.64,725.905c0.05-1.789,0.063-2.99,0.039-3.604c-0.026-0.613-0.065-1.2-0.115-1.763
					c0.613,0.103,1.303,0.18,2.07,0.229c-0.154,0.512-0.269,1.253-0.345,2.224s-0.115,1.942-0.115,2.913h3.91
					c1.38,0,2.657-0.051,3.833-0.153v1.687c-1.023-0.051-2.07-0.077-3.143-0.077h-4.523c0.204,0.87,0.562,1.752,1.074,2.646
					c0.51,0.895,1.035,1.687,1.571,2.376c0.537,0.69,1.277,1.418,2.223,2.185c0.945,0.767,1.98,1.406,3.105,1.917
					c-0.41,0.307-0.818,0.817-1.227,1.533c-0.92-0.512-1.828-1.149-2.722-1.917c-0.895-0.767-1.79-1.774-2.683-3.027
					c-0.895-1.252-1.572-2.415-2.032-3.488c-0.41,1.125-0.843,2.058-1.303,2.798c-0.46,0.741-0.958,1.418-1.495,2.031
					s-1.227,1.227-2.07,1.84c-0.843,0.614-1.802,1.228-2.875,1.841c-0.41-0.613-0.87-1.15-1.38-1.61
					c1.073-0.357,2.133-0.868,3.182-1.533c1.047-0.664,1.903-1.418,2.568-2.262c0.664-0.843,1.2-1.725,1.61-2.645
					c0.409-0.92,0.664-1.813,0.767-2.684h-4.216c-1.227,0-2.198,0.026-2.913,0.077v-1.687c0.715,0.051,1.687,0.103,2.913,0.153
					H132.64z"/>
				<path fill="#0B318F" d="M148.279,726.748c-0.103,1.125-0.153,2.07-0.153,2.837v4.829c1.482,1.023,3.066,1.623,4.753,1.802
					c1.687,0.179,3.335,0.242,4.945,0.192c1.61-0.052,3.053-0.179,4.332-0.384c-0.256,0.613-0.41,1.252-0.46,1.917
					c-2.453,0-4.459-0.026-6.018-0.077c-1.56-0.052-2.99-0.243-4.293-0.575c-1.303-0.333-2.288-0.689-2.952-1.073
					c-0.665-0.383-1.24-0.383-1.725,0c-0.486,0.384-1.01,0.882-1.572,1.495c-0.307-0.46-0.69-0.869-1.15-1.227
					c1.227-0.92,2.12-1.559,2.683-1.917v-6.516c-0.563,0-1.278,0.052-2.146,0.153v-1.533c1.022,0.052,1.789,0.076,2.3,0.076H148.279
					z M148.586,724.295c-0.563,0.104-1.073,0.307-1.533,0.613c-0.153-0.92-0.665-2.069-1.533-3.449l1.533-0.613
					C147.87,722.481,148.381,723.632,148.586,724.295z M156.866,723.759c0-1.022-0.026-2.146-0.077-3.373h1.61
					c-0.052,0.613-0.077,1.737-0.077,3.373c1.073,0,2.12-0.025,3.143-0.077v1.457c-1.023-0.051-2.07-0.077-3.143-0.077v3.373
					c1.227,0,2.401-0.024,3.526-0.076v1.456c-1.125-0.05-2.3-0.076-3.526-0.076v3.143c0,0.87,0.025,1.764,0.077,2.684h-1.61
					c0-0.92,0.025-1.813,0.077-2.684v-3.143h-2.914c-0.205,1.38-0.498,2.505-0.881,3.373c-0.383,0.869-0.958,1.738-1.725,2.606
					c-0.511-0.408-0.997-0.74-1.457-0.997c0.97-0.868,1.61-1.673,1.917-2.414c0.307-0.74,0.537-1.597,0.69-2.568
					c-1.176,0-2.198,0.026-3.066,0.076v-1.456c0.92,0.052,1.993,0.076,3.22,0.076c0.102-1.175,0.153-2.3,0.153-3.373
					c-1.023,0-2.02,0.052-2.99,0.153v-1.533c0.97,0.052,1.993,0.077,3.066,0.077c0-1.176-0.026-2.3-0.077-3.373
					c0.51,0.051,1.047,0.103,1.61,0.153c-0.052,0.664-0.103,1.737-0.153,3.22H156.866z M156.866,728.435v-3.373h-2.606
					c-0.052,1.073-0.128,2.198-0.23,3.373H156.866z"/>
			</g>
		</g>
		<polygon fill="#009944" points="215.556,705.6 197.35,698.362 197.35,698.02 195.625,698.02 195.625,727.543 197.35,727.543 
			197.35,713.555 		"/>
	</g>
	<g opacity="0">
		<text transform="matrix(1 0 0 1 135.2666 706.6172)" fill="#040000" font-family="'ArialMT'" font-size="15">6</text>
		<rect x="100.979" y="682.33" fill="none" stroke="#040000" stroke-width="0.5775" width="118.547" height="70.217"/>
	</g>
</g>
<g>
	<g>
		<path fill="#FFFFFF" stroke="#E60012" stroke-width="1.5289" d="M284.077,812.931c0,3.861-3.128,6.99-6.99,6.99
			c-3.859,0-6.989-3.129-6.989-6.99c0-3.857,3.13-6.988,6.989-6.988C280.949,805.942,284.077,809.073,284.077,812.931z"/>
		<rect x="257.312" y="822.102" fill="#00A0E9" width="60.55" height="25.217"/>
		<g>
			<g>
				<path fill="#0B318F" d="M267.113,828.055c-0.048,0.813-0.072,1.646-0.072,2.505c0,0.812,0.023,1.646,0.072,2.504h-3.936
					l-0.143,2.576h3.936c-0.048,1.192-0.12,2.35-0.215,3.47c-0.096,1.122-0.179,1.932-0.25,2.433
					c-0.071,0.501-0.37,0.859-0.894,1.073c-0.525,0.215-1.313,0.369-2.361,0.466c-0.048-0.43-0.239-0.955-0.572-1.574
					c1.097,0.048,1.835,0,2.218-0.144c0.381-0.143,0.596-1.669,0.644-4.579h-4.007c0.143-1.526,0.238-3.148,0.286-4.865h3.864V829.2
					h-1.789c-0.764,0-1.527,0.024-2.29,0.071v-1.288c0.762,0.048,1.502,0.071,2.218,0.071H267.113z M269.188,830.345
					c0-0.905-0.024-1.955-0.071-3.148h1.502c-0.048,1.193-0.071,2.219-0.071,3.077v3.648h3.792c0.905,0,1.812-0.023,2.719-0.071
					v1.288c-1.001-0.047-1.885-0.071-2.647-0.071h-1.216c0.333,1.765,0.93,3.16,1.789,4.186c0.858,1.026,1.812,1.801,2.862,2.325
					c-0.525,0.381-0.883,0.787-1.073,1.217c-1.193-0.669-2.23-1.682-3.112-3.041c-0.883-1.359-1.443-2.922-1.682-4.687h-1.431v5.938
					c0.476-0.286,1.097-0.716,1.86-1.288l0.43,1.431c-0.669,0.383-1.265,0.752-1.789,1.109c-0.525,0.357-1.05,0.751-1.574,1.181
					c-0.239-0.383-0.526-0.787-0.859-1.217c0.429-0.334,0.62-0.811,0.572-1.431v-5.724c-0.763,0-1.431,0.024-2.003,0.071v-1.288
					c0.573,0.048,1.24,0.071,2.003,0.071V830.345z M272.336,833.135c-0.382-0.429-0.715-0.738-1.002-0.93
					c1.288-1.288,2.408-2.814,3.363-4.579c0.381,0.286,0.811,0.572,1.288,0.858C274.792,830.201,273.576,831.752,272.336,833.135z"
					/>
				<path fill="#0B318F" d="M287.004,826.338c0.667,0.764,1.191,1.456,1.574,2.075c-0.525,0.286-0.93,0.501-1.216,0.644h7.942
					c-0.048,0.669-0.072,1.17-0.072,1.503c0,0.334,0.023,0.787,0.072,1.359h-1.503v-1.718h-12.378v1.718h-1.502
					c0.047-0.381,0.071-0.811,0.071-1.288c0-0.477-0.024-1.002-0.071-1.574h7.155c-0.382-0.715-0.812-1.359-1.288-1.932
					C286.074,826.935,286.479,826.672,287.004,826.338z M292.584,834.137c0,0.572,0.023,1.217,0.072,1.932h-8.515v1.718h9.373v2.719
					c0,1.002,0.023,1.955,0.072,2.862h-1.574v-1.073h-7.799v1.073h-1.646c0.047-1.099,0.072-3.006,0.072-5.725
					s-0.024-4.65-0.072-5.795h10.089C292.608,832.754,292.584,833.518,292.584,834.137z M291.154,834.924v-1.86h-7.012v1.86H291.154
					z M292.012,841.077v-2.146h-7.871v2.146H292.012z"/>
				<path fill="#0B318F" d="M304.677,829.343c0-1.097-0.025-1.955-0.072-2.575h1.646c-0.048,0.572-0.072,1.431-0.072,2.575h6.153
					c0.333,0,0.858-0.023,1.574-0.071v1.431c-0.716-0.047-1.241-0.071-1.574-0.071h-6.153v5.366l3.864-0.143
					c0-1.765-0.024-3.053-0.072-3.864h1.574c-0.096,0.764-0.143,1.86-0.143,3.291c0,1.432,0.047,2.481,0.143,3.148h-1.502v-1.359
					l-3.864,0.144v3.506c0,0.62,0.429,0.905,1.288,0.858h3.792c0.524,0,0.882-0.202,1.073-0.608c0.19-0.404,0.333-1.013,0.429-1.824
					c0.477,0.382,1.025,0.669,1.646,0.858c-0.382,1.288-0.74,2.086-1.073,2.397c-0.334,0.31-1.073,0.465-2.218,0.465h-4.365
					c-1.336,0.047-2.028-0.43-2.075-1.432v-4.221l-5.08,0.286c0.047-0.524,0.071-1.432,0.071-2.719c0-1.335-0.024-2.29-0.071-2.862
					h1.574c-0.048,0.572-0.072,1.979-0.072,4.222l3.578-0.144v-5.366h-4.436c-0.859,0-1.67,0.024-2.433,0.071v-1.431
					c0.763,0.048,1.574,0.071,2.433,0.071H304.677z"/>
			</g>
		</g>
		<polygon fill="#E60012" points="293.706,792.733 276.714,785.978 276.714,785.658 275.103,785.658 275.103,813.212 
			276.714,813.212 276.714,800.159 		"/>
	</g>
	<g opacity="0">
		<text transform="matrix(1 0 0 1 322.269 843.9277)" fill="#040000" font-family="'ArialMT'" font-size="15">8</text>
		<rect x="250.955" y="783.317" fill="none" stroke="#040000" stroke-width="0.5" width="88.866" height="70.217"/>
	</g>
</g>
<g>
	<g>
		<path fill="#FFFFFF" stroke="#E60012" stroke-width="1.9568" d="M505.958,196.644c0,4.94-4.004,8.944-8.944,8.944
			c-4.937,0-8.943-4.004-8.943-8.944c0-4.941,4.007-8.947,8.943-8.947C501.954,187.697,505.958,191.702,505.958,196.644z"/>
		<rect x="463.479" y="211.562" fill="#FFF100" width="77.494" height="32.275"/>
		<g>
			<g>
				<path d="M502.563,217.308v1.557c-0.733-0.06-1.832-0.091-3.297-0.091h-13.828v10.256c0,1.955-0.198,3.633-0.595,5.037
					c-0.397,1.405-0.962,2.747-1.694,4.029c-0.489-0.549-1.039-0.977-1.648-1.282c0.732-0.854,1.282-1.892,1.648-3.114
					c0.366-1.22,0.579-2.807,0.641-4.762v-8.242c0-1.403-0.031-2.502-0.091-3.296h15.567
					C500.73,217.4,501.829,217.37,502.563,217.308z M499.082,220.056c0.976,0,1.953-0.03,2.931-0.092v1.465
					c-0.916-0.06-1.894-0.092-2.931-0.092h-4.67l-0.366,1.282h6.593c-0.062,0.977-0.091,2.381-0.091,4.212s0.029,3.175,0.091,4.029
					h-7.601c-0.306,0.428-0.581,0.794-0.824,1.099h7.967c-0.549,0.855-1.235,1.664-2.06,2.427c-0.824,0.764-1.573,1.328-2.244,1.694
					c1.221,0.367,2.381,0.58,3.48,0.641c1.099,0.06,2.41,0.06,3.938,0c-0.428,0.488-0.794,1.129-1.1,1.923
					c-2.015-0.123-3.616-0.291-4.808-0.504c-1.19-0.214-2.305-0.565-3.342-1.053c-1.648,0.55-2.916,0.916-3.801,1.099
					c-0.886,0.183-2.03,0.366-3.434,0.549c-0.366-0.732-0.794-1.343-1.282-1.832c1.709,0,3.067-0.077,4.075-0.229
					c1.007-0.153,1.969-0.382,2.885-0.687c-0.978-0.792-1.802-1.465-2.473-2.015c-0.611,0.489-1.618,1.099-3.022,1.832
					c-0.366-0.488-0.855-0.884-1.465-1.19c1.159-0.488,2.243-1.067,3.251-1.74c1.007-0.671,1.754-1.342,2.243-2.014h-3.021
					c0.06-0.916,0.092-2.29,0.092-4.121s-0.032-3.205-0.092-4.121h4.304l0.274-1.282h-2.381c-1.465,0-2.655,0.032-3.571,0.092
					v-1.465c1.1,0.062,2.319,0.092,3.663,0.092H499.082z M498.899,225v-1.099h-9.157V225H498.899z M498.899,227.29v-1.007h-9.157
					v1.007H498.899z M498.899,229.487v-1.007h-9.157v1.007H498.899z M496.977,233.242h-5.129c0.671,0.916,1.434,1.618,2.29,2.106
					C495.357,234.739,496.304,234.036,496.977,233.242z"/>
				<path d="M506.133,218.682c1.282,0.062,2.411,0.092,3.389,0.092h13.003c1.037,0,2.137-0.03,3.297-0.092v1.74
					c-1.344-0.06-2.473-0.092-3.389-0.092h-0.823v11.996c1.524-0.06,3.021-0.151,4.486-0.274l0.092,1.557
					c-1.344,0.062-2.87,0.153-4.578,0.274v4.67h-1.924c0.061-1.465,0.092-2.99,0.092-4.579c-2.381,0.123-4.793,0.26-7.234,0.412
					c-2.442,0.153-4.701,0.352-6.776,0.595l-0.274-1.923c1.587,0,3.082-0.061,4.487-0.184V220.33c-1.161,0-2.442,0.032-3.847,0.092
					V218.682z M519.777,223.352v-3.022h-7.967v3.022H519.777z M519.777,228.114v-3.296h-7.967v3.296H519.777z M519.777,232.418
					v-2.748h-7.967v3.114C514.801,232.663,517.457,232.541,519.777,232.418z"/>
			</g>
		</g>
		<polygon fill="#74C6BE" stroke="#000000" stroke-width="3.9135" points="519.756,170.521 498.007,161.877 498.007,161.468 
			495.942,161.468 495.942,196.729 498.007,196.729 498.007,180.025 		"/>
	</g>
	<g opacity="0">
		<text transform="matrix(1 0 0 1 540.9736 192.1958)" fill="#040000" font-family="'ArialMT'" font-size="15">1</text>
		<rect x="444.752" y="155.436" fill="none" stroke="#040000" stroke-width="0.714" width="134" height="94.952"/>
	</g>
</g></svg>  