<svg version="1.0" id="图层_1" xmlns="http://www.w3.org/2000/svg" xmlns:xlink="http://www.w3.org/1999/xlink" x="0px" y="0px" 
	width="100%" height="100%" viewBox="0 0 720 1280" xml:space="preserve"
  style="position: relative;display: block;"
  >
<g>
	<path opacity="0.6" fill="#FFFFFF" stroke="#00A0E9" stroke-width="5.4492" d="M717.896,477.624l-5.527-6.351l-57.095-88.677
		c0-4.623-16.335-28.039-16.335-28.039l-10.892-10.89l-15.789-16.336l-6.265-8.711l-8.167-6.535h-13.887l-7.353,6.535l-16.336,2.449
		c0,0-21.237,0.817-23.688,0c-2.448-0.815-27.771-2.449-27.771-2.449s-4.901,0-7.352,2.449
		c-2.449,2.451-19.604,10.619-19.604,10.619h-14.7c0,0-16.336-6.535-19.603-8.167c-3.269-1.634-20.696-6.534-22.603-11.435
		c-1.903-4.901-10.07-6.535-17.424-13.071c-7.351-6.533-21.234-17.967-21.234-17.967l-13.886-10.621
		c0,0-20.422-18.785-20.422-21.236c0-2.45-1.631-14.703,0-18.787c1.634-4.083,9.803-13.885,9.803-21.237
		c0-7.351-3.269-33.487-3.269-35.937c0-2.453-7.349-15.522-10.617-17.971c-3.268-2.452-20.419-13.888-22.872-14.704
		c-2.451-0.816-22.051-13.069-22.051-13.069l-4.359-4.074l-18.515-6.533c-10.89-4.356-6.534-4.356-10.892-6.535
		c-4.355-2.176-5.443-5.444-16.334-6.534c-10.894-1.09,0,0-17.424,0c-17.429,0-13.07,0-23.96,1.09
		c-10.887,1.089-15.249,4.356-23.958,5.444c-8.714,1.089-11.984,3.267-20.695,11.98c-8.714,8.713-8.714,4.356-17.427,8.713
		c-8.711,4.356-67.056,23.958-67.056,23.958s-3.73,13.07-1.067,22.871c2.661,9.802-0.487,31.584-0.487,31.584s1.091,27.228,0,33.761
		c-1.087,6.535-6.534,9.804-11.979,13.069c-5.442,3.266,0,16.336,0,16.336s-13.066,18.513-16.336,21.781
		c-3.266,3.268-10.891,11.98-11.979,15.249c-1.09,3.267,0,16.335,0,16.335l-7.623,15.248c0,0-10.891,10.89-13.069,16.337
		c-1.888,4.719-1.336,10.25-10.373,13.061l-1.342,2.864l7.359,11.565c1.635,1.901,8.986,16.07,11.436,17.704
		c2.449,1.634,0.816,24.505,3.265,43.02c2.453,18.514-7.349,25.592-8.166,28.859c-0.816,3.268,2.451,28.591,3.267,31.04
		c0.816,2.452,8.982,12.251,13.884,17.946c4.902,5.694,15.52,9.826,18.788,13.924c3.265,4.101,16.336,15.502,16.336,15.502
		s3.264,5.721,8.167,14.703c4.902,8.988,8.167,15.521,10.619,17.97c2.447,2.448,8.982,4.084,16.335,6.536
		c7.35,2.449,2.45,9.799,2.45,13.885c0,4.083,10.619,12.252,10.619,12.252s4.085,15.518,4.085,26.954
		c0,11.438-26.139,56.361-26.139,58.809c0,2.448-18.788,22.871-23.687,25.321c-4.903,2.451-11.435,3.27-13.887,4.902
		c-2.448,1.633-13.886,6.533-17.15,8.167c-3.27,1.634-28.59,11.434-31.042,12.249c-2.452,0.817-8.167,17.154-8.167,17.154
		s8.985,8.984,8.985,12.254c0,3.267,21.237,9.803,23.687,9.803l1.215,0.01c2.45,0,25.113,4.905,25.113,4.905l9.801,8.167
		l7.353,8.982l5.854,10.618v17.153c-0.682,2.455,7.215,9.805,12.116,10.621c4.9,0.814,22.87,6.534,26.953,7.349
		c4.083,0.818,8.17-1.632,12.254-4.898c4.082-3.267,6.533-4.9,13.068-11.437c6.534-6.533,4.898-4.083,13.067-8.985
		c8.167-4.897,12.254-8.169,16.337-12.252c4.083-4.085,9.8-21.236,10.621-28.591c0.816-7.347,8.167-14.7,11.432-17.148
		c3.269-2.454,16.337,0.814,18.789,2.448c2.45,1.634,13.069,14.7,16.336,18.788c3.269,4.084,8.167,24.503,8.167,24.503l5.718,6.534
		l8.063-0.837c12.457-1.323,35.756-3.933,43.394-5.697c10.62-2.448,26.956-13.885,28.589-17.151
		c1.633-3.268,11.437-14.704,11.437-14.704l8.167-12.248l15.52-16.342l29.403-19.602c0,0,25.323-15.52,34.307-22.868
		c8.984-7.354,10.616-11.438,12.253-13.889c1.631-2.449,7.349-16.335,7.349-16.335l8.986-8.169l12.253-3.611l5.715-11.907
		l8.988-13.886l15.108-13.883c0,0,42.883-36.759,43.702-39.208c0.813-2.452,16.335-16.336,16.335-16.336s15.518-20.419,20.42-22.871
		c4.901-2.451,17.97-9.803,21.235-12.251c3.27-2.451,14.704-13.069,14.704-13.069s15.518-20.421,17.967-22.054
		c2.453-1.634,25.323-16.807,25.323-16.807h25.32H699.3c0,0,6.534-6.88,13.068-8.513L717.896,477.624z"/>
	
		<text transform="matrix(1 0 0 1 591.332 381.5195)" opacity="0" fill="#040000" enable-background="new    " font-family="'SimHei'" font-size="20">轮廓</text>
</g>
<g>
	<g>
		<circle fill="#FFFFFF" stroke="#E60012" stroke-width="1.7969" cx="200.055" cy="204.946" r="8.216"/>
		<rect x="182.156" y="218.116" fill="#00A0E9" width="98.614" height="29.639"/>
		<g>
			<path fill="#0B318F" d="M196.797,230.347c0.055-1.962,0.069-3.28,0.042-3.952c-0.029-0.673-0.071-1.317-0.126-1.935
				c0.673,0.113,1.43,0.197,2.271,0.252c-0.168,0.561-0.294,1.375-0.378,2.439c-0.084,1.065-0.126,2.131-0.126,3.195h4.289
				c1.514,0,2.915-0.055,4.205-0.168v1.85c-1.122-0.055-2.271-0.084-3.448-0.084h-4.961c0.224,0.954,0.616,1.921,1.177,2.901
				c0.56,0.981,1.135,1.85,1.724,2.607c0.588,0.757,1.4,1.556,2.438,2.396c1.037,0.841,2.172,1.542,3.406,2.102
				c-0.449,0.336-0.897,0.896-1.345,1.682c-1.009-0.561-2.005-1.261-2.985-2.103c-0.981-0.841-1.963-1.947-2.943-3.321
				c-0.981-1.373-1.724-2.649-2.229-3.826c-0.449,1.233-0.925,2.257-1.429,3.069c-0.505,0.813-1.051,1.556-1.64,2.228
				c-0.588,0.673-1.345,1.346-2.271,2.019c-0.925,0.673-1.976,1.345-3.153,2.018c-0.449-0.673-0.954-1.261-1.514-1.766
				c1.177-0.391,2.34-0.953,3.49-1.682c1.148-0.728,2.088-1.556,2.817-2.481c0.728-0.925,1.316-1.892,1.766-2.901
				c0.448-1.009,0.728-1.989,0.841-2.943h-4.625c-1.345,0-2.411,0.029-3.195,0.084v-1.85c0.784,0.057,1.85,0.113,3.195,0.168
				H196.797z"/>
			<path fill="#0B318F" d="M213.195,227.824c-1.009,0-1.991,0.029-2.943,0.084v-1.43c0.953,0.056,1.935,0.084,2.943,0.084h5.466
				c-0.225-0.673-0.505-1.316-0.841-1.934c0.56-0.112,1.121-0.28,1.682-0.504c0.28,0.617,0.588,1.429,0.925,2.438h4.793
				c0.953,0,1.961-0.028,3.027-0.084v1.43c-1.009-0.056-1.991-0.084-2.943-0.084h-1.346c-0.561,1.458-1.626,2.832-3.195,4.121
				c0.953,0.449,2.172,0.799,3.658,1.051c1.484,0.252,3.041,0.378,4.667,0.378c-0.618,0.673-0.925,1.29-0.925,1.85
				c-1.402-0.112-2.943-0.364-4.625-0.757c-1.682-0.392-3.14-0.896-4.373-1.514c-0.673,0.449-1.907,0.897-3.7,1.345
				c-1.795,0.45-3.448,0.813-4.961,1.093c-0.113-0.56-0.42-1.121-0.925-1.682c1.457-0.055,2.943-0.224,4.457-0.505
				c1.514-0.28,2.746-0.672,3.7-1.177c-1.345-0.953-2.552-2.354-3.616-4.205H213.195z M216.769,237.957
				c-0.141,1.15-0.561,2.187-1.262,3.111c-0.702,0.925-2.033,1.892-3.994,2.901c-0.168-0.505-0.618-0.981-1.346-1.43
				c1.177-0.449,2.187-0.953,3.027-1.514c0.841-0.56,1.415-1.316,1.724-2.271c0.307-0.953,0.434-2.271,0.378-3.952
				c1.009,0.113,1.653,0.168,1.934,0.168C217.063,235.813,216.908,236.809,216.769,237.957z M215.97,227.824
				c0.785,1.291,1.878,2.411,3.28,3.364c1.177-0.841,2.073-1.961,2.691-3.364H215.97z M223.623,237.495v3.364
				c0,0.729,0.027,1.737,0.084,3.027h-1.766c0.055-1.123,0.084-2.13,0.084-3.027v-3.28c0-0.953-0.029-1.821-0.084-2.607h1.766
				C223.65,235.701,223.623,236.542,223.623,237.495z"/>
			<path fill="#0B318F" d="M234.049,232.197c3.196,0,5.326-0.028,6.391-0.084v1.429c-1.065-0.055-2.215-0.084-3.448-0.084v2.439
				c1.514,0,2.719-0.028,3.616-0.084v1.346c-0.841-0.055-2.047-0.084-3.616-0.084v4.205l2.187-0.336
				c0-0.841-0.029-1.653-0.084-2.439h1.598c-0.057,0.786-0.084,1.654-0.084,2.607c0,0.896,0.055,1.569,0.168,2.019h-1.598v-1.009
				l-7.4,1.009c0.055-1.066,0.084-1.935,0.084-2.607c0-0.728-0.029-1.401-0.084-2.019h1.682c-0.113,0.618-0.168,1.654-0.168,3.112
				l2.271-0.252v-4.289c-2.075,0-3.532,0.029-4.373,0.084v-1.346c1.064,0.057,2.523,0.084,4.373,0.084v-2.439h-2.018
				c-0.168,0.336-0.393,0.813-0.673,1.43c-0.449-0.28-0.87-0.476-1.261-0.589c0.336-0.504,0.631-1.051,0.883-1.64
				c0.252-0.589,0.434-1.19,0.547-1.808c0.504,0.113,1.064,0.252,1.682,0.42C234.498,231.553,234.273,231.86,234.049,232.197z
				 M238.927,226.268c-0.504,0.084-1.135,0.168-1.892,0.252s-1.57,0.21-2.438,0.378c-0.87,0.168-1.78,0.309-2.733,0.42
				c-0.225-0.616-0.42-1.093-0.589-1.43c0.841-0.055,1.611-0.126,2.313-0.21c0.7-0.084,1.388-0.182,2.061-0.294
				c0.672-0.112,1.316-0.238,1.934-0.378c0.616-0.139,1.261-0.322,1.934-0.547c0.28,0.505,0.616,1.066,1.009,1.682
				C239.963,226.142,239.432,226.184,238.927,226.268z M234.134,230.01c-0.393,0.168-0.786,0.42-1.177,0.757
				c-0.281-0.504-0.702-1.177-1.262-2.018c0.336-0.28,0.7-0.56,1.093-0.841C233.18,228.469,233.629,229.169,234.134,230.01z
				 M237.161,230.263c-0.393,0.056-0.813,0.168-1.262,0.336c-0.113-0.896-0.336-1.794-0.673-2.691
				c0.505-0.112,0.953-0.196,1.346-0.252C236.852,228.721,237.048,229.59,237.161,230.263z M240.23,229.506
				c-0.197,0.504-0.492,1.038-0.883,1.598c-0.449-0.224-0.813-0.392-1.093-0.504c0.224-0.448,0.448-0.967,0.673-1.556
				c0.224-0.588,0.42-1.106,0.589-1.556c0.56,0.225,1.064,0.421,1.514,0.589C240.693,228.525,240.426,229.001,240.23,229.506z
				 M245.318,226.395h4.457c-0.113,0.617-0.197,1.402-0.252,2.354l-0.168,2.943c-0.057,0.897-0.323,1.417-0.799,1.556
				c-0.477,0.14-1.249,0.267-2.313,0.378c-0.168-0.56-0.393-1.178-0.672-1.85c0.896,0.056,1.514,0.084,1.85,0.084
				c0.336,0,0.532-0.196,0.588-0.589l0.168-3.616h-5.13v7.063h7.652c-0.168,1.458-0.252,2.355-0.252,2.691l-0.336,4.625
				c-0.113,0.953-0.408,1.484-0.883,1.598c-0.477,0.112-1.303,0.252-2.48,0.42c-0.168-0.673-0.477-1.261-0.925-1.766
				c1.289,0.055,2.088,0.055,2.397,0c0.307-0.056,0.49-0.365,0.546-0.925l0.252-5.382h-7.484c0.055-1.458,0.084-2.41,0.084-2.859
				v-3.868c0-0.56-0.029-1.514-0.084-2.859h2.271c0.168-0.728,0.336-1.569,0.504-2.523c0.56,0.225,1.177,0.393,1.85,0.504
				C245.934,224.601,245.654,225.273,245.318,226.395z M247.672,239.849c-1.065-0.055-2.102-0.084-3.111-0.084
				s-2.018,0.029-3.027,0.084v-1.514c1.009,0.057,2.018,0.084,3.027,0.084s2.046-0.027,3.111-0.084V239.849z M243.973,229.085
				c0.504-0.224,0.98-0.476,1.429-0.757c0.448,1.009,0.841,1.794,1.177,2.354c-0.561,0.225-1.038,0.42-1.429,0.588
				C244.869,230.655,244.477,229.926,243.973,229.085z"/>
			<path fill="#0B318F" d="M256.67,226.983c0-0.841-0.029-1.653-0.084-2.438h1.85c-0.113,0.672-0.168,1.486-0.168,2.438v2.018
				c0.617,0,1.43-0.027,2.439-0.084v1.598c-1.009-0.055-1.822-0.084-2.439-0.084v2.775c0.448-0.223,0.896-0.504,1.346-0.841
				c0.448,0.673,1.121,1.766,2.018,3.28c-0.561,0.281-1.122,0.618-1.682,1.009c-0.281-0.728-0.841-1.709-1.682-2.943v6.475
				c0,1.122,0.055,2.214,0.168,3.279h-1.85c0.055-1.122,0.084-2.214,0.084-3.279v-6.139c-0.336,0.786-0.687,1.542-1.051,2.271
				c-0.366,0.729-0.996,1.738-1.892,3.027l-1.43-1.514c1.232-1.346,2.172-2.691,2.817-4.037c0.644-1.346,1.079-2.466,1.304-3.364
				c-1.066,0-2.159,0.029-3.28,0.084v-1.598c1.177,0.057,2.354,0.084,3.532,0.084V226.983z M267.771,229.169v-2.271
				c0-0.841-0.056-1.598-0.168-2.271h1.934c-0.113,0.561-0.168,1.375-0.168,2.438v2.103c0.504,0,1.4-0.028,2.691-0.084v1.682
				c-1.234-0.112-2.131-0.168-2.691-0.168v10.175c0,1.177-0.336,1.878-1.009,2.103c-0.673,0.223-1.486,0.42-2.438,0.588
				c-0.225-0.786-0.477-1.429-0.757-1.934c1.232,0,1.976-0.084,2.228-0.252c0.252-0.168,0.378-0.616,0.378-1.346v-9.334h-4.289
				c-0.673,0-1.29,0.056-1.85,0.168v-1.682c0.616,0.056,1.232,0.084,1.85,0.084H267.771z M265.08,234.762
				c0.28,0.588,0.532,1.164,0.757,1.724c-0.561,0.225-1.149,0.504-1.766,0.841c-0.168-0.616-0.393-1.261-0.673-1.934
				c-0.281-0.673-0.561-1.232-0.841-1.682c0.448-0.28,0.953-0.532,1.514-0.757C264.462,233.571,264.799,234.173,265.08,234.762z"/>
		</g>
		<polygon fill="#E60012" points="220.819,182.787 200.849,174.849 200.849,174.474 198.957,174.474 198.957,206.858 
			200.849,206.858 200.849,191.514 		"/>
	</g>
	<g opacity="0">
		<text transform="matrix(1 0 0 1 253.9048 204.9468)" fill="#040000" font-family="'ArialMT'" font-size="15">1</text>
		<rect x="162.088" y="165.687" fill="none" stroke="#040000" stroke-width="0.714" width="134" height="94.951"/>
	</g>
</g>
<g>
	<g>
		<g>
		</g>
		<circle fill="#FFFFFF" stroke="#E60012" stroke-width="1.7051" cx="50.376" cy="363.166" r="7.794"/>
		<rect x="15.042" y="375.216" fill="#00A0E9" width="67.528" height="28.125"/>
		<g>
			<path fill="#0B318F" d="M34.661,394.234c0,1.384,0.026,2.526,0.08,3.431h-1.676c0.053-0.905,0.08-2.047,0.08-3.431v-8.299
				c-0.427,0.852-1.065,2.022-1.915,3.511c-0.267-0.319-0.718-0.639-1.357-0.958c0.851-1.063,1.742-2.54,2.673-4.429
				c0.93-1.888,1.582-3.577,1.955-5.067c0.744,0.373,1.356,0.638,1.835,0.798c-0.213,0.267-0.466,0.706-0.758,1.316
				c-0.293,0.612-0.599,1.344-0.917,2.194V394.234z M45.354,393.675c0.904,0,1.808-0.026,2.713-0.08v1.755
				c-0.905-0.052-1.783-0.08-2.633-0.08h-7.022c-0.905,0-1.783,0.028-2.633,0.08v-1.755c0.85,0.053,1.702,0.08,2.553,0.08H45.354z
				 M44.556,383.222c0.744,0,1.596-0.026,2.553-0.08v1.755c-0.958-0.052-1.809-0.08-2.553-0.08h-4.868
				c-0.905,0-1.835,0.028-2.792,0.08v-1.755c0.958,0.053,1.887,0.08,2.792,0.08H44.556z"/>
			<path fill="#0B318F" d="M66.5,385.616v8.378c0,0.958,0.026,1.995,0.08,3.112h-1.676v-1.676H54.131v1.676h-1.676
				c0.052-0.905,0.08-1.941,0.08-3.112v-8.378c0-1.277-0.027-2.474-0.08-3.591h14.124C66.526,383.143,66.5,384.339,66.5,385.616z
				 M64.903,394.074v-10.692H54.131v10.692H64.903z"/>
		</g>
		<polygon fill="#E60012" points="69.082,339.544 50.133,332.013 50.133,331.657 48.335,331.657 48.335,362.386 50.133,362.386 
			50.133,347.828 		"/>
	</g>
	<g opacity="0">
		<text transform="matrix(1 0 0 1 96.5713 356.2803)" fill="#040000" font-family="'ArialMT'" font-size="15">2</text>
		<rect x="4.755" y="317.02" fill="none" stroke="#040000" stroke-width="0.714" width="134" height="94.951"/>
	</g>
</g>
<g>
	<g>
		<path fill="#FFFFFF" stroke="#E60012" stroke-width="1.8434" d="M531.268,465.846c0,4.653-3.77,8.426-8.43,8.426
			c-4.65,0-8.423-3.772-8.423-8.426c0-4.655,3.772-8.428,8.423-8.428C527.498,457.418,531.268,461.191,531.268,465.846z"/>
		<g>
			<rect x="535.33" y="450.799" fill="#FFF100" width="73.006" height="30.406"/>
			<g>
				<g>
					<path d="M541.768,458.184c-0.316,0.748-0.677,1.553-1.078,2.416h2.674c0.805,0,1.726-0.028,2.761-0.086v1.553
						c-1.035-0.057-1.928-0.086-2.674-0.086h-0.863v9.921c0,0.979,0.028,2.157,0.087,3.537h-1.898c0-1.38,0.028-2.559,0.086-3.537
						v-9.921h-0.862c-0.345,0.633-0.662,1.208-0.949,1.725c-0.288,0.518-0.604,1.065-0.948,1.639
						c-0.403-0.401-0.979-0.747-1.726-1.035c0.518-0.632,1.005-1.322,1.467-2.07c0.459-0.747,0.876-1.538,1.25-2.373
						c0.374-0.833,0.704-1.639,0.992-2.416c0.287-0.776,0.488-1.51,0.604-2.2c0.862,0.403,1.609,0.69,2.243,0.863
						C542.472,456.747,542.083,457.437,541.768,458.184z M546.167,463.705c0.547-0.805,1.036-1.667,1.467-2.588
						c0.432-0.919,0.833-1.855,1.208-2.804c0.373-0.949,0.704-1.97,0.992-3.063c0.574,0.23,1.294,0.461,2.157,0.69
						c-0.403,0.576-0.749,1.208-1.036,1.898c-0.288,0.69-0.689,1.611-1.207,2.761h4.141c0.805,0,1.754-0.028,2.847-0.086v1.553
						c-1.266-0.057-2.156-0.086-2.674-0.086h-0.518v10.87c0,1.264-0.375,1.998-1.122,2.2c-0.748,0.201-1.639,0.358-2.674,0.475
						c-0.116-0.748-0.317-1.497-0.604-2.243c1.208,0.057,1.955,0.028,2.243-0.086c0.287-0.114,0.432-0.546,0.432-1.294v-9.921
						h-2.761c-0.518,0.92-0.979,1.74-1.381,2.458c-0.402,0.72-1.007,1.625-1.812,2.718c-0.288-0.402-0.806-0.805-1.553-1.208
						C545.003,465.258,545.62,464.511,546.167,463.705z"/>
					<path d="M562.084,457.925c0-0.862-0.029-1.695-0.086-2.501h1.984c-0.059,0.69-0.087,1.524-0.087,2.501v2.157
						c0.863,0,1.812-0.028,2.848-0.086v1.553c-1.036-0.057-1.984-0.086-2.848-0.086v2.934c0.402-0.287,0.863-0.546,1.381-0.776
						c0.345,0.518,0.919,1.496,1.726,2.933c-0.462,0.23-1.008,0.547-1.64,0.949c-0.288-0.747-0.776-1.696-1.467-2.847v6.729
						c0,1.208,0.028,2.416,0.087,3.624h-1.984c0.057-1.266,0.086-2.472,0.086-3.624v-5.866c-0.518,1.553-1.266,3.135-2.243,4.745
						c-0.172-0.287-0.575-0.919-1.208-1.898c0.574-0.69,1.136-1.538,1.683-2.545c0.546-1.006,1.078-2.459,1.596-4.357
						c-0.979,0-1.927,0.03-2.847,0.086v-1.553c1.15,0.058,2.157,0.086,3.02,0.086V457.925z M567.864,459.996
						c0.632,0.058,1.294,0.086,1.984,0.086h1.553v-2.588c0-0.805-0.058-1.523-0.173-2.157h1.984
						c-0.058,0.345-0.086,1.093-0.086,2.243v2.502h2.588c0.862,0,1.695-0.057,2.502-0.173v1.639
						c-0.748-0.057-1.524-0.086-2.329-0.086h-2.502c0.401,1.324,0.862,2.416,1.38,3.278c0.518,0.863,1.049,1.611,1.597,2.243
						c0.546,0.634,1.078,1.122,1.596,1.467c0.518,0.345,0.919,0.604,1.208,0.776c-0.289,0.345-0.548,0.647-0.776,0.906
						c-0.23,0.259-0.461,0.561-0.69,0.906c-1.496-1.38-2.588-2.645-3.278-3.796c-0.69-1.092-1.122-1.984-1.294-2.674v7.592
						c0,0.863,0.028,1.812,0.086,2.847h-1.897c0.057-1.266,0.086-2.213,0.086-2.847v-7.592c-0.806,1.898-1.553,3.422-2.243,4.572
						c-0.69,1.151-1.294,1.984-1.812,2.502c-0.518-0.402-1.094-0.805-1.726-1.208c0.747-0.69,1.424-1.466,2.027-2.329
						s1.165-1.769,1.683-2.717c0.518-0.949,1.063-2.257,1.639-3.926h-1.035c-0.69,0-1.38,0.03-2.07,0.086V459.996z"/>
					<path d="M583.609,468.752c1.178-0.488,2.229-1.193,3.148-2.114h-2.502c-0.92,0-1.783,0.03-2.588,0.086v-1.38
						c1.035,0.058,1.927,0.086,2.675,0.086h3.105v-1.208h-1.121c-0.921,0-1.898,0.03-2.934,0.086v-1.467
						c1.092,0.058,2.07,0.086,2.934,0.086h1.121v-1.208h-1.121c-1.151,0-2.101,0.029-2.848,0.086v-1.38
						c1.381,0.058,2.33,0.086,2.848,0.086h1.121v-1.38h1.467v1.38h3.537v-1.38h1.467v1.38h1.035c1.208,0,2.329-0.028,3.364-0.086
						v1.38c-1.035-0.057-2.042-0.086-3.02-0.086h-1.38v1.208h1.294c0.172,0,0.416-0.014,0.733-0.043
						c0.315-0.028,0.962-0.043,1.94-0.043v1.467c-0.979-0.057-1.61-0.086-1.897-0.086h-2.07v1.208h6.298v1.294
						c-1.094-0.057-1.813-0.086-2.157-0.086h-3.537c0.69,0.806,1.538,1.438,2.545,1.898c1.006,0.461,2.229,0.777,3.667,0.949
						c-0.289,0.518-0.576,1.122-0.863,1.812c-1.61-0.518-2.904-1.092-3.882-1.725v0.862h-4.313v2.847
						c0,1.092-0.259,1.71-0.776,1.855c-0.518,0.143-1.324,0.272-2.416,0.388c-0.116-0.518-0.259-1.122-0.432-1.812
						c0.747,0.057,1.295,0.057,1.64,0c0.345-0.058,0.518-0.316,0.518-0.776v-2.502h-3.02c-0.748,0-1.41,0.03-1.984,0.086v-1.122
						c-1.151,0.634-2.301,1.238-3.45,1.812c-0.403-0.574-0.807-1.092-1.208-1.553C581.409,469.543,582.43,469.241,583.609,468.752z
						 M592.366,457.235h7.937c-0.058,0.69-0.086,1.294-0.086,1.812s0.028,1.065,0.086,1.639h-1.64v-2.07h-15.355v2.157h-1.64
						c0.057-0.632,0.087-1.236,0.087-1.812c0-0.632-0.03-1.208-0.087-1.726h8.627c-0.115-0.518-0.316-1.122-0.604-1.812l1.897-0.345
						C591.818,455.826,592.077,456.545,592.366,457.235z M586.586,471.211c0.518,0.461,0.977,0.892,1.38,1.294
						c-1.266,0.748-2.877,1.753-4.831,3.02c-0.403-0.461-0.776-0.921-1.121-1.38C584.025,473.225,585.551,472.246,586.586,471.211z
						 M590.209,469.313c0-0.574-0.029-1.178-0.086-1.812h1.639c-0.058,0.634-0.086,1.238-0.086,1.812h3.882
						c-1.151-0.805-2.014-1.696-2.588-2.675h-4.228c-0.806,0.979-1.897,1.87-3.278,2.675H590.209z M592.452,462.929v-1.208h-3.537
						v1.208H592.452z M592.452,465.431v-1.208h-3.537v1.208H592.452z M598.836,473.712c-0.345,0.46-0.72,0.978-1.121,1.553
						c-1.497-1.151-3.05-2.071-4.659-2.761c0.229-0.402,0.518-0.833,0.863-1.294C595.873,472.189,597.513,473.022,598.836,473.712z"
						/>
				</g>
			</g>
			<polygon fill="#00A0E9" points="544.027,442.448 523.541,434.306 523.541,433.922 521.6,433.922 521.6,467.145 523.541,467.145 
				523.541,451.403 			"/>
		</g>
	</g>
	<g opacity="0">
		<text transform="matrix(1 0 0 1 586.5713 440.6992)" fill="#040000" font-family="'ArialMT'" font-size="15">3</text>
		<rect x="494.755" y="409.939" fill="none" stroke="#040000" stroke-width="0.714" width="134" height="94.951"/>
	</g>
</g>
<g>
	<g>
		<path fill="#FFFFFF" stroke="#E60012" stroke-width="1.7285" d="M320.646,525.111c0,4.362-3.534,7.9-7.903,7.9
			c-4.363,0-7.899-3.538-7.899-7.9c0-4.365,3.536-7.907,7.899-7.907C317.111,517.204,320.646,520.746,320.646,525.111z"/>
		<rect x="274.441" y="541.083" fill="#00A0E9" width="68.452" height="28.506"/>
		<g>
			<path fill="#0B318F" d="M304.89,548.551c1.133,0,2.237-0.027,3.317-0.081v1.537c-1.08-0.053-2.184-0.081-3.317-0.081h-3.721
				v5.419h2.912c0.916,0,1.86-0.026,2.831-0.081v1.699c-0.971-0.053-1.915-0.081-2.831-0.081h-2.912v6.552h5.339
				c0.862,0,1.833-0.027,2.912-0.081v1.618c-1.08-0.054-2.05-0.081-2.912-0.081h-11.81c-1.187,0-2.374,0.026-3.559,0.081v-1.618
				c1.186,0.054,2.372,0.081,3.559,0.081h4.772v-6.552h-2.588c-1.133,0-2.293,0.028-3.479,0.081v-1.699
				c1.186,0.054,2.346,0.081,3.479,0.081h2.588v-5.419h-3.64c-1.132,0-2.346,0.028-3.64,0.081v-1.537
				c1.294,0.054,2.508,0.081,3.64,0.081H304.89z M306.67,562.544c-0.702-0.7-2.05-1.725-4.044-3.074
				c0.269-0.323,0.593-0.754,0.971-1.294c2.103,1.51,3.505,2.535,4.206,3.074C307.263,561.79,306.885,562.221,306.67,562.544z"/>
			<path fill="#0B318F" d="M320.462,549.157c-0.028,0.728-0.095,1.686-0.202,2.872h6.552c0.971,0,1.941-0.053,2.912-0.162v1.618
				c-0.971-0.053-1.941-0.081-2.912-0.081h-3.963v7.361c0.647-0.755,1.294-1.604,1.941-2.548c0.647-0.943,1.159-1.901,1.537-2.872
				c0.7,0.324,1.375,0.594,2.022,0.809c-0.756,0.756-1.51,1.727-2.265,2.912c-0.756,1.187-1.807,2.374-3.154,3.559
				c-0.055,0.917,0.012,1.402,0.202,1.456c0.188,0.053,0.498,0.107,0.93,0.162h2.588c0.647-0.054,1.104-0.108,1.375-0.162
				c0.27-0.054,0.512-0.754,0.728-2.103c0.539,0.54,1.159,0.863,1.861,0.971c-0.54,1.186-0.944,1.914-1.213,2.184
				c-0.271,0.269-0.728,0.404-1.375,0.404h-4.772c-0.863,0-1.403-0.122-1.618-0.364c-0.216-0.243-0.324-0.742-0.324-1.496
				c-0.323,0.269-0.823,0.593-1.497,0.971c-0.675,0.376-1.253,0.7-1.739,0.971c-0.162-0.324-0.566-0.756-1.213-1.294
				c0.754-0.271,1.563-0.647,2.427-1.132c0.862-0.485,1.537-0.943,2.022-1.375v-8.413h-1.132c-0.271,1.565-0.566,2.832-0.89,3.802
				c-0.324,0.971-0.728,1.901-1.213,2.791s-1.106,1.78-1.861,2.669c-0.755,0.89-1.807,1.901-3.154,3.033
				c0-0.323-0.513-0.782-1.537-1.375c0.917-0.485,1.766-1.119,2.548-1.901c0.781-0.781,1.483-1.63,2.104-2.548
				c0.619-0.916,1.118-1.913,1.496-2.993c0.377-1.078,0.647-2.237,0.809-3.479h-3.155c-0.971,0-1.969,0.028-2.993,0.081v-1.537
				c1.078,0.055,2.075,0.081,2.993,0.081h3.397c0.053-0.647,0.094-1.428,0.122-2.346c0.026-0.917-0.014-1.86-0.122-2.831
				c1.132,0.271,1.86,0.432,2.184,0.485C320.636,547.823,320.488,548.429,320.462,549.157z M325.598,551.462
				c-0.54-0.809-1.268-1.698-2.184-2.669c0.377-0.27,0.781-0.62,1.213-1.052c0.7,0.647,1.456,1.51,2.265,2.588
				C326.622,550.546,326.191,550.924,325.598,551.462z"/>
		</g>
		<polygon fill="#E60012" points="334.238,501.725 315.029,494.087 315.029,493.729 313.208,493.729 313.208,524.881 
			315.029,524.881 315.029,510.118 		"/>
	</g>
	<g opacity="0">
		<text transform="matrix(1 0 0 1 350.2383 526.5327)" fill="#040000" font-family="'ArialMT'" font-size="15">4</text>
		<rect x="258.422" y="487.272" fill="none" stroke="#040000" stroke-width="0.714" width="134" height="94.951"/>
	</g>
</g>
<g>
	<g>
		<circle fill="#FFFFFF" stroke="#E60012" stroke-width="1.676" cx="200.067" cy="581.063" r="7.663"/>
		<rect x="170.384" y="591.096" fill="#00A0E9" width="66.373" height="27.644"/>
		<g>
			<g>
				<path fill="#0B318F" d="M181.375,596.87v1.412c-0.576,0.576-1.412,1.622-2.51,3.138v2.431c0.471-0.157,1.124-0.471,1.961-0.941
					c0.051,0.576,0.104,1.098,0.157,1.568c-0.89,0.367-1.596,0.68-2.118,0.941v6.745c-0.053,0.731-0.38,1.176-0.98,1.333
					c-0.602,0.157-1.216,0.313-1.843,0.471c-0.105-0.576-0.34-1.229-0.706-1.961c0.731,0.105,1.241,0.105,1.529,0
					c0.287-0.104,0.432-0.314,0.432-0.627v-5.255l-2.353,1.177c-0.157-0.522-0.419-1.071-0.785-1.647
					c0.627-0.104,1.673-0.471,3.138-1.098c0.051-1.516-0.027-2.614-0.235-3.294c0.365-0.47,0.757-0.941,1.176-1.412
					c0.418-0.471,0.836-0.993,1.255-1.569h-2.274c-0.733,0-1.569,0.027-2.51,0.079v-1.569c0.888,0.053,1.698,0.079,2.431,0.079
					H181.375z M183.101,606.203c-0.419,1.831-0.758,3.269-1.02,4.314c-0.68-0.157-1.282-0.235-1.804-0.235
					c0.313-0.732,0.692-1.922,1.137-3.569c0.443-1.647,0.771-3.594,0.98-5.843c0.627,0.157,1.255,0.262,1.882,0.314
					C183.911,602.701,183.519,604.374,183.101,606.203z M187.258,598.674v13.647c-0.053,0.575-0.314,0.954-0.785,1.137
					c-0.47,0.183-1.282,0.353-2.431,0.51c-0.105-0.628-0.341-1.204-0.706-1.726c0.941,0,1.594-0.014,1.961-0.04
					c0.365-0.027,0.549-0.3,0.549-0.823v-12.471c0-0.993-0.027-1.96-0.078-2.902h1.568
					C187.283,596.844,187.258,597.732,187.258,598.674z M191.297,604.634c0.497,1.778,0.928,3.557,1.294,5.333
					c-0.733,0.21-1.308,0.392-1.726,0.549c-0.157-1.202-0.419-2.614-0.785-4.235c-0.366-1.62-0.863-3.268-1.49-4.941
					c0.471-0.104,0.993-0.261,1.569-0.471C190.421,601.603,190.799,602.857,191.297,604.634z"/>
				<path fill="#0B318F" d="M202.552,601.497c0.052-1.83,0.065-3.059,0.039-3.686c-0.027-0.627-0.066-1.228-0.117-1.804
					c0.627,0.105,1.333,0.184,2.118,0.235c-0.157,0.523-0.275,1.282-0.353,2.274c-0.079,0.994-0.118,1.988-0.118,2.98h4
					c1.412,0,2.718-0.051,3.922-0.157v1.726c-1.047-0.052-2.118-0.079-3.216-0.079h-4.628c0.208,0.89,0.575,1.792,1.098,2.706
					c0.522,0.916,1.059,1.726,1.608,2.432c0.549,0.706,1.307,1.451,2.274,2.235c0.967,0.785,2.026,1.439,3.177,1.961
					c-0.419,0.314-0.837,0.836-1.255,1.569c-0.941-0.523-1.87-1.177-2.784-1.961c-0.916-0.784-1.831-1.816-2.746-3.098
					c-0.915-1.281-1.607-2.471-2.078-3.569c-0.419,1.151-0.863,2.105-1.333,2.863c-0.471,0.758-0.98,1.451-1.529,2.078
					c-0.549,0.627-1.255,1.255-2.118,1.882s-1.843,1.255-2.941,1.883c-0.419-0.628-0.89-1.177-1.412-1.647
					c1.098-0.365,2.183-0.888,3.255-1.568c1.071-0.679,1.947-1.451,2.627-2.314c0.679-0.863,1.228-1.765,1.647-2.706
					c0.418-0.941,0.679-1.855,0.785-2.745h-4.314c-1.255,0-2.249,0.027-2.98,0.079v-1.726c0.731,0.053,1.726,0.105,2.98,0.157
					H202.552z"/>
				<path fill="#0B318F" d="M227.219,598.438c-0.341,0.627-0.641,1.203-0.902,1.725h1.726c1.098,0,2.065-0.025,2.902-0.078v1.49
					c-0.68-0.052-1.569-0.079-2.667-0.079H224.2v3.922h4.941c1.045,0,1.986-0.026,2.823-0.079v1.49
					c-0.837-0.051-1.726-0.079-2.667-0.079h-4.785c1.569,2.667,4.183,4.393,7.843,5.177c-0.47,0.522-0.89,1.149-1.255,1.882
					c-3.294-1.098-5.778-3.006-7.451-5.726c-0.89,2.302-3.347,4.287-7.373,5.961c-0.209-0.523-0.602-0.994-1.176-1.412
					c4.025-1.098,6.51-3.059,7.451-5.883h-4.157c-1.204,0-2.196,0.027-2.98,0.079v-1.412c0.575,0.053,1.463,0.078,2.667,0.078h4.627
					v-4h-3.687c-0.994,0-1.882,0.027-2.667,0.079v-1.49c0.784,0.053,1.698,0.078,2.745,0.078h5.647
					c0.732-1.672,1.255-3.059,1.569-4.157c0.522,0.314,1.149,0.627,1.882,0.941C227.886,597.314,227.559,597.811,227.219,598.438z
					 M222.317,599.066c-0.627,0.313-1.125,0.627-1.49,0.941c-0.627-1.202-1.255-2.196-1.882-2.98
					c0.47-0.313,0.888-0.627,1.255-0.941C220.878,596.922,221.584,597.916,222.317,599.066z"/>
			</g>
		</g>
		<polygon fill="#E60012" points="218.611,559.187 199.985,551.782 199.985,551.432 198.219,551.432 198.219,581.636 
			199.985,581.636 199.985,567.324 		"/>
	</g>
	<g opacity="0">
		<text transform="matrix(1 0 0 1 135.3398 566.5342)" fill="#040000" font-family="'ArialMT'" font-size="15">5</text>
		<rect x="112.523" y="540.531" fill="none" stroke="#040000" stroke-width="0.714" width="134" height="94.951"/>
	</g>
</g>
<g>
	<g>
		<circle fill="#FFFFFF" stroke="#E60012" stroke-width="1.7253" cx="448.688" cy="601.764" r="7.888"/>
		<rect x="416.919" y="609.477" fill="#E60012" width="68.327" height="28.453"/>
		<polygon fill="#00A0E9" points="469.288,582.24 450.115,574.618 450.115,574.258 448.295,574.258 448.295,605.352 
			450.115,605.352 450.115,590.617 		"/>
		<g>
			<g>
				<path fill="#FFFFFF" d="M425.005,628.712c-0.432,0.565-1.05,1.36-1.857,2.382c-0.377-0.377-0.78-0.699-1.211-0.969
					c1.131-1.238,2.019-2.53,2.664-3.876c0.538,0.432,1.05,0.781,1.534,1.05C425.813,627.677,425.435,628.147,425.005,628.712z
					 M429.526,620.84c0.914,0,1.856-0.027,2.826-0.081v1.615c-0.916-0.053-2.289-0.081-4.118-0.081v2.019
					c1.668,0,2.987-0.026,3.956-0.081v1.615c-0.969-0.053-2.288-0.081-3.956-0.081v4.925c0,0.808-0.256,1.345-0.767,1.615
					c-0.513,0.269-1.171,0.404-1.979,0.404c-0.216-0.646-0.484-1.239-0.808-1.776c0.753,0.053,1.278,0.053,1.574,0
					c0.296-0.054,0.444-0.295,0.444-0.727v-4.441c-1.724,0-3.068,0.028-4.037,0.081v-1.615c1.022,0.054,2.368,0.081,4.037,0.081
					v-2.019c-1.992,0-3.472,0.028-4.44,0.081v-1.615c0.969,0.054,1.884,0.081,2.745,0.081h3.068c0.43-1.292,0.753-2.288,0.969-2.987
					c0.43,0.108,1.021,0.27,1.776,0.484C430.44,618.553,430.011,619.387,429.526,620.84z M428.558,615.996
					c1.237,0,2.395-0.026,3.472-0.081v1.615c-1.131-0.053-2.047-0.081-2.745-0.081h-3.876c-0.916,0-1.804,0.028-2.664,0.081v-1.615
					c0.914,0.054,1.803,0.081,2.664,0.081h1.453c-0.108-0.591-0.27-1.211-0.484-1.857c0.538-0.162,1.103-0.323,1.696-0.484
					C428.342,614.785,428.503,615.565,428.558,615.996z M426.297,620.194c-0.484,0.108-0.942,0.27-1.373,0.484
					c-0.27-0.808-0.565-1.534-0.888-2.18c0.376-0.214,0.807-0.403,1.292-0.565C425.704,618.688,426.026,619.441,426.297,620.194z
					 M431.787,629.156c-0.539,0.27-0.969,0.62-1.292,1.05c-0.432-0.969-0.997-1.91-1.695-2.826c0.376-0.323,0.779-0.618,1.211-0.888
					C430.656,627.354,431.248,628.242,431.787,629.156z M435.017,616.157v4.118h4.198c0.592,0,1.211-0.026,1.857-0.081v1.534
					c-0.755-0.053-1.4-0.081-1.938-0.081v8.316c0,0.915,0.027,1.883,0.081,2.907h-1.695c0.053-1.023,0.081-1.966,0.081-2.826v-8.397
					h-2.584c0,1.346-0.055,2.638-0.161,3.875c-0.109,1.239-0.337,2.463-0.687,3.674c-0.351,1.211-0.876,2.462-1.574,3.754
					c-0.539-0.323-1.078-0.593-1.615-0.808c0.86-1.239,1.466-2.543,1.816-3.916c0.35-1.373,0.552-2.57,0.605-3.593
					c0.054-1.021,0.081-2.556,0.081-4.602c0-2.099-0.027-3.767-0.081-5.006c2.423-0.107,4.603-0.484,6.54-1.13
					c0.431,0.862,0.78,1.454,1.05,1.776C440.184,615.673,438.191,615.834,435.017,616.157z"/>
				<path fill="#FFFFFF" d="M448.379,616.44c-0.297,0.351-0.768,0.821-1.413,1.413c0.376,0.916,0.672,2.046,0.888,3.391
					c0.215,1.346,0.336,2.813,0.363,4.4c0.026,1.588-0.121,2.961-0.444,4.118c-0.322,1.157-0.807,1.924-1.453,2.301
					c-0.646,0.376-1.265,0.646-1.856,0.808c-0.162-0.539-0.404-1.13-0.727-1.776c0.86-0.054,1.52-0.311,1.978-0.767
					c0.457-0.457,0.753-1.022,0.889-1.696c0.134-0.672,0.214-1.466,0.242-2.382c0.026-0.915,0.013-1.749-0.041-2.503
					c-1.292,1.831-2.396,3.203-3.31,4.118c-0.323-0.538-0.646-0.996-0.97-1.373c0.699-0.485,1.439-1.197,2.221-2.14
					c0.779-0.941,1.385-1.763,1.816-2.463c-0.161-1.13-0.377-2.099-0.646-2.906c-0.593,0.7-1.4,1.481-2.422,2.341
					c-0.323-0.484-0.646-0.888-0.97-1.211c0.86-0.484,1.803-1.264,2.826-2.341c-0.646-0.86-1.319-1.506-2.019-1.938
					c0.376-0.484,0.699-0.941,0.969-1.373c0.86,0.754,1.561,1.507,2.1,2.261c0.537-0.538,1.103-1.399,1.695-2.584
					c0.376,0.484,0.834,0.969,1.373,1.454C449.037,615.808,448.674,616.09,448.379,616.44z M452.012,615.956
					c-0.189,0.619-0.363,1.225-0.524,1.816v12.03c0,0.862,0.026,1.776,0.08,2.745h-1.453c0.053-0.807,0.081-1.695,0.081-2.665
					v-9.285c-0.323,0.754-0.646,1.427-0.969,2.018c-0.323-0.484-0.674-0.888-1.05-1.211c0.646-0.969,1.211-2.152,1.695-3.552
					c0.484-1.399,0.834-2.772,1.05-4.118c0.537,0.216,1.13,0.404,1.776,0.565C452.428,614.785,452.2,615.337,452.012,615.956z
					 M454.797,621.647h3.392c0.699,0,1.479-0.026,2.342-0.081v1.373c-0.808-0.053-1.563-0.081-2.261-0.081h-0.728l-0.242,2.26h1.534
					c0.969,0,1.857-0.026,2.665-0.081v1.534c-0.808-0.053-1.696-0.081-2.665-0.081h-0.807c0.43,1.13,0.954,1.978,1.574,2.543
					c0.618,0.565,1.304,0.957,2.059,1.171c-0.484,0.592-0.808,1.157-0.969,1.695c-0.969-0.754-1.724-1.439-2.261-2.059
					c-0.539-0.618-1.023-1.521-1.453-2.705c-0.378,1.078-0.862,1.992-1.453,2.745c-0.594,0.754-1.4,1.561-2.423,2.422
					c-0.377-0.539-0.754-0.997-1.13-1.373c0.914-0.43,1.708-1.036,2.382-1.816c0.672-0.78,1.116-1.655,1.332-2.624h-1.534
					c-0.755,0-1.453,0.027-2.1,0.081v-1.534c0.646,0.054,1.399,0.081,2.261,0.081h1.615l0.242-2.26h-1.857
					c-0.161,0.377-0.322,0.807-0.484,1.292c-0.484-0.214-0.969-0.404-1.453-0.565c0.323-0.484,0.605-1.036,0.848-1.655
					c0.242-0.618,0.471-1.359,0.687-2.22c0.484,0.216,0.995,0.403,1.534,0.565C455.173,620.707,454.959,621.163,454.797,621.647z
					 M461.741,618.095v1.373c-0.808-0.053-1.724-0.081-2.745-0.081h-3.553c-0.916,0-1.831,0.054-2.745,0.162v-1.453
					c0.808,0.054,1.695,0.081,2.664,0.081h2.342c0.053-0.484,0.107-1.184,0.161-2.099h-2.019c-0.754,0-1.453,0.054-2.099,0.161
					v-1.615c0.646,0.054,1.345,0.081,2.099,0.081h3.553c-0.055,0.593-0.135,1.75-0.242,3.472
					C460.072,618.176,460.934,618.149,461.741,618.095z"/>
				<path fill="#FFFFFF" d="M477.647,615.834c1.076,0,2.125-0.027,3.148-0.081v1.615c-1.023-0.053-2.072-0.081-3.148-0.081h-3.876
					v5.086h2.987c0.86,0,1.776-0.026,2.745-0.081v1.696c-0.969-0.053-1.885-0.081-2.745-0.081h-2.987v6.298h5.168
					c0.914,0,1.909-0.026,2.987-0.081v1.615c-1.078-0.054-2.073-0.081-2.987-0.081h-11.627c-1.131,0-2.288,0.027-3.472,0.081v-1.615
					c1.184,0.054,2.341,0.081,3.472,0.081h4.845v-6.298h-2.503c-1.078,0-2.208,0.028-3.392,0.081v-1.696
					c1.184,0.054,2.313,0.081,3.392,0.081h2.503v-5.086h-3.473c-1.185,0-2.422,0.028-3.714,0.081v-1.615
					c1.292,0.054,2.503,0.081,3.634,0.081H477.647z"/>
			</g>
		</g>
	</g>
	<g opacity="0">
		<text transform="matrix(1 0 0 1 511.8398 601.7622)" fill="#040000" font-family="'ArialMT'" font-size="15">6</text>
		<rect x="402.523" y="570.217" fill="none" stroke="#040000" stroke-width="0.714" width="134" height="94.951"/>
	</g>
</g>
<g>
	<g>
		<g>
			<polygon fill="#E60012" stroke="#E72922" stroke-width="0.9278" points="359.854,454.903 362.5,463.04 371.055,463.04 
				364.133,468.068 366.776,476.213 359.854,471.182 352.933,476.213 355.575,468.068 348.653,463.04 357.211,463.04 			"/>
		</g>
		<g>
			<g>
				<path fill="#DD4422" d="M458.99,389.831H338.901c-4.104,0-7.43,3.188-7.43,7.117v28.474c0,3.931,3.326,7.119,7.43,7.119h9.813
					l9.371,15.371l8.777-15.371h92.128c4.103,0,7.43-3.188,7.43-7.119v-28.474C466.42,393.019,463.093,389.831,458.99,389.831z"/>
				<path fill="#E76E43" d="M457.528,391.579H340.725c-3.99,0-7.223,2.89-7.223,6.455v25.814c0,3.563,3.233,6.453,7.223,6.453h9.546
					l7.775,14.285l8.13-14.285h91.352c3.987,0,7.221-2.89,7.221-6.453v-25.814C464.749,394.469,461.516,391.579,457.528,391.579z"/>
			</g>
			<g>
				<path fill="#FFFFFF" d="M354.499,401.243V408l8.986-2.06c0.987-0.198,2.191-0.602,3.611-1.213l0.748,2.864
					c-1.185,0.104-2.398,0.296-3.64,0.579l-9.706,2.285v8.846c-0.009,0.526,0.066,0.846,0.226,0.959
					c0.113,0.132,0.499,0.235,1.157,0.311c0.903,0.094,1.961,0.141,3.174,0.141c1.778,0,2.906-0.066,3.386-0.198
					c0.987-0.179,1.448-1.768,1.383-4.768c1.129,1.251,2.168,2.031,3.118,2.342c-0.659,2.896-1.882,4.453-3.668,4.669
					c-0.828,0.198-2.437,0.306-4.825,0.325c-1.091,0-2.121-0.047-3.089-0.141c-1.599-0.169-2.573-0.475-2.92-0.917
					c-0.433-0.376-0.635-1.293-0.607-2.751v-8.267l-5.459,1.326c-1.053,0.226-2.149,0.602-3.287,1.128l-0.776-3.033
					c1.129-0.019,2.187-0.155,3.174-0.409l6.348-1.383v-7.082c0.009-1.298-0.065-2.483-0.226-3.555l2.949,0.381
					c0.385,0.038,0.592,0.105,0.621,0.205c0.028,0.099,0.042,0.167,0.042,0.204c0,0.179-0.118,0.4-0.353,0.663
					C354.603,399.658,354.48,400.255,354.499,401.243z"/>
				<path fill="#FFFFFF" d="M374.631,421.868h-3.062c0.16-1.448,0.249-2.596,0.269-3.442v-16.435c0-0.959-0.108-1.952-0.325-2.977
					c1.082,0.235,2.083,0.348,3.005,0.338h2.751c0.885,0,1.877-0.094,2.978-0.282c-0.179,0.959-0.269,1.933-0.269,2.92v15.941
					c0.01,0.969,0.09,2.116,0.24,3.442h-3.104c0.075-0.386,0.146-0.927,0.211-1.623h-2.948
					C374.367,420.476,374.452,421.182,374.631,421.868z M374.377,401.469v4.105h3.062v-4.105H374.377z M374.377,407.676v3.555h3.062
					v-3.555H374.377z M374.377,413.347v4.303h3.062v-4.303H374.377z M396.356,413.136c0.339,0.263,0.479,0.494,0.423,0.691
					c-0.075,0.207-0.319,0.324-0.733,0.353c-0.442,0.019-0.809,0.174-1.101,0.465c-0.809,0.8-1.772,1.693-2.892,2.681
					c1.467,1.58,3.461,2.845,5.981,3.795c-1.354,0.526-2.276,1.284-2.765,2.271c-5.069-3.084-7.962-7.204-8.677-12.358h-1.848v8.874
					c1.438-0.969,2.709-1.923,3.809-2.864c0.028,1.006,0.193,1.98,0.494,2.92c-3.066,1.984-5.069,3.4-6.01,4.246
					c-0.489-0.959-0.997-1.749-1.523-2.37c0.244-0.197,0.409-0.414,0.493-0.649c0.085-0.197,0.122-0.541,0.113-1.03v-18.114
					c-0.028-0.959-0.127-2.116-0.296-3.471c1.561,0.216,2.661,0.325,3.301,0.325h6.123c0.855-0.028,1.97-0.136,3.343-0.325
					c-0.179,1.43-0.272,2.586-0.282,3.471v6.151c0.02,0.865,0.104,1.895,0.254,3.089c-1.185-0.15-2.205-0.235-3.061-0.254h-2.455
					c0.254,1.627,0.767,3.089,1.538,4.387c1.57-1.486,2.755-2.835,3.555-4.049L396.356,413.136z M391.687,403.867v-2.808h-6.94
					v2.808H391.687z M384.746,406.04v2.821h6.94v-2.821H384.746z"/>
				<path fill="#FFFFFF" d="M419.563,411.259l2.201,0.296c-1.6-1.326-2.893-3.09-3.88-5.291h-0.197
					c-0.715,1.844-1.853,3.588-3.414,5.234l2.018,0.311c0.508,0.084,0.775,0.188,0.804,0.311c0.028,0.122,0.043,0.197,0.043,0.226
					c0,0.207-0.193,0.423-0.579,0.649c-0.132,0.028-0.207,0.367-0.226,1.016c0.16,4.251-1.383,7.661-4.627,10.228
					c-0.556-0.752-1.453-1.43-2.694-2.032c3.216-1.477,4.806-4.016,4.768-7.618c0-0.423-0.047-1.162-0.141-2.215
					c-0.01-0.104-0.02-0.184-0.028-0.24c-0.828,0.8-1.839,1.618-3.033,2.455c-0.461-0.79-1.251-1.524-2.37-2.201
					c0.038-0.009,0.085-0.028,0.142-0.057c0.075-0.028,0.136-0.047,0.183-0.057c-0.084-0.084-0.202-0.216-0.353-0.395
					c-0.752-0.837-1.303-1.42-1.65-1.749v10.637c-0.01,0.658,0.062,1.623,0.212,2.892h-3.033c0.141-1.307,0.207-2.271,0.197-2.892
					v-8.986c-0.621,1.27-1.401,2.61-2.342,4.021c-0.715-0.724-1.679-1.218-2.892-1.481c2.125-1.919,3.752-4.66,4.881-8.225h-0.974
					c-0.471-0.009-1.396,0.075-2.779,0.254v-2.681c1.383,0.179,2.309,0.264,2.779,0.254h1.326v-4.218
					c0.01-0.367-0.07-1.222-0.24-2.567l2.779,0.338c0.518,0.066,0.79,0.151,0.818,0.254s0.043,0.169,0.043,0.197
					c0,0.179-0.179,0.404-0.536,0.677c-0.16,0.122-0.24,0.499-0.24,1.128v4.19h0.578c0.63,0.019,1.566-0.065,2.808-0.254v2.681
					c-1.326-0.188-2.243-0.273-2.751-0.254h-0.635v0.86c1.495,1.167,2.718,2.196,3.668,3.089l-1.495,2.145
					c2.774-1.204,4.806-3.179,6.094-5.925h-1.325c-1.017,0-1.934,0.057-2.751,0.169v-2.596c1.325,0.169,2.242,0.254,2.751,0.254
					h2.045c0.254-0.894,0.428-1.952,0.522-3.174c-0.696,0.066-1.834,0.15-3.414,0.254c-0.546,0.028-0.95,0.052-1.214,0.071
					c-0.122-0.856-0.517-1.773-1.185-2.751c1.204,0.169,2.187,0.254,2.948,0.254c4.129-0.132,7.261-0.785,9.396-1.961l1.764,2.172
					c0.188,0.235,0.282,0.438,0.282,0.607c0,0.084-0.019,0.155-0.057,0.211c-0.075,0.094-0.212,0.141-0.409,0.141
					c-0.15,0-0.311-0.023-0.479-0.071c-0.141-0.047-0.292-0.07-0.451-0.07c-0.226,0-0.508,0.042-0.847,0.127
					c-1.119,0.254-2.285,0.456-3.499,0.606c-0.094,0.922-0.296,2.116-0.606,3.583h4.74c0.291-0.009,1.213-0.084,2.766-0.226v2.567
					c-1.157-0.104-2.069-0.16-2.737-0.169h-2.229c1.298,2.53,3.465,4.223,6.503,5.079c-0.837,0.546-1.533,1.416-2.088,2.61
					c-0.648-0.367-1.396-0.851-2.243-1.453c-0.057,0.028-0.127,0.089-0.211,0.183c-0.028,0.028-0.048,0.047-0.057,0.057
					c-0.188,0.197-0.282,0.621-0.282,1.27v6.645c-0.01,0.602,0.057,1.538,0.197,2.808h-3.033c0.142-1.279,0.207-2.215,0.197-2.808
					v-6.757C419.798,413.615,419.723,412.736,419.563,411.259z"/>
				<path fill="#FFFFFF" d="M431.583,411.556h1.382v-2.949c-0.366,0.01-1.26,0.094-2.68,0.254v-0.832
					c-0.771-0.64-1.707-1.053-2.808-1.242c2.492-2.116,4.284-5.295,5.375-9.537l2.511,1.185c0.433,0.226,0.643,0.447,0.628,0.663
					c-0.014,0.216-0.252,0.409-0.712,0.579c-0.151,0.075-0.391,0.461-0.72,1.157c-0.075,0.113-0.277,0.499-0.606,1.157h2.68
					c0.818-0.028,1.754-0.108,2.808-0.24v2.61c-1.232-0.141-2.158-0.221-2.779-0.24h-3.724c-0.574,0.959-1.054,1.73-1.439,2.313
					c0.63,0.057,1.129,0.084,1.495,0.084h3.09c0.799-0.037,1.707-0.122,2.723-0.254v2.568c-1.138-0.132-2.046-0.207-2.723-0.226
					h-0.578v2.949h1.128c0.753-0.038,1.67-0.127,2.751-0.268v2.582c-0.075-0.009-0.183-0.019-0.324-0.028
					c-1.448-0.141-2.248-0.211-2.398-0.211h-1.156v4.825c0.902-0.687,1.811-1.458,2.723-2.313c0.159,1.082,0.399,1.97,0.72,2.666
					c-2.737,2.069-4.449,3.494-5.136,4.275l-1.946-2.455c0.517-0.348,0.822-0.63,0.917-0.847c0.131-0.216,0.192-0.63,0.183-1.241
					v-4.91h-1.382c-0.32,0-1.237,0.066-2.751,0.198v-2.511C430.092,411.457,431.009,411.537,431.583,411.556z M439.821,423.745
					c-0.395-0.809-1.109-1.533-2.145-2.173c3.085-0.799,5.263-2.003,6.532-3.611h-2.342c-0.264,0-1.218,0.089-2.864,0.268v-2.61
					c0.94,0.122,1.646,0.193,2.116,0.211v-12.598h4.557v-1.185h-3.287c-0.159,0-0.742,0.047-1.749,0.141
					c-0.471,0.038-0.813,0.066-1.029,0.085v-2.624c1.024,0.132,1.951,0.216,2.778,0.254h3.287l-0.197-2.708l2.596,0.338
					c0.339,0.066,0.56,0.226,0.663,0.479c0.01,0.038,0.015,0.09,0.015,0.155c0,0.198-0.1,0.372-0.297,0.522
					c-0.132,0.113-0.197,0.518-0.197,1.213h3.64c0.818-0.038,1.74-0.122,2.766-0.254v2.624c-0.17-0.019-0.438-0.042-0.805-0.071
					c-1.147-0.103-1.801-0.155-1.961-0.155h-3.64v1.185h4.726v12.598h0.028c0.734-0.028,1.595-0.117,2.582-0.268v2.638
					c-1.467-0.16-2.328-0.24-2.582-0.24h-3.033c2.163,1.082,4.063,2.238,5.7,3.47l-1.595,2.173
					c-1.891-1.608-3.912-2.892-6.066-3.852l1.242-1.792h-4.331l1.509,1.128c0.386,0.301,0.579,0.546,0.579,0.734
					c0,0.028-0.017,0.094-0.05,0.197s-0.336,0.188-0.91,0.254c-0.207-0.019-0.648,0.202-1.326,0.663
					C443.217,422.047,441.58,422.983,439.821,423.745z M450.444,406.406v-1.157h-6.785v1.157H450.444z M443.659,409.524h6.785
					v-1.086h-6.785V409.524z M450.444,412.614v-1.058h-6.785v1.058H450.444z M443.659,414.645v1.185h6.785v-1.185H443.659z"/>
			</g>
		</g>
	</g>
	<g opacity="0">
		<rect x="320.255" y="350.5" fill="none" stroke="#040000" stroke-width="0.9202" width="161.672" height="130.706"/>
		<text transform="matrix(1 0 0 1 402.5234 375.2163)" fill="#040000" font-family="'ArialMT'" font-size="15">0</text>
	</g>
</g>
<g>
	<g>
		<circle fill="#FFFFFF" stroke="#E60012" stroke-width="1.6859" cx="94.677" cy="766.251" r="7.706"/>
		<rect x="59.382" y="775.424" fill="#E60012" width="66.768" height="27.807"/>
		<g>
			<path fill="#FFFFFF" d="M83.536,784.996c-0.185,0.289-0.566,1.039-1.144,2.248h7.337c1.262,0,2.288-0.025,3.077-0.078v1.42
				c-0.842-0.052-1.842-0.079-2.998-0.079h-0.789c-0.579,1.526-1.368,2.894-2.367,4.103c1.945,0.737,3.945,1.684,5.996,2.84
				c-0.369,0.421-0.737,0.92-1.104,1.499c-1.946-1.315-3.972-2.393-6.075-3.234c-1.315,1-2.814,1.775-4.497,2.327
				c-1.684,0.553-3.077,0.934-4.181,1.145c-0.211-0.632-0.526-1.184-0.947-1.657c1.629-0.105,3.168-0.395,4.615-0.868
				c1.446-0.473,2.564-0.998,3.353-1.577c-1.578-0.578-3.419-1.104-5.522-1.578c0.841-1.156,1.472-2.156,1.894-2.998H78.21
				c-0.631,0-1.526,0.027-2.682,0.079v-1.42c0.631,0.053,1.499,0.078,2.604,0.078h2.604c0.683-1.262,1.209-2.524,1.578-3.787
				c0.631,0.369,1.235,0.632,1.815,0.789C83.917,784.457,83.72,784.707,83.536,784.996z M83.576,778.487
				c0.578,0.737,1.156,1.552,1.735,2.445c-0.315,0.158-0.658,0.395-1.025,0.71h7.258c-0.053,0.737-0.079,1.342-0.079,1.814
				c0,0.474,0.026,1.104,0.079,1.894h-1.657v-2.445H78.21v2.288h-1.657c0.052-0.736,0.079-1.367,0.079-1.894
				c0-0.525-0.053-1.077-0.158-1.657h7.258c-0.422-0.894-0.895-1.63-1.42-2.209C82.787,779.118,83.207,778.803,83.576,778.487z
				 M85.153,792.057c0.736-0.683,1.446-1.866,2.13-3.55h-5.365c-0.421,0.631-0.868,1.368-1.341,2.209
				C82.733,791.295,84.258,791.741,85.153,792.057z"/>
			<path fill="#FFFFFF" d="M103.378,786.455h6.232c1.052,0,2.024-0.025,2.919-0.078v1.656c-0.842-0.104-1.789-0.157-2.84-0.157
				h-6.943c-0.895,1.894-1.842,3.445-2.84,4.654c-1,1.211-2.078,2.341-3.234,3.393c-0.422-0.474-0.921-0.894-1.499-1.263
				c0.736-0.367,1.669-1.156,2.801-2.366c1.13-1.21,2.142-2.683,3.037-4.418h-1.499c-1.21,0-2.394,0.053-3.55,0.157v-1.656
				c1.156,0.053,2.34,0.078,3.55,0.078h2.13c0.525-1.156,0.919-2.287,1.184-3.393c0.525,0.316,1.13,0.58,1.814,0.789
				C104.483,784.115,104.061,784.983,103.378,786.455z M103.852,778.487c0.736,0.999,1.288,1.763,1.657,2.288
				c-0.631,0.368-1.104,0.658-1.42,0.867h7.811c-0.053,0.737-0.079,1.29-0.079,1.657c0,0.368,0.026,0.868,0.079,1.499h-1.657v-1.894
				H98.487v1.894H96.83c0.052-0.421,0.079-0.894,0.079-1.42c0-0.525-0.027-1.104-0.079-1.736h7.021
				c-0.211-0.473-0.684-1.235-1.42-2.288C102.799,779.146,103.272,778.855,103.852,778.487z M104.917,792.097
				c-0.658,0.974-1.408,1.985-2.249,3.037c0.683,0,2.945-0.104,6.785-0.315c-0.369-0.789-0.947-1.762-1.736-2.919
				c0.42-0.21,0.92-0.525,1.499-0.947c1.472,2.315,2.525,4.13,3.156,5.444c-0.58,0.263-1.132,0.578-1.657,0.946
				c-0.264-0.579-0.473-0.999-0.631-1.262c-2.315,0.209-4.26,0.381-5.838,0.513c-1.578,0.131-2.709,0.328-3.393,0.592
				c-0.264-0.737-0.526-1.395-0.789-1.973c1.052-0.474,1.959-1.328,2.722-2.564c0.762-1.235,1.38-2.511,1.854-3.826
				c0.473,0.369,1.077,0.737,1.814,1.104C106.086,790.4,105.574,791.124,104.917,792.097z"/>
		</g>
		<polygon fill="#1D2088" points="113.612,746.416 94.877,738.97 94.877,738.617 93.102,738.617 93.102,768.999 94.877,768.999 
			94.877,754.608 		"/>
	</g>
	<g opacity="0">
		<text transform="matrix(1 0 0 1 135.3398 756.1885)" fill="#040000" font-family="'ArialMT'" font-size="15">9</text>
		<rect x="23.33" y="723.928" fill="none" stroke="#040000" stroke-width="0.714" width="134" height="94.951"/>
	</g>
</g>
<g>
	<g>
		<circle fill="#FFFFFF" stroke="#E60012" stroke-width="1.6712" cx="261.545" cy="671.422" r="7.641"/>
		<rect x="229.128" y="683.911" fill="#E60012" width="66.188" height="27.563"/>
		<g>
			<path fill="#FFFFFF" d="M245.354,696.152c-0.522-0.338-1.017-0.638-1.486-0.899c0.26-0.364,0.521-0.782,0.782-1.251
				c0.573,0.365,1.16,0.717,1.76,1.056c0.599,0.34,1.134,0.64,1.604,0.899c-0.366,0.47-0.704,0.938-1.017,1.408
				C246.421,696.896,245.874,696.492,245.354,696.152z M247.113,703.074c-0.704,1.408-1.265,2.503-1.682,3.285
				c-0.522-0.521-0.991-0.888-1.408-1.095c1.303-1.616,2.476-3.677,3.52-6.179c0.364,0.313,0.755,0.625,1.173,0.938
				C248.351,700.649,247.817,701.667,247.113,703.074z M248.873,691.655c-0.418,0.365-0.782,0.757-1.095,1.174
				c-0.418-0.417-0.913-0.86-1.486-1.33c-0.574-0.47-1.069-0.833-1.486-1.095c0.417-0.364,0.755-0.704,1.017-1.017
				C247.282,690.431,248.298,691.187,248.873,691.655z M255.912,693.924v1.329h2.502c1.095,0,2.163-0.025,3.207-0.078v1.33
				c-1.148-0.052-2.269-0.078-3.363-0.078h-5.396c-1.617,0-2.972,0.026-4.067,0.078v-1.33c1.042,0.053,2.294,0.078,3.754,0.078
				h1.799v-1.329h-1.564c-0.887,0-1.799,0.026-2.738,0.078v-1.33c0.938,0.053,1.851,0.078,2.738,0.078h1.564v-1.251h-1.408
				c-1.304,0-2.452,0.027-3.441,0.078v-1.329c0.99,0.052,2.112,0.078,3.363,0.078h1.486c0-0.626-0.027-1.225-0.078-1.799h1.721
				c-0.053,0.678-0.078,1.278-0.078,1.799h2.19c0.677,0,1.59-0.026,2.737-0.078v1.329c-1.147-0.051-2.034-0.078-2.659-0.078h-2.268
				v1.251h1.564c0.417,0,1.459-0.025,3.128-0.078v1.33c-1.617-0.052-2.633-0.078-3.05-0.078H255.912z M258.493,704.639v-1.095
				h-6.492v3.05h-1.564c0.051-0.938,0.078-1.877,0.078-2.815v-3.52c0-0.729-0.027-1.643-0.078-2.737h9.698
				c-0.052,0.991-0.078,1.877-0.078,2.659v4.771c0,0.521-0.131,0.873-0.391,1.056c-0.261,0.183-0.887,0.403-1.877,0.665
				c-0.053-0.469-0.34-0.991-0.86-1.564C257.971,705.107,258.493,704.951,258.493,704.639z M258.493,700.024v-1.33h-6.492v1.33
				H258.493z M258.493,702.37v-1.173h-6.492v1.173H258.493z"/>
			<path fill="#FFFFFF" d="M270.85,693.532c-0.261,1.408-0.586,2.673-0.978,3.794s-0.913,2.229-1.564,3.323
				c-0.652,1.096-1.681,2.347-3.089,3.755c-0.365-0.47-0.913-0.834-1.642-1.096c1.459-1.042,2.62-2.241,3.48-3.598
				c0.86-1.354,1.499-2.945,1.917-4.771h-2.112c-0.782,0-1.669,0.053-2.659,0.156v-1.643c0.938,0.053,1.799,0.078,2.581,0.078
				H270.85z M273.626,690.639c-0.027,0.626,0.026,1.396,0.157,2.308c0.129,0.912,0.612,1.994,1.447,3.245
				c2.137-1.771,3.415-3.154,3.833-4.145c0.573,0.521,1.095,1.017,1.564,1.485c-0.678,0.47-1.343,0.991-1.994,1.564
				c-0.653,0.574-1.552,1.356-2.698,2.347c0.417,0.887,1.173,1.877,2.268,2.972c1.095,1.095,2.424,1.877,3.989,2.347
				c-0.887,0.418-1.408,0.938-1.564,1.564c-1.982-1.199-3.507-2.529-4.575-3.989c-1.069-1.459-1.891-2.92-2.464-4.38v8.682
				c0.051,0.729-0.222,1.251-0.821,1.564c-0.6,0.313-1.396,0.521-2.385,0.625c-0.053-0.574-0.287-1.199-0.704-1.877
				c0.833,0.156,1.434,0.183,1.799,0.078c0.364-0.104,0.547-0.442,0.547-1.017v-12.357c0-1.303-0.053-2.346-0.157-3.128h1.799
				C273.666,689.31,273.652,690.013,273.626,690.639z"/>
		</g>
		<polygon fill="#00A0E9" points="281.521,649.538 262.948,642.153 262.948,641.804 261.188,641.804 261.188,671.926 
			262.948,671.926 262.948,657.651 		"/>
	</g>
	<g opacity="0">
		<text transform="matrix(1 0 0 1 242.3916 737.1338)" fill="#040000" font-family="'ArialMT'" font-size="15">8</text>
		<rect x="175.42" y="637.846" fill="none" stroke="#040000" stroke-width="0.7496" width="134" height="104.654"/>
	</g>
</g>
<g>
	<g>
		<circle fill="#FFFFFF" stroke="#E60012" stroke-width="1.776" cx="345.682" cy="637.073" r="8.118"/>
		<rect x="317.311" y="650.635" fill="#FFF100" width="70.338" height="29.297"/>
		<g>
			<path d="M329.563,661.751l6.15-0.332l-0.665,11.054c-0.112,0.942,0.193,1.413,0.914,1.413h1.413c0.443,0,0.733-0.166,0.873-0.499
				c0.138-0.332,0.262-1.273,0.374-2.826c0.665,0.389,1.33,0.638,1.995,0.748c-0.278,1.885-0.569,3.062-0.873,3.533
				c-0.305,0.47-0.901,0.706-1.787,0.706h-2.826c-1.275,0-1.912-0.776-1.912-2.327l0.582-10.223l-4.322,0.249
				c-0.278,2.716-0.901,5.111-1.87,7.189c-0.97,2.077-2.452,3.975-4.446,5.693c-0.389-0.555-0.915-1.054-1.58-1.496
				c1.218-0.665,2.438-1.912,3.657-3.74c1.218-1.828,2.022-4.35,2.41-7.563c-1.995,0.111-3.603,0.249-4.82,0.416l-0.25-1.663
				c1.164,0,2.88-0.083,5.153-0.249c0.111-2.604,0.111-4.322,0-5.153c0.942,0.112,1.69,0.167,2.244,0.167
				C329.812,657.512,329.673,659.147,329.563,661.751z"/>
			<path d="M351.712,658.967c-0.029,0.748-0.098,1.732-0.208,2.95h6.732c0.997,0,1.995-0.055,2.992-0.166v1.662
				c-0.997-0.055-1.995-0.083-2.992-0.083h-4.073v7.563c0.665-0.775,1.33-1.648,1.995-2.618c0.665-0.969,1.191-1.953,1.579-2.95
				c0.72,0.332,1.413,0.61,2.078,0.831c-0.777,0.776-1.552,1.773-2.327,2.992c-0.777,1.219-1.857,2.438-3.242,3.656
				c-0.056,0.943,0.013,1.44,0.208,1.496c0.193,0.055,0.512,0.11,0.956,0.167h2.66c0.665-0.057,1.135-0.112,1.413-0.167
				c0.276-0.056,0.526-0.775,0.748-2.16c0.553,0.554,1.19,0.887,1.911,0.997c-0.554,1.218-0.97,1.966-1.247,2.244
				c-0.278,0.276-0.748,0.415-1.413,0.415h-4.904c-0.887,0-1.441-0.124-1.662-0.374c-0.222-0.249-0.333-0.762-0.333-1.537
				c-0.333,0.276-0.846,0.608-1.538,0.997c-0.693,0.387-1.289,0.72-1.787,0.997c-0.166-0.332-0.582-0.776-1.247-1.329
				c0.775-0.278,1.606-0.665,2.493-1.164c0.886-0.499,1.58-0.969,2.078-1.413v-8.644h-1.164c-0.278,1.607-0.582,2.909-0.915,3.906
				c-0.332,0.997-0.748,1.953-1.247,2.867c-0.499,0.915-1.136,1.829-1.912,2.743c-0.776,0.914-1.857,1.953-3.241,3.116
				c0-0.332-0.527-0.804-1.579-1.412c0.941-0.499,1.814-1.149,2.618-1.953c0.803-0.803,1.523-1.676,2.161-2.618
				c0.636-0.941,1.149-1.967,1.538-3.075c0.387-1.108,0.665-2.299,0.831-3.574h-3.241c-0.998,0-2.023,0.028-3.075,0.083v-1.579
				c1.107,0.056,2.132,0.083,3.075,0.083h3.491c0.055-0.665,0.096-1.468,0.125-2.41c0.027-0.941-0.014-1.911-0.125-2.909
				c1.164,0.278,1.912,0.444,2.244,0.499C351.892,657.596,351.739,658.219,351.712,658.967z M356.99,661.335
				c-0.554-0.831-1.302-1.745-2.244-2.742c0.387-0.276,0.803-0.637,1.247-1.081c0.719,0.665,1.496,1.553,2.327,2.66
				C358.042,660.394,357.599,660.782,356.99,661.335z"/>
			<path d="M371.95,659.839c0-1.273-0.028-2.271-0.083-2.991h1.911c-0.056,0.664-0.083,1.662-0.083,2.991h7.148
				c0.387,0,0.997-0.026,1.828-0.083v1.663c-0.831-0.055-1.441-0.084-1.828-0.084h-7.148v6.234l4.488-0.167
				c0-2.049-0.028-3.545-0.083-4.488h1.828c-0.111,0.888-0.166,2.161-0.166,3.823c0,1.663,0.055,2.882,0.166,3.657h-1.745v-1.579
				l-4.488,0.166v4.073c0,0.721,0.499,1.052,1.496,0.997h4.405c0.609,0,1.024-0.235,1.247-0.706c0.221-0.471,0.387-1.177,0.498-2.12
				c0.554,0.444,1.191,0.777,1.912,0.998c-0.444,1.496-0.86,2.423-1.247,2.784c-0.389,0.359-1.247,0.54-2.576,0.54h-5.07
				c-1.552,0.055-2.355-0.499-2.41-1.662v-4.904l-5.901,0.333c0.055-0.609,0.083-1.662,0.083-3.158c0-1.551-0.028-2.66-0.083-3.325
				h1.829c-0.057,0.665-0.084,2.3-0.084,4.904l4.156-0.166v-6.234h-5.153c-0.997,0-1.94,0.029-2.825,0.084v-1.663
				c0.885,0.057,1.828,0.083,2.825,0.083H371.95z"/>
		</g>
		<polygon fill="#009944" points="366.834,616.17 347.097,608.323 347.097,607.952 345.224,607.952 345.224,639.958 
			347.097,639.958 347.097,624.793 		"/>
	</g>
	<g opacity="0">
		<text transform="matrix(1 0 0 1 349.7598 702.4678)" fill="#040000" font-family="'ArialMT'" font-size="15">7</text>
		<rect x="309.42" y="596.361" fill="none" stroke="#040000" stroke-width="0.6674" width="96.58" height="115.112"/>
	</g>
</g> 
</svg>