<svg version="1.0" id="图层_1" xmlns="http://www.w3.org/2000/svg" xmlns:xlink="http://www.w3.org/1999/xlink" x="0px" y="0px" 
	width="100%" height="100%" viewBox="0 0 720 1280" xml:space="preserve"
  style="position: relative;display: block;"
  >
<g>
	<path opacity="0.6" fill="#FFFFFF" stroke="#00A0E9" stroke-width="6.8018" d="M690.643,831.493
		c-9.351-14.053-9.351-4.681-13.326-8.464c-3.979-3.779-2.255-24.318-0.688-36.806c1.558-12.489,0-24.982,0-29.665
		c0-4.686-3.12-9.364-14.021-24.983c-10.909-15.609-14.021-12.482-18.695-21.852c-3.721-7.468-11.388-3.04-13.561-0.931
		c-0.11,0.585-0.256,0.931-0.46,0.931c-0.317,0-0.102-0.392,0.46-0.931c0.72-3.967-0.46-19.362-0.46-19.362s0-7.809,0-27.427
		c0-19.616-1.556-16.284-9.344-22.536c-3.839-3.071-3.889-4.249-2.954-4.657c-5.895,0.068-19.601,0.354-31.834,1.542
		c-16.099,1.557-8.829,3.114-19.73,9.366c-10.908,6.242-15.579,13.079-15.579,13.079s-71.647,7.213-76.323,0
		c-4.672-7.209-9.348-8.396-15.578-11.516c-6.232-3.126-6.232-7.815-6.232-21.862c0-14.051,0-12.486,0-17.171
		c0-4.685-6.227-20.293-6.227-20.293h-10.901c0,0-18.696,0-23.368,0c-4.673,0-10.901-9.361-10.901-9.361v-24.982
		c0,0,0-32.786,0-39.032c0-6.243,12.465-15.612,15.573-20.294c3.117-4.683,6.233-12.488,7.79-19.636
		c1.56-7.141,14.022-31.881,14.022-31.881v-39.028l12.46-10.405l11.419-5.205l22.852-27.063c0,0,13.494-16.654,17.656-20.816
		c4.149-4.162,19.729-6.242,19.729-6.242h24.92l15.5-8.952c-7.18-0.905-9.792-6.138-9.792-6.138
		c-2.599-4.685,19.729-22.376,19.729-22.376s2.597-14.05,1.561-23.419c-1.038-9.367-7.787-43.188-7.787-43.188
		c-22.846-2.605-19.733-16.134-19.733-16.134c0.517-11.973,36.346-32.785,36.346-32.785c16.092-9.886,2.596-41.109,2.596-41.109
		c-43.101-3.645-33.229-34.346-34.789-34.346c-1.556,0-7.788-7.806-7.788-7.806l-4.673-11.967l-16.092,8.326
		c-12.464,2.604-48.813-15.091-48.813-15.091c-23.883-8.848-37.612-3.122-37.612-3.122l-0.292-4.165
		c3.639-19.252-28.033-16.653-28.033-16.653c-0.677,0.012-1.351,0.034-2.023,0.068c-40.01,2.158-54.606,52.958-56.648,49.889
		c-2.077-3.119-4.674-17.691-4.674-17.691s0-8.846-7.263-22.898c-7.272-14.049-14.542-4.683-14.542-4.683
		c-21.288,11.451-24.923,37.464-36.347,39.551c-11.417,2.079-23.363,15.608-23.363,15.608c-9.348,11.97,11.941,17.175,11.941,17.175
		c17.654,9.367-4.156,15.612-4.156,15.612c-28.56,14.048-23.886,43.191-23.886,43.191c4.678,19.777-4.669,21.854-4.669,21.854
		c-6.75,5.728-18.696-7.285-18.696-7.285c-6.746-8.847-9.345-5.202-16.092-5.202c-6.754,0-6.232,6.246-6.232,6.246
		c-0.522,14.046-6.748,18.732-6.748,18.732c-10.386,3.122-29.596,10.409-36.346,19.253c-6.754,8.847-10.382,28.101-10.382,28.101
		c-14.022,23.937-56.594,34.865-58.676,35.907c-2.08,1.041-12.461,5.723-16.095,7.806c-3.642,2.081-8.304,8.328-9.344,9.892
		c-1.045,1.557-7.271,8.844-7.79,10.403c-0.522,1.562-3.116,9.367-4.672,16.652c-1.558,7.285,2.079,9.886,2.079,9.886
		c8.306,10.93,10.388,27.584,10.388,27.584c-0.63,2.324-1.556,4.13-2.645,5.564l0.017,0.02c0,0,8.335,5.86,13.009,9.85
		c4.667,3.991,6.227,0.693,6.227,0.693s7.788-1.561,28.037,0c20.247,1.563,15.577,4.685,15.577,9.368
		c0,4.685,1.562,10.926-7.787,34.344c-9.346,23.419-6.233,14.051-12.46,24.076c-6.234,10.031-6.234,5.585-14.021,13.395
		c-7.787,7.804-20.247,21.857-24.919,24.978c-4.676,3.12-23.366,12.487-31.157,18.734c-7.786,6.246-24.398,20.293-24.398,20.293
		s-6.752,28.101-1.225,32.785c5.529,4.68,1.225,26.799,1.225,26.799s5.708,18.476,0,35.648
		c-5.715,17.168,10.379,26.535,11.934,27.465c1.562,0.932,9.349,13.118,9.349,13.118l45.174,46.84L123.653,755
		c0,0,20.252,9.363,26.479,9.363c6.234,0,9.347,15.612,9.347,15.612s3.117,7.806,9.352,18.735
		c6.229,10.925,3.108,12.489,4.667,24.318c1.561,11.836,0,11.585,0,11.585s0,9.367,0,10.93c0,1.558-1.559,14.047-3.116,18.731
		c-1.551,4.683,0,14.049-1.551,24.98c-1.562,10.93-4.676,0-10.908,12.488c-6.23,12.483,0,9.367,0,9.367l4.673,24.977l-12.464,10.931
		v21.852l12.464,32.786l21.811,12.748h23.242h0.003h-0.003l6.348,2.86h32.709h24.93c0,0,24.919-7.798,29.593-12.491
		c4.675-4.677,23.366-20.29,31.156-24.974c7.783-4.683,14.017-15.614,17.129-23.415c3.118-7.809-3.113-17.177,0-26.543
		c3.118-9.367,24.919-40.586,24.919-40.586h38.95c0,0,29.592,12.488,35.82,21.855c6.229,9.363,23.365,3.116,43.615,15.609
		c20.248,12.487,29.599,12.487,29.599,12.487l39.718,26.541l27.262,37.469l5.179,8.365l0.014-0.036l29.589-2.605
		c0,0,4.675-5.203,4.675-11.971c0-6.765,0-7.809,0-7.809s0,0,3.113-8.322c3.12-8.33,9.348-2.599,11.945,1.038
		c2.598,3.649,9.859,23.418,9.859,18.738c0-4.683,27.008-37.988,27.008-37.988s3.113-11.444,4.149-15.09
		c1.044-3.641,0.519-8.844,0.519-8.844s5.195-4.169,7.788-8.329c2.596-4.165,9.865-6.766,11.428-7.804
		c1.555-1.044,5.705-6.767,8.303-10.927c2.604-4.17,1.039-31.747,2.077-36.431c0.109-0.476,0.468-1.116,0.953-1.826l-3.544-10.667
		C712.452,862.711,699.988,845.544,690.643,831.493z"/>
	
		<text transform="matrix(1 0 0 1 654.583 881.0645)" opacity="0" fill="#040000" enable-background="new    " font-family="'SimHei'" font-size="20">轮廓</text>
</g>
<g>
	<g>
		<path fill="#FFFFFF" stroke="#E60012" stroke-width="2.2926" d="M435.195,781.149c0,5.785-4.689,10.478-10.479,10.478
			c-5.789,0-10.48-4.692-10.48-10.478c0-5.792,4.691-10.481,10.48-10.481C430.506,770.668,435.195,775.357,435.195,781.149z"/>
		<rect x="378.16" y="795.455" fill="#FFF100" width="90.798" height="37.814"/>
		<g>
			<g>
				<path d="M395.472,810.248c0.071-2.503,0.089-4.185,0.054-5.042c-0.036-0.858-0.09-1.681-0.16-2.468
					c0.858,0.144,1.823,0.251,2.896,0.321c-0.215,0.716-0.376,1.754-0.482,3.111c-0.107,1.36-0.161,2.72-0.161,4.077h5.472
					c1.932,0,3.718-0.07,5.364-0.215v2.361c-1.432-0.071-2.896-0.107-4.398-0.107h-6.33c0.284,1.217,0.786,2.45,1.502,3.701
					c0.714,1.252,1.448,2.36,2.199,3.326s1.787,1.984,3.111,3.058c1.323,1.073,2.771,1.968,4.346,2.683
					c-0.573,0.429-1.146,1.143-1.717,2.146c-1.288-0.716-2.559-1.609-3.809-2.683c-1.253-1.072-2.505-2.484-3.756-4.237
					c-1.252-1.752-2.199-3.38-2.843-4.882c-0.573,1.574-1.181,2.88-1.824,3.916c-0.644,1.038-1.341,1.984-2.092,2.843
					s-1.717,1.717-2.897,2.575c-1.18,0.858-2.521,1.717-4.023,2.575c-0.573-0.858-1.217-1.609-1.931-2.253
					c1.502-0.5,2.985-1.216,4.452-2.146c1.466-0.929,2.664-1.984,3.595-3.165c0.929-1.18,1.68-2.414,2.253-3.701
					c0.571-1.287,0.929-2.538,1.073-3.755h-5.901c-1.717,0-3.076,0.036-4.077,0.107v-2.361c1.001,0.072,2.36,0.145,4.077,0.215
					H395.472z"/>
				<path d="M434.419,807.78c0,1.717,0.035,3.363,0.107,4.936H425.3v2.575h5.257c1.144,0,2.431-0.035,3.862-0.107v1.932
					c-1.217-0.143-2.468-0.215-3.755-0.215H425.3v2.575h7.725c1.215,0,2.538-0.07,3.97-0.215v2.038
					c-1.432-0.07-2.755-0.106-3.97-0.106H415.75c-1.287,0-2.719,0.036-4.291,0.106v-2.038c1.645,0.145,3.039,0.215,4.185,0.215
					h7.617V816.9h-5.15c-1.145,0-2.432,0.072-3.862,0.215v-2.039c1.431,0.072,2.718,0.107,3.862,0.107h5.15v-2.468h-9.12
					c0.071-1.572,0.107-3.182,0.107-4.828c0-1.717-0.036-3.326-0.107-4.828h20.386C434.454,804.491,434.419,806.063,434.419,807.78z
					 M415.214,824.732c-0.358,0.929-0.788,1.895-1.287,2.897c-0.644-0.287-1.324-0.574-2.039-0.858
					c0.43-0.788,0.821-1.539,1.181-2.254c0.356-0.714,0.679-1.572,0.966-2.574c0.786,0.286,1.537,0.536,2.253,0.751
					C415.928,823.123,415.571,823.804,415.214,824.732z M423.261,810.892v-6.223h-6.974v6.223H423.261z M421.759,809.604
					c-0.501,0.287-1.181,0.644-2.039,1.073c-0.573-1.358-1.18-2.61-1.823-3.756c0.714-0.284,1.395-0.606,2.038-0.965
					C420.649,807.244,421.258,808.461,421.759,809.604z M422.51,826.878c-0.573,0-1.324,0.107-2.253,0.322
					c-0.072-1.432-0.287-2.86-0.644-4.292c0.571-0.07,1.287-0.178,2.146-0.321C422.116,824.233,422.365,825.661,422.51,826.878z
					 M432.381,810.892v-6.223H425.3v6.223H432.381z M428.947,826.234l-2.253,0.644c-0.215-1.217-0.573-2.609-1.073-4.184l2.146-0.43
					C428.124,823.482,428.518,824.805,428.947,826.234z M429.913,808.264c-0.287,0.466-0.681,1.198-1.181,2.199
					c-0.716-0.285-1.432-0.536-2.146-0.751c0.786-1.287,1.43-2.538,1.931-3.755c0.645,0.214,1.396,0.536,2.254,0.965
					C430.484,807.352,430.198,807.799,429.913,808.264z M436.028,826.127c-0.573,0.285-1.324,0.645-2.253,1.073
					c-0.358-1.432-0.966-2.896-1.824-4.398c0.714-0.215,1.431-0.465,2.146-0.752C434.812,823.767,435.455,825.125,436.028,826.127z"
					/>
				<path d="M450.404,811.321v-4.721c0-1.288-0.036-2.396-0.106-3.326h2.574c-0.071,0.931-0.106,2.038-0.106,3.326v4.721h4.076
					c1.859,0,3.648-0.035,5.365-0.107v2.253c-1.646-0.07-3.434-0.107-5.365-0.107h-4.076v10.622h6.866
					c1.787,0,3.361-0.035,4.721-0.107v2.253c-1.359-0.071-2.934-0.106-4.721-0.106h-15.986c-1.932,0-3.471,0.035-4.613,0.106v-2.253
					c1.215,0.072,2.752,0.107,4.613,0.107h6.759v-10.622h-4.184c-1.789,0-3.471,0.072-5.043,0.215v-2.36
					c1.572,0.072,3.254,0.107,5.043,0.107H450.404z"/>
			</g>
		</g>
		<polygon fill="#E60012" points="451.455,751.584 425.975,741.457 425.975,740.979 423.561,740.979 423.561,782.294 
			425.975,782.294 425.975,762.719 		"/>
	</g>
	<g>
		
			<text transform="matrix(1 0 0 1 477.1357 838.0684)" opacity="0" fill="#040000" enable-background="new    " font-family="'ArialMT'" font-size="15">5</text>
		
			<rect x="347.235" y="738.318" opacity="0" fill="none" stroke="#040000" stroke-width="0.8328" width="160.765" height="107.682"/>
	</g>
</g>
<g>
	<g>
		<path fill="#FFFFFF" stroke="#E60012" stroke-width="2.2926" d="M611.596,702.886c0,5.79-4.693,10.479-10.481,10.479
			c-5.791,0-10.484-4.688-10.484-10.479c0-5.789,4.693-10.485,10.484-10.485C606.902,692.4,611.596,697.097,611.596,702.886z"/>
		<rect x="555.713" y="716.504" fill="#E60012" width="90.8" height="37.814"/>
		<g>
			<path fill="#FFFFFF" d="M583.131,743.837c-0.502,0.287-1.003,0.681-1.503,1.181h3.326v-6.223h-3.647
				c-1.003,0-2.397,0.036-4.185,0.106v-2.038c1.787,0.072,3.146,0.107,4.077,0.107h3.755v-3.326c-2.36,0-4.221,0.037-5.579,0.107
				v-1.717c-1.145,0.858-2.539,1.754-4.184,2.683c-0.43-0.645-0.966-1.251-1.609-1.824c1.357-0.5,2.752-1.251,4.184-2.253
				c1.431-1.001,2.825-2.235,4.185-3.702c1.358-1.465,2.468-3.021,3.326-4.667c0.143,0.145,0.894,0.536,2.253,1.181l-0.644,0.644
				c0.786,0.858,1.752,1.824,2.896,2.896c1.144,1.073,2.503,2.022,4.077,2.844c1.572,0.823,3.219,1.485,4.936,1.984
				c-0.573,0.573-1.038,1.253-1.395,2.039c-1.432-0.5-2.897-1.144-4.399-1.932v1.824c-1.432-0.07-2.575-0.107-3.433-0.107h-2.575
				v3.326h3.755c1.216,0,2.718-0.035,4.506-0.107v2.038c-1.716-0.07-3.219-0.106-4.506-0.106h-3.755v6.223h2.038
				c1.645-2.86,2.538-4.791,2.683-5.794c0.644,0.429,1.43,0.858,2.36,1.287c-0.501,0.645-1.467,2.146-2.896,4.507
				c2.216,0,4.361-0.037,6.438-0.107v2.038c-2.076-0.071-3.756-0.107-5.043-0.107h-12.768c-1.502,0-2.969,0.036-4.399,0.107v-2.038
				c1.502,0.07,2.968,0.107,4.399,0.107h1.287c-0.501-1.144-1.395-2.575-2.683-4.292c0.645-0.429,1.216-0.858,1.717-1.287
				C581.27,741.013,582.272,742.479,583.131,743.837z M582.701,731.82h6.438c1.073-0.07,2.217-0.107,3.434-0.107
				c-1.217-0.858-2.451-1.877-3.702-3.058c-1.252-1.18-2.271-2.27-3.058-3.272c-0.788,1.073-1.734,2.164-2.843,3.272
				c-1.11,1.11-2.199,2.129-3.272,3.058C580.771,731.785,581.771,731.82,582.701,731.82z"/>
			<path fill="#FFFFFF" d="M612.313,731.284v-4.721c0-1.288-0.036-2.396-0.106-3.326h2.574c-0.071,0.931-0.106,2.038-0.106,3.326
				v4.721h4.076c1.859,0,3.648-0.035,5.365-0.107v2.253c-1.646-0.07-3.434-0.107-5.365-0.107h-4.076v10.622h6.866
				c1.787,0,3.361-0.035,4.721-0.107v2.253c-1.359-0.071-2.934-0.106-4.721-0.106h-15.986c-1.932,0-3.471,0.035-4.613,0.106v-2.253
				c1.215,0.072,2.752,0.107,4.613,0.107h6.759v-10.622h-4.184c-1.789,0-3.471,0.072-5.043,0.215v-2.36
				c1.572,0.072,3.254,0.107,5.043,0.107H612.313z"/>
		</g>
		<polygon fill="#E60012" points="627.091,673.42 601.612,663.295 601.612,662.815 599.196,662.815 599.196,704.132 
			601.612,704.132 601.612,684.555 		"/>
	</g>
	<g opacity="0">
		<text transform="matrix(1 0 0 1 550.8018 706.7363)" fill="#040000" font-family="'ArialMT'" font-size="15">4</text>
		<rect x="521.235" y="657.534" fill="none" stroke="#040000" stroke-width="0.8328" width="160.765" height="107.682"/>
	</g>
</g>
<g>
	<g>
		<g>
			<polygon fill="#E60012" stroke="#E72922" stroke-width="1.5098" points="246.854,679.216 251.154,692.455 265.08,692.455 
				253.817,700.641 258.118,713.891 246.854,705.707 235.586,713.891 239.891,700.641 228.622,692.455 242.555,692.455 			"/>
		</g>
		<g>
			<g>
				<path fill="#2C566E" d="M369.971,597.123H195.417c-5.962,0-10.797,5.185-10.797,11.582v46.331
					c0,6.397,4.835,11.585,10.797,11.585h14.268l13.617,25.014l12.76-25.014h133.91c5.961,0,10.797-5.188,10.797-11.585v-46.331
					C380.768,602.308,375.932,597.123,369.971,597.123z"/>
				<path fill="#3EA3B4" d="M367.842,599.97H198.071c-5.797,0-10.503,4.702-10.503,10.498v42.006
					c0,5.802,4.706,10.502,10.503,10.502h13.876l11.299,23.243l11.814-23.243h132.781c5.796,0,10.497-4.7,10.497-10.502v-42.006
					C378.339,604.672,373.638,599.97,367.842,599.97z"/>
			</g>
			<g>
				<path fill="#FFFFFF" d="M219.967,638.91c-3.184,4.453-7.224,8.157-12.121,11.11c-0.826-1.255-2.051-2.464-3.673-3.627
					c5.356-2.326,9.649-5.96,12.878-10.904c-2.097-2.617-5.135-5.861-9.114-9.733l3.696-2.457c2.938,3.061,5.417,5.762,7.438,8.104
					c1.24-3.474,1.944-6.787,2.112-9.94h-11.18c-1.24-0.015-2.87,0.146-4.89,0.482v-4.431c0.995,0.169,1.844,0.284,2.548,0.345
					s1.484,0.092,2.342,0.092h7.323c-1.133-1.699-2.793-3.627-4.981-5.785l3.627-2.64c2.265,2.357,4.093,4.461,5.486,6.313
					l-2.801,2.112h6.198c1.576,0,3.206-0.146,4.89-0.437v4.431c-0.123-0.015-0.291-0.046-0.505-0.092
					c-1.714-0.291-2.893-0.421-3.535-0.39c-0.49,4.928-1.623,9.412-3.398,13.452c2.127,2.602,4.53,5.754,7.208,9.458
					c-1.286,0.704-2.632,1.722-4.041,3.053C223.686,644.121,221.85,641.282,219.967,638.91z M231.239,616.482l4.844,0.62
					c0.627,0.077,0.964,0.272,1.01,0.585c0.046,0.314-0.207,0.7-0.758,1.159c-0.184,0.153-0.314,0.406-0.39,0.758
					c-0.062,0.321-0.092,0.88-0.092,1.676v13.36c-0.016,2.143,0.115,3.957,0.39,5.441h-5.05c0.291-1.592,0.436-3.405,0.436-5.441
					v-13.108C231.66,620.155,231.529,618.472,231.239,616.482z M240.146,609.25l5.119,0.62c0.551,0.077,0.838,0.271,0.861,0.585
					c0.023,0.314-0.218,0.693-0.723,1.137c-0.383,0.336-0.574,1.293-0.574,2.869v32.69c0.061,1.897-0.452,3.145-1.538,3.742
					c-0.98,0.688-3.268,1.193-6.864,1.515c-0.429-1.5-1.354-3.19-2.777-5.073c2.25,0.275,3.833,0.413,4.752,0.413
					c1.515,0.046,2.219-0.436,2.112-1.446v-31.587C240.528,612.985,240.406,611.164,240.146,609.25z"/>
				<path fill="#FFFFFF" d="M300.788,615.885c-0.321,2.051-0.482,3.505-0.482,4.362v0.85c0.015,1.285,0.161,2.693,0.436,4.224
					h-5.073c0.275-1.346,0.413-2.754,0.413-4.224v-1.217h-29.384v1.538c-0.016,1.393,0.122,2.809,0.413,4.247h-5.119
					c0.306-1.408,0.466-2.823,0.482-4.247v-1.033c-0.016-1.454-0.176-2.954-0.482-4.5c1.545,0.291,3.114,0.444,4.706,0.459h14.853
					c-1.791-1.852-3.704-3.527-5.739-5.028l3.168-2.915c2.724,2.097,5.119,4.231,7.186,6.405l-1.699,1.538h11.57
					C297.429,616.298,299.013,616.146,300.788,615.885z M294.154,622.933c-0.291,2.158-0.444,3.581-0.459,4.27v3.352
					c0,1.5,0.168,2.908,0.505,4.224c-1.914-0.336-3.482-0.505-4.706-0.505h-15.61v3.283h17.309c1.454,0,3.053-0.176,4.798-0.528
					c-0.337,1.836-0.498,3.283-0.482,4.338v6.061c0.03,1.193,0.176,2.686,0.436,4.477h-5.165c0.306-1.209,0.459-2.166,0.459-2.869
					H273.7c0.046,1.377,0.207,2.647,0.482,3.811h-5.027c0.229-2.22,0.352-4.025,0.367-5.418v-18.939
					c-0.061-1.5-0.222-3.352-0.482-5.555c1.867,0.26,3.75,0.413,5.647,0.459h14.807
					C290.626,623.361,292.179,623.208,294.154,622.933z M273.883,626.835v3.995h15.473v-3.995H273.883z M291.192,640.976h-17.309
					v4.66h17.309V640.976z"/>
				<path fill="#FFFFFF" d="M320.063,632.482h2.25v-4.798c-0.597,0.015-2.051,0.153-4.362,0.413v-1.354
					c-1.255-1.041-2.778-1.714-4.568-2.02c4.055-3.443,6.971-8.616,8.747-15.519l4.086,1.928c0.704,0.368,1.044,0.727,1.021,1.079
					s-0.41,0.666-1.159,0.941c-0.245,0.123-0.635,0.75-1.171,1.882c-0.123,0.184-0.452,0.811-0.987,1.882h4.361
					c1.332-0.046,2.854-0.176,4.568-0.39v4.247c-2.005-0.229-3.512-0.359-4.522-0.39h-6.06c-0.934,1.561-1.714,2.816-2.342,3.765
					c1.025,0.092,1.836,0.138,2.434,0.138h5.027c1.3-0.061,2.778-0.199,4.431-0.414v4.178c-1.852-0.214-3.329-0.336-4.431-0.367
					h-0.941v4.798h1.836c1.225-0.061,2.716-0.207,4.477-0.437v4.201c-0.123-0.015-0.298-0.03-0.528-0.046
					c-2.357-0.229-3.658-0.344-3.903-0.344h-1.882v7.851c1.469-1.117,2.946-2.372,4.431-3.765c0.26,1.76,0.65,3.207,1.171,4.339
					c-4.454,3.366-7.239,5.685-8.356,6.955l-3.168-3.994c0.842-0.566,1.339-1.025,1.492-1.377c0.214-0.353,0.313-1.025,0.299-2.021
					v-7.989h-2.25c-0.521,0-2.013,0.107-4.477,0.321v-4.086C317.637,632.322,319.129,632.452,320.063,632.482z M333.47,652.316
					c-0.643-1.316-1.806-2.494-3.49-3.535c5.02-1.301,8.563-3.26,10.629-5.877h-3.811c-0.429,0-1.982,0.146-4.66,0.437v-4.247
					c1.53,0.199,2.678,0.314,3.443,0.344v-20.5h7.415v-1.928h-5.349c-0.26,0-1.209,0.077-2.847,0.229
					c-0.765,0.062-1.324,0.107-1.676,0.138v-4.27c1.668,0.214,3.176,0.352,4.522,0.413h5.349l-0.322-4.408l4.224,0.551
					c0.551,0.107,0.91,0.368,1.079,0.781c0.015,0.062,0.023,0.146,0.023,0.252c0,0.321-0.161,0.605-0.482,0.85
					c-0.214,0.184-0.321,0.842-0.321,1.974h5.923c1.332-0.061,2.832-0.199,4.5-0.413v4.27c-0.275-0.03-0.712-0.069-1.309-0.115
					c-1.867-0.168-2.931-0.252-3.191-0.252h-5.923v1.928h7.691v20.5h0.046c1.193-0.046,2.594-0.191,4.2-0.436v4.293
					c-2.387-0.261-3.787-0.391-4.2-0.391h-4.936c3.52,1.76,6.612,3.643,9.274,5.647l-2.594,3.535
					c-3.076-2.617-6.367-4.706-9.871-6.267l2.02-2.916h-7.047l2.456,1.837c0.627,0.489,0.941,0.888,0.941,1.193
					c0,0.046-0.027,0.153-0.081,0.321s-0.547,0.306-1.48,0.413c-0.337-0.03-1.056,0.329-2.158,1.079
					C338.994,649.554,336.331,651.077,333.47,652.316z M350.755,624.104v-1.883h-11.042v1.883H350.755z M339.714,629.177h11.042
					v-1.768h-11.042V629.177z M350.755,634.204v-1.722h-11.042v1.722H350.755z M339.714,637.51v1.928h11.042v-1.928H339.714z"/>
			</g>
		</g>
	</g>
	<g opacity="0">
		<text transform="matrix(1 0 0 1 304.54 697.2891)" fill="#040000" font-family="'ArialMT'" font-size="15">0</text>
		<rect x="165.951" y="574.657" fill="none" stroke="#040000" stroke-width="1.1626" width="227.049" height="148.58"/>
	</g>
</g>
<g>
	<g>
		<path fill="#FFFFFF" stroke="#E60012" stroke-width="2.2926" d="M342.916,512.079c0,5.787-4.693,10.479-10.48,10.479
			c-5.786,0-10.482-4.692-10.482-10.479s4.696-10.485,10.482-10.485C338.222,501.594,342.916,506.292,342.916,512.079z"/>
		<g>
			<rect x="224.984" y="487.512" fill="#FFF100" width="90.8" height="37.813"/>
			<g>
				<g>
					<path d="M254.147,500.999v16.094c-0.072,1.215-0.429,1.948-1.073,2.199c-0.644,0.25-2.076,0.446-4.292,0.59
						c-0.072-0.574-0.359-1.325-0.858-2.253c1.931,0.07,3.128,0.017,3.594-0.161c0.464-0.178,0.661-0.553,0.59-1.127v-18.454h-15.45
						c0,5.579-0.072,9.353-0.215,11.319c-0.144,1.968-0.447,3.881-0.912,5.74c-0.466,1.861-1.126,3.541-1.985,5.042
						c-0.429-0.501-1.145-1.073-2.146-1.716c1.073-1.288,1.859-3.04,2.36-5.257c0.5-2.216,0.786-4.488,0.858-6.813
						c0.07-2.324,0.035-5.668-0.107-10.032h19.742C254.183,497.672,254.147,499.282,254.147,500.999z M242.989,498.531h2.146
						c-0.072,0.858-0.107,1.682-0.107,2.468c1.859,0,3.326-0.035,4.399-0.107v2.039c-1.002-0.07-2.468-0.107-4.399-0.107v2.468
						c2.146,0,4.112-0.035,5.901-0.107v2.039c-1.861-0.07-3.433-0.107-4.721-0.107h-4.184c-1.217,0-2.683,0.037-4.399,0.107v-2.039
						c1.716,0.072,3.541,0.107,5.472,0.107v-2.468c-1.432,0-2.897,0.037-4.399,0.107v-2.039c1.43,0.072,2.897,0.107,4.399,0.107
						C243.097,499.998,243.06,499.174,242.989,498.531z M239.02,515.912c0.07-0.858,0.107-1.751,0.107-2.682v-1.931
						c0-0.644-0.037-1.395-0.107-2.253h10.085c-0.072,0.573-0.107,1.252-0.107,2.039v2.467c0,0.788,0.035,1.574,0.107,2.36H239.02z
						 M246.959,514.195v-3.434h-5.793v3.434H246.959z"/>
					<path d="M270.456,494.454c1.001,1.145,1.787,2.183,2.36,3.111c-0.788,0.429-1.395,0.751-1.824,0.966h11.909
						c-0.072,1.002-0.107,1.753-0.107,2.253c0,0.501,0.035,1.18,0.107,2.039h-2.253v-2.575h-18.562v2.575h-2.253
						c0.07-0.572,0.107-1.215,0.107-1.931c0-0.714-0.037-1.502-0.107-2.36h10.729c-0.573-1.073-1.217-2.039-1.931-2.897
						C269.061,495.349,269.667,494.955,270.456,494.454z M278.824,506.148c0,0.858,0.035,1.824,0.107,2.897h-12.768v2.575h14.055
						v4.077c0,1.502,0.035,2.932,0.107,4.292h-2.36v-1.609h-11.694v1.609h-2.468c0.07-1.646,0.107-4.506,0.107-8.583
						s-0.037-6.974-0.107-8.691h15.128C278.859,504.075,278.824,505.22,278.824,506.148z M276.679,507.329v-2.79h-10.515v2.79
						H276.679z M277.966,516.556v-3.219h-11.802v3.219H277.966z"/>
					<path d="M296.957,498.96c0-1.645-0.037-2.932-0.107-3.863h2.468c-0.072,0.858-0.107,2.146-0.107,3.863h9.227
						c0.5,0,1.288-0.035,2.36-0.107v2.146c-1.073-0.07-1.861-0.107-2.36-0.107h-9.227v8.047l5.793-0.215
						c0-2.645-0.037-4.576-0.107-5.793h2.36c-0.144,1.145-0.215,2.79-0.215,4.936c0,2.146,0.071,3.72,0.215,4.721h-2.253v-2.039
						l-5.793,0.214v5.257c0,0.931,0.644,1.358,1.931,1.288h5.687c0.786,0,1.323-0.303,1.609-0.912
						c0.285-0.607,0.5-1.519,0.644-2.736c0.714,0.573,1.538,1.002,2.468,1.288c-0.573,1.931-1.11,3.128-1.609,3.594
						c-0.501,0.464-1.609,0.697-3.326,0.697h-6.544c-2.003,0.07-3.041-0.644-3.111-2.146v-6.331l-7.618,0.429
						c0.07-0.786,0.107-2.146,0.107-4.077c0-2.001-0.037-3.433-0.107-4.292h2.36c-0.072,0.858-0.107,2.969-0.107,6.33l5.365-0.214
						v-8.047h-6.652c-1.288,0-2.504,0.037-3.648,0.107v-2.146c1.144,0.072,2.36,0.107,3.648,0.107H296.957z"/>
				</g>
			</g>
		</g>
		<polygon fill="#009944" points="356.86,483.652 331.384,473.524 331.384,473.049 328.968,473.049 328.968,514.36 331.384,514.36 
			331.384,494.789 		"/>
	</g>
	<g>
		
			<text transform="matrix(1 0 0 1 319.6411 542.1909)" opacity="0" fill="#040000" enable-background="new    " font-family="'ArialMT'" font-size="15">2</text>
		
			<rect x="198.507" y="444.657" opacity="0" fill="none" stroke="#040000" stroke-width="0.8328" width="160.765" height="107.682"/>
	</g>
</g>
<g>
	<path fill="none" stroke="#E72922" stroke-width="11.463" d="M447.827,201.996"/>
	<g>
		<path fill="#FFFFFF" stroke="#E60012" stroke-width="2.2926" d="M422.814,188.463c0,5.788-4.689,10.479-10.482,10.479
			c-5.786,0-10.48-4.691-10.48-10.479c0-5.791,4.694-10.481,10.48-10.481C418.125,177.981,422.814,182.672,422.814,188.463z"/>
		<rect x="304.008" y="161.094" fill="#E60012" width="90.796" height="37.814"/>
		<g>
			<g>
				<path fill="#FFFFFF" d="M342.632,182.645h3.004c1.502,0,2.79-0.035,3.863-0.107v1.609c-1.003-0.07-2.253-0.107-3.755-0.107
					H329.22c-2.003,0-3.505,0.037-4.506,0.107v-1.609c1,0.072,2.538,0.107,4.613,0.107h1.824c-0.214-0.429-0.536-0.929-0.965-1.502
					l1.931-0.858c0.5,0.788,0.966,1.574,1.395,2.36h6.974c0.5-0.786,0.929-1.572,1.288-2.36c0.714,0.214,1.43,0.466,2.146,0.751
					C343.49,181.537,343.061,182.073,342.632,182.645z M331.688,190.477c1.717,0.215,2.61,0.089,2.682-0.375
					c0.071-0.464,0.107-1.304,0.107-2.521h-3.004c-0.501,1.145-1.11,2.146-1.824,3.004c-0.716,0.858-1.609,1.645-2.682,2.36
					c-0.429-0.429-0.931-0.895-1.502-1.395c1.215-0.716,2.127-1.395,2.736-2.039c0.607-0.644,1.054-1.288,1.341-1.931h-0.644
					c-0.93,0-1.861,0.037-2.79,0.107v-1.824c0.929,0.072,1.859,0.107,2.79,0.107h1.073c0.071-0.429,0.071-1.036,0-1.824
					c0.644,0.145,1.395,0.287,2.253,0.429c-0.145,0.501-0.287,0.966-0.429,1.395h4.721c-0.144,0.573-0.233,1.252-0.268,2.039
					c-0.037,0.788-0.072,1.646-0.107,2.575c-0.037,0.929-0.413,1.465-1.126,1.609c-0.716,0.143-1.609,0.285-2.683,0.429
					C332.26,192.122,332.045,191.406,331.688,190.477z M335.873,169.877c0-0.357-0.037-0.929-0.107-1.717h2.253
					c-0.072,0.788-0.107,1.36-0.107,1.717h6.544c1.001,0,2.109-0.035,3.326-0.107v1.609c-1.145-0.07-2.253-0.107-3.326-0.107h-6.544
					v1.717h4.721c1.43,0,2.752-0.035,3.97-0.107v1.609h-19.205v-1.609c1.001,0.072,2.109,0.107,3.326,0.107h5.15v-1.717h-6.759
					c-0.574,0-1.539,0.037-2.897,0.107v-1.609c1.288,0.072,2.253,0.107,2.897,0.107H335.873z M345.529,180.177h-17.274v-4.613
					h17.274V180.177z M343.597,178.782v-1.717h-13.304v1.717H343.597z M345.421,192.086v-0.965h-5.579v1.288h-1.931
					c0.07-1.36,0.107-2.503,0.107-3.434c0-0.929-0.037-2.039-0.107-3.326h9.334c-0.072,1.145-0.107,2.253-0.107,3.326
					c0,1.073,0.036,2.109,0.107,3.111H345.421z M345.421,189.511v-2.253h-5.579v2.253H345.421z"/>
				<path fill="#FFFFFF" d="M357.545,170.735v4.935c0.857,0,1.823-0.035,2.896-0.107v1.931c-1.073-0.143-2.039-0.215-2.896-0.215
					v3.648c0.499-0.357,1-0.751,1.502-1.18c0.929,1.145,1.68,2.146,2.252,3.004c-0.573,0.358-1.11,0.788-1.609,1.288
					c-0.358-0.644-1.073-1.609-2.146-2.897v7.51c0,1.145,0.07,2.646,0.214,4.506h-2.146c0.07-1.861,0.107-3.361,0.107-4.506v-6.008
					c-0.359,0.931-0.716,1.807-1.073,2.628c-0.358,0.823-0.823,1.771-1.395,2.843c-0.501-0.644-1.038-1.215-1.609-1.716
					c0.929-1.144,1.717-2.449,2.36-3.917c0.644-1.465,1.108-3.2,1.395-5.204c-0.93,0-2.11,0.072-3.541,0.215v-1.931
					c1.144,0.072,2.431,0.107,3.863,0.107v-4.506c-0.716,0.144-1.682,0.358-2.897,0.644c-0.215-0.644-0.501-1.25-0.858-1.824
					c1.358-0.143,2.717-0.375,4.077-0.698c1.358-0.322,2.538-0.732,3.541-1.234c0.285,0.644,0.644,1.325,1.073,2.039
					C359.941,170.091,358.903,170.306,357.545,170.735z M362.373,189.726c-0.215,0.929-0.395,1.752-0.537,2.468
					c-0.716-0.214-1.431-0.322-2.145-0.322c0.357-0.858,0.625-1.698,0.805-2.521c0.178-0.821,0.339-1.77,0.482-2.843
					c0.786,0.215,1.501,0.429,2.146,0.644C362.837,187.938,362.587,188.797,362.373,189.726z M367.415,169.555
					c0-0.714-0.037-1.395-0.107-2.039h2.146c-0.145,0.716-0.215,1.395-0.215,2.039h3.97c0.858,0,1.859-0.035,3.004-0.107v1.824
					c-1.145-0.07-2.11-0.107-2.896-0.107h-4.077v1.931h6.223c-0.072,1.217-0.107,2.504-0.107,3.862c0,1.36,0.07,2.683,0.215,3.97
					h-1.824c0.572,0.644,1.055,1.199,1.449,1.663c0.392,0.466,0.84,0.984,1.341,1.556c-0.644,0.429-1.217,0.896-1.717,1.395
					l-1.287-1.502c-2.433,0.214-4.668,0.447-6.706,0.697c-2.038,0.251-3.631,0.555-4.774,0.912
					c-0.145-0.858-0.394-1.645-0.751-2.361c1.215,0,3.254-0.07,6.115-0.214v-2.146h-5.687c0.07-1.287,0.107-2.61,0.107-3.97
					c0-1.358-0.037-2.646-0.107-3.862h5.687v-1.931h-3.004c-1.287,0-2.325,0.037-3.111,0.107v-1.824
					c0.786,0.072,1.787,0.107,3.004,0.107H367.415z M367.415,176.207v-1.609h-3.755v1.609H367.415z M367.415,179.318v-1.502h-3.755
					v1.502H367.415z M366.235,189.082c0,0.858,0.124,1.341,0.375,1.448c0.25,0.107,0.982,0.161,2.199,0.161
					c1.216,0,1.932-0.107,2.146-0.322c0.215-0.215,0.429-0.751,0.644-1.609c0.714,0.501,1.43,0.858,2.146,1.073
					c-0.429,1.215-0.841,1.966-1.233,2.253c-0.395,0.285-1.164,0.429-2.307,0.429h-3.219c-0.931,0-1.609-0.179-2.039-0.536
					c-0.429-0.359-0.627-1.126-0.59-2.307c0.035-1.18,0.017-2.27-0.054-3.272h2.039C366.271,187.33,366.235,188.224,366.235,189.082
					z M370.741,188.545c-0.716,0.145-1.324,0.359-1.824,0.644c-0.286-1.001-0.644-2.109-1.072-3.326
					c0.714-0.214,1.322-0.392,1.823-0.537L370.741,188.545z M373.531,176.207v-1.609h-4.292v1.609H373.531z M373.531,179.318v-1.502
					h-4.292v1.502H373.531z M372.565,182.645l-0.644-0.644c0.571-0.357,1.072-0.714,1.502-1.073h-4.185v2.039
					C369.811,182.896,370.919,182.789,372.565,182.645z M377.286,190.262c-0.716,0.429-1.287,0.858-1.717,1.288
					c-0.429-0.931-1.395-2.468-2.896-4.614c0.571-0.357,1.072-0.714,1.502-1.073C375.39,187.51,376.428,188.975,377.286,190.262z"/>
			</g>
		</g>
		<polygon fill="#00A0E9" points="436.762,159.688 411.286,149.558 411.286,149.082 408.867,149.082 408.867,190.4 411.286,190.4 
			411.286,170.82 		"/>
	</g>
	<g opacity="0">
		<text transform="matrix(1 0 0 1 394.8047 231.353)" fill="#040000" font-family="'ArialMT'" font-size="15">1</text>
		<rect x="287.063" y="126.16" fill="none" stroke="#040000" stroke-width="0.8328" width="160.765" height="107.682"/>
	</g>
</g>
<g>
	<g>
		<path fill="#FFFFFF" stroke="#E60012" stroke-width="2.2926" d="M135.828,499.09c0,5.792-4.688,10.483-10.481,10.483
			c-5.789,0-10.479-4.692-10.479-10.483c0-5.79,4.689-10.481,10.479-10.481C131.14,488.609,135.828,493.301,135.828,499.09z"/>
		<rect x="75.15" y="511.755" fill="#E60012" width="90.801" height="37.819"/>
		<g>
			<g>
				<path fill="#FFFFFF" d="M102.683,526.634l8.476-1.931c2.288-0.644,3.648-1.073,4.077-1.288l0.644,2.468
					c-0.716,0-2.039,0.251-3.97,0.751l-9.227,2.253v8.369c0,1.217,0.5,1.824,1.502,1.824h7.188c1.001,0,1.609-1.144,1.824-3.434
					c0.858,0.716,1.752,1.145,2.682,1.288c-0.573,1.789-1.073,2.914-1.502,3.38c-0.429,0.464-1.252,0.697-2.468,0.697h-8.69
					c-1.931,0-2.897-0.966-2.897-2.897v-8.69l-5.472,1.18c-1.36,0.287-2.433,0.573-3.219,0.858l-0.751-2.468
					c0.644-0.07,1.894-0.285,3.755-0.644l5.687-1.073v-5.15c0-1.502-0.037-2.897-0.107-4.184h2.79
					c-0.214,1.432-0.322,2.612-0.322,3.541V526.634z"/>
				<path fill="#FFFFFF" d="M132.402,531.14c4.435,0,7.366-0.035,8.798-0.107v2.039c-1.432-0.07-4.363-0.107-8.798-0.107v2.575
					c4.077,0,6.723-0.035,7.94-0.107v1.931c-1.217-0.07-3.863-0.107-7.94-0.107v2.897h6.76c1.215,0,2.575-0.072,4.077-0.214v2.146
					c-1.502-0.072-2.861-0.107-4.077-0.107h-15.986c-1.432,0-2.827,0.07-4.185,0.214v-2.253c1.358,0.07,2.752,0.142,4.185,0.214
					h6.974v-2.897c-3.648,0-6.008,0.037-7.081,0.107v-1.931c1.073,0.072,3.433,0.107,7.081,0.107v-2.575h-6.974
					c-0.429,0.429-0.842,0.931-1.234,1.502c-0.394,0.574-0.984,1.288-1.771,2.146c-0.429-0.357-1.038-0.858-1.824-1.502
					c0.929-0.858,1.824-1.859,2.682-3.004c0.858-1.143,1.572-2.323,2.146-3.541c0.714,0.429,1.572,0.823,2.575,1.18
					c-0.644,0.501-1.145,0.966-1.502,1.395h5.901c0-0.858-0.037-1.717-0.107-2.575h2.468
					C132.438,529.423,132.402,530.282,132.402,531.14z M121.78,522.878c0-1.787-0.037-3.361-0.107-4.721h18.776
					c-0.072,1.359-0.107,2.934-0.107,4.721c0,1.789,0.035,3.291,0.107,4.506h-18.776C121.743,526.169,121.78,524.667,121.78,522.878
					z M138.088,521.913v-2.039h-14.055v2.039H138.088z M138.088,525.668v-2.039h-14.055v2.039H138.088z"/>
			</g>
		</g>
		<polygon fill="#74C6BE" stroke="#000000" stroke-width="4.5852" points="153.217,471.104 127.739,460.981 127.739,460.501 
			125.321,460.501 125.321,501.813 127.739,501.813 127.739,482.241 		"/>
	</g>
	<g opacity="0">
		<text transform="matrix(1 0 0 1 45.8584 552.3389)" fill="#040000" font-family="'ArialMT'" font-size="15">3</text>
		<rect x="13.235" y="456.601" fill="none" stroke="#040000" stroke-width="0.8328" width="160.765" height="107.682"/>
	</g>
</g>
<g>
	<g>
		<path fill="#FFFFFF" stroke="#E60012" stroke-width="2.2926" d="M303.657,922.189c0,5.788-4.693,10.48-10.485,10.48
			c-5.785,0-10.477-4.692-10.477-10.48c0-5.791,4.692-10.484,10.477-10.484C298.964,911.705,303.657,916.398,303.657,922.189z"/>
		<rect x="186.69" y="903.915" fill="#E60012" width="90.799" height="37.81"/>
		<g>
			<g>
				<path fill="#FFFFFF" d="M217.268,932.438c-1.288-0.072-2.433-0.107-3.434-0.107h-16.737c-1.145,0-2.468,0.035-3.97,0.107v-2.36
					c1.358,0.072,2.682,0.107,3.97,0.107h16.737c1.073,0,2.216-0.07,3.434-0.215V932.438z M195.38,911.839
					c1.43,0.071,2.753,0.107,3.97,0.107h11.91c1.358,0,2.61-0.036,3.755-0.107v2.253c-1.073-0.07-2.325-0.107-3.755-0.107h-12.017
					c-1.217,0-2.505,0.037-3.863,0.107V911.839z M200.423,922.567c-1.073,0-2.218,0.037-3.434,0.107v-2.36
					c1.144,0.072,2.289,0.107,3.434,0.107h9.227c1.073,0,2.253-0.035,3.541-0.107v2.36c-1.432-0.07-2.612-0.107-3.541-0.107H200.423
					z"/>
				<path fill="#FFFFFF" d="M234.004,923.318c4.435,0,7.366-0.035,8.798-0.107v2.039c-1.432-0.07-4.363-0.107-8.798-0.107v2.575
					c4.077,0,6.723-0.035,7.94-0.107v1.932c-1.217-0.071-3.863-0.107-7.94-0.107v2.896h6.76c1.215,0,2.575-0.072,4.077-0.215v2.146
					c-1.502-0.072-2.861-0.107-4.077-0.107h-15.986c-1.432,0-2.827,0.07-4.185,0.215v-2.254c1.358,0.07,2.752,0.143,4.185,0.215
					h6.974v-2.896c-3.648,0-6.008,0.036-7.081,0.107v-1.932c1.073,0.072,3.433,0.107,7.081,0.107v-2.575h-6.974
					c-0.429,0.43-0.842,0.931-1.234,1.502c-0.394,0.573-0.984,1.288-1.771,2.146c-0.429-0.356-1.038-0.857-1.824-1.502
					c0.929-0.858,1.824-1.858,2.682-3.004c0.858-1.144,1.572-2.323,2.146-3.54c0.714,0.429,1.572,0.822,2.575,1.18
					c-0.644,0.501-1.145,0.966-1.502,1.395h5.901c0-0.858-0.037-1.717-0.107-2.574h2.468
					C234.04,921.602,234.004,922.46,234.004,923.318z M223.383,915.058c0-1.787-0.037-3.361-0.107-4.721h18.776
					c-0.072,1.359-0.107,2.934-0.107,4.721c0,1.788,0.035,3.29,0.107,4.506h-18.776
					C223.346,918.348,223.383,916.846,223.383,915.058z M239.691,914.092v-2.039h-14.055v2.039H239.691z M239.691,917.847v-2.038
					h-14.055v2.038H239.691z"/>
				<path fill="#FFFFFF" d="M253.317,913.019v9.228c0,1.145,0.035,2.29,0.107,3.433h-1.932c0.071-1.143,0.107-2.288,0.107-3.433
					v-6.009c-0.858,1.217-1.717,2.397-2.575,3.541c-0.501-0.43-1.038-0.821-1.609-1.181c1.073-1.001,2.109-2.396,3.111-4.185
					c1.001-1.787,1.824-3.575,2.468-5.364c0.644,0.501,1.358,0.823,2.146,0.966C254.64,910.516,254.031,911.517,253.317,913.019z
					 M259.218,927.503c0-0.571-0.037-1.251-0.107-2.038h2.146c-0.072,0.573-0.107,1.252-0.107,2.038h4.614
					c1.358,0,2.538-0.035,3.541-0.107v1.824c-1.073-0.07-2.253-0.107-3.541-0.107h-4.614v3.004h7.725
					c1.288,0,2.468-0.036,3.541-0.107v1.824c-1.073-0.072-2.218-0.107-3.433-0.107h-17.381c-1.288,0-2.468,0.035-3.541,0.107v-1.824
					c1.073,0.071,2.253,0.107,3.541,0.107h7.618v-3.004h-4.292c-1.502,0-2.79,0.037-3.863,0.107v-1.824
					c1.073,0.072,2.361,0.107,3.863,0.107H259.218z M269.304,913.233c0,1.073,0.035,2.075,0.107,3.004h-5.472v2.146h3.97
					c1.288,0,2.503-0.035,3.648-0.106v1.716c-1.145-0.07-2.325-0.106-3.541-0.106h-1.609c0.572,0.93,1.412,1.823,2.521,2.682
					c1.108,0.858,2.234,1.432,3.379,1.717c-0.716,0.573-1.217,1.217-1.502,1.932c-1.502-0.858-2.808-1.878-3.916-3.058
					c-1.11-1.181-1.915-2.271-2.414-3.272h-0.537c0,2.146,0.035,4.077,0.107,5.793h-1.931c0.07-1.645,0.107-3.468,0.107-5.472
					c-0.858,1.217-1.824,2.29-2.897,3.219c-1.073,0.931-2.253,1.789-3.541,2.575c-0.359-0.644-0.858-1.216-1.502-1.717
					c1.358-0.429,2.557-1.055,3.594-1.878c1.036-0.821,1.841-1.662,2.414-2.521c-2.218,0-3.862,0.036-4.935,0.106v-1.716
					c0.929,0.071,2.146,0.106,3.648,0.106h3.219v-2.146h-5.043c0.07-1.215,0.107-2.288,0.107-3.219c0-0.929-0.037-1.895-0.107-2.896
					h12.231C269.339,911.053,269.304,912.09,269.304,913.233z M267.479,914.628v-3.004h-8.476v3.004H267.479z"/>
			</g>
		</g>
		<polygon fill="#1D2088" points="318.404,891.671 292.925,881.54 292.925,881.064 290.507,881.064 290.507,922.382 
			292.925,922.382 292.925,902.81 		"/>
	</g>
	<g opacity="0">
		<text transform="matrix(1 0 0 1 230.02 879.3535)" fill="#040000" font-family="'ArialMT'" font-size="15">6</text>
		<rect x="168.204" y="854.601" fill="none" stroke="#040000" stroke-width="0.8328" width="160.765" height="107.682"/>
	</g>
</g>
</svg>