<svg version="1.0" id="图层_1" xmlns="http://www.w3.org/2000/svg" xmlns:xlink="http://www.w3.org/1999/xlink" x="0px" y="0px" 
	width="100%" height="100%" viewBox="0 0 720 1280" xml:space="preserve"
  style="position: relative;display: block;"
  >
<g>
	<g>
		<path opacity="0.6" fill="#FFFFFF" stroke="#00A0E9" stroke-width="4.9407" d="M389.116,410.741
			c-0.28-4.78-1.683-7.307,0.84-15.744c2.525-8.433,21.604-20.241,22.727-23.335c1.123-3.096-0.838-5.906-2.525-5.906
			c-1.685,0-3.366-2.25-4.205-2.531c-0.846-0.278,0-7.027,0-7.027c0.276-14.34-7.299-7.873-8.138-3.937
			c-0.845,3.937-3.087,12.371-4.21,16.025c-1.123,3.656-3.365,5.062-11.222,5.062c-7.854,0-12.625-3.653-15.989-4.782
			c-3.367-1.124-8.978-9.558-10.38-12.088c-1.403-2.531-3.65-10.123-3.929-12.934c-0.279-2.81,1.963-9.279,3.088-12.09
			c1.119-2.811,6.45-3.653,10.94-4.498c4.489-0.844,14.589,2.532,17.39,2.25c2.805-0.28,4.49-2.813,5.615-3.657
			c1.124-0.842,8.135,0,8.135,0s5.609,2.252,8.416-0.281c2.804-2.528,7.014-5.903,7.014-15.745c0-9.839,7.57-38.238,7.57-39.363
			c0-1.125,0.847-5.903,1.965-7.871c1.124-1.97,0.28-5.063,0-10.686c-0.278-5.623-1.118-1.97-3.927-4.217
			c-2.804-2.25,0-4.501,1.404-8.998c1.404-4.498,0.282-6.184-1.685-6.184c-1.961,0-1.961-1.407-6.733-1.407
			c-4.769,0-6.171-3.938-8.695-7.874c-2.525-3.936-12.626-8.718-12.626-8.718c-11.502-5.34-16.271,10.407-17.107,12.654
			c-0.844,2.25-1.687,4.781-7.859,6.468c-6.171,1.687-19.356-5.625-20.76-5.625c-1.403,0-3.365-1.123-5.33,2.533
			c-1.965,3.655,5.607,10.404-1.965,14.621c-7.577,4.216-9.256,17.994-9.256,17.994c-11.221,1.407-12.907,10.686-14.868,10.123
			c-1.966-0.564-12.628,1.404-12.628,1.404l-12.873,15.744l-0.871-1.686c0,0,1.964,3.657,0-4.216
			c-1.966-7.875-12.625-10.683-12.625-10.683h-1.122c0,0-3.643,0.562-6.453,2.247c-2.802,1.688-3.646-0.281-4.208-1.123
			c-0.561-0.844-3.365-5.343-5.331-5.343c-1.964,0-9.819-1.687-9.819-1.687l-2.242-4.217l2.242-3.657v-4.497l-1.964-1.407
			c0,0-1.964-4.78-1.964-6.465c0-1.686-0.84-5.625-1.12-6.467c-0.284-0.844-3.087-2.531-3.087-2.531s-1.684,2.531-2.245,3.936
			c-0.559,1.406-4.205,2.813-7.012,4.78c-2.806,1.968-4.491,2.529-6.171,3.938c-1.681,1.406-5.051,3.091-6.733,4.497
			c-1.684,1.406-5.607,4.781-5.893,5.625c-0.278,0.844-2.24,7.026-2.523,9.558c-0.285,2.529,0,7.312,0,10.122
			c0,2.811-2.804,3.936-5.331,5.345c-2.523,1.405-6.731-0.285-6.731-0.285s-3.369-2.811-4.773-5.902
			c-1.403-3.094-1.401-7.029-2.523-11.249c-1.123-4.218-3.365-6.746-4.958-7.589c-1.593-0.845-0.651-1.968-3.176-3.094
			c-2.525-1.125-3.085-1.687-5.05-3.092c-1.966-1.405-0.843-6.187-3.084-10.686c-2.245-4.497-29.178-23.898-29.178-23.898
			l-16.553,26.992l7.855,4.217L163,271.849l1.965,4.218l2.526,9.557c0,0,1.683,14.621,1.683,16.87c0,2.25,1.12,10.686,1.404,11.529
			c0.279,0.842,6.45,5.902,7.854,7.592c1.402,1.687,4.77,7.59,5.329,10.965c0.559,3.374-1.405,6.464-7.014,5.905
			c-5.607-0.562-15.43-6.748-15.43-6.748l-4.207,2.248c0,0-0.839,3.655-15.709,6.75c-14.867,3.09-13.186-16.872-13.186-16.872
			l-1.403-10.683c-12.064-4.218-14.028-17.153-14.028-17.153c-15.989,1.406-14.024-5.906-14.024-5.906
			c9.819-9.276-1.404-10.963-1.404-10.963c-1.909,0.568-3.495,0.667-4.807,0.505l-8.376,4.837H70.709c0,0-8.42,1.123-10.66,3.371
			c-2.25,2.25-9.542,11.249-9.542,11.249l-12.345,14.623l-6.169,2.812l-6.733,5.623v21.087c0,0-6.733,13.366-7.575,17.226
			c-0.842,3.86-2.526,8.077-4.21,10.608c-1.679,2.53-8.415,7.593-8.415,10.965c0,3.375,0,21.09,0,21.09v13.497
			c0,0,3.366,5.06,5.892,5.06c2.523,0,12.624,0,12.624,0h5.892c0,0,3.365,8.433,3.365,10.964c0,2.53,0,1.686,0,9.279
			c0,7.588,0,10.122,3.366,11.811c3.368,1.687,5.894,2.328,8.417,6.223c2.528,3.897,41.238,0,41.238,0s2.525-3.695,8.416-7.067
			c5.893-3.379,1.965-4.219,10.662-5.061c6.61-0.643,14.015-0.797,17.199-0.833c0.515-0.225,1.597-0.009,1.597-0.009
			s-0.595,0-1.597,0.009c-0.502,0.221-0.476,0.857,1.597,2.516c4.208,3.379,5.049,1.579,5.049,12.178c0,10.598,0,14.818,0,14.818
			s0.636,8.319,0.247,10.461c1.176-1.139,5.318-3.532,7.328,0.504c2.526,5.06,4.207,3.372,10.102,11.806
			c5.889,8.439,7.575,10.967,7.575,13.498c0,2.53,0.841,9.28,0,16.028c-0.848,6.748-1.779,17.845,0.372,19.887
			c2.149,2.044,2.149-3.019,7.201,4.573c5.048,7.591,11.783,16.867,11.783,16.867l1.913,5.763
			c2.332-3.444,11.831-11.383,11.831-11.383l4.205-5.061h4.491l8.697,1.406h5.051c0,0-0.281,6.467,1.405,9.558
			c1.68,3.093,9.536,7.592,7.292,3.376c-2.244-4.219,8.136-7.873,9.258-7.592c1.123,0.28,5.052,5.906,5.611,7.028
			c0.558,1.125,4.207,5.906,4.207,5.906l2.805,10.684c0,0,3.086,2.811,4.489,2.811c1.401,0,9.257,1.122,9.257,1.122
			s4.207,3.658,7.014,3.658c2.804,0,9.539-3.375,9.539-3.375s0,0,5.052,0c5.046,0,5.328,0,5.328,0l5.613,1.125
			c0,0,0.559,2.53,4.768,4.497c0,0,6.17-0.563,6.17-4.219c0-3.653-0.558-3.649,5.613-8.148c6.171-4.502,8.976-12.655,9.537-16.028
			c0.559-3.375,1.402-5.62,0.561-8.995c-0.842-3.374-2.245-5.627-5.61-6.469c-3.368-0.845-2.526-2.813,0.843-2.813
			c3.365,0,5.046-4.779,5.046-7.872s-6.588-7.242-8.481-8.924c-1.895-1.689-7.366-16.452-7.366-16.452s-2.107-9.207-2.947-12.579
			c-0.841-3.376-2.807-13.217-4.209-19.965c-1.401-6.747,2.246-12.652,3.647-14.903c1.401-2.247,5.331-4.216,9.539-12.089
			c4.207-7.872,7.855-7.872,11.221-10.122c0.326-0.216,0.647-0.399,0.977-0.556c3.097-1.471,6.44-0.404,10.244,1.12
			c4.208,1.687,7.292,4.22,7.292,4.22c8.139-7.312,14.872-8.157,14.872-8.157c2.805,5.624,9.539,5.343,9.539,5.343
			c13.466,0,18.797-18.276,19.077-20.246c0.276-1.964,5.61-5.34,8.695-8.997C388.555,419.178,389.397,415.523,389.116,410.741z"/>
		<path opacity="0.6" fill="#FFFFFF" stroke="#00A0E9" stroke-width="4.9407" d="M716.845,436.329
			c-1.397-5.059-13.183-15.181-13.183-15.181h-2.525c0,0-1.123,0-7.292,0c-6.176,0-10.382-5.062-12.627-10.406
			c-2.245-5.341-4.883-14.901-4.883-14.901c-0.182-0.239-0.355-0.496-0.532-0.771c-3.684-5.806-5.529-18.628-5.529-18.628
			c-0.277-5.34,0.284-27.835,0.284-27.835c-1.403-22.493,3.927-42.455,3.927-42.455c-8.414-4.783-4.767-13.496-4.767-13.496
			c-0.279-4.499,6.451-25.024,7.854-29.522c1.401-4.5,6.172-14.059,6.172-14.059v-6.467l-9.539,5.062l-7.012-0.561
			c0,0-12.625-7.311-13.466-8.715c-0.845-1.405-8.979-2.25-9.817-1.689c-0.843,0.565-14.589,7.03-14.589,7.03
			s-3.646,1.125-4.491,1.125c-0.842,0-7.573,0-10.098,0.564c-2.523,0.563-3.084,0-11.782,1.405
			c-8.698,1.408-17.11,25.868-17.11,25.868s-1.967-1.407-2.811-1.407c-0.84,0-2.243-0.279-4.207-0.843
			c-1.966-0.56-3.923-0.843-8.696-0.56c-4.771,0.28-1.402,1.124-2.242,2.529c-0.845,1.407-3.648,5.06-4.771,5.624
			c-1.12,0.562-2.245-2.531-2.245-3.373c0-0.844,0-3.376,0.283-4.219c0.281-0.843,0.559-2.811-0.283-7.872
			c-0.841-5.061-1.684-3.093-5.049-5.623c-3.365-2.531-3.087-0.563-7.569-0.563c-4.495,0-4.771,0-7.862,0.283
			c-3.084,0.281-2.521-1.406-3.645-4.499c-1.12-3.094-4.207-14.059-4.207-14.059l-19.64-22.491c0,0-4.209,5.341-5.049,5.623
			c-0.842,0.28-4.771,7.872-5.894,16.87c-1.12,8.996-9.533,14.338-9.533,14.338l-16.276,0.845c-0.259,0.292-0.51,0.594-0.753,0.909
			c-6.741,8.765-5.697,25.802-5.697,25.802c-1.119,11.526,12.905,22.211,12.905,22.211l-3.368,4.78l-1.119,3.091l3.927,1.97
			c0,0,4.488,2.249,2.239,5.341c-2.241,3.093-5.607,1.125-10.654,7.592c-0.196,0.248-0.382,0.509-0.569,0.785
			c-4.546,6.888-5.322,21.708-5.322,21.708c-11.502,3.936-12.345,12.092-12.345,12.092c-3.366,11.243-12.624,13.212-12.624,13.212
			c-12.625-1.97-11.22,4.498-11.505,8.717c-0.281,4.216,8.416,15.462,8.416,15.462c5.053,6.75,0.565,16.873,0.565,16.873
			l-17.116,23.054l-8.978,12.37c-3.927,7.032-0.842,19.964-0.842,19.964c0,6.749,5.891,37.675,5.891,37.675
			c0.844,15.184-10.099,16.873-10.099,16.873c-12.062,0-20.76,6.746-20.76,6.746c-10.098,7.872-12.342,19.119-10.381,24.745
			c1.966,5.622-1.118,11.807-1.118,11.807s-5.892,8.713-7.017,10.684c-1.122,1.972-0.277,11.807-0.84,12.934
			c-0.564,1.126-4.208,3.656-4.208,5.347c0,1.683-0.841,10.118-1.683,12.648c-0.845,2.531-5.895,10.12-1.404,14.058
			c4.491,3.938,8.978,2.246,11.784,5.622c2.806,3.375,2.524,22.497,5.606,23.34c3.086,0.844,17.96,12.088,17.96,12.088
			c6.731,4.219,13.745,12.373,13.745,12.373v8.995l4.206,4.778l3.088,12.656l11.781-0.281l4.488,1.967
			c9.817,1.126,11.782-10.402,9.259-12.248c-2.525-1.839,0-5.749,0-5.749l2.523-0.839c0,0,4.769,0,7.014,0
			c2.246,0,2.807-2.53,2.807-2.53c1.965-11.251,12.624-11.812,12.624-11.812s1.963,4.5,7.853,10.683
			c5.893,6.188,19.64,6.189,24.971,9c5.332,2.81,24.406,0,24.406,0s2.523-0.565,6.173-1.688c3.648-1.122,10.098-4.496,15.149-7.312
			c5.05-2.811,7.577-5.622,12.903-10.122c5.328-4.5,6.735-14.618,7.296-18.273c0.562-3.657,8.139-12.093,10.098-14.905
			c1.96-2.81,7.015-10.965,9.539-12.93c2.525-1.969,10.661-20.808,10.939-21.934c0.28-1.125,6.455-3.376,6.455-3.376
			s5.607-5.902,6.452-7.027c0.843-1.119,3.644-8.713,3.367-11.248c-0.285-2.527-0.845-11.809-1.964-21.084
			c-1.125-9.277,5.048-20.805,5.889-27.274c0.841-6.465,10.381-22.773,10.381-22.773c17.112-5.625,45.727,4.217,45.727,4.217
			s3.647-0.563,3.647-2.813c0-2.249,0-3.092,0-6.184c0-3.095,0.843-5.059,2.525-8.438c1.683-3.372,3.928-5.058,5.33-7.308
			c1.404-2.25,0,0,1.687-2.533c1.68-2.528,5.606-3.653,10.66-6.183c5.046-2.529,7.854-5.906,9.537-7.871
			c1.681-1.969,0.841-9.277,0.841-10.122c0-0.842,1.401-4.5,5.608-11.528C718.251,445.045,718.251,441.39,716.845,436.329z"/>
		
			<text transform="matrix(1 0 0 1 652.5869 453.2129)" opacity="0" fill="#040000" enable-background="new    " font-family="'SimHei'" font-size="20">轮廓</text>
	</g>
	<g>
		<g>
			<path fill="#E60012" d="M557.045,407.388c-0.056-0.252-0.114-0.456-0.175-0.612c-0.186-0.456-0.427-0.844-0.722-1.163
				c0.902,0.024,1.65,0.022,2.247-0.005c1.758-0.104,3.368-0.392,4.827-0.865l1.336,1.729c-0.79,0.047-1.729,0.15-2.815,0.308
				C559.288,407.144,557.723,407.347,557.045,407.388z M567.296,389.589l4.783,1.06l0.545-2.46l1.989,0.728l-0.454,0.759
				l-0.303,1.367l4.918,1.09l-0.333,1.503l-4.919-1.09l-0.545,2.459l6.148,1.363l-0.333,1.503l-9.429-2.089l-0.363,1.64l6.149,1.362
				l-1.695,7.652l-14.075-3.118l1.695-7.652l6.149,1.362l0.363-1.64l-9.565-2.12l0.333-1.503l6.286,1.393l0.545-2.459l-4.92-1.09
				l0.334-1.503l4.92,1.09l0.514-2.323l1.99,0.728l-0.455,0.759L567.296,389.589z M561.459,402.345l4.373,0.969l0.394-1.777
				l-4.373-0.969L561.459,402.345z M562.155,399.201l4.373,0.969l0.394-1.777l-4.373-0.969L562.155,399.201z M566.418,393.551
				l4.783,1.06l0.545-2.459l-4.783-1.06L566.418,393.551z M571.981,404.676l0.394-1.777l-4.373-0.969l-0.394,1.777L571.981,404.676z
				 M572.678,401.533l0.394-1.777l-4.373-0.969l-0.394,1.777L572.678,401.533z M568.309,407.016l1.396-1.125
				c0.739,0.546,1.349,0.993,1.831,1.338c1.431,1.018,2.769,1.912,4.017,2.682l-1.563,1.23c-0.641-0.557-1.185-1.012-1.633-1.366
				C571.026,408.733,569.678,407.813,568.309,407.016z"/>
			<path fill="#E60012" d="M555.371,432.2l1.195-5.398l-2.894-0.641c-0.112,0.437-0.217,0.875-0.314,1.315
				c-0.308,1.031-0.703,2.058-1.185,3.083c-0.654,1.368-1.41,2.554-2.27,3.559c-0.131-0.204-0.236-0.371-0.319-0.501
				c-0.265-0.393-0.545-0.742-0.843-1.047c0.522-0.489,0.93-0.933,1.227-1.329c0.905-1.217,1.524-2.569,1.854-4.057l2.882-13.005
				l6.127,1.358l-3.926,17.719c-0.363,0.7-0.912,1.128-1.647,1.284c-0.923,0.066-1.619,0.119-2.089,0.158
				c0.071-0.398,0.107-0.701,0.104-0.909c0.002-0.652-0.154-1.133-0.468-1.441l1.343,0.298c0.17,0.021,0.305,0.027,0.402,0.018
				C554.878,432.623,555.151,432.469,555.371,432.2z M554.778,421.173l-0.777,3.508l2.894,0.641l0.777-3.507L554.778,421.173z
				 M555.111,419.67l2.894,0.641l0.747-3.371l-2.894-0.641L555.111,419.67z M567.384,436.533l-6.354-1.408l-0.368,1.663
				l-1.753-0.389l2.321-10.477l9.861,2.186l-2.291,10.34l-1.754-0.389L567.384,436.533z M560.143,423.818l0.338-1.525l2.961,0.656
				l0.671-3.029l-2.711-0.601l0.338-1.526l2.711,0.601l0.707-3.188l1.961,0.745l-0.424,0.623l-0.49,2.209l2.848,0.631l0.706-3.188
				l1.824,0.714l-0.454,0.76l-0.459,2.072l3.119,0.691l-0.339,1.526l-3.119-0.691l-0.671,3.028l3.529,0.782l-0.338,1.526
				L560.143,423.818z M561.367,433.6l6.354,1.408l0.479-2.163l-6.354-1.408L561.367,433.6z M562.154,430.047l6.354,1.408l0.49-2.21
				l-6.355-1.408L562.154,430.047z M568.042,423.968l0.671-3.029l-2.847-0.631l-0.671,3.029L568.042,423.968z"/>
			<path fill="#E60012" d="M556.173,445.613l11.889,2.635l-0.394,1.776l-12.571-2.786c-0.227,0.3-0.424,0.543-0.592,0.729
				c-0.984,1.136-2.011,2.103-3.08,2.901l4.646,1.029l0.696-3.143l2.125,0.758l-0.454,0.759l-0.454,2.05l6.285,1.393l-1.756,7.926
				c-0.372,0.746-1.153,1.114-2.348,1.104c-0.588-0.002-1.177-0.006-1.765-0.009c0.028-0.345,0.041-0.62,0.039-0.828
				c-0.021-0.625-0.136-1.185-0.345-1.677c0.151,0.034,0.31,0.073,0.475,0.117c0.165,0.045,0.341,0.087,0.522,0.128
				c0.425,0.094,0.774,0.116,1.049,0.065c0.273-0.051,0.473-0.246,0.596-0.585l1.15-5.192l-4.236-0.939l-2.301,10.385l-1.913-0.424
				l2.301-10.385l-4.236-0.939l-1.877,8.473l-2.05-0.454l1.786-8.063c-0.434,0.302-0.799,0.548-1.095,0.737
				c-0.872,0.555-1.777,1.079-2.714,1.572c-0.14-0.237-0.265-0.425-0.378-0.561c-0.348-0.444-0.724-0.797-1.126-1.062
				c0.06,0.013,0.55-0.221,1.469-0.702c1.206-0.625,2.358-1.333,3.457-2.124c1.537-1.109,2.849-2.285,3.936-3.525l-6.285-1.393
				l0.394-1.776l7.104,1.574c0.317-0.423,0.571-0.781,0.765-1.073c0.598-0.902,1.035-1.729,1.313-2.48l2.309,1.229
				c-0.444,0.283-0.88,0.697-1.302,1.24C557.072,444.252,556.728,444.765,556.173,445.613z"/>
			<path fill="#E60012" d="M539.682,478.85c-0.025-0.245-0.053-0.442-0.084-0.592c-0.106-0.454-0.295-0.862-0.564-1.224
				c0.046,0.01,0.496-0.336,1.354-1.039c1.07-0.877,2.104-1.843,3.102-2.896c1.397-1.49,2.547-2.973,3.446-4.445l1.816,1.406
				c-0.457,0.329-0.918,0.792-1.384,1.389c-1.253,1.555-1.971,2.423-2.154,2.605l-3.406,15.373l-1.754-0.389l2.786-12.572
				c-0.219,0.191-0.396,0.351-0.537,0.479C541.438,477.679,540.565,478.313,539.682,478.85z M545.237,484.62
				c-0.122-0.17-0.233-0.313-0.334-0.433c-0.304-0.354-0.659-0.694-1.064-1.023c0.076,0.017,0.572-0.279,1.488-0.89
				c1.175-0.774,2.276-1.652,3.307-2.636c1.41-1.328,2.534-2.735,3.374-4.222l-4.374-0.969l0.333-1.503l12.846,2.847l-0.333,1.503
				l-6.56-1.454c-0.315,0.489-0.576,0.876-0.783,1.165c-0.579,0.811-1.144,1.562-1.694,2.252l-2.049,9.247l3.08-1.611l-0.044,2.14
				c-0.28,0.113-0.525,0.218-0.737,0.314c-1.205,0.545-2.446,1.194-3.729,1.946l-0.734-1.859c0.087-0.108,0.146-0.199,0.179-0.271
				c0.129-0.226,0.225-0.476,0.285-0.75l1.504-6.786c-0.491,0.417-0.899,0.756-1.229,1.018
				C546.981,483.431,546.072,484.089,545.237,484.62z M554.374,482.201c0.509-0.285,0.922-0.528,1.236-0.729
				c0.984-0.626,1.816-1.254,2.496-1.884l1.034,1.806l-4.325,2.052c0.123,0.377,0.247,0.755,0.37,1.133
				c0.337,0.919,0.771,1.771,1.297,2.557c0.739,1.12,1.576,2.014,2.512,2.683c-0.181,0.023-0.329,0.047-0.445,0.068
				c-0.742,0.187-1.388,0.513-1.937,0.98c-0.138-0.03-0.52-0.529-1.149-1.497c-0.844-1.301-1.505-2.738-1.984-4.311
				c-0.66-2.2-0.884-4.464-0.67-6.79l1.593-0.077c-0.059,0.481-0.1,0.886-0.124,1.214
				C554.229,480.338,554.263,481.269,554.374,482.201z M555.999,473.577l-1.929,0.29c-0.073-0.462-0.143-0.828-0.21-1.098
				c-0.2-0.825-0.429-1.481-0.688-1.968l1.928-0.29L555.999,473.577z"/>
			<path fill="#E60012" d="M536.098,505.485l0.938-4.236l-2.391-0.53l0.313-1.412l8.153,1.807l-0.313,1.412l-3.94-0.873
				l-0.626,2.824l3.667,0.813l-1.785,7.417c-0.253,0.773-0.512,1.336-0.781,1.691c-0.829,1.074-2.009,1.442-3.543,1.102
				c-0.012-0.305-0.038-0.542-0.081-0.71c-0.12-0.537-0.331-0.982-0.636-1.335c0.168,0.037,0.341,0.08,0.521,0.127
				c0.18,0.048,0.369,0.094,0.566,0.138c0.805,0.178,1.371,0.157,1.699-0.065s0.553-0.607,0.674-1.154l1.505-6.141l-2.119-0.469
				c-0.179,0.518-0.349,1.038-0.513,1.559c-0.48,1.311-1.022,2.529-1.622,3.654c-0.87,1.624-1.839,3.049-2.906,4.278
				c-0.143-0.222-0.271-0.395-0.387-0.516c-0.367-0.431-0.761-0.773-1.184-1.026c0.062,0.014,0.372-0.276,0.933-0.868
				c0.749-0.79,1.421-1.701,2.016-2.731C535.115,508.74,535.728,507.156,536.098,505.485z M541.492,499.8l-1.803,0.15
				c-0.037-0.407-0.074-0.742-0.111-1.005c-0.127-0.793-0.341-1.549-0.644-2.27l1.802-0.15c0.058,0.236,0.102,0.438,0.129,0.603
				C541.134,498.286,541.342,499.177,541.492,499.8z M542.624,507.409c0.596-0.457,1.073-0.853,1.435-1.188
				c1.101-1.014,1.943-2.045,2.526-3.095l1.792,0.97c-0.187,0.118-0.336,0.22-0.45,0.307c-0.367,0.286-0.646,0.613-0.84,0.985
				l6.422,1.423l-0.332,1.503l-3.963-0.878l-0.576,2.596l4.92,1.09l-0.363,1.64l-4.51-0.999c0.086,0.401,0.183,0.797,0.288,1.187
				c0.301,1.007,0.685,1.896,1.151,2.668c0.688,1.14,1.535,2.061,2.542,2.761c-0.292,0.095-0.532,0.177-0.724,0.247
				c-0.578,0.238-1.086,0.516-1.522,0.834c-0.046-0.011-0.263-0.291-0.65-0.838c-0.51-0.719-0.955-1.478-1.335-2.279
				c-0.556-1.159-0.938-2.31-1.146-3.456c-0.263,0.324-0.524,0.641-0.784,0.95c-0.671,0.727-1.417,1.398-2.237,2.013
				c-1.147,0.861-2.314,1.494-3.504,1.899c-0.146-0.414-0.301-0.728-0.46-0.938c-0.271-0.363-0.608-0.637-1.014-0.822
				c0.122,0.027,0.55-0.069,1.282-0.289c1.061-0.322,2.012-0.772,2.855-1.351c1.204-0.832,2.137-1.876,2.797-3.131l-3.963-0.878
				l0.364-1.641l4.236,0.939l0.574-2.596l-1.502-0.333c-0.197,0.243-0.367,0.437-0.512,0.579c-0.433,0.446-0.871,0.835-1.311,1.167
				c-0.124-0.154-0.24-0.275-0.35-0.363C543.419,507.776,543.039,507.549,542.624,507.409z M543.2,504.813
				c-0.163-0.131-0.306-0.242-0.428-0.333c-0.412-0.298-0.811-0.545-1.197-0.743c0.061,0.014,0.38-0.203,0.956-0.648
				c0.783-0.591,1.517-1.273,2.196-2.046c0.975-1.09,1.77-2.268,2.386-3.534l2.034,1.168c-0.363,0.126-0.715,0.383-1.055,0.77
				c-0.256,0.293-0.531,0.71-0.826,1.25l7.925,1.756l-0.363,1.64l-8.744-1.938c-0.214,0.24-0.391,0.432-0.534,0.575
				C544.704,503.594,543.922,504.288,543.2,504.813z"/>
			<path fill="#E60012" d="M529.546,542.501l-0.363,1.64l-1.914-0.424l2.786-12.571l16.261,3.603l-2.815,12.708l-2.049-0.454
				l0.394-1.775L529.546,542.501z M544.906,526.121l-0.445,0.714l-0.459,2.072l5.671,1.257l-0.373,1.685l-5.671-1.256l-0.575,2.596
				L541.3,532.8l0.575-2.596l-5.42-1.201l-0.575,2.597l-1.891-0.419l0.575-2.597l-5.671-1.256l0.373-1.686l5.671,1.257l0.691-3.12
				l2.104,0.752l-0.445,0.715l-0.459,2.072l5.42,1.201l0.691-3.12L544.906,526.121z M529.879,540.998l5.329,1.181l0.696-3.144
				l-5.329-1.181L529.879,540.998z M531.045,536.382l5.192,1.15l0.696-3.143l-5.192-1.15L531.045,536.382z M542.178,543.723
				l0.696-3.143l-5.193-1.151l-0.696,3.143L542.178,543.723z M543.207,539.077l0.696-3.144l-5.193-1.15l-0.696,3.143
				L543.207,539.077z"/>
			<path fill="#E60012" d="M523.987,560.145l0.938-4.236l-2.391-0.53l0.313-1.412l8.153,1.807l-0.313,1.412l-3.94-0.873
				l-0.626,2.824l3.667,0.813l-1.786,7.417c-0.252,0.773-0.511,1.336-0.781,1.691c-0.828,1.074-2.008,1.442-3.542,1.103
				c-0.013-0.306-0.039-0.542-0.081-0.711c-0.12-0.536-0.332-0.982-0.636-1.335c0.167,0.037,0.34,0.08,0.521,0.127
				c0.18,0.048,0.369,0.094,0.566,0.138c0.805,0.178,1.371,0.157,1.699-0.065c0.327-0.222,0.552-0.607,0.673-1.154l1.506-6.141
				l-2.119-0.469c-0.179,0.518-0.35,1.038-0.513,1.559c-0.481,1.311-1.022,2.529-1.622,3.654c-0.87,1.624-1.839,3.049-2.907,4.278
				c-0.142-0.222-0.271-0.394-0.387-0.516c-0.366-0.431-0.761-0.773-1.183-1.026c0.062,0.014,0.372-0.276,0.933-0.868
				c0.749-0.79,1.421-1.7,2.015-2.731C523.005,563.399,523.616,561.815,523.987,560.145z M529.382,554.459l-1.803,0.15
				c-0.037-0.406-0.074-0.742-0.111-1.005c-0.127-0.793-0.342-1.549-0.644-2.27l1.802-0.15c0.058,0.236,0.102,0.438,0.128,0.603
				C529.023,552.945,529.231,553.836,529.382,554.459z M530.514,562.068c0.596-0.457,1.073-0.853,1.435-1.188
				c1.101-1.014,1.942-2.046,2.525-3.096l1.792,0.971c-0.186,0.118-0.335,0.22-0.45,0.306c-0.366,0.286-0.646,0.614-0.84,0.985
				l6.423,1.423l-0.333,1.503l-3.963-0.878l-0.575,2.596l4.92,1.09l-0.363,1.64l-4.51-0.999c0.085,0.401,0.182,0.797,0.287,1.187
				c0.302,1.007,0.686,1.896,1.151,2.668c0.688,1.141,1.535,2.061,2.543,2.761c-0.292,0.095-0.533,0.177-0.724,0.247
				c-0.578,0.238-1.087,0.516-1.522,0.834c-0.046-0.011-0.263-0.29-0.65-0.838c-0.51-0.719-0.955-1.478-1.335-2.279
				c-0.556-1.159-0.938-2.31-1.146-3.456c-0.264,0.324-0.525,0.641-0.785,0.95c-0.67,0.727-1.416,1.398-2.236,2.013
				c-1.148,0.861-2.314,1.494-3.504,1.899c-0.146-0.414-0.301-0.728-0.46-0.938c-0.271-0.363-0.609-0.637-1.014-0.822
				c0.122,0.027,0.549-0.069,1.282-0.289c1.061-0.322,2.012-0.772,2.855-1.351c1.203-0.832,2.137-1.876,2.797-3.131l-3.963-0.878
				l0.363-1.641l4.236,0.939l0.575-2.596l-1.503-0.333c-0.197,0.243-0.367,0.437-0.512,0.579c-0.433,0.446-0.87,0.835-1.31,1.167
				c-0.124-0.154-0.241-0.275-0.35-0.363C531.309,562.436,530.929,562.208,530.514,562.068z M531.089,559.472
				c-0.162-0.131-0.305-0.242-0.427-0.333c-0.412-0.298-0.812-0.546-1.198-0.743c0.061,0.014,0.38-0.203,0.956-0.648
				c0.784-0.591,1.517-1.273,2.197-2.046c0.974-1.09,1.769-2.268,2.386-3.534l2.033,1.168c-0.362,0.126-0.715,0.383-1.055,0.77
				c-0.255,0.293-0.531,0.71-0.826,1.25l7.925,1.756l-0.363,1.64l-8.744-1.938c-0.214,0.24-0.391,0.432-0.534,0.575
				C532.594,558.253,531.811,558.947,531.089,559.472z"/>
			<path fill="#E60012" d="M527.337,578.998l2.218,1.638c-0.892,0.28-1.896,0.791-3.016,1.53c-3.003,1.979-4.639,3.034-4.907,3.166
				l6.043,1.195c0.67-0.361,1.218-0.678,1.645-0.95c1.261-0.804,2.357-1.652,3.288-2.544l1.96,2.153
				c-1.27,0.404-2.649,0.99-4.142,1.759c-1.302,0.699-2.603,1.398-3.905,2.097c-1.592,0.858-3.022,1.528-4.293,2.012l8.533,1.604
				c0.313-0.409,0.559-0.76,0.736-1.056c0.533-0.9,0.91-1.845,1.129-2.832l2.309,1.228c-0.194,0.229-0.356,0.424-0.488,0.585
				c-0.792,0.987-1.515,1.982-2.167,2.984c-1.251,1.762-2.771,3.05-4.559,3.864c-1.559,0.706-3.441,1.117-5.649,1.233
				c-1.53,0.075-3.743-0.001-6.64-0.229c-0.023-0.18-0.047-0.329-0.069-0.445c-0.154-0.736-0.436-1.372-0.844-1.908
				c2.992,0.663,5.737,0.889,8.237,0.678c3.116-0.265,5.446-1.182,6.989-2.752c-0.563-0.125-1.34-0.281-2.334-0.469
				c-0.993-0.188-2.266-0.395-3.816-0.619c-1.552-0.224-3.252-0.406-5.101-0.544c-0.008-0.177-0.017-0.322-0.023-0.435
				c-0.079-0.719-0.284-1.337-0.615-1.857c1.469,0.055,2.882-0.142,4.24-0.59c1.05-0.356,2.299-0.956,3.743-1.799
				c-0.891-0.149-1.635-0.274-2.233-0.376c-1.694-0.264-3.358-0.48-4.993-0.651c-0.016-0.291-0.027-0.524-0.036-0.701
				c-0.043-0.52-0.108-1.02-0.192-1.5c1.232-0.03,2.398-0.336,3.5-0.921c0.867-0.461,1.809-1.153,2.825-2.074
				C525.577,580.647,526.453,579.821,527.337,578.998z"/>
		</g>
	</g>
</g>
<g>
</g>
<path fill="#FFFFFF" stroke="#E60012" stroke-width="1.7639" d="M465.432,590.148c0,4.455-3.61,8.065-8.068,8.065
	c-4.453,0-8.057-3.61-8.057-8.065c0-4.455,3.604-8.069,8.057-8.069C461.821,582.079,465.432,585.693,465.432,590.148z"/>
<polygon fill="#74C6BE" stroke="#000000" stroke-width="3.5278" points="477.345,567.035 457.741,559.241 457.741,558.873 
	455.883,558.873 455.883,590.66 457.741,590.66 457.741,575.601 "/>
<g>
	<g>
		<g>
			<polygon fill="#E60012" stroke="#E72922" stroke-width="1.3715" points="281.123,541.035 285.034,553.065 297.68,553.065 
				287.448,560.499 291.355,572.535 281.123,565.1 270.891,572.535 274.796,560.499 264.566,553.065 277.217,553.065 			"/>
		</g>
		<g>
			<g>
				<path fill="#F39800" d="M424.614,442.978H239.417c-6.33,0-11.455,5.679-11.455,12.682v50.738
					c0,7.002,5.125,12.682,11.455,12.682h15.134l14.453,27.391l13.53-27.391h142.081c6.327,0,11.455-5.679,11.455-12.682V455.66
					C436.069,448.657,430.941,442.978,424.614,442.978z"/>
				<path fill="#D2D0C1" d="M422.355,446.092H242.228c-6.152,0-11.137,5.146-11.137,11.5v45.995c0,6.354,4.985,11.501,11.137,11.501
					h14.725l11.987,25.452l12.538-25.452h140.878c6.152,0,11.142-5.147,11.142-11.501v-45.995
					C433.497,451.239,428.508,446.092,422.355,446.092z"/>
			</g>
			<g>
				<path fill="#EA5514" d="M263.615,456.348v-1.918h-3.002c-0.801,0.029-1.772,0.112-2.914,0.249v-2.738
					c1.376,0.156,2.348,0.239,2.914,0.249h3.002v-0.483c-0.01-0.41-0.093-1.44-0.249-3.09l2.855,0.366
					c0.634,0.068,0.971,0.2,1.01,0.396c0.059,0.195-0.171,0.483-0.688,0.864c-0.195,0.137-0.292,0.635-0.292,1.494v0.454h4.92
					v-0.483c-0.01-0.585-0.093-1.616-0.249-3.09l2.855,0.366c0.625,0.068,0.954,0.151,0.988,0.249s0.051,0.161,0.051,0.19
					c0,0.176-0.215,0.424-0.644,0.747c-0.244,0.186-0.366,0.708-0.366,1.567v0.454h2.606c0.547-0.01,1.518-0.093,2.914-0.249v2.738
					c-1.347-0.166-2.299-0.249-2.855-0.249h-2.665v1.918h5.096c0.303,0.01,1.274-0.059,2.914-0.205v2.694
					c-1.386-0.156-2.338-0.234-2.855-0.234h-9.02v1.552h5.008c0.547-0.01,1.655-0.088,3.324-0.234
					c-0.137,1.572-0.205,2.543-0.205,2.914v4.979c0,0.254,0.068,1.181,0.205,2.782c-1.445-0.137-2.504-0.205-3.178-0.205h-0.483
					c0.986,0.508,2.636,1.44,4.95,2.797c0.556,0.322,0.976,0.566,1.259,0.732l-1.435,2.402c-2.606-1.826-5.496-3.466-8.669-4.92
					l0.747-1.01h-5.184l0.424,0.352c0.469,0.42,0.703,0.723,0.703,0.908c0,0.039-0.005,0.068-0.015,0.088
					c-0.068,0.186-0.479,0.293-1.23,0.322c-0.342,0.039-0.781,0.239-1.318,0.6c-2.421,1.445-4.632,2.709-6.633,3.793
					c-0.576-0.85-1.396-1.611-2.46-2.285c3.182-0.888,5.774-2.147,7.775-3.778h-0.82c-0.8,0.02-1.869,0.088-3.207,0.205
					c0.137-1.337,0.214-2.318,0.234-2.943v-4.729c0-0.449-0.079-1.45-0.234-3.002c1.356,0.137,2.416,0.215,3.177,0.234h4.525v-1.552
					h-8.961c-0.537,0.01-1.489,0.088-2.855,0.234v-2.694c0.039,0,0.103,0.005,0.19,0.015c1.523,0.127,2.411,0.19,2.665,0.19H263.615
					z M262.415,462.41v1.655h4.788v-1.655H262.415z M262.415,466.305v1.831h4.788v-1.831H262.415z M271.171,454.429h-4.92v1.918
					h4.92V454.429z M269.941,462.41v1.655h5.389v-1.655H269.941z M269.941,468.135h5.389v-1.831h-5.389V468.135z"/>
				<path fill="#EA5514" d="M289.636,465.924c-0.167,3.349-1.113,6.614-2.841,9.796c-0.84-0.488-1.821-0.844-2.943-1.069
					c1.22-1.503,2.04-3.231,2.46-5.184c0.469-1.982,0.698-4.876,0.688-8.684v-7.468c-0.029-0.82-0.108-1.757-0.234-2.812
					c1.044,0.137,2.045,0.225,3.002,0.264h2.84c0.938-0.039,1.967-0.127,3.09-0.264c-0.127,1.552-0.195,2.523-0.205,2.914v18.802
					c0.049,1.542-0.186,2.46-0.703,2.753c-0.4,0.4-1.718,0.659-3.954,0.776c-0.068-0.849-0.459-1.928-1.171-3.236
					c0.166,0.029,0.395,0.068,0.688,0.117c1.191,0.215,1.854,0.317,1.992,0.308c0.351,0.059,0.507-0.293,0.468-1.054v-5.96H289.636z
					 M289.636,452.965v4.554h3.177v-4.554H289.636z M289.636,459.715v4.012h3.177v-4.012H289.636z M298.759,458.119h1.054v-3.177
					h-0.571c-0.517,0.02-1.449,0.107-2.796,0.263v-2.723c1.093,0.146,2.025,0.239,2.796,0.278h0.571v-0.6
					c-0.02-0.527-0.103-1.611-0.249-3.251l2.914,0.396c0.498,0.078,0.769,0.242,0.813,0.491c0.044,0.249-0.159,0.524-0.607,0.827
					c-0.166,0.029-0.244,0.6-0.234,1.713v0.424h2.87v-0.849c-0.029-0.839-0.107-1.908-0.234-3.207l2.914,0.396
					c0.557,0.068,0.844,0.195,0.864,0.381c0.039,0.186-0.171,0.498-0.629,0.937c-0.186,0.107-0.273,0.679-0.264,1.713v0.629h0.629
					c0.879-0.049,1.816-0.141,2.812-0.278v2.723c-1.308-0.156-2.235-0.244-2.782-0.263h-0.659v3.177h1.801
					c0.957-0.039,1.894-0.126,2.811-0.264v2.724c-1.445-0.156-2.382-0.244-2.811-0.263h-11.012c-0.459,0.01-1.411,0.098-2.855,0.263
					v-2.724C297.006,458.002,297.958,458.09,298.759,458.119z M297.924,461.692c1.357,0.156,2.417,0.244,3.178,0.263h6.106
					c0.917-0.039,1.957-0.126,3.119-0.263c-0.127,1.191-0.205,2.147-0.234,2.87v8.288c0.029,0.762,0.107,1.752,0.234,2.973h-3.207
					c0.126-0.615,0.219-1.215,0.278-1.801h-6.545c0.02,0.42,0.103,1.099,0.249,2.036h-3.178c0.137-1.221,0.215-2.231,0.234-3.031
					v-8.391C298.158,464.343,298.08,463.361,297.924,461.692z M307.398,466.788v-2.636h-6.545v2.636H307.398z M300.853,468.984v2.87
					h6.545v-2.87H300.853z M302.449,454.942v3.177h2.87v-3.177H302.449z"/>
				<path fill="#EA5514" d="M321.514,463.815c-1.289,1.367-2.665,2.636-4.129,3.807c-0.576-0.703-1.499-1.4-2.768-2.094
					c4.168-2.265,7.288-5.555,9.357-9.87h-5.242c-0.605,0.01-1.625,0.093-3.06,0.249v-2.738c1.61,0.166,2.621,0.249,3.031,0.249
					h6.209c0.781-2.03,1.181-3.7,1.201-5.008l3.324,0.805c0.381,0.107,0.557,0.283,0.527,0.527
					c-0.049,0.244-0.303,0.478-0.762,0.703c-0.302,0.098-0.566,0.498-0.791,1.201c-0.176,0.576-0.376,1.167-0.6,1.772h10.865
					c0.8-0.039,1.792-0.122,2.973-0.249v2.768c-1.279-0.156-2.27-0.249-2.973-0.278h-11.7c-0.8,1.669-1.601,3.139-2.401,4.408h4.144
					v-0.322c-0.039-1.171-0.122-2.323-0.249-3.456l3.222,0.395c0.439,0.068,0.683,0.215,0.732,0.439
					c0.029,0.234-0.146,0.498-0.527,0.791c-0.332,0.186-0.493,0.796-0.483,1.831v0.322h4.949c0.791-0.029,1.801-0.107,3.031-0.234
					c-0.127,1.074-0.205,2.021-0.234,2.841v5.974c0.068,1.806-0.244,2.885-0.937,3.236c-0.518,0.469-2.265,0.8-5.242,0.996
					c0.059-1.035-0.283-2.113-1.025-3.236c1.816,0.166,2.943,0.244,3.383,0.234c0.469,0,0.771-0.068,0.908-0.205
					c0.146-0.107,0.215-0.371,0.205-0.791v-6.56h-5.037v11.041c0.039,0.898,0.122,1.874,0.249,2.929h-3.192
					c0.137-1.064,0.22-2.031,0.249-2.899v-11.07h-4.496v7.98c0.039,0.811,0.117,1.738,0.234,2.782h-3.178
					c0.127-1.123,0.205-2.05,0.234-2.782V463.815z"/>
				<path fill="#EA5514" d="M370.729,474.52c-5.418-4.012-8.478-9.357-9.181-16.034c-0.205,0.488-0.444,1.035-0.718,1.64v10.836
					c1.25-1.074,2.373-2.187,3.369-3.339c0.234,1.025,0.58,2.016,1.039,2.973c-2.079,1.66-4.139,3.509-6.179,5.55
					c-0.488-0.966-1.147-1.674-1.977-2.124c0.4-0.41,0.674-0.773,0.82-1.091c0.146-0.317,0.215-0.715,0.205-1.193v-7.102
					c-1.318,1.816-2.699,3.412-4.144,4.789c-0.576-0.605-1.215-1.162-1.918-1.669v5.696c0,0.625,0.083,1.591,0.249,2.899h-3.192
					c0.156-1.142,0.239-2.119,0.249-2.929v-13.267c-0.508,0.83-1.45,2.001-2.826,3.514c-0.713-0.634-1.562-1.245-2.548-1.83
					c3.28-2.802,5.77-7.229,7.468-13.282l2.973,1.113c0.361,0.137,0.537,0.314,0.527,0.534c-0.01,0.22-0.205,0.417-0.586,0.593
					c-0.283,0.166-0.493,0.439-0.629,0.82c-0.527,1.396-1.089,2.733-1.684,4.012v11.305c3.417-2.802,5.808-6.277,7.175-10.426
					h-3.031c-0.938,0.01-1.997,0.098-3.178,0.264v-2.855c1.142,0.176,2.201,0.269,3.178,0.278h6.297
					c-1.348-1.376-2.607-2.484-3.779-3.324l1.889-2.167c2.099,1.689,3.627,3.017,4.584,3.983l-1.494,1.508h5.125
					c1.025-0.009,2.123-0.103,3.295-0.278v2.855c-1.211-0.166-2.309-0.253-3.295-0.264h-6.501c-0.117,0.284-0.273,0.693-0.469,1.23
					c-0.088,0.225-0.152,0.39-0.19,0.498c0.858,0,1.728-0.117,2.606-0.352c-0.049,1.572,0.259,3.271,0.923,5.096
					c1.366-1.611,2.436-3.202,3.206-4.774l2.577,1.772c0.303,0.215,0.454,0.41,0.454,0.585c0,0.04-0.015,0.115-0.044,0.227
					c-0.029,0.112-0.254,0.193-0.674,0.242c-0.351,0.029-0.668,0.229-0.951,0.601c-0.957,1.201-2.108,2.47-3.456,3.807
					c1.894,3.183,4.271,5.423,7.131,6.721C372.272,472.845,371.374,473.631,370.729,474.52z"/>
				<path fill="#EA5514" d="M390.308,448.499l2.797,1.113c0.565,0.225,0.849,0.444,0.849,0.659c0,0.215-0.283,0.425-0.849,0.63
					c-0.195-0.02-0.586,0.518-1.172,1.61l-0.454,0.806h7.586c0.692,0.01,1.635-0.068,2.825-0.234v2.797
					c-0.673-0.117-1.203-0.198-1.588-0.242c-0.386-0.044-0.799-0.066-1.237-0.066h-8.654c-0.557,1.006-1.47,2.377-2.738,4.115
					c-0.898-0.634-1.929-1.098-3.09-1.391c0.459-0.381,0.888-0.82,1.288-1.318c-0.8-0.097-1.386-0.146-1.757-0.146h-3.031v3.456
					h2.665c0.4,0.01,1.23-0.083,2.489-0.278c-0.049,0.859-0.117,2.304-0.205,4.334c-0.156,3.436-0.277,5.842-0.365,7.219
					c0.029,2.197-1.792,3.383-5.462,3.559c-0.029-0.918-0.43-1.967-1.201-3.148c1.25,0.254,2.099,0.385,2.548,0.396
					c0.977,0.019,1.479-0.41,1.509-1.289c0.214-2.763,0.341-5.613,0.38-8.552h-2.416c-0.195,5.301-1.645,9.708-4.349,13.223
					c-0.723-0.625-1.665-1.064-2.826-1.318c2.938-2.821,4.446-7.517,4.524-14.086v-3.515h-0.234c-0.518,0-1.405,0.079-2.665,0.234
					v-2.782c1.094,0.195,1.992,0.293,2.694,0.293h3.808c-1.24-1.64-2.421-2.929-3.544-3.866l2.079-1.801
					c1.201,1.094,2.567,2.543,4.101,4.349l-1.493,1.318h1.083c0.557,0.01,1.377-0.098,2.46-0.322v1.713
					C388.243,453.653,389.458,451.164,390.308,448.499z M389.59,465.016h3.236c0.137-0.869,0.21-2.147,0.22-3.836h-1.626
					c-0.43,0.849-1.166,1.958-2.211,3.324c-0.654-0.527-1.615-0.967-2.885-1.318c2.069-1.894,3.461-4.319,4.174-7.277l2.899,1.04
					c0.37,0.146,0.546,0.347,0.526,0.601c-0.039,0.234-0.263,0.405-0.673,0.512c-0.166,0.049-0.327,0.19-0.483,0.425
					c-0.127,0.215-0.215,0.386-0.264,0.513h5.579c0.635,0.02,1.562-0.083,2.782-0.308v2.753c-1.279-0.186-2.206-0.273-2.782-0.264
					h-2.226c-0.029,1.201-0.098,2.479-0.205,3.836h3.865c0.84,0.01,1.772-0.097,2.797-0.322v2.753
					c-1.366-0.166-2.309-0.244-2.826-0.234h-3.235c1.327,2.861,3.655,5.149,6.984,6.868c-1.191,0.449-2.079,1.157-2.665,2.124
					c-2.519-1.933-4.539-4.203-6.063-6.809c-0.907,2.479-3.305,4.871-7.189,7.175c-0.508-0.888-1.338-1.748-2.489-2.577
					c3.855-1.044,6.364-3.304,7.526-6.78h-2.68c-0.625-0.009-1.562,0.079-2.812,0.264v-2.724
					C388.155,464.938,389.063,465.026,389.59,465.016z"/>
				<path fill="#EA5514" d="M288.333,489.04c1.406,0.215,2.548,0.327,3.426,0.337h4.378v-1.362c-0.02-0.986-0.112-2.084-0.278-3.295
					l3.222,0.454c0.4,0.059,0.615,0.146,0.644,0.264s0.044,0.195,0.044,0.234c0,0.195-0.142,0.4-0.424,0.615
					c-0.313,0.186-0.464,0.762-0.454,1.728v1.362h5.887v-1.259c-0.02-0.986-0.113-2.089-0.278-3.31l3.207,0.454
					c0.41,0.059,0.63,0.146,0.659,0.264s0.044,0.195,0.044,0.234c0,0.195-0.142,0.4-0.425,0.615
					c-0.313,0.166-0.464,0.747-0.454,1.743v1.259h4.261c0.938-0.02,2.118-0.132,3.544-0.337v3.031
					c-1.435-0.205-2.617-0.317-3.544-0.337h-4.261v0.732c0,0.644,0.092,1.562,0.278,2.752h-3.309
					c0.176-1.181,0.268-2.099,0.278-2.752v-0.732h-5.887v0.761c0,0.713,0.093,1.65,0.278,2.812h-3.31
					c0.176-1.201,0.269-2.138,0.278-2.812v-0.761h-4.378c-0.839,0.01-1.982,0.122-3.426,0.337V489.04z M291.671,495.907
					c1.171,0.234,2.329,0.347,3.471,0.337h13.984c1.103-0.029,2.279-0.142,3.529-0.337c-0.205,1.23-0.313,2.421-0.322,3.573v9.021
					c0,1.054,0.088,2.167,0.264,3.338h-3.324c0.186-0.957,0.273-1.63,0.264-2.021h-14.804c-0.02,0.644,0.068,1.454,0.264,2.431
					h-3.266c0.156-0.957,0.244-2.065,0.264-3.324v-9.416C291.993,498.787,291.886,497.586,291.671,495.907z M294.731,498.543v3.368
					h5.96v-3.368H294.731z M300.691,507.548v-3.397h-5.96v3.397H300.691z M303.4,501.911h6.135v-3.368H303.4V501.911z
					 M303.4,504.151v3.397h6.135v-3.397H303.4z"/>
				<path fill="#EA5514" d="M333.316,484.485l2.797,1.113c0.566,0.225,0.849,0.444,0.849,0.659c0,0.215-0.283,0.425-0.849,0.63
					c-0.196-0.02-0.586,0.518-1.172,1.61l-0.454,0.806h7.585c0.693,0.01,1.635-0.068,2.826-0.234v2.797
					c-0.674-0.117-1.203-0.198-1.589-0.242s-0.798-0.066-1.237-0.066h-8.654c-0.557,1.006-1.47,2.377-2.738,4.115
					c-0.898-0.634-1.928-1.098-3.09-1.391c0.458-0.381,0.888-0.82,1.289-1.318c-0.801-0.097-1.386-0.146-1.757-0.146h-3.031v3.456
					h2.665c0.4,0.01,1.23-0.083,2.489-0.278c-0.049,0.859-0.117,2.304-0.205,4.334c-0.156,3.436-0.278,5.842-0.366,7.219
					c0.029,2.197-1.792,3.383-5.462,3.559c-0.029-0.918-0.43-1.967-1.201-3.148c1.25,0.254,2.099,0.385,2.548,0.396
					c0.976,0.019,1.479-0.41,1.508-1.289c0.215-2.763,0.342-5.613,0.381-8.552h-2.416c-0.196,5.301-1.645,9.708-4.349,13.223
					c-0.723-0.625-1.665-1.064-2.826-1.318c2.938-2.821,4.446-7.517,4.525-14.086v-3.515h-0.234c-0.518,0-1.406,0.079-2.665,0.234
					v-2.782c1.093,0.195,1.991,0.293,2.694,0.293h3.807c-1.24-1.64-2.421-2.929-3.543-3.866l2.079-1.801
					c1.201,1.094,2.567,2.543,4.1,4.349l-1.494,1.318h1.083c0.557,0.01,1.376-0.098,2.46-0.322v1.713
					C331.251,489.64,332.467,487.15,333.316,484.485z M332.599,501.003h3.236c0.136-0.869,0.209-2.147,0.22-3.836h-1.625
					c-0.43,0.849-1.167,1.958-2.211,3.324c-0.654-0.527-1.616-0.967-2.884-1.318c2.069-1.894,3.46-4.319,4.173-7.277l2.899,1.04
					c0.371,0.146,0.547,0.347,0.527,0.601c-0.039,0.234-0.264,0.405-0.674,0.512c-0.166,0.049-0.327,0.19-0.483,0.425
					c-0.127,0.215-0.215,0.386-0.264,0.513h5.579c0.634,0.02,1.562-0.083,2.782-0.308v2.753c-1.279-0.186-2.207-0.273-2.782-0.264
					h-2.226c-0.029,1.201-0.098,2.479-0.205,3.836h3.866c0.839,0.01,1.771-0.097,2.797-0.322v2.753
					c-1.367-0.166-2.309-0.244-2.826-0.234h-3.236c1.328,2.861,3.656,5.149,6.985,6.868c-1.191,0.449-2.079,1.157-2.665,2.124
					c-2.519-1.933-4.54-4.203-6.062-6.809c-0.908,2.479-3.305,4.871-7.19,7.175c-0.508-0.888-1.337-1.748-2.489-2.577
					c3.856-1.044,6.365-3.304,7.526-6.78h-2.68c-0.625-0.009-1.562,0.079-2.812,0.264v-2.724
					C331.164,500.925,332.072,501.013,332.599,501.003z"/>
				<path fill="#EA5514" d="M350.083,509.555c7.614-0.566,13.116-2.997,16.503-7.292c-6.776,0.283-11.198,0.713-13.268,1.289
					l-1.04-2.636c1.357-0.264,2.484-0.693,3.382-1.289c1.875-1.298,3.607-2.66,5.198-4.085c-3.407,0.137-5.92,0.337-7.541,0.601
					l-1.098-2.519c1.015-0.313,2.001-0.898,2.958-1.757c2.645-2.392,4.725-4.861,6.238-7.409l2.461,1.581
					c0.36,0.234,0.536,0.459,0.526,0.674c-0.029,0.215-0.234,0.361-0.614,0.439c-0.42,0.059-0.85,0.328-1.289,0.806
					c-1.787,1.982-3.656,3.832-5.609,5.55c2.197-0.068,4.295-0.117,6.297-0.146c1.435-1.425,2.724-2.973,3.865-4.642l2.68,1.757
					c0.244,0.176,0.366,0.347,0.366,0.513c0,0.059-0.034,0.154-0.103,0.285c-0.068,0.132-0.356,0.247-0.863,0.344
					c-0.371,0.049-0.801,0.342-1.289,0.878c-2.167,2.236-5.047,4.813-8.64,7.732c3.612-0.205,6.502-0.337,8.669-0.396
					c0.781-1.796,1.279-3.304,1.494-4.525l3.118,1.259c0.361,0.156,0.53,0.339,0.506,0.549s-0.242,0.417-0.652,0.623
					c-0.321,0.127-0.634,0.566-0.937,1.318c-2.255,7.048-8.591,11.529-19.007,13.442
					C351.986,511.59,351.215,510.609,350.083,509.555z"/>
			</g>
		</g>
	</g>
	<g opacity="0">
		<rect x="202.553" y="432.537" fill="none" stroke="#000000" stroke-width="1.6859" width="242.947" height="149.542"/>
		<g>
			<text transform="matrix(1 0 0 1 234.998 546.4697)" fill="#040000" font-family="'ArialMT'" font-size="15">0</text>
		</g>
	</g>
</g>
<g>
	<rect x="441.055" y="599.911" fill="#E60012" width="69.863" height="29.094"/>
	<g>
		<g>
			<path fill="#FFFFFF" d="M461.715,612.689c-0.551,2.587-1.196,4.61-1.939,6.067c-0.743,1.459-1.83,2.986-3.261,4.582
				c-0.221-0.33-0.771-0.743-1.651-1.238c2.035-1.596,3.521-3.81,4.458-6.645c0.935-2.834,1.431-5.792,1.485-8.874
				c0.605,0.276,1.266,0.468,1.981,0.578C462.678,607.379,462.32,609.222,461.715,612.689z M469.351,614.381
				c0.798,3.165,2.407,5.82,4.829,7.966c-0.605,0.11-1.238,0.496-1.898,1.156c-1.211-1.486-2.229-3.026-3.054-4.623
				c-0.771-1.651-1.362-3.494-1.775-5.531c-0.412-2.036-0.813-4.623-1.197-7.76c0.661,0.056,1.293,0.056,1.899,0
				C468.154,608.287,468.553,611.217,469.351,614.381z"/>
			<path fill="#FFFFFF" d="M478.762,617.683c1.127-0.467,2.132-1.141,3.013-2.022h-2.394c-0.881,0-1.706,0.028-2.477,0.083v-1.321
				c0.99,0.056,1.844,0.083,2.56,0.083h2.972v-1.156h-1.073c-0.881,0-1.816,0.028-2.807,0.083v-1.403
				c1.045,0.055,1.98,0.083,2.807,0.083h1.073v-1.156h-1.073c-1.102,0-2.01,0.028-2.725,0.083v-1.321
				c1.321,0.056,2.229,0.083,2.725,0.083h1.073v-1.321h1.403v1.321h3.384v-1.321h1.403v1.321h0.991c1.155,0,2.229-0.027,3.219-0.083
				v1.321c-0.99-0.054-1.954-0.083-2.889-0.083h-1.321v1.156h1.238c0.165,0,0.398-0.013,0.702-0.042
				c0.302-0.027,0.921-0.041,1.857-0.041v1.403c-0.937-0.054-1.542-0.083-1.816-0.083h-1.981v1.156h6.026v1.238
				c-1.046-0.054-1.733-0.083-2.063-0.083h-3.385c0.66,0.771,1.472,1.376,2.436,1.816c0.962,0.441,2.132,0.743,3.508,0.908
				c-0.275,0.496-0.551,1.073-0.825,1.734c-1.541-0.496-2.779-1.045-3.715-1.651v0.826h-4.127v2.724
				c0,1.045-0.248,1.637-0.743,1.775c-0.495,0.137-1.267,0.26-2.312,0.372c-0.111-0.496-0.248-1.073-0.413-1.734
				c0.715,0.054,1.238,0.054,1.568,0c0.331-0.055,0.496-0.303,0.496-0.743v-2.394h-2.89c-0.716,0-1.349,0.028-1.898,0.083v-1.073
				c-1.102,0.606-2.202,1.184-3.302,1.734c-0.386-0.55-0.771-1.045-1.156-1.486C476.657,618.44,477.633,618.151,478.762,617.683z
				 M487.141,606.663h7.595c-0.056,0.66-0.083,1.238-0.083,1.733s0.027,1.019,0.083,1.568h-1.568v-1.981h-14.694v2.063h-1.568
				c0.055-0.605,0.083-1.183,0.083-1.733c0-0.605-0.028-1.156-0.083-1.651h8.255c-0.11-0.496-0.303-1.073-0.578-1.733l1.816-0.331
				C486.617,605.315,486.864,606.002,487.141,606.663z M481.609,620.036c0.496,0.441,0.936,0.854,1.321,1.238
				c-1.211,0.716-2.753,1.678-4.623,2.89c-0.386-0.441-0.743-0.881-1.073-1.321C479.16,621.963,480.619,621.026,481.609,620.036z
				 M485.077,618.22c0-0.549-0.028-1.127-0.083-1.733h1.568c-0.056,0.606-0.082,1.184-0.082,1.733h3.714
				c-1.101-0.77-1.927-1.623-2.476-2.559h-4.045c-0.771,0.937-1.816,1.789-3.138,2.559H485.077z M487.223,612.111v-1.156h-3.384
				v1.156H487.223z M487.223,614.505v-1.156h-3.384v1.156H487.223z M493.332,622.43c-0.33,0.44-0.689,0.935-1.073,1.486
				c-1.432-1.102-2.918-1.981-4.458-2.642c0.22-0.384,0.495-0.797,0.825-1.238C490.497,620.972,492.065,621.77,493.332,622.43z"/>
		</g>
	</g>
	<g>
		<rect x="422.785" y="546.47" opacity="0" fill="none" stroke="#000000" stroke-width="0.9449" width="122.021" height="93.53"/>
		<g opacity="0">
			<text transform="matrix(1 0 0 1 519.2246 629.9746)" fill="#040000" font-family="'ArialMT'" font-size="15">6</text>
		</g>
	</g>
</g>
<g>
	<g>
		<path fill="#FFFFFF" stroke="#E60012" stroke-width="1.6831" d="M544.807,370.165c0,4.251-3.449,7.693-7.695,7.693
			c-4.251,0-7.696-3.442-7.696-7.693c0-4.247,3.445-7.696,7.696-7.696C541.357,362.469,544.807,365.917,544.807,370.165z"/>
		<rect x="484.531" y="380.99" fill="#E60012" width="66.659" height="27.763"/>
		<g>
			<g>
				<path fill="#FFFFFF" d="M506.053,393.758c-0.736-0.052-1.418-0.079-2.049-0.079v4.647c0.997-0.315,1.891-0.63,2.679-0.945
					c-0.053,0.578-0.079,1.077-0.079,1.497c-1.103,0.315-2.18,0.696-3.229,1.142c-1.051,0.447-1.996,0.854-2.835,1.221
					c-0.264-0.473-0.552-0.997-0.867-1.575c0.735-0.158,1.733-0.445,2.993-0.867v-5.12c-0.735,0-1.471,0.027-2.205,0.079v-1.418
					c0.787,0.053,1.522,0.079,2.205,0.079v-4.411c-0.945,0-1.785,0.027-2.521,0.079v-1.417c0.735,0.053,1.339,0.079,1.812,0.079
					h2.521c0.578,0,1.313-0.026,2.206-0.079v1.417c-0.894-0.051-1.786-0.079-2.679-0.079v4.411c0.631,0,1.313-0.026,2.049-0.079
					V393.758z M506.21,392.498c0.524-0.367,1.089-0.853,1.693-1.457c0.604-0.603,1.207-1.352,1.812-2.245
					c0.604-0.892,1.221-2.206,1.852-3.938c0.734,0.264,1.312,0.473,1.732,0.63l-0.473,0.63c0.524,1.261,1.339,2.495,2.442,3.702
					c1.103,1.209,2.205,2.127,3.308,2.757c-0.473,0.421-0.894,0.894-1.26,1.418c-1.313-1.05-2.402-2.152-3.27-3.308
					c-0.866-1.154-1.51-2.179-1.93-3.072c-0.421,0.841-0.998,1.76-1.732,2.757c-0.736,0.998-1.76,2.101-3.072,3.308
					C506.892,393.155,506.525,392.761,506.21,392.498z M509.203,396.2c-0.736,0-1.471,0.027-2.205,0.079v-1.497
					c0.734,0.053,1.469,0.079,2.205,0.079h7.955v1.181c-0.472,0.264-1.051,0.775-1.732,1.536c-0.683,0.762-1.523,1.772-2.521,3.033
					c0.524,0.473,1.129,1.05,1.812,1.733c-0.368,0.315-0.788,0.709-1.26,1.182c-0.894-1.051-1.733-1.93-2.521-2.639
					c-0.787-0.708-1.471-1.325-2.048-1.851c0.263-0.262,0.577-0.63,0.945-1.103c0.788,0.683,1.47,1.288,2.048,1.812
					c0.631-0.63,1.576-1.812,2.836-3.544H509.203z M513.851,393.364c-0.473,0.315-0.92,0.683-1.339,1.103
					c-0.421-0.788-1.13-1.706-2.127-2.757c0.42-0.315,0.813-0.656,1.182-1.024C511.828,391.001,512.59,391.895,513.851,393.364z"/>
				<path fill="#FFFFFF" d="M524.642,387.063c0.631,0,1.261-0.026,1.891-0.079v1.418c-0.683-0.052-1.313-0.079-1.891-0.079h-0.63
					v4.017c0.682,0,1.391-0.025,2.127-0.079v1.418c-0.736-0.052-1.445-0.079-2.127-0.079v4.726c0.997-0.315,1.812-0.63,2.442-0.945
					c0.052,0.421,0.13,0.84,0.236,1.26c-0.945,0.315-2.022,0.709-3.229,1.182c-1.209,0.473-2.154,0.894-2.836,1.26
					c-0.211-0.473-0.473-0.997-0.788-1.576c0.735-0.104,1.627-0.367,2.679-0.788v-5.12c-0.894,0-1.707,0.027-2.442,0.079v-1.418
					c0.788,0.053,1.602,0.079,2.442,0.079v-4.017h-0.867c-0.473,0-1.076,0.027-1.812,0.079v-1.418
					c0.735,0.053,1.339,0.079,1.812,0.079H524.642z M536.143,395.845c-0.736,1.077-1.55,2.166-2.442,3.269v1.575
					c0.052,0.577,0.367,0.867,0.945,0.867h1.261c0.523,0,0.839-0.132,0.945-0.394c0.104-0.262,0.183-0.866,0.235-1.812
					c0.473,0.315,1.024,0.525,1.654,0.63c-0.21,1.103-0.446,1.837-0.709,2.206c-0.263,0.367-0.787,0.551-1.575,0.551h-2.363
					c-1.26,0.052-1.89-0.394-1.89-1.339v-1.103c-0.631,0.578-1.261,1.103-1.891,1.575c-0.368-0.421-0.814-0.788-1.339-1.103
					c1.312-0.63,2.389-1.391,3.229-2.284v-7.956h-0.788c-0.053,1.786-0.197,3.322-0.434,4.608c-0.236,1.288-0.708,2.548-1.417,3.781
					c-0.709,1.235-1.747,2.533-3.111,3.899c-0.421-0.368-0.973-0.736-1.654-1.103c1.103-0.735,2.048-1.615,2.835-2.639
					c0.788-1.024,1.352-2.192,1.694-3.505c0.341-1.312,0.537-2.993,0.591-5.041c-0.999,0-1.918,0.027-2.757,0.079v-1.339
					c0.839,0.053,1.784,0.079,2.835,0.079c0-1.733-0.027-3.15-0.078-4.253c0.577,0.053,1.154,0.079,1.732,0.079
					c-0.105,0.315-0.157,1.707-0.157,4.174h4.096c1.103,0,2.074-0.025,2.914-0.079v1.339c-0.84-0.052-1.785-0.079-2.835-0.079h-1.97
					v6.538c0.524-0.682,0.984-1.391,1.379-2.127c0.394-0.735,0.748-1.47,1.063-2.206c0.523,0.263,1.103,0.5,1.732,0.709
					C537.454,393.968,536.877,394.77,536.143,395.845z M535.315,386.433c0.341,0.263,0.748,0.578,1.221,0.945
					c-0.421,0.368-0.788,0.736-1.103,1.103c-0.368-0.315-0.736-0.643-1.104-0.985c-0.367-0.341-0.787-0.642-1.26-0.906
					c0.366-0.367,0.709-0.734,1.023-1.103C534.566,385.855,534.973,386.17,535.315,386.433z"/>
			</g>
		</g>
		<polygon fill="#00A0E9" points="559.587,350.753 540.886,343.32 540.886,342.969 539.109,342.969 539.109,373.302 
			540.886,373.302 540.886,358.929 		"/>
	</g>
	<g opacity="0">
		<rect x="451.507" y="335.173" fill="none" stroke="#000000" stroke-width="0.9334" width="134.825" height="82.603"/>
		<g>
			<text transform="matrix(1 0 0 1 567.0127 373.9575)" fill="#040000" font-family="'ArialMT'" font-size="15">5</text>
		</g>
	</g>
</g>
<g>
	<g>
		<g>
			<rect x="416.674" y="342.323" fill="#E60012" width="68.819" height="28.66"/>
			<g>
				<g>
					<path fill="#FFFFFF" d="M439.771,348.832c-0.028,0.732-0.096,1.695-0.204,2.887h6.587c0.977,0,1.952-0.053,2.928-0.163v1.626
						c-0.976-0.054-1.951-0.082-2.928-0.082h-3.984v7.4c0.65-0.758,1.301-1.612,1.952-2.562c0.65-0.948,1.165-1.911,1.545-2.887
						c0.704,0.325,1.382,0.597,2.032,0.813c-0.76,0.76-1.518,1.735-2.276,2.927c-0.76,1.193-1.817,2.386-3.172,3.578
						c-0.055,0.922,0.013,1.409,0.204,1.464c0.188,0.053,0.5,0.108,0.935,0.163h2.603c0.65-0.055,1.11-0.109,1.382-0.163
						c0.271-0.055,0.515-0.759,0.732-2.114c0.541,0.542,1.165,0.868,1.87,0.976c-0.543,1.192-0.949,1.924-1.22,2.196
						c-0.271,0.271-0.731,0.406-1.383,0.406h-4.798c-0.867,0-1.41-0.122-1.626-0.366c-0.217-0.244-0.325-0.746-0.325-1.504
						c-0.325,0.271-0.827,0.596-1.505,0.976c-0.678,0.379-1.26,0.704-1.748,0.976c-0.162-0.325-0.569-0.76-1.22-1.301
						c0.759-0.272,1.572-0.65,2.439-1.138c0.867-0.488,1.545-0.948,2.033-1.383v-8.457h-1.139c-0.271,1.573-0.569,2.846-0.895,3.822
						c-0.325,0.976-0.731,1.911-1.22,2.805c-0.487,0.895-1.111,1.789-1.87,2.684c-0.76,0.895-1.817,1.911-3.172,3.049
						c0-0.325-0.516-0.786-1.545-1.382c0.922-0.488,1.775-1.125,2.562-1.911c0.785-0.786,1.49-1.639,2.114-2.562
						c0.623-0.921,1.125-1.924,1.505-3.009c0.379-1.083,0.65-2.249,0.813-3.497h-3.171c-0.976,0-1.979,0.028-3.009,0.082v-1.545
						c1.084,0.054,2.086,0.081,3.009,0.081h3.415c0.054-0.65,0.095-1.436,0.122-2.358c0.027-0.921-0.014-1.87-0.122-2.846
						c1.139,0.272,1.871,0.435,2.196,0.488C439.945,347.49,439.797,348.1,439.771,348.832z M444.934,351.149
						c-0.542-0.813-1.274-1.708-2.195-2.684c0.379-0.271,0.785-0.623,1.22-1.057c0.704,0.651,1.464,1.519,2.277,2.603
						C445.963,350.228,445.53,350.608,444.934,351.149z"/>
					<path fill="#FFFFFF" d="M461.848,348.384h4.473c0.976,0,1.87-0.027,2.684-0.082v1.464c-0.813-0.053-1.681-0.081-2.603-0.081
						h-4.554v1.22h3.903c0.704,0,1.464-0.027,2.277-0.082v1.464c-0.813-0.053-1.573-0.082-2.277-0.082h-3.903v1.139h5.448
						c1.029,0,1.979-0.027,2.847-0.082v1.464c-0.813-0.053-1.763-0.081-2.847-0.081H454.61c-0.867,0-1.735,0.028-2.602,0.081v-1.464
						c0.921,0.055,1.789,0.082,2.602,0.082h5.611v-1.139h-3.741c-0.867,0-1.681,0.028-2.439,0.082v-1.464
						c0.759,0.055,1.572,0.082,2.439,0.082h3.741v-1.22h-4.636c-0.922,0-1.762,0.028-2.521,0.081v-1.464
						c0.866,0.055,1.708,0.082,2.521,0.082h4.636c0-0.65-0.028-1.22-0.081-1.708h1.789
						C461.875,347.219,461.848,347.788,461.848,348.384z M465.914,363.713c0.216-0.135,0.297-0.529,0.244-1.179h-9.921v3.009h-1.545
						c0.053-0.868,0.081-1.979,0.081-3.334v-3.171c0-1.192-0.028-2.277-0.081-3.253h13.092c-0.109,1.03-0.162,2.142-0.162,3.334
						v4.635c0,0.65-0.218,1.084-0.651,1.301c-0.435,0.216-1.166,0.406-2.195,0.569c-0.109-0.543-0.406-1.112-0.895-1.708
						C465.02,363.916,465.696,363.848,465.914,363.713z M466.158,358.549v-1.463h-9.921v1.463H466.158z M466.158,361.232v-1.382
						h-9.921v1.382H466.158z"/>
				</g>
			</g>
		</g>
		<g>
			<circle fill="#FFFFFF" stroke="#E60012" stroke-width="1.7376" cx="494.682" cy="336.807" r="7.943"/>
			<polygon fill="#00A0E9" points="516.554,313.263 497.242,305.588 497.242,305.224 495.414,305.224 495.414,336.543 
				497.242,336.543 497.242,321.702 			"/>
		</g>
	</g>
	<g opacity="0">
		<rect x="408.124" y="294.18" fill="none" stroke="#000000" stroke-width="0.8465" width="111.713" height="81.986"/>
		<g>
			<text transform="matrix(1 0 0 1 440.0127 329.4575)" fill="#040000" font-family="'ArialMT'" font-size="15">4</text>
		</g>
	</g>
</g>
<g>
	<g>
		<path fill="#FFFFFF" stroke="#E60012" stroke-width="1.6876" d="M290.373,349.46c0,4.263-3.454,7.714-7.719,7.714
			c-4.258,0-7.708-3.451-7.708-7.714c0-4.261,3.45-7.716,7.708-7.716C286.919,341.744,290.373,345.199,290.373,349.46z"/>
		<g>
			<rect x="294.194" y="347.608" fill="#E60012" width="66.839" height="27.836"/>
			<g>
				<g>
					<path fill="#FFFFFF" d="M323.371,362.475h2.211c1.105,0,2.053-0.026,2.843-0.079v1.185c-0.738-0.052-1.659-0.079-2.764-0.079
						h-12.163c-1.475,0-2.58,0.027-3.317,0.079v-1.185c0.737,0.053,1.868,0.079,3.396,0.079h1.343
						c-0.158-0.316-0.395-0.684-0.711-1.106l1.421-0.632c0.368,0.58,0.711,1.159,1.027,1.738h5.134
						c0.368-0.579,0.684-1.158,0.948-1.738c0.525,0.158,1.053,0.343,1.58,0.553C324.003,361.659,323.687,362.054,323.371,362.475z
						 M315.315,368.24c1.264,0.158,1.921,0.065,1.975-0.276c0.052-0.342,0.079-0.96,0.079-1.856h-2.211
						c-0.369,0.843-0.817,1.58-1.343,2.211c-0.527,0.632-1.185,1.211-1.975,1.738c-0.316-0.316-0.685-0.659-1.105-1.027
						c0.895-0.527,1.566-1.027,2.014-1.5c0.446-0.474,0.776-0.948,0.987-1.422h-0.474c-0.685,0-1.37,0.027-2.054,0.079v-1.343
						c0.684,0.053,1.369,0.079,2.054,0.079h0.79c0.052-0.316,0.052-0.763,0-1.343c0.474,0.106,1.027,0.211,1.659,0.316
						c-0.106,0.369-0.211,0.711-0.316,1.027h3.475c-0.106,0.422-0.171,0.922-0.197,1.5c-0.027,0.58-0.053,1.212-0.079,1.896
						c-0.027,0.684-0.304,1.079-0.829,1.185c-0.527,0.105-1.185,0.21-1.975,0.316C315.736,369.451,315.578,368.924,315.315,368.24z
						 M318.396,353.076c0-0.263-0.027-0.684-0.079-1.264h1.659c-0.053,0.58-0.079,1-0.079,1.264h4.818
						c0.736,0,1.552-0.026,2.448-0.079v1.185c-0.843-0.052-1.659-0.079-2.448-0.079h-4.818v1.264h3.475
						c1.053,0,2.026-0.026,2.922-0.079v1.185h-14.138v-1.185c0.737,0.053,1.553,0.079,2.449,0.079h3.791v-1.264h-4.976
						c-0.422,0-1.133,0.027-2.132,0.079v-1.185c0.948,0.053,1.659,0.079,2.132,0.079H318.396z M325.503,360.658h-12.716v-3.396
						h12.716V360.658z M324.082,359.631v-1.264h-9.793v1.264H324.082z M325.424,369.425v-0.711h-4.107v0.948h-1.421
						c0.052-1.001,0.079-1.842,0.079-2.527c0-0.684-0.027-1.5-0.079-2.448h6.871c-0.053,0.843-0.079,1.659-0.079,2.448
						c0,0.79,0.026,1.552,0.079,2.291H325.424z M325.424,367.529v-1.659h-4.107v1.659H325.424z"/>
					<path fill="#FFFFFF" d="M331.822,369.898c-0.58-0.316-1.08-0.553-1.5-0.711c0.421-0.58,0.948-1.71,1.58-3.396
						c0.526,0.211,1.027,0.395,1.5,0.553C332.77,367.924,332.243,369.109,331.822,369.898z M340.194,353.55h5.528
						c0.579,0,1.369-0.026,2.369-0.079v1.264c-0.79-0.052-1.553-0.079-2.29-0.079h-5.607v1.264h6.239
						c-0.053,0.79-0.093,1.725-0.119,2.804c-0.027,1.08,0.012,2.067,0.119,2.961h-1.422c0.263,0.264,1.237,1.027,2.922,2.291
						c-0.369,0.264-0.79,0.606-1.264,1.027c-0.474-0.368-0.922-0.737-1.343-1.106c-1,0.053-2.804,0.132-5.41,0.237
						c-2.606,0.106-5.305,0.316-8.095,0.632c-0.211-0.526-0.369-1.079-0.474-1.659c1.21,0,2.381-0.012,3.515-0.04
						c1.131-0.026,2.409-0.04,3.83-0.04v-1.343h-5.687c0.052-1.421,0.079-2.421,0.079-3.001c0-0.579-0.027-1.5-0.079-2.764h5.687
						v-1.264h-4.581c-1.159,0-2.239,0.053-3.238,0.158v-1.343c1,0.053,2.054,0.079,3.159,0.079h4.66
						c0-0.525-0.027-1.131-0.079-1.816h1.658C340.22,352.471,340.194,353.076,340.194,353.55z M338.693,358.209v-1.185h-4.107v1.185
						H338.693z M338.693,360.579v-1.264h-4.107v1.264H338.693z M336.403,366.897c0,0.422,0.026,0.829,0.079,1.224
						c0.052,0.395,0.447,0.592,1.185,0.592h3.791c0.525,0,0.869-0.119,1.026-0.355c0.158-0.237,0.316-0.723,0.474-1.461
						c0.474,0.316,1.027,0.553,1.659,0.711c-0.316,1.105-0.62,1.75-0.909,1.935c-0.29,0.184-0.645,0.276-1.066,0.276h-6.082
						c-0.948,0-1.461-0.237-1.54-0.71c-0.079-0.474-0.119-1.027-0.119-1.659c0-0.684-0.027-1.343-0.079-1.975h1.658
						C336.429,366.002,336.403,366.477,336.403,366.897z M341.142,366.977l-1.422,0.71c-0.264-0.368-0.764-1.079-1.5-2.132
						c0.368-0.263,0.763-0.526,1.185-0.79C340.194,365.766,340.772,366.502,341.142,366.977z M344.774,358.209v-1.185h-4.581v1.185
						H344.774z M344.774,360.579v-1.264h-4.581v1.264H344.774z M344.301,362.87l-0.553-0.395l0.79-0.79h-4.344v1.343
						C341.193,362.976,342.563,362.922,344.301,362.87z M348.723,368.161c-0.527,0.316-1,0.632-1.421,0.948
						c-0.474-0.79-1.343-1.816-2.606-3.08c0.316-0.263,0.711-0.579,1.185-0.948C347.407,366.661,348.354,367.687,348.723,368.161z"
						/>
				</g>
			</g>
			<polygon fill="#74C6BE" stroke="#000000" stroke-width="3.3753" points="303.021,327.311 284.267,319.855 284.267,319.502 
				282.486,319.502 282.486,349.915 284.267,349.915 284.267,335.507 			"/>
		</g>
	</g>
	<g opacity="0">
		<rect x="267.644" y="296.361" fill="none" stroke="#000000" stroke-width="0.8465" width="111.713" height="81.986"/>
		<g>
			<text transform="matrix(1 0 0 1 336.9893 337.666)" fill="#040000" font-family="'ArialMT'" font-size="15">3</text>
		</g>
	</g>
</g>
<g>
	<g>
		<path fill="#FFFFFF" stroke="#E60012" stroke-width="1.6798" d="M207.454,362.144c0,4.239-3.437,7.682-7.677,7.682
			c-4.243,0-7.679-3.443-7.679-7.682c0-4.242,3.436-7.68,7.679-7.68C204.017,354.464,207.454,357.901,207.454,362.144z"/>
		<rect x="195.093" y="372.789" fill="#E60012" width="66.525" height="27.709"/>
		<g>
			<g>
				<path fill="#FFFFFF" d="M213.746,385.423c-0.472,0.524-0.839,1.022-1.101,1.494c-0.996-0.838-2.123-1.598-3.38-2.28
					c0.314-0.419,0.602-0.891,0.865-1.415C211.439,384.008,212.646,384.742,213.746,385.423z M212.803,392.498
					c-0.629,1.415-1.127,2.567-1.494,3.459c-0.472-0.42-1.101-0.813-1.887-1.179c0.472-0.524,1.062-1.467,1.769-2.83
					c0.708-1.362,1.27-2.646,1.69-3.852c0.576,0.42,1.126,0.76,1.651,1.022C214.008,389.957,213.432,391.083,212.803,392.498z
					 M214.296,380.942c-0.577,0.472-1.049,0.892-1.415,1.258c-0.786-0.943-1.729-1.86-2.83-2.752
					c0.366-0.314,0.733-0.68,1.101-1.101C212.2,379.133,213.248,379.999,214.296,380.942z M225.696,379.526
					c0.68,0,1.415-0.025,2.201-0.079v1.573c-0.997-0.052-1.783-0.079-2.358-0.079v13.286c0,0.786-0.263,1.297-0.786,1.533
					c-0.525,0.236-1.336,0.432-2.438,0.589c-0.053-0.524-0.341-1.127-0.865-1.808c1.152,0.052,1.887,0.04,2.202-0.039
					s0.472-0.38,0.472-0.904v-12.657h-6.132c-0.839,0-1.782,0.027-2.83,0.079v-1.573c1.048,0.053,1.991,0.079,2.83,0.079H225.696z
					 M221.765,387.938c0,2.044,0.026,3.354,0.079,3.931h-1.572v-1.258h-2.83v2.28h-1.572c0.104-0.629,0.157-2.148,0.157-4.56
					c0-2.463-0.027-4.114-0.079-4.953h5.896C221.791,384.375,221.765,385.895,221.765,387.938z M220.271,389.196v-4.402h-2.83v4.402
					H220.271z"/>
				<path fill="#FFFFFF" d="M232.182,393.245c-0.656,1.126-1.114,2.005-1.376,2.634c-0.524-0.577-1.049-1.022-1.572-1.336
					c0.786-0.838,1.533-1.873,2.241-3.105c0.708-1.23,1.191-2.24,1.454-3.026c0.472,0.577,0.943,0.996,1.415,1.258
					C233.557,390.926,232.836,392.119,232.182,393.245z M233.95,385.501c-0.472,0.472-0.865,0.943-1.179,1.415
					c-0.786-0.943-1.782-1.781-2.987-2.516c0.419-0.366,0.786-0.812,1.101-1.336C231.985,383.903,233.007,384.715,233.95,385.501z
					 M230.806,379.684c0.419-0.472,0.759-0.916,1.022-1.336c0.891,0.735,1.834,1.573,2.83,2.516
					c-0.42,0.367-0.813,0.813-1.179,1.336C232.535,381.152,231.644,380.313,230.806,379.684z M244.957,383.693
					c-1.154,0.157-2.241,0.289-3.263,0.393c-1.022,0.105-2.136,0.21-3.341,0.314v1.808h4.875c1.101,0,2.095-0.026,2.987-0.079v1.415
					c-0.839-0.052-1.6-0.079-2.28-0.079v2.909h1.179c0.89,0,1.755-0.026,2.594-0.079v1.494c-0.839-0.052-1.704-0.079-2.594-0.079
					h-7.94c-0.996,0-1.887,0.027-2.673,0.079v-1.494c0.786,0.053,1.545,0.079,2.28,0.079v-3.616c0-1.415-0.027-2.542-0.079-3.38
					c1.415-0.104,2.777-0.275,4.088-0.511c1.31-0.236,2.359-0.563,3.145-0.982C244.196,382.567,244.536,383.17,244.957,383.693z
					 M237.881,394.463c-0.524,0.419-1.285,1.048-2.28,1.887c-0.367-0.472-0.734-0.865-1.101-1.179
					c1.415-0.839,2.594-1.913,3.538-3.223c0.419,0.524,0.865,0.943,1.336,1.258C238.903,393.625,238.404,394.044,237.881,394.463z
					 M242.283,379.762h4.953c-0.053,0.787-0.079,1.39-0.079,1.809c0,0.367,0.025,0.865,0.079,1.494h-1.572v-1.965h-8.884v2.044
					h-1.572c0.052-0.523,0.079-1.048,0.079-1.572c0-0.576-0.027-1.179-0.079-1.809h5.188c-0.105-0.523-0.341-1.073-0.708-1.651
					c0.629-0.157,1.179-0.314,1.651-0.472C241.706,378.322,242.021,379.029,242.283,379.762z M242.44,390.375v-2.909h-4.088v2.909
					H242.44z M247.236,395.171c-0.472,0.262-0.892,0.629-1.258,1.101c-1.258-1.363-2.386-2.41-3.381-3.145
					c0.314-0.314,0.681-0.708,1.101-1.179C245.218,393.206,246.397,394.279,247.236,395.171z"/>
			</g>
		</g>
		<polygon fill="#1D2088" points="218.01,340.351 199.343,332.932 199.343,332.581 197.57,332.581 197.57,362.856 199.343,362.856 
			199.343,348.511 		"/>
	</g>
	<g>
		<rect x="167.601" y="327.867" opacity="0" fill="none" stroke="#000000" stroke-width="0.8049" width="101" height="81.986"/>
		<g opacity="0">
			<text transform="matrix(1 0 0 1 236.4893 368.29)" fill="#040000" font-family="'ArialMT'" font-size="15">2</text>
		</g>
	</g>
</g>
<g>
	<g>
		<path fill="#FFFFFF" stroke="#E60012" stroke-width="1.5793" d="M78.146,381.241c0,3.992-3.233,7.222-7.218,7.222
			c-3.989,0-7.221-3.229-7.221-7.222c0-3.985,3.232-7.218,7.221-7.218C74.913,374.023,78.146,377.256,78.146,381.241z"/>
		<g>
			<rect x="40.68" y="391.722" fill="#E60012" width="62.546" height="26.054"/>
			<g>
				<g>
					<path fill="#FFFFFF" d="M56.479,398.504c-0.321,0.543-0.628,1.061-0.924,1.552h2.365c0.739,0,1.601-0.024,2.586-0.074v1.404
						c-0.937-0.049-1.799-0.074-2.586-0.074h-4.139v3.178h3.104c0.689,0,1.479-0.024,2.365-0.074v1.33
						c-0.887-0.048-1.676-0.074-2.365-0.074h-3.104v2.735h5.1c0.739,0,1.601-0.024,2.587-0.074v1.404
						c-0.986-0.048-1.848-0.074-2.587-0.074h-5.1v1.626c0,0.739,0.024,1.65,0.074,2.735h-1.7c0.048-1.084,0.074-1.996,0.074-2.735
						v-1.626h-5.248c-0.739,0-1.602,0.025-2.587,0.074v-1.404c1.035,0.05,1.896,0.074,2.587,0.074h5.248v-2.735h-3.326
						c-0.691,0-1.528,0.025-2.513,0.074v-1.33c0.985,0.05,1.822,0.074,2.513,0.074h3.326v-3.178H48.09
						c-0.887,0-1.824,0.025-2.809,0.074v-1.404c0.985,0.049,1.896,0.074,2.734,0.074h6.061c0.295-0.64,0.578-1.219,0.85-1.737
						c0.271-0.518,0.505-1.096,0.702-1.737c0.64,0.247,1.281,0.469,1.922,0.665C57.156,397.543,56.799,397.962,56.479,398.504z
						 M51.194,399.169l-1.478,0.739c-0.591-1.33-1.084-2.192-1.479-2.586c0.492-0.197,0.961-0.444,1.404-0.739
						C50.381,397.765,50.899,398.628,51.194,399.169z"/>
					<path fill="#FFFFFF" d="M67.233,403.53c-0.05,0.838-0.074,1.602-0.074,2.292v4.287c1.231,1.232,3.375,1.897,6.43,1.996
						c3.055,0.098,5.444,0.048,7.169-0.148c-0.493,0.394-0.765,0.985-0.813,1.774c-1.578,0-3.129-0.025-4.656-0.074
						c-1.528-0.05-2.932-0.185-4.213-0.407c-1.282-0.222-2.341-0.678-3.178-1.367c-0.838-0.689-1.491-0.788-1.958-0.296
						c-0.469,0.493-0.924,1.207-1.367,2.144c-0.444-0.443-0.937-0.838-1.479-1.183c1.281-0.985,2.144-1.749,2.587-2.291v-5.396
						c-0.887,0-1.75,0.025-2.587,0.074v-1.478c0.985,0.05,1.896,0.074,2.735,0.074H67.233z M67.455,400.574
						c-0.493,0.147-1.011,0.37-1.552,0.665c-0.049-0.492-0.567-1.674-1.552-3.548c0.542-0.196,1.035-0.394,1.478-0.591
						C66.715,398.825,67.257,399.982,67.455,400.574z M72.554,396.583c0.739,0.148,1.355,0.222,1.848,0.222
						c-0.147,0.69-0.247,1.897-0.295,3.622h5.248c-0.148,0.838-0.247,1.676-0.295,2.513l-0.37,5.765
						c-0.05,0.838-0.48,1.367-1.293,1.589c-0.813,0.222-1.565,0.432-2.254,0.628c-0.05-0.64-0.295-1.281-0.739-1.921
						c1.183-0.049,1.959-0.135,2.329-0.259c0.369-0.123,0.578-0.431,0.628-0.924l0.37-6.061h-3.695
						c-0.198,1.971-0.591,3.61-1.183,4.915c-0.591,1.306-1.479,2.624-2.661,3.954c-0.444-0.444-0.986-0.837-1.626-1.183
						c1.083-0.739,1.983-1.761,2.698-3.067c0.714-1.305,1.146-2.846,1.293-4.619c-1.183,0-2.316,0.049-3.4,0.147v-1.552
						c0.887,0.049,2.044,0.074,3.474,0.074C72.628,398.85,72.603,397.569,72.554,396.583z"/>
					<path fill="#FFFFFF" d="M84.787,410.145c-0.813,0.271-1.541,0.604-2.181,0.998c-0.197-0.64-0.395-1.207-0.591-1.7
						c0.492,0,1.207-0.148,2.144-0.443v-5.987c-0.69,0-1.331,0.025-1.922,0.074v-1.33c0.591,0.049,1.231,0.074,1.922,0.074v-2.661
						c0-0.542-0.025-1.183-0.074-1.922h1.478c-0.05,0.641-0.074,1.282-0.074,1.922v2.661c0.591,0,1.182-0.024,1.773-0.074v1.33
						c-0.591-0.048-1.183-0.074-1.773-0.074v5.543c0.542-0.098,1.133-0.27,1.773-0.517c-0.049,0.493-0.074,0.937-0.074,1.33
						C86.4,409.616,85.6,409.875,84.787,410.145z M98.423,403.456c-0.247,0.69-0.456,1.43-0.628,2.217
						c-0.173,0.789-0.395,1.602-0.665,2.439c-0.271,0.838-0.53,1.479-0.776,1.922c0.492,0.887,0.911,1.43,1.256,1.626
						c0.344,0.197,0.591-0.344,0.739-1.626c0.444,0.443,0.887,0.764,1.331,0.96c-0.197,0.839-0.456,1.552-0.776,2.144
						c-0.321,0.591-0.715,0.763-1.183,0.518c-0.469-0.247-0.9-0.604-1.293-1.072c-0.395-0.469-0.739-0.948-1.035-1.441
						c-0.395,0.493-0.85,0.985-1.368,1.479c-0.517,0.492-1.097,0.935-1.737,1.33c-0.345-0.493-0.739-0.887-1.183-1.183
						c0.788-0.395,1.466-0.824,2.033-1.293c0.566-0.467,1.072-1.022,1.515-1.663c-0.443-1.183-0.765-2.599-0.961-4.25
						c-0.197-1.65-0.321-3.091-0.37-4.324h-3.843v2.661h3.178c-0.05,0.691-0.074,1.479-0.074,2.365l-0.074,3.03
						c0,0.887-0.234,1.467-0.702,1.737c-0.469,0.271-1.071,0.48-1.811,0.628c-0.099-0.64-0.271-1.207-0.518-1.7
						c0.837,0,1.342-0.074,1.515-0.222c0.172-0.147,0.259-0.418,0.259-0.813l0.074-3.77h-1.848c0,0.739-0.037,1.565-0.111,2.476
						c-0.074,0.913-0.321,1.873-0.739,2.883c-0.419,1.01-1.097,2.057-2.033,3.141c-0.345-0.296-0.813-0.567-1.404-0.813
						c0.985-0.985,1.688-1.946,2.106-2.883c0.418-0.935,0.665-1.835,0.739-2.698c0.074-0.861,0.111-2.007,0.111-3.437
						c0-1.478-0.025-2.759-0.074-3.843h5.174c0-0.936-0.05-2.044-0.148-3.326c0.542,0.1,1.083,0.148,1.626,0.148
						c-0.147,0.838-0.197,1.897-0.147,3.178h1.108c1.083,0,2.144-0.024,3.178-0.074v1.404c-1.035-0.048-2.095-0.074-3.178-0.074
						h-1.035c0.048,1.084,0.135,2.243,0.259,3.474c0.123,1.232,0.357,2.489,0.702,3.77c0.295-0.739,0.542-1.601,0.739-2.587
						c0.196-0.985,0.344-1.996,0.443-3.03C97.24,403.063,97.782,403.26,98.423,403.456z M98.423,398.948
						c-0.543,0.247-0.961,0.517-1.256,0.813c-0.444-0.788-0.961-1.552-1.552-2.292c0.394-0.196,0.788-0.443,1.183-0.739
						C97.536,397.617,98.078,398.356,98.423,398.948z"/>
				</g>
			</g>
		</g>
		<polygon fill="#1D2088" points="88.041,362.817 70.491,355.841 70.491,355.512 68.824,355.512 68.824,383.975 70.491,383.975 
			70.491,370.492 		"/>
	</g>
	<g opacity="0">
		<rect x="25" y="346.514" fill="none" stroke="#000000" stroke-width="0.8049" width="101" height="81.986"/>
		<g>
			<text transform="matrix(1 0 0 1 107.9893 385.8833)" fill="#040000" font-family="'ArialMT'" font-size="15">1</text>
		</g>
	</g>
</g>  
</svg>