<svg version="1.0" id="图层_1" xmlns="http://www.w3.org/2000/svg" xmlns:xlink="http://www.w3.org/1999/xlink" x="0px" y="0px" 
	width="100%" height="100%" viewBox="0 0 720 1280" xml:space="preserve"
  style="position: relative;display: block;"
  >
<g>
	<path opacity="0.6" fill="#FFFFFF" stroke="#00A0E9" stroke-width="5.6497" d="M620.524,175.072
		c-0.563,2.824-3.945,9.034-5.634,10.728c-1.692,1.693-6.763,5.652-11.835,6.211c-5.073,0.567-16.905-0.56-19.722,0
		c-2.818,0.567-14.65,2.26-16.907-3.95c-2.253-6.212-5.635-13.555-5.635-15.248c0-1.694,0.006-10.732-12.395-10.732
		c-12.396,0-10.143,0.641-24.228,3.992c-14.087,3.352-10.142,3.352-20.85,4.482c-10.705,1.128-18.03,2.257-21.41,3.388
		c-3.383,1.129-7.89,1.129-7.89,1.129h-2.091c0.157,4.433-0.502,8.13-2.983,8.753c-6.758,1.695-13.52,8.829-13.52,8.829h-11.834
		h-26.201c0,0-23.664,15.738-26.203,17.43c-2.534,1.697-18.594,22.874-18.594,22.874s-11.831,11.011-15.213,13.552
		c-3.384,2.541-16.905,10.167-21.975,12.706c-5.071,2.542-21.135,23.72-21.135,23.72s-16.054,14.401-16.902,16.942
		c-0.845,2.541-45.217,40.658-45.217,40.658l-15.637,14.402l-9.296,14.401l-5.917,12.349l-12.679,3.744l-9.301,8.476
		c0,0-5.914,14.397-7.602,16.939c-1.694,2.54-3.383,6.777-12.68,14.399c-9.298,7.624-35.5,23.723-35.5,23.723l-30.423,20.329
		l-16.063,16.939l-8.451,12.71c0,0-10.144,11.856-11.834,15.245c-1.69,3.389-18.594,15.25-29.583,17.791
		c-7.908,1.828-32.015,4.533-44.905,5.907l0.673,10.469v14.686c0,0-2.255,14.678-2.255,21.456c0,6.776,3.382,18.071,3.382,18.071
		l9.019,19.2l13.52,6.452l-2.252,12.753l5.636,14.679l7.039,9.039v5.362v7.062l5.856,6.776v13.555l-0.5,13.551
		c0,0,1.125,9.039,0,13.552c-1.126,4.519,0,12.429,0,12.429l-5.356,16.095l4.23,2.541c0,0,5.914,0.849,8.449,1.695
		c2.536,0.848,5.917,2.538,13.522,2.538c7.608,0,16.908,5.93,16.908,5.93l23.665,4.238l19.439,2.54c0,0,23.664,6.777,26.203,4.967
		c2.534-1.804,4.225,1.811,18.59-0.729c14.373-2.542,5.92,2.54,13.527,0c7.607-2.542,13.52-8.473,16.058-11.016
		c2.537-2.541,16.06-12.704,19.439-16.938c3.384-4.238,12.682-13.557,16.06-17.79c3.382-4.235,20.285-19.481,26.203-27.108
		c5.916-7.626,18.594-16.941,20.285-19.485c1.69-2.536,17.749-11.01,23.67-9.314c5.912,1.692,0,0,15.207,4.233
		c15.214,4.237,7.608,4.237,10.146,5.933c2.54,1.692,11.833,2.539,11.833,2.539l32.118-4.234c0,0,0,0,9.297,0
		s16.061,11.859,16.061,11.859s6.761,5.927,10.142,8.47s5.915,2.543,18.594,6.778c12.681,4.237,14.369,6.778,23.668,10.164
		c9.296,3.391,5.071,0,18.591,0c13.524,0,15.218,0,19.445,0c4.224,0,15.211-4.235,21.972-6.778
		c6.764-2.537,17.752-5.926,20.29-7.621c2.53-1.693,13.519-8.47,17.041-12.706c3.524-4.237,13.39-6.778,18.455-10.166
		c5.071-3.388,3.382-4.237,10.144-13.557c6.763-9.314,5.913-6.774,6.763-9.314c0.843-2.543,5.163-12.708,5.163-12.708
		s1.594-9.317,0.866-11.859c-0.731-2.541-1.807-19.483,0.728-27.107c2.539-7.626-2.534-11.858,0-20.33
		c2.539-8.47,7.611-13.551,10.146-17.623c2.534-4.074,3.38-8.637,7.604-12.026c4.229-3.386,10.988-5.928,17.034-8.469
		c6.048-2.54,6.633-6.776,6.633-12.627c0-5.851,0.845-9.399,2.539-11.938c1.687-2.543,10.139-27.106,10.983-30.497
		c0.846-3.389,10.991-10.025,10.991-10.025l15.212-3.46c0,0,14.367,0.78,16.906,0c2.532-0.777,10.139-3.458,10.139-3.458h11.835
		l-6.764-17.787v-11.857l6.764-5.933l-2.536-13.551c0,0-3.381,1.691,0-5.086c3.381-6.775,5.068-0.845,5.915-6.775
		c0.846-5.928,0-11.014,0.846-13.554c0.849-2.543,1.693-9.318,1.693-10.162c0-0.852,0-5.934,0-5.934s0.846,0.134,0-6.286
		c-0.845-6.419,0.846-7.268-2.539-13.194c-3.379-5.929-5.069-10.166-5.069-10.166s-1.69-8.473-5.073-8.473
		c-3.379,0-14.367-5.08-14.367-5.08l-26.2-11.015l-24.513-25.414c0,0-4.223-6.613-5.071-7.116
		c-0.846-0.507-9.578-5.586-6.479-14.908c3.101-9.317,0-19.341,0-19.341s2.338-12.001-0.662-14.544
		c-2.998-2.539,0.662-17.787,0.662-17.787s9.015-7.625,13.242-11.013c4.225-3.391,14.368-8.472,16.902-10.166
		c2.538-1.691,9.3-9.318,13.526-13.551c4.222-4.238,4.222-1.827,7.604-7.268c3.384-5.444,1.692-0.36,6.764-13.064
		c5.073-12.708,4.226-16.095,4.226-18.635c0-2.542,2.539-4.236-8.452-5.085c-10.988-0.846-15.216,0-15.216,0
		s-0.843,1.79-3.378-0.375c-2.535-2.167-7.059-5.347-7.059-5.347l-0.011-0.009c-2.843,3.772-7.863,2.626-7.863,2.626
		c-5.917,0.563-14.088-12.705-14.088-12.705l-2.815-3.107l-3.382,2.542v19.764C626.44,159.259,621.083,172.249,620.524,175.072z"/>
	
		<text transform="matrix(1 0 0 1 646.5498 459.2334)" opacity="0" fill="#040000" enable-background="new    " font-family="'SimHei'" font-size="20">轮廓</text>
</g>
<path fill="none" stroke="#E72922" stroke-width="6.22" d="M639.883,530.132"/>
<g>
	<g>
		<circle fill="#FFFFFF" stroke="#E60012" stroke-width="1.849" cx="516.504" cy="658.059" r="8.453"/>
		<rect x="495.679" y="668.473" fill="#00A0E9" width="73.228" height="30.5"/>
		<g>
			<g>
				<path fill="#0B318F" d="M521.146,688.411c0.635,0.434,1.355,1.025,2.164,1.774c1.038-0.634,1.874-1.385,2.509-2.25
					s1.096-1.701,1.385-2.51h-8.307c-0.809,0.578-1.501,1.112-2.077,1.602c-0.577,0.49-1.385,1.081-2.423,1.773
					c-0.231-0.402-0.692-0.865-1.385-1.385c1.269-0.575,2.479-1.397,3.635-2.466c1.153-1.066,2.105-2.264,2.855-3.591
					c0.634,0.462,1.298,0.837,1.99,1.125c-0.636,0.462-1.184,0.951-1.645,1.471h10.125c-0.751,1.674-1.529,3.146-2.337,4.413
					c-0.809,1.27-1.76,2.265-2.855,2.985c-1.097,0.723-2.51,1.326-4.24,1.817c-1.73,0.489-4.038,0.908-6.923,1.255
					c-0.173-0.636-0.519-1.241-1.038-1.817c1.614,0,3.302-0.13,5.063-0.39c1.759-0.26,3.101-0.619,4.023-1.081
					c-0.346-0.403-0.837-0.836-1.471-1.298c-0.636-0.462-1.414-0.98-2.337-1.558c0.403-0.403,0.779-0.836,1.125-1.299
					C519.79,687.503,520.511,687.979,521.146,688.411z M530.838,675.042c-0.059,0.636-0.087,1.674-0.087,3.115
					c0,1.385,0.028,2.423,0.087,3.115h-17.307v-6.23H530.838z M518.81,679.802v-3.288h-3.548v3.288H518.81z M523.828,679.802v-3.288
					h-3.288v3.288H523.828z M529.107,679.802v-3.288h-3.462v3.288H529.107z"/>
				<path fill="#0B318F" d="M543.298,673.744c0.808,0.924,1.441,1.761,1.904,2.51c-0.636,0.346-1.125,0.605-1.471,0.778h9.604
					c-0.058,0.809-0.086,1.415-0.086,1.817c0,0.404,0.028,0.952,0.086,1.645h-1.817v-2.077h-14.97v2.077h-1.817
					c0.057-0.461,0.087-0.98,0.087-1.558c0-0.576-0.03-1.212-0.087-1.904h8.653c-0.462-0.865-0.981-1.644-1.558-2.336
					C542.174,674.467,542.663,674.148,543.298,673.744z M550.048,683.177c0,0.692,0.028,1.471,0.087,2.336h-10.298v2.077h11.336
					v3.288c0,1.211,0.028,2.364,0.087,3.461h-1.904v-1.298h-9.432v1.298h-1.99c0.057-1.327,0.086-3.634,0.086-6.923
					c0-3.288-0.029-5.624-0.086-7.009h12.201C550.076,681.504,550.048,682.428,550.048,683.177z M548.317,684.128v-2.249h-8.48
					v2.249H548.317z M549.355,691.57v-2.597h-9.519v2.597H549.355z"/>
			</g>
		</g>
		<polygon fill="#E60012" points="536.203,632.159 515.657,623.989 515.657,623.603 513.708,623.603 513.708,656.93 515.657,656.93 
			515.657,641.141 		"/>
	</g>
	<g opacity="0">
		<g>
			<text transform="matrix(1 0 0 1 549.5547 640.2666)" fill="#040000" font-family="'ArialMT'" font-size="15">8</text>
		</g>
		<rect x="473" y="605.284" fill="none" stroke="#000000" width="135.5" height="108.716"/>
	</g>
</g>
<g>
	<g>
		<rect x="368.324" y="578.571" fill="#FFF100" width="71.965" height="29.973"/>
		<g>
			<g>
				<g>
					<path d="M387.549,586.347c0.341,1.021,0.624,2.253,0.851,3.699c0.226,1.446,0.354,2.976,0.383,4.592
						c0.028,1.616-0.128,3.091-0.468,4.422c-0.34,1.331-0.893,2.239-1.658,2.721c-0.766,0.481-1.545,0.778-2.339,0.893
						c-0.114-0.737-0.369-1.417-0.765-2.041c1.19,0,2.012-0.255,2.466-0.765c0.453-0.51,0.778-1.218,0.978-2.126
						c0.198-0.906,0.298-1.841,0.298-2.806v-1.956c-1.36,1.871-2.58,3.316-3.656,4.337c-0.341-0.736-0.71-1.303-1.105-1.701
						c0.736-0.396,1.544-1.105,2.424-2.126c0.878-1.021,1.516-1.956,1.913-2.806c-0.17-1.303-0.369-2.324-0.596-3.061
						c-1.021,1.134-1.928,1.985-2.721,2.551c-0.284-0.51-0.625-0.991-1.021-1.445c0.851-0.453,1.927-1.304,3.231-2.551
						c-0.795-0.963-1.531-1.644-2.211-2.041c0.34-0.396,0.65-0.821,0.936-1.275c0.793,0.625,1.53,1.333,2.211,2.126
						c0.623-0.566,1.218-1.389,1.785-2.466c0.511,0.34,1.021,0.709,1.531,1.105C389.391,584.136,388.569,585.044,387.549,586.347z
						 M390.355,600.208v-4.252c0-0.793-0.029-1.586-0.085-2.381h10.97c-0.058,0.851-0.085,1.56-0.085,2.126v4.507
						c0.623,0,1.133-0.028,1.53-0.085v1.445c-0.68-0.057-1.36-0.085-2.041-0.085h-9.438c-1.135,0.056-1.985,0.113-2.552,0.17v-1.53
						c0.396,0.057,0.821,0.085,1.276,0.085H390.355z M400.73,583.371v1.19c-0.795,0.397-1.461,0.723-1.999,0.978
						c-0.539,0.255-1.232,0.667-2.083,1.233v1.021h3.231c0.793,0,1.615-0.028,2.466-0.085v1.616
						c-0.851-0.056-1.673-0.085-2.466-0.085h-3.231v1.956c0,0.737-0.313,1.233-0.936,1.488c-0.625,0.255-1.275,0.44-1.956,0.553
						c-0.114-0.566-0.397-1.19-0.851-1.871c0.964,0.057,1.573-0.028,1.828-0.255c0.256-0.226,0.354-0.851,0.298-1.871h-3.231
						c-0.907,0-1.7,0.029-2.381,0.085v-1.616c0.681,0.057,1.474,0.085,2.381,0.085h3.231c0-0.396-0.085-1.021-0.255-1.871
						c0.566-0.17,1.559-0.595,2.977-1.275h-4.167c-0.965,0-1.786,0.057-2.466,0.17v-1.53c0.68,0.057,1.474,0.085,2.381,0.085H400.73
						z M393.502,600.208v-5.272h-1.616v5.272H393.502z M396.563,600.208v-5.272h-1.616v5.272H396.563z M399.624,600.208v-5.272h-1.7
						v5.272H399.624z"/>
					<path d="M413.868,584.944c-0.029,0.765-0.1,1.772-0.213,3.019h6.889c1.021,0,2.041-0.056,3.062-0.17v1.701
						c-1.021-0.056-2.041-0.085-3.062-0.085h-4.167v7.738c0.681-0.793,1.36-1.686,2.041-2.679c0.68-0.991,1.218-1.999,1.615-3.019
						c0.736,0.34,1.446,0.625,2.126,0.85c-0.794,0.794-1.588,1.815-2.381,3.062c-0.795,1.248-1.9,2.495-3.316,3.742
						c-0.058,0.964,0.014,1.473,0.213,1.53c0.197,0.056,0.523,0.113,0.978,0.17h2.722c0.68-0.057,1.161-0.114,1.445-0.17
						c0.283-0.057,0.538-0.793,0.766-2.211c0.565,0.567,1.218,0.908,1.955,1.021c-0.567,1.247-0.992,2.012-1.275,2.296
						c-0.284,0.283-0.765,0.425-1.445,0.425h-5.018c-0.907,0-1.475-0.127-1.7-0.382c-0.228-0.255-0.341-0.78-0.341-1.573
						c-0.34,0.283-0.864,0.623-1.573,1.021c-0.709,0.396-1.317,0.736-1.828,1.02c-0.17-0.34-0.595-0.794-1.275-1.36
						c0.793-0.284,1.644-0.68,2.551-1.19c0.906-0.51,1.616-0.991,2.126-1.446v-8.844h-1.19c-0.284,1.645-0.595,2.976-0.936,3.997
						c-0.34,1.021-0.765,1.999-1.275,2.934c-0.51,0.935-1.162,1.871-1.956,2.806c-0.794,0.935-1.899,1.998-3.316,3.189
						c0-0.34-0.539-0.823-1.615-1.446c0.963-0.51,1.856-1.176,2.679-1.999c0.821-0.821,1.559-1.714,2.211-2.679
						c0.651-0.963,1.176-2.012,1.573-3.146c0.396-1.134,0.681-2.352,0.851-3.657h-3.316c-1.021,0-2.07,0.029-3.146,0.085v-1.616
						c1.133,0.057,2.182,0.085,3.146,0.085h3.571c0.056-0.68,0.099-1.501,0.128-2.466c0.027-0.963-0.015-1.956-0.128-2.977
						c1.19,0.285,1.956,0.455,2.296,0.51C414.052,583.541,413.896,584.179,413.868,584.944z M419.269,587.368
						c-0.567-0.85-1.333-1.786-2.297-2.806c0.396-0.283,0.821-0.651,1.276-1.105c0.735,0.68,1.53,1.588,2.381,2.721
						C420.345,586.404,419.892,586.802,419.269,587.368z"/>
				</g>
			</g>
			<g>
				<path fill="#FFFFFF" stroke="#E60012" stroke-width="1.8171" d="M436.079,567.779c0,4.589-3.717,8.312-8.304,8.312
					c-4.59,0-8.307-3.722-8.307-8.312s3.717-8.308,8.307-8.308C432.362,559.471,436.079,563.189,436.079,567.779z"/>
				<polygon fill="#E60012" points="447.607,543.348 427.412,535.319 427.412,534.944 425.499,534.944 425.499,567.691 
					427.412,567.691 427.412,552.174 				"/>
			</g>
		</g>
	</g>
	<g>
		<g opacity="0">
			<text transform="matrix(1 0 0 1 447.3262 587.73)" fill="#040000" font-family="'ArialMT'" font-size="15">5</text>
		</g>
		<rect x="358.415" y="516" opacity="0" fill="none" stroke="#000000" width="106.585" height="94.782"/>
	</g>
</g>
<g>
	<g>
		<path fill="#FFFFFF" stroke="#E60012" stroke-width="2.127" d="M269.328,671.304c0,5.372-4.352,9.724-9.724,9.724
			c-5.37,0-9.723-4.352-9.723-9.724c0-5.367,4.353-9.722,9.723-9.722C264.977,661.582,269.328,665.937,269.328,671.304z"/>
		<rect x="276.607" y="650.627" fill="#E60012" width="84.233" height="35.088"/>
		<g>
			<g>
				<path fill="#FFFFFF" d="M293.772,665.116c0.463-0.464,0.829-0.995,1.095-1.593c1.194,0.731,2.787,1.792,4.778,3.186
					c-0.532,0.597-0.963,1.161-1.294,1.691C296.56,666.942,295.032,665.847,293.772,665.116z M298.251,674.273
					c-0.597,1.461-1.394,3.086-2.389,4.878c-0.266-0.398-0.896-0.764-1.892-1.096c0.796-1.127,1.559-2.438,2.29-3.932
					c0.729-1.493,1.359-2.902,1.891-4.23c0.463,0.532,0.996,0.963,1.593,1.294C299.346,671.785,298.849,672.814,298.251,674.273z
					 M300.839,660.139c-0.465,0.598-0.896,1.162-1.294,1.692c-1.527-1.26-3.053-2.322-4.579-3.185
					c0.463-0.531,0.829-1.028,1.095-1.493C297.321,657.884,298.914,658.879,300.839,660.139z M315.87,674.771v1.792
					c-0.532-0.065-1.194-0.1-1.991-0.1c-0.134,1.525-0.448,2.454-0.945,2.787c-0.498,0.331-1.311,0.563-2.439,0.696
					c-0.199-0.598-0.465-1.262-0.796-1.991c0.996,0.065,1.643,0.016,1.941-0.148c0.298-0.167,0.48-0.613,0.547-1.344h-9.556
					c0.199-2.057,0.364-4.081,0.498-6.072c-0.731,0-1.493,0.034-2.29,0.1v-1.792c0.663,0.067,1.459,0.1,2.389,0.1
					c0.132-2.454,0.231-4.246,0.298-5.375c-0.333,0.465-0.93,1.262-1.792,2.389c-0.465-0.463-0.963-0.861-1.493-1.194
					c1.127-1.127,2.073-2.454,2.837-3.981c0.762-1.525,1.31-2.952,1.643-4.28c0.796,0.465,1.493,0.764,2.09,0.896
					c-0.266,0.332-0.632,0.995-1.095,1.99h7.167c1.26,0,2.389-0.032,3.384-0.1v1.792c-0.996-0.065-2.157-0.1-3.484-0.1h-7.764
					c-0.465,0.796-0.93,1.56-1.394,2.289h10.85c-0.066,1.593-0.133,3.484-0.199,5.674c0.729,0,1.525-0.032,2.389-0.1v1.792
					c-0.863-0.065-1.692-0.1-2.488-0.1c-0.067,0.863-0.134,2.356-0.199,4.479C314.442,674.871,315.074,674.838,315.87,674.771z
					 M312.585,670.392h-7.863c-0.134,1.792-0.233,3.285-0.299,4.479h7.963L312.585,670.392z M305.02,664.718
					c0,0.863-0.067,2.225-0.199,4.081h7.863c0-1.459,0.033-2.819,0.1-4.081H305.02z M309.997,673.677
					c-0.532,0.266-0.996,0.564-1.394,0.896c-0.532-1.061-1.095-2.023-1.692-2.887c0.464-0.331,0.896-0.63,1.294-0.896
					C308.935,671.852,309.532,672.814,309.997,673.677z M310.097,667.704c-0.532,0.266-0.996,0.564-1.394,0.896
					c-0.398-0.861-0.896-1.791-1.493-2.787l1.194-0.896C309.134,665.979,309.698,666.908,310.097,667.704z"/>
				<path fill="#FFFFFF" d="M332.692,672.383c1.061,0,2.454-0.033,4.181-0.1v1.891c-1.792-0.065-3.185-0.1-4.181-0.1h-8.859
					c-1.328,0-2.523,0.034-3.583,0.1v-1.891c1.061,0.066,2.255,0.1,3.583,0.1H332.692z M326.72,664.171
					c-0.199,1.229-0.299,2.373-0.299,3.434h8.162c0.132-1.326,0.265-2.688,0.398-4.081c0.132-1.394,0.264-2.653,0.398-3.782h-9.556
					c-1.261,0-2.622,0.034-4.081,0.1v-1.991c1.459,0.067,2.82,0.1,4.081,0.1h11.845c-0.266,1.792-0.498,3.601-0.697,5.425
					c-0.199,1.826-0.333,3.235-0.398,4.23h4.579c-0.134,1.46-0.249,3.07-0.349,4.828c-0.1,1.759-0.315,3.219-0.647,4.379
					c-0.333,1.16-0.896,1.874-1.692,2.141c-0.796,0.265-2.324,0.463-4.579,0.597c-0.067-0.73-0.365-1.527-0.896-2.389
					c2.588,0.067,4.047,0.018,4.379-0.149c0.332-0.165,0.613-0.463,0.846-0.896c0.232-0.431,0.414-1.427,0.547-2.986
					c0.132-1.559,0.199-2.837,0.199-3.832h-14.732c0.132-1.327,0.265-2.703,0.398-4.131c0.132-1.427,0.231-2.803,0.298-4.131
					c0.862,0.134,1.692,0.266,2.489,0.397C327.15,662.03,326.918,662.943,326.72,664.171z"/>
			</g>
		</g>
		<polygon fill="#74C6BE" stroke="#000000" stroke-width="4.2539" points="284.328,643.035 260.688,633.641 260.688,633.197 
			258.446,633.197 258.446,671.529 260.688,671.529 260.688,653.371 		"/>
	</g>
	<g>
		<g opacity="0">
			<text transform="matrix(1 0 0 1 298.6011 636.73)" fill="#040000" font-family="'ArialMT'" font-size="15">7</text>
		</g>
		<rect x="237.5" y="619.229" opacity="0" fill="none" stroke="#000000" width="147" height="94.771"/>
	</g>
</g>
<g>
	<path fill="#FFFFFF" stroke="#E60012" stroke-width="1.848" d="M126.124,610.78c0,4.67-3.778,8.449-8.452,8.449
		c-4.661,0-8.444-3.779-8.444-8.449c0-4.663,3.784-8.446,8.444-8.446C122.346,602.334,126.124,606.117,126.124,610.78z"/>
	<g>
		<rect x="82.485" y="624.828" fill="#E60012" width="73.187" height="30.476"/>
		<g>
			<g>
				<path fill="#FFFFFF" d="M107.866,634.999c1.614,1.327,3.243,2.365,4.886,3.114c1.644,0.75,3.213,1.269,4.713,1.557
					c-0.635,0.462-1.038,1.096-1.21,1.903c-1.557-0.576-3.114-1.268-4.67-2.076c-1.557-0.807-3.085-1.959-4.583-3.459
					c-0.923,0.981-2.205,1.989-3.849,3.027c-1.643,1.038-3.388,1.932-5.232,2.681c-0.231-0.576-0.605-1.125-1.125-1.644
					c0.979-0.173,2.119-0.562,3.416-1.167s2.537-1.384,3.719-2.335c1.181-0.951,2.119-2.032,2.811-3.243
					c0.576,0.404,1.152,0.75,1.729,1.038L107.866,634.999z M101.726,646.588c-1.096,0.749-2.047,1.412-2.854,1.989
					c-0.289-0.519-0.664-1.01-1.125-1.471c0.807-0.46,1.657-0.994,2.551-1.6c0.894-0.605,1.83-1.311,2.811-2.119l1.21,1.557
					C103.685,645.291,102.82,645.839,101.726,646.588z M104.32,631.453h5.362c0-0.807-0.03-1.527-0.086-2.162h1.816
					c-0.116,0.635-0.173,1.355-0.173,2.162h3.286c0.403,0,1.066-0.028,1.989-0.086v1.644c-0.923-0.057-1.643-0.087-2.162-0.087
					h-3.113c0,0.577,0.057,1.211,0.173,1.903h-1.729v-1.903h-5.362v1.989h-1.729c0.057-0.749,0.086-1.412,0.086-1.989h-2.594
					c-0.404,0-1.125,0.03-2.162,0.087v-1.644c1.152,0.058,1.873,0.086,2.162,0.086h2.594c0-0.691-0.03-1.412-0.086-2.162h1.816
					C104.348,629.983,104.32,630.705,104.32,631.453z M101.034,640.88c0.692,0.058,1.326,0.086,1.902,0.086h3.373
					c0-1.094-0.03-2.017-0.086-2.767h1.816c-0.058,1.269-0.086,2.192-0.086,2.767h3.114c0.865,0,1.613-0.028,2.249-0.086v1.644
					c-0.577-0.057-1.327-0.087-2.249-0.087h-3.114v4.324c0,1.038-0.246,1.672-0.735,1.903c-0.491,0.229-1.399,0.432-2.724,0.604
					c-0.116-0.635-0.376-1.326-0.778-2.075c0.691,0.057,1.297,0.071,1.816,0.043c0.519-0.029,0.778-0.389,0.778-1.081v-3.719h-3.459
					c-0.692,0-1.297,0.03-1.816,0.087V640.88z M116.082,647.193c-0.635,0.402-1.096,0.894-1.383,1.471
					c-1.5-1.442-3.057-2.651-4.67-3.633c0.403-0.402,0.778-0.894,1.125-1.47C112.824,644.715,114.467,645.926,116.082,647.193z"/>
				<path fill="#FFFFFF" d="M122.481,632.837c0-0.921-0.03-1.931-0.086-3.027h1.643c-0.058,1.154-0.086,2.162-0.086,3.027v11.589
					l1.47-0.346v-7.092c0-0.979-0.03-1.903-0.086-2.768h1.643c-0.058,0.75-0.086,1.673-0.086,2.768v7.352
					c0,1.096,0.028,2.162,0.086,3.199h-1.557v-2.075l-6.054,1.297c0.057-1.095,0.086-2.19,0.086-3.286v-6.227
					c0-1.152-0.03-2.132-0.086-2.94h1.643c-0.058,1.384-0.086,2.365-0.086,2.94v7.784l1.557-0.346V632.837z M136.146,634.394
					c0.865,1.038,2.017,1.816,3.459,2.335c-0.289,0.289-0.663,0.923-1.124,1.902c-0.865-0.519-1.586-1.066-2.162-1.643
					c-0.577-0.576-1.125-1.239-1.643-1.989c-0.519-0.749-1.01-1.816-1.47-3.2c-0.635,1.327-1.341,2.609-2.119,3.849
					c-0.778,1.24-1.687,2.35-2.724,3.33c-0.289-0.519-0.722-0.952-1.297-1.297c1.326-1.153,2.335-2.292,3.027-3.416
					c0.692-1.125,1.196-2.104,1.514-2.94c0.316-0.835,0.562-1.6,0.735-2.292c0.865,0.231,1.585,0.433,2.162,0.605
					c-0.231,0.173-0.404,0.375-0.519,0.605C134.56,631.972,135.281,633.356,136.146,634.394z M133.119,644.944
					c0.634-0.921,1.326-2.248,2.076-3.978h-4.497c-0.289,0-1.009,0.03-2.162,0.086v-1.557c1.095,0.058,1.816,0.087,2.162,0.087
					h7.005c-0.519,0.808-1.615,2.884-3.287,6.227c0.346,0.346,1.095,1.067,2.249,2.162c-0.519,0.461-0.951,0.922-1.297,1.384
					c-1.154-1.269-2.177-2.262-3.07-2.983c-0.895-0.721-1.716-1.341-2.465-1.859c0.288-0.288,0.634-0.692,1.038-1.211
					C131.85,643.993,132.6,644.542,133.119,644.944z M134.502,638.113c-0.635,0.289-1.096,0.548-1.384,0.778
					c-0.404-0.922-0.923-1.816-1.557-2.681c0.461-0.23,0.894-0.489,1.297-0.778C133.666,636.643,134.213,637.537,134.502,638.113z"
					/>
			</g>
		</g>
	</g>
	<polygon fill="#1D2088" points="138.654,589.119 118.118,580.959 118.118,580.571 116.171,580.571 116.171,613.88 118.118,613.88 
		118.118,598.099 	"/>
	<g opacity="0">
		<text transform="matrix(1 0 0 1 107.6797 684.9902)" fill="#040000" font-family="'ArialMT'" font-size="15">6</text>
	</g>
	<rect x="51" y="563.391" opacity="0" fill="none" stroke="#000000" width="116" height="128.785"/>
</g>
<g>
	<path fill="#FFFFFF" stroke="#E60012" stroke-width="1.7763" d="M495.679,215.871c0,4.377-3.727,7.925-8.321,7.925
		c-4.593,0-8.322-3.547-8.322-7.925c0-4.375,3.729-7.927,8.322-7.927C491.952,207.944,495.679,211.496,495.679,215.871z"/>
	<rect x="476.189" y="228.245" fill="#FFF100" width="72.08" height="28.594"/>
	<polygon fill="#E60012" points="508.231,194.98 488.007,187.321 488.007,186.963 486.09,186.963 486.09,218.206 488.007,218.206 
		488.007,203.401 	"/>
	<g>
		<g>
			<path d="M492.243,248.083c-0.682,1.136-1.192,2.136-1.533,3.002c-0.682-0.487-1.362-0.947-2.044-1.379
				c0.624-0.54,1.362-1.419,2.215-2.637c0.852-1.217,1.447-2.284,1.788-3.205c0.512,0.487,1.022,0.893,1.533,1.217
				C493.577,245.947,492.925,246.947,492.243,248.083z M494.032,240.862c-0.455,0.434-0.852,0.92-1.192,1.46
				c-1.137-0.757-2.5-1.487-4.089-2.191c0.341-0.432,0.682-0.892,1.022-1.379C491.079,239.294,492.499,239.998,494.032,240.862z
				 M494.884,235.994c-0.511,0.379-0.966,0.866-1.362,1.46c-0.909-0.865-2.13-1.73-3.663-2.596c0.454-0.378,0.907-0.784,1.363-1.217
				C492.243,234.291,493.464,235.075,494.884,235.994z M501.187,248.489c-0.568,0.434-1.335,0.961-2.3,1.582
				c-0.966,0.621-1.732,1.122-2.3,1.501c-0.284-0.434-0.681-0.893-1.192-1.379c0.454-0.379,0.652-0.838,0.597-1.379v-10.142
				c0-1.189-0.029-2.299-0.085-3.327h4.854c-0.455-0.812-0.994-1.542-1.618-2.19c0.624-0.27,1.135-0.54,1.533-0.812
				c0.737,0.866,1.306,1.596,1.703,2.19c-0.397,0.217-0.852,0.487-1.362,0.812h5.536c-0.057,0.866-0.085,2.271-0.085,4.219
				c0,1.894,0.028,3.165,0.085,3.813h-4.94c0.341,1.136,0.853,2.137,1.533,3.002c1.192-0.757,2.157-1.542,2.896-2.353
				c0.396,0.379,0.965,0.758,1.703,1.136c-0.455,0.217-0.951,0.501-1.49,0.852c-0.54,0.353-1.207,0.825-2.002,1.42
				c1.363,1.083,2.896,1.758,4.6,2.028c-0.568,0.54-0.966,1.136-1.192,1.785c-1.931-0.704-3.55-1.651-4.855-2.84
				c-1.307-1.189-2.271-2.866-2.896-5.03h-2.3v5.598c1.022-0.595,1.959-1.27,2.811-2.028
				C500.591,247.651,500.846,248.164,501.187,248.489z M504.765,238.753v-2.11h-7.155v2.11H504.765z M504.765,242.079v-2.028h-7.155
				v2.028H504.765z"/>
			<path d="M514.176,247.231c-1.107,0.46-2.002,0.879-2.683,1.257c-0.171-0.54-0.483-1.136-0.938-1.785
				c0.682-0.054,1.533-0.27,2.556-0.649v-6.572c-0.967,0-1.761,0.028-2.385,0.081v-1.46c0.681,0.055,1.476,0.082,2.385,0.082v-2.515
				c0-0.757-0.029-1.514-0.085-2.272h1.788c-0.057,0.812-0.085,1.542-0.085,2.19v2.597c0.907,0,1.674-0.027,2.3-0.082v1.46
				c-0.738-0.053-1.505-0.081-2.3-0.081v6.166c0.737-0.27,1.419-0.513,2.044-0.73c-0.057,0.434-0.057,0.893,0,1.379
				C516.148,246.46,515.283,246.772,514.176,247.231z M523.503,245.244v-1.46c-1.08,0-2.045,0.028-2.896,0.081v-1.46
				c0.852,0.055,1.816,0.081,2.896,0.081v-1.136h-4.004c-0.114,2.596-0.341,4.557-0.681,5.882c-0.341,1.326-1.022,2.771-2.045,4.34
				c-0.511-0.434-1.137-0.704-1.874-0.811c0.908-0.92,1.59-1.974,2.045-3.165c0.453-1.189,0.737-2.487,0.852-3.894
				c0.113-1.406,0.17-2.759,0.17-4.057v-4.787h5.366c-0.17-0.595-0.426-1.271-0.767-2.028c0.567-0.108,1.107-0.244,1.618-0.406
				c0.454,1.028,0.767,1.839,0.938,2.434h2.641c0.852,0,1.618-0.027,2.3-0.081v1.46c-0.682-0.053-1.448-0.081-2.3-0.081h-2.726
				v1.379h3.832c-0.057,0.704-0.085,1.542-0.085,2.515c0.396,0,0.965-0.026,1.704-0.081v1.46c-0.739-0.053-1.308-0.081-1.704-0.081
				c0,0.866,0.028,1.677,0.085,2.434h-3.832v1.46h4.088c-0.057,0.866-0.085,1.758-0.085,2.677c0,0.866,0.028,1.919,0.085,3.164
				h-1.362v-1.46h-5.963v1.623h-1.533c0.056-1.028,0.085-2.028,0.085-3.002c0-1.027-0.029-2.028-0.085-3.002H523.503z
				 M523.503,240.051v-1.298c-0.967,0-1.874,0.028-2.726,0.081v-1.379c0.852,0.055,1.759,0.081,2.726,0.081v-1.379h-3.918v3.894
				H523.503z M527.762,248.408v-1.947h-5.963v1.947H527.762z M527.336,240.051v-1.298h-2.3v1.298H527.336z M527.336,242.485v-1.136
				h-2.3v1.136H527.336z"/>
		</g>
	</g>
	<g opacity="0">
		<g>
			<text transform="matrix(1 0 0 1 433.7051 239.0757)" fill="#040000" font-family="'ArialMT'" font-size="15">1</text>
		</g>
		<rect x="411.707" y="169" fill="none" stroke="#000000" width="156.793" height="92"/>
	</g>
</g>
<g>
	<g>
		<g>
			<polygon fill="#E60012" stroke="#E72922" stroke-width="1.2495" points="462.7,430.538 466.26,441.492 477.784,441.492 
				468.464,448.266 472.021,459.233 462.7,452.459 453.368,459.233 456.937,448.266 447.607,441.492 459.136,441.492 			"/>
		</g>
		<g>
			<g>
				<path fill="#DD4422" d="M582.346,342.294H437.883c-4.936,0-8.933,4.291-8.933,9.587v38.344c0,5.294,3.997,9.587,8.933,9.587
					h11.802l11.279,20.703l10.552-20.703h110.83c4.934,0,8.937-4.293,8.937-9.587v-38.344
					C591.282,346.585,587.279,342.294,582.346,342.294z"/>
				<path fill="#E76E43" d="M580.585,344.651H440.078c-4.798,0-8.688,3.89-8.688,8.688v34.764c0,4.804,3.891,8.694,8.688,8.694
					h11.484l9.348,19.236l9.781-19.236h109.894c4.801,0,8.691-3.89,8.691-8.694v-34.764
					C589.276,348.542,585.386,344.651,580.585,344.651z"/>
			</g>
			<g>
				<path fill="#FFFFFF" d="M448.13,354.893l4.161,0.513c0.57,0.076,0.874,0.244,0.912,0.503c0.038,0.26-0.189,0.599-0.684,1.017
					c-0.368,0.228-0.539,0.95-0.514,2.166v23.388c0.013,0.937,0.12,2.349,0.323,4.237h-4.199c0.216-2.027,0.317-3.439,0.305-4.237
					v-23.388C448.435,357.762,448.333,356.363,448.13,354.893z M461.24,386.489h-4.199c0.202-1.976,0.304-3.546,0.304-4.712v-21.279
					c-0.063-1.457-0.196-3.065-0.398-4.826c2.178,0.241,3.787,0.374,4.825,0.399h11.172c1.114-0.025,2.749-0.158,4.902-0.399
					c-0.254,2.369-0.38,3.977-0.38,4.826v21.089c0,1.19,0.101,2.723,0.304,4.598h-4.161c0.19-1.583,0.291-2.793,0.304-3.629h-12.995
					C460.942,383.393,461.05,384.703,461.24,386.489z M460.917,359.054v8.531h12.92v-8.531H460.917z M473.837,370.492h-12.92v9.082
					h12.92V370.492z"/>
				<path fill="#FFFFFF" d="M523.532,387.154h-4.236c0.126-0.786,0.215-1.419,0.266-1.9c0.051-0.443,0.076-0.874,0.076-1.292
					v-13.509l-2.755,2.147c-1.394-2.634-2.78-4.788-4.161-6.459v17.004c-0.025,0.874,0.089,1.925,0.342,3.154h-4.198
					c0.151-0.938,0.247-1.59,0.285-1.957c0.037-0.393,0.057-0.792,0.057-1.197V370.34l-2.527,1.881
					c-1.279-2.406-2.47-4.306-3.571-5.7c0.266,8.36-2.28,15.111-7.638,20.253c-1.014-0.887-2.438-1.463-4.275-1.729
					c5.332-3.306,8.119-9.519,8.36-18.639v-9.024c0.024-0.912-0.076-2.103-0.305-3.572l3.705,0.494
					c0.861,0.102,1.317,0.253,1.368,0.456c0.076,0.203-0.229,0.532-0.912,0.988c-0.216,0.076-0.316,0.659-0.304,1.748v7.087
					l1.823-1.406c1.508,1.836,2.933,3.774,4.275,5.813V358.94c0-0.899-0.114-2.349-0.342-4.351l4.16,0.57
					c0.532,0.089,0.814,0.263,0.846,0.522c0.031,0.26-0.199,0.592-0.693,0.998c-0.189,0.152-0.311,0.38-0.361,0.684
					c-0.063,0.279-0.095,0.804-0.095,1.577v5.909l2.204-1.748c1.596,2.014,3.166,4.218,4.712,6.612v-11.932
					c-0.038-1.279-0.152-2.736-0.342-4.37l4.123,0.589c0.569,0.088,0.886,0.278,0.949,0.57c0.025,0.292-0.215,0.608-0.722,0.95
					c-0.342,0.089-0.501,0.843-0.475,2.261v26.181C523.159,384.634,523.279,385.698,523.532,387.154z M498.206,365.4
					c-0.481,3.648-1.272,6.739-2.375,9.272c-1.229-0.431-2.552-0.665-3.971-0.703c1.672-2.736,2.577-6.821,2.717-12.255l4.047,0.779
					c0.507,0.102,0.785,0.285,0.836,0.551c0.025,0.266-0.189,0.558-0.646,0.874C498.46,364.133,498.257,364.627,498.206,365.4z"/>
				<path fill="#FFFFFF" d="M541.042,371.556h1.862v-3.971c-0.494,0.013-1.697,0.126-3.609,0.342v-1.121
					c-1.039-0.861-2.3-1.418-3.781-1.672c3.356-2.85,5.77-7.131,7.238-12.843l3.382,1.596c0.583,0.304,0.865,0.602,0.846,0.893
					c-0.019,0.292-0.339,0.551-0.959,0.779c-0.203,0.102-0.526,0.621-0.969,1.558c-0.102,0.152-0.374,0.671-0.817,1.558h3.609
					c1.103-0.038,2.362-0.146,3.781-0.323v3.515c-1.659-0.19-2.907-0.298-3.743-0.323h-5.016c-0.772,1.292-1.419,2.331-1.938,3.116
					c0.849,0.076,1.52,0.114,2.014,0.114h4.161c1.076-0.05,2.299-0.165,3.667-0.342v3.458c-1.533-0.177-2.755-0.278-3.667-0.304
					h-0.779v3.971h1.52c1.014-0.05,2.249-0.171,3.705-0.361v3.477c-0.102-0.013-0.247-0.025-0.437-0.038
					c-1.951-0.19-3.027-0.285-3.23-0.285h-1.558v6.498c1.216-0.925,2.438-1.963,3.667-3.116c0.215,1.457,0.538,2.654,0.969,3.591
					c-3.686,2.787-5.991,4.706-6.916,5.757l-2.621-3.306c0.696-0.469,1.107-0.849,1.234-1.14c0.178-0.291,0.26-0.848,0.247-1.672
					v-6.612h-1.862c-0.431,0-1.665,0.089-3.704,0.266v-3.382C539.035,371.423,540.27,371.531,541.042,371.556z M552.138,387.971
					c-0.531-1.089-1.494-2.064-2.888-2.926c4.154-1.077,7.087-2.698,8.797-4.864h-3.154c-0.354,0-1.64,0.121-3.856,0.361v-3.515
					c1.267,0.165,2.217,0.259,2.85,0.285v-16.966h6.137v-1.596h-4.427c-0.215,0-1,0.063-2.355,0.19
					c-0.634,0.051-1.096,0.089-1.387,0.114v-3.534c1.38,0.178,2.628,0.292,3.742,0.342h4.427l-0.266-3.648l3.496,0.456
					c0.456,0.089,0.753,0.304,0.893,0.646c0.013,0.051,0.02,0.121,0.02,0.209c0,0.266-0.134,0.5-0.399,0.703
					c-0.178,0.152-0.266,0.696-0.266,1.634h4.901c1.103-0.051,2.344-0.165,3.724-0.342v3.534c-0.228-0.025-0.589-0.057-1.082-0.095
					c-1.546-0.139-2.426-0.209-2.642-0.209H563.5v1.596h6.364v16.966h0.038c0.988-0.038,2.147-0.158,3.478-0.361v3.553
					c-1.977-0.215-3.136-0.323-3.478-0.323h-4.085c2.913,1.457,5.472,3.014,7.676,4.674l-2.146,2.926
					c-2.546-2.166-5.27-3.895-8.17-5.187l1.672-2.413h-5.833l2.033,1.52c0.52,0.405,0.779,0.734,0.779,0.988
					c0,0.038-0.022,0.126-0.066,0.266c-0.045,0.139-0.453,0.253-1.226,0.342c-0.279-0.025-0.874,0.272-1.786,0.893
					C556.71,385.685,554.507,386.945,552.138,387.971z M566.444,364.621v-1.558h-9.139v1.558H566.444z M557.306,368.82h9.139v-1.463
					h-9.139V368.82z M566.444,372.98v-1.425h-9.139v1.425H566.444z M557.306,375.717v1.596h9.139v-1.596H557.306z"/>
			</g>
		</g>
	</g>
	<g opacity="0">
		<g>
			<text transform="matrix(1 0 0 1 525.0586 424.7817)" fill="#040000" font-family="'ArialMT'" font-size="15">0</text>
		</g>
		<rect x="398" y="314.701" fill="none" stroke="#000000" width="233" height="152.299"/>
	</g>
</g>
<g>
	<g>
		<path fill="#FFFFFF" stroke="#E60012" stroke-width="1.9805" d="M536.461,305.646c0,5.004-4.053,9.055-9.054,9.055
			c-4.999,0-9.054-4.05-9.054-9.055c0-5,4.055-9.053,9.054-9.053C532.408,296.593,536.461,300.646,536.461,305.646z"/>
		<rect x="547.768" y="288.245" fill="#00A0E9" width="78.436" height="32.665"/>
		<g>
			<g>
				<path fill="#0B318F" d="M565.125,296.676c0.803,0.062,1.669,0.093,2.596,0.093h6.673c-0.186-0.742-0.402-1.39-0.648-1.946
					c0.741-0.061,1.482-0.186,2.225-0.371c0.123,0.619,0.339,1.391,0.648,2.317h6.396c0.864,0,1.761-0.031,2.688-0.093v1.668
					c-0.927-0.061-2.071-0.093-3.43-0.093h-14.458c-0.989,0-1.886,0.032-2.688,0.093V296.676z M585.146,313.823
					c0.061,0.927-0.278,1.513-1.02,1.761c-0.742,0.247-1.453,0.401-2.132,0.463c-0.248-0.741-0.557-1.39-0.927-1.946
					c0.616,0,1.173-0.016,1.668-0.046c0.494-0.032,0.71-0.447,0.648-1.251v-5.839h-15.756v8.898h-1.854
					c0.061-0.866,0.093-2.625,0.093-5.283c0-2.718-0.032-4.386-0.093-5.005h19.463c-0.062,0.866-0.092,1.823-0.092,2.874V313.823z
					 M581.716,301.959c0,0.681,0.03,1.391,0.093,2.132H568.74c0.061-0.556,0.093-1.266,0.093-2.132c0-0.864-0.032-1.636-0.093-2.317
					h13.068C581.746,300.446,581.716,301.218,581.716,301.959z M580.048,302.701v-1.668h-9.454v1.668H580.048z M580.141,310.764
					c0,0.741,0.03,1.483,0.092,2.224h-9.453c0.123-0.741,0.186-1.483,0.186-2.224c0-0.802-0.063-1.544-0.186-2.225h9.453
					C580.171,309.22,580.141,309.962,580.141,310.764z M578.472,311.691v-1.854h-6.024v1.854H578.472z"/>
				<path fill="#0B318F" d="M592.837,294.823c-0.062,1.36-0.092,2.41-0.092,3.151v2.966c0.864,0,1.821-0.03,2.873-0.092v1.668
					c-1.052-0.061-2.009-0.093-2.873-0.093v6.766c0.927-0.246,1.914-0.556,2.966-0.927v1.576c-1.237,0.31-2.364,0.648-3.384,1.02
					c-1.02,0.371-2.117,0.834-3.29,1.39c-0.247-0.617-0.556-1.205-0.927-1.761c0.803-0.185,1.822-0.463,3.059-0.834v-7.229
					c-1.051,0-1.979,0.032-2.78,0.093v-1.668c0.741,0.062,1.637,0.092,2.688,0.092v-2.873c0-0.741-0.031-1.822-0.093-3.244H592.837z
					 M595.433,311.645c0.556-1.02,0.973-2.178,1.251-3.476s0.417-3.059,0.417-5.283c0-2.225-0.031-3.893-0.093-5.005h5.005
					c0-1.606-0.031-2.781-0.093-3.522h1.947c-0.063,0.741-0.093,1.916-0.093,3.522h5.561c-0.433,1.73-0.741,3.058-0.927,3.985
					c-0.681-0.124-1.329-0.216-1.946-0.278c0.246-0.741,0.463-1.483,0.648-2.224h-3.336v4.078h4.078
					c-0.371,1.854-0.773,3.415-1.205,4.681c-0.434,1.267-1.082,2.456-1.946,3.568c0.802,0.742,1.636,1.297,2.502,1.668
					c0.864,0.371,1.822,0.648,2.873,0.834c-0.618,0.556-1.112,1.143-1.482,1.761c-0.804-0.31-1.592-0.665-2.363-1.066
					c-0.773-0.403-1.654-1.066-2.642-1.993c-0.434,0.371-1.066,0.819-1.9,1.344s-1.899,1.096-3.197,1.715
					c-0.434-0.556-0.927-1.052-1.483-1.483c1.298-0.371,2.395-0.818,3.291-1.344c0.895-0.524,1.59-1.003,2.085-1.437
					c-1.483-1.668-2.379-3.923-2.688-6.766h-0.835c-0.124,2.78-0.571,4.99-1.344,6.626c-0.773,1.638-1.622,3.012-2.549,4.125
					c-0.433-0.618-0.988-1.02-1.668-1.205C594.165,313.607,594.876,312.664,595.433,311.645z M602.013,303.442v-4.078h-3.059v4.078
					H602.013z M601.55,304.925c0.246,2.349,0.957,4.202,2.132,5.561c0.493-0.741,0.91-1.56,1.251-2.456
					c0.339-0.895,0.57-1.93,0.695-3.104H601.55z"/>
			</g>
		</g>
		<polygon fill="#E60012" points="549.555,282.105 527.545,273.358 527.545,272.945 525.453,272.945 525.453,308.638 
			527.545,308.638 527.545,291.726 		"/>
	</g>
	<g opacity="0">
		<g>
			<text transform="matrix(1 0 0 1 604.0586 344.0757)" fill="#040000" font-family="'ArialMT'" font-size="15">2</text>
		</g>
		<rect x="465" y="263.5" fill="none" stroke="#000000" width="188" height="89.911"/>
	</g>
</g>
<g>
	<g>
		<path fill="#FFFFFF" stroke="#E60012" stroke-width="1.9506" d="M302.163,424.949c0,4.925-3.988,8.917-8.917,8.917
			c-4.924,0-8.918-3.992-8.918-8.917c0-4.925,3.994-8.921,8.918-8.921C298.174,416.027,302.163,420.023,302.163,424.949z"/>
		<rect x="308.275" y="412.987" fill="#E60012" width="111.193" height="32.171"/>
		<g>
			<g>
				<path fill="#FFFFFF" d="M324.017,421.508c-0.123,0.974-0.26,1.933-0.411,2.875c-0.153,0.944-0.306,1.766-0.457,2.465
					c-0.153,0.7-0.319,1.355-0.502,1.962c-0.183,0.609-0.365,1.127-0.548,1.552c0.79,1.036,1.292,1.72,1.506,2.054
					c0.212,0.335,0.471,0.746,0.776,1.232l-1.461,1.096c-0.182-0.425-0.396-0.852-0.639-1.278c-0.244-0.425-0.548-0.913-0.913-1.46
					c-0.792,1.218-1.492,2.191-2.1,2.921c-0.609,0.73-1.4,1.613-2.373,2.647c-0.365-0.425-0.822-0.852-1.369-1.278
					c1.155-1.034,2.083-1.977,2.784-2.83c0.699-0.851,1.324-1.794,1.872-2.83c-0.67-0.913-1.218-1.627-1.643-2.145
					c-0.427-0.517-0.974-1.11-1.643-1.78c0.425-0.242,0.821-0.607,1.187-1.095c0.608,0.67,1.125,1.248,1.552,1.734
					c0.425,0.488,0.882,1.004,1.37,1.552c0.242-0.852,0.456-1.703,0.639-2.556c0.183-0.852,0.365-1.977,0.548-3.377h-2.921
					c-0.853,0-1.766,0.031-2.738,0.091v-1.643c0.852,0.062,1.734,0.091,2.647,0.091H324.017z M330.407,434.744
					c0.791,0,1.644-0.03,2.556-0.091v1.734c-0.913-0.06-1.766-0.091-2.556-0.091h-3.012c-1.278,0-2.374,0.031-3.286,0.091v-1.734
					c0.973,0.061,2.068,0.091,3.286,0.091H330.407z M334.149,429.267c-0.547,0.305-1.46,0.518-2.738,0.639
					c-0.123-0.73-0.335-1.399-0.639-2.008c1.278,0.062,2.038,0.016,2.282-0.137c0.243-0.151,0.395-0.562,0.457-1.232l0.091-3.56
					h-6.299v7.851h9.494l-0.457,6.298c-0.183,1.461-0.625,2.342-1.324,2.647c-0.7,0.304-1.75,0.516-3.149,0.639
					c-0.183-0.73-0.457-1.37-0.822-1.917c1.46,0.06,2.419-0.016,2.875-0.229c0.457-0.214,0.714-0.714,0.776-1.506l0.274-4.473
					h-9.402c0.06-1.034,0.091-2.068,0.091-3.104v-4.747c0-1.034-0.031-2.008-0.091-2.921h2.191c0.304-1.217,0.457-2.129,0.457-2.739
					c0.79,0.244,1.46,0.396,2.008,0.457c-0.306,0.609-0.609,1.369-0.913,2.282h6.116l-0.365,6.116
					C335.001,428.416,334.697,428.963,334.149,429.267z M331.594,426.62c-0.67,0.244-1.187,0.488-1.552,0.73
					c-0.306-0.73-0.762-1.643-1.37-2.739c0.486-0.183,1.004-0.425,1.552-0.73C330.528,424.552,330.984,425.464,331.594,426.62z"/>
				<path fill="#FFFFFF" d="M343.552,421.051h3.104c0.852,0,1.886-0.03,3.104-0.091v1.643c-1.218-0.06-2.344-0.091-3.378-0.091
					c0.487,0.974,0.913,1.917,1.278,2.83l-1.826,0.73c-0.305-1.095-0.67-2.282-1.096-3.56h-2.008
					c-0.73,1.157-1.492,2.282-2.282,3.378c-0.548-0.425-1.096-0.791-1.643-1.096c0.79-0.913,1.506-1.901,2.145-2.967
					c0.639-1.064,1.171-2.145,1.598-3.24c0.79,0.547,1.52,0.913,2.19,1.095C344.312,420.047,343.917,420.503,343.552,421.051z
					 M355.51,427.35c-0.488,0.305-0.974,0.67-1.46,1.095h1.734l3.469-0.183v1.826c-1.095-0.06-2.222-0.091-3.377-0.091h-4.017v4.473
					c0.365-0.243,0.943-0.669,1.735-1.278c0.79-0.608,1.46-1.278,2.008-2.008c0.487,0.547,1.125,1.004,1.917,1.369
					c-0.73,0.426-1.583,1.02-2.556,1.78c-0.974,0.762-1.979,1.477-3.013,2.146v0.913c0,0.608,0.457,0.913,1.37,0.913h3.56
					c0.607,0,0.988-0.183,1.141-0.548c0.151-0.365,0.228-0.943,0.228-1.734c0.73,0.426,1.46,0.7,2.191,0.822
					c-0.244,1.095-0.518,1.855-0.822,2.282c-0.305,0.425-0.762,0.639-1.369,0.639h-5.842c-1.583,0-2.374-0.609-2.374-1.826V437.3
					c-0.73,0.427-1.583,0.913-2.556,1.461c-0.427-0.609-0.944-1.125-1.552-1.552c1.521-0.486,2.921-1.034,4.199-1.643v-5.568h-2.099
					c-0.306,1.339-0.685,2.542-1.141,3.606c-0.457,1.065-1.02,2.024-1.689,2.875c-0.67,0.853-1.385,1.582-2.145,2.191
					c-0.762,0.607-1.689,1.216-2.784,1.826c-0.305-0.609-0.792-1.187-1.46-1.734c1.338-0.488,2.449-1.064,3.332-1.735
					c0.881-0.668,1.582-1.415,2.1-2.236c0.517-0.821,0.927-1.643,1.232-2.464c0.304-0.822,0.516-1.598,0.639-2.328h-2.282
					c-1.218,0-2.465,0.032-3.743,0.091v-1.734c1.46,0.062,2.707,0.091,3.743,0.091h2.556c0.06-0.425,0.122-0.821,0.183-1.187
					c0.06-0.365,0.091-0.822,0.091-1.369c0.608,0.244,1.429,0.426,2.465,0.547c-0.305,0.305-0.518,0.609-0.639,0.913
					c-0.123,0.305-0.244,0.67-0.365,1.095h5.751c-0.853-0.852-1.613-1.49-2.282-1.917l1.369-1.369
					C353.684,425.707,354.536,426.437,355.51,427.35z M348.846,425.342c0.913-1.034,1.643-2.084,2.191-3.149
					c0.548-1.064,1.004-2.236,1.369-3.515c0.669,0.244,1.369,0.518,2.1,0.822c-0.244,0.365-0.579,0.883-1.004,1.552h3.651
					c0.425,0,1.429-0.03,3.012-0.091v1.643c-1.157-0.06-2.222-0.091-3.195-0.091c0.425,0.913,0.852,1.857,1.278,2.83
					c-0.67,0.244-1.31,0.488-1.917,0.73c-0.365-1.399-0.73-2.586-1.095-3.56h-2.282c-0.792,1.522-1.522,2.8-2.191,3.834
					C350.154,425.859,349.515,425.524,348.846,425.342z"/>
				<path fill="#FFFFFF" d="M365.643,435.703c-0.487,0.639-1.187,1.538-2.1,2.693c-0.426-0.427-0.883-0.791-1.369-1.096
					c1.278-1.399,2.282-2.859,3.013-4.381c0.607,0.488,1.187,0.883,1.734,1.187C366.556,434.531,366.129,435.063,365.643,435.703z
					 M370.755,426.802c1.034,0,2.1-0.03,3.195-0.091v1.826c-1.036-0.06-2.588-0.091-4.656-0.091v2.282
					c1.886,0,3.378-0.03,4.474-0.091v1.826c-1.096-0.06-2.588-0.091-4.474-0.091v5.568c0,0.913-0.289,1.521-0.867,1.826
					c-0.579,0.304-1.323,0.457-2.236,0.457c-0.244-0.73-0.548-1.401-0.913-2.008c0.852,0.06,1.445,0.06,1.78,0
					c0.334-0.062,0.502-0.334,0.502-0.822v-5.021c-1.948,0-3.469,0.031-4.563,0.091v-1.826c1.155,0.062,2.677,0.091,4.563,0.091
					v-2.282c-2.252,0-3.925,0.031-5.021,0.091v-1.826c1.096,0.062,2.13,0.091,3.104,0.091h3.469c0.486-1.46,0.852-2.586,1.096-3.377
					c0.486,0.123,1.155,0.305,2.009,0.548C371.789,424.216,371.303,425.159,370.755,426.802z M369.659,421.325
					c1.399,0,2.707-0.03,3.926-0.091v1.826c-1.278-0.06-2.313-0.091-3.104-0.091H366.1c-1.036,0-2.04,0.031-3.013,0.091v-1.826
					c1.034,0.062,2.038,0.091,3.013,0.091h1.643c-0.122-0.669-0.305-1.369-0.548-2.1c0.608-0.183,1.247-0.365,1.917-0.548
					C369.415,419.956,369.598,420.839,369.659,421.325z M367.104,426.072c-0.548,0.123-1.065,0.306-1.552,0.548
					c-0.306-0.913-0.639-1.734-1.004-2.465c0.425-0.242,0.912-0.456,1.46-0.639C366.433,424.369,366.798,425.221,367.104,426.072z
					 M373.311,436.205c-0.608,0.305-1.095,0.7-1.46,1.187c-0.488-1.095-1.127-2.159-1.917-3.195
					c0.425-0.365,0.881-0.699,1.369-1.004C372.033,434.167,372.702,435.17,373.311,436.205z M376.962,421.508v4.655h4.747
					c0.669,0,1.369-0.03,2.1-0.091v1.735c-0.854-0.06-1.583-0.091-2.191-0.091v9.402c0,1.034,0.03,2.13,0.092,3.287h-1.917
					c0.06-1.157,0.091-2.222,0.091-3.195v-9.493h-2.921c0,1.521-0.062,2.982-0.183,4.381c-0.122,1.401-0.381,2.784-0.775,4.153
					c-0.396,1.37-0.99,2.784-1.78,4.245c-0.609-0.365-1.218-0.67-1.826-0.913c0.974-1.4,1.658-2.875,2.055-4.427
					c0.395-1.552,0.623-2.905,0.685-4.062c0.06-1.155,0.091-2.89,0.091-5.203c0-2.374-0.031-4.259-0.091-5.66
					c2.738-0.122,5.203-0.548,7.394-1.278c0.486,0.974,0.882,1.643,1.187,2.008C382.805,420.96,380.552,421.143,376.962,421.508z"/>
				<path fill="#FFFFFF" d="M388.691,433.146c1.247-0.516,2.357-1.262,3.332-2.236h-2.647c-0.974,0-1.887,0.031-2.738,0.091v-1.46
					c1.096,0.061,2.038,0.091,2.83,0.091h3.286v-1.278h-1.187c-0.975,0-2.009,0.031-3.104,0.091v-1.552
					c1.156,0.062,2.191,0.091,3.104,0.091h1.187v-1.278h-1.187c-1.219,0-2.223,0.031-3.013,0.091v-1.461
					c1.461,0.062,2.465,0.091,3.013,0.091h1.187v-1.46h1.552v1.46h3.742v-1.46h1.552v1.46h1.096c1.278,0,2.465-0.03,3.561-0.091
					v1.461c-1.096-0.06-2.161-0.091-3.195-0.091H399.6v1.278h1.37c0.183,0,0.44-0.014,0.775-0.046
					c0.334-0.03,1.019-0.045,2.054-0.045v1.552c-1.035-0.06-1.704-0.091-2.008-0.091H399.6v1.278h6.664v1.369
					c-1.156-0.06-1.917-0.091-2.282-0.091h-3.742c0.73,0.853,1.627,1.522,2.692,2.008c1.064,0.488,2.358,0.821,3.88,1.004
					c-0.306,0.548-0.609,1.187-0.913,1.917c-1.704-0.548-3.073-1.155-4.107-1.826v0.913h-4.564v3.012
					c0,1.155-0.273,1.81-0.821,1.962c-0.548,0.151-1.4,0.288-2.556,0.411c-0.123-0.548-0.274-1.187-0.457-1.917
					c0.79,0.06,1.369,0.06,1.734,0c0.365-0.062,0.548-0.335,0.548-0.822v-2.647h-3.195c-0.791,0-1.491,0.031-2.1,0.091v-1.187
					c-1.218,0.67-2.435,1.31-3.651,1.917c-0.426-0.607-0.853-1.155-1.277-1.643C386.364,433.984,387.443,433.664,388.691,433.146z
					 M397.957,420.96h8.398c-0.062,0.73-0.092,1.369-0.092,1.917s0.03,1.127,0.092,1.734h-1.734v-2.191h-16.249v2.282h-1.734
					c0.06-0.669,0.091-1.308,0.091-1.917c0-0.669-0.031-1.278-0.091-1.826h9.128c-0.122-0.547-0.335-1.187-0.639-1.917l2.009-0.365
					C397.378,419.47,397.651,420.23,397.957,420.96z M391.841,435.748c0.548,0.488,1.034,0.944,1.461,1.369
					c-1.34,0.792-3.044,1.856-5.112,3.195c-0.427-0.488-0.821-0.974-1.187-1.46C389.132,437.879,390.745,436.844,391.841,435.748z
					 M395.675,433.74c0-0.607-0.031-1.247-0.091-1.917h1.734c-0.062,0.67-0.092,1.31-0.092,1.917h4.107
					c-1.218-0.852-2.131-1.794-2.738-2.83h-4.473c-0.853,1.036-2.009,1.978-3.469,2.83H395.675z M398.048,426.985v-1.278h-3.742
					v1.278H398.048z M398.048,429.632v-1.278h-3.742v1.278H398.048z M404.804,438.396c-0.365,0.486-0.762,1.034-1.188,1.643
					c-1.583-1.218-3.226-2.191-4.929-2.921c0.242-0.425,0.548-0.881,0.912-1.369C401.668,436.784,403.402,437.665,404.804,438.396z"
					/>
			</g>
		</g>
		<polygon fill="#00A0E9" points="314.033,401.133 292.35,392.515 292.35,392.107 290.292,392.107 290.292,427.265 292.35,427.265 
			292.35,410.601 		"/>
	</g>
	<g opacity="0">
		<g>
			<text transform="matrix(1 0 0 1 279.9976 461.4678)" fill="#040000" font-family="'ArialMT'" font-size="15">3</text>
		</g>
		<rect x="259.604" y="380.342" fill="none" stroke="#000000" width="169.346" height="92.658"/>
	</g>
</g>
<g>
	<path fill="#FFFFFF" stroke="#E60012" stroke-width="1.8378" d="M242.373,570.367c0,4.641-3.762,8.397-8.407,8.397
		c-4.637,0-8.398-3.757-8.398-8.397c0-4.642,3.762-8.405,8.398-8.405C238.61,561.962,242.373,565.725,242.373,570.367z"/>
	<rect x="203.944" y="581.723" fill="#00A0E9" width="72.784" height="30.313"/>
	<g>
		<g>
			<path fill="#0B318F" d="M224.855,592.383v-2.236c0-0.63-0.03-1.376-0.086-2.236h1.893c-0.058,0.746-0.086,1.492-0.086,2.236
				v2.236h8.084v-2.236c0-0.86-0.029-1.634-0.086-2.322h1.892c-0.058,0.688-0.086,1.462-0.086,2.322v2.236h1.548
				c0.974,0,1.92-0.028,2.838-0.086v1.634c-0.86-0.057-1.806-0.086-2.838-0.086h-1.548v9.632c0,1.32,0.028,2.551,0.086,3.698h-1.806
				v-1.892h-8.084v1.806h-1.806c0.057-1.204,0.086-2.58,0.086-4.128v-9.116h-1.892c-0.976,0-1.836,0.029-2.581,0.086v-1.634
				c0.802,0.058,1.663,0.086,2.581,0.086H224.855z M234.66,597.887v-4.042h-8.084v4.042H234.66z M234.66,603.822v-4.473h-8.084
				v4.473H234.66z"/>
			<path fill="#0B318F" d="M246.055,602.918c-1.118,0.488-2.021,0.933-2.709,1.333c-0.172-0.572-0.488-1.204-0.946-1.892
				c0.688-0.056,1.548-0.286,2.581-0.688v-6.966c-0.976,0-1.778,0.029-2.408,0.086v-1.548c0.688,0.058,1.49,0.086,2.408,0.086
				v-2.667c0-0.802-0.03-1.604-0.086-2.408h1.806c-0.058,0.86-0.086,1.634-0.086,2.322v2.752c0.917,0,1.69-0.028,2.322-0.086v1.548
				c-0.746-0.057-1.52-0.086-2.322-0.086v6.536c0.745-0.286,1.433-0.544,2.064-0.774c-0.058,0.459-0.058,0.946,0,1.462
				C248.047,602.102,247.173,602.432,246.055,602.918z M255.473,600.812v-1.548c-1.09,0-2.064,0.03-2.924,0.086v-1.548
				c0.86,0.058,1.834,0.086,2.924,0.086v-1.204h-4.042c-0.116,2.752-0.344,4.831-0.688,6.235c-0.344,1.406-1.032,2.938-2.064,4.602
				c-0.516-0.46-1.148-0.746-1.893-0.86c0.917-0.976,1.605-2.092,2.064-3.354c0.458-1.261,0.744-2.637,0.86-4.128
				c0.114-1.49,0.172-2.924,0.172-4.3v-5.074h5.418c-0.172-0.63-0.43-1.347-0.774-2.15c0.572-0.114,1.118-0.258,1.634-0.43
				c0.458,1.09,0.774,1.95,0.946,2.58h2.666c0.86,0,1.634-0.028,2.322-0.086v1.548c-0.688-0.056-1.462-0.086-2.322-0.086h-2.752
				v1.462h3.87c-0.058,0.746-0.086,1.634-0.086,2.666c0.4,0,0.974-0.028,1.72-0.086v1.548c-0.746-0.056-1.32-0.086-1.72-0.086
				c0,0.918,0.028,1.778,0.086,2.58h-3.87v1.548h4.128c-0.058,0.918-0.086,1.864-0.086,2.838c0,0.918,0.028,2.035,0.086,3.354
				h-1.376v-1.548h-6.02v1.72h-1.548c0.057-1.09,0.086-2.15,0.086-3.182c0-1.088-0.029-2.15-0.086-3.182H255.473z M255.473,595.307
				v-1.376c-0.976,0-1.892,0.029-2.752,0.086v-1.462c0.86,0.058,1.776,0.086,2.752,0.086v-1.462h-3.956v4.128H255.473z
				 M259.773,604.166v-2.064h-6.02v2.064H259.773z M259.343,595.307v-1.376h-2.322v1.376H259.343z M259.343,597.887v-1.204h-2.322
				v1.204H259.343z"/>
		</g>
	</g>
	<polygon fill="#009944" points="255.104,548.286 234.681,540.166 234.681,539.777 232.743,539.777 232.743,572.901 
		234.681,572.901 234.681,557.208 	"/>
	<g opacity="0">
		<g>
			<text transform="matrix(1 0 0 1 261.3257 574.1592)" fill="#040000" font-family="'ArialMT'" font-size="15">4</text>
		</g>
		<rect x="177" y="516" fill="none" stroke="#000000" width="113.292" height="100"/>
	</g>
</g>  
</svg>