<svg version="1.0" id="图层_1" xmlns="http://www.w3.org/2000/svg" xmlns:xlink="http://www.w3.org/1999/xlink" x="0px" y="0px" 
	width="100%" height="100%" viewBox="0 0 720 1280" xml:space="preserve"
  style="position: relative;display: block;"
  >
  
<g>
	<path opacity="0.6" fill="#FFFFFF" stroke="#00A0E9" stroke-width="5.0029" d="M680.03,598.828c0.165-0.123,0.308-0.239,0.494-0.37
		c5.66-4,5.658-4.998,10.661-9.998c4.998-5.002,6-9,7.998-12c2-2.999,4-6.999,5-13.998c0.999-6.999,0-18,0-18s-4.001-6.999-7-8.998
		c-3.001-1.999-5.998-9-8.999-10.997c-3-2.001-7.999-10.999-7.999-10.999l-3.001-10c0,0-1.996-6.001,0-9.999
		c2.001-4,4-13.656,8-14.828c4.001-1.168-4.999,6.831,4.001-1.168c8.997-8.001,15.441-11.001,15.441-11.001s-6.805,1.751,0-3.998
		c6.804-5.751,6.804-5.751,6.804-5.751l4.749-14.248c0,0-0.998-6.999,0-10.999c1-4,0-11.997,0-11.997l0.445-12.001v-11.995
		l-5.194-6.001v-6.248v-4.75l-6.248-7.998l-5-13l2-11.29l-11.999-5.708l-7.997-17c0,0-3.001-9.998-3.001-15.997
		c0-6,2.001-18.998,2.001-18.998v-13l-0.598-9.264c-4.456,0.473-7.402,0.766-7.402,0.766l-5.25-5.996c0,0-4.499-18.749-7.499-22.501
		c-3-3.746-12.749-15.745-14.997-17.247c-2.251-1.5-14.249-4.497-17.247-2.249c-3.001,2.249-9.75,8.998-10.5,15.75
		c-0.751,6.747-6,22.492-9.747,26.247c-3.752,3.748-7.503,6.747-15,11.244c-7.499,4.503-6,2.251-12,8.253
		c-5.998,5.999-8.248,7.499-11.997,10.498c-3.749,2.997-7.499,5.25-11.248,4.501c-3.751-0.751-20.248-6.003-24.747-6.75
		c-4.501-0.75-11.75-7.5-11.123-9.75v-15.747l-5.375-9.749l-6.749-8.249l-8.999-7.5c0,0-22.496-4.497-24.748-4.497l-6.749,2.997
		l-8.998,15.248c0,0-9,5-11.999,5c-3,0-6.499,0-12.747,0c-6.25,0-12.25-2.001-15.25,0c-3.001,1.999-26.107,0-26.107,0l-16.886,0.889
		h-10.001c0,0-5.997-3.111-8.998,0c-3,3.106-14.999,4.111-14.999,4.111h-11.998h-15.999c0,0-4.998,12.996-6.999,15.997
		c-1.998,3.001-7.997,4-7.997,6.999c0,3.001,6,11.001,0,18.996c-6,8-9.999,11.999-9.999,14.999c0,3.001-3,11.003-5.999,16.001
		c-3.001,4.996-6,7.418-9,11.707c-3,4.287-4.001,8.288-12,16.288c-7.998,8.001-8.001,12.001-18.998,14.999
		c-10.999,2.997-24.997,1.502-27.996,5.751c-3,4.25-19.999,23.243-21.997,22.744c-2-0.497-9.001,9.499-12.998,13.501
		c-4,4-14,11.001-14,11.001H156.25c0,0-22.997-4.002-25.996-4.002c-3,0-9.998-4-21.998-6.001c-11.999-1.999-11.997-6.997-24.997-4
		c-13,3.001-29.997,14.002-29.997,14.002H41.265l-36.119,8.996L1,445.773l9.27,5.704c0,0,7.499-3,9.749,0
		c2.25,3.001,5.999-3,8.248,0c2.25,3.001,5.249-1.267,11.998,0.865c6.75,2.137,14.25,2.137,17.248,3.636
		c2.999,1.5,12.749,7.496,12.749,7.496H86.76l14.248,5.25l15.248,11.75l9.499,6.25l8.999-1.252l11.497-6.829c0,0,7.001-0.168,10,0
		c3,0.174,11.998,4.83,11.998,4.83v-4.83l6-11.169l6-5.999c0,0,0,0,4.997-5.999c5.002-6,8.001-5,8.001-5l11.999-8.998
		c0,0,6-4.001,14.998-10c8.998-5.999,14.042-5.999,14.042-5.999s9.954-3,11.953-5.999c2-3.001,8-2.003,8-2.003l9.998-2.998
		c0,0,8-4.998,16.998-7.001c9-1.999,7.001-1.997,11.999,0c4.998,1.999,13,0,13,0v6.003v10.994l4.998,10.003
		c0,0,4.998,7.999,8.999,10.999c3.999,2.999,8.998,9,15.997,13.998c7,4.998,17,10.999,17,10.999l9.998,8.167l6,11.829
		c0,0,0,10.999,0,14.998c0,4,0,13.998,0,13.998l5,16.997c0,0,9.997,22.998,12.943,25.998c2.94,3.001,4.056,11.999,6.052,15
		c2,2.997,0,7.997,0,7.997l-12.997,21.998v19.5v14.497h3.999l6,6.001l4,9l9.999,16.995l-9.001,10.999l-7.998,11l-3,7.998
		l-5.999,14.998l11.999,10.997l2,9.002c0,0,2.999,7.995,4.999,10.996c2,2.999,0,8.998,0,11.997c0,3.002,0,5.999,0,5.999
		l10.999,8.001l8.997,15.001c0,0,0,0,2.001,5.996c2.001,6.001,0,11.001,0,11.001v11.515l8.998,8.479l14.882,10v4l-0.77,2.999
		c0,0,0.865,2.305,0.757,5.967c1.28-0.792,2.536-1.545,3.63-2.219c3.63-2.233,7.5-10.499,7.5-10.499l6.748-6.75l3.75,5.25l7.5,5.999
		l8.248,6.751h5.249l16.498-8.501l5-9.499l8.998-10.499l5.626-10.994c0,0-3.625,1.996,6.372-4c9.999-6.003,15.999-14,19-15.001
		c2.998-1,2.998-3.999,8.998-8.997c5.998-5.001,13.998-10.997,17.997-19.999c4.001-8.998-1.999-2.999,4.001-8.998
		c5.997-6,14.998-15,18.996-16.997c4-2.003,4-4.002,6.999-6.003c3.001-1.996-1.999,3.004,8-5.998
		c9.999-8.998,2.001-3.998,9.999-8.998s11.996-7.999,11.996-7.999l22.498-17.996v-17.999c0,0,13.499,5.002,19.501,0
		c5.998-4.998,3.997-16.998,3.997-16.998l-9.999-8.998c0,0,0-10,0-13.001c0-2.997,1-2.244,3.999-11.621s6.638-11.377,6.319-14.375
		C680.196,602.556,675.238,602.449,680.03,598.828"/>
	
		<text transform="matrix(1 0 0 1 663.9668 437.8638)" opacity="0" fill="#040000" enable-background="new    " font-family="'SimHei'" font-size="20">轮廓</text>
</g>
<g>
	<g>
		<path fill="#FFFFFF" stroke="#E60012" stroke-width="1.5543" d="M596.504,557.058c0,3.922-3.182,7.104-7.106,7.104
			c-3.924,0-7.105-3.182-7.105-7.104c0-3.928,3.182-7.11,7.105-7.11C593.322,549.948,596.504,553.13,596.504,557.058z"/>
		<rect x="602.41" y="532.906" fill="#FFF100" width="61.557" height="25.636"/>
		<g>
			<g>
				<path d="M618.272,539.642c0-0.727-0.024-1.43-0.072-2.109h1.673c-0.049,0.582-0.073,1.286-0.073,2.109v1.819
					c0.728,0,1.528-0.024,2.4-0.073v1.309c-0.872-0.048-1.673-0.073-2.4-0.073v2.473c0.339-0.242,0.728-0.46,1.164-0.655
					c0.291,0.437,0.775,1.262,1.455,2.473c-0.389,0.194-0.85,0.461-1.382,0.8c-0.243-0.629-0.655-1.43-1.237-2.4v5.674
					c0,1.018,0.024,2.037,0.073,3.055H618.2c0.048-1.067,0.072-2.084,0.072-3.055v-4.946c-0.437,1.309-1.067,2.644-1.891,4
					c-0.146-0.242-0.485-0.775-1.019-1.6c0.484-0.582,0.957-1.297,1.418-2.146c0.461-0.848,0.909-2.073,1.346-3.673
					c-0.825,0-1.625,0.025-2.4,0.073v-1.309c0.97,0.049,1.818,0.073,2.546,0.073V539.642z M623.146,541.388
					c0.533,0.049,1.091,0.073,1.673,0.073h1.31v-2.182c0-0.679-0.049-1.285-0.146-1.819h1.673c-0.049,0.291-0.073,0.922-0.073,1.892
					v2.109h2.183c0.728,0,1.43-0.048,2.109-0.146v1.382c-0.631-0.048-1.285-0.073-1.964-0.073h-2.109
					c0.339,1.116,0.728,2.037,1.163,2.764c0.437,0.728,0.885,1.358,1.346,1.891c0.461,0.534,0.91,0.946,1.346,1.237
					c0.437,0.291,0.775,0.509,1.019,0.654c-0.243,0.291-0.461,0.546-0.654,0.764c-0.194,0.218-0.389,0.473-0.582,0.764
					c-1.262-1.164-2.183-2.23-2.764-3.201c-0.582-0.92-0.946-1.673-1.092-2.255v6.401c0,0.728,0.024,1.528,0.073,2.4h-1.601
					c0.048-1.067,0.073-1.866,0.073-2.4v-6.401c-0.68,1.6-1.31,2.886-1.892,3.855c-0.582,0.971-1.091,1.673-1.527,2.11
					c-0.437-0.339-0.922-0.679-1.455-1.019c0.63-0.582,1.2-1.236,1.709-1.964c0.51-0.728,0.982-1.491,1.419-2.292
					c0.437-0.8,0.896-1.902,1.382-3.31h-0.873c-0.582,0-1.163,0.025-1.745,0.073V541.388z"/>
				<path d="M639.367,542.842v4.655c0,0.873,0.023,1.844,0.072,2.91h-1.454v-0.946h-2.183v2.328h-1.527
					c0.048-1.066,0.072-2.061,0.072-2.982v-5.965c0-1.018-0.024-2.037-0.072-3.055h5.164
					C639.391,540.806,639.367,541.824,639.367,542.842z M637.985,548.298v-7.347h-2.183v7.347H637.985z M643.295,541.242
					c-0.389,0.098-0.898,0.316-1.527,0.655c-0.194-0.582-0.728-1.455-1.601-2.619c0.533-0.193,0.993-0.412,1.382-0.655
					C642.276,539.691,642.858,540.563,643.295,541.242z M644.75,537.605h1.527c-0.049,0.631-0.073,2.426-0.073,5.383h4.364
					c-0.049,0.776-0.072,1.771-0.072,2.982v6.619c-0.049,0.533-0.304,0.92-0.764,1.164c-0.462,0.242-1.226,0.436-2.291,0.582
					c0-0.582-0.219-1.14-0.655-1.673c1.164,0.048,1.843-0.062,2.037-0.327c0.193-0.266,0.266-1.03,0.218-2.292h-6.691v4.219h-1.528
					c0.048-0.873,0.073-1.746,0.073-2.619v-5.892c0-0.97-0.025-1.891-0.073-2.764h4.001
					C644.822,540.224,644.797,538.43,644.75,537.605z M649.114,545.97v-1.818h-6.765v1.818H649.114z M649.114,548.88v-1.746h-6.765
					v1.746H649.114z M648.969,541.969c-0.291-0.242-0.776-0.484-1.455-0.727c1.164-1.502,1.794-2.546,1.892-3.128
					c0.727,0.389,1.309,0.655,1.745,0.8C650.762,539.206,650.034,540.224,648.969,541.969z"/>
			</g>
		</g>
		<polygon fill="#1D2088" points="608.342,538.907 591.071,532.046 591.071,531.719 589.43,531.719 589.43,559.729 591.071,559.729 
			591.071,546.457 		"/>
	</g>
	<g opacity="0">
		<text transform="matrix(1 0 0 1 614.125 574.7036)" fill="#040000" font-family="'ArialMT'" font-size="15">6</text>
		<rect x="541.342" y="485.43" fill="none" stroke="#040000" stroke-width="0.714" width="134" height="94.951"/>
	</g>
</g>
<g>
	<g>
		<path fill="#FFFFFF" stroke="#E60012" stroke-width="1.5378" d="M556.518,680.485c0,3.884-3.146,7.031-7.03,7.031
			c-3.882,0-7.027-3.147-7.027-7.031c0-3.881,3.146-7.028,7.027-7.028C553.372,673.457,556.518,676.604,556.518,680.485z"/>
		<rect x="560.895" y="668.604" fill="#E60012" width="60.904" height="25.367"/>
		<g>
			<g>
				<path fill="#FFFFFF" d="M567.708,675.674v-1.511c0-0.623-0.024-1.296-0.072-2.016h1.584c-0.097,0.72-0.145,1.416-0.145,2.087
					v1.439h1.296c0.623,0,1.318-0.023,2.087-0.071v1.295c-0.72-0.047-1.416-0.071-2.087-0.071h-1.296v3.022h2.304
					c-0.049,0.863-0.072,1.968-0.072,3.311c0,1.344,0.023,2.519,0.072,3.526h-1.368v-1.439H566.7v2.015h-1.439
					c0.048-0.91,0.072-2.134,0.072-3.67c0-1.583-0.024-2.83-0.072-3.742h2.447v-3.022h-1.439c-0.768,0-1.487,0.024-2.159,0.071
					v-1.295c0.768,0.048,1.487,0.071,2.159,0.071H567.708z M570.011,684.166v-3.238H566.7v3.238H570.011z M579.942,686.038
					c0,1.198-0.264,1.906-0.791,2.123c-0.529,0.216-1.272,0.396-2.231,0.539c-0.097-0.528-0.288-1.056-0.575-1.583
					c0.814,0,1.391-0.036,1.727-0.108c0.335-0.071,0.504-0.396,0.504-0.971v-3.671h-3.886c-0.098,1.296-0.408,2.459-0.937,3.49
					c-0.528,1.032-1.271,2.099-2.23,3.203c-0.385-0.432-0.84-0.769-1.367-1.008c1.007-0.816,1.763-1.751,2.267-2.807
					c0.504-1.055,0.792-2.278,0.863-3.671c0.072-1.391,0.108-2.807,0.108-4.246s-0.024-2.807-0.072-4.102h6.693
					c-0.049,0.672-0.072,1.655-0.072,2.95V686.038z M578.575,677.329v-3.022h-3.814v3.022H578.575z M578.575,681.288v-2.879h-3.814
					v2.879H578.575z"/>
				<path fill="#FFFFFF" d="M589.658,674.379c0.479,0.385,1.055,0.696,1.728,0.936c-0.336,0.192-0.792,0.72-1.367,1.583h3.238
					c1.198,0,2.375-0.047,3.526-0.144v1.511c-1.151-0.095-2.352-0.144-3.599-0.144h-3.886c-0.433,0.48-0.828,0.948-1.188,1.403
					c-0.36,0.457-0.805,0.925-1.332,1.403h3.887c0-0.767-0.049-1.391-0.145-1.871h1.728c-0.048,0.432-0.072,1.056-0.072,1.871h1.728
					c1.151,0,2.183-0.023,3.095-0.072v1.439c-0.912-0.047-1.943-0.071-3.095-0.071h-1.728v2.015h4.679
					c0.767,0,1.534-0.023,2.303-0.072v1.368c-0.72-0.048-1.464-0.072-2.231-0.072h-4.75v1.439c0,0.815,0.024,1.535,0.072,2.159
					h-1.799c0.144-0.624,0.216-1.344,0.216-2.159v-1.439h-5.038c-1.056,0-1.896,0.024-2.519,0.072v-1.368
					c0.815,0.049,1.655,0.072,2.519,0.072h5.038v-2.015h-3.022c-0.72,0-1.488,0.071-2.304,0.216
					c-0.24-0.672-0.456-1.199-0.647-1.584c0.672-0.287,1.607-1.198,2.807-2.734c-0.863,0-1.583,0.049-2.159,0.144v-1.438
					c0.72,0.048,1.703,0.071,2.951,0.071C589.011,675.938,589.466,675.099,589.658,674.379z M598.582,674.595
					c0,0.48,0.024,1.032,0.072,1.655h-1.583v-2.087h-11.947v2.375h-1.583c0.047-0.576,0.072-1.151,0.072-1.728
					s-0.025-1.198-0.072-1.871h15.113C598.606,673.516,598.582,674.067,598.582,674.595z"/>
				<path fill="#FFFFFF" d="M604.916,674.667v6.188c0,0.769,0.023,1.536,0.071,2.304h-1.295c0.047-0.768,0.071-1.535,0.071-2.304
					v-4.029c-0.575,0.816-1.151,1.607-1.727,2.374c-0.337-0.287-0.696-0.551-1.08-0.791c0.72-0.672,1.415-1.607,2.087-2.807
					s1.224-2.398,1.655-3.599c0.433,0.336,0.911,0.552,1.439,0.647C605.803,672.987,605.395,673.659,604.916,674.667z
					 M608.874,684.383c0-0.384-0.025-0.839-0.072-1.368h1.439c-0.049,0.385-0.072,0.841-0.072,1.368h3.095
					c0.911,0,1.703-0.024,2.375-0.072v1.224c-0.72-0.048-1.511-0.072-2.375-0.072h-3.095v2.015h5.182
					c0.864,0,1.655-0.024,2.375-0.071v1.224c-0.72-0.049-1.487-0.072-2.303-0.072h-11.659c-0.863,0-1.655,0.023-2.375,0.072v-1.224
					c0.72,0.047,1.512,0.071,2.375,0.071h5.11v-2.015h-2.879c-1.008,0-1.871,0.024-2.591,0.072v-1.224
					c0.72,0.048,1.583,0.072,2.591,0.072H608.874z M615.639,674.811c0,0.72,0.023,1.393,0.072,2.016h-3.671v1.438h2.663
					c0.863,0,1.679-0.023,2.447-0.071v1.151c-0.769-0.047-1.56-0.072-2.375-0.072h-1.08c0.384,0.624,0.947,1.224,1.691,1.8
					c0.743,0.575,1.499,0.96,2.268,1.151c-0.48,0.385-0.816,0.816-1.008,1.295c-1.008-0.575-1.884-1.259-2.627-2.051
					c-0.744-0.792-1.284-1.522-1.619-2.195h-0.36c0,1.439,0.024,2.735,0.072,3.887h-1.295c0.047-1.104,0.071-2.327,0.071-3.671
					c-0.575,0.816-1.224,1.536-1.943,2.159c-0.719,0.624-1.511,1.2-2.374,1.728c-0.241-0.432-0.576-0.815-1.008-1.151
					c0.91-0.288,1.715-0.708,2.411-1.26c0.694-0.551,1.234-1.115,1.619-1.691c-1.488,0-2.591,0.025-3.311,0.072v-1.151
					c0.623,0.048,1.439,0.071,2.446,0.071h2.159v-1.438h-3.382c0.047-0.815,0.071-1.535,0.071-2.159
					c0-0.623-0.024-1.271-0.071-1.943h8.204C615.662,673.348,615.639,674.044,615.639,674.811z M614.415,675.746v-2.015h-5.686
					v2.015H614.415z"/>
			</g>
		</g>
		<polygon fill="#74C6BE" stroke="#000000" stroke-width="3.0757" points="567.325,661.322 550.234,654.531 550.234,654.209 
			548.613,654.209 548.613,681.921 550.234,681.921 550.234,668.792 		"/>
	</g>
	<g opacity="0">
		<text transform="matrix(1 0 0 1 577.418 648.3086)" fill="#040000" font-family="'ArialMT'" font-size="15">7</text>
		<rect x="513.861" y="620.049" fill="none" stroke="#040000" stroke-width="0.714" width="134" height="94.951"/>
	</g>
</g>
<g>
	<g>
		<circle fill="#FFFFFF" stroke="#E60012" stroke-width="1.5617" cx="428.684" cy="572.494" r="7.139"/>
		<rect x="438.753" y="556.068" fill="#FFF100" width="61.85" height="25.756"/>
		<g>
			<g>
				<path d="M448.914,562.849c-0.049,0.829-0.072,1.681-0.072,2.558c0,0.829,0.023,1.681,0.072,2.558h-4.02l-0.146,2.631h4.02
					c-0.05,1.218-0.122,2.4-0.22,3.544c-0.098,1.146-0.183,1.973-0.256,2.485s-0.378,0.877-0.913,1.096
					c-0.537,0.219-1.341,0.377-2.412,0.475c-0.049-0.438-0.244-0.975-0.585-1.608c1.121,0.049,1.875,0,2.266-0.146
					c0.39-0.146,0.609-1.705,0.658-4.677h-4.093c0.146-1.559,0.243-3.216,0.292-4.97h3.947v-2.777h-1.827
					c-0.78,0-1.561,0.025-2.339,0.073v-1.315c0.778,0.049,1.534,0.073,2.266,0.073H448.914z M451.034,565.188
					c0-0.925-0.025-1.998-0.073-3.216h1.534c-0.049,1.218-0.072,2.266-0.072,3.143v3.727h3.873c0.925,0,1.852-0.024,2.777-0.073
					v1.315c-1.023-0.048-1.926-0.073-2.704-0.073h-1.242c0.34,1.803,0.95,3.229,1.827,4.275c0.877,1.048,1.851,1.84,2.923,2.375
					c-0.536,0.39-0.902,0.804-1.096,1.243c-1.219-0.683-2.278-1.718-3.18-3.106c-0.902-1.389-1.474-2.984-1.718-4.787h-1.461v6.066
					c0.486-0.292,1.12-0.731,1.899-1.316l0.439,1.462c-0.684,0.391-1.292,0.768-1.827,1.133c-0.537,0.365-1.072,0.768-1.608,1.206
					c-0.244-0.391-0.537-0.804-0.877-1.243c0.438-0.341,0.633-0.828,0.585-1.461v-5.847c-0.78,0-1.462,0.025-2.047,0.073v-1.315
					c0.585,0.049,1.267,0.073,2.047,0.073V565.188z M454.25,568.038c-0.391-0.438-0.731-0.755-1.023-0.95
					c1.315-1.315,2.46-2.874,3.435-4.677c0.39,0.292,0.828,0.584,1.315,0.877C456.759,565.041,455.516,566.625,454.25,568.038z"/>
				<path d="M466.09,576.369c-1.365,0.731-2.534,1.34-3.509,1.827c-0.39-0.487-0.756-0.926-1.096-1.315
					c2.387-0.779,4.275-1.608,5.664-2.485s2.375-1.632,2.96-2.266c-0.195-0.34-0.391-0.633-0.585-0.877
					c-1.511,1.072-2.851,1.925-4.02,2.558c-1.169,0.634-2.096,1.072-2.777,1.315c-0.341-0.487-0.707-0.901-1.096-1.243
					c1.948-0.584,3.495-1.217,4.641-1.9c1.145-0.682,1.961-1.243,2.448-1.681c-0.195-0.243-0.415-0.512-0.658-0.804
					c-0.779,0.438-1.62,0.865-2.521,1.279c-0.901,0.415-1.863,0.84-2.887,1.279c-0.292-0.486-0.634-0.974-1.022-1.461
					c1.997-0.487,3.531-0.998,4.604-1.535c1.071-0.535,1.852-1.071,2.339-1.607h-1.022c-0.684,0-1.487,0.025-2.412,0.073v-1.315
					c0.925,0.049,1.729,0.073,2.412,0.073h4.97c0.632,0,1.412-0.024,2.338-0.073v1.315c-0.926-0.048-1.706-0.073-2.338-0.073h-1.974
					c-0.438,0.39-0.926,0.829-1.462,1.315c0.39,0.341,0.755,0.694,1.097,1.06c0.34,0.365,0.705,0.866,1.096,1.499
					c0.585-0.292,1.243-0.694,1.974-1.206s1.389-1.157,1.974-1.937c0.73,0.683,1.217,1.146,1.461,1.389
					c-0.584,0.245-1.096,0.488-1.534,0.731c-0.438,0.244-0.804,0.512-1.097,0.804c0.438,1.462,0.998,2.51,1.682,3.143
					c0.682,0.634,1.632,1.242,2.85,1.827c-0.487,0.341-0.926,0.804-1.315,1.388c-1.364-0.877-2.363-1.791-2.996-2.74
					c-0.634-0.95-1.072-1.937-1.315-2.96c-0.391,0.244-0.78,0.463-1.17,0.658c0.243,1.315,0.354,2.412,0.329,3.289
					c-0.025,0.877-0.391,1.546-1.097,2.01c-0.706,0.463-1.547,0.768-2.521,0.914c-0.195-0.634-0.414-1.194-0.657-1.681
					c0.828,0,1.485-0.073,1.974-0.219c0.486-0.146,0.767-0.512,0.84-1.096c0.073-0.585,0.037-1.34-0.109-2.266
					C468.939,574.64,467.453,575.639,466.09,576.369z M470.986,563.433h6.724c-0.049,0.78-0.073,1.414-0.073,1.9
					c0,0.438,0.024,0.999,0.073,1.681h-1.534v-2.412h-12.717v2.777h-1.535c0.048-0.779,0.073-1.462,0.073-2.046
					c0-0.633-0.025-1.267-0.073-1.9h7.309c-0.195-0.632-0.415-1.193-0.658-1.681c0.633-0.146,1.218-0.316,1.754-0.512
					C470.426,561.729,470.645,562.459,470.986,563.433z"/>
				<path d="M485.019,565.26c0-1.656-0.024-2.85-0.073-3.581h1.682c-0.05,0.584-0.073,1.779-0.073,3.581h4.02
					c0-1.608-0.025-2.825-0.073-3.654h1.754c-0.049,0.78-0.072,1.999-0.072,3.654h1.607c0.925,0,1.778-0.024,2.558-0.073v1.461
					c-0.779-0.048-1.633-0.073-2.558-0.073h-1.607v3.801h2.046c0.974,0,1.948-0.024,2.924-0.073v1.535
					c-0.976-0.048-1.95-0.073-2.924-0.073h-2.046v3.654c0,0.926,0.023,1.9,0.072,2.924H490.5c0.048-1.023,0.073-1.998,0.073-2.924
					v-3.654h-4.093c-0.195,2.68-1.633,4.896-4.312,6.65c-0.438-0.438-0.95-0.804-1.535-1.096c2.582-1.315,4.02-3.167,4.312-5.554
					h-2.119c-0.926,0-1.9,0.025-2.923,0.073v-1.535c1.022,0.049,2.021,0.073,2.996,0.073h2.119v-3.801h-1.461
					c-0.829,0-1.682,0.025-2.559,0.073v-1.461c0.877,0.049,1.729,0.073,2.559,0.073H485.019z M490.573,570.376v-3.801h-4.02v3.801
					H490.573z"/>
			</g>
		</g>
		<polygon fill="#00A0E9" points="446.147,553.528 428.79,546.628 428.79,546.302 427.146,546.302 427.146,574.449 428.79,574.449 
			428.79,561.113 		"/>
	</g>
	<g opacity="0">
		<text transform="matrix(1 0 0 1 441.2412 531.8081)" fill="#040000" font-family="'ArialMT'" font-size="15">5</text>
		<rect x="379.361" y="514.549" fill="none" stroke="#040000" stroke-width="0.714" width="134" height="94.951"/>
	</g>
</g>
<g>
	<g>
		<path fill="#FFFFFF" stroke="#E60012" stroke-width="1.7237" d="M428.751,740.242c0,4.355-3.526,7.88-7.879,7.88
			c-4.352,0-7.878-3.524-7.878-7.88c0-4.35,3.526-7.881,7.878-7.881C425.225,732.361,428.751,735.893,428.751,740.242z"/>
		<rect x="432.335" y="725.569" fill="#E60012" width="68.268" height="28.428"/>
		<g>
			<g>
				<path fill="#FFFFFF" d="M457.803,731.634c0.914,0,1.855-0.026,2.824-0.081v1.613c-0.969-0.053-1.91-0.08-2.824-0.08h-3.71v5.808
					h5.646c1.021,0,1.855-0.026,2.501-0.08v1.613c-0.646-0.054-1.48-0.081-2.501-0.081h-5.646v5.646c0,0.861,0.026,1.882,0.08,3.065
					h-1.854c0.053-1.129,0.08-2.15,0.08-3.065v-5.646h-5.565c-0.969,0-1.855,0.027-2.662,0.081v-1.613
					c0.807,0.054,1.693,0.08,2.662,0.08h5.565v-5.808h-3.308c-1.021,0-2.097,0.027-3.227,0.08v-1.613
					c1.13,0.055,2.07,0.081,2.823,0.081H457.803z"/>
				<path fill="#FFFFFF" d="M468.935,738.007c-0.483,0.538-0.86,1.048-1.129,1.532c-1.022-0.859-2.178-1.64-3.469-2.34
					c0.322-0.43,0.617-0.913,0.888-1.451C466.568,736.555,467.806,737.308,468.935,738.007z M467.967,745.267
					c-0.646,1.452-1.157,2.634-1.532,3.549c-0.484-0.431-1.13-0.834-1.937-1.21c0.484-0.538,1.089-1.505,1.815-2.903
					c0.726-1.398,1.303-2.716,1.734-3.953c0.591,0.431,1.155,0.78,1.693,1.049C469.203,742.658,468.612,743.814,467.967,745.267z
					 M469.5,733.408c-0.593,0.484-1.077,0.915-1.452,1.291c-0.807-0.968-1.775-1.908-2.904-2.823
					c0.376-0.323,0.753-0.698,1.129-1.13C467.348,731.553,468.423,732.44,469.5,733.408z M481.196,731.956
					c0.698,0,1.452-0.026,2.259-0.08v1.613c-1.022-0.053-1.829-0.081-2.42-0.081v13.633c0,0.807-0.27,1.331-0.807,1.573
					c-0.538,0.242-1.372,0.443-2.501,0.604c-0.054-0.538-0.351-1.157-0.888-1.855c1.183,0.054,1.937,0.041,2.259-0.04
					c0.323-0.08,0.484-0.39,0.484-0.928v-12.987h-6.292c-0.861,0-1.829,0.028-2.904,0.081v-1.613c1.075,0.054,2.043,0.08,2.904,0.08
					H481.196z M477.163,740.588c0,2.097,0.026,3.442,0.08,4.033h-1.613v-1.291h-2.903v2.34h-1.613
					c0.106-0.646,0.161-2.205,0.161-4.679c0-2.527-0.028-4.222-0.081-5.082h6.05C477.189,736.932,477.163,738.49,477.163,740.588z
					 M475.63,741.878v-4.517h-2.903v4.517H475.63z"/>
			</g>
		</g>
		<polygon fill="#74C6BE" stroke="#000000" stroke-width="3.4474" points="439.499,717.167 420.343,709.553 420.343,709.193 
			418.524,709.193 418.524,740.254 420.343,740.254 420.343,725.539 		"/>
	</g>
	<g opacity="0">
		<text transform="matrix(1 0 0 1 453.6064 713.002)" fill="#040000" font-family="'ArialMT'" font-size="15">8</text>
		<rect x="376.389" y="688.049" fill="none" stroke="#040000" stroke-width="0.714" width="134" height="94.951"/>
	</g>
</g>
<g>
	<g>
		<circle fill="#FFFFFF" stroke="#E60012" stroke-width="1.5802" cx="598.214" cy="338.255" r="7.224"/>
		<rect x="581.517" y="352.144" fill="#00A0E9" width="62.582" height="26.064"/>
		<g>
			<g>
				<path fill="#0B318F" d="M602.395,361.87c-1.528-0.098-2.934-0.148-4.215-0.148h-2.07c0.344,0.937,0.727,1.8,1.146,2.588
					c0.418,0.789,0.936,1.553,1.553,2.292c0.615,0.739,1.281,1.38,1.996,1.922c0.715,0.543,1.541,1.036,2.478,1.479
					c-0.739,0.543-1.208,1.036-1.405,1.479c-0.986-0.689-1.812-1.342-2.477-1.959c-0.666-0.616-1.246-1.22-1.738-1.812
					c-0.493-0.591-0.938-1.281-1.331-2.07c-0.396-0.788-0.765-1.651-1.109-2.588v7.913c0,0.691,0.024,1.553,0.074,2.588h-1.553
					c0.048-1.035,0.073-1.897,0.073-2.588v-8.578c-0.986,2.318-1.774,3.895-2.366,4.733c-0.592,0.839-1.209,1.615-1.849,2.329
					c-0.642,0.715-1.381,1.468-2.219,2.256c-0.346-0.492-0.863-0.888-1.553-1.184c0.739-0.492,1.442-1.047,2.107-1.664
					c0.666-0.616,1.417-1.516,2.256-2.699c0.838-1.183,1.602-2.662,2.292-4.437h-1.923c-0.937,0-2.342,0.05-4.215,0.148v-1.479
					c1.823,0.099,3.204,0.148,4.142,0.148h3.327v-1.553c0-1.084-0.025-1.923-0.073-2.514h1.627c-0.1,0.691-0.148,1.529-0.148,2.514
					v1.553h3.18c1.281,0,2.613-0.049,3.993-0.148V361.87z"/>
				<path fill="#0B318F" d="M607.498,363.867v6.803h5.177v-11.092c0-0.888-0.025-1.775-0.074-2.662h1.627
					c-0.05,0.691-0.074,1.578-0.074,2.662v11.092h5.177v-6.951c0-1.084-0.025-1.997-0.074-2.736h1.701
					c-0.05,0.592-0.074,1.504-0.074,2.736v5.99c0,1.184,0.024,2.44,0.074,3.771h-1.627v-1.553h-13.459
					c0.049-1.084,0.074-2.145,0.074-3.18v-4.807c0-1.133-0.025-2.145-0.074-3.032h1.701
					C607.522,362.092,607.498,363.079,607.498,363.867z"/>
				<path fill="#0B318F" d="M627.611,359.134v6.36c0,0.789,0.024,1.578,0.074,2.366h-1.331c0.049-0.788,0.074-1.577,0.074-2.366
					v-4.141c-0.592,0.839-1.184,1.652-1.775,2.44c-0.345-0.295-0.715-0.566-1.108-0.813c0.739-0.689,1.453-1.651,2.145-2.884
					c0.689-1.232,1.257-2.465,1.7-3.698c0.444,0.346,0.937,0.567,1.479,0.666C628.523,357.409,628.104,358.099,627.611,359.134z
					 M631.679,369.117c0-0.394-0.025-0.862-0.073-1.405h1.479c-0.05,0.396-0.074,0.863-0.074,1.405h3.181
					c0.936,0,1.749-0.024,2.44-0.074v1.257c-0.74-0.048-1.554-0.074-2.44-0.074h-3.181v2.07h5.325c0.887,0,1.7-0.025,2.44-0.074
					v1.257c-0.74-0.049-1.529-0.074-2.367-0.074h-11.979c-0.888,0-1.701,0.024-2.44,0.074v-1.257
					c0.739,0.048,1.553,0.074,2.44,0.074h5.25v-2.07h-2.958c-1.035,0-1.923,0.025-2.662,0.074v-1.257
					c0.739,0.05,1.627,0.074,2.662,0.074H631.679z M638.631,359.282c0,0.739,0.023,1.431,0.073,2.071h-3.771v1.479h2.736
					c0.888,0,1.726-0.024,2.515-0.074v1.183c-0.789-0.048-1.603-0.074-2.44-0.074h-1.109c0.394,0.641,0.973,1.257,1.737,1.849
					c0.765,0.592,1.541,0.987,2.33,1.183c-0.493,0.396-0.839,0.839-1.035,1.331c-1.035-0.591-1.936-1.294-2.699-2.107
					c-0.766-0.813-1.32-1.564-1.664-2.255h-0.37c0,1.479,0.024,2.81,0.074,3.993h-1.331c0.049-1.133,0.074-2.391,0.074-3.771
					c-0.592,0.839-1.258,1.579-1.997,2.219c-0.739,0.641-1.553,1.233-2.44,1.775c-0.247-0.444-0.592-0.838-1.035-1.184
					c0.936-0.295,1.762-0.727,2.478-1.294c0.714-0.566,1.269-1.146,1.664-1.738c-1.529,0-2.663,0.025-3.402,0.074v-1.183
					c0.641,0.05,1.479,0.074,2.515,0.074h2.219v-1.479h-3.476c0.048-0.838,0.073-1.578,0.073-2.219c0-0.64-0.025-1.306-0.073-1.997
					h8.43C638.654,357.778,638.631,358.494,638.631,359.282z M637.373,360.243v-2.071h-5.842v2.071H637.373z"/>
			</g>
		</g>
		<polygon fill="#009944" points="616.193,320.25 598.633,313.269 598.633,312.938 596.967,312.938 596.967,341.419 
			598.633,341.419 598.633,327.926 		"/>
	</g>
	<g opacity="0">
		<text transform="matrix(1 0 0 1 647.8613 341.4189)" fill="#040000" font-family="'ArialMT'" font-size="15">4</text>
		<rect x="546.414" y="298.002" fill="none" stroke="#040000" stroke-width="0.714" width="134" height="94.951"/>
	</g>
</g>
<g>
	<g>
		<path fill="#FFFFFF" stroke="#E60012" stroke-width="1.5912" d="M476.409,364.314c0,4.019-3.256,7.276-7.276,7.276
			c-4.017,0-7.272-3.258-7.272-7.276c0-4.018,3.256-7.275,7.272-7.275C473.153,357.039,476.409,360.297,476.409,364.314z"/>
		<rect x="445.911" y="376.109" fill="#00A0E9" width="63.021" height="26.246"/>
		<g>
			<g>
				<path fill="#0B318F" d="M461.226,381.789c0.894,0,1.787-0.024,2.681-0.074v1.564c-0.894-0.049-1.787-0.075-2.681-0.075h-3.054
					v4.021h4.766c0.942,0,1.787-0.024,2.532-0.074v1.564c-0.696-0.049-1.515-0.075-2.457-0.075h-4.617
					c0.694,1.887,1.687,3.5,2.979,4.84c1.29,1.34,2.953,2.26,4.989,2.755c-0.695,0.546-1.117,1.042-1.266,1.489
					c-1.54-0.547-2.954-1.402-4.245-2.569c-1.291-1.166-2.408-2.842-3.351-5.027c-0.596,2.036-1.54,3.662-2.83,4.878
					c-1.291,1.217-2.904,2.246-4.84,3.09c-0.199-0.497-0.622-0.968-1.267-1.415c1.439-0.397,2.953-1.229,4.543-2.495
					c1.588-1.266,2.705-3.115,3.351-5.548h-4.096c-1.093,0-2.011,0.026-2.755,0.075v-1.564c0.793,0.05,1.713,0.074,2.755,0.074
					h4.319v-4.021h-3.128c-1.042,0-1.936,0.025-2.681,0.075v-1.564c0.794,0.05,1.688,0.074,2.681,0.074H461.226z"/>
				<path fill="#0B318F" d="M470.757,394.746c-0.497,0.994-0.968,1.985-1.415,2.979c-0.446-0.447-0.943-0.845-1.489-1.191
					c0.596-0.695,1.142-1.489,1.639-2.383c0.495-0.894,0.968-1.787,1.414-2.681c0.298,0.348,0.671,0.696,1.117,1.043
					C471.675,393.009,471.253,393.753,470.757,394.746z M474.183,382.459h3.872c0-0.397-0.025-0.868-0.074-1.415h1.563
					c-0.05,0.547-0.074,1.018-0.074,1.415h2.383c1.142,0,2.184-0.024,3.128-0.075v1.266c-0.895-0.049-1.937-0.074-3.128-0.074
					h-2.383c0,0.398,0.024,0.845,0.074,1.34h-1.489v-1.34h-3.872v1.712h-1.489c0.049-0.843,0.074-1.415,0.074-1.712h-1.713
					c-1.093,0-2.11,0.05-3.053,0.149v-1.341c0.942,0.05,1.96,0.075,3.053,0.075h1.713c0-0.397-0.025-0.868-0.074-1.415h1.563
					C474.207,381.591,474.183,382.062,474.183,382.459z M470.161,388.975c0.446,0.273,0.942,0.609,1.489,1.005
					c-0.397,0.398-0.745,0.795-1.043,1.191c-0.397-0.347-0.794-0.645-1.191-0.894c-0.397-0.248-0.869-0.521-1.414-0.819
					c0.347-0.347,0.645-0.745,0.894-1.191C469.292,388.466,469.714,388.703,470.161,388.975z M471.055,385.698
					c0.396,0.273,0.868,0.608,1.415,1.005c-0.398,0.298-0.721,0.646-0.968,1.042c-0.398-0.347-0.808-0.67-1.229-0.968
					s-0.856-0.545-1.303-0.745c0.347-0.447,0.645-0.819,0.894-1.117C470.26,385.166,470.656,385.426,471.055,385.698z
					 M476.938,385.959h6.33c-0.298,0.646-0.771,1.377-1.415,2.197c-0.646,0.819-1.266,1.452-1.862,1.899
					c0.597,0.249,1.267,0.447,2.011,0.596c0.745,0.149,1.862,0.223,3.352,0.223c-0.398,0.497-0.646,1.018-0.745,1.564
					c-1.143-0.149-2.172-0.335-3.09-0.559c-0.92-0.223-1.851-0.533-2.793-0.931c-0.744,0.398-1.502,0.733-2.271,1.005
					c-0.77,0.273-1.948,0.633-3.537,1.08c-0.148-0.545-0.422-1.017-0.818-1.415c1.042-0.099,2.059-0.285,3.053-0.558
					c0.992-0.272,1.812-0.583,2.457-0.931c-0.397-0.298-0.77-0.607-1.116-0.931c-0.349-0.322-0.671-0.682-0.969-1.08
					c-0.249,0.398-0.795,1.068-1.638,2.01c-0.349-0.396-0.745-0.719-1.191-0.968c0.744-0.596,1.452-1.365,2.122-2.309
					c0.67-0.942,1.104-1.762,1.303-2.458c0.447,0.249,1.018,0.447,1.713,0.596C477.582,385.19,477.284,385.512,476.938,385.959z
					 M482.82,394.746v0.968c0,0.745,0.024,1.539,0.074,2.383h-1.489v-0.968h-5.212v1.042h-1.564
					c0.049-0.845,0.074-1.664,0.074-2.458v-0.968c0-0.596-0.025-1.266-0.074-2.011h8.266
					C482.845,393.381,482.82,394.051,482.82,394.746z M481.405,396.012v-2.159h-5.212v2.159H481.405z M479.953,388.305
					c0.322-0.373,0.658-0.782,1.006-1.229h-4.691c0.248,0.398,0.607,0.819,1.079,1.266s0.932,0.795,1.378,1.042
					C479.221,389.038,479.63,388.677,479.953,388.305z"/>
				<path fill="#0B318F" d="M490.863,388.417c-0.349,0.447-0.646,0.869-0.895,1.266c-0.446-0.447-1.539-1.216-3.276-2.309
					c0.298-0.396,0.57-0.769,0.819-1.117C488.653,386.953,489.771,387.672,490.863,388.417z M490.527,393.89
					c-0.521,1.068-0.906,1.887-1.154,2.458c-0.249,0.57-0.547,1.203-0.894,1.899c-0.397-0.398-0.869-0.771-1.414-1.117
					c0.495-0.348,1.128-1.291,1.898-2.83c0.77-1.538,1.277-2.655,1.526-3.351c0.298,0.398,0.671,0.745,1.117,1.042
					C491.408,392.189,491.049,392.823,490.527,393.89z M491.235,383.948c-0.348,0.398-0.646,0.795-0.894,1.191
					c-0.845-0.745-1.838-1.538-2.979-2.383c0.298-0.248,0.596-0.57,0.894-0.968C489.397,382.583,490.391,383.304,491.235,383.948z
					 M493.171,386.741c-0.596,0.622-1.018,1.13-1.266,1.527c-0.348-0.347-0.72-0.645-1.117-0.894
					c0.248-0.198,0.583-0.533,1.006-1.005c0.421-0.471,0.856-1.054,1.303-1.75c0.298,0.348,0.745,0.67,1.341,0.968
					C494.188,385.735,493.767,386.121,493.171,386.741z M498.235,382.757h3.574c0.596,0,1.29-0.024,2.085-0.075v1.266
					c-0.795-0.049-1.465-0.074-2.011-0.074h-2.159v3.723h-1.267v-3.723h-2.085v3.872h-1.266v-3.872h-1.117
					c-0.795,0-1.589,0.025-2.383,0.074v-1.266c0.794,0.05,1.538,0.075,2.234,0.075h2.829c-0.198-0.546-0.446-1.117-0.744-1.713
					c0.495-0.099,0.992-0.223,1.489-0.372C497.714,381.268,497.986,381.963,498.235,382.757z M501.81,388.491
					c-0.05,0.745-0.074,1.415-0.074,2.011c0,0.547,0.024,1.092,0.074,1.638h-7.596l-0.149,1.266h8.713
					c-0.249,1.539-0.422,2.606-0.521,3.202c-0.1,0.596-0.409,1.029-0.931,1.303c-0.521,0.272-1.601,0.458-3.239,0.559
					c-0.05-0.596-0.224-1.143-0.521-1.638c1.39,0.099,2.32,0.049,2.793-0.149c0.471-0.199,0.731-0.894,0.782-2.085h-8.639
					c0.248-1.489,0.396-2.706,0.447-3.649h7.596v-1.34h-5.511c-0.646,0-1.366,0.025-2.16,0.074v-1.266
					c0.794,0.05,1.564,0.074,2.309,0.074H501.81z M502.89,385.922c0.62,0.422,1.154,0.807,1.601,1.154
					c-0.348,0.298-0.695,0.67-1.043,1.117c-0.248-0.298-0.633-0.657-1.153-1.08c-0.521-0.421-1.08-0.831-1.676-1.229
					c0.298-0.298,0.596-0.62,0.894-0.968C501.81,385.166,502.268,385.5,502.89,385.922z"/>
			</g>
		</g>
		<polygon fill="#00A0E9" points="488.952,346.159 471.269,339.132 471.269,338.799 469.59,338.799 469.59,367.476 471.269,367.476 
			471.269,353.891 		"/>
	</g>
	<g opacity="0">
		<text transform="matrix(1 0 0 1 492.8516 354.563)" fill="#040000" font-family="'ArialMT'" font-size="15">3</text>
		<rect x="411.655" y="314.015" fill="none" stroke="#040000" stroke-width="0.6682" width="117.345" height="94.951"/>
	</g>
</g>
<g>
	<g>
		<circle fill="#FFFFFF" stroke="#E60012" stroke-width="1.6622" cx="324.839" cy="324.549" r="7.599"/>
		<rect x="335.432" y="310.842" fill="#E60012" width="65.833" height="27.414"/>
		<g>
			<g>
				<path fill="#FFFFFF" d="M360.948,318.872c0.726,0,1.426-0.025,2.101-0.078v1.4c-0.675-0.051-1.35-0.078-2.022-0.078h-5.757
					l-0.467,4.123h6.067c-0.104,0.622-0.155,1.4-0.155,2.333l-0.156,5.679c1.66,0,2.852-0.025,3.579-0.078v1.634
					c-0.727-0.053-1.789-0.078-3.189-0.078h-11.202c-1.245,0-2.23,0.051-2.956,0.156v-1.711c0.778,0.052,1.711,0.078,2.801,0.078
					h2.567l0.934-6.768h-1.867c-0.933,0-1.686,0.027-2.256,0.078v-1.4c0.623,0.052,1.374,0.078,2.256,0.078h2.101l0.467-4.123h-3.5
					c-0.831,0-1.608,0.027-2.334,0.078v-1.4c0.673,0.052,1.451,0.078,2.334,0.078H360.948z M359.003,332.251l0.233-6.768h-4.59
					l-0.934,6.768H359.003z"/>
				<path fill="#FFFFFF" d="M374.64,316.616c0.726,0.83,1.296,1.583,1.712,2.256c-0.571,0.311-1.012,0.544-1.322,0.7h8.635
					c-0.053,0.727-0.078,1.271-0.078,1.633c0,0.364,0.025,0.856,0.078,1.478h-1.634v-1.867h-13.458v1.867h-1.634
					c0.051-0.414,0.078-0.881,0.078-1.4c0-0.518-0.027-1.089-0.078-1.711h7.779c-0.416-0.778-0.883-1.478-1.4-2.101
					C373.629,317.265,374.068,316.979,374.64,316.616z M380.708,325.095c0,0.623,0.025,1.323,0.077,2.101h-9.257v1.867h10.19v2.956
					c0,1.089,0.025,2.126,0.078,3.112h-1.712v-1.167h-8.479v1.167h-1.79c0.052-1.194,0.078-3.267,0.078-6.223
					s-0.026-5.057-0.078-6.301h10.969C380.733,323.591,380.708,324.421,380.708,325.095z M379.151,325.951v-2.023h-7.623v2.023
					H379.151z M380.085,332.641v-2.334h-8.557v2.334H380.085z"/>
			</g>
		</g>
		<polygon fill="#E60012" points="345.885,302.391 327.411,295.05 327.411,294.703 325.658,294.703 325.658,324.659 
			327.411,324.659 327.411,310.469 		"/>
	</g>
	<g opacity="0">
		<text transform="matrix(1 0 0 1 291.5361 346.1812)" fill="#040000" font-family="'ArialMT'" font-size="15">1</text>
		<rect x="288.605" y="262.088" fill="none" stroke="#040000" stroke-width="0.714" width="134" height="94.951"/>
	</g>
</g>
<g>
	<g>
		<circle fill="#FFFFFF" stroke="#E60012" stroke-width="1.5917" cx="227.226" cy="413.472" r="7.276"/>
		<rect x="197.979" y="424.738" fill="#00A0E9" width="63.039" height="26.25"/>
		<g>
			<g>
				<path fill="#0B318F" d="M224.886,429.521c0.942,0,1.911-0.024,2.905-0.075v1.564c-1.093-0.049-2.061-0.075-2.905-0.075h-5.14
					v11.472c0,0.646,0.024,1.464,0.074,2.458h-1.713c0.049-0.894,0.075-1.713,0.075-2.458v-11.472h-4.097
					c-0.994,0-1.962,0.026-2.905,0.075v-1.564c0.943,0.05,1.911,0.075,2.905,0.075H224.886z M225.482,440.545
					c-0.795-1.043-2.334-2.607-4.618-4.693l1.117-1.117c1.341,1.093,2.954,2.632,4.842,4.618
					C226.326,439.702,225.879,440.099,225.482,440.545z"/>
				<path fill="#0B318F" d="M242.13,429.819c-0.324,0.547-0.633,1.068-0.931,1.564h2.384c0.745,0,1.613-0.024,2.607-0.075v1.416
					c-0.944-0.049-1.813-0.075-2.607-0.075h-4.171v3.203h3.128c0.695,0,1.49-0.024,2.384-0.075v1.341
					c-0.894-0.049-1.689-0.074-2.384-0.074h-3.128v2.756h5.14c0.745,0,1.613-0.024,2.607-0.074v1.415
					c-0.994-0.049-1.862-0.074-2.607-0.074h-5.14v1.639c0,0.745,0.024,1.663,0.074,2.756h-1.713
					c0.049-1.093,0.074-2.011,0.074-2.756v-1.639h-5.289c-0.745,0-1.614,0.025-2.607,0.074v-1.415
					c1.042,0.05,1.911,0.074,2.607,0.074h5.289v-2.756h-3.352c-0.696,0-1.54,0.025-2.532,0.074v-1.341
					c0.993,0.05,1.836,0.075,2.532,0.075h3.352v-3.203h-4.171c-0.894,0-1.837,0.026-2.831,0.075v-1.416
					c0.993,0.05,1.911,0.075,2.756,0.075h6.108c0.298-0.645,0.583-1.229,0.857-1.75c0.272-0.521,0.508-1.104,0.708-1.75
					c0.645,0.249,1.291,0.473,1.937,0.67C242.813,428.851,242.453,429.273,242.13,429.819z M236.805,430.489l-1.49,0.745
					c-0.596-1.341-1.093-2.209-1.49-2.607c0.496-0.198,0.969-0.447,1.416-0.745C235.985,429.074,236.506,429.943,236.805,430.489z"
					/>
			</g>
		</g>
		<polygon fill="#E60012" points="246.99,392.419 229.302,385.387 229.302,385.055 227.622,385.055 227.622,413.739 
			229.302,413.739 229.302,400.151 		"/>
	</g>
	<g opacity="0">
		<text transform="matrix(1 0 0 1 173.0361 415.3081)" fill="#040000" font-family="'ArialMT'" font-size="15">2</text>
		<rect x="156.605" y="375.049" fill="none" stroke="#040000" stroke-width="0.714" width="134" height="94.951"/>
	</g>
</g>
<g>
	<g>
		<g>
			<polygon fill="#E60012" stroke="#E72922" stroke-width="0.6489" points="405.198,447.334 407.049,453.025 413.032,453.025 
				408.191,456.542 410.04,462.238 405.198,458.719 400.355,462.238 402.206,456.542 397.362,453.025 403.349,453.025 			"/>
		</g>
		<g>
			<g>
				<path fill="#DD4422" d="M464.089,407.744h-75.021c-2.563,0-4.639,2.228-4.639,4.978v19.914c0,2.748,2.076,4.978,4.639,4.978
					h6.132l5.854,10.75l5.48-10.75h57.554c2.564,0,4.643-2.23,4.643-4.978v-19.914C468.731,409.972,466.653,407.744,464.089,407.744
					z"/>
				<path fill="#E76E43" d="M463.174,408.966h-72.963c-2.493,0-4.514,2.02-4.514,4.514v18.053c0,2.493,2.021,4.513,4.514,4.513
					h5.962l4.856,9.992l5.079-9.992h57.065c2.494,0,4.515-2.02,4.515-4.513v-18.053
					C467.688,410.986,465.668,408.966,463.174,408.966z"/>
			</g>
			<g>
				<path fill="#FFFFFF" d="M410.65,421.822v1.904c-0.764-0.112-1.464-0.168-2.102-0.168h-5.052v5.802
					c0.02,0.855-0.247,1.434-0.8,1.736c-0.526,0.329-1.578,0.526-3.157,0.592c-0.164-0.658-0.414-1.368-0.75-2.131
					c0.98,0.125,1.642,0.188,1.983,0.188c0.592,0.04,0.861-0.224,0.81-0.79v-5.397h-5.782c-0.572,0-1.279,0.05-2.121,0.148v-1.865
					c0.928,0.105,1.635,0.158,2.121,0.158h12.748C409.062,422,409.762,421.941,410.65,421.822z M401.276,412.627
					c0.993,0.776,1.888,1.579,2.685,2.407l-0.849,0.809h4.992c0.572,0,1.279-0.063,2.121-0.188
					c-0.105,0.855-0.158,1.477-0.158,1.865v0.75c-0.006,0.388,0.04,1.033,0.139,1.934h-2.121c0.092-0.901,0.138-1.545,0.138-1.934
					v-0.868h-12.155v0.927c0,0.526,0.053,1.171,0.158,1.934h-2.142c0.105-0.789,0.158-1.434,0.158-1.934v-0.77
					c0-0.46-0.053-1.095-0.158-1.904c0.928,0.125,1.647,0.188,2.161,0.188h5.92c-0.651-0.671-1.385-1.319-2.2-1.944L401.276,412.627
					z"/>
				<path fill="#FFFFFF" d="M431.79,431.501h-2.181c0.125-0.487,0.185-0.983,0.178-1.49h-7.074c0.02,0.585,0.082,1.115,0.188,1.588
					h-2.141c0.099-0.625,0.151-1.263,0.157-1.914v-4.756c0-0.197-0.02-0.487-0.059-0.868c-0.757,0.533-1.694,1.128-2.813,1.786
					c-0.414-0.592-1.032-1.164-1.854-1.717c3.795-1.125,6.946-3.792,9.452-8.001l1.599,0.582c0.381,0.151,0.565,0.283,0.552,0.395
					c0.007,0.112-0.184,0.27-0.572,0.474l-0.078,0.079c1.486,2.059,3.364,3.582,5.634,4.568c0.993,0.408,2.016,0.69,3.068,0.848
					c-0.75,0.54-1.322,1.151-1.717,1.835c-0.882-0.342-1.697-0.717-2.447-1.125c-0.046,0.428-0.072,0.816-0.079,1.165v4.795
					C431.616,430.376,431.679,430.962,431.79,431.501z M422.407,413.258l1.539,1.145c0.197,0.158,0.296,0.313,0.296,0.464
					c0,0.039-0.007,0.076-0.02,0.108c-0.086,0.178-0.306,0.292-0.661,0.345c-0.065,0.013-0.233,0.155-0.503,0.424
					c-1.224,1.401-2.549,2.667-3.977,3.798c-0.553-0.533-1.128-1.013-1.727-1.44C419.736,416.761,421.421,415.146,422.407,413.258z
					 M426.088,419.05c-1.322,1.69-2.737,3.115-4.243,4.272c0.27,0.026,0.592,0.039,0.967,0.039h6.917
					c0.407,0.007,0.77-0.013,1.085-0.059C429.149,422.303,427.574,420.885,426.088,419.05z M422.753,428.512h7.034v-3.641h-7.034
					V428.512z M428.899,413.199l1.599,1.184c1.467,1.079,2.713,2.023,3.739,2.832l-1.382,1.559
					c-1.881-1.789-3.644-3.164-5.288-4.124L428.899,413.199z"/>
				<path fill="#FFFFFF" d="M442.64,422.937h0.967v-2.062c-0.256,0.007-0.881,0.066-1.874,0.178v-0.582
					c-0.54-0.447-1.194-0.737-1.964-0.868c1.743-1.48,2.996-3.703,3.76-6.67l1.756,0.829c0.303,0.158,0.449,0.313,0.439,0.464
					c-0.011,0.151-0.177,0.286-0.499,0.405c-0.105,0.053-0.272,0.322-0.503,0.809c-0.053,0.079-0.194,0.349-0.424,0.809h1.874
					c0.572-0.02,1.227-0.075,1.964-0.167v1.825c-0.862-0.099-1.51-0.154-1.944-0.167h-2.604c-0.401,0.671-0.736,1.21-1.006,1.618
					c0.44,0.04,0.789,0.06,1.046,0.06h2.16c0.56-0.026,1.194-0.085,1.904-0.178v1.796c-0.796-0.092-1.431-0.145-1.904-0.158h-0.404
					v2.062h0.789c0.526-0.026,1.168-0.088,1.924-0.187v1.805c-0.053-0.006-0.128-0.013-0.227-0.02
					c-1.013-0.099-1.572-0.148-1.678-0.148h-0.809v3.374c0.632-0.48,1.266-1.019,1.904-1.618c0.111,0.756,0.279,1.378,0.503,1.865
					c-1.914,1.447-3.111,2.443-3.591,2.989l-1.362-1.717c0.362-0.243,0.576-0.44,0.642-0.592c0.092-0.151,0.135-0.44,0.128-0.868
					v-3.434h-0.967c-0.224,0-0.865,0.046-1.924,0.138v-1.756C441.598,422.868,442.238,422.924,442.64,422.937z M448.402,431.462
					c-0.276-0.566-0.776-1.072-1.5-1.52c2.157-0.559,3.68-1.401,4.568-2.526h-1.638c-0.185,0-0.853,0.063-2.003,0.188v-1.825
					c0.657,0.085,1.15,0.135,1.479,0.148v-8.811h3.187v-0.829h-2.299c-0.111,0-0.52,0.033-1.223,0.099
					c-0.329,0.026-0.569,0.046-0.721,0.06v-1.835c0.717,0.092,1.365,0.151,1.943,0.178h2.299l-0.138-1.895l1.815,0.237
					c0.236,0.046,0.392,0.158,0.464,0.335c0.006,0.026,0.01,0.063,0.01,0.108c0,0.138-0.069,0.26-0.207,0.365
					c-0.093,0.079-0.139,0.362-0.139,0.849h2.546c0.572-0.026,1.217-0.085,1.934-0.178v1.835c-0.118-0.013-0.306-0.03-0.563-0.049
					c-0.803-0.073-1.26-0.109-1.371-0.109h-2.546v0.829h3.306v8.811h0.02c0.513-0.02,1.115-0.082,1.806-0.188v1.845
					c-1.026-0.112-1.628-0.168-1.806-0.168h-2.121c1.513,0.756,2.842,1.565,3.986,2.427l-1.115,1.52
					c-1.322-1.125-2.736-2.023-4.242-2.694l0.868-1.253h-3.029l1.056,0.79c0.27,0.21,0.404,0.381,0.404,0.513
					c0,0.02-0.012,0.066-0.034,0.138c-0.023,0.072-0.235,0.132-0.637,0.178c-0.145-0.013-0.454,0.142-0.928,0.464
					C450.776,430.274,449.632,430.929,448.402,431.462z M455.831,419.336v-0.809h-4.745v0.809H455.831z M451.086,421.517h4.745
					v-0.76h-4.745V421.517z M455.831,423.677v-0.74h-4.745v0.74H455.831z M451.086,425.098v0.829h4.745v-0.829H451.086z"/>
			</g>
		</g>
	</g>
	<g opacity="0">
		<text transform="matrix(1 0 0 1 434.5361 480.2036)" fill="#040000" font-family="'ArialMT'" font-size="15">0</text>
		<rect x="351.009" y="397.549" fill="none" stroke="#040000" stroke-width="0.714" width="134" height="94.951"/>
	</g>
</g>

</svg>