<svg version="1.0" id="图层_1" xmlns="http://www.w3.org/2000/svg" xmlns:xlink="http://www.w3.org/1999/xlink" x="0px" y="0px" 
	width="100%" height="100%" viewBox="0 0 720 1280" xml:space="preserve"
  style="position: relative;display: block;"
  >
<g>
	<g>
		<path opacity="0.6" fill="#FFFFFF" stroke="#00A0E9" stroke-width="5.1598" d="M710.978,536.004c0,0-10.056-7.736-10.056-11.601
			c0-3.869,4.642-10.829-2.319-13.147c-6.961-2.32-13.147-3.869-15.467-6.188c-2.323-2.318-5.414-8.506-10.058-17.015
			c-4.639-8.506-7.732-13.923-7.732-13.923s-12.375-10.794-15.469-14.679c-3.095-3.881-13.147-7.793-17.789-13.185
			c-4.641-5.392-12.374-14.671-13.148-16.993c-0.774-2.319-3.865-26.297-3.091-29.391c0.771-3.093,10.055-9.795,7.733-27.326
			c-2.323-17.532-0.774-39.187-3.096-40.734c-2.321-1.547-9.279-14.963-10.826-16.764c-1.098-1.277-3.368-8.653-5.698-13.662
			c-1.316,0.41-2.829,0.762-4.616,1.036c-13.407,2.064-40.217-35.061-40.217-35.061l-19.385-40.217l-22.896,23.717l-36.093,31.968
			c0,0-18.564,9.282-25.78,9.282c-7.221,0-49.501,8.25-49.501,8.25s-6.187,3.094-29.905,13.406v18.045
			c0,0-8.761,19.335-14.176,23.976c-5.414,4.641-14.697,12.375-14.697,12.375l-9.279,7.735c0,0,7.733,36.35-40.992,56.458
			c0,0-44.087,27.842-46.404,27.069c-2.321-0.772-92.039-14.693-106.732-13.921c-14.696,0.774-14.696,0.774-14.696,0.774
			s-14.951,18.046-18.044,18.046c-3.094,0-6.186,4.124-19.595,0c-13.402-4.126-39.185-4.884-39.185-4.884
			s-19.594-12.647-23.719-13.162c-4.123-0.515-13.405,8.281-13.405,13.162v32.728L4.332,520.02c0,0,3.093,18.563,0,21.656
			c-3.096,3.093,68.062,26.814,68.062,26.814l5.154,10.31c0,0-0.219,1.185-0.688,2.906l16.469,17.687l44.312,62.128
			c0,0,80.877,17.493,83.272,16.438c2.398-1.032,56.128,0,56.128,0h102.228l77.409,11.039l87.113,37.472l3.881-0.204
			c0,0,23.835,2.062,26.928,0c3.093-2.063,9.279,0,15.726,0s10.055,0,13.146,0c3.096,0,12.376-5.157,12.376-5.157l9.282-15.726
			l6.961-3.091c-2.319,0-22.428-6.188-22.428-9.282c0-3.095-8.508-11.603-8.508-11.603s5.414-15.469,7.733-16.243
			c2.321-0.772,26.297-10.053,29.391-11.6c3.093-1.547,13.922-6.187,16.241-7.733c2.32-1.547,8.508-2.321,13.149-4.642
			c4.638-2.319,22.43-21.658,22.43-23.977c0-2.316,24.749-44.854,24.749-55.686C714.846,550.7,710.978,536.004,710.978,536.004z"/>
		
			<text transform="matrix(1 0 0 1 568.0771 359.916)" opacity="0" fill="#040000" enable-background="new    " font-family="'SimHei'" font-size="20">轮廓</text>
	</g>
	<g>
		<g>
			<circle fill="#E60012" stroke="#E72922" stroke-width="5.6807" cx="323.344" cy="573.381" r="7.243"/>
			<g>
				<path fill="#FFFFFF" stroke="#E72922" stroke-width="2.2723" d="M285.359,594.989l2.852,1.63l-1.222,0.951l-1.358,3.124h13.173
					l2.037-2.037l2.852,2.852h-7.333c-1.541,3.442-3.124,6.294-4.753,8.556c3.711,1.178,6.359,2.196,7.945,3.056
					c1.583,0.861,2.33,1.719,2.241,2.58c-0.091,0.859-0.318,1.291-0.679,1.291c-0.454,0-1.178-0.408-2.173-1.223
					c-1.721-1.538-4.481-3.032-8.284-4.481c-1.993,1.901-4.414,3.372-7.266,4.414c-2.852,1.04-5.999,1.698-9.438,1.969l-0.136-0.543
					c6.879-1.178,11.86-3.349,14.938-6.519c-3.17-1.086-6.066-1.901-8.691-2.444c1.086-1.719,2.173-3.938,3.259-6.655h-7.877
					l-1.358,0.272l-1.086-1.086h10.593C284.498,598.521,285.088,596.619,285.359,594.989z M297.718,596.619l1.494-3.531h-20.643
					c0.089,1.63-0.136,2.672-0.679,3.124c-0.543,0.454-0.998,0.679-1.358,0.679c-0.182,0-0.475-0.089-0.882-0.271
					c-0.408-0.181-0.611-0.361-0.611-0.543c0-0.271,0.316-0.679,0.951-1.222c0.995-0.815,1.629-2.217,1.901-4.21h0.679v1.63h20.371
					l1.494-1.63l2.444,2.444c-1.358,0.091-2.898,1.313-4.618,3.667L297.718,596.619z M285.359,601.508
					c-0.998,2.173-2.037,4.257-3.124,6.248c3.349,0.726,5.793,1.313,7.333,1.765c1.63-2.173,3.124-4.842,4.481-8.013H285.359z
					 M286.174,586.298l0.271-0.408c1.719,0.998,2.829,1.789,3.327,2.377c0.497,0.59,0.747,1.109,0.747,1.562
					c0,0.454-0.183,0.906-0.543,1.358c-0.363,0.454-0.634,0.679-0.814,0.679c-0.272,0-0.499-0.452-0.679-1.358
					C288.12,589.149,287.35,587.747,286.174,586.298z"/>
				<path fill="#FFFFFF" stroke="#E72922" stroke-width="2.2723" d="M310.212,587.52l2.852,1.358l-1.086,0.951
					c0,2.899,0,5.931,0,9.099c0,3.17-0.136,6.158-0.407,8.963c-0.272,2.807-1.585,5.704-3.938,8.691l-0.408-0.271
					c1.81-3.168,2.784-6.971,2.92-11.408c0.136-4.435,0.204-7.514,0.204-9.235C310.348,593.95,310.301,591.233,310.212,587.52z
					 M314.286,611.15c0.089-3.711,0.136-7.242,0.136-10.593c0-3.349-0.046-6.519-0.136-9.507l2.581,1.223l-0.815,0.814v12.494
					c0,0.906,0.044,2.355,0.136,4.346L314.286,611.15z M320.397,606.125c0,4.166,0.045,7.018,0.136,8.556l-1.901,1.086
					c0.089-1.358,0.136-3.667,0.136-6.926v-13.038c0-4.435-0.047-7.287-0.136-8.556l2.58,1.358l-0.815,0.815V606.125z
					 M331.941,598.656l-1.086,0.951c0,2.173-0.068,4.528-0.204,7.062c-0.136,2.536-0.951,4.686-2.444,6.451
					c-1.494,1.765-4.189,3.327-8.081,4.685l-0.136-0.407c3.531-1.812,5.884-3.531,7.062-5.161c1.175-1.63,1.81-3.847,1.901-6.655
					c0.089-2.805,0.089-5.568,0-8.284L331.941,598.656z M322.978,610.064c0.089-2.805,0.136-5.636,0.136-8.488
					c0-2.852-0.047-5.636-0.136-8.353l1.901,1.086h2.852c0.543-2.533,0.815-4.163,0.815-4.889h-2.444
					c-1.178,0-2.264,0.136-3.259,0.407l-1.223-1.222h13.445l1.63-1.63l2.309,2.445h-7.876c-0.635,0.543-1.494,2.173-2.581,4.889
					h6.111l0.815-1.358l2.173,1.63l-0.951,0.951v7.469c0,1.541,0.044,3.395,0.136,5.568l-1.901,1.086v-14.531h-10.049v13.853
					L322.978,610.064z M331.126,609.249c3.531,1.812,5.589,3.056,6.179,3.735c0.587,0.679,0.883,1.381,0.883,2.105
					c0,0.452-0.091,0.927-0.272,1.426c-0.182,0.497-0.318,0.747-0.407,0.747c-0.183,0-0.454-0.271-0.815-0.815
					c-0.543-0.998-1.178-1.948-1.901-2.852c-0.726-0.904-2.037-2.217-3.938-3.938L331.126,609.249z"/>
				<path fill="#FFFFFF" stroke="#E72922" stroke-width="2.2723" d="M347.288,614.545c0.089-3.439,0.136-6.812,0.136-10.118
					c0-3.304-0.047-5.997-0.136-8.081l2.037,1.223h7.469v-4.753h-9.506c-1.178,0-2.264,0.136-3.26,0.407l-1.222-1.222h25.26
					l2.173-2.173l2.988,2.988h-14.531v4.753h7.605l0.95-1.358l2.444,1.63l-1.222,0.951v11.951c0,1.721-1.042,2.943-3.124,3.667
					c0-1.267-1.269-2.262-3.803-2.988v-0.543c1.539,0.182,2.784,0.271,3.735,0.271c0.95,0,1.379-0.543,1.29-1.63v-11.136h-7.877
					v13.717c0,1.629,0.044,3.259,0.136,4.889l-2.173,0.95c0.089-2.355,0.136-4.57,0.136-6.654v-12.902h-7.469v15.21L347.288,614.545
					z M354.757,586.434l0.271-0.408c1.81,0.906,2.964,1.653,3.463,2.241c0.497,0.59,0.747,1.065,0.747,1.426
					c0,0.183-0.114,0.522-0.339,1.019c-0.227,0.499-0.543,0.815-0.951,0.951s-0.747-0.339-1.019-1.426
					C356.658,589.241,355.932,587.974,354.757,586.434z"/>
			</g>
			<g>
				<path fill="#1D2088" d="M307.408,635.866l-0.896,0.896c0,8.58,0.037,13.579,0.112,14.996l-1.566,0.783v-2.238h-17.346v1.79
					l-1.567,0.783c0.073-1.566,0.112-4.588,0.112-9.064c0-4.476-0.039-7.459-0.112-8.952l1.567,0.895h5.036v-5.26h-5.819
					c-0.598,0-1.306,0.112-2.126,0.336l-1.007-1.007h20.815l1.679-1.566l2.126,2.238h-8.505v5.26h4.924l0.784-1.231L307.408,635.866
					z M299.91,636.426v6.715c0,0.671,0.224,1.007,0.671,1.007s0.896,0,1.343,0c0.448,0,0.857-0.073,1.231-0.224
					c0.297-0.148,0.56-0.13,0.784,0.056c0.224,0.188,0.392,0.467,0.503,0.84c0.112,0.374,0.018,0.578-0.28,0.615
					c-0.299,0.038-0.747,0.056-1.343,0.056h-2.35c-1.418,0-2.089-0.596-2.014-1.79v-7.274h-4.253c0,3.209-0.503,5.615-1.511,7.218
					c-1.007,1.605-2.406,3.005-4.196,4.197l-0.224-0.336c1.566-1.416,2.686-2.927,3.357-4.532c0.671-1.604,1.044-3.786,1.119-6.547
					h-5.036v13.205h17.346v-13.205H299.91z M294.203,630.495v5.26h4.253v-5.26H294.203z"/>
				<path fill="#1D2088" d="M337.959,640.231c-1.119,0.075-1.866,0.522-2.238,1.342c-1.866-0.895-3.525-1.938-4.98-3.133
					c-1.455-1.193-2.78-2.759-3.973-4.7h-0.895c0,2.836,0.037,4.588,0.112,5.26l-1.679,0.671c0.073-2.834,0.112-4.812,0.112-5.931
					c-1.866,2.165-3.787,3.936-5.763,5.315c-1.978,1.381-4.16,2.518-6.547,3.413l-0.112-0.336c2.015-1.043,3.897-2.293,5.651-3.749
					c1.752-1.455,3.301-3.002,4.645-4.644h-6.043c-0.97,0-1.866,0.112-2.686,0.335l-1.007-1.007h11.862v-3.357
					c-2.836,0.15-5.707,0.262-8.617,0.336V629.6c2.91-0.224,5.968-0.541,9.176-0.951c3.207-0.409,5.669-0.951,7.386-1.623
					l1.567,1.902c-1.045,0-3.731,0.187-8.057,0.56v3.581h7.945l1.679-1.567l2.014,2.238h-10.184
					c1.343,1.642,2.946,2.985,4.812,4.029c1.864,1.045,3.805,1.753,5.819,2.126V640.231z M326.208,650.079
					c2.536,0.521,3.973,0.744,4.309,0.671c0.335-0.075,0.633-0.372,0.895-0.896c0.261-0.521,0.652-2.087,1.175-4.7h-4.365
					l-0.783,0.896l-1.343-1.454c0.596-0.074,1.304-1.193,2.126-3.357h-5.259c-0.299,1.79-0.728,3.396-1.287,4.812
					c-0.56,1.418-1.493,2.725-2.798,3.917c-1.306,1.192-3.228,2.275-5.763,3.245l-0.224-0.336c1.939-0.97,3.506-2.07,4.7-3.301
					c1.192-1.231,2.051-2.499,2.574-3.805c0.521-1.305,0.857-2.815,1.007-4.532h-0.224c-0.97,0-1.866,0.111-2.686,0.335
					l-1.007-1.007h10.967l0.896-1.119l1.679,1.455l-1.007,0.56l-1.455,3.021h4.141l0.895-1.231l1.679,1.455l-1.007,0.783
					c-0.598,3.061-1.063,4.907-1.399,5.54c-0.335,0.633-0.766,1.1-1.287,1.398c-0.523,0.297-1.194,0.521-2.015,0.672
					c0.149-0.971-0.934-1.829-3.245-2.574L326.208,650.079z"/>
				<path fill="#1D2088" d="M344.785,629.376h16.675l1.566-1.567l2.126,2.238h-20.367v20.926h17.122l1.566-1.566l2.015,2.238
					h-20.591l-0.671,1.007l-1.679-1.343l0.672-0.671v-18.465c0-0.671-0.039-1.939-0.112-3.805L344.785,629.376z M348.366,633.292
					c2.015,1.493,4.252,3.396,6.714,5.708c0.969-1.343,1.808-2.63,2.518-3.861c0.708-1.231,1.249-2.294,1.623-3.189l2.574,1.791
					c-0.671,0.15-1.493,0.878-2.461,2.182c-0.971,1.306-1.978,2.668-3.021,4.084c2.686,2.537,4.14,4.141,4.364,4.813
					c0.224,0.671,0.335,1.194,0.335,1.566c0,0.374-0.094,0.766-0.28,1.175c-0.187,0.411-0.318,0.616-0.392,0.616
					c-0.224,0-0.522-0.373-0.895-1.119c-0.598-1.044-1.213-1.995-1.847-2.854c-0.635-0.856-1.399-1.808-2.294-2.854
					c-1.567,1.718-3.06,3.172-4.477,4.364c-1.418,1.194-2.686,2.127-3.805,2.798l-0.224-0.335c1.343-1.119,2.61-2.295,3.805-3.525
					c1.192-1.231,2.387-2.703,3.581-4.42c-2.014-2.387-4.067-4.588-6.155-6.603L348.366,633.292z"/>
			</g>
		</g>
		<g>
			<g>
				<rect x="215.152" y="516.122" fill="#00A0E9" width="93.633" height="20.337"/>
				<g>
					<path fill="#FFFFFF" d="M226.727,530.634c-0.225-0.538-0.493-1.097-0.806-1.68l0.202-0.134
						c0.941,0.897,1.489,1.501,1.646,1.814c0.156,0.314,0.235,0.561,0.235,0.739c0,0.225-0.09,0.437-0.269,0.638
						c-0.18,0.202-0.314,0.303-0.403,0.303c-0.09,0-0.168-0.135-0.235-0.403c-0.067-0.269-0.146-0.582-0.235-0.941
						c-2.957,0.852-4.704,1.5-5.242,1.949l-0.672-1.344c0.358,0,1.411-0.157,3.158-0.471v-3.226h-1.545v0.471l-0.941,0.47
						c0.044-0.941,0.067-2.105,0.067-3.495c0-1.388-0.023-2.598-0.067-3.628l1.008,0.538h1.479c0-1.836-0.023-3.113-0.067-3.831
						l1.479,0.739l-0.538,0.47v2.621h1.411l0.605-0.672l0.874,0.941l-0.538,0.403c0,2.644,0.022,4.368,0.067,5.174l-0.941,0.336
						v-0.538h-1.479v3.091L226.727,530.634z M222.561,522.637v4.839h1.545v-4.839H222.561z M224.979,522.637v4.839h1.479v-4.839
						H224.979z M227.667,520.487h6.452l0.806-0.806l1.143,1.209h-3.831v11.828h2.285l0.941-0.941l1.277,1.344h-7.862
						c-0.628,0-1.188,0.067-1.68,0.202l-0.605-0.604h4.704V520.89h-1.411c-0.583,0-1.121,0.067-1.613,0.202L227.667,520.487z"/>
					<path fill="#FFFFFF" d="M250.785,531.709c0-4.167,0-6.473,0-6.922c0-0.447-0.023-1.119-0.067-2.016l1.613,0.739l-0.605,0.604
						c0,4.167,0,6.508,0,7.022c0,0.516,0.022,1.132,0.067,1.848l-1.008,0.47v-1.344h-9.677l-0.605,0.672l-0.94-0.941l0.538-0.47
						c0-3.987,0-6.205,0-6.653c0-0.447-0.023-1.097-0.067-1.949l1.546,0.672l-0.538,0.47v7.795h4.233c0-6.451,0-9.956,0-10.517
						c0-0.56-0.023-1.354-0.067-2.385l1.613,0.739l-0.604,0.47v11.693H250.785z"/>
					<path fill="#FFFFFF" d="M255.287,522.705c1.388,0.807,2.094,1.445,2.117,1.915c0.022,0.471-0.09,0.796-0.336,0.975
						c-0.247,0.18-0.46-0.044-0.638-0.672c-0.225-0.582-0.65-1.254-1.277-2.016L255.287,522.705z M260.058,520.958
						c-1.209,5.018-1.881,7.795-2.016,8.333c-0.18,0.583-0.258,1.276-0.235,2.083c0.022,0.806,0.056,1.366,0.101,1.68
						c0,0.178-0.112,0.269-0.336,0.269c-0.179,0-0.393-0.045-0.638-0.134c-0.247-0.09-0.37-0.292-0.37-0.605
						c0-0.224,0.067-0.582,0.202-1.075c0.089-0.358,0.134-0.716,0.134-1.075c0-0.313-0.101-0.548-0.302-0.706
						c-0.202-0.156-0.639-0.324-1.311-0.504v-0.269c0.806,0.09,1.311,0.124,1.512,0.101c0.201-0.022,0.425-0.224,0.672-0.605
						c0.246-0.38,1.019-2.9,2.318-7.56L260.058,520.958z M256.631,519.009c1.165,0.627,1.792,1.053,1.882,1.276
						c0.089,0.225,0.134,0.381,0.134,0.471c0,0.269-0.079,0.494-0.235,0.672c-0.158,0.18-0.258,0.269-0.303,0.269
						c-0.134,0-0.269-0.202-0.403-0.605c-0.225-0.582-0.627-1.209-1.209-1.882L256.631,519.009z M261.738,522.369
						c0-1.926-0.023-3.226-0.067-3.898l1.478,0.739l-0.604,0.471v2.688h1.008l0.672-0.672l1.008,1.075h-2.688v3.292h0.604
						l0.538-0.604l0.807,0.739l-0.471,0.336c0,2.061,0.022,3.494,0.067,4.301l-0.874,0.403v-0.807h-2.419v1.546l-0.874,0.403
						c0.044-1.119,0.067-2.251,0.067-3.394c0-1.142-0.023-2.295-0.067-3.461l0.874,0.538h0.941v-3.292
						c-0.448,0-0.918,0.067-1.411,0.202l-0.605-0.605H261.738z M260.797,526.468v3.562h2.419v-3.562H260.797z M266.644,527.409
						c-0.269,3.182-1.882,5.376-4.838,6.585l-0.067-0.201c1.657-1.031,2.766-2.229,3.327-3.596c0.56-1.366,0.817-3.226,0.772-5.578
						c-0.045-2.352-0.09-4.065-0.134-5.141l0.941,0.538h2.352l0.605-0.605l0.806,0.807l-0.538,0.403v11.693
						c0,0.358-0.09,0.66-0.269,0.907c-0.18,0.246-0.538,0.481-1.075,0.706c-0.225-0.672-0.919-1.166-2.083-1.479v-0.269
						c1.075,0.135,1.781,0.213,2.117,0.235c0.336,0.023,0.504-0.145,0.504-0.504v-4.502H266.644z M266.644,520.42v3.024h2.419
						v-3.024H266.644z M266.644,523.847v3.158h2.419v-3.158H266.644z"/>
					<path fill="#FFFFFF" d="M278.136,519.009l1.545,1.008l-0.739,0.403c-1.479,3.136-3.405,5.488-5.779,7.056l-0.202-0.202
						c1.657-1.568,2.9-3.102,3.73-4.604C277.519,521.17,278.001,519.949,278.136,519.009z M275.985,531.979l7.93-0.135
						c-0.494-0.896-1.21-1.926-2.151-3.091l0.202-0.201c1.657,1.344,2.677,2.308,3.058,2.89c0.38,0.583,0.571,1.03,0.571,1.344
						c0,0.269-0.101,0.526-0.302,0.773c-0.202,0.246-0.348,0.37-0.437,0.37c-0.09,0-0.202-0.158-0.336-0.471
						c-0.18-0.538-0.336-0.964-0.47-1.277c-4.301,0.313-6.743,0.538-7.325,0.672c-0.583,0.134-1.031,0.313-1.344,0.538l-0.739-1.411
						c0.358,0,0.807-0.291,1.344-0.874c0.538-0.582,1.265-1.567,2.184-2.957c0.918-1.388,1.534-2.621,1.848-3.696l1.479,1.143
						l-0.739,0.336C279.099,528.44,277.508,530.456,275.985,531.979z M282.638,519.009l-0.605,0.403
						c0.403,1.389,1.109,2.745,2.117,4.066c1.008,1.322,2.273,2.229,3.797,2.722v0.202c-0.717,0-1.232,0.269-1.545,0.806
						c-1.255-0.985-2.342-2.194-3.259-3.629c-0.919-1.433-1.535-3.113-1.848-5.04L282.638,519.009z"/>
					<path fill="#FFFFFF" d="M291.038,534.062c0.044-0.806,0.067-1.657,0.067-2.554v-10.416c0-0.761-0.023-1.59-0.067-2.486
						l1.075,0.604h11.021l0.471-0.672l1.008,0.807l-0.538,0.47v10.752c0,0.852,0.022,1.814,0.067,2.89l-0.941,0.471v-1.209h-11.155
						v1.008L291.038,534.062z M292.046,519.613v12.701h11.155v-12.701H292.046z M292.45,524.385h7.93l0.94-0.941l1.344,1.344h-3.629
						v4.368c-0.045,0.628,0.291,0.919,1.008,0.874h1.008c0.313-0.044,0.504-0.37,0.571-0.974c0.067-0.605,0.123-1.243,0.168-1.916
						h0.269c0,0.538,0.034,1.099,0.101,1.68c0.067,0.583,0.302,0.941,0.706,1.075c-0.269,0.583-0.784,0.874-1.546,0.874h-2.016
						c-0.852-0.044-1.233-0.56-1.143-1.545v-4.436h-1.882c-0.045,2.241-0.403,3.82-1.075,4.738
						c-0.672,0.919-1.545,1.669-2.621,2.251l-0.134-0.202c0.985-0.716,1.713-1.568,2.184-2.554c0.47-0.985,0.706-2.396,0.706-4.234
						h-0.672c-0.583,0-1.12,0.067-1.613,0.202L292.45,524.385z M293.928,521.428h5.242l0.807-0.806l1.209,1.209h-5.174
						c-0.583,0-1.075,0.067-1.479,0.202L293.928,521.428z"/>
				</g>
			</g>
			<polygon fill="#920783" points="263.815,544.953 267.115,539.011 267.004,545.805 272.833,542.31 269.337,548.14 
				276.133,548.026 270.193,551.328 276.133,554.628 269.337,554.517 272.833,560.346 267.004,556.849 267.115,563.644 
				263.815,557.706 260.516,563.644 260.626,556.849 254.8,560.346 258.294,554.517 251.498,554.628 257.438,551.328 
				251.498,548.026 258.294,548.14 254.8,542.31 260.626,545.805 260.516,539.011 			"/>
		</g>
		<g>
			<g>
				<g>
					<path fill="#1D2088" d="M148.943,464.885c0,3.695,0.013,5.795,0.04,6.3l-0.598,0.2v-0.957h-5.463v0.837l-0.598,0.239
						c0.026-1.25,0.04-2.486,0.04-3.708s-0.014-2.433-0.04-3.629l0.598,0.279h1.117c0.532-0.93,0.851-1.635,0.957-2.113l0.917,0.598
						c-0.346,0.106-0.877,0.612-1.595,1.515h3.948l0.438-0.438l0.638,0.638L148.943,464.885z M142.921,464.686v2.433h5.463v-2.433
						H142.921z M142.921,467.357v2.832h5.463v-2.832H142.921z"/>
					<path fill="#1D2088" d="M152.811,466.959c0.026-0.744,0.04-1.489,0.04-2.233c0-0.744-0.014-1.476-0.04-2.193l0.598,0.319h4.746
						l0.359-0.359l0.598,0.558l-0.359,0.239c0,1.861,0.013,2.978,0.04,3.35l-0.598,0.279v-0.559h-2.113v1.157h2.711l0.598-0.598
						l0.837,0.837h-4.067c1.117,1.436,2.485,2.34,4.107,2.711v0.16c-0.505,0.026-0.811,0.186-0.917,0.479
						c-1.595-0.877-2.686-1.94-3.27-3.19c0,1.861,0.013,2.991,0.04,3.389l-0.678,0.319c0.026-1.037,0.04-2.247,0.04-3.629
						c-0.984,1.409-2.379,2.486-4.187,3.23l-0.04-0.16c1.568-0.877,2.805-1.98,3.708-3.31h-2.233c-0.346,0-0.665,0.04-0.957,0.12
						l-0.359-0.359h4.067v-1.157h-2.074v0.359L152.811,466.959z M153.409,463.091v1.355h2.074v-1.355H153.409z M153.409,464.686
						v1.436h2.074v-1.436H153.409z M156.081,463.091v1.355h2.113v-1.355H156.081z M156.081,464.686v1.436h2.113v-1.436H156.081z"/>
					<path fill="#1D2088" d="M164.615,464.805c0-0.239-0.014-0.504-0.04-0.797l0.837,0.399l-0.279,0.199v0.438h1.834v-0.279
						c0-0.239-0.014-0.492-0.04-0.758l0.877,0.359l-0.319,0.239v0.438h0.598l0.479-0.479l0.718,0.718h-1.794v0.718h0.718
						l0.479-0.479l0.718,0.718h-1.914v0.718h1.555l0.598-0.599l0.837,0.838h-3.11c0.558,0.558,1.123,0.971,1.695,1.236
						c0.571,0.266,1.097,0.426,1.575,0.479v0.16c-0.373,0.027-0.638,0.199-0.798,0.519c-0.505-0.266-0.984-0.598-1.436-0.997
						c-0.452-0.399-0.877-0.864-1.276-1.396h-2.034c-0.532,0.638-1.117,1.163-1.755,1.575c-0.638,0.413-1.303,0.738-1.994,0.977
						l-0.08-0.12c0.611-0.265,1.196-0.611,1.754-1.037c0.558-0.425,1.023-0.891,1.396-1.396h-1.555c-0.346,0-0.665,0.04-0.957,0.12
						l-0.359-0.359h3.071v-0.678h-0.279c-0.346,0-0.665,0.04-0.957,0.12l-0.359-0.359h1.595v-0.758h-0.399
						c-0.346,0-0.665,0.04-0.957,0.12l-0.359-0.359h1.715V464.805z M164.495,469.192l0.598,0.598
						c-0.266,0.08-0.652,0.306-1.157,0.678c-0.505,0.399-1.143,0.771-1.914,1.117l-0.08-0.12c0.584-0.373,1.083-0.738,1.496-1.097
						C163.85,470.009,164.202,469.617,164.495,469.192z M168.961,464.686l0.398-0.757h-6.46c0.026,0.292,0.02,0.505-0.02,0.638
						c-0.04,0.134-0.113,0.22-0.219,0.259c-0.106,0.04-0.213,0.06-0.319,0.06c-0.08,0-0.153-0.006-0.219-0.02
						c-0.067-0.013-0.1-0.046-0.1-0.1c0-0.053,0.066-0.16,0.2-0.319c0.212-0.212,0.372-0.598,0.479-1.156h0.159l0.04,0.399h6.42
						l0.319-0.359l0.638,0.678c-0.319-0.026-0.718,0.226-1.196,0.758L168.961,464.686z M164.455,470.667
						c0.452,0.053,0.784,0.093,0.997,0.12c0.212,0.026,0.319-0.08,0.319-0.319v-1.595h-0.837c-0.346,0-0.665,0.04-0.957,0.12
						l-0.359-0.359h2.153c0-0.292-0.014-0.704-0.04-1.236l0.837,0.359l-0.279,0.199v0.678h1.037l0.439-0.439l0.678,0.678h-2.153
						v1.635c0.026,0.558-0.253,0.93-0.837,1.117c0-0.319-0.333-0.585-0.997-0.798V470.667z M165.133,465.284v0.718h1.834v-0.718
						H165.133z M165.133,466.241v0.718h1.834v-0.718H165.133z M165.213,462.373l0.08-0.08c0.611,0.213,0.957,0.379,1.037,0.499
						c0.08,0.12,0.12,0.219,0.12,0.299c0,0.133-0.04,0.259-0.12,0.379c-0.08,0.12-0.146,0.179-0.2,0.179
						c-0.054,0-0.12-0.093-0.199-0.279C165.824,463.078,165.585,462.746,165.213,462.373z M166.728,469.591l0.08-0.12
						c0.983,0.319,1.655,0.565,2.014,0.737c0.359,0.173,0.551,0.339,0.578,0.499c0.026,0.16,0.04,0.279,0.04,0.359
						c0,0.133-0.027,0.246-0.08,0.339c-0.053,0.093-0.093,0.139-0.12,0.139c-0.053,0-0.146-0.08-0.279-0.239
						c-0.213-0.266-0.459-0.512-0.738-0.738C167.944,470.342,167.446,470.016,166.728,469.591z"/>
					<path fill="#1D2088" d="M171.673,470.867l-0.08-0.12c1.329-1.329,2.246-3.031,2.751-5.104h-1.236
						c-0.346,0-0.665,0.04-0.957,0.12l-0.359-0.359h2.512l0.359-0.479l0.718,0.638l-0.399,0.199
						C174.318,468.129,173.214,469.83,171.673,470.867z M175.78,462.333l1.037,0.438l-0.398,0.319
						c-0.027,0.612,0.026,1.13,0.159,1.555c0.133,0.425,0.345,0.944,0.638,1.555c1.037-0.851,1.741-1.582,2.113-2.193l0.678,0.718
						c-0.266,0.027-0.598,0.187-0.997,0.479c-0.426,0.293-0.997,0.692-1.715,1.196c1.037,1.994,2.207,3.204,3.509,3.629v0.16
						c-0.505,0.027-0.811,0.186-0.917,0.479c-1.622-1.196-2.778-3.137-3.469-5.822v5.583c0.026,0.664-0.293,1.077-0.957,1.236
						c0.026-0.373-0.386-0.665-1.236-0.877v-0.16c0.611,0.053,1.03,0.08,1.256,0.08c0.226,0,0.339-0.159,0.339-0.479v-6.42
						C175.82,463.304,175.806,462.812,175.78,462.333z"/>
					<path fill="#1D2088" d="M181.722,471.584c0.479-0.931,0.791-1.808,0.938-2.632c0.146-0.824,0.225-1.788,0.239-2.891
						c0.013-1.103-0.007-2.027-0.06-2.771l0.638,0.359h5.981l0.598-0.519l0.758,0.758h-7.337c0.026,2.526-0.1,4.267-0.379,5.224
						s-0.698,1.807-1.256,2.552L181.722,471.584z M187.544,469.431c0,0.877,0.013,1.515,0.04,1.914l-0.598,0.279
						c0.026-0.559,0.04-1.289,0.04-2.193h-2.233c-0.319,0-0.625,0.04-0.917,0.12l-0.359-0.359h3.509v-1.356h-1.794l-0.319,0.319
						l-0.439-0.479l0.239-0.16c0.292-0.532,0.572-1.143,0.838-1.834h-0.599c-0.319,0-0.625,0.04-0.917,0.12l-0.359-0.359h1.954
						c0.212-0.611,0.345-1.117,0.399-1.515l0.718,0.398c-0.107,0.054-0.306,0.426-0.598,1.117h3.03l0.559-0.479l0.718,0.718h-4.387
						c-0.239,0.612-0.518,1.25-0.837,1.914h1.794c0-0.664-0.014-1.156-0.04-1.476l0.917,0.399l-0.359,0.279v0.797h1.077l0.558-0.518
						l0.758,0.757h-2.393v1.356h1.914l0.558-0.558l0.798,0.797H187.544z M185.949,462.253c0.505,0.159,0.837,0.306,0.997,0.438
						c0.16,0.133,0.232,0.273,0.219,0.419c-0.014,0.146-0.06,0.266-0.14,0.359c-0.08,0.093-0.146,0.139-0.199,0.139
						c-0.054,0-0.12-0.08-0.199-0.239c-0.107-0.239-0.346-0.571-0.718-0.997L185.949,462.253z"/>
				</g>
			</g>
			<g>
				<g>
					<path fill="#1D2088" d="M125.787,506.919c0,1.223,0.013,2.113,0.04,2.671l-0.598,0.279v-0.359h-2.473v1.236h1.994l0.518-0.519
						l0.758,0.758h-3.27v1.077h2.632l0.638-0.638l0.877,0.877h-7.537c-0.346,0-0.665,0.04-0.957,0.12l-0.359-0.359h4.188v-1.077
						h-2.114c-0.346,0-0.665,0.04-0.957,0.12l-0.359-0.359h3.43v-1.236h-2.353v0.239l-0.598,0.279c0.026-1.356,0.026-2.672,0-3.948
						l0.598,0.319h5.304l0.399-0.399l0.598,0.598L125.787,506.919z M119.806,512.621c0,0.957-0.08,1.536-0.239,1.735
						c-0.16,0.199-0.319,0.299-0.479,0.299c-0.106,0-0.213-0.02-0.319-0.06c-0.106-0.04-0.159-0.087-0.159-0.14
						c0-0.054,0.04-0.106,0.12-0.16c0.159-0.159,0.319-0.352,0.479-0.578c0.159-0.226,0.305-0.591,0.438-1.097H119.806z
						 M119.885,506.64v2.632h2.353v-2.632H119.885z M120.443,507.039c0.505,0.319,0.824,0.572,0.957,0.757
						c0.133,0.187,0.2,0.346,0.2,0.479c0,0.134-0.054,0.273-0.16,0.419c-0.106,0.146-0.186,0.219-0.239,0.219
						c-0.08,0-0.146-0.146-0.199-0.438c-0.08-0.399-0.306-0.851-0.678-1.356L120.443,507.039z M120.962,512.661
						c0.532,0.505,0.831,0.864,0.897,1.077c0.066,0.213,0.1,0.332,0.1,0.359c0,0.186-0.067,0.332-0.199,0.438
						c-0.134,0.106-0.213,0.16-0.239,0.16c-0.107,0-0.173-0.16-0.2-0.479c-0.054-0.425-0.213-0.917-0.479-1.476L120.962,512.661z
						 M122.756,506.64v2.632h2.473v-2.632H122.756z M122.996,512.701c0.479,0.346,0.778,0.618,0.897,0.817
						c0.12,0.199,0.179,0.366,0.179,0.499c0,0.159-0.06,0.305-0.179,0.438c-0.12,0.133-0.193,0.199-0.219,0.199
						c-0.107,0-0.187-0.159-0.239-0.479c-0.08-0.452-0.266-0.917-0.559-1.396L122.996,512.701z M124.033,506.958l0.797,0.559
						l-0.319,0.12c-0.585,0.665-1.011,1.143-1.276,1.436l-0.12-0.08C123.647,508.062,123.953,507.384,124.033,506.958z
						 M124.95,512.621c0.505,0.293,0.877,0.559,1.117,0.798s0.359,0.452,0.359,0.638c0,0.16-0.054,0.313-0.16,0.459
						c-0.106,0.146-0.173,0.219-0.199,0.219c-0.08,0-0.16-0.146-0.239-0.439c-0.133-0.425-0.466-0.957-0.997-1.595L124.95,512.621z"
						/>
					<path fill="#1D2088" d="M130.771,514.854c0.026-0.718,0.04-2.286,0.04-4.706c-0.824,1.037-1.729,1.861-2.711,2.472l-0.08-0.12
						c0.957-0.824,1.755-1.714,2.393-2.671c0.638-0.958,1.143-1.915,1.516-2.872h-2.552c-0.213,0-0.465,0.04-0.758,0.12
						l-0.359-0.359h7.577l0.638-0.598l0.797,0.837h-4.625c-0.505,1.064-1.024,2.008-1.555,2.832l0.319,0.16h3.749l0.319-0.439
						l0.678,0.559l-0.359,0.279c0,2.047,0.013,3.39,0.04,4.028l-0.598,0.239v-1.077h-3.868v0.997L130.771,514.854z M131.37,510.189
						v3.11h3.868v-3.11H131.37z"/>
					<path fill="#1D2088" d="M144.091,506.201l-0.399,0.279c-0.027,0.877-0.054,1.615-0.08,2.213
						c-0.027,0.598-0.08,1.336-0.16,2.213h2.353l0.678-0.678l0.917,0.917h-3.988c-0.054,0.213-0.133,0.452-0.239,0.718
						c1.356,0.558,2.339,0.991,2.951,1.296c0.611,0.306,0.91,0.652,0.897,1.037c-0.014,0.385-0.086,0.578-0.219,0.578
						c-0.106,0-0.279-0.146-0.519-0.438c-0.479-0.584-1.542-1.342-3.19-2.273c-0.453,0.877-1.09,1.529-1.914,1.954
						c-0.824,0.425-1.755,0.757-2.792,0.997l-0.04-0.159c1.143-0.346,2.1-0.798,2.871-1.356s1.302-1.342,1.595-2.353h-3.11
						c-0.346,0-0.665,0.04-0.957,0.12l-0.359-0.359h4.466c0.106-0.877,0.166-1.828,0.179-2.852c0.013-1.023,0.02-1.814,0.02-2.373
						L144.091,506.201z M139.266,508.314c1.01,0.373,1.581,0.645,1.714,0.817c0.133,0.173,0.2,0.339,0.2,0.499
						c0,0.133-0.034,0.273-0.1,0.419c-0.067,0.146-0.126,0.219-0.18,0.219c-0.106,0-0.226-0.133-0.359-0.399
						c-0.239-0.399-0.691-0.877-1.356-1.436L139.266,508.314z M140.183,506.4c0.93,0.293,1.489,0.525,1.675,0.698
						c0.186,0.173,0.279,0.353,0.279,0.539c0,0.08-0.034,0.206-0.1,0.379c-0.067,0.173-0.14,0.259-0.22,0.259
						c-0.08,0-0.186-0.12-0.319-0.359c-0.213-0.372-0.678-0.837-1.396-1.396L140.183,506.4z"/>
					<path fill="#1D2088" d="M148.597,514.216l-0.08-0.12c1.329-1.329,2.246-3.031,2.751-5.104h-1.236
						c-0.346,0-0.665,0.04-0.957,0.12l-0.359-0.359h2.512l0.359-0.479l0.718,0.638l-0.399,0.199
						C151.242,511.479,150.138,513.18,148.597,514.216z M152.704,505.683l1.037,0.438l-0.398,0.319
						c-0.027,0.612,0.026,1.13,0.159,1.555c0.133,0.425,0.345,0.944,0.638,1.555c1.037-0.851,1.741-1.582,2.113-2.193l0.678,0.718
						c-0.266,0.027-0.598,0.187-0.997,0.479c-0.426,0.293-0.997,0.692-1.715,1.196c1.037,1.994,2.207,3.204,3.509,3.629v0.16
						c-0.505,0.027-0.811,0.186-0.917,0.479c-1.622-1.196-2.778-3.137-3.469-5.822v5.583c0.026,0.664-0.293,1.077-0.957,1.236
						c0.026-0.373-0.386-0.665-1.236-0.877v-0.16c0.611,0.053,1.03,0.08,1.256,0.08c0.226,0,0.339-0.159,0.339-0.479v-6.42
						C152.744,506.653,152.73,506.161,152.704,505.683z"/>
					<path fill="#1D2088" d="M158.646,514.934c0.479-0.931,0.791-1.808,0.938-2.632c0.146-0.824,0.225-1.788,0.239-2.891
						c0.013-1.103-0.007-2.027-0.06-2.771l0.638,0.359h5.981l0.598-0.519l0.758,0.758H160.4c0.026,2.526-0.1,4.267-0.379,5.224
						s-0.698,1.807-1.256,2.552L158.646,514.934z M164.468,512.781c0,0.877,0.013,1.515,0.04,1.914l-0.598,0.279
						c0.026-0.559,0.04-1.289,0.04-2.193h-2.233c-0.319,0-0.625,0.04-0.917,0.12l-0.359-0.359h3.509v-1.356h-1.794l-0.319,0.319
						l-0.439-0.479l0.239-0.16c0.292-0.532,0.572-1.143,0.838-1.834h-0.599c-0.319,0-0.625,0.04-0.917,0.12l-0.359-0.359h1.954
						c0.212-0.611,0.345-1.117,0.399-1.515l0.718,0.398c-0.107,0.054-0.306,0.426-0.598,1.117h3.03l0.559-0.479l0.718,0.718h-4.387
						c-0.239,0.612-0.518,1.25-0.837,1.914h1.794c0-0.664-0.014-1.156-0.04-1.476l0.917,0.399l-0.359,0.279v0.797h1.077l0.558-0.518
						l0.758,0.757h-2.393v1.356h1.914l0.558-0.558l0.798,0.797H164.468z M162.873,505.603c0.505,0.159,0.837,0.306,0.997,0.438
						c0.16,0.133,0.232,0.273,0.219,0.419c-0.014,0.146-0.06,0.266-0.14,0.359c-0.08,0.093-0.146,0.139-0.199,0.139
						c-0.054,0-0.12-0.08-0.199-0.239c-0.107-0.239-0.346-0.571-0.718-0.997L162.873,505.603z"/>
				</g>
			</g>
			<path fill="#00A0E9" d="M124.11,473.604c0,0,16.474-15.535,21.761-17.248c5.289-1.71,11.015-6.786,11.015-6.786
				s-40.012,9.635-40.012,24.034H124.11z"/>
			<path fill="#00A0E9" d="M51.311,485.968l3.058,4.69h5.146l0.615,1.843l-2.381,6.46l-3.381,5.582c0,0-2.232,0.563-3.058,2.1
				c-0.825,1.535-4.009,2.147-4.009,2.147s-1.229,0.021-3.071,3.39c-1.844,3.37-3.687,2.142-5.53,2.142
				c-1.843,0-3.995,0.218-3.995,0.218v-2.368l3.841-2.078h2.459c0,0-0.153-4.69,0.152-4.69c0.309,0,1.69-1.681,2.458-2.296
				c0.77-0.615,2.612-1.382,2.767-1.845c0.152-0.46-0.461-1.689-1.537-3.072c-1.075-1.382-1.153-0.313-2.036-2.845
				c-0.883-2.532-2.11-5.111-1.188-6.373c0.921-1.262,3.533-3.688,3.533-3.688h3.071L51.311,485.968z"/>
			<path fill="#00A0E9" d="M105.436,608.734l11.563-1.429l4.764-6.317l4.424-5.706l-2.041-4.094l2.041-3.622c0,0,7.57-0.339,7.57,0
				c0,0.344,3.32,3.622,3.32,3.622s-1.021,4.933,0,6.952c1.019,2.017,1.699,5.763,1.699,5.763s1.055,4.216,2.399,4.83
				c1.345,0.613,3.828,2.049,4.969,2.049s6.767-0.757,5.485,1.626c-1.283,2.381-0.941,1.691-1.962,3.568
				c-1.02,1.877-0.581,4.258-3.523,4.598c-2.943,0.342-10.763,0.735-10.596,1.56s-1.791,2.188-1.791,2.188s1.958,7.123-2.465,4.238
				l-4.425-2.541l-0.34-3.886l-2.722-3.024c0,0-8.847-8.328-12.93-8.328C106.79,610.783,105.436,608.734,105.436,608.734z"/>
			<path fill="#00A0E9" d="M140.524,536.557c-0.006-0.183-0.014-0.309-0.024-0.366c-0.365-1.891-4.108-6.26-3.62-8.044
				c0-0.002,1.888-6.906,1.888-6.906l4.105-4.24l-2.425-3.146c0,0-3.74,2.042-5.702,5.104c-1.957,3.054-5.465,8.815-5.485,8.849
				c-1.546,2.539,0.52,7.575,2.909,8.687c2.669,1.238,5.716,1.769,8.151,3.384C140.498,539.994,140.55,537.53,140.524,536.557z"/>
			<g>
				<rect x="16.692" y="521.529" fill="#00A0E9" width="93.633" height="20.335"/>
				<g>
					<path fill="#FFFFFF" d="M23.563,526.032h11.29l1.008-0.94l1.276,1.344h-6.451v5.309h3.629l0.806-0.807l1.143,1.21h-5.578v5.779
						h5.107l0.941-0.94l1.276,1.344H24.705c-0.583,0-1.121,0.067-1.613,0.202l-0.604-0.605h7.19v-5.779h-3.024
						c-0.583,0-1.121,0.067-1.612,0.201l-0.606-0.604h5.243v-5.309H25.78c-0.583,0-1.121,0.067-1.613,0.202L23.563,526.032z"/>
					<path fill="#FFFFFF" d="M52.056,534.164c0,2.419,0.021,3.987,0.067,4.704l-1.008,0.471v-1.344h-6.182v1.075l-1.008,0.471
						c0.044-0.672,0.067-2.374,0.067-5.107c-1.166,1.031-2.576,1.949-4.233,2.755l-0.135-0.201c1.076-0.672,2.094-1.479,3.058-2.419
						c0.964-0.941,1.87-2.127,2.723-3.562h-3.764c-0.359,0-0.784,0.067-1.276,0.202l-0.604-0.605h5.779
						c0.492-1.119,0.829-2.127,1.008-3.023l1.479,0.94l-0.604,0.269c-0.27,0.583-0.538,1.188-0.807,1.814h6.317l1.008-1.008
						l1.276,1.412h-8.736c-0.537,0.941-1.12,1.792-1.748,2.553h6.25l0.47-0.739l1.142,0.874L52.056,534.164z M44.529,528.72
						c0.044-0.672,0.067-1.366,0.067-2.083h-2.554c-0.359,0-0.784,0.067-1.276,0.202l-0.605-0.605h4.435
						c0-0.761-0.022-1.568-0.067-2.419l1.545,0.671l-0.538,0.471v1.277H49.3c0-0.806-0.023-1.613-0.067-2.419l1.546,0.604
						l-0.538,0.471v1.344h2.151l1.008-0.94l1.343,1.344h-4.502c0,0.538,0.022,1.031,0.067,1.479l-1.008,0.403v-1.881h-3.763v1.68
						L44.529,528.72z M44.932,533.962v3.628h6.182v-3.628H44.932z"/>
					<path fill="#FFFFFF" d="M70.738,539.137c-1.032-0.09-2.117-0.504-3.26-1.244c-1.142-0.739-1.926-1.836-2.351-3.292
						c-0.426-1.456-0.638-2.9-0.638-4.334c0-1.433,0-2.957,0-4.57h-4.973c-0.583,0-1.121,0.067-1.613,0.202l-0.605-0.604h7.056
						l0.74-0.739l0.941,0.94l-0.605,0.47v3.629l0.538,0.202c1.254-1.299,2.285-2.71,3.092-4.233l1.343,1.075l-0.739,0.269
						c-1.255,1.209-2.375,2.218-3.36,3.024c1.926,0.851,3.012,1.444,3.259,1.781c0.247,0.336,0.37,0.638,0.37,0.907
						c0,0.135-0.033,0.314-0.101,0.538c-0.067,0.225-0.146,0.336-0.235,0.336c-0.135,0-0.381-0.246-0.74-0.739
						c-0.538-0.716-1.68-1.657-3.427-2.822c0,2.509,0.414,4.401,1.244,5.678c0.829,1.277,2.071,2.05,3.729,2.318l0.47-3.562h0.27
						c0,1.3,0.077,2.297,0.235,2.99c0.157,0.694,0.346,1.198,0.571,1.512C72.171,539.137,71.767,539.226,70.738,539.137z"/>
					<path fill="#FFFFFF" d="M79.675,524.419l1.545,1.008l-0.74,0.403c-1.479,3.136-3.405,5.488-5.779,7.056l-0.202-0.201
						c1.657-1.568,2.9-3.102,3.73-4.604C79.058,526.582,79.54,525.36,79.675,524.419z M77.523,537.389l7.93-0.134
						c-0.493-0.896-1.209-1.926-2.15-3.091l0.201-0.201c1.657,1.344,2.677,2.307,3.058,2.889c0.381,0.583,0.571,1.03,0.571,1.344
						c0,0.269-0.101,0.526-0.302,0.773c-0.202,0.246-0.348,0.37-0.437,0.37c-0.091,0-0.202-0.158-0.336-0.471
						c-0.18-0.538-0.336-0.963-0.47-1.277c-4.301,0.313-6.743,0.538-7.325,0.672c-0.583,0.134-1.032,0.313-1.344,0.538l-0.739-1.412
						c0.358,0,0.806-0.291,1.343-0.874c0.538-0.582,1.266-1.567,2.185-2.957c0.917-1.388,1.534-2.621,1.848-3.695l1.479,1.142
						l-0.739,0.335C80.637,533.851,79.046,535.867,77.523,537.389z M84.176,524.419l-0.604,0.403
						c0.403,1.389,1.108,2.745,2.117,4.066c1.008,1.322,2.273,2.229,3.797,2.721v0.202c-0.717,0-1.233,0.269-1.546,0.806
						c-1.254-0.985-2.341-2.194-3.26-3.628c-0.918-1.433-1.535-3.113-1.847-5.04L84.176,524.419z"/>
					<path fill="#FFFFFF" d="M92.577,539.472c0.044-0.806,0.067-1.657,0.067-2.553v-10.417c0-0.761-0.023-1.589-0.067-2.486
						l1.075,0.604h11.021l0.47-0.672l1.008,0.806l-0.538,0.47v10.753c0,0.851,0.021,1.814,0.067,2.889l-0.941,0.471v-1.21H93.585
						v1.008L92.577,539.472z M93.585,525.024v12.701h11.155v-12.701H93.585z M93.988,529.795h7.929l0.941-0.94l1.344,1.344h-3.628
						v4.368c-0.045,0.628,0.291,0.919,1.008,0.874h1.008c0.313-0.044,0.504-0.37,0.571-0.974c0.067-0.605,0.122-1.243,0.168-1.916
						h0.269c0,0.538,0.034,1.098,0.101,1.68c0.067,0.583,0.303,0.94,0.705,1.075c-0.268,0.583-0.784,0.874-1.545,0.874h-2.016
						c-0.851-0.044-1.232-0.56-1.142-1.546v-4.435h-1.882c-0.044,2.241-0.402,3.82-1.075,4.738
						c-0.672,0.918-1.545,1.669-2.621,2.251l-0.134-0.201c0.984-0.717,1.713-1.568,2.184-2.554c0.471-0.985,0.707-2.396,0.707-4.234
						h-0.673c-0.583,0-1.121,0.067-1.613,0.202L93.988,529.795z M95.467,526.839h5.241l0.807-0.807l1.209,1.209H97.55
						c-0.583,0-1.075,0.068-1.479,0.202L95.467,526.839z"/>
				</g>
			</g>
			<polygon fill="#920783" points="99.625,549.404 102.924,543.462 102.813,550.256 108.642,546.762 105.146,552.589 
				111.942,552.478 106.002,555.78 111.942,559.079 105.146,558.966 108.642,564.795 102.813,561.298 102.924,568.098 
				99.625,562.152 96.325,568.098 96.436,561.298 90.606,564.795 94.103,558.966 87.306,559.079 93.248,555.78 87.306,552.478 
				94.103,552.589 90.606,546.762 96.436,550.256 96.325,543.462 			"/>
		</g>
	</g>
</g>
<g>
	<g>
		<g>
			<polygon fill="#E60012" stroke="#E72922" stroke-width="1.4104" points="427.062,550.322 431.077,562.692 444.089,562.692 
				433.565,570.339 437.583,582.717 427.062,575.071 416.529,582.717 420.557,570.339 410.023,562.692 423.039,562.692 			"/>
		</g>
		<g>
			<path fill="#DD4422" d="M555.101,465.85H372.543c-6.234,0-11.29,4.845-11.29,10.82v43.284c0,5.974,5.056,10.821,11.29,10.821
				h14.922l14.246,23.365l13.341-23.365h140.049c6.237,0,11.292-4.848,11.292-10.821V476.67
				C566.393,470.695,561.338,465.85,555.101,465.85z"/>
			<path fill="#E76E43" d="M552.873,468.507H375.32c-6.061,0-10.979,4.394-10.979,9.812v39.241c0,5.415,4.919,9.809,10.979,9.809
				h14.51l11.817,21.716l12.356-21.716h138.869c6.065,0,10.986-4.394,10.986-9.809v-39.241
				C563.859,472.9,558.938,468.507,552.873,468.507z"/>
		</g>
		<g>
			<path fill="#FFFFFF" d="M388.384,480.461l3.211,1.059c0.753,0.224,1.124,0.453,1.113,0.688c0.011,0.223-0.36,0.535-1.113,0.935
				c-0.282,0.177-0.499,0.477-0.652,0.9c-0.104,0.294-0.223,0.635-0.353,1.023c-0.141,0.447-0.276,0.841-0.405,1.183h14.2
				c1.177,0,2.547-0.095,4.111-0.283v3.246c-1.553-0.165-2.924-0.248-4.111-0.248h-15.364c-0.788,1.766-2,4.271-3.636,7.517h6.21
				v-1.553c0.013-1.117-0.075-2.516-0.264-4.198l3.845,0.476c0.389,0.059,0.593,0.203,0.608,0.432
				c0.018,0.23-0.148,0.539-0.502,0.927c-0.282,0.247-0.417,0.876-0.406,1.887v2.03h6.721c0.777,0.012,2.03-0.077,3.759-0.265v3.263
				c-0.87-0.117-1.569-0.2-2.099-0.247c-0.506-0.035-1.013-0.053-1.518-0.053h-6.863v11.379c0.048,1.211-0.37,2.041-1.251,2.487
				c-0.836,0.505-2.61,0.905-5.329,1.2c-0.036-1.283-0.476-2.594-1.322-3.935c0.177,0.024,0.429,0.054,0.758,0.088
				c1.705,0.247,2.682,0.364,2.928,0.354c0.684,0.046,0.995-0.307,0.936-1.059v-10.515h-6.932c-0.553-0.059-1.47,0.306-2.753,1.094
				l-1.693-3.44c0.904-0.317,1.665-0.952,2.275-1.905c0.776-1.305,1.74-3.293,2.893-5.963h-4.71
				c-0.987-0.011-2.357,0.083-4.109,0.283v-3.281c1.54,0.188,2.911,0.283,4.109,0.283h5.964
				C387.343,484.554,387.927,482.625,388.384,480.461z M386.868,505.97c-1.931,2.2-4.423,4.417-7.481,6.651
				c-0.576-0.894-1.48-1.735-2.717-2.522c4.082-2.035,7.046-4.805,8.893-8.31l3.245,1.87c0.247,0.153,0.37,0.318,0.37,0.495
				c0,0.059-0.037,0.162-0.114,0.309c-0.075,0.147-0.391,0.302-0.944,0.467C387.803,505.012,387.385,505.359,386.868,505.97z
				 M397.011,504.63l2.277-2.558c3.104,2.094,6.196,4.575,9.279,7.444l-2.523,2.594C403.163,509.169,400.15,506.676,397.011,504.63z
				"/>
			<path fill="#FFFFFF" d="M412.801,510.928c7.091-1.729,11.461-5.068,13.108-10.02h-7.552c-1.963,0.023-3.551,0.158-4.763,0.406
				v-3.44c0.94,0.188,2.529,0.3,4.763,0.335h8.026c0.143-1.529,0.224-3.411,0.247-5.645h-6.755c-1.977,0.023-3.588,0.147-4.835,0.37
				v-3.476c1.236,0.247,2.847,0.382,4.835,0.406h9.295c2.399-2.964,4.301-5.939,5.699-8.927l3.404,2.311
				c0.237,0.165,0.354,0.335,0.354,0.512c0,0.07-0.024,0.152-0.071,0.247c-0.166,0.259-0.524,0.441-1.077,0.547
				c-0.329,0.07-0.616,0.289-0.864,0.653c-0.246,0.317-0.663,0.858-1.253,1.624c-1.116,1.446-1.904,2.458-2.363,3.034h4.588
				c1.705-0.024,3.245-0.147,4.622-0.371v3.369c-1.224-0.187-2.836-0.287-4.834-0.299h-7.445c-0.022,1.329-0.088,3.04-0.194,5.133
				c0,0.036-0.005,0.095-0.018,0.177c-0.012,0.13-0.018,0.241-0.018,0.335h9.58c1.764-0.024,3.233-0.147,4.41-0.371v3.44
				c-1.27-0.212-2.741-0.335-4.41-0.37h-8.063c2.753,4.798,7.462,7.956,14.131,9.473c-1.001,0.988-1.925,2.206-2.77,3.652
				c-6.447-2.234-11.085-6.026-13.919-11.378c-1.354,4.399-5.764,8.25-13.232,11.555
				C414.653,512.962,413.777,511.869,412.801,510.928z M417.459,484.007l1.888-2.593c3.068,1.929,5.691,3.733,7.868,5.416
				l-2.101,2.558C422.914,487.458,420.364,485.665,417.459,484.007z"/>
			<path fill="#FFFFFF" d="M456.162,497.415c-1.141,2.834-2.793,5.545-4.957,8.133c-0.858-0.965-1.812-1.712-2.858-2.241
				c2.458-2.105,4.206-5.215,5.241-9.332l3.439,1.34c0.389,0.153,0.569,0.353,0.547,0.6c-0.047,0.247-0.294,0.494-0.742,0.741
				C456.525,496.821,456.304,497.073,456.162,497.415z M449.335,512.304v-0.829c4.575-1.906,7.663-4.387,9.263-7.445
				c1.704-2.94,2.563-7.615,2.575-14.025h-4.834c-1.034,0.013-2.388,0.118-4.057,0.318v-3.282c1.504,0.212,2.856,0.318,4.057,0.318
				h4.834c0-2.234-0.083-4.411-0.248-6.528l3.723,0.547c0.53,0.071,0.83,0.242,0.899,0.512c0.049,0.283-0.156,0.588-0.616,0.918
				c-0.247,0.211-0.37,0.646-0.37,1.305c-0.012,0.671-0.03,1.753-0.055,3.246h6.457c0.472,0.024,1.759-0.083,3.864-0.318
				c-0.259,1.87-0.389,3.27-0.389,4.199v4.287l2.135-1.253c2.282,3.435,4.027,6.322,5.239,8.663l-3.333,1.887
				c-1.036-2.881-2.393-5.474-4.076-7.78c0,3.105-0.046,6.393-0.142,9.862c-0.012,2.622-0.545,4.281-1.604,4.975
				c-0.906,0.823-3.252,1.404-7.038,1.746c-0.202-1.128-0.823-2.535-1.87-4.216c2.457,0.353,4.104,0.529,4.939,0.529
				c0.894,0.012,1.48-0.199,1.764-0.635c0.294-0.353,0.465-1.2,0.511-2.54c0.107-1.894,0.177-4.134,0.213-6.722
				c0.024-1.235,0.034-2.628,0.034-4.181c0.013-1.329,0.018-3.281,0.018-5.857h-6.757c-0.069,6.751-0.946,11.667-2.628,14.749
				c-1.588,3.305-4.869,6.568-9.844,9.791C451.176,513.427,450.288,512.68,449.335,512.304z"/>
			<path fill="#FFFFFF" d="M484.849,503.377v-3.228c1.116,0.153,2.558,0.264,4.321,0.335h10.232v-1.517h-7.586
				c-1.518,0.046-2.864,0.129-4.041,0.247v-3.105c1.143,0.142,2.489,0.236,4.041,0.283h7.586v-1.429h-5.998
				c-0.788,0.012-2.136,0.106-4.04,0.282c0.177-1.659,0.271-2.764,0.281-3.316v-0.759c0-0.388-0.094-1.476-0.281-3.264
				c1.835,0.165,3.181,0.265,4.04,0.301h5.998v-1.376h-10.621c-0.87,0.023-2.169,0.105-3.898,0.247v-3.176
				c1.4,0.153,2.7,0.247,3.898,0.283h10.621v-0.317c-0.011-0.459-0.106-1.559-0.281-3.3l3.457,0.406
				c0.61,0.07,0.958,0.224,1.041,0.458c0.01,0.035,0.018,0.077,0.018,0.125c0,0.234-0.194,0.511-0.583,0.829
				c-0.307,0.175-0.453,0.694-0.441,1.552v0.248h10.303c0.788-0.023,2.088-0.118,3.899-0.283v3.176
				c-2.023-0.153-3.322-0.235-3.899-0.247h-10.303v1.376h5.999c0.812-0.024,2.162-0.124,4.058-0.301
				c-0.166,1.365-0.265,2.476-0.301,3.334v0.723c0.023,0.824,0.125,1.929,0.301,3.317c-1.529-0.176-2.882-0.283-4.058-0.317h-5.999
				v1.429h6.51c1.612-0.046,3.082-0.129,4.412-0.247c-0.166,1.423-0.266,2.628-0.301,3.616v0.723h0.441
				c0.481,0,1.711-0.093,3.687-0.283v3.176c-1.846-0.188-3.076-0.288-3.687-0.3h-0.441v1.888c0.046,1.023,0.147,2.276,0.301,3.757
				h-3.653c0.096-0.846,0.142-1.352,0.142-1.517h-7.41v3.423c0.06,1.494-0.335,2.435-1.182,2.823
				c-0.717,0.459-2.658,0.8-5.822,1.022c-0.187-1.105-0.704-2.399-1.551-3.881c0.246,0.024,0.598,0.065,1.058,0.124
				c1.646,0.2,2.652,0.294,3.017,0.283c0.93,0.059,1.353-0.341,1.271-1.2v-2.594h-7.658c-1.361,0.036-2.686,0.118-3.969,0.248
				v-3.104c1.541,0.152,2.865,0.247,3.969,0.282h7.658v-1.553H489.17C487.747,503.112,486.306,503.212,484.849,503.377z
				 M499.402,490.764h-6.687v1.624h6.687V490.764z M509.299,490.764h-6.687v1.624h6.687V490.764z M502.612,498.967v1.517h7.41
				v-1.517H502.612z M510.022,504.63v-1.553h-7.41v1.553H510.022z"/>
			<path fill="#FFFFFF" d="M552.292,513.168c-1,0.024-1.924,0.036-2.769,0.036c-4.635,0-8.205-0.312-10.709-0.935
				c-2.965-0.67-5.47-2.046-7.516-4.128c-0.036-0.036-0.096-0.088-0.177-0.158c-0.083-0.071-0.142-0.124-0.177-0.16
				c-1.753,2.317-4.246,4.504-7.48,6.563c-0.729-1.117-1.787-2.052-3.174-2.805c3.516-1.141,6.368-3.334,8.555-6.58
				c-1.257-2.082-2.281-4.723-3.07-7.921c-0.693,1.305-1.439,2.6-2.24,3.881c-1.151-0.541-2.451-0.882-3.897-1.023
				c4.445-5.175,6.95-11.267,7.515-18.276l3.828,0.899c0.482,0.119,0.741,0.295,0.776,0.53c0.036,0.236-0.165,0.482-0.6,0.741
				c-0.354,0.2-0.601,0.594-0.741,1.182c-0.153,0.6-0.405,1.488-0.758,2.664c-0.036,0.153-0.065,0.265-0.088,0.335h4.339
				c0.87-0.012,2.04-0.095,3.511-0.247c-0.93,7.691-2.487,13.448-4.674,17.27c0.033,0.083,0.117,0.183,0.246,0.3
				c0.023,0.024,0.041,0.041,0.052,0.053c2.576,2.823,7.105,4.293,13.585,4.411c2.188,0,4.616-0.241,7.285-0.723
				C553.114,510.522,552.575,511.886,552.292,513.168z M528.635,490.729c-0.624,1.729-1.464,3.658-2.523,5.786
				c0.8-0.2,1.758-0.611,2.876-1.235c0.177,2.317,0.746,4.475,1.711,6.475c1.481-3.27,2.417-6.945,2.806-11.025H528.635z
				 M543.629,507.346h-3.828c0.153-1.846,0.234-3.192,0.247-4.04v-18.188c-0.023-1.058-0.104-2.44-0.247-4.146l3.828,0.583
				c0.496,0.07,0.757,0.234,0.785,0.493c0.029,0.259-0.172,0.564-0.608,0.917c-0.33,0.224-0.487,0.941-0.476,2.153v5.61
				c3.057,1.763,6.193,3.922,9.402,6.474l-1.887,3.14c-2.436-2.234-4.941-4.198-7.516-5.893v8.856
				C543.341,504.083,543.442,505.43,543.629,507.346z"/>
		</g>
	</g>
	<g opacity="0">
		<text transform="matrix(1 0 0 1 473.4902 555.7798)" fill="#040000" font-family="'ArialMT'" font-size="15">0</text>
		<rect x="345.801" y="444.059" fill="none" stroke="#040000" stroke-width="1.1911" width="249.427" height="141.967"/>
	</g>
</g>
<g>
	<g opacity="0">
		<text transform="matrix(1 0 0 1 415.0107 617.4487)" fill="#040000" font-family="'ArialMT'" font-size="15">1</text>
		<rect x="401.646" y="598.889" fill="none" stroke="#040000" stroke-width="0.656" width="137.737" height="77.967"/>
	</g>
	<g>
		<rect x="425.521" y="625.314" fill="#00A0E9" width="69.313" height="28.865"/>
		<g>
			<g>
				<path fill="#0B318F" d="M458.993,632.813c0.655,0,1.556-0.027,2.702-0.082v1.556c-1.037-0.054-1.938-0.082-2.702-0.082h-6.307
					c-0.438,1.749-1.12,3.44-2.048,5.078h9.746c-0.055,2.293-0.081,4.396-0.081,6.307c0,1.912,0.026,3.467,0.081,4.668h-1.72v-2.047
					h-8.437v2.211h-1.72c0.054-1.257,0.082-4.014,0.082-8.272c-1.421,1.585-2.84,2.867-4.259,3.85
					c-0.438-0.545-0.901-0.954-1.393-1.229c2.347-1.419,4.204-3.194,5.569-5.324c1.364-2.129,2.156-3.876,2.375-5.242H449
					c-1.965,0-3.413,0.028-4.341,0.082v-1.556c0.928,0.055,2.402,0.082,4.423,0.082H458.993z M458.665,646.818v-6.143h-8.437v6.143
					H458.665z"/>
				<path fill="#0B318F" d="M463.989,649.931c0.873-1.257,1.528-2.621,1.966-4.096c0.437-1.474,0.668-2.961,0.696-4.464
					c0.026-1.501,0.013-2.989-0.041-4.463c-0.056-1.474-0.138-2.73-0.246-3.768h13.679c1.31,0,2.293-0.054,2.948-0.164v1.802
					c-0.547-0.054-1.529-0.082-2.948-0.082h-11.795c0.054,2.076,0.082,4.095,0.082,6.061c0,1.912-0.178,3.618-0.532,5.119
					c-0.355,1.503-0.971,3.153-1.843,4.956C465.354,650.558,464.698,650.258,463.989,649.931z"/>
			</g>
		</g>
		<path fill="#FFFFFF" stroke="#E60012" stroke-width="1.7502" d="M513.645,652.541c0,4.424-3.58,8.002-8,8.002
			c-4.419,0-8-3.578-8-8.002c0-4.416,3.581-7.998,8-7.998C510.064,644.543,513.645,648.125,513.645,652.541z"/>
		<polygon fill="#E60012" points="526.538,630.196 507.087,622.467 507.087,622.102 505.242,622.102 505.242,653.642 
			507.087,653.642 507.087,638.696 		"/>
	</g>
</g>

  
</svg>